<svg width="1000" height="1000"><path class="state" d="M262.8013982938584,917.396087172252L263.2081982917108,917.0261156320162L264.1758961423596,916.1458607135133L264.8349963259425,915.3357859309872L265.4224552316981,914.7349387491299L266.0515603636901,914.431924456869L266.5186071509669,914.5469651593942L267.07614306460323,914.9227940706897L267.5763794277733,915.5484416419229L267.94893466727626,920.4228184292075L267.7976556540915,920.7839736220388L267.37729813401677,920.7082091567008L264.2294031900331,918.6003041286239L262.9742908868253,917.682411984614ZM234.38328797254118,954.1912868906178L234.59966157628259,954.0037783545358L234.67180766442112,954.2077509977324L234.76913512534904,954.5664974389332L234.91892987121403,954.7530653066977L234.8001895291809,954.885116473547L234.65632150949324,954.8528582144986L234.44349218908036,954.4913310520949ZM231.94668638195358,954.223104852889L232.62062454113214,954.1520140829182L233.07172827274456,954.2298656629796L232.655330117229,954.5267114348173L232.01898433554638,954.6135274003227L231.6963666421946,954.4217035080053ZM225.0969900588794,951.2676627831565L225.27332772913033,951.1110194046795L225.64831590292036,951.2927683497296L225.90597730742073,951.1036590194418L226.07035353964747,950.9698275853748L226.0797838250233,950.5905836803167L226.2134003749202,950.3065124597745L226.3284914616536,949.837829638014L226.34785188899605,949.5164510341058L226.0098405508658,949.2435880803639L225.60075943189972,949.0492566388893L225.62996916559578,948.7970890459819L225.78248127031773,948.6745424891752L225.82151338508967,948.4915751114327L225.7806674672613,948.2835018157449L225.91922978778732,948.2640350433192L225.94785998245527,948.034777816343L226.0357409274757,947.7380481216142L226.13323864962535,947.2373547789143L226.18416948828283,946.8216974799793L226.21152781905596,946.537673974145L226.2102275767294,946.1817676506205L226.2018194313338,945.7036224767672L226.11694493294124,945.4371005898231L226.06300161289573,945.1510743184169L226.16223819938043,944.9594971341966L226.32223262977794,944.9979443714367L226.5680318683063,945.2798102171521L226.70314885288406,945.5737299165064L226.7394103197226,946.1642906379914L226.6840458738084,946.752595091556L226.57619036470726,947.4109946006288L226.4927747367096,947.8528302272143L226.49187433561355,948.3472203835895L226.54926678704444,948.8199502662569L226.6116206588545,949.0859525721066L226.59237583086664,949.3959702980856L226.7967080657802,949.9644448510543L226.95551773641066,950.52024184416L227.0480846621206,950.9596126168849L227.08157002590443,951.4664899585614L226.9894225060346,951.9355838359306L227.00493573733,952.2351476292315L226.94128440773704,952.4865076163534L226.8298987821999,952.8058558945386L226.692558494827,953.2395774053873L226.61391991954463,953.6287162085155L226.22785184913556,953.4235857362282L226.07201186566303,953.2126063979248L225.86078854332348,952.9197200122715L225.83546978563493,952.5511368893654L225.7360700874985,952.3876091964098L225.79775302045533,952.2165308930252L225.65806777696955,951.8219896330936L225.35159491277147,951.6648655287927L225.14806441182196,951.5218639103857ZM213.57957205901528,972.4157356934056L214.84615279494352,972.0115240026532L216.0815137765041,972.1872484229261L218.42775847463128,972.1490798038994L222.0476776162857,971.5623087278356L225.71352924359795,970.7526959067011L231.65974211092293,969.6880352554365L235.74392204832583,968.6455077425551L236.27798318384677,968.765627071868L237.37646284804362,968.8733370065186L237.72307590151723,968.6610991986793L238.38960580715369,968.7044655835149L239.22467719690496,968.6200132814156L240.67753120951267,968.5105778886816L241.71577850036672,968.4789810970019L242.68803445561878,968.3588695863374L244.12853390926398,968.4390538464393L245.25063963349035,968.2740407408733L245.61215300435663,968.1069467798065L246.3338807886717,968.112280741102L248.20864833251554,966.7135776227726L249.2962019859897,964.4212095772793L249.34260110230275,962.7647110833097L249.35357019287298,962.3730823767952L255.87658719887276,967.3431608001274L257.59889146526086,969.2147512693043L257.92475527855305,969.5687674851231L257.7360227592294,970.169594331212L257.08863578511557,970.0544413983434L255.557126411462,970.3224617191934L253.26905353764627,970.9117447685344L252.72501329947696,970.6912045907516L252.34123374241568,970.7176000456855L251.99068020119722,970.8742379111488L251.5883308141298,970.8835453351668L251.33421159910088,970.8047939103666L251.3581241439425,970.5584743800202L251.240769763944,970.4819727110437L250.8357656094177,970.2179389545888L250.36477425528696,970.0970135395008L249.9721502915335,969.996190206379L249.14912099156706,969.6642449470341L249.1405924701016,969.6608047747169L249.38395848819786,970.176218402599L249.54700267493024,970.6459824630646L249.86895515859166,971.365780831718L249.96846543474615,971.8158652983017L250.41665396952496,972.6118110430368L250.7137393933811,972.8103230495112L251.4968224383806,973.760133584951L252.12410311352144,974.3225074470186L252.55130852195634,974.4325037374612L252.23571150244223,974.6447795568113L251.60270008136186,974.3383093597195L251.06312701004046,973.9423213041314L250.3869549904505,973.1229756171635L249.49774299348215,972.0245427223713L249.09710139734858,971.0999577938744L249.0459220858091,970.9818374754619L248.7816340163215,970.2102668303894L248.71159001851237,970.005761402853L247.92613914176002,969.5951922475344L247.01838440791312,969.3143403767883L244.7912345289,969.0991978943046L241.81473494663848,969.0790922674114L237.40500900203432,969.3112681799844L236.0200204628556,969.3400499142298L229.84407789986247,970.5069935370682L225.37678536427057,971.4425149826413L221.33524818329434,972.1688417934266L217.51959332951196,972.893506110378L215.04895548101297,972.8299716298088L213.73528819453128,972.7079152428006ZM211.03155651097467,939.7213663535128L211.33199940600537,939.5877897418649L211.60134272768352,939.5857618358023L211.7977010123708,939.586266794528L211.9999178626847,939.5368503881075L212.12645637067214,939.5857876025714L212.95609446121028,939.9696100552615L213.41246570862722,939.9509414729798L213.44441259577326,940.1001695128282L213.2273216810077,940.1765950390767L212.94700480578706,940.1230359850468L212.0736511269837,939.8584778964953L211.7442898329748,939.8816445758525L211.45216416746445,939.878616625499L211.23739135572805,939.8865394558643L211.01383219682646,939.8761835837205ZM197.53563740936266,636.8503503966526L198.478119337441,629.6044098024392L198.47924732029264,629.5921878972072L198.47927890065608,629.5918457178246L198.5316369828115,629.0245168296804L201.43424910203333,607.8371086630084L201.45255650912475,607.6666311012419L201.68290183346613,605.9365131592538L201.78264168017887,605.1872480226848L203.99927426179744,588.516446145733L204.04259772590035,588.190256220746L204.2491369076992,586.6349944019422L204.92516177940956,581.5422307770377L204.93929289673366,581.3975515048112L205.53445912025887,577.1957917878123L205.94785810383365,574.2758846059056L206.48034477090727,570.5131597215743L207.1113224169518,566.0520108945118L207.1838317439774,565.4787009138695L208.01645894723254,558.8922844251049L208.57899556709276,554.4391829739271L209.98027735800156,543.3663442058978L210.0240368302317,543.0203008429139L210.21581947381054,541.5035271259518L210.47026580168415,540.2966279533454L210.97774591251192,536.4829208935948L212.2807804731558,526.681764784906L212.2816149060891,526.6754842556986L212.3076164169305,526.479775964881L212.30823495189532,526.4569357803036L212.41153691096633,525.5827079862732L213.13861888455114,519.4267300254048L213.13955594914887,519.41879302176L215.493366603825,501.06993245972626L216.06047934046745,496.6423872348893L216.22901566681924,495.32609357471216L216.72312356805753,491.46571011384736L216.7335973518571,491.41142175484663L218.79087889892827,474.6319293296435L219.66601184957602,468.55728786582915L219.81022310835027,467.55577507680516L219.84520106598956,467.26299498395275L220.18256574289296,464.43853319116556L222.81261673019347,442.38330579710055L224.1610466603235,431.74091011874333L225.71060440378338,419.49230809910125L227.6864037671831,403.4729582846928L227.7018220127778,403.34781504673094L229.48726567776842,389.6293269801547L230.54412961568568,381.4967906053999L230.95428153187677,377.71718795095046L231.48812958505587,374.25713367889324L231.7075862157361,372.52213789924247L232.4057616503116,366.99972752743804L233.16327404489724,361.00327452787576L233.5080510396845,358.2724031226136L233.9700988826877,354.61107015401154L233.97034690771207,354.609104277194L234.6703089203932,349.059016301984L235.5089856242699,342.40349505859103L235.90701856241563,339.24268778632404L236.9594025514464,330.8790383352819L238.15624399305992,321.35566843855565L238.51553886536456,318.4942971179615L238.7051090817595,316.9841344900474L238.82575444321938,316.19450268033336L239.26956967889248,312.7524997599541L239.36669402674002,311.99670764391453L239.92755927898764,307.6306786532858L240.0485299842688,306.688642002941L240.19697497396257,305.5324866247445L240.2918790451045,305.12662067372025L240.38610810263546,304.3351784508035L240.5753792696009,302.744333171973L240.7746988425512,301.38239969242L240.8089394141592,300.94266208613794L241.75145173877823,293.4599476778508L241.75156880753173,293.45901777482595L241.82648564297355,292.86391221900385L242.9757114890294,283.72883541302133L243.01422678630823,283.5711752637908L243.32267462382217,281.0396844697466L243.36594169283651,280.45142367846074L243.8227067412996,276.3778580075075L244.48586196060512,271.403214614277L245.06778109079352,267.0350942227508L245.44273910875944,264.21908490047343L245.69131455538096,261.474908451949L245.95641924875932,260.05958052384517L245.95831830946375,260.0494408273312L246.2476370606742,258.50449460119387L247.16243088513502,251.3970902156953L248.04787410969547,245.08069294028002L248.34748768556167,242.9420790221015L248.38846677746557,242.649523257711L248.38917002947858,242.6445025314876L248.9253946905221,238.8151852580564L248.9259277624291,238.79283931018063L248.94606340283823,238.55600537990745L249.79259060873355,232.3348454781581L251.53809330382452,219.48965077722733L251.83755739992674,217.28352030047114L252.0352413442426,215.82681598643887L252.73928739361614,210.13606692318055L252.98384671520628,208.17832487248194L253.42753877286074,204.6251118359097L254.14364298112724,198.88659243445227L255.72068216555448,187.2968206712364L256.02234119821185,184.41355071556342L256.58332486362957,181.55954457852272L256.8105957629162,178.40105440914863L258.6001442756754,165.07154299991197L258.6761008119778,164.50521193272152L258.7184188322532,164.18966920825648L258.92063859094185,162.56944319658635L259.3658062666715,158.88919696713447L260.8776864967567,147.22650297627177L260.92410075535844,146.8631792588098L260.9318235447269,146.80272460972168L261.7797510412376,139.68934955239746L262.166606920589,136.44158656304637L262.3184563983816,135.16635983317627L262.69900837757217,131.96948549899292L262.7385372731568,131.63733509551463L262.7901987592368,131.20321432210636L262.83685498850565,130.86113635120466L263.5194597037064,125.85440931481844L265.92801793098147,108.15899423214199L266.07353566728153,106.97446367373522L266.16424762167173,106.69963278032878L267.0042869343348,100.34668143899785L267.0237948482353,100.19907938956982L267.6734314874824,95.89600928089556L269.15329929339947,86.0832971499471L269.54946179342824,83.4539743929073L269.9997026430247,80.46447666798974L270.4116629032471,76.18754148793204L272.1043074240739,63.509226471332454L272.63650035422677,59.09284214616707L273.98659957112466,47.87642788105666L273.6579985284038,47.50123602158703L269.70114460399077,45.83371688281005L268.4185896012685,45.07605494365362L267.866784820142,44.74999558855046L267.39287297809017,44.34301079777083L266.3594660229045,43.397782230191126L265.07483238259556,41.810121202835774L264.01191264160457,39.63528060028L262.43458443742986,35.37045472755614L261.82957208905293,33.93671353385747L261.23604369943894,32.96171576796229L260.0826231614586,31.488781751256283L258.34479883704205,28.28456058947461L258.1655411904204,27.41733453794035L258.05495999710877,26.998981427982187L257.90394443872606,25.50979768275738L257.761163656063,25.000000000000057L290.0270333974714,26.102940704133005L292.4310779456904,26.1617589477587L294.2474117727546,26.205788498662685L301.6460797819854,26.381496379781197L309.44073915360445,26.560281842482198L309.4769990942324,26.552380158178266L310.29098000230226,26.55537564531363L313.32871699558916,26.614530030602793L313.3474459708219,26.608056791355978L313.5902919606384,26.596736382407414L318.47665366991885,26.734430631977318L318.4809653410115,26.73455100493794L326.0431329274726,26.94261334429217L326.99452135894705,26.989483285170195L328.3631849499545,27.02500479817138L328.38015262123884,27.025443911188233L336.2365255620179,27.26698357591846L336.2415216506106,27.26718081461206L337.37670838322754,27.31192717133655L337.65967586012164,27.30776467688355L338.249313846739,27.34288727553428L339.5414984908219,27.381382873343398L342.2937092618532,27.462779318714865L343.45211165254216,27.481990673460473L349.67252320689823,27.527499690110062L350.58614239628344,27.54512104563662L352.6704989227022,27.5849891625777L357.2344513983502,27.67066474526439L365.9760963394608,27.828553180648044L370.2222510410668,27.902300564717677L370.6822684421126,27.91017455295082L370.6876483142898,27.910266505013624L378.58315847650226,28.041884243451477L379.57152118570843,28.057891315752954L379.57644084484383,28.057970731362502L380.9174962801217,28.07952233627043L382.0420717969876,28.113428823012953L382.7011855788544,28.121974795892697L386.85082116650347,28.219786128051226L387.76809620243614,28.256490306348383L388.4799932473286,28.28491435627285L391.9462459771526,28.374041948564695L391.94840452724293,28.37410367747873L393.53005247207733,28.419200808760024L393.5301462410772,28.419203474451763L393.5417479682391,28.419533283602163L401.5013055603596,28.631414305779856L401.5061858325519,28.63154214025036L406.14668715038283,28.76938205919481L412.42548131352294,28.99023017304961L413.45803437313015,29.02776750499868L414.1391331052421,29.052465676259374L414.6304981240005,29.070252864250904L414.95459715667334,29.08066128839215L415.57292716959165,29.1004877727824L423.2104172292156,29.327258508777334L426.8905909239223,29.434303360434967L429.11348212103815,29.498259098286553L429.591365969552,29.51193951969276L429.9347661782633,29.521754994365836L434.0546023251954,29.63853040683216L434.78886375694134,29.65915233805208L444.3171215469006,29.92153071889851L447.32761501981645,30.002413224860447L449.10458957395895,30.015687900964224L450.90718836649063,30.07300555517594L453.17722308562264,30.144692171420502L453.46354693776317,30.126549360578963L453.8417728058389,30.139892287137116L454.337561037128,30.16942387434591L459.057084833304,30.31339331374278L468.3223480336322,30.589105508415173L468.32757176006965,30.589258365930675L471.0419172301077,30.668291471955627L471.12413516157966,30.66859645834643L471.80143661258796,30.67108144380626L472.17201018237506,30.672420334811704L473.0077813531983,30.675386184701495L473.5373987580039,30.687984715855862L475.14408546348653,30.706954143976986L475.15427051615103,30.706955298882406L477.6446750436714,30.70690532620614L477.81487094934187,30.70597396966616L483.53431557822427,30.67287776628416L483.53749657892354,30.672869969390945L484.7375856783683,30.669851383423747L493.3907601724861,30.6435354891953L500.39921592272856,30.616363203960077L500.40824049074934,30.61632483502342L500.5498748979421,30.615957949548317L500.92643495234,30.628375794163162L501.48453935524543,30.62708107953398L503.27386605041045,30.66248853659033L506.17298369201524,30.663667399309247L506.20176437604096,30.663674604963717L512.7542654001717,30.737533702126314L512.7544264600155,30.73753546122981L514.5172723140854,30.738846506005245L517.326920682534,30.762884017596548L517.341397960552,30.76300569334603L519.7847402336663,30.759730577713924L519.8000712824936,30.75986020237832L524.1421739138964,30.79556295362687L525.0615397497063,30.790536844595863L525.8206452884376,30.78631886437728L532.9245613446892,30.743864585267715L533.8000021096283,30.738259963451753L539.1897515453583,30.627233759338424L540.0361623251372,30.605326133078847L545.0331460984676,30.47442938644616L548.128593925342,30.475890070951834L557.5168950679595,30.47406510116531L558.7084530917739,30.473160657713322L567.8319905317393,30.456066244667227L583.9082598363692,30.404323328399812L597.562276794603,30.338711410143674L597.5744896467625,30.338643815644218L598.44030616443,30.33381120543976L629.9010419704466,30.10393079437165L630.3808964999278,30.099606507931583L635.5047867370348,30.05189921678135L636.1911688876701,30.044671083235926L638.701237389068,30.04987341688718L640.5585558861345,30.05328994276266L646.7704856656085,30.06204150817433L648.20412084201,30.063476269060175L648.8421116935875,30.06404422276057L651.7765536039129,30.066097046562618L651.8181366079859,30.066119531833465L652.4417214226789,30.066434587002902L655.6365638355246,30.067397654883507L655.860635449774,30.067424314729635L655.8633979097983,30.06742460996719L656.8280366579727,30.06747790010388L670.0835602628963,30.058150382124722L670.0934901253115,30.058136364876646L671.0911984239156,30.056674319973183L672.1445585205543,36.430425285690546L672.2685720615782,37.75939903572487L672.6808621382681,40.267227067522924L672.9241906131708,41.746862121931315L672.9293038598729,41.77785903077097L675.1067558966548,54.13815008579104L676.410085241909,61.23770510633466L676.6944820626491,62.78584112021559L679.0358342360822,75.51701900685163L679.6372002553373,78.55179783017843L680.6409020555499,83.613736268423L680.6461570009333,83.64926384680854L680.7116175181269,83.97398054931426L682.4337802012606,92.5108170604521L682.6556350835434,93.60972987682163L682.656465809675,93.62568941963929L683.9035474929397,99.76010483206926L683.946898112228,99.99772736793233L685.1934794729322,106.82703027118151L687.0284512626428,115.77299404406756L687.467403301398,118.32897273907065L687.6093310911085,119.15519311017158L687.6492965837444,119.35366395080331L687.6510469565328,119.36076414095862L687.9323675348569,120.5018038846539L688.6054216778132,123.81118752064418L689.2262622784795,126.81715800171435L689.6760984451938,128.99428115518685L689.7008160225957,129.1055494111027L692.913936368549,144.85855127943125L694.834724992307,154.25722742936L695.4836150486053,157.42923765566388L695.4864968903823,157.4444850998076L695.9938593780681,160.1283186302083L697.0238881703522,165.5735530248732L697.6483112032021,168.87235261509784L697.7656639378667,169.59320822915635L698.2606823046216,172.1004224424231L698.3213212759115,172.52234918883204L700.2263491130365,182.4061868458137L700.2275987545464,182.41266545130975L703.0411931429446,196.9831667033202L703.293370919887,199.07167829950612L703.3555987013699,199.41424092015842L704.4829893741033,205.61744454998984L704.7859499433379,207.2834274820097L707.3048733538124,220.92936284960484L707.450178637659,221.3597214141758L708.6700189177257,227.83647753052534L708.7720883298306,228.37812977223365L710.1434311967755,235.6111535975087L710.6628429981597,238.34868827063366L711.0825296588991,240.559803035571L712.1286538803539,246.06809945686192L712.7767087647128,249.47810307858975L712.9695729431234,250.531095986369L712.9696028729518,250.53125938332084L715.7182337699808,265.52020626375594L715.7184887485485,265.5213991244906L715.9684788547937,266.69081793121944L716.5606234647495,270.1824365043175L716.6403674688172,270.60088413691676L716.9652048885621,272.3051612366287L720.1800748797693,289.148802726593L722.9046519183264,303.3906322426584L723.1363310306964,304.6002681785002L724.5063649175877,311.74900919246124L724.5063887690767,311.7491335818637L724.5720288230223,312.0914484576298L724.6015272342704,312.27699725939715L724.7490201468398,313.2046726800677L724.7661992373552,313.28511336715L726.5744248417993,322.47464507866107L726.7748734055463,323.54508607554897L727.8941444852733,329.5191482361864L728.1268226173577,330.7603985708579L728.5870615885898,333.2149329802684L730.9429388133852,345.7653871354202L734.5782053335885,365.08631566842666L736.6017357964886,375.81748716489653L736.6036465956231,375.82761255986543L739.6218263364697,391.80243658754443L740.4207162394682,396.02464499928897L741.301652771942,400.51448257749615L741.3056236075952,400.53471392162237L741.6389925013486,402.23300980206545L742.1264716752604,404.7156380446955L742.1757734518387,404.96667143132623L742.4446843839446,406.3510982724239L744.5630588856798,417.15441894370156L745.8727457777759,423.8250859271375L746.1755908313983,425.3666543391416L748.454906731733,436.9579598022922L748.785820525891,438.63917883147633L748.851109151711,438.9708315389378L749.1755683433817,440.55989638275923L749.4305042256008,441.8082066632367L749.5102669973621,442.19872359687275L749.5635540910519,442.4596037387533L749.6229056415536,442.75016223567053L749.7241084264285,442.74769981210363L749.6435395086589,442.9579417309001L749.6028365734061,443.0641515859067L749.637800367251,444.15174314686607L749.638379783355,444.1697661757387L749.6530435999508,444.2333341522019L749.7263879881752,444.5512746810798L749.7308671503655,444.57069090882794L750.6035390577645,445.7435904007004L750.7532399889487,445.8471877875999L750.7685083130139,445.8577536849568L750.7713546911655,445.85972341450025L750.9812390403918,446.0049620254938L752.1572841291273,446.2483609377383L752.4934757369219,446.16629879648343L752.699455271391,445.788731166875L753.0973477812154,445.4916199340159L753.4294145789743,445.42350625263475L753.634811635588,445.50356454484006L753.8484775903446,445.715263736269L754.3175499095223,446.38223123557935L754.5347562291653,446.6910428465321L754.8194400128835,447.1664546379606L754.9784358491963,447.6789565400228L754.9741791192469,447.9600657179804L754.9721832933275,448.09185628239936L754.9143905939077,448.4426737351868L754.8084055336399,448.6859551701873L754.3369717790179,448.7719889241414L753.820323820326,449.02248971167404L753.1630120676905,449.7261777877984L753.0365042518357,450.0016927108294L752.5846983801024,450.9855402631301L752.5857193310941,451.080620375691L752.5906178513303,451.53683932672453L752.6150326618842,453.8113019289394L752.7350989799268,454.2819392206936L752.7471868373023,454.32931947663945L753.4575655454211,455.3397137055563L753.7542025659352,455.7615677305589L755.3432060408865,457.5296334261017L755.5130953828764,457.71862299441665L755.6962406413077,457.86805031696645L757.0150911716004,458.9438878607352L757.6673744932991,459.4758468917545L758.6762918563363,460.00985284893477L759.2542820163134,460.47432227605935L759.875357335267,460.54732499548453L760.3313398837379,461.2231911304926L760.5800965997582,461.68318440692275L759.1544175305717,462.47617430778126L758.5262821593965,462.2390316605955L758.2129600392187,462.5353078602719L757.9297008173562,463.49997222937185L757.877898755138,464.3961129645701L758.0432855690051,465.6253092060257L758.4046022367731,466.4478840113406L758.7721604761049,466.777691543375L759.0706876307406,467.0455351218476L759.9166322779843,467.57625306532793L760.4469568658292,467.9619426684643L761.3753127190844,468.1085464511209L762.0167031978799,468.6274826461615L762.2746848553372,469.08633681026424L762.3188363137481,469.6674770078303L762.030322767265,470.46541453528766L761.6598771051134,470.9122848617914L761.4203937167309,471.27619431802907L761.0981461370311,471.6623600061064L761.0016823976209,472.16672210330785L760.8233589669526,473.0989659273666L761.9117414140087,477.76549769800926L762.221364939411,478.68994973251137L762.3326548407466,479.02219797700866L762.6957587313627,479.4478285283042L764.1524681131916,480.15843585118347L765.9625723954639,482.0683026261787L766.8766069449066,484.41672932936933L766.6800975471763,484.8437853520325L765.5952146989179,485.4316636513495L764.943389256292,485.9867307449817L764.1400203413493,487.06211415696026L764.5543144526473,487.8041898554803L765.011572858032,488.56742058531535L765.6589354097118,489.0344983674191L766.541011695803,489.13339111528296L767.2136387135904,489.0396531246233L767.4091022952891,489.2778663766675L767.4364823185227,489.6227158484837L767.3882547026473,489.7909663646037L767.26596289426,490.2175798562424L767.0372974000791,490.5903518735194L767.0312121785498,490.95666456321493L767.1100146683973,491.30000260740485L767.2963953568806,491.8028562423979L767.6308718989624,492.17664732321225L767.9265116686819,492.3138441003558L768.1654645215899,492.6115054709462L768.4477450452383,493.8160602018636L768.4850877351471,494.2231474631281L768.5671319285148,495.11747570499995L769.2700874381785,496.86529220381243L770.8419886094534,499.81916603239563L772.6653508716412,501.41242497486553L776.3149544684977,504.7314966843627L776.5465876671021,504.9472932803649L778.5931772123361,506.8534038914247L778.6885415215052,507.42222222587526L779.0236593844138,508.4636493391039L779.4364684202526,509.114732811202L779.7528065788995,509.6136065147174L779.8041861321527,509.6946288813037L780.156019912992,510.144471881978L781.0658327015412,510.3607344980237L781.2889460663872,510.5539697232192L782.0371796248744,511.90277513303863L782.2775356864183,512.335982975402L782.3407646797555,512.7078677985404L782.4302807621394,513.234329183807L782.5340444639653,513.8445360510594L782.5549369304138,513.9673929466093L782.6269942472304,514.3911058104098L782.7817271742883,515.4398047865707L782.8400094506135,515.8347738532021L782.941841607077,516.407571338194L783.2209804259571,516.7564258665393L783.4120702831744,517.4190838887689L783.578729963949,517.9969686426607L783.5792749411967,519.7168185672901L783.5794081277725,520.1431091912908L783.3509602014266,520.6734301193553L783.1107289489661,521.231048356988L783.1605201764428,522.1816838900493L783.1929735111307,522.8012585993749L783.1949001032754,522.8380386999978L783.7004992472735,524.5115652847619L783.7157880230673,524.535028299564L783.7243472015277,524.5481636488623L784.0177903278664,524.9984758909089L785.6753650585835,525.9597466604737L787.7041517035163,526.4517103821998L788.556332744922,527.9154153213248L789.2977747433517,530.0982740383969L789.270790114529,530.2613828660221L789.2582264334646,530.3373224551503L789.2415556232149,530.4380854099671L787.8731990951485,531.7345834618864L786.6239270005872,532.5698121649515L786.5085895081613,533.5543206327266L786.4038455902372,534.4482395168375L786.6224254491476,534.9853812861847L787.6625120190815,535.9227198871175L788.5354712391454,536.3339289536107L788.550715198877,536.642108884844L788.0456460595019,536.8289159030868L787.2676721737055,536.7690348592861L786.940841456627,536.8844655058894L786.0899695740553,536.6601476418122L785.6683255847518,537.0904001269L785.5154562841243,537.5228902039662L785.271288931867,538.2136054076875L785.6761295963545,538.9456540124811L786.8363687774761,538.8353786299288L787.7706237419476,538.9710713794808L788.0958947117175,539.3933028962156L787.7183043218251,540.0259784589323L787.2288848397052,540.1879977002495L786.7206119107626,540.0959788897247L786.0869755202104,540.2879914973848L785.7407152386397,541.0660233904866L785.9463052839533,541.5775040599366L786.2823476772016,541.9527564125309L786.2569734574772,542.3387007642089L785.7270222078316,543.1767523979487L783.5831404072576,545.281798065593L782.8246040700928,546.026310271626L782.2875957867118,547.738242763182L782.5062438608303,549.3859993629544L783.4243604115123,550.6202378292791L785.5179504016791,551.0912747649111L791.2750000561816,553.3692039825337L794.1792569613805,554.5167504111985L795.0153526831191,554.9767880372325L796.9365597550935,557.4873148623249L798.9662767934151,559.0896713289566L800.1819389968205,559.6865725551249L801.9267272529147,561.2021831330204L802.2992013967284,561.6772229288293L802.4710630572308,562.0486408429276L802.4497486068929,562.3439690221498L802.4437765213803,562.4267134594111L802.2540467231189,562.716020862635L801.2677816891697,563.0318563371115L800.7179503645799,563.2859146942944L800.5742692265933,563.7620620576137L800.3223047212805,564.2441988990324L799.8058022233598,564.6174006277707L799.3274768256404,564.7760207570784L798.106495651002,564.6737161914584L797.1379084839012,564.3524731545858L796.907038803021,564.5641816333858L796.984595811507,565.3877355889977L797.1768702332757,565.6005004434056L797.6344513696533,565.6848455747917L798.1436275400363,565.2896807491247L798.7041363656704,565.4305311671328L798.9178743494467,565.7819706766107L798.3566852685046,567.1546476633207L797.6500380021862,567.6957767780523L797.3278131336625,568.1445712419519L797.2656583124669,568.3255080096266L797.189400236712,568.5474921594803L797.3230656737676,569.539073940373L796.9231183546636,570.189646875723L796.4628330713548,570.5433841307876L796.148175483654,570.7130516405745L794.6062760684842,570.9825118713023L792.8983673068659,570.9264188547969L791.7448061376049,571.0951893650173L791.2262112821247,571.0878828664804L790.8848833186589,571.0830588756727L789.8664179042787,570.8568128986419L789.0821427250298,571.1010656254098L788.0069605025933,572.2711148380629L787.7702324811172,572.7765086469217L787.7848158266193,573.2342585314568L788.3197210708265,573.6156582848813L788.7540889123949,574.0201739385349L789.1420785876397,574.0278902330316L789.6247255064216,573.8329260548455L790.0457459108437,573.8194251121371L790.6829397193403,574.2374747986432L790.865434916391,574.6697332910562L790.9586193673356,574.9458745373412L790.4925499560991,575.657828479998L790.1296479220956,575.9085836200657L788.9826561453137,576.423536229303L785.2849367380061,577.8761152632184L783.1801805470884,578.5300266179845L782.7279851108929,578.8251786827537L782.4336351545999,579.1095949893131L782.1807820430545,579.5618966326367L780.2362946583046,581.7704539127839L779.6307587018698,582.66159909989L779.0481413352593,583.7517460807512L777.1689994502807,586.3192509046356L776.7964309959862,586.6745616176955L774.9976000486947,587.9287045054001L774.6055301743734,588.3300020476528L774.4606171864514,588.6492042295177L774.5653949655614,589.206818900841L774.9909372466316,590.0949939435061L775.7584212781871,592.360884221454L776.0088744552284,593.547036824022L776.797498013839,595.9801061441857L777.2474570338555,596.9493060522045L777.2660932304893,597.5558367710346L777.1669872332384,598.0537112721087L776.6039735900541,598.5458832536135L776.266048244735,598.9397906419092L775.8678301436062,600.1816674807011L775.9330651174488,600.5351294450459L776.1855912433518,601.0155180719515L776.1831194289166,601.4594349647754L775.9007215038382,602.4515389762109L775.7855310018358,603.1133886098613L775.863454535234,603.4501536516617L775.8534306150823,604.2285232975084L775.5274097687893,605.734638045722L775.6802341767677,606.3085900202334L776.1553121383913,606.9277739543579L776.2495608604547,607.2772679744177L776.2983197424327,607.6987963973343L776.1702629492661,608.196182538263L776.0175909558836,608.6801627825696L776.07448434362,609.3734638510721L776.2564414280885,609.5920006328915L776.3414067302562,609.7019173190049L776.509762979977,609.9197064029937L776.6134673850755,610.184542620781L776.6439383201382,610.3949481521986L776.6294250494665,610.7055198993445L776.5580899900401,610.890111024366L776.3921678053406,611.5448012344104L776.5771241502796,612.318498772548L776.3811032588044,612.8809454275378L775.0064785237016,614.2350455835672L774.8299755154553,614.5699625141813L774.2957748028123,616.4090631205224L774.293330120367,616.7085700977927L774.285014424673,617.7269255272892L773.8760277456668,618.7572911262041L774.0651882552,619.4103816022027L774.6116950166389,620.1125281235198L774.7779375851547,620.566685249381L774.7858258097217,620.826004760506L774.487341660288,621.5938098011742L774.0913034367759,621.9452764769669L773.4741786436757,622.2634943908346L771.9104119266492,622.6501726960684L771.4974833423,623.0020561516968L771.3378212287968,623.326348263181L771.3292909266371,623.6061632101013L772.1486305804158,626.057754574857L772.7647106470531,626.8178510503627L772.7725443105527,627.0772485647109L771.8072573655783,627.6655737773983L771.5277828394863,627.9535980391943L770.6558017428691,629.3978874719655L769.5873403347747,629.9491896749087L769.3731053082597,630.1553315752675L769.2616830808645,630.3983533125962L769.1074916611037,631.4816212211539L768.9288779178157,631.7466328522303L767.81160776998,632.3791510015078L767.148533929837,632.8982306193035L767.2281299950738,633.2954180539684L767.73031748163,633.6399274433386L768.0525059581837,634.2097268226228L767.5276383112327,635.3840778162499L767.661069999994,635.8796128068054L767.4362207572242,636.3058610023431L767.1053483136918,636.5953866378793L766.5998187695027,636.7102406182152L765.9025348679912,636.6508979310705L763.9036674983264,636.7495788680337L763.7055284434024,636.9352021144042L763.6757162745441,637.0759389535217L763.6785233937389,637.0853046668672L763.7885164189147,637.4522764573939L764.1608606366088,638.0008529366427L764.4938629280896,638.6804310051292L764.5759371057654,638.8479125105214L764.7449259748978,639.4024703143673L764.7572339871577,639.8217565951936L764.7498180397341,639.8512300278553L764.6964461285304,640.0633431499532L763.9024414425684,641.3454183450008L763.5906909959501,642.8734345052483L763.3298249026357,643.2408107446497L762.8829453955987,643.6335977604267L762.7887429719806,643.8961748842859L762.8863615228704,644.3330506860203L763.282854775226,645.1208008844301L763.3652428423454,646.1979922535527L763.2733580104039,646.5404962825478L762.7824037015205,647.174502384322L762.7080383283129,647.536495998967L763.1789309855412,648.5423122863579L763.7605372983817,649.2648279797136L764.1766025850548,650.1323356905637L764.5668863804225,651.6278822392812L764.6167484326595,651.8189270679522L764.6091479846555,652.7189328649125L764.4007245492357,653.724843171974L764.4599346779669,655.2612924627142L764.4715441137158,655.5625309936255L764.5950993429582,656.298860957713L764.4925979867672,656.861643005042L763.8026115423685,657.6818232659593L763.0447338856243,658.9508039677437L763.0245602441494,658.9845781124212L763.1998041073289,659.2800398109085L763.2927839148601,659.4367974856027L764.9840641118998,660.8675261641826L765.7518285813017,661.5251028293198L765.9493306403842,661.8793685317335L765.8966477947271,662.4010389130624L765.684158226976,662.833943859507L765.3187356004316,663.5783372995932L765.7972395871965,664.8046836021878L766.285027437018,665.7705018882867L767.2230017537033,668.7242547090594L767.1990319807142,669.0651519207045L766.7202094439958,670.7202713982116L766.1478699957304,671.5176441328557L766.0241444123512,671.9415724871158L766.0189775534745,673.5026689476708L766.1810074801629,674.9937409425686L766.3225527674566,676.2960831977626L766.8889443195928,677.0200797852718L768.3446201622835,677.8578956808276L768.5759707207702,678.1913752363664L769.1664088741227,679.7154496945267L772.165639073024,683.1297611012942L772.9616380431266,683.5263711606467L773.3701348415361,683.6818851246101L773.7020434995545,683.8635250646881L773.9710550459296,684.1239550778879L774.1602337607198,684.4442692866897L774.1812145208643,684.5970383620619L774.0932623059209,684.8740607747393L773.9049321226228,685.1807520165767L773.8445166511071,685.3416164448817L773.4969626452436,686.2669363215464L773.4758031302399,686.6511156378785L773.5171777828688,686.9376797747805L773.6417148605109,687.2790237591054L773.9333039901044,687.4823370092603L774.4169937510093,687.688051170181L775.5176246258748,689.1169293268813L776.6004599803997,689.9453717130805L777.0136745746529,690.1162755820993L778.0015030665177,690.6137627555606L778.243258961016,690.9048534136897L778.3717013104422,691.2220506283809L778.3725949360055,691.4345763067952L778.3731675923445,691.5707863734774L778.2506203970765,692.0427264263415L777.9147636891207,692.7091220554292L777.9105659669497,693.3197125092933L778.0623778551399,693.5078096239674L778.4718111707191,693.6052732723869L778.7093240630556,693.9055432098351L778.6994830848726,694.0816301907075L778.6993893501638,694.0833073744742L778.6620415451249,694.7515167256537L778.4182159351728,696.2858263204223L778.4200989351109,697.6283453093764L778.4209267954774,698.2201018949418L778.9671726125034,699.2041819279518L778.9997070157233,699.5246418137193L778.6090614306324,700.3442864329593L778.5815722618188,700.7904639221604L779.4883994645726,702.3560834716448L779.6998051522198,703.3556164687458L779.8907057340803,703.8147947191908L780.8101166182961,705.1584324940416L781.3649495426072,705.6934011893999L781.4864789121916,705.9440470638793L781.6076847987486,706.6814687273867L781.5409809959372,707.3316979385162L781.3570474649291,707.8494328047339L780.6780963969248,709.1794345389408L780.5123152092413,709.7176905052274L780.6311105713295,710.1673894433117L781.1768495042471,710.7206329454089L781.119970342341,711.2593874746162L781.0397454723187,711.4825874931922L781.0166939714563,711.5467192743665L780.6424018942059,712.0694709855193L780.5572871194202,712.1883377346306L779.8317794959141,713.6477227069464L778.8762199310567,715.7886892903782L778.3813687720607,717.402804119362L777.7930599466488,718.2020459539442L776.874819846339,721.387110773215L777.3680716949152,724.363947837627L777.8445121216351,725.5906764810937L777.9987782013231,726.4502316761552L778.0883833827103,727.1370052627988L778.0882572719262,728.9345301766956L777.9130951199901,729.3396541916611L777.6512887336548,729.6051265223053L777.3342291193892,729.6930514385854L776.9117529236901,729.7950077652704L776.6025466146052,730.125117940322L776.4408351859929,730.8070045683369L776.3172299686732,731.9217052517556L775.8172242956114,732.7877182465675L775.7974873710057,733.0412334542602L776.2873242839831,734.5576199981188L776.2705067696077,735.3538963080957L776.1120515231403,735.864598880594L775.8251231932277,736.3607291643946L775.5348429329904,738.2551448141721L774.8287071126385,740.2976044602607L774.7912256090683,740.387358547857L773.9879666261382,742.3105126037799L773.943366400815,742.6522412705865L773.9533569366208,743.7378058288127L774.108906038084,744.1884185725323L774.2508596874479,744.340600540787L774.8637874432311,744.322142732511L775.1277201905059,744.5716580300734L775.1548702205365,745.1645299081156L775.1449278632531,745.3001485076973L775.0091409798522,747.1519675806248L774.8952341793213,747.6246263667838L774.6325801751935,748.0238357839087L774.7164707837387,748.3710314916353L775.5808563264586,749.5460323326658L775.706585283826,751.5719044795134L775.5999729969211,751.9801585868067L775.1267519714456,752.9931931138048L775.0997991788491,753.505556415267L775.1202376779493,754.4340415188678L774.8182053828363,756.2570576206624L774.2695185992064,757.346273459569L773.2823611222339,758.4858348496346L773.1613012003913,758.5204780355937L771.374652112493,759.0315626734454L770.9638200211183,759.3846386793759L770.6643418903902,759.9369887401284L770.6795842215653,760.1437521743323L771.0346638354226,760.5199060421326L771.1560313974599,760.898384049028L771.1694533287543,761.8004675927443L770.9718214998444,762.5388082878542L771.1563048766254,763.4907567049651L771.2756604065239,763.8003977699417L771.7359459098147,764.4727986440776L772.2845283333634,765.7696077781036L772.6518295247442,767.0067475961685L772.9829905065211,767.8028914799174L773.294504134433,768.4062165050286L773.6382520279101,768.8561711700609L774.037146952908,770.2262283281068L773.7401379448252,771.469839382557L773.7901848424423,773.1224348682597L773.616230803959,773.4363590318669L772.639909455922,774.5025371738111L772.4223735788464,774.8915745145073L772.2635427627914,776.3155316687298L772.3649573503105,777.4755895898104L772.4246660701474,778.1585141741182L772.605712469865,778.3836454729313L772.9611077590882,778.3036322274739L773.3744582564103,778.4755403723477L774.0116006272649,779.3780171445917L774.0398899844554,779.8565731263993L773.7588215675687,782.0867336521053L773.80755127448,782.3341605252297L775.2324420896005,783.3370584947472L776.7028294216678,783.4261042445157L776.9232726411093,783.4962690141476L777.7079449514663,783.7459761493465L777.9156129320929,783.9332467460911L778.2391569055513,784.3864713675562L779.0752636348082,785.5575109456212L780.1720103936541,786.7687222324854L780.4653271714549,787.3588786993121L780.7316391958507,788.4160006714476L781.6885722453198,790.5685486997465L781.9152075358338,791.0782360614082L782.235044474367,791.3359169753031L782.7015476601749,791.4368896414226L783.2527952144102,791.895868031537L784.4112430944897,792.8602091637806L785.0139887858322,793.210316280022L785.275830721007,793.5160358789643L785.80279359313,795.0341595327939L786.3636562308127,795.9039854357055L787.0707732294173,798.2947524546919L786.7265696421118,799.781375615717L786.7107316431104,800.0486703146984L786.6994558515362,800.2389600137785L788.5926946537559,803.2671805389158L789.5661658863851,804.0122445862061L789.7934135503056,804.378933905075L790.2881197304282,805.9693854618863L790.3510987298521,806.5211754396939L790.2696545008342,808.628194628251L791.0701152129661,810.1496544034128L791.1918615162406,811.2582343296067L791.9930447348809,812.0785548261658L792.1093595267912,812.3045821904382L792.1056220163732,813.2647029473076L791.8311412162557,814.0865407155451L791.663448973788,814.9709209401994L787.9343005566787,815.088541392847L787.3469222929289,815.109125485078L786.899194282541,815.1265286203873L786.7183719846801,815.1333769784219L783.1061895790822,815.2578338615745L782.6378096204063,815.2722555754467L782.1663223720758,815.2867506989751L771.8677108718764,815.5828120169112L766.92627313408,815.7210837539114L765.846457922088,815.7136497048709L765.8238197039958,815.7251901109663L765.4382486477955,815.7361926219878L759.9990973018014,815.8891640051751L756.988321141526,815.9725614401364L755.3068621614934,816.0187409265861L750.657007041654,816.1449654365638L750.0459963284461,816.1613904067648L738.0885779655391,816.6999288035099L735.3318664990892,816.8220444754937L735.3082075674488,816.8230891992196L726.2171368014073,817.2203606494472L721.7662700082609,817.4118269845774L707.8317189375427,817.9983722482596L707.0810384315909,818.0294160251894L706.1588810614398,818.0674734961129L706.1105664895016,818.0694650820176L692.0912847831744,818.4896515340744L691.4355608915289,818.5088214748291L691.41652699729,818.5093772812401L683.1241871669115,818.748058580069L680.566246924722,818.8202904373873L679.5396431184266,818.8490951209378L672.633520231786,819.0401167963109L664.1018563271742,819.2694848585786L662.7223131281377,819.3058862027673L662.6699848735204,819.3985459869605L658.7444026436046,819.5149498368141L648.6537605673495,819.8070588515981L648.6533228532916,819.8070713008794L637.877264330829,820.1077262004737L630.5746936377867,820.2719441090899L630.573949777449,820.2719605640109L625.4248473283658,820.3845323516373L619.9637738368417,820.501015365764L619.7301475180466,820.5059317460546L613.4437551530569,820.5038264324735L610.4352171288888,820.5595165656944L609.7877708046635,820.5911865570467L599.3051381534258,820.7697199629804L596.5722331359864,820.7500550517905L591.3649752941363,820.7105107922807L590.3127067141555,820.717780412205L589.237486766057,820.7114985435812L588.3687207741455,820.6796086899506L587.1571445763733,820.6842934019946L578.3339958180404,820.7139665625857L575.2070411535354,820.8496880210903L572.6606219255665,820.8796430387924L569.6115989069121,820.9146542764356L569.5741871628427,820.9150780721222L569.5428949171722,820.9154324389652L568.2976108810637,820.9051573813061L566.8917471820824,820.8933703103644L566.110313438891,820.8940120871403L563.7916306938105,820.8955556938088L561.8060772420067,820.8964486976754L559.3080434169582,820.8970101955347L559.0103002037721,820.8970353521604L556.4755074953465,820.8968892504365L555.7219957220633,820.8984978925866L554.8110241838676,820.9063297189185L552.3762716672547,820.9842655918335L552.3760990752984,820.984271095338L551.8079347540877,820.9904109979175L549.5673506822405,821.0319388945304L540.9686078901877,821.1435104777464L540.3440231012794,821.1058446612417L533.1550471614436,821.282090013397L530.9295261829707,821.2220284454495L529.7031340852984,821.3203582115973L525.8076074500809,821.1339125488595L522.188957013087,820.9593493356574L521.4723608901324,820.9855976743956L511.08154374132505,821.0991649045977L504.70437917198853,821.1634981853888L502.33800418059764,821.1693791917404L500.62303511811103,821.161815493329L497.52331945290837,821.1473956306166L494.22080177532206,820.7169274743791L493.89025981790616,820.7155047474121L493.7005185176332,820.7446492184611L490.79107522045956,820.8397894596967L483.8049385572633,820.7097221024877L483.7659884395054,820.7089831944536L476.067417529995,820.6266261883716L475.81925666968567,820.6312531966914L468.7293575050072,820.5774812632562L466.11374293765357,820.5860529740025L462.9840730571325,820.5707026483817L459.2622010935944,820.5511680525128L447.05914473996825,820.3301371789433L446.0437921710731,820.195157047342L442.62229128069424,820.1949140810048L442.1154944270577,820.1947781902144L440.51666398499657,820.1704428643567L439.89120557500524,820.1186230489523L437.51677848340825,820.2029617369474L435.73367380004277,820.1837898057738L434.94446102361235,820.1902226210499L434.5369355297828,820.1858388085554L433.65367396384295,820.1762802116882L430.06128987357135,820.1365967202621L426.92522238648,820.1008949124562L426.2690428721514,820.0932999014576L425.2157185496753,820.213879080593L422.4904953186564,820.0524903978492L420.7919603139801,820.0864239400437L418.7152686796235,820.1275186754394L418.63420703307395,820.1299206854524L418.46140554408674,820.1350389162403L416.6104481154869,820.1896744455479L407.98349842503575,820.4397779097551L407.1551140947266,820.492004094215L405.74796847477234,820.5805599486351L405.63897072152145,820.5658649914863L405.35376908993806,820.527408625664L403.75424545710325,820.3115746917479L402.7640801017032,820.177833162021L402.65829453576805,820.1909540399694L402.41477617510105,820.1935856965029L402.2494473003243,820.17845860392L401.95073909591355,820.1945703231231L401.8038189129297,820.1888405014051L400.93636076302766,820.1678191613099L400.7774465870119,820.1659977432378L399.0869678461433,820.1464651645786L396.9058686370126,820.1208399147331L396.54497171268065,820.1165506052491L395.3835954094009,820.0966867237912L394.71950074673197,820.0852673618666L394.29378092102104,820.1307330785979L392.88630481512735,820.0699039146252L389.1232770465097,820.0705632212182L386.7222300828817,820.0529050223254L385.37896506382356,820.0427737441139L383.9600398697753,820.0348889025013L383.93616316602703,820.0347544930349L383.27476010377245,820.0136984897503L373.2706459706903,819.9560596232334L372.1453635190247,819.9212009120472L369.12035333520174,819.8756481479807L368.1026907597412,819.8553904238242L367.59292347512473,819.8361461517209L367.0779396402674,819.8675895260089L367.0528991660186,819.8675166929106L366.1818621807266,819.862569633076L366.172882946816,819.862470469993L364.286997325401,819.8349522793194L364.1307075272421,819.8326557319723L363.9585123123413,819.8339407714502L363.86527811347577,819.8318825657603L363.25549505100946,819.8361442105108L362.4526248199528,819.8416983812581L360.7335257031415,819.853373346301L357.8776709421618,819.8721127024278L357.081596294786,819.877190433873L352.07085663460816,819.7473162188206L348.1444411861279,819.7091052164318L343.3694344303833,819.7297945704762L343.3693660182585,819.7303047334894L343.32264055708595,820.0787373463518L343.7239801417194,821.7185607127792L344.28617746362056,822.6632024514645L344.40285511699653,823.232799363419L344.13896944702753,823.7467938124696L344.14482229941996,823.9961488443186L344.3198165541038,824.6773945928611L344.6781779292254,825.3979611262346L344.9639416759171,826.3993373884439L344.43383142484345,829.0069145036182L343.57040008969045,831.0840151709358L343.3205454280826,831.5520073141682L342.90238755623085,831.8929672746128L342.55027232955393,832.4521268563285L341.6372262326854,834.4130215499972L341.5521870071659,834.9340796646594L341.2026503705362,835.992356947505L340.9120858444351,836.4092407162627L340.48707750926724,837.6143576880729L340.3468903723876,838.4815920719549L340.1555415990806,839.0381993964855L339.3350777090447,839.5357901487596L339.0736876828037,839.8189807832405L339.00839994123396,840.59010933336L339.2743419031225,841.3514970534886L339.29081022515084,841.8416333660766L339.06455483376925,842.2592659054719L338.65795167568695,842.39728010483L337.7704593357456,843.3090188514042L337.67140708642955,843.7976025161505L336.7980494779665,846.1207518463071L336.7811959609512,846.1655739789105L337.92389061555696,847.3425000629909L338.2647671337837,847.9532778347137L338.4038918808942,848.5144704328404L338.20355739419097,849.0110657554426L338.0495711765154,849.7996685554506L338.2616302382032,850.098603074899L338.5951210464273,850.2607918362596L339.76782864032884,851.3584362792504L340.090241206275,852.0331845020476L339.9874893945715,852.5035831227747L340.8378428216039,852.9310557891096L341.7361729158837,853.2111862577312L342.1111125692217,853.7570711974402L342.4378302387405,854.4645703157505L342.62388062809896,855.3778798356758L343.6866343624232,856.1272986484735L344.79529915105104,856.5349157073003L345.8284101324723,857.0800952296547L346.6873937673529,857.9470926893669L347.50061440851647,859.4979723141221L348.17351954137064,859.7981112087002L348.8477231021034,860.3804412588362L349.55548559258466,861.1945201772978L349.6521183292744,861.5613531523063L350.44929658421233,862.2420854341738L350.7755379867319,862.2833330017083L350.9303910963621,862.4239746404266L352.12649550450095,863.9709082377652L352.05955896951684,864.8909951316293L351.9162531705318,865.3102134488438L352.5814923030277,866.2303531240448L353.4669281593986,867.2456811079628L353.56072603701557,867.4784570088099L353.73728225062644,868.8181186503723L353.7338039239723,869.8248409863763L354.1969505300469,871.1000856201613L355.7453941019014,872.1657241706909L357.7968641144573,873.1539186204602L358.9213660117656,874.6260273707778L359.4026342085506,875.5857703707522L360.0657619726033,875.830156345934L360.2330364990245,875.8917945454409L360.36259568286107,875.8468307164978L362.0489660784627,876.2405632614591L363.05352611117235,876.6544113395561L363.2941437399688,876.9718918930228L363.3310725374035,877.3935478482592L364.2113038402118,878.6720570738732L364.90872008909815,878.9435121162653L365.36619107910894,879.6755785714226L365.6038505343189,879.8495532175023L367.2278590977854,880.5291225673454L368.1959157462743,880.0857845766014L368.5487157148001,880.2700268055737L369.5439185091176,881.1513867335066L369.7656451439775,881.5427366793731L370.1398721771423,881.9393203761232L370.18939835715975,881.9918024526585L370.84460093736584,882.3646885408609L371.82613409514664,882.3796204608409L372.768909552634,883.4546087949316L373.6926593602649,884.1498219111218L374.8684274439919,884.55103937684L375.8673126880906,885.1451854649233L375.93399581228243,885.377470832079L375.83267715360626,885.8257519441535L376.0384388517673,886.8747942014089L376.9176996071107,888.7973605648126L377.0099909139608,888.7843273028916L377.5111235576888,889.3686306509951L377.6920389783578,890.1582028104847L377.5120950673468,890.6288775547129L377.7201868205564,891.469711875068L378.10351110454855,894.1196433362101L378.0974932418053,894.2368377718906L378.0633065190047,894.9025714326806L377.9372271958831,895.2681362030694L377.72830642225006,895.6341053425406L377.5829374669195,896.7727722849147L377.5812954837716,896.9395900801848L377.8189112117859,897.1459709065366L377.822380755701,897.2711831101119L377.41220124368795,898.5923840328421L377.064491284351,899.2193423401725L376.7299578092285,899.4615558823748L376.13281465872865,899.6594787193205L375.7844651517203,900.3559968511058L375.37232061281304,903.6341611683698L374.70178443504625,905.617873144153L374.68484536848746,905.6679775468388L374.6585165682834,905.7458552402027L374.3453105312034,905.6963488999244L374.0387884993288,905.8971605808003L373.66927406998497,906.3799570606318L373.6405821878236,906.4771810295806L373.9094370603815,906.7951426024504L373.9566245415912,907.1389669504233L373.6012539013245,908.0395485430702L373.2019791854575,908.2719853883507L372.94314590232966,908.3156585803447L372.87594308738926,908.124770346478L372.77900448197965,908.1144635895404L372.31016130263197,908.3831761200686L371.9747337535031,909.5763570816978L371.3479602559802,910.3581938037582L370.73284602066076,910.486110037964L370.64875123435274,910.5781083793638L368.65866829242213,915.0239504883712L368.66801746678937,916.0045116893491L368.6717202924583,916.3927948733239L368.91868040725154,917.4810345130236L368.8750951893594,917.6755081443775L368.6445515975164,917.756238838215L368.501962161949,917.9449959264205L368.41722639994543,918.0890289241839L368.4280140576559,918.3836895082909L368.9426713353755,918.989237390952L369.20168519670403,919.1361426300123L369.81703368077655,919.1696097529634L370.0620917014685,919.4337652017011L371.278569614338,921.3824509159691L371.373298865166,922.3348532208804L370.9414428892267,923.5857239699237L370.62313524290596,924.1948944356086L370.47841926497085,924.4718273311239L370.63269544528714,924.7366989802665L371.1704617151014,925.0460912368097L371.3426388187837,925.2706452638645L371.5044782176927,926.4874002551685L372.2793778758153,927.5080597103675L374.07774225793804,929.2075501109005L375.2630261558975,929.4018224861461L375.81459677135354,930.1160675307835L376.64882272076386,930.5092229039565L377.17181952241106,930.5954154186496L378.02951417262045,930.4012801625487L379.9122477345743,930.7233392000478L380.4181367050513,930.9110503750588L381.7233536286077,931.3952118413972L382.0837082462732,931.851125697511L382.3798725481566,932.6947712457435L382.4334011378593,933.4715562833976L382.2511358420744,933.8889016378894L382.1478146356792,934.1254704091483L381.6221100160423,934.711499034116L379.70219515897145,936.2316132222393L379.30161377180747,936.4854556060511L378.94628780070207,936.7105988772073L377.3157385861747,937.2822818759726L376.76910880451373,937.7832479541773L376.2373028009713,938.5277079860708L375.9378228713392,938.7678882366431L374.9913600208507,939.0420960232954L374.2403606075902,938.9939769921652L373.1943782986369,938.7401438918532L372.5825747878062,938.7541184348008L371.9690881888722,938.930149785167L371.36907569401114,939.4710449631993L371.17296717327997,939.804024190872L371.17201129397864,939.8056471608236L370.97761679281666,940.1356960313714L370.5285607966629,941.2861362805374L370.00077895801473,941.6048388944912L369.3970165192019,942.4901974410312L369.30336419843206,943.0769712230513L369.3517167827357,943.462584579704L369.7264554122747,944.3989358982498L369.72366516385455,944.662411496467L369.16408449099504,945.5674134623184L367.88258486107145,946.7507093968557L367.4733471591289,947.3950035255828L367.38107593983096,947.8400060205479L367.3532749332943,948.7925571493141L367.5002403399257,951.6401947698755L367.2652370413314,952.076243381215L365.90061058189593,953.6428539949063L365.3704730866328,954.1034453899517L365.03638946249146,954.2417149972238L364.61688168347234,954.3231848196262L363.1592757920796,954.606113049882L360.3053403421739,954.6750441325617L360.276664839048,954.682657842036L358.88292870983776,955.0526034299937L358.42558226181984,955.3620145447769L358.0449296212846,956.0402117244482L357.81645200074485,956.9792127098063L357.8240026249617,957.8532057653154L357.82853806524656,958.3780715518906L358.0125573327516,959.1102578648498L358.34143776817825,959.4386677946435L358.42488410763156,959.4678967717477L359.7195104752727,959.9212641483036L361.6802730272107,959.9843340052646L361.998233059439,959.7445257045206L363.05320019550027,959.3712329024534L364.3147703025088,959.3244823482762L364.8212106860539,959.4518064481254L365.3119409660758,959.4166557240462L365.9083943672197,959.3217868884562L366.61298632403924,958.9440829477703L367.57796520252083,958.7719883218338L367.15131252613713,960.9782298264724L358.7858306160574,963.3794813112265L357.8204928170474,963.5304872032065L355.55300285212525,964.1528254060685L355.5533891660206,964.3489761677008L355.5539335478352,964.6253273181617L355.5543882265814,964.8560889413504L354.52442307555384,965.1052383396748L351.05540092250544,965.9435540733579L350.1911425457063,966.16979556775L348.46339658844744,966.6218313937429L347.3467875235964,966.5177117536203L345.7620766439137,966.6728381500161L344.4809013999041,966.9855098380242L344.33219396563317,967.0279620664294L341.1456750378327,967.9370404077827L334.48964973138675,969.832278687941L334.4710687420045,969.8375625330293L331.1894549656,970.770146359313L325.5319808373155,971.4378125385666L321.43104981606575,971.9197551551599L321.0337823773647,971.9663515822378L318.1375164989455,972.3055780277875L317.3751128782812,972.3947335608104L317.20935469167745,972.4254030844421L305.93516977985666,974.5046846481649L300.5066668300633,974.7725558413028L299.2809851754768,974.8326312859792L283.9216870971896,973.9040150123719L277.58234720020766,973.9538187371934L271.3429189018235,974.548637088701L270.9841724020931,974.5827180799491L270.94869327175536,974.5860879009539L268.5524448289751,974.9964627441464L267.19148838121373,975L266.08555530206854,974.9138551423455L265.940582638103,974.2777663300749L266.76057302242066,973.55845942984L268.9183047343305,973.1852610692176L276.8012876279081,972.7007980958551L280.01680299964664,968.5121142670155L282.30338846812424,967.5608628585892L285.39019001455415,969.2762136570962L286.1553180155122,970.4011732967243L288.4631352056005,971.724500782366L289.35306324210455,972.0689238625404L289.7270914828542,972.2136528602022L290.0773124945579,972.2390808137752L292.1542563851124,972.3896262253826L295.5367889692386,972.1059561019536L296.7449150008596,971.668064785465L297.0405672067103,971.560877726349L302.0928142061209,969.727606458996L303.00896526789927,969.3948441751544L305.74875039820654,969.6928531476422L308.2657069403757,969.4936004462288L308.4907243454156,969.3898636783676L309.5705529524887,968.8919524111216L311.11135361175616,968.1812213629253L311.75402245949044,967.8846830631L312.3062987710595,967.1240448662701L312.5561545132073,966.7798860752905L313.22013604139914,965.8651832559451L313.2621180997688,965.8073430480786L313.31362823015394,965.7363747579095L313.6641921307409,965.0613144153215L313.9700678598787,964.4722431852813L314.0352695777723,964.3466666122347L314.0354418906935,963.9669502568352L314.0355628905459,963.7006717516838L314.03604777589146,962.6365840267994L314.0362998094504,962.0853595145754L311.0846436490461,957.8818110764496L306.93278106368626,955.2779860309497L304.7657812498568,953.51655037056L301.2329107801816,949.1755004390403L300.9168690336745,948.5509860540772L300.4447653004623,947.6179551191833L299.9546369349023,946.2467332121308L299.9175383544289,945.7587077395505L299.98966246994905,945.5057467332588L300.04433707928456,944.84094984179L300.03073968037756,944.7572184820049L300.0031353790939,944.5872305100285L299.6145013570912,944.3993833085469L298.87447042072915,944.1953978871628L297.9095672014542,944.1986053432164L297.1369015085636,944.1013542071717L295.19502077350955,943.0593010547868L288.0691872849404,937.6728859877041L287.6395131811613,936.67993927561L287.466419905373,935.2636142573272L286.84801793514066,930.2007835753623L286.28526054751825,927.2040635200369L285.9128599904751,925.2201860358157L285.7075621332568,924.5675819018279L285.04419415055816,923.8287160702338L283.86172306915546,922.9523141300326L283.0057304699172,922.6412207450469L283.531803914913,921.9751640954908L283.5731415962913,921.9228229004862L283.5875795333151,921.9045416507621L284.87332417999653,919.9191803130258L285.11134945378905,918.8871157653612L285.1322869850503,918.7963243590766L285.16599327311457,918.6501612788742L285.5691394897799,917.8127213220291L285.7673005536345,917.4010456485381L285.7749271765531,917.3228388541515L285.78663363211786,917.2027941211961L285.8090977219582,916.9724292778362L285.97517915271516,916.6670416096066L286.80411514792024,915.7460043555616L287.6741795091318,914.0759222162815L288.11247225527984,913.0988224479422L288.72912953466454,911.7238213264392L288.9082150803366,911.0208950807147L289.3255026019977,909.382721679781L289.4122345188998,909.0421825445696L289.3534112433805,908.556538296676L289.3103263637188,908.2008044610475L289.3035948751285,908.1452234195245L289.2476567869055,907.6833293293155L289.0614779047079,906.1457431076798L289.0412215720028,905.9784287440464L289.0153030090725,905.9177875853456L288.4198102730759,904.5243485095679L287.81531247337983,903.8762843454186L287.61953460727636,903.2115676068015L287.2382309432736,901.9167306243887L287.7743109747861,895.8783996424509L287.53908775772237,895.0045394642498L286.89831641667695,894.173813825209L286.267107114241,893.6061484272213L286.29595481101944,893.1033674647408L286.523611097713,892.9791869330222L286.780335260494,892.83914164566L286.6659180363306,891.7593982750238L286.55690758836977,891.6237793204534L285.76206762671484,890.6348046618027L285.66671789043994,889.1455004011827L284.8957851743927,888.8382496974442L284.69119605534235,888.3586215656453L284.58724580677,888.0194118503792L283.7278161737769,887.382277554239L280.3831786884916,887.0283311725402L279.61090260730356,886.4385795112455L277.8291420830631,885.0775019707471L275.31848577106814,883.1586079639881L275.2190960751766,883.1438883051975L275.1456333600912,883.1330077892394L274.44858427968626,883.0297406005307L273.23058587429375,882.6537430115904L271.81689985977465,882.217124015463L271.6293403961313,882.1591788522057L271.2868532161691,881.8793123801067L270.8576376014853,881.5285415889998L269.3078130104797,883.4086975162932L268.98364679022563,884.8252492058796L268.5686511961859,886.5590173591764L268.2053658451034,886.8438063713303L267.65911965322175,886.7354041527713L266.6982696170166,887.7919026137837L266.0096671129458,888.9535627809396L264.9213406389502,888.5224457706933L263.9058465873808,889.0726940542229L263.701747438911,889.1832678178384L262.581423981524,889.3581864233768L261.91034375515375,889.7385340661638L262.2775620841796,890.4314413742024L262.9039945284293,890.9808524233883L263.117262967765,891.7511723999339L262.4376082733089,892.5024992933274L262.1122333152497,893.1853493522742L262.20086220171004,894.6981685377871L263.1467116459073,896.0531947593959L262.2748230573636,896.8597363526993L262.24905329902265,896.8835720704445L262.2214842981376,897.7588208583043L261.95694432482344,898.7585862083506L261.8244741761803,899.2591698346569L261.14522718808075,900.9054962740108L259.363354332024,902.7688904373938L258.36760415269913,903.5846535688131L257.9076365129679,903.9614127524223L257.4560905132116,904.5438270853936L257.15040781147127,905.4408386176931L257.14700576734197,905.4508210573563L257.1234406440193,905.5199665405105L257.0781847721637,905.6527555905986L257.4497009672258,905.8907468704862L257.48129693001545,906.0718727455154L257.5371343515575,906.3919507758955L258.0502137606952,909.3322767506032L257.7679534054039,912.8893624217562L256.53340954170966,913.7759428459485L256.3609924198147,913.8997417610195L254.53180678564885,916.6573901038237L253.98759731613796,918.4366560972912L253.99660347791738,918.5794051973062L254.08834592257512,920.0333122891183L254.51375256997395,921.995866979295L255.0579152515238,924.5053468378655L254.35455511810343,926.4815441178213L253.30579799422796,928.1765410925664L253.31338940739948,928.3076181279754L253.60482282241978,933.3370832499734L252.82001075117205,943.4647452426345L251.3001792540347,947.6230096825136L249.62666112699276,950.6165578377468L249.0104422603142,951.2342062897826L248.40772275919076,952.0717973206331L247.83899544043405,953.3665325964753L247.3128100215809,954.9401923569988L247.05951228711157,956.4916611531952L247.04685554310402,956.5691761841572L246.96502639804032,956.4892415003826L246.8070109213753,956.3348796825175L245.77902944275039,954.2996856162811L244.10740193584746,953.4192718951822L240.64914575148654,953.9526960359485L237.79980735339944,955.337194874626L237.0988066636294,954.46045521864L237.12924627765116,953.9384379686787L237.54888049375415,953.4982906225285L237.42708970426747,952.595413833287L237.13445604962936,952.1351385619964L237.01077690521842,951.1742643794148L236.71165891987286,950.8860428013984L237.08591298117096,949.9281466743282L238.46103354120473,949.6632294247136L238.47662052099216,949.0408003745705L238.7337216361476,948.1359328982021L238.60341398707268,947.4074976163663L238.64488950567096,946.8739558953162L238.79525991899692,946.0927835030027L238.32571317787188,946.0302512516798L237.65133523564,945.9404011024917L237.19732059821683,945.8965691599985L236.5273743675614,946.1040727177274L235.7514143192137,946.1415120349814L234.91314388469007,946.5442112770726L234.09365602006966,945.4009741752361L233.6859247636728,944.9773131994939L232.292333765654,944.1917855180992L231.1837681586795,944.10035592858L230.55834749065946,944.0668473201977L229.81864714584856,943.6858245605326L229.614222948188,943.3981832257286L229.42654220217668,943.3142304074661L226.0267465708457,941.792654344272L225.15645604548422,942.032078570881L224.82537007968276,942.0254267053056L224.25583229487967,941.9377785498766L224.0841314293975,941.9093420426891L223.45219385382268,941.8046564420196L222.19457751410988,941.5961991294074L221.3702244263365,941.2963766043356L221.26141730820598,940.6700295487564L220.53440677172105,940.6515638888993L220.45847149382243,940.6696849254529L219.19631640270376,940.9707916883848L218.51946606938128,942.2420452790705L218.5294793965723,943.4687199788348L218.27060354713996,943.8363679271441L217.08050451605783,944.0344773991781L216.54675203775014,943.7711107669791L216.98906978445035,942.7432165029361L216.57345882732227,941.1320673868311L216.56941827826364,939.677214290789L215.5350672092759,938.694651670216L214.67056905010986,938.381307974687L213.67106823106133,937.6695058933383L212.63121457437728,936.9152171481894L211.63258185771429,937.7615841881259L210.53599460905878,936.7976135419656L209.27295135671721,936.6394862759621L208.852537339709,937.6049018502574L207.9979353189617,940.1874188183506L206.12395029434055,940.623387196101L202.47800108628581,943.8058781316212L202.17209584238697,925.8012949706008L202.12285129693134,922.8923374982567L202.117208039864,922.5587919222592L202.11713022281526,922.5541922623178L202.01293938032438,916.3889603475475L201.99179090316778,915.1359245840658L201.8945652738209,910.6289014681805L201.88442619057128,908.5519037991785L201.8800565427352,908.2430033706776L201.8795537708035,908.2074588818123L201.87072004744016,907.412662549438L201.8461493343131,905.200447170701L201.7791690372909,899.1585289166421L201.70541143470678,892.4858783604739L201.75862372382903,890.6838567180346L201.6830641226253,889.6165069046074L201.68235355072352,889.6064683359839L201.59744226023855,883.182037122471L201.4988134195903,875.578558212246L201.49890193983987,874.2403324951017L201.48123141578003,870.7160465574835L201.47827718958592,870.4379504657086L201.46816162801048,869.6645405327411L201.33628049284687,859.5585178840888L201.15204874087487,845.3694037335521L201.14504585255554,844.8283952066868L201.13272010693998,843.8758713256711L201.1242263056131,843.2192558712613L201.01106809235608,841.4692127990832L200.86288389599093,831.4034611036707L200.64650173939373,816.6341580170846L200.640959859419,816.2547740338805L200.63273397133503,816.0651222651738L200.63270686393952,816.0637151367389L200.30675042327948,799.0955170052729L200.195062229028,793.2591412356278L200.09584142197951,787.5216708500534L199.79338060170386,769.9589022709337L199.78166759858055,769.7189041323297L199.73711946211927,766.5724251863923L199.8036867235292,765.41674882973L199.77342975905253,764.2129767490289L199.72802094812573,762.4055883140675L199.67275481093765,760.2045538315866L199.3949134107154,749.1175043751005L199.36668994605714,747.989232684541L199.28363011670098,744.6666127982212L199.27964279782998,744.643607305587L199.0485619936033,731.6038563488219L199.0551959619521,731.5259700415428L198.98135018033753,728.6035727864021L198.98132006797044,728.6023805937626L198.8616480590111,723.8610636626411L198.8951693038553,719.4316533381956L198.75417593888994,715.6909632539391L198.73608212824092,714.6440127596495L198.71762182288074,713.5754461149459L198.53850340957308,703.1856528207372L198.44517367489203,697.7564215581885L198.33492694751385,691.3291732585017L198.3065868929716,690.8576394406512L198.23228102567134,687.99877068512L197.96909813587433,677.8535492008888L197.92247768963182,676.0532404256364L197.92254125868828,676.0390495656L197.94441430069412,671.1640686450819L197.75445082878065,659.2848296561452L197.72553539740727,657.4718542261635L197.713960554656,655.5710309677811L197.69077998421602,651.7560489698913L197.65247878087598,645.428178444797L197.63662371153822,645.3405817740959L197.52893694276918,640.5873329964332Z"></path></svg>
