<svg id="AL" width="1000" height="1000"><path class="state" d="M262.80136504167297,917.3960871759355L263.2081650757523,917.0261156818497L264.17586301261497,916.1458608731157L264.83496327734247,915.3357861669692L265.4224222425379,914.7349390522617L266.0515274019571,914.431924829292L266.5185741734045,914.5469655806527L267.0761100427502,914.922794548426L267.5763463354628,915.5484421681132L267.9489010530184,920.4228189574296L267.7976220025455,920.7839741313437L267.37726449380443,920.7082096218223L264.2293697986469,918.6003042749716L262.97425760283556,917.6824120044862ZM234.38325104059987,954.1912835786136L234.59962466241157,954.0037750670585L234.67177072831007,954.2077477161906L234.76909815036925,954.5664941647028L234.91889287518595,954.7530620467892L234.80015252014476,954.8851131999238L234.65628450508854,954.852854925894L234.44345522480995,954.4913277439578ZM231.94664946711507,954.223101282241L232.62058762816594,954.1520105843222L233.07169134773207,954.2298622115612L232.65529316424085,954.5267079367491L232.01894737870626,954.6135238340531L231.69632970840584,954.4216999091445ZM225.09695351470228,951.2676585115057L225.27329120006502,951.1110151530182L225.6482793514645,951.2927641362567L225.90594077383568,951.103654834842L226.0703170188609,950.9698234193049L226.07974734432622,950.5905795184221L226.21336392319364,950.3065083144078L226.32845505860723,949.8378255087475L226.3478155198278,949.516446909584L226.00980421341913,949.243583922317L225.6007231184478,949.0492524391407L225.6299328786059,948.7970848514296L225.78244499503458,948.6745383117943L225.82147712885862,948.4915709397086L225.7806312334067,948.2834976414294L225.91919355484006,948.2640308838447L225.9478237735497,948.0347736618071L226.0357047492645,947.7380439788556L226.13320252363053,947.2373506506433L226.1841334058861,946.82169336056L226.21149176651218,946.5376698599823L226.21019156188936,946.1817635392715L226.20178346720147,945.7036183684913L226.11690899773768,945.4370964747748L226.06296570842946,945.1510702000189L226.16220231438095,944.9594930278931L226.32219673938255,944.9979402817658L226.56799594602484,945.2798061511735L226.70311289835433,945.5737258624051L226.7393743023441,946.1642865828372L226.6840097945792,946.7525910256525L226.5761542166396,947.4109905178304L226.4927385425386,947.8528261319057L226.49183808908612,948.3472162840674L226.54923048996824,948.8199461688791L226.61158433308336,949.0859484791156L226.59233947241853,949.3959662004688L226.79667164541092,949.9644407703305L226.95548125583912,950.5202377756145L227.04804813423127,950.9596085544662L227.08153344403905,951.4664858954485L226.98938587524782,951.9355797591307L227.00489907467866,952.2351435515551L226.94124771899163,952.4865035298299L226.8298620605596,952.8058517935299L226.6925217283947,953.2395732861798L226.61388311255052,953.628712077704L226.22781506711897,953.4235815662516L226.0719751073053,953.2126022132143L225.86075181776445,952.9197158076543L225.83543309932875,952.5511326851563L225.73603341934748,952.3876049830494L225.79771636990642,952.2165266876447L225.65803116938062,951.8219854162203L225.351558324394,951.6648612807767L225.14802784029604,951.5218596420118ZM213.57953337515954,972.415730021568L214.8461141427694,972.0115184683359L216.08147509493654,972.1872430177903L218.4277197766014,972.1490746474165L222.04763894880386,971.5623039597681L225.71349062998496,970.7526915340487L231.6597035586056,969.6880315224128L235.74388357131778,968.6455044518468L236.27794468948267,968.7656238367979L237.37642433277003,968.8733338871136L237.7230374057842,968.6610961178985L238.3895673010703,968.7044625731223L239.22463869259053,968.6200103604135L240.67749270430426,968.5105751229025L241.7157399895756,968.4789784417699L242.68799594922024,968.3588670354161L244.1284953819559,968.4390514478731L245.25060111407103,968.2740384629732L245.61211449958964,968.10694454176L246.33384227713867,968.1122785797224L248.20860995359757,966.7135756726811L249.296163841517,964.4212077624L249.34256313356602,962.7647092874574L249.353532265683,962.3730805854319L255.87654868738645,967.3431596603726L257.5988527397817,969.2147502968849L257.9247165125841,969.5687665443663L257.7359839309032,970.1695933651984L257.0885969746099,970.0544403643923L255.55708758558248,970.322460519898L253.26901466873798,970.9117433206468L252.72497445872096,970.6912030868737L252.34119490215613,970.7175985007482L251.99064134729204,970.874236327564L251.58829196270142,970.8835437086993L251.33417275824004,970.8047922575416L251.35808532907916,970.5584727318579L251.24073095822962,970.4819710510587L250.83572683527697,970.2179372537948L250.3647354980631,970.0970117896481L249.97211154841284,969.9961884156421L249.14908229083196,969.6642430716199L249.1405537698058,969.6608028984203L249.3839197309953,970.1762165477514L249.5469638663638,970.6459806215082L249.86891627069426,971.3657790181978L249.9684264981186,971.8158634914782L250.416614944362,972.6118092770114L250.713700344532,972.8103213133675L251.4967832817075,973.7601319238976L252.12406389157638,974.3225058478257L252.55126928460248,974.4325021827693L252.23567224523768,974.6447779666971L251.60266086225684,974.3383077049159L251.06308783774298,973.942319595351L250.38691591117112,973.1229738435538L249.49770403872682,972.0245408636802L249.09706254438234,971.099955900562L249.04588324584594,970.9818355777231L248.7815952606863,970.2102649111987L248.71155128522693,970.005759477976L247.92610045889253,969.5951902426725L247.01834576271685,969.3143382778378L244.7911959257401,969.0991955604811L241.81469637125062,969.0790896175185L237.4049704400271,969.311265059832L236.01998190975394,969.3400466468211L229.8440392764296,970.5069896043974L225.37674668048734,971.4425105683059L221.33520945778824,972.1688369446201L217.51955456062285,972.8935008512628L215.04891674047104,972.8299661097916L213.73524947840508,972.7079095848746ZM211.03152130494806,939.7213606900406L211.3319642116163,939.5877841112394L211.60130753129147,939.5857562336494L211.7976658143089,939.5862612131125L211.9998826681795,939.5368448284739L212.12642116995477,939.5857820559003L212.95605921310494,939.9696045930948L213.4124304587371,939.9509360591921L213.44437732984915,940.1001641011932L213.22728640879484,940.1765896038696L212.94696954154324,940.1230305206595L212.07361589788843,939.8584723419974L211.74425460414437,939.8816389863639L211.45212894136012,939.8786110051733L211.237356130556,939.8865338127819L211.01379697459032,939.8761779171043ZM197.53563411336012,636.8503450798717L198.47811679587647,629.6044046085386L198.47924478000226,629.5921827034696L198.4792763604014,629.5918405240897L198.53163450169995,629.024511643291L201.43424882692614,607.8371038461182L201.45255625178515,607.6666262867662L201.68290175631626,605.9365083739269L201.78264168106534,605.1872432499597L203.99927599918448,588.5164416507761L204.04259949726895,588.1902517311767L204.24913884109316,586.6349899380123L204.92516424338754,581.5422263967779L204.93929537579828,581.3975471263885L205.53446203701782,577.1957874819949L205.9478613247764,574.275880350356L206.4803483838581,570.5131555305604L207.11132649470738,566.052006779686L207.1838358814877,565.4786968079135L208.01646377126082,558.8922804206169L208.5790008553114,554.4391790375962L209.98028380055712,543.366340437885L210.02404330886458,543.0202970801297L210.21582611057983,541.5035233860372L210.47027256409774,540.2966242422461L210.97775307251686,536.4829172424052L212.28078865506671,526.6817612864548L212.2816230886549,526.6754807573468L212.30762461990298,526.47977246956L212.3082431572534,526.4569322850833L212.41154520750263,525.5827045032486L213.13862782315312,519.4267266278468L213.13956488857866,519.4187896243149L215.49337745704332,501.0699293328285L216.06049065554953,496.64238417235737L216.2290271192171,495.3260905312465L216.72313542318443,491.4657071261158L216.733609212644,491.41141876826765L218.79089251052022,474.631926573011L219.666026095005,468.55728520490294L219.81023745828526,467.55577243159775L219.84521544648067,467.26299234258494L220.1825804181642,464.43853058677007L222.8126337076025,442.3833034764546L224.1610647487783,431.74090794043934L225.71062377115703,419.4923060820567L227.6864248074759,403.47295646953455L227.7018430661407,403.3478132331277L229.4872881640836,389.62932534580546L230.54415295160706,381.49678907568426L230.9543052626193,377.71718646104523L231.4881536773886,374.2571322417456L231.7076104893495,372.5221364834419L232.4057865009597,366.9997261792129L233.16329952215847,361.00327325241153L233.50807680233055,358.27240188006255L233.97012502797008,354.6110689553816L233.97037305319992,354.60910307858074L234.67033564594033,349.0590151694793L235.509013045463,342.40349400461423L235.90704631400195,339.24268676936094L236.95943117733313,330.87903741536695L238.15627361459133,321.35566762760504L238.51556878606854,318.4942963394259L238.70513916036387,316.98413372855725L238.82578460442718,316.1945019299908L239.2696002000295,312.7524990495026L239.36672462691166,311.9967069421637L239.9275903357391,307.6306780015808L240.04856113953778,306.68864136199466L240.19700625014303,305.5324859969741L240.29191036381746,305.12662005503444L240.3861395041052,304.3351778403455L240.5754108374184,302.7443325780132L240.7747305528598,301.38239911644155L240.80897117041314,300.9426615128164L241.7514842776386,293.45994718680294L241.75160134648922,293.4590172837928L241.8265182441756,292.8639117344676L242.97574504576346,283.728835027438L243.01426035957883,283.57117488185906L243.32270846188482,281.0396841139342L243.36597559236318,280.45142332574267L243.82274106683752,276.3778576924417L244.48589680667936,271.40321435582433L245.06781639397082,267.0350940136152L245.44277470663448,264.2190847229489L245.69135044012978,261.47490829292315L245.95645528184278,260.0595803885877L245.95835434360995,260.04944069224365L246.24767325674725,258.5044944920085L247.16246782503964,251.3970901817609L248.04791171092762,245.08069298007152L248.34752551072296,242.94207908668935L248.38850463326054,242.6495233256885L248.38920788579907,242.64450259952073L248.92543294782377,238.81518537025843L248.9259660220628,238.79283942236418L248.94610168723216,238.5560054934541L249.79262954454657,232.33484566035156L251.53813358486323,219.48965109889116L251.83759791203192,217.28352064577686L252.03528200892498,215.82681634730622L252.73932865414636,210.13606733741125L252.9838881807395,208.1783253051961L253.42758061047763,204.62511230197993L254.14368541970242,198.88659295390573L255.72072581850355,187.29682131049998L256.02238515294357,184.41355137482094L256.58336911814604,181.55954528481448L256.81064034762625,178.40105512629253L258.60019025741053,165.07154384764186L258.6761468530747,164.50521278592134L258.7184649064248,164.1896700645043L258.92068483488055,162.5694440668891L259.36585289617665,158.8891978677222L260.877734348698,147.2265039819094L260.92414864538193,146.86318026761762L260.9318714410872,146.80272561905133L261.7797996829489,139.68935061692196L262.1666559026248,136.44158765246584L262.3185055140484,135.16636093231307L262.6990578282471,131.96948662236963L262.73858675863914,131.63733622140688L262.79024829021273,131.20321545127177L262.8369045553587,130.86113748356473L263.51950979568636,125.85441049374151L265.92806987926446,108.15899557191682L266.0735877397624,106.97446502245845L266.1642997232685,106.69963413706273L267.00433970239726,100.34668284948987L267.02384763178287,100.19908080130534L267.673484722927,95.89601073706575L269.1533535594958,86.08329870615103L269.5495163357232,83.45397597560384L269.99975749937056,80.46447828064936L270.4117182075876,76.18754311901603L272.10436405929045,63.50922820439206L272.6365574527592,59.092843908145085L273.98665784645453,47.876429714875144L273.65805684077134,47.50123781884338L269.7012030653169,45.83371825761856L268.41864813344114,45.07605618021756L267.86684338279565,44.74999676564431L267.39293158012845,44.34301192300268L266.3595247168133,43.397783241964476L265.07489123358795,41.810122070983994L264.01197171207787,39.635281344147984L262.43464394130183,35.37045528027596L261.8296317380866,33.9367140145024L261.2361034459984,32.96171618065483L260.0826830536557,31.488782034603673L258.3448590508759,28.28456067151825L258.16560149316723,27.41733459572572L258.0550203425878,26.99898147155858L257.9040049378881,25.509797700921354L257.7612242072362,25L290.0270940462335,26.10294407074707L292.43113860422636,26.161762565732033L294.2474724387248,26.20579230660485L301.64614047868236,26.381500962061182L309.44079988344527,26.560287241462277L309.477059825142,26.5523855609037L310.29104073832104,26.555381133273784L313.3287777456641,26.61453583708743L313.3475067216999,26.608062599753794L313.5903527143221,26.596742216171435L318.47671444179616,26.73443697871943L318.48102611290506,26.734557352127524L326.04319372813217,26.942620486090163L326.9945821610605,26.98949052714255L328.363245757511,27.025012184064565L328.38021342886293,27.025451298862265L336.2365863969943,27.2669917905601L336.2415824855998,27.267189029781548L337.3767692211422,27.31193550614381L337.65973670037624,27.30777304140389L338.249374687265,27.34289570229248L339.54155933598975,27.381391436256138L342.29377011698,27.462788171683826L343.45217251344803,27.48199964844889L349.6725841049573,27.52750932031381L350.58620329865494,27.545130772205425L352.6705598349537,27.58499910902765L357.23451233243657,27.670675173408483L365.97615731614246,27.828564532323753L370.22231203880614,27.902312365408818L370.68232944214776,27.91018640230851L370.6877093143519,27.910278354932018L378.58321951641005,28.041896929089887L379.5715822306629,28.05790410607068L379.5765018898234,28.057983522201937L380.91755733197,28.079535269177143L382.0421328529226,28.11344187517409L382.70124663838465,28.12198791788444L386.8508822440291,28.21979969014228L387.768157282346,28.25650396586269L388.4800543290962,28.284928091406755L391.9463070731987,28.374056051678508L391.94846562329724,28.374117780820143L393.53011357418455,28.41921508009682L393.5302073431848,28.419217745798903L393.54180907039125,28.419547556182863L401.5013666946373,28.631429424326257L401.5062469668496,28.631557259315514L406.1467483019414,28.769397672037258L412.42554248484134,28.990246454782266L413.4580955475741,29.027783896802703L414.13919428175524,29.052482140673874L414.6305593020101,29.070269381051958L414.954658335811,29.080677839743316L415.5729883508853,29.100504390051924L423.2104784391199,29.327275940640504L426.89065214788496,29.434321185130102L429.11354335357817,29.498277160356736L429.5914272039444,29.51195763281288L429.9348274139888,29.52177314416707L434.0546635770333,29.63854899683963L434.78892501167434,29.65917100654184L444.31718283984407,29.92155040659469L447.3276763250812,30.00243323486893L449.1046508901895,30.0157081010463L450.9072496891624,30.073025948431848L453.1772844164665,30.144712808013082L453.463608272547,30.126570027681453L453.8418341418358,30.139912994800568L454.3376223734268,30.16944463526869L459.05714618717195,30.313414580900258L468.3224094228409,30.5891277703887L468.32763314929855,30.589280628463143L471.04197862990384,30.668314026181463L471.12419656192014,30.668619021394647L471.8014980174166,30.67110407953726L472.172071589662,30.67244301030962L473.0078427660366,30.675408949899804L473.53746017321055,30.68800753798405L475.1441468879476,30.706977138681452L475.15433194068356,30.706978294680766L477.64473648572294,30.706928589390543L477.81493239269093,30.705997251124643L483.5343770654163,30.672901661969092L483.53755806613884,30.672893865407787L484.7376471743726,30.66987540842132L493.3908217324682,30.64356044480843L500.3992775353084,30.61638891413253L500.4083021033974,30.616350546167553L500.5499365116349,30.615983675955647L500.92649656736734,30.628401561227292L501.48460097437413,30.62710690673498L503.27392767842986,30.662514556897463L506.17304534051254,30.6636937321976L506.20182602474216,30.663700940957767L512.7543270875527,30.737560745607823L512.7544881473973,30.737562504729112L514.517334013894,30.738873739833764L517.3269823997942,30.762911555030826L517.3414596779024,30.76303323233435L519.784801968821,30.759758380655626L519.8001330177439,30.759888006978144L524.1422356763364,30.795591227829902L525.0616015192702,30.79056521817637L525.8207070638924,30.78634732002729L532.9246231756752,30.743893809325755L533.8000639475076,30.738289282257824L539.1898134340179,30.627263661179654L540.0362242222648,30.605356126490676L545.0332080458068,30.474459920676566L548.1286558948717,30.4759209410048L557.5169571056238,30.47409699060489L558.7085151381754,30.47319267663761L567.8320526462713,30.45609925564139L583.9083220738523,30.404358090505013L597.5623391394314,30.338747662585604L597.574551991688,30.338680069420548L598.4403685162533,30.333847553818373L629.9011045802921,30.10397058783599L630.3809591138203,30.099646354056006L635.5048493943526,30.051939625441662L636.191231550903,30.044711567274646L638.7013000704651,30.049914176890297L640.5586185810304,30.05333090702885L646.77054840601,30.06208315597769L648.2041835929922,30.06351807470287L648.8421744492878,30.064086098655196L651.7766163813887,30.066139245646582L651.8181993857713,30.066161735501453L652.4417842051082,30.06647685936889L655.636626641833,30.067440279298182L655.8606982577627,30.06746696384073L655.8634607178076,30.06746725938069L656.8280994732239,30.067520655846238L670.0836231790199,30.05819460042801L670.0935530415117,30.058180584274965L671.0912613478107,30.056718649565653L672.1446207481868,36.43046977947711L672.2686341432843,37.75944355310787L672.6809239458964,40.267271649060774L672.9242522590689,41.74690674128095L672.929365502383,41.77790365092102L675.1068161885069,54.13819503659579L676.4101447577749,61.237750251890475L676.6945414092479,62.785886308165914L679.0358921899623,75.5170645423986L679.6372578773236,78.55184345302405L680.6409591237689,83.61378203666538L680.6462140652527,83.64930961586748L680.7116745469223,83.9740263278083L682.4338362957955,92.5108630865472L682.6556910577685,93.60977593473444L682.6565217821371,93.62573547775054L683.9036027936583,99.76015106843346L683.9469533868871,99.99777361064258L685.1935339984401,106.82707669596493L687.0285048074791,115.77304072875563L687.4674565653821,118.32901948833313L687.6093842642963,119.15523988029702L687.6493497351569,119.35371072658916L687.6511001071683,119.36081091698037L687.9324205606138,120.50185069892927L688.6054743404329,123.81123442991509L689.226314611228,126.81720499820125L689.6761505389773,128.99432821476955L689.7008681041755,129.10559647410082L692.9139867195086,144.85859879236563L694.8347743096859,154.25727520947908L695.4836640169792,157.42928552575137L695.4865458570771,157.44453297030788L695.9939080491673,160.12836657207674L697.0239362415308,165.5736011113059L697.6483589108192,168.87240078895422L697.7657115659223,169.59325641996708L698.260729656389,172.10047070181884L698.3213685810567,172.52239745724034L700.2263953281939,182.4062353785112L700.2276449689891,182.41271398417638L703.041237749033,196.98321562382972L703.2934152945364,199.07172725849557L703.3556430381586,199.41428988777426L704.4830330251368,205.6174936736502L704.7859934101455,207.28347664750504L707.3049153109394,220.92941236042415L707.4502205474527,221.35977094319156L708.6700601105102,227.8365272251783L708.7721294626356,228.37817948072075L710.1434715284306,235.61120349123013L710.662883026482,238.34873823430297L711.0825694421723,240.55985305568225L712.1286930529836,246.0681496173501L712.7767475591843,249.47815332580527L712.9696116207708,250.53114625952472L712.9696415505811,250.53130965647955L715.7182707836674,265.5202569047741L715.7185257621029,265.52144976554933L715.9685157385891,266.6908686048122L716.5606599604416,270.18248725769763L716.640403918025,270.6009349008302L716.9652411484307,272.3052120434222L720.1801092670314,289.14885395540455L722.9046847203448,303.39068382585685L723.1363636979911,304.6003197916931L724.5063967884323,311.7490609825985L724.5064206399074,311.7491853719977L724.5720606557045,312.09150025623035L724.6015590462542,312.27704906189183L724.7490518553365,313.2047245020718L724.7662309368922,313.2851651913442L726.5744555168928,322.47469713431053L726.7749039612281,323.5451381569472L727.8941743743474,329.51920046100963L728.1268523678907,330.76045082544096L728.5870910651234,333.21498529363294L730.9429668881123,345.76543974829525L734.5782312476672,365.08636873893647L736.6017605091299,375.81754048778885L736.6036713071303,375.8276658829948L739.6218492576434,391.8024902839887L740.4207386870839,396.0246987939273L741.3016747158723,400.5145364798204L741.3056455492554,400.5347678244288L741.6390142524417,402.2330637455434L742.1264931477297,404.7156920475693L742.1757948961315,404.96672544020413L742.4447056728324,406.35115231405626L744.563078961321,417.15447324220844L745.8727651037666,423.8251403836159L746.1756099840914,425.36670883205284L748.4549245807001,436.9580145683655L748.7858381856652,438.6392336370417L748.8511267741603,438.9708863522884L749.1755857869953,440.5599512347222L749.4305215287116,441.8082615455066L749.5102842565157,442.1987784886134L749.5635713208394,442.4596586368295L749.622922838634,442.75021714079975L749.7241256239097,442.7477547286494L749.6435566823232,442.95799663861027L749.6028537350385,443.06420648914536L749.6378174062239,444.1517980553655L749.6383968202953,444.1698210843258L749.6530606297367,444.23338906252224L749.7264049821777,444.5513296000506L749.7308841421827,444.5707458283292L750.6035559182706,445.74364542004434L750.7532568379402,445.84724282396087L750.7685251608309,445.8578087230585L750.7713715387636,445.8597784529233L750.9812558718459,446.0050170877645L752.1573009344868,446.2484161330264L752.493492551937,446.166354029613L752.6994721292654,445.78878642282086L753.0973646730963,445.4916752345172L753.4294314789374,445.42356159053804L753.634828526757,445.50361990602715L753.8484944578677,445.7153191218232L754.3175667022991,446.3822866748779L754.5347729873301,446.69109831072115L754.8194567177018,447.16651013484613L754.9784524963303,447.6790120554561L754.9741957346341,447.96012123325L754.9721998938311,448.09191179759705L754.9144071547321,448.44272924426275L754.8084220668729,448.68601066756673L754.3369883020011,448.77204436838934L753.8203403144418,449.02254509787997L753.1630284816238,449.72623310058486L753.0365206345248,450.00174800964186L752.5847146512272,450.9855955120277L752.5857355914866,451.08067562479977L752.5906340602266,451.53689457688233L752.6150486140384,453.8113571842923L752.7351148790731,454.2819944900838L752.7472027311121,454.32937474744944L753.4575813258868,455.33976905761824L753.7542182990715,455.7616231165523L755.3432215759542,457.5296889933243L755.5131108967673,457.7186785810185L755.6962561385026,457.86810592440776L757.0151065485635,458.9439436182241L757.6673898107967,459.4759027234697L758.6763071144717,460.0099087951668L759.2542972225156,460.4743782880644L759.8753725338165,460.54738107775194L760.331355006329,461.2232472649509L760.5801116705879,461.6832405699386L759.1544325104283,462.4762303103977L758.5262971654688,462.23908759199634L758.2129750115175,462.5353637565418L757.9297156803805,463.50002809451394L757.8779135168452,464.396168824669L758.0433001919466,465.6253650859067L758.4046167670642,466.4479399327739L758.7721749694367,466.77774750664076L759.0707020940545,467.0455911190825L759.9166466820285,467.57630915864775L760.4469712267205,467.9619988220651L761.3753270641869,468.10860270981254L762.0167174848432,468.6275389778177L762.2746990906259,469.08639317148084L762.3188504833511,469.6675333745232L762.0303368463917,470.46547087000323L761.6598911334049,470.912341154979L761.420407703678,471.27625058442413L761.0981600800542,471.6624162363685L761.0016962835356,472.1667783230614L760.8233727473116,473.0990221276703L761.9117546674088,477.7655540248258L762.2213780884574,478.69000609498244L762.3326679522856,479.02225435229184L762.6957717949983,479.4478849449559L764.1524810974038,480.15849243311476L765.9625851647206,482.0683594142024L766.8766194489007,484.4167862223213L766.6801100027074,484.843842222995L765.5952270872617,485.43172039985274L764.9434015814331,485.98678742002727L764.1400325443301,487.0621707416924L764.5543265718721,487.804246487513L765.0115848911184,488.5674772695136L765.6589473902719,489.03455512514444L766.5410236656342,489.1334479729179L767.2136506943916,489.0397100583586L767.4091142492221,489.27792333266535L767.4364942334232,489.6227728077612L767.3882665984717,489.79102331850726L767.2659747417163,490.21763679651946L767.0373092052107,490.5904087880984L767.0312239422021,490.9567214772878L767.1100263932135,491.30005953057366L767.2964070248502,491.8029131869171L767.630883524768,492.1767043057882L767.926523279094,492.31390111647437L768.1654760984075,492.61156251427184L768.4477564857689,493.816117277721L768.4850991295889,494.22320454340525L768.5671432217011,495.11753279496617L769.2700985336892,496.8653493741431L770.8419993709225,499.8192233819791L772.6653614532088,501.41248253166816L776.3149646749603,504.7315546560507L776.5465978491618,504.9473512783883L778.593187178778,506.8534621221673L778.6885514234381,507.42228046759055L779.0236691682742,508.4637076191201L779.4364781303393,509.1147911382236L779.7528162324531,509.6136648777612L779.8041957765244,509.69468725019453L780.1560295063966,510.14453029090134L781.0658422706141,510.36079301025643L781.2889556135787,510.55402826082593L782.0371890191223,511.90283375587615L782.2775450315364,512.336041625617L782.3407739826666,512.7079264560111L782.4302900052983,513.2343878515439L782.5340536378644,513.8445947306908L782.5549460903678,513.9674516286364L782.6270033590899,514.3911645006974L782.7817361671025,515.4398634945937L782.8400183985899,515.8348325679096L782.9418504900285,516.4076300645434L783.2209892693345,516.7564846246363L783.4120790513279,517.4191426686529L783.5787386664971,517.997027441542L783.579283448428,519.7168773664183L783.57941658659,520.1431679904671L783.3509685999977,520.673488892634L783.1107372841931,521.2311071030226L783.1605284037116,522.1817426417936L783.1929816680359,522.8013173548361L783.1949082560034,522.8380974556792L783.700507209941,524.5116240979175L783.7157959830699,524.5350871144551L783.7243551600384,524.5482224647285L784.0177982352312,524.9985347401106L785.6753728567508,525.9598056979887L787.7041594457751,526.4517696502551L788.5563403208021,527.9154746862257L789.2977820710564,530.0983334874959L789.2707974236914,530.2614423120444L789.2582337339943,530.3373818997404L789.2415629122901,530.4381448526487L787.8732062369395,531.7346427489196L786.6239340475628,532.569871309915L786.5085964432571,533.5543797644758L786.4038524237485,534.4482986365672L786.6224322215788,534.9854404306827L787.6625186848134,535.9227791497076L788.5354778579933,536.3339883153758L788.550721782684,536.6421682482954L788.0456526221535,536.8289752090848L787.2676787432943,536.7690940768564L786.9408480131497,536.8845246862818L786.0899761562189,536.6602067255343L785.6683321180888,537.0904591626205L785.5154627683366,537.5229492222428L785.2712953376271,538.213664398082L785.6761359188347,538.9457130487364L786.836375112254,538.8354377980847L787.770630061112,538.9711306538196L788.0959009828111,539.3933622074453L787.7183105210681,540.0260377271012L787.2288910206364,540.1880569127451L786.7206181022669,540.0960380444578L786.0869816900304,540.2880505800441L785.7407213201061,541.0660824336102L785.946311307232,541.5775631263066L786.2823536577414,541.9528155170061L786.2569793941517,542.3387598657022L785.7270280493842,543.1768114389739L783.5831460101906,545.2818568623372L782.8246095886655,546.0263689819343L782.287601110943,547.7383014118955L782.5062489977452,549.386058035905L783.4243654078066,550.620296606083L785.5179553435966,551.091333779512L791.2750047366615,553.3692636509838L794.1792615100271,554.5168104096949L795.0153571790336,554.976848130713L796.9365639642745,557.4873751734314L798.9662808191101,559.0897318704946L800.1819429539117,559.6866332348712L801.9267310364091,561.2022440108337L802.2992051258859,561.6772838488582L802.4710667439626,562.0487017823484L802.4497522599727,562.3440299589873L802.4437801650313,562.4267743955229L802.2540503338942,562.7160817769694L801.2677852644797,563.0319171388611L800.7179539112365,563.2859754332426L800.5742727190668,563.7621227799256L800.3223081589513,564.2442595923602L799.8058056187966,564.6174612620248L799.3274802032779,564.7760813367389L798.1064990410011,564.6737766320614L797.1379119110547,564.3525334850411L796.9070422061932,564.5642419374175L796.9845991208249,565.3877959013844L797.1768735182432,565.6005607775694L797.6344546447395,565.6849059610289L798.1436308598396,565.2897411935994L798.7041396690961,565.4305916753841L798.9178776127037,565.7820312090104L798.3566883757014,567.1547081309508L797.6500410481719,567.6958371648345L797.3278161287233,568.1446315917423L797.2656612869549,568.3255683522231L797.1894031859599,568.5475524932441L797.3230685099642,569.5391342887178L796.9231211170103,570.1897071780761L796.4628357937138,570.5434443804651L796.1481781868991,570.7131118542932L794.6062787420935,570.9825719092138L792.8983699880418,570.9264786982676L791.7448088003686,571.0952490770354L791.2262139460825,571.0879425194671L790.884885983405,571.0831184898078L789.8664205954892,570.8568723970158L789.0821453889944,571.1011250343605L788.006963034185,572.2711741238256L787.770234955376,572.7765679053732L787.7848182487826,573.2343177912345L788.3197234491913,573.6157176052366L788.7540912444003,574.0202333080242L789.1420809184751,574.0279496466687L789.6247278590843,573.8329855235554L790.0457482647286,573.8194846287761L790.682942025162,574.2375343875048L790.8654371728685,574.6697929003645L790.9586215923067,574.945934157051L790.4925521003809,575.6578880461021L790.1296500381153,575.908643144665L788.9826582036208,576.4235956229404L785.2849386340151,577.8761742349391L783.1801823704707,578.5300853497597L782.7279869010908,578.825237362856L782.4336369127041,579.1096536356993L782.1807837499412,579.5619552498783L780.2362961157843,581.7705123069949L779.6307600585883,582.6616574244554L779.0481425685892,583.7518043380699L777.1690003935739,586.3193089459039L776.7964318992642,586.6746196162701L774.9976008112545,587.9287622983129L774.6055308917355,588.3300597956102L774.4606178676943,588.6492619606774L774.5653955833409,589.2068766433368L774.9909377630491,590.0950517334304L775.7584215362945,592.360942096184L776.008874578254,593.5470947259279L776.7974978594282,595.9801641330146L777.2474567687523,596.9493640910782L777.2660928964103,597.5558948113257L777.1669868426726,598.053769300552L776.6039731441961,598.5459412174775L776.266047754497,598.9398485668952L775.8678295126747,600.1817253589402L775.9330644462593,600.5351873302689L776.185590517247,601.0155759852998L776.1831186523502,601.4594928773018L775.9007206148369,602.4515968554144L775.7855300377394,603.1134464751428L775.8634535327565,603.4502115253797L775.8534295241304,604.2285811691065L775.5274085070349,605.7346958783274L775.6802328495655,606.3086478694677L776.1553107401733,606.9278318568008L776.2495594223764,607.277325887113L776.2983182563624,607.6988543150171L776.1702614068129,608.1962404407271L776.0175893586058,608.6802206670274L776.0744826674372,609.3735217410713L776.2564397268118,609.5920585432825L776.3414050163664,609.7019752389101L776.5097612410947,609.9197643417449L776.6134656159377,610.1846005709705L776.6439365270328,610.3950061055622L776.6294232210647,610.7055778506328L776.5580881407456,610.8901689672916L776.3921658818275,611.5448591575673L776.5771221385286,612.3185567156609L776.3811011833677,612.881003347574L775.0064762962404,614.235103345382L774.8299732501677,614.5700202554494L774.2957723292027,616.4091207983852L774.293327612709,616.7086277749372L774.2850118012449,617.7269832019845L773.8760250057027,618.7573487528616L774.065185440697,619.4104392493821L774.6116921214697,620.112585831772L774.7779346380894,620.5667429758479L774.7858228331563,620.8260624874638L774.4873385968735,621.5938674930122L774.0913003340105,621.9453341232293L773.4741755056893,622.26355196643L771.9104087471515,622.6502300932889L771.4974801234534,623.0021135014206L771.3378179733413,623.326405594246L771.3292876393897,623.6062205397527L772.1486270131642,626.0578119937064L772.7647069923805,626.8179085380202L772.772540626374,627.077306052839L771.8072536160989,627.6656311548064L771.5277790577254,627.9536553843569L770.6557977983803,629.397944715595L769.5873363294249,629.9492467961579L769.3731012798438,630.1553886718207L769.2616790250177,630.3984103960747L769.1074874824035,631.4816782852558L768.9288737093036,631.7466898955753L767.811603491519,632.3792079167927L767.148529593547,632.8982874583347L767.2281256135132,633.2954749013522L767.7303130600403,633.6399843471831L768.0525014712739,634.2097837620762L767.5276336917987,635.3841346939671L767.661065324008,635.8796696988065L767.4362160332023,636.305917868021L767.105343557365,636.5954434654337L766.5998140010381,636.7102973881197L765.902530107531,636.6509546218608L763.9036627302801,636.7496353315613L763.7055236546324,636.9352585550927L763.6757114698431,637.075995390563L763.6785185879689,637.0853611042169L763.7885115712616,637.4523329065664L764.1608557259606,638.0009094271004L764.4938579396301,638.6804875321657L764.5759320981281,638.8479690465695L764.744920903947,639.4025268685824L764.7572288685499,639.8218131500341L764.7498129177918,639.8512865817984L764.6964409825898,640.0633996974393L763.9024361524707,641.3454747998796L763.5906855328644,642.8734909218014L763.3298193983177,643.2408671308644L762.8829398475234,643.6336540951258L762.7887373942613,643.8962312077747L762.8863558953371,644.3331070197505L763.2828490574364,645.1208572616748L763.3652370020232,646.1980486380457L763.2733521313526,646.5405526559225L762.7823977514174,647.1745587006693L762.7080323372359,647.5365523061475L763.1789248792595,648.5423686450252L763.760531108843,649.2648844030037L764.1765962961052,650.1323921593751L764.5668799207326,651.6279387493947L764.616741951157,651.8189835833332L764.6091414008906,652.7189893775821L764.4007178515897,653.7248996588621L764.4599278055873,655.2613489531134L764.4715372070766,655.562587484709L764.5950923523728,656.2989174612808L764.4925909324386,656.8616994957573L763.8026043963051,657.6818796765027L763.0447265969914,658.9508602894193L763.0245529517223,658.9846344317368L763.1997967809457,659.2800961494968L763.2927765704603,659.4368538344107L764.9840566011901,660.8675827020929L765.7518209941503,661.5251594530549L765.9493230125215,661.8794251771442L765.8966401076722,662.4010955513286L765.6841504911765,662.8340004726592L765.3187277808197,663.5783938695288L765.7972316270861,664.8047402237801L766.2850193659892,665.7705585631501L767.2229933446304,668.7243114838175L767.1990235329265,669.0652086919486L766.720200809091,670.7203281111343L766.1478612714927,671.5177007788134L766.024135640197,671.941629118004L766.0189686038019,673.5027255742505L766.1809983605249,674.9937975839943L766.3225434993549,676.2961398521253L766.8889349677593,677.020136502289L768.3446107115717,677.8579525613884L768.5759612315479,678.1914321424304L769.166399210025,679.7155066640089L772.1656290127945,683.1298184035904L772.9616279357269,683.5264285525705L773.370124715394,683.6819425626575L773.7020333518874,683.8635825400719L773.9710448679227,684.1240125832425L774.1602235457543,684.444326812769L774.1812042884471,684.5970958901424L774.0932520421794,684.874118292097L773.9049218244351,685.1808095117074L773.8445063347544,685.341673932722L773.4969522244071,686.2669937674334L773.4757926657079,686.6511730803633L773.5171672855959,686.9377372212382L773.6417043240428,687.2790812188643L773.933293429726,687.4823945016977L774.4169831659473,687.688108717175L775.517613875186,689.1169869955297L776.6004491324923,689.9454295029147L777.013663706188,690.116333418577L778.0014921387665,690.6138207032952L778.2432479994543,690.904911388209L778.3716903123914,691.2221086167044L778.3725839137308,691.4346342946565L778.3731565545443,691.5708443610456L778.2506093058136,692.042784398697L777.9147525228018,692.7091799877322L777.9105547310542,693.3197704394892L778.0623665974009,693.5078675709598L778.471799900776,693.6053312657879L778.7093127582514,693.9056012295048L778.6994717600237,694.0816882087798L778.699378025124,694.0833653925325L778.6620301440203,694.7515747376572L778.4182043598396,696.2858843004815L778.4200872067427,697.6284032859853L778.4209149996525,698.2201598700221L778.9671607029909,699.2042399625882L778.9996950695875,699.5246998511801L778.6090493921397,700.3443444236162L778.5815601725383,700.790521908438L779.4883871942558,702.3561415569237L779.6997927673374,703.3556745753091L779.8906932962984,703.8148528462218L780.8101040246727,705.1584907221045L781.3649368863839,705.6934594792108L781.486466227032,705.9441053668427L781.6076720291281,706.6815270420564L781.5409681523399,707.3317562437081L781.3570345628075,707.8494910874456L780.6780833450737,709.1794927403463L780.5123020964825,709.7177486861547L780.6310974069306,710.1674476364689L781.1768362751402,710.7206911991907L781.1199570519456,711.2594457203242L781.0397321566994,711.4826457290923L781.0166806485895,711.546777507444L780.6423885128171,712.0695291743632L780.5572737247248,712.18839591341L779.83176593692,713.647780798624L778.8762061307535,715.7887472666372L778.3813547891774,717.4028620342774L777.7930458744194,718.202103799323L776.8748054137409,721.3871685040247L777.3680569212854,724.3640056153276L777.8444972065786,725.5907343092375L777.9987631877314,726.4502895191536L778.0883682904935,727.1370631138163L778.0882419746646,728.9345880219098L777.9130797770824,729.3397120155848L777.6512733613147,729.6051843155004L777.3342137380502,729.6931091953272L776.9117375320961,729.7950654734911L776.6025311863673,730.1251756122017L776.440819680512,730.8070622195478L776.3172143364623,731.9217628852107L775.8172085662793,732.787775820146L775.7974716128257,733.0412910247493L776.2873083512254,734.5576776194378L776.2704907460812,735.3539539248409L776.1120354418922,735.864656477553L775.825107056354,736.3607867269618L775.534826581021,738.2552023372302L774.8286905301195,740.2976618958189L774.7912090164408,740.387415978834L773.987949816941,742.3105699365227L773.9433495527988,742.6522985970591L773.9533399647629,743.737863152651L774.1088890142903,744.1884759125387L774.2508426458014,744.3406578964541L774.86377040155,744.3222001581511L775.1277031194415,744.5717154849538L775.1548530817469,745.1645873640183L775.1449107090275,745.3002059619877L775.0091236148578,747.1520250129086L774.8952167608106,747.6246837844022L774.6325627120743,748.0238931701485L774.7164532807153,748.3710888862124L775.5808386863066,749.5460898216708L775.7065674120777,751.5719619755989L775.5999550789752,751.9802160692543L775.1267339396265,752.9932505385879L775.0997810886694,753.5056138351208L775.1202194817566,754.4340989376719L774.8181869797445,756.2571149983191L774.2695000738621,757.3463307706089L773.2823424705396,758.4858920438243L773.1612825451953,758.5205352158448L771.3746334056568,759.0316196479944L770.9638012755486,759.3846956057532L770.6643230829485,759.9370456302809L770.679565390486,760.143809065444L771.0346449601101,760.5199629723302L771.156012478524,760.8984409916492L771.1694343068793,761.8005245334974L770.9718023945036,762.5388652032673L771.1562856620047,763.4908136378112L771.2756411561298,763.8004547152165L771.7359265809646,764.4728556392948L772.284508854472,765.769664830937L772.6518099032924,767.0068046861475L772.98297079295,767.8029486046141L773.294484350812,768.4062736629329L773.6382321916095,768.8562283654452L774.0371269586999,770.2262855636866L773.7401178098494,771.4698965793705L773.7901645186594,773.1224920642738L773.6162104450351,773.4364162067898L772.6398889791922,774.5025942330859L772.4223530585862,774.8916315474094L772.2635220806684,776.3155886778243L772.364936535395,777.4756466058247L772.4246451770533,778.1585711941959L772.605691550347,778.3837025127593L772.9610868472682,778.3036893081866L773.3744373233014,778.4755974995476L774.0115795885654,779.3780743408669L774.0398688910119,779.8566303239755L773.7588002206826,782.0867908085061L773.8075298991484,782.3342176861765L775.2324205939226,783.3371158142675L776.7028079097843,783.4261617315765L776.9232511203074,783.4963265261019L777.7079233989219,783.7460337498997L777.9155913573043,783.9333043695947L778.2391352776594,784.3865290261572L779.0752418696851,785.5575686949128L780.1719884855956,786.7687801020778L780.465305194738,787.3589365999796L780.7316170972142,788.416058598149L781.6885498966465,790.5686067268073L781.9151851279446,791.0782941122326L782.2350220356736,791.3359750616025L782.7015252079725,791.4369477806248L783.2527727074078,791.8959262318327L784.4112204723228,792.8602674924675L785.0139661210745,793.21037467616L785.2758080201743,793.5160943037481L785.8027707164154,795.0342180114035L786.3636332522036,795.9040439747557L787.0707499742546,798.2948110643758L786.7265462183452,799.7814341795977L786.7107081888303,800.0487288756113L786.6994323755329,800.2390185725731L788.5926708229597,803.267239301149L789.5661419660348,804.0123034566001L789.7933895869801,804.3789927998641L790.2880955828423,805.969444406305L790.3510745188132,806.52123438888L790.2696300489176,808.6282535587368L791.0700905832534,810.1497134187471L791.191836759031,811.2582933539014L791.9930198801113,812.0786139385167L792.1093346456084,812.3046413150889L792.1055970252382,813.2647620671856L791.8311161322354,814.0865998002555L791.6634237892376,814.9709800016753L787.9342753756913,815.088600026771L787.3468971122718,815.109184051669L786.899169101941,815.1265871356507L786.7183468041237,815.1334354729511L783.1061644008419,815.2578919421981L782.6377844426665,815.2723136024272L782.1662971948432,815.2868086719488L771.8676857082841,815.5828688113309L766.9262479776073,815.7211399834512L765.8464327714805,815.7137058112028L765.8237945521762,815.725246214656L765.4382234965125,815.7362486816232L759.9990721584022,815.8892194435946L756.9882960026846,815.9726165348955L755.3068370252576,816.0187958294899L750.6569819128472,816.145019809134L750.0459712006399,816.1614447096749L738.0885528329134,816.6999817432859L735.3318413656718,816.8220971013303L735.308182434025,816.8231418223606L726.2171116662228,817.2204122381588L721.7662448726871,817.4118780673294L707.8316938027544,817.9984217490377L707.0810132969308,818.0294654408378L706.1588559269495,818.0675228071884L706.1105413550206,818.0695143876198L692.0912596696087,818.4896992523467L691.4355357790148,818.5088691189345L691.4165018848065,818.5094249231934L683.1241620682886,818.7481052847141L680.5662218305845,818.8203368531217L679.5396180261171,818.8491414207506L672.6334951521877,819.0401623167602L664.1018312642717,819.2695294172772L662.7222880680376,819.305930606067L662.6699598032577,819.3985903839095L658.7443775799203,819.5149937916666L648.6537355216435,819.8071016711809L648.6532978075862,819.807114120413L637.8772393060178,820.1077678094498L630.5746686318107,820.27198489895L630.573924771475,820.2720013537894L625.4248223361485,820.3845725643748L619.9637488596439,820.501054966973L619.7301225415013,820.5059713211131L613.4437302091537,820.5038653048894L610.435192194316,820.5595551017658L609.7877458699045,820.5912250206497L599.3051132531784,820.7697572559757L596.572208252178,820.7500920402333L591.3649504419368,820.7105472007634L590.3126818666527,820.7178167034637L589.2374619248834,820.7115347151496L588.3686959410732,820.6796447649679L587.1571197491297,820.6843293421186L578.3339710338705,820.7140015210985L575.2070163707746,820.8497226313566L572.6605971529332,820.8796773659972L569.6115741465284,820.9146882648606L569.57416240261,820.9151120563865L569.542870157066,820.9154664197599L568.2975861286974,820.9051912239063L566.8917224384795,820.8934039969812L566.1102886993633,820.8940456870318L563.7916059664249,820.8955890364268L561.8060525250787,820.8964818200545L559.3080187132656,820.8970430409161L559.0102755016628,820.8970681645333L556.4754828067674,820.8969217818583L555.7219710373269,820.8985303405055L554.8109995031267,820.9063620658574L552.3762469908924,820.9842976686525L552.3760743989362,820.9843031721375L551.8079100800848,820.9904430117606L549.5673260156345,821.0319706600562L540.9685832574166,821.1435412913102L540.3439984760357,821.1058754059463L533.1550225555211,821.2821199627367L530.9295015957238,821.222058149345L529.7031094938384,821.3203877795625L525.8075829003238,821.1339416879155L522.1889325022383,820.9593780765206L521.472336380285,820.9856263360986L511.08151927563097,821.0991924208364L504.70435473415597,821.1635249994947L502.3379797551151,821.1694057455741L500.6230107028892,821.1618418586518L497.5232950563351,821.1474216553504L494.220777444236,820.7169531386951L493.8902354887984,820.7155303754338L493.700494186371,820.7446748254798L490.7910508948082,820.8398147467515L483.80491428453587,820.7097466237674L483.7659641670748,820.7090077114665L476.06739330933664,820.6266498620998L475.81923244990116,820.6312768432106L468.7293333306251,820.5775041338993L466.1137187769476,820.5860755584515L462.9840489156169,820.5707248906837L459.26217697507496,820.5511898881349L447.05912071423415,820.3301576835911L446.04376816578946,820.1951774420086L442.6222672947605,820.1949341026343L442.1154704440038,820.1947981566038L440.5166400136379,820.1704626566401L439.8911816128324,820.118642773381L437.51675452549466,820.2029812022329L435.7336498543271,820.1838090769756L434.94443708167375,820.1902418062828L434.5369115906343,820.1858579494365L433.6536500307493,820.1762992564666L430.061265965212,820.1366153743159L426.92519849985496,820.1009132255754L426.2690189900906,820.0933181432669L425.21569466050823,820.2138972071878L422.490471462582,820.0525082291255L420.7919364639188,820.086441586551L418.71524483697044,820.1275360961097L418.63418319062373,820.1299380973062L418.46138170206916,820.1350563092917L416.6104242781315,820.18969163727L407.98347461007523,820.439794163862L407.15509027887236,820.49202025819L405.7479446574248,820.5805759595323L405.63894690639546,820.5658809906492L405.3537452806254,820.527424594133L403.7542216804086,820.3115904880813L402.76405634521274,820.1778488518182L402.6582707784659,820.190969718227L402.4147524189184,820.1936013483568L402.2494235467345,820.1784742379397L401.9507153423013,820.1945859246875L401.803795160786,820.1888560870824L400.9363370181678,820.1678346531307L400.7774228432668,820.1660132178503L399.0869441142766,820.14648045619L396.9058449205282,820.1208549703028L396.544947998748,820.1165656217713L395.38357170433807,820.0967016146982L394.71947704674903,820.0852821809628L394.2937572185821,820.1307478513482L392.886281127424,820.069918535419L389.1232533805586,820.0705774349337L386.7222064327857,820.0529189765184L385.3789414226317,820.0427875531624L383.96001623768973,820.034902558247L383.93613953409493,820.0347681462022L383.27473647796506,820.0137120715717L373.27062240947845,819.9560721252102L372.14533996815663,819.9212132928263L369.1203298069594,819.8756602027793L368.1026672396473,819.8554023690192L367.59289996009403,819.8361580420667L367.0779161248671,819.8676013606573L367.05287565077305,819.867528524858L366.18183867112424,819.8625813711722L366.172859437277,819.8624822071195L364.286973829898,819.8349638133782L364.1306840329045,819.8326672492008L363.9584888188767,819.8339522701158L363.86525462078043,819.8318940543954L363.25547156143733,819.8361556334198L362.45260133450074,819.841709717648L360.7335022265415,819.8533844974685L357.87764748035806,819.8721235459877L357.08157283712694,819.8772011917129L352.07083322048805,819.7473264382975L348.14441779932895,819.7091150139595L343.3694110696498,819.7298038547951L343.3693426574706,819.7303140177967L343.3226171591484,820.0787466235688L343.72395656524304,821.7185700233565L344.2861537823037,822.6632118167995L344.4028313737846,823.232808737883L344.13894565017233,823.7468031555027L344.1447984757392,823.9961581864892L344.31979265617815,824.6774039497421L344.67815395172136,825.3979705172914L344.9639175890874,826.3993468041666L344.4338070610155,829.0069238465917L343.57037550793035,831.0840244084711L343.3205207975653,831.5520165219934L342.90236289163977,831.8929764354172L342.5502476070456,832.4521359758764L341.63720130512934,834.4130305593815L341.55216202415784,834.9340886616944L341.2026252760024,835.9923659004359L340.91206070691925,836.4092496353996L340.48705224493676,837.6143665540623L340.34686501577215,838.4816009174781L340.1555161838693,839.0382082179799L339.3350522455172,839.5357988790099L339.07366219049675,839.8189894836448L339.0083743665135,840.5901180219163L339.2743162449516,841.3515057658249L339.2907845142295,841.8416420771007L339.06452907941446,842.2592745895604L338.65792590907233,842.3972887443746L337.7704334768164,843.3090273898774L337.6713811756565,843.7976110408945L336.7980233232594,846.1207602625022L336.78116980153817,846.1655823930128L337.9238643224547,847.3425085923029L338.2647407728979,847.9532863967291L338.4038654588363,848.5144790062154L338.2035309200742,849.0110743041154L338.0495446186783,849.7996770825192L338.2616036468914,850.0986116228189L338.59509443554737,850.2608004189632L339.7678019039679,851.3584449808784L340.09021439533046,852.0331932339693L339.98746253374395,852.503591840612L340.83781590933927,852.9310645955626L341.7361459676987,853.2111951589222L342.1110855599321,853.7570801354027L342.43780315127856,854.4645792842464L342.6238534412448,855.3778888182385L343.6866070880786,856.1273077404162L344.7952718256515,856.534924915811L345.82838274170274,857.0801045457229L346.68736627771347,857.9471020921749L347.5005867467007,859.4979817942755L348.1734918428475,859.7981207592957L348.84769533648944,860.3804508781623L349.55545773470345,861.1945298674461L349.65209043127334,861.5613628504436L350.4492686076844,862.2420952136392L350.7755100036134,862.2833428160202L350.9303630970818,862.4239844704862L352.12646733076326,863.9709181863965L352.0595306971442,864.8910050669556L351.91622485396647,865.3102233659572L352.5814638829542,866.2303631066956L353.46689962407663,867.245691179219L353.5606974759951,867.4784670886165L353.73725354412005,868.8181287402547L353.7337751090412,869.8248510691444L354.1969215746238,871.1000957442698L355.74536502123794,872.1657344544701L357.79683491345963,873.1539291186947L358.92133664446334,874.626037980304L359.40260473450314,875.5857810256714L360.06573246770625,875.8301670707128L360.23300698634597,875.891805287831L360.3625661741533,875.846841473173L362.04893651585206,876.2405741973562L363.05349649709996,876.6544223810268L363.29411409000835,876.9719029583025L363.33104284169553,877.3935589146549L364.21127400055093,878.6720682265602L364.9086902153881,878.9435233423707L365.3661611232628,879.675589841911L365.603820558071,879.8495645124533L367.22782903707855,880.5291340329818L368.19588572682744,880.0857961497966L368.5486856730491,880.2700384156046L369.5438883653791,881.1513984450044L369.76561495645126,881.5427484121404L370.1398419442155,881.9393321466L370.1893681182244,881.9918142281263L370.844570653659,882.3647003845529L371.8261038031012,882.3796324104832L372.76887913795974,883.4546208390813L373.69262886410837,884.1498340503272L374.868396896382,884.5510516403833L375.86728206937266,885.145197832373L375.93396516798975,885.3774832051392L375.8326464615412,885.825764303168L376.03840804485105,886.8748065754345L376.9176685861976,888.7973730206105L377.0099598938169,888.784339768763L377.51109247086947,889.3686431670066L377.692007804877,890.1582153405761L377.51206384420743,890.6288900620664L377.7201555050142,891.4697243990676L378.10347949965774,894.119655883129L378.0974616242779,894.2368503173409L378.06327482969425,894.9025839697458L377.9371954679105,895.2681487239264L377.72827465615626,895.6341178382202L377.5829055786653,896.7727847568318L377.5812635774819,896.9396025507497L377.81887928148893,897.1459834013497L377.82234881183274,897.27119560441L377.41216915978566,898.5923964734063L377.0644591350893,899.2193547386732L376.72992563614133,899.4615682429618L376.1327824684779,899.6594910139041L375.78443288860876,900.3560091030472L375.3722879980573,903.6341733522814L374.7017516105441,905.617885241262L374.68481253868794,905.6679896417486L374.6584837302503,905.7458673317076L374.345277700785,905.69636095791L374.0387556494037,905.8971726041834L373.66924117051377,906.3799690405641L373.64054927804506,906.4771930057019L373.90940411427,906.795154605355L373.95659155795147,907.1389789559428L373.60122082285767,908.03956050362L373.20194608475026,908.2719973040363L372.94311279877866,908.3156704677276L372.87591000496946,908.1247822279759L372.7789714013781,908.1144754606246L372.3101281963772,908.3831879385091L371.97470052066586,909.5763688551804L371.34792694317446,910.3582055037742L370.73281269851566,910.4861216705367L370.64871790287555,910.5781200021734L368.65863449494174,915.0239618633982L368.6679835632444,916.0045230581397L368.67168634691285,916.3928062396403L368.9186463422337,917.4810458979698L368.87506110364114,917.675519523176L368.6445175047824,917.7562501914852L368.501928049869,917.9450072628715L368.4171922729249,918.0890402504065L368.42797989870206,918.383700833487L368.9426371071291,918.9892487672878L369.2016509506468,919.136154033258L369.8169994265195,919.1696212224905L370.0620574168241,919.4337766957574L371.2785351098795,921.3824625270366L371.37326425698893,922.3348648350661L370.94140814899686,923.585735528023L370.623100439184,924.1949059546994L370.47838443238675,924.4718388324818L370.6326605828947,924.7367104963123L371.1704268151943,925.04610280869L371.34260389328983,925.2706568526776L371.5044431593597,926.4874118523023L372.27934270120454,927.5080713836128L374.0777068857972,929.2075619658535L375.26299075373095,929.4018344679182L375.81456128768104,930.1160795668329L376.64878718818466,930.5092350273281L377.17178397652185,930.5954275979909L378.02947864123206,930.40129243624L379.9122121539966,930.7233516752017L380.41810110029485,930.9110629035924L381.7233179614732,931.3952245076482L382.0836725269962,931.8511383993452L382.379836735204,932.6947839732447L382.43336524031986,933.4715690107726L382.2510999007004,933.8889143423239L382.1477786694589,934.1254831005733L381.6220739903412,934.7115116640957L379.70215898330304,936.2316256325378L379.30157757172094,936.4854679709983L378.9462515789613,936.7106112019354L377.315702315078,937.2822940196858L376.76907248338324,937.7832600348252L376.23726640333456,938.5277200033838L375.93778645001225,938.7679002196694L374.9913235771631,939.0421079017192L374.2403241749305,938.993988789659L373.1943419015576,938.740155578083L372.58253839395496,938.7541300547106L371.9690517807259,938.9301613373189L371.3690392319881,939.4710564462281L371.1729306767488,939.8040356500971L371.1719747972794,939.8056586199211L370.9775802619149,940.1357074668774L370.5285241447756,941.2861476584947L370.00074227576073,941.6048502128589L369.3969797458759,942.4902086871575L369.30332736235727,943.0769824544589L369.3516799045634,943.4625958133227L369.72641842985666,944.3989471650737L369.7236281529508,944.6624227609168L369.1640473865725,945.5674246591063L367.88254763873294,946.7507204456838L367.4733098703267,947.3950145250558L367.381038603622,947.8400170065245L367.35323749426624,948.7925681247432L367.50020259167707,951.6402057385651L367.26519924778387,952.0762543210099L365.9005726297908,953.6428647745593L365.370435088957,954.1034561085723L365.03635145253975,954.2417256786034L364.61684366807435,954.3231954549851L363.15923775778606,954.6061235253578L360.3053023233604,954.67505429897L360.27662681964216,954.6826680052866L358.8828906616659,955.0526134396464L358.4255441838983,955.3620245025232L358.04489147315456,956.0402216356003L357.8164137530057,956.9792225886895L357.82396428273023,957.853215637941L357.8284996662677,958.3780814207511L358.0125188531664,959.1102677476521L358.3413992504356,959.4386777103215L358.42484558605275,959.4679066962057L359.71947189418023,959.9212742089946L361.6802344233731,959.9843442773954L361.99819447894754,959.7445360129748L363.0531616468147,959.37124332801L364.31473174865454,959.3244929106456L364.8211721143248,959.4518170642415L365.311902394173,959.4166663935227L365.9083558007486,959.3217976232268L366.6129477927276,958.944093761824L367.577926682026,958.7719992416917L367.1512737703715,960.978240682281L358.7857916688107,963.3794912428036L357.82045386138356,963.530497029222L355.55296384780644,964.1528349819833L355.5533501405086,964.3489857420535L355.5538944924644,964.6253368903017L355.55434914627745,964.8560985116492L354.52438397680226,965.1052477966587L351.05536176179316,965.9435631488282L350.1911033677002,966.1698045480475L348.4633573759203,966.6218401838186L347.3467483315354,966.5177204240583L345.76203744822226,966.672846648195L344.4808621810911,966.9855181954117L344.3321547434731,967.0279704074298L341.14563574407845,967.9370483976211L334.4896102888663,969.8322859447404L334.47102929907027,969.8375697877846L331.18941544970914,970.7701532528887L325.53194129707435,971.4378188177018L321.43101025852525,971.9197609892344L321.0337428181641,971.9663573732092L318.1374769277252,972.3055835046155L317.37507330392134,972.3947389549668L317.2093151154229,972.4254084605361L305.93513007602405,974.5046887962947L300.5066271437936,974.7725594050899L299.2809454932345,974.8326347178984L283.92164764575585,973.9040168082421L277.58230779784776,973.9538198552074L271.34287948964584,974.5486375354725L270.98413298937055,974.5827184881432L270.94865385897924,974.5860883053333L268.552405393089,974.9964628893335L267.19144895670286,975L266.0855158962976,974.9138550251573L265.9405433014079,974.2777662029152L266.7605337553549,973.5584593963256L268.91826548849014,973.1852612690406L276.80124836607627,972.700799141208L280.01676415778104,968.5121156915717L282.3033497084981,967.5608645355335L285.3901510453802,969.276215649455L286.1552789195431,970.4011753613349L288.4630959484391,971.7245030825511L289.35302394050893,972.0689262549913L289.7270521625841,972.2136552914403L290.07727316858063,972.2390832822707L292.15421702531853,972.3896289148777L295.53674961101234,972.1059591560172L296.7448756792594,971.6680679726408L297.0405278940793,971.5608809461078L302.0927750471218,969.7276102356481L303.00892613683266,969.3948480528225L305.7487112120582,969.6928573165742L308.26566775437186,969.4936048868349L308.49068516864514,969.3898681439846L309.57051382005045,968.8919569968017L311.11131454263807,968.1812261199373L311.7539834168051,967.8846878915783L312.30625980539173,967.1240497604094L312.55611558239127,966.7798909991336L313.22009720322524,965.8651882587235L313.2620792674536,965.8073480558471L313.3135894050274,965.7363797718058L313.6641533751622,965.0613194724868L313.97002916499457,964.4722482801984L314.03523089582745,964.346671715198L314.03540324951564,963.966955362976L314.0355242779558,963.7006768600552L314.0360092775401,962.6365891440616L314.0362613702763,962.0853646364418L311.08460568542944,957.8818159162635L306.9327434134919,955.2779904468227L304.7657438062557,953.5165545685506L301.23287383053577,949.1755042938801L300.9168321534884,948.5509898801361L300.44472852403607,947.6179589022421L299.95460030929064,946.2467369537993L299.91750178137795,945.7587114811851L299.9896259234044,945.5057504846563L300.04430060348886,944.8409536044016L300.03070321365794,944.7572222438366L300.0030989307995,944.5872342702738L299.6144649320415,944.3993870286893L298.8744340234791,944.1954015297114L297.90953081163116,944.1986088824463L297.13686513537425,944.1013576644694L295.1949845274712,943.0593043126645L288.0691516719978,937.6728885267154L287.6394776777571,936.6799417766174L287.46638455469235,935.2636167511016L286.84798313027545,930.2007860430715L286.2852260671799,927.2040659511299L285.91282572493424,925.220188442611L285.70752793901056,924.5675842917693L285.04416004037034,923.8287183950722L283.8616890617199,922.9523163354258L283.00569650232967,922.6412228614729L283.531770014352,921.9751662732277L283.57310770099787,921.9228250830445L283.5875456398617,921.9045438349999L284.8732904885758,919.9191826498676L285.1113158707298,918.8871181355596L285.1322534115239,918.7963267322023L285.16595971493507,918.6501636567224L285.5691060179213,917.8127237493521L285.7672671242139,917.4010481001715L285.7748937554247,917.3228413072L285.78660022371764,917.2027965764169L285.8090643379834,916.9724317372193L285.97514580007794,916.667044089055L286.8040818873008,915.7460069305677L287.6741464202375,914.0759248969225L288.11243926741054,913.098825182811L288.72909668898103,911.7238241375828L288.9081823083778,911.0208979163003L289.3254700018656,909.3827245722844L289.4122019544885,909.0421854488952L289.3533787312824,908.556541198367L289.3102938899388,908.2008073608054L289.3035624073355,908.1452263189836L289.2476243688644,907.683332226262L289.0614456522741,906.1457459962485L289.0411893375889,905.9784316316969L289.01527078132824,905.9177904706852L288.419778198575,904.5243513417008L287.8152804725754,903.8762871178369L287.6195026788971,903.2115703632475L287.23819915595936,901.9167333497387L287.7742798281196,895.8784024694692L287.53905670605184,895.0045422725443L286.8982854583446,894.1738165711681L286.26707622108705,893.6061511099433L286.2959239713096,893.103370154208L286.5235802696003,892.9791896476834L286.78030444546147,892.8391443887331L286.6658873373569,891.7594010137229L286.55687690465857,891.6237820485036L285.76203705428725,890.6348073122006L285.66668747760264,889.1455030521661L284.8957547998912,888.8382522683855L284.6911657334797,888.3586241182193L284.5872155218401,888.0194143943063L283.72778596298565,887.382280011077L280.38314853948356,887.0283332752857L279.61087252670995,886.4385815359082L277.82911216030516,885.0775038152892L275.3184560706974,883.1586095547955L275.21906637708355,883.1438898855258L275.14560366368187,883.1330093618188L274.44855459925407,883.0297420996095L273.2305562425988,882.6537443836626L271.8168702846564,882.2171252401438L271.6293108285199,882.1591800573365L271.28682368079194,881.8793135507774L270.85760810650436,881.5285427164895L269.30778332648276,883.4086984654043L268.983616957815,884.825250110335L268.5686211822705,886.5590182069843L268.20533580350696,886.843807178421L267.65908962710483,886.7354049025258L266.6982394854469,887.7919032536688L266.0096368627917,888.9535633391451L264.9213104425555,888.522446216265L263.9058163398439,889.0726943877985L263.70171718109975,889.1832681289076L262.581393713265,889.3581866140437L261.91031345134434,889.7385341827141L262.277531704024,890.4314415247436L262.90396408528284,890.9808526365252L263.1172324411466,891.751172630119L262.43757767177567,892.5024994457383L262.11220264349686,893.1853494650773L262.20083136844755,894.6981686488919L263.1466806615723,896.0531949610879L262.2747919937015,896.8597364557081L262.2490222330166,896.8835721705391L262.22145313926086,897.7588209489796L261.95691306159415,898.7585862634721L261.8244428607037,899.2591698719712L261.14519570260205,900.9054962268237L259.36332266176373,902.7688901868014L258.36757240319935,903.584653206245L257.9076047268812,903.9614123381286L257.4560586686223,904.5438266187207L257.1503758738502,905.4408381117587L257.14697382868553,905.4508205509851L257.12340869819184,905.5199660311141L257.078152812565,905.652755075391L257.44966897952423,905.8907463929695L257.4812649228232,906.0718722699817L257.53710230992135,906.391950303873L258.0501814026071,909.3322763108083L257.76792067131265,912.8893619247744L256.53337672284965,913.7759422109209L256.36095958912097,913.8997411067121L254.5317736759726,916.6573892338236L253.9875640215958,918.4366551556608L253.99657016813526,918.5794042555245L254.08831245756693,920.0333113457707L254.51371889305736,921.9958660658287L255.05788130358815,924.5053459625583L254.35452096563654,926.4815431521723L253.30576366989254,928.1765400020288L253.31335506907195,928.3076170371995L253.60478794714825,933.3370821500966L252.81997480551902,943.4647439773657L251.3001428787595,947.6230082215197L249.6266244473369,950.616556174087L249.01040552012557,951.234204555499L248.40768593499402,952.0717955153278L247.8389584833789,953.3665307199271L247.3127729016897,954.9401904113763L247.05947500447024,956.491659167642L247.04681825233152,956.5691741966061L246.9649891164498,956.4892395048073L246.8069736575155,956.334877671449L245.77899240375703,954.2996835130477L244.10736500436064,953.4192696217356L240.64910879229794,953.9526933908182L237.7997702711761,955.3371919154517L237.0987696803284,954.4604521924434L237.1292093494828,953.9384349500975L237.54884360877023,953.4982876521599L237.42705291610451,952.5954108575532L237.13441931274943,952.1351355590643L237.01074027131634,951.1742613713823L236.71162231904358,950.8860397640419L237.08587647884627,949.9281436846529L238.4609970555477,949.6632265831472L238.4765841012525,949.0407975398322L238.73368531029143,948.1359300982563L238.6033777395906,947.4074948086254L238.64485331445852,946.8739530963906L238.79522380943,946.0927807264829L238.32567707881708,946.0302484258617L237.65129915168694,945.9403982058685L237.19728452266324,945.8965662155701L236.52733827553138,946.104069700522L235.7513782296265,946.1415089351615L234.91310775932922,946.5442080850265L234.0936200227113,945.4009709057455L233.68588881460028,944.9773098902692L232.29229791135256,944.1917820676231L231.18373232321073,944.100352361357L230.55831166390044,944.0668436869792L229.81861136556415,943.6858208520766L229.61418720006557,943.3981794979768L229.4265064644956,943.3142266605277L226.02671102231986,941.7926502497482L225.15642047876887,942.0320743822422L224.8253345163974,942.0254224816658L224.25579674556238,941.9377742666605L224.08409588450428,941.9093377415318L223.4521583252137,941.8046520748326L222.19454201791848,941.5961946308281L221.37018896865914,941.2963720209912L221.261381917699,940.6700249590533L220.5343713891456,940.6515592224266L220.45843610995445,940.6696802507956L219.19628099736735,940.9707868777336L218.51943053515822,942.242040386346L218.52944373251728,943.4687150770314L218.2705678463405,943.8363629949151L217.08046880416515,944.0344723394428L216.54671635813105,943.7711056529797L216.98903420986625,942.7432114442167L216.57342342653595,941.1320622974627L216.56938303133893,939.6772092129675L215.5350320747254,938.6946464911082L214.6705339557751,938.3813027067679L213.67103322015214,937.6695005256264L212.63117965169192,936.91521167677L211.63254685379002,937.7615786042638L210.53595971595468,936.7976078501645L209.27291649066,936.6394804520552L208.85250237514708,937.6048959740306L207.99790008872094,940.1874128306251L206.12391503354604,940.6233810069211L202.47796551984766,943.8058715312274L202.1720621777526,925.8012884852689L202.12281793946028,922.8923310310519L202.1171747176109,922.5587854571219L202.1170969010479,922.5541857972056L202.0129067094524,916.3889539203891L201.9917583645692,915.1359181645468L201.89453321111375,910.6288950737168L201.8843943468783,908.5518974198051L201.88002473163624,908.2429969932389L201.87952196345498,908.2074525045914L201.87068832393476,907.4126561774561L201.84611784416387,905.2004408132193L201.779138184393,899.1585225983868L201.70538128544467,892.4858720848902L201.7585937640198,890.6838504615587L201.68303427582612,889.6165006481374L201.6823237049872,889.6064620795146L201.5974130918691,883.1820309046532L201.49878505271136,875.5785520395214L201.498873713879,874.2403263320562L201.48120356103743,870.7160404178951L201.47824936414514,870.437944327801L201.46813388407293,869.6645343993014L201.3362538137144,859.5585118081085L201.1520235561797,845.3693977356024L201.14502072482748,844.8283892116489L201.13269507950866,843.8758653357546L201.12420134731872,843.2192498848656L201.01104331892765,841.4692068125132L200.86286018228253,831.4034551680437L200.6464795799725,816.6341521533946L200.64093773991357,816.2547681719908L200.63271187181738,816.065116403616L200.6326847645699,816.0637092751856L200.30673010913392,799.0955112137796L200.19504252869274,793.2591354672269L200.09582232487543,787.5216651049298L199.7933633504225,769.9588965939374L199.7816503725573,769.7188984554373L199.73710256661946,766.5724195221799L199.80366994896576,765.4167431788426L199.7734131110003,764.2129711015457L199.72800449001204,762.405582671649L199.67273858411448,760.2045481952732L199.39489834867584,749.1174987684219L199.36667500252616,747.9892270807754L199.28361552213556,744.6666072029216L199.27962820569797,744.6436017099891L199.04854877014037,731.603850794683L199.05518274662302,731.5259644884818L198.98133727177446,728.6035672399519L198.98130715953243,728.6023750473171L198.8616356482055,723.8610581266357L198.8951573571822,719.4316478268524L198.75416438493488,715.6909577454387L198.73607068409075,714.6440072541382L198.71761049079856,713.575440612475L198.53849316693658,703.1856473469143L198.44516400140304,697.7564160986692L198.33491794766456,691.3291678153453L198.30657794262504,690.8576339965508L198.2322723750193,687.9987652454131L197.9690905484993,677.8535437757942L197.92247029089958,676.0532350029773L197.92253386144125,676.0390441430042L197.94440741361757,671.1640632443044L197.7544451855269,659.284824281513L197.7255299439405,657.4718488553274L197.7139553000908,655.5710256028325L197.6907751288162,651.7560436165802L197.65247458747,645.4281731103148L197.63661952734986,645.3405764382636L197.52893325603742,640.5873276660548Z"></path></svg>