<svg width="1000" height="1000"><path class="state" d="M249.46650168641085,961.9577189008658L255.9866534065244,966.9255612440423L258.03392522659277,969.1501710890589L257.84527943318346,969.7507326354701L257.3270900517233,969.9626813716534L251.94449930789395,970.4412279768778L250.08484679096438,969.5774452260534L247.13238642441448,968.8959127392973L241.96725608688115,968.7616698665553L234.59309410324067,969.4899871107073L221.89947352750434,972.1266925833033L217.646686622147,972.4736437997558L216.15878483203397,972.0308498601731L216.75348249126256,971.3949217618585L218.55444547658777,971.7295427326469L221.88063450694167,971.4144826566499L225.83698026979715,970.333740245871L231.78055250633923,969.2695208792688L240.7943391661271,968.0925390145051L243.43003172485805,968.1588860396851L246.44817998339985,967.6943893341884L248.32210950607492,966.2962964512701L249.40916941892053,964.0049387287759ZM292.5202041728587,26.161007544078927L309.5222961034962,26.559331381547906L309.55853993568644,26.55143301721307L310.37216013756915,26.554423097615654L313.4085512326918,26.613536044750617L313.4272718756033,26.607065580299604L313.6700101897227,26.595748971083538L326.1173343131476,26.941410249909097L327.0683013632714,26.98825465238633L328.4533187507813,27.024192398520654L336.30621127497284,27.26558565384147L337.4458890378198,27.310503618614746L337.7287310939255,27.306341550864772L338.3181079524072,27.34144562992617L342.36071165174513,27.461264275560154L343.5186007800751,27.480461311977535L349.73625591659044,27.525918991637297L352.732963393074,27.583386349527018L380.96738512001355,28.07754045175426L382.09146243355417,28.111426278113242L382.75028416160103,28.119965161522998L386.89808126180486,28.217712357388677L388.5265316746362,28.28280356092489L391.9912487232438,28.371874289318214L393.5860438684084,28.417337470898303L401.54695321414306,28.62921247235886L406.1853986991472,28.766968057913118L412.46141140150877,28.987686845086557L413.49354253259463,29.02513642042703L414.66545141654206,29.06766302681126L415.60746295755143,29.09787981515575L447.348082544837,29.999246498377545L449.1242696568763,30.012506391150282L453.1950989286836,30.141433091874205L453.4812957985407,30.12329688738106L453.8593541133923,30.136632006313846L454.3549227718733,30.16614802268691L471.05187850040414,30.664710872214414L473.0168714337706,30.67179259529661L473.54625418747526,30.684382890659492L475.15222894132523,30.703335865437566L475.16240948021317,30.70333696881289L477.65171031678625,30.703274546099465L483.5387405230609,30.669232571152918L483.5419219296575,30.66923006793263L500.4051869801981,30.612620203347376L500.54675861598616,30.61225277124305L500.9231518485871,30.624663226890505L501.48100890412854,30.623366291366438L503.26954278198235,30.65874909657373L506.19614352540543,30.659919978187872L512.7459019617869,30.733715289752524L514.5079665611706,30.735016926624382L517.3308407266412,30.759151266329866L519.7731001369849,30.755865368243178L524.1286028567554,30.79166004635391L533.7821505735019,30.734334097288297L539.1695107993011,30.623330114069972L545.010314880806,30.470564207359985L557.4885540871159,30.47013118390589L558.6795611563617,30.46922758021128L629.840671925512,30.099807640819392L635.4418571709028,30.047768478510193L636.1279350830299,30.040540113890643L671.012497023677,30.052363412965917L672.0654221593986,36.423284254277405L672.1893873872591,37.751668380767455L672.8447353211122,41.73736093654469L672.849846456732,41.768344081924965L675.0263953058275,54.12314613406181L678.9538393104964,75.49252020843846L680.5582363124236,83.58564093708134L680.56348910676,83.62115274318745L682.5721264804198,93.57719418777663L682.5729569183334,93.59314665310006L683.8195166273823,99.72483701668341L683.862909060415,99.9623385038991L685.1089123193381,106.78862389623896L686.9431156812758,115.7306135738745L687.5237550161846,119.11131071865702L687.5637037909032,119.30969339553963L687.5654710862459,119.31686838322406L687.8466550395449,120.45732304812242L688.5194274734077,123.76523657170975L689.5896556997009,128.94602765950083L689.6143628800813,129.05724647669928L695.3947410079049,157.36835245960003L696.934329235243,165.50914808837837L697.5585351802674,168.80638487582644L697.6758395214318,169.5269204116948L698.1706510768955,172.0330209219493L698.2312652904208,172.4547603624842L702.94916808924,196.90471292149965L703.2012445886073,198.99229760234095L704.3903313877449,205.5351288766716L704.6932033367564,207.20039975759977L707.2110789002302,220.84027444553536L707.3563219459633,221.27044154024492L708.677681027361,228.28573261765388L710.9872379734,240.4620583432545L712.6806326504438,249.37633403138526L715.6209346242127,265.411312354836L715.8710746863532,266.5814039326881L716.462974416978,270.0714719943999L720.0808547095628,289.02947943839536L723.0359298610817,304.4741113281849L724.4710399719079,311.9618689325531L724.647958457218,313.07459886506535L724.6651303388408,313.15500381304776L726.4726007982993,322.34045346852236L728.4844281146284,333.07603305712496L739.5145094218653,391.63736442240463L740.3131261249029,395.85778487404815L742.0674505931685,404.79583915936644L742.3362493268767,406.17965103642945L748.7399993589976,438.78489418040857L749.5114728653406,442.5625458931323L749.6126307824036,442.56008404964336L749.491414278692,442.8763961775618L749.526947321307,443.98152055431905L749.6193957215623,444.3822671211439L750.4916867672564,445.5546423477684L750.8692206652654,445.8158962182041L752.0447457335925,446.05918130805173L752.4421093085771,446.0632881327089L752.799687835585,446.1181981636521L753.159304304359,446.238357014151L753.4687681528651,446.523044367961L753.6139131386869,446.81223881756375L753.6762178517986,447.0713467139926L753.7402307941774,447.3957321325564L753.830890980925,447.68649764293866L753.8665567079145,447.97904187358125L753.9005180869578,448.2063125311695L753.8824418273487,448.53287092349007L753.7070623446375,448.83207212022836L753.0500454838294,449.53545162689653L752.4719944823808,450.79425884583986L752.5023295996882,453.61876791480927L752.634427819268,454.1365551971136L753.641004453389,455.5681635555149L755.3991275785222,457.52434251632855L757.552460742231,459.2807766813669L758.335145698966,459.80368776890634L758.5772254008656,460.1050300184272L758.7683001777049,460.4385598467377L758.8068336893473,460.86904353135924L758.714844417537,461.27263908683904L758.6443139030258,461.5213078634226L758.5211307199343,461.74080956775765L758.0978199357298,462.3388788647552L757.8146911374924,463.30311710293665L757.7629165651829,464.1988609085887L757.9282362893052,465.42751150421503L758.2893969709971,466.24971989770955L758.6567640333296,466.57940837472114L758.9551901608759,466.84710274729804L759.800762547555,467.37758118692614L760.3308540322217,467.76309716187103L760.7592105972592,468.21300420908113L761.0024739843515,468.54529001367655L761.0892949446786,468.85106303777815L761.1261415976032,469.22013302014136L761.1415350156796,469.74400842228135L761.1800345390571,470.1748724991039L761.1454369694627,470.76187103509903L760.9817733881437,471.46187109018126L760.7071152740614,472.89784166108655L761.7950389183197,477.5622996042284L762.2157721403491,478.8184407533797L762.578717246432,479.24388081824804L764.0347845708989,479.9541658154252L765.8440962264392,481.863176934516L766.7577375284984,484.2105581313778L766.5613173886572,484.6374258654864L765.7738337913602,485.2939342441904L765.5489747680272,485.78847977473254L765.2507580950867,486.6915684325298L765.2158500996387,487.2411673882523L765.5159387041342,488.12649744012367L766.2958457175275,488.44892905312855L766.8148834132148,488.63650856094637L767.0946432970397,488.8314312210175L767.2900214490086,489.0695379020284L767.3173910809435,489.4142343889874L767.1469502442428,490.00883559984175L766.9183879861617,490.3814435513617L766.9123073146397,490.74759391240417L766.9910766138298,491.0907793815317L767.17737723705,491.5934091957602L767.5117074210478,491.96703291059566L767.8072168493846,492.1041673830436L768.0460652977347,492.40169561351445L768.3282268003503,493.60571502586396L768.3655318044256,494.0126769499474L768.4475673515464,494.90655310305505L769.1502201344008,496.65359136675335L770.7214395405924,499.6061480064907L772.5440016997777,501.19869154823095L776.1920044844097,504.5162736879454L778.4692281923317,506.6372288786416L778.5645531115399,507.2057946141616L778.8995277103922,508.24675844162135L779.679714735446,509.4771884290154L780.0313948498347,509.9268302660333L780.9408054776302,510.14299242435345L781.1638209300513,510.3361408731148L782.1519813963957,512.1173592829144L782.3046398818663,513.0152638301458L782.4293496145007,513.7480685144764L782.5012954673236,514.1715694593969L782.7142235624062,515.6145965484715L782.8160134828236,516.1871396375501L783.0950303448099,516.535838130653L783.4526275963269,517.7758292513139L783.4533163219835,519.9210185641073L782.9848503822371,521.0084778955169L783.0689923636362,522.6147555471919L783.5743758825615,524.2875378163913L783.8915287951734,524.7742310032204L785.5483737057066,525.7350673181396L787.5762636221,526.2268027166797L788.4280743608813,527.6898545836613L789.1691987804861,529.87174203805L789.1130062987213,530.2114030795113L787.7452628316489,531.5073334118872L786.4965486809159,532.3421982414013L786.2765743280638,534.2197941320095L786.4950600255105,534.756696717186L786.9141981987179,535.3848181008304L787.0671991367883,536.2192334734376L786.7099891287178,536.9200496545625L786.5052951145268,537.6460398748567L786.5767517818058,538.3032193430779L786.7232526688047,538.9282059199609L786.8401431298521,539.4823769272798L786.8425294824498,539.494031553509L786.6330149046714,540.0703453255087L786.1647665360562,540.4749527827574L786.0826438020575,541.0772529823333L786.1551682678105,541.7209854141267L786.1298072492475,542.1067588320573L785.6000951342851,542.944441699771L782.6989778678898,545.7927512632742L782.162216273673,547.5039276949508L782.3807757826976,549.150952852006L783.2984916483829,550.3846396159831L785.3911560819176,550.8554571686886L794.0486410329665,554.2793706629732L794.8843685008985,554.7392001502859L796.8047367503111,557.2486044969319L798.8335622700126,558.8502404646755L800.0486886762988,559.4468709660315L801.7927112634343,560.9618009360382L802.1650227211371,561.4366282914627L802.3368100886235,561.8078807101467L802.3095375625505,562.1857858906001L802.1198933245792,562.4749660244853L801.1340670360196,562.7906665072145L800.5844807019719,563.0446150431577L800.4408656606652,563.5205520903038L800.1890152771556,564.0024765094738L799.6727436010264,564.3755154399701L799.1946310164935,564.5340676872468L798.7984023524637,564.7203508284971L798.6846823813321,565.1566874788912L798.7852151866024,565.5395738123011L798.2242817985057,566.9116452273154L797.5179504833507,567.4525380767259L797.1958707095762,567.9011352531242L797.1337700945378,568.0819656297094L797.0575212034878,568.3038782843781L797.1911324204941,569.295019886564L796.7913656679168,569.9453064935668L796.3312861906512,570.2988892933431L796.016768929248,570.4684831955689L794.475554299401,570.7378318067991L792.8494058638009,570.8109659539168L792.0575847078557,570.9761736118672L791.4999947407144,571.0813941675392L791.182832947235,571.3184231329981L790.9104819630736,571.5715241902284L790.6568571190462,571.9462832353775L790.4745131127003,572.248654957119L790.2758393009087,572.4993784249353L790.0902870675928,572.6973060104262L789.9921468095768,572.8575766050708L789.9256946597852,573.0865292621945L789.8881413225374,573.2972310653181L789.9170598924967,573.5735107499075L790.0262898334081,573.9210998151704L790.2609289019538,574.3323770112148L790.2863860096868,574.6631500788505L790.2861316630236,575.1168388128677L790.0009353045266,575.6617428510701L788.8544545210673,576.1764730306377L785.1583814223593,577.6284269789596L783.0545614396617,578.2820591690066L782.6025679266743,578.577082705492L782.3083498771614,578.8613744420629L782.0556111307769,579.3134768930919L780.1119967990126,581.521065130126L779.5067337525638,582.4118184042318L778.924380146733,583.5014851523227L777.0460841724619,586.0678615071729L776.6736826534045,586.4230166247714L774.8756553616739,587.6766127593164L774.4837612994013,588.0777344224255L774.3389141598686,588.3967958590595L774.4436483258362,588.9541628474288L774.8690064975003,589.8419420661933L775.6361618472461,592.1068241408158L775.886510031082,593.2924497342842L776.6747963868411,595.7244366441678L777.1245608866595,596.6932046909542L777.1431918993444,597.2994664821683L777.0441323540683,597.7971208125812L776.4813707521155,598.2890775038865L776.143597183589,598.6828120142754L775.745561883889,599.92414043493L775.810769736426,600.2774454031916L776.0631863716501,600.7576198262117L776.0607179044921,601.2013399739487L775.77845017924,602.1930056868039L775.6633140904729,602.8545625526428L775.74120479404,603.1911779345303L775.7311892652194,603.9692026338282L775.4053205616844,605.4746514794252L775.5580801448177,606.048348285448L776.0329506783609,606.6672553680369L776.1271593994925,607.0165940033983L776.1758988085005,607.437935344504L776.0479012974151,607.9351016781488L775.8952994283545,608.4188681819694L775.952171116543,609.1118616693229L776.1340486607173,609.3303006657211L776.3872595952266,609.6578599012407L776.4909193789506,609.9225782092494L776.5213778758412,610.1328903277937L776.5068726136006,610.4433244935166L776.4355701086281,610.6278341639346L776.2697247874586,611.2822350367439L776.4546030795191,612.055588709632L776.2586719243573,612.6177870653262L774.884663336295,613.9712940168994L774.7082402590527,614.3060633975479L774.1742856527692,616.144351568203L774.1718743144318,616.443724873099L774.1635367314118,617.4616299121205L773.7547365566977,618.4915408965227L773.9438165386944,619.1443409426404L774.4900846346242,619.846173477385L774.6562558240535,620.300128463003L774.6641418683419,620.5593329956056L774.3657939129928,621.3267992359727L773.9699330096701,621.6781121407256L773.3530833604507,621.9961921425225L771.7900117156812,622.3827069964423L771.3772679399182,622.7344365822142L771.2176782394757,623.0585857677906L771.2091531383801,623.3382767354112L772.0281420787344,625.7887773205623L772.64395293764,626.5485337706674L772.6517844456695,626.8078162722167L771.6869283320839,627.3958856206003L771.4075791397516,627.6837836397292L770.5359918634445,629.1274373450447L769.4680068289063,629.6785006176423L769.2538678043804,629.8845522371058L769.1424961964026,630.1274668253551L768.9883786181636,631.2102553790432L768.8098453873139,631.4751504555603L767.6930736588956,632.1073939253677L767.0302963485508,632.6262468374564L767.109859150818,633.023257822438L767.6118258015442,633.3676119651996L767.9338743670947,633.9371571562301L767.4092453197413,635.1109903062516L767.5426203833738,635.6063049830724L767.3178729648154,636.0323653939367L766.9871486440704,636.32176438276L766.481843749177,636.4365700230098L765.7848686038574,636.3772571786606L763.7868876938551,636.4759045261466L763.5888374026196,636.6614465047187L763.5590391619919,636.8021211163922L763.6717912207632,637.178291243389L764.0439731896362,637.7266226863799L764.4588699853291,638.5733047102119L764.6277867693171,639.1276158591322L764.6400914553087,639.546716237044L764.5793317664265,639.788196021964L763.7856855176619,641.0697069942233L763.4740810076767,642.5970474744605L763.2133324037367,642.9642622063024L762.7666529619073,643.3568773963591L762.6724936251042,643.6193386164817L762.7700711271129,644.0560202858923L763.1663926421809,644.8434193159718L763.2487496629833,645.92013282275L763.1569072966499,646.2624855101928L762.6661738135681,646.8962130946293L762.5918432398425,647.2580466404061L763.0625322915546,648.2634147278397L763.6438844883877,648.9856072262443L764.0597697683362,649.852728317926L764.4997290963813,651.5385699106826L764.4921365886111,652.4381768360204L764.283810642409,653.4436423513857L764.3546081523997,655.2805152934852L764.4781123586206,656.0165182657769L764.3756592931055,656.5790513914435L763.6859828385357,657.3988716283678L762.908283014873,658.7010530064947L763.083445533992,658.9964374508231L763.1763900980388,659.1530705794681L764.8669279361675,660.5831565224271L765.6343554493312,661.240437828471L765.8317717692269,661.594545505853L765.7791149246793,662.1159849342534L765.5667464560909,662.5487506374865L765.2014648606824,663.2927644416733L765.6797629905379,664.5185647580615L766.1673395449047,665.483952484775L767.1049131307982,668.4363913432421L767.0809557142429,668.7771375802832L766.6023538175298,670.4315258898071L766.0302721002668,671.228548112251L765.9066035103345,671.6522891968744L765.9014468751518,673.2126937565242L766.2049017320849,676.0048683342642L766.7710459212792,676.7285411448106L768.2260808203553,677.5659782949907L768.4573305318435,677.8993088658375L769.0475147306274,679.4227048042292L772.0454329287502,682.8354876322767L772.8410811021577,683.2319178548116L773.2493976319154,683.387360813381L773.5811601004468,683.5689185574829L773.8500537359071,683.8292317720619L774.0391502287324,684.1494030453963L774.0601224660961,684.3021043018286L773.9722106426907,684.5790043761372L773.7839654925838,684.8855606396855L773.3761823623838,685.9712655859505L773.3550341790099,686.3552747289323L773.3963919498372,686.6417116408396L773.5208755638484,686.9829036971508L773.8123364851213,687.1861253497937L774.2958129045517,687.3917458724235L775.3959632075444,688.8199851074735L776.4783228251274,689.6480547952531L776.8913551377286,689.8188808131644L777.8787483201077,690.316142461439L778.1203985401893,690.6071028692809L778.2487855723105,690.9241588384655L778.2502529773391,691.2727400046724L778.1277624985689,691.7444715008523L777.7920580417839,692.4105734685386L777.7878652846697,693.0208933094864L777.9396108410831,693.2089062812972L778.3488631775465,693.3063246487907L778.5862723228556,693.6064602888275L778.5390150635312,694.452059080969L778.2953053268653,695.9856898575744L778.2980248213116,697.9191080818309L778.844033527816,698.9027491594165L778.8765551402873,699.2230668410149L778.4860868707383,700.0423501524317L778.4586121550417,700.4883300203907L779.3650453830244,702.0532510222354L779.5763624517208,703.0523399169919L779.767180755169,703.511313673035L780.686190958437,704.8543512254797L781.2407806824923,705.3890799824164L781.3622574608469,705.6396141438926L781.4834133753345,706.3767083401651L781.4167424451189,707.0266496864815L781.2328930731333,707.5441560102263L780.5542497045828,708.8735716950946L780.388544734687,709.4115899310003L780.507289729992,709.8610889427175L781.052789586674,710.4140844521773L780.9959383760615,710.9526004760369L780.9156806652579,711.1757582071705L780.8927092424279,711.2398054457157L780.4335092792139,711.8811418553861L779.7083306496318,713.3398836684532L778.7532055133726,715.4799061627508L778.2585819013008,717.0933080779465L777.6705379009169,717.8921986541484L776.7527210017406,721.0758564151067L777.2457693714127,724.0513715328807L777.7220048656584,725.277554023341L777.8762069433665,726.1367274487192L777.965775903541,726.8231961774811L777.9656589963503,728.6199243665255L777.7905765441269,729.024869707883L777.5288875505341,729.2902257043664L777.2119689155702,729.3781132628762L776.7896804948534,729.4800265490921L776.4806129167555,729.8099919815413L776.318976634653,730.4915771968235L776.1954318767637,731.6057844354116L775.6956522312515,732.4714161281734L775.6759253450672,732.7248190696141L776.1655528635822,734.2405310052195L776.148746856381,735.0364544634992L775.990364442315,735.546931481446L775.7035658143918,736.0428433236063L775.4134238596921,737.9364207802759L774.7076114206469,739.9779787320808L773.8672538270282,741.9899989651283L773.8226751098431,742.3315763930302L773.8326667443187,743.4166597405792L773.9881491952295,743.8670719651611L774.1300407006192,744.0191857583541L774.7426966915466,744.0007330106016L775.0065137250048,744.2501363705305L775.0336547397343,744.8427453288699L774.8880002104848,746.8293028416748L774.7741463040715,747.3017527089562L774.5116107500501,747.7007865199182L774.595465943217,748.0478279112373L775.4594743430625,749.2223035494201L775.5851578889481,751.2472771184409L775.4785949353013,751.655350816078L775.0055888167649,752.6679387404474L774.978650579804,753.1800750817791L774.9990847482475,754.1081485440936L774.6971956086932,755.9303581593022L774.1487575696841,757.0190940139632L773.1620434394762,758.1581553382407L771.2551827724681,758.7036509930283L770.844534574509,759.0565725959533L770.5451919962682,759.6086793613772L770.5604286246714,759.8153510732109L770.9153527708822,760.1913364079321L771.0366684664192,760.5696460420186L771.0500890435925,761.471329682552L770.852548572959,762.2093441260691L771.0369550294391,763.1608696667397L771.1562592341191,763.4703728799959L771.616344148055,764.1424733778615L772.1646900268456,765.4387049260818L772.5318347198495,766.6752945291792L772.8628529753516,767.4710838468525L773.1742316031097,768.0741398700249L773.5178294277241,768.5238933479898L773.9165545284322,769.8933412159583L773.6196835013345,771.1364025711474L773.6697166365182,772.7882653129273L773.4958413001518,773.1020512205412L772.51995812486,774.1677617692466L772.3025206496993,774.5566277832784L772.1437674889634,775.9799545986596L772.3048287722254,777.8221194078737L772.48579607301,778.0471499979069L772.8410334306791,777.9671704060952L773.2542015923925,778.1390002487626L773.8910661580414,779.0410737642596L773.9193454151311,779.5194174888057L773.638412943269,781.7485909600638L773.6871223124233,781.9959079164039L775.1113866760708,782.9983541036296L776.5811227332382,783.0873528912581L777.5857943896214,783.4070778946891L777.7933712786798,783.5942644279172L778.9525162601807,785.2178027840249L780.048783073938,786.4284716277687L780.3419728509125,787.0183650205495L780.6081722241408,788.0750170798967L781.7912295328308,790.7360664357657L782.110926021255,790.9936315055782L782.577222950199,791.094557038898L784.2861678389484,792.5172369777529L784.8886481554623,792.867185840857L785.150375590875,793.172768598607L785.6771126321232,794.6902166765286L786.2377311085183,795.5596541805317L786.9445468742722,797.9493579159839L786.6005034303223,799.4353239039658L786.5847083816146,799.7025308871112L786.5734039905717,799.8927056214719L788.4658190768453,802.9195742706775L789.4388626285725,803.6643031133585L789.6660114372851,804.0308287426797L790.16050645428,805.6205728274274L790.2234603526416,806.1721179094291L790.1420629672693,808.2782036008048L790.9421766429344,809.7989849239186L791.0638746369752,810.9070728634617L791.8647069234696,811.7270256760557L791.9809713128366,811.9529522629679L791.9772403556349,812.9126474758239L791.7028854076125,813.7341223732936L791.5578690230086,814.6173955781571L787.8077770897919,814.7356987999907L787.2206592797397,814.7562767644381L786.7731298084143,814.7736744696199L786.5923876928822,814.7805207144709L782.9818069793797,814.9049408576095L782.5136346980348,814.9193585682506L782.0423565046488,814.9338496718625L766.8090644332998,815.3680679519225L765.729727796082,815.3606427062086L765.7070996709247,815.3721781126608L765.3216995696838,815.3831777138365L749.9362717980114,815.8082655586118L707.7407152726655,817.6446390131377L706.0686236136754,817.7137980501947L706.0203252229148,817.7157186942422L662.6513089216417,818.9518132507568L662.5990043330404,819.0444322332266L637.8172760458463,819.7534246896812L619.678204383149,820.1515463960083L613.3945982352586,820.1494741137344L610.3873939248833,820.2051549261732L609.7402347201885,820.2368141868762L599.2622490311178,820.4153219920364L591.3256050517123,820.3561796106771L590.2738028871777,820.3634513822346L589.1990594574954,820.3571777886625L588.3306783502198,820.3253065055674L587.1196838281794,820.3300088240409L578.3004010724584,820.3597003966554L575.174832999781,820.4953776716028L569.5131975041163,820.5611218788661L566.863224669433,820.5390830686551L556.4516015648334,820.5426536499028L555.6984237618923,820.5442654277565L554.7878560130832,820.5520984358893L552.3541831009584,820.6300163846645L552.3540104790494,820.6300177050042L551.7860980036255,820.6361577883717L549.546507186101,820.677678723963L540.9515759793918,820.7892447798217L540.3272678174986,820.7515988474292L533.1414789678723,820.9278028092874L530.9169440431542,820.8677792295168L529.6910959898064,820.9660716803473L522.1802473831399,820.6052611905397L521.4639689918002,820.6315015566838L504.70341978199053,820.8094088854261L502.33809359923083,820.8152993751526L500.62388490292403,820.8077736381601L497.52554262758684,820.7933501558653L494.2244864247372,820.363089656021L493.8940909559889,820.3616692484031L493.70443389780985,820.3908017720701L490.79628054901775,820.4859147123098L483.81331899570495,820.3559779654722L483.77430660628426,820.355202313927L476.079147261899,820.2729211443765L475.83109640932514,820.2775473700343L468.74433918683104,820.2238354954891L466.1298838922162,820.2324167726481L459.28137843891307,820.1975823229989L447.08372927352474,819.9767117685392L446.06882601179814,819.8417966479186L442.1422692578466,819.8414380336799L440.54414728044725,819.817121663737L439.91896580376755,819.7653280108293L437.54559146968063,819.8496414550659L435.76327694512463,819.8304871333463L434.9744139738043,819.8369211309791L426.3028401912982,819.7400857038259L425.24998330788867,819.8606168267954L422.5259670430428,819.6993135980176L418.75241392756783,819.7743279186984L418.67144466538616,819.7766800170588L408.0254014644103,820.0865036145417L405.7908629925919,820.2272346870188L402.80829498194,819.8247016353746L402.70255636584767,819.8378172390271L402.45914594277485,819.8404489739546L402.29389026226215,819.825329430546L401.9953145237442,819.8414355360572L401.84845942455786,819.8357090046841L400.9813856131438,819.8147014148708L396.9526795062682,819.7677635904156L396.5919425045111,819.7634780266119L394.7672804017423,819.7322179784173L394.34174948141145,819.777665721459L392.9348968378347,819.7168707104813L389.1735367912761,819.7175489599797L385.4308840887726,819.6897909385084L383.9887215773792,819.6817826166757L383.32761153096345,819.6607393260208L373.3279307626532,819.6031771440183L372.2031468386842,819.5683396340701L369.17947705380845,819.5228225222172L368.16226538483585,819.5025789783119L367.6527239216287,819.4833458409141L367.13796847914875,819.5147779127253L367.11293910201755,819.5147052399121L366.24228811938167,819.5097648253948L366.2333128643987,819.5096657521597L364.19204234746695,819.4798746674462L364.01992345290205,819.4811600177156L363.9267305632027,819.4791032008144L357.1460553764585,819.5244256694282L352.1375357139938,819.3946346290538L348.212860178219,819.3564606348282L343.43996971204774,819.3771652324936L343.43996166128284,819.3777692904033L343.3931983608413,819.7259536035249L343.7943684643258,821.3650481827841L344.3563214620833,822.3092684015405L344.47295031874893,822.8786122834624L344.2091842255239,823.3923802901927L344.21503575905615,823.641624783181L344.38995594332465,824.3225677230391L344.7481621846533,825.042813083903L345.03380440727756,826.0437440956966L344.5039424244459,828.6501682975864L343.64090436648354,830.7263528526594L343.3911628286728,831.1941388693276L342.97319201943264,831.5349498620035L342.62123570260235,832.0938634367183L341.70860427769105,834.053893772756L341.6236054048328,834.5747214003552L341.27422908839924,835.6325314647584L340.983795466716,836.0492319656158L340.558981650521,837.253817028896L340.4188610776975,838.1206677898612L340.2275999533423,838.6770294165735L339.4075022209222,839.1744038441243L339.1462294858434,839.4574703116477L339.080974623136,840.2282574479334L339.3468026201484,840.989306376691L339.3632661511542,841.4792253869875L339.13711316788465,841.8966739979464L338.7306909137601,842.0346291124387L337.8435965559082,842.9459683360999L337.74459070403054,843.4343359777392L336.85478621613674,845.8012625605991L337.99698047447293,846.9776612095707L338.33770904851445,847.5881665534068L338.4767750098833,848.149109730984L338.2765318481171,848.6454859980777L338.12261790898594,849.4337400938998L338.3345845201782,849.7325410468055L338.66792836220276,849.8946562230885L339.84012185325764,850.9918082123875L340.16239498539016,851.6662557510258L340.05969111823913,852.1364464266671L340.90966987372497,852.5637252945771L341.8076032801133,852.8437270182119L342.18237956131816,853.3893681142638L342.50895605675066,854.0965520115199L342.6949286661658,855.0094558192086L343.7572152447816,855.7585370661379L344.8653907815201,856.1659678036228L345.8980466988248,856.7109004262422L346.75665408622916,857.577509253869L347.5695222611737,859.1276973974059L348.242130711744,859.4276998324167L348.91603845895065,860.0097683546537L349.6234914493164,860.823482866735L349.7200832377437,861.1901527738703L350.51691168273214,861.8705792881658L350.84300871242357,861.911806905789L350.9977939139529,862.0523854222475L352.1933761490763,863.5986273259416L352.12647398855734,864.5183067972949L351.983233845799,864.9373400583983L352.6481828667398,865.8570685398985L353.5332315117574,866.8719420171042L353.6269890114496,867.1046142758714L353.80347383630493,868.4436813005318L353.80000220470964,869.4499574936931L354.26295008109577,870.7246345916849L355.8107128665938,871.7897929436506L357.8612787637825,872.7775389410035L358.98528983855323,874.2489895219439L359.4663496594585,875.2083047168155L360.2963854970426,875.5141890154395L360.42588703231104,875.4692444503573L362.1115120737451,875.8627938659297L363.11562902158437,876.2764533904531L363.3561416382386,876.5937920100303L363.39305622832336,877.0152609054767L364.27290397363686,878.2931990107008L364.97001252930454,878.5645301779235L365.4272845241851,879.2962698511675L365.6648395434964,879.4701661777162L367.2881318529156,880.1494260382985L368.2557572045745,879.7062795709453L368.6084017612819,879.8904383403478L369.6031680107032,880.7714025681216L369.82479838375497,881.162577938677L370.2483660957346,881.6114425234327L370.90328020998874,881.9841599995373L371.88437844431735,881.9990802760075L372.826741583067,883.0735873646793L373.7500855591108,883.768487643068L374.9253346150742,884.1695212746686L375.92378021094567,884.7633989312653L375.9904349716687,884.9955810116077L375.88916351144644,885.4436639711337L376.0948393911954,886.4922402550783L376.973720317064,888.4139500632317L377.0659706550419,888.400922104812L377.5668841966223,888.9849639319625L377.74772348192903,889.7741852382701L377.5678617299125,890.2446523080077L377.7758655662835,891.0851129173128L378.1590335388652,893.7338680046125L378.11885078153705,894.5164493247653L377.9928292073615,894.8818527280068L377.7840028988773,895.2476607454415L377.6387042014211,896.385823791975L377.63706380046665,896.5525676644622L377.874575277826,896.7588558087173L377.8780439254698,896.8840125023025L377.46805296678014,898.2046299892796L377.12050031903607,898.831312219073L376.7861163449983,899.0734201295044L376.18923885341076,899.2712583089544L375.84104729783303,899.9674695387522L375.4291022094468,903.2441831336936L374.71562533136523,905.3549449912144L374.40255784888274,905.3054621961428L374.09617269186856,905.5061864507841L373.7268244994618,905.9887708557123L373.69814583125776,906.0859518834548L373.9668831805095,906.4037711629899L374.01405151060607,906.7474428913772L373.6588429797321,907.647627180595L373.259746407421,907.8799630592137L373.0010280590909,907.9236182221532L372.93385404932343,907.7328149314208L372.8369583528309,907.7225132389879L372.368324334568,907.9911090825246L372.0330515557936,909.1837629631862L371.40655984106417,909.965256398815L370.7917188704631,910.0931190945219L370.7076618251055,910.185077094593L368.7184836406737,914.6289590733304L368.73153687168764,915.9971967407299L368.9783931150489,917.0849528236783L368.9348282101936,917.2793404907068L368.70438720549043,917.3600365875532L368.5618619308092,917.5487107523484L368.47716446061185,917.6926803512192L368.4879488476579,917.9872102910127L369.002381140916,918.5924871663148L369.2612809642384,918.7393259716525L369.8763569067977,918.7727751084991L370.1213076754389,919.0368122315081L371.337256451955,920.98462808241L371.431948602063,921.9366078113037L371.0002904301934,923.1869264068372L370.53747655336673,924.0726394338519L370.6916857185895,924.337392904996L371.22921524446065,924.6466452867819L371.4013171929457,924.87109891221L371.5630911045985,926.08731382612L372.3376525710788,927.1075169675767L374.1352286570478,928.8062449590526L375.3199882501666,929.0004251588791L375.87131807916967,929.714350832455L376.70517632706213,930.1073276877287L377.22794178574946,930.1934793217556L378.08525532231107,929.9994257064084L379.96715613372965,930.3213323592565L381.77746281461015,930.9928979503741L382.13766006533797,931.4486079040169L382.4336974365017,932.2918780412754L382.48720628570686,933.0683185435938L382.2017497044567,933.7219443275014L381.67628107490185,934.3077159277827L379.7572248927774,935.8271662659563L379.00165499849004,936.3059435169987L377.3718313525095,936.8773815147274L376.8254463984914,937.3781283747276L376.29387990153947,938.1222611993412L375.99453392889194,938.3623365411133L375.0484919436425,938.636427656241L374.29782511596085,938.5883338019908L373.2523050697858,938.3346185608027L372.64077277314954,938.3485900478304L372.0275589653305,938.5245465296866L371.4278151611175,939.0652050678102L371.0365331573317,939.7295635798339L370.5876820761873,940.8794962736298L370.0601357771951,941.1980603500062L369.45664545769023,942.0830296151441L369.3630376516601,942.6695438279946L369.4113707845488,943.0549860385031L369.7859481378824,943.9909204579069L369.7831604774188,944.2542793019104L369.2238324443074,945.1588830543017L367.94290682546546,946.341661142675L367.5338537964058,946.9856718289559L367.4416257529548,947.4304775787448L367.413841953564,948.3826066936429L367.560756835128,951.2289815295586L367.3258599234578,951.6648380961888L365.9618462831468,953.2307614121687L365.43194609986267,953.6911513997989L365.09801124593315,953.8293614420475L363.2217313533034,954.1936076294744L360.36906107696643,954.2625228051919L358.94728177210277,954.6399220721594L358.4901396002405,954.9491984073677L358.1096591385475,955.6270969739196L357.881287593539,956.5656829813438L357.89337547929694,957.9639218095284L358.0773169493815,958.6957826849446L358.4060533153811,959.0240453811077L359.7835177587224,959.5064207843893L361.74341165478324,959.5694526285226L362.0612295414986,959.3297489755953L363.1157272168206,958.9566161979516L364.3767379751727,958.909879889626L364.88295456526055,959.0371449627371L365.3734671805951,959.0020072989348L365.96965575568277,958.9071774473415L366.6739335097515,958.5296372841651L367.6384838407474,958.3576139767407L367.21203157109085,960.5628798966154L358.8502694378,962.9631101109595L357.88536023620503,963.1140540334547L355.6188783803588,963.7361280625323L355.6202667500091,964.4390799156542L351.0185993500754,965.3515739121157L348.6399651128797,965.5695707896259L344.55169843496117,966.567613921904L331.2661619510595,970.3506413875738L317.4579504405509,971.9745795237484L306.0230881069396,974.0836542625825L299.371854167005,974.4114897287238L284.01935818250456,973.4833638621569L277.6828279708611,973.5331780677622L271.0521171452583,974.1652010919613L268.4830796852932,974.7999383589031L266.053771027661,975L265.9077893256102,974.6758834253909L266.8658476772834,973.1380495443808L276.90210810908843,972.280716742499L280.1161769426159,968.0938727167379L282.4017441725041,967.1430311382355L285.48718653521746,968.857605889448L286.25198122691484,969.9820630473039L288.5587824454451,971.3047922183227L289.822181080527,971.7937210263783L292.2482712270421,971.9696039421254L295.6293032987789,971.686042166828L303.09815418668904,968.9760933772958L305.8367266372438,969.2739562133474L308.35256669838304,969.074778894603L312.0801956075188,967.491176871474L314.1194009001391,964.4939459489472L314.12056414061936,961.6697915093534L311.1701945147173,957.4681211399745L307.0201585778751,954.8654713580345L304.85411008889605,953.1048274456869L301.32278302824625,948.765719493623L300.0911977588653,945.5999422838223L298.7406645928339,943.9303721853881L297.2285629739222,943.6938430164021L295.28753748614474,942.6522616390513L288.16483435269356,937.2682702509896L287.7353455756728,936.275765791217L286.9441678659727,929.7994855431097L286.0093988153312,924.8211000688983L285.3013067572798,923.7033459078668L283.9793488306809,922.6659640996004L283.75024684089476,921.3950368032868L287.76988062222847,913.6817660604145L288.8243510637969,911.3307021511937L289.5071395674935,908.6502482991016L289.1362753396942,905.5878541749146L288.5151319809249,904.1344215351621L287.9108987569875,903.4866476740035L287.33406293093583,901.5279653323166L287.8698744420799,895.4923076291423L286.7619516079394,891.3751373710993L284.78808734605593,887.9758779104308L283.8251294058982,886.9999715233478L280.48197235738485,886.6461991358817L276.1675577945457,883.2819291222581L271.4836909277433,881.1939551529507L270.7733776633015,881.5361726072643L269.06164709844995,883.3832551929706L268.2054378315007,885.867580886312L266.8031319523973,887.4095022971114L265.10380352141084,887.6056057636906L262.0019479867999,889.0912172713088L262.30775304055214,894.3127306175472L263.2531902570338,895.6671514854634L261.2526176649668,900.5173128650763L259.4715440315957,902.3798903622114L257.55875474176605,905.5003730937955L258.1590190492319,908.9403747151559L257.8769020199606,912.4958854420578L256.4705697367389,913.5058242260593L254.64220888108952,916.262259843508L254.09824971219027,918.0407401120784L254.1989618577879,919.6366881987203L255.16812443838546,924.1067359072973L254.46508614833806,926.0820610049238L253.41680249526615,927.7763121885914L253.71572127683916,932.9345658188856L252.9313089725631,943.0577435692885L251.41217235719776,947.2141729933961L249.73941124543614,950.2064030893423L249.12346863798024,950.8237809814658L247.62147353366194,954.3944841397702L244.22261240294796,953.0079034004216L241.37864571058168,953.4497981829281L237.91782298943534,954.9250087958408L237.21712845980156,954.0486612808402L236.83013393972433,950.4758349138334L237.20421722723364,949.5183613740849L238.57872701889062,949.2535544692057L238.5943038963898,948.6314011794043L236.64590651298877,945.6959849885468L235.87029053677915,945.7334116962691L226.14991011596655,941.3865311797589L222.31943833580314,941.1901826929802L220.856953275274,943.6123508734856L217.18496802355963,943.8898896264674L216.33137577873356,943.6495791190314L215.84851636632897,941.5397494128421L213.67648366409202,939.840621016976L212.09800213137214,939.5905436384701L208.12908035390268,939.7820995583386L206.25592804757832,940.2178843482731L202.6116109217029,943.3989836345366L202.1254691147563,914.741738020161L202.02826345856312,910.2367127432756L202.01811821795292,908.160635572092L202.01324619123636,907.8163433244949L201.83910042952243,892.1017308951568L201.8922799008535,890.3005075662563L201.81603800585071,889.2235970319214L201.7311314211978,882.8020133121556L201.63250733035545,875.201904472875L201.63258895539434,873.864271804639L201.61490820780017,870.3415477832239L201.61195386622808,870.0635749478786L201.60177178853638,869.2904287020544L201.25792050365004,842.856944417756L201.1448034795045,841.107677474261L200.78029741994123,816.2836570883777L200.77473024197172,815.9044146309761L200.76650702914912,815.7148469503584L200.3289126215862,792.9189748425158L199.92728992386697,769.629063636903L199.9155808852945,769.3891719153636L199.87103641585844,766.2440875859206L199.93756827358965,765.0889230369546L199.41763616125684,744.3479852544866L199.41365049193848,744.3249899772765L199.18260552713326,731.291018867589L199.18923615805886,731.2131670423678L199.11531053586532,728.2908190574014L198.99573490984613,723.551658412485L199.029218697776,719.1242108430952L198.88826872965802,715.3851791924749L198.46908128036785,691.0341874334463L198.44075138075016,690.5628627234782L198.05673693117927,675.7650263328394L198.0567974231381,675.7508222590872L198.07863890426933,670.8780211078683L197.8597872358605,657.1918755927393L197.78670165200612,645.1535374086781L197.77085316284143,645.0659796376776L197.66318991137666,640.3148378374223L197.6698683810891,636.5795112681203L198.61189575439653,629.3367769542291L198.66538673122784,628.7571406918064L201.56660472016273,607.5791070694926L201.5849031469183,607.4087049626398L205.0558366509377,581.2958641464961L205.06996077043152,581.1512489178258L206.6102793291396,570.2715937744975L207.24094974329182,565.8124977253759L208.70791347958618,554.2048086335103L210.34394631212803,541.274876974993L210.59827375143652,540.0685113538323L212.43473997889828,526.2577730459418L212.43535812380412,526.2349429799685L213.26627498984067,519.199914990784L215.6189910485228,500.85915899955495L216.84811270190113,491.25920145121864L216.85858156883853,491.2049370972542L218.91486633394516,474.4328701555883L219.93372294451478,467.35984656808637L222.93465848669595,442.19851737693386L224.28244333754378,431.5607491466329L225.83124598197907,419.31764925772234L227.82149945831557,403.18030063410197L230.66243693505203,381.3389451948854L231.072387975849,377.56101541413113L231.6059819548399,374.1024917810881L233.2803151762899,360.8544879052067L236.0227777221269,339.10350931443975L238.81947382029074,316.85483690454015L238.9400617302873,316.06555441434074L239.38366290915593,312.62507459126516L240.31062077278776,305.4082563533516L240.40548073811252,305.002569784467L240.4996640427564,304.2114778168334L240.688843303703,302.6213365723708L240.88806767332431,301.26000563326903L240.922290851662,300.82046272572194L243.08801585156732,283.6142534969414L243.12651328525905,283.45666302113614L243.43481166223017,280.92629251145934L243.4780565897818,280.3382921920621L243.93459867306137,276.26652943410636L244.59749300586137,271.2940253640653L245.55385179805657,264.1131363657104L245.8023032507931,261.37017475643114L246.35836424324356,258.4010744513743L247.27271684349583,251.29681512834512L249.03483597286035,238.72047700552756L249.0353686959309,238.69814095765187L249.05549421972557,238.46141187979015L252.14318867921122,215.7422794510889L252.8468940704922,210.0540487191731L253.53482193245875,204.54558000663098L254.25057067475285,198.80955240614878L255.8268526542518,187.22490875488273L256.12836349605254,184.34291501263374L256.6890841982836,181.49017081584225L256.9162384894587,178.33307919917792L258.8231446102318,164.1279822266012L259.02526660565263,162.50847320669965L259.47021849533564,158.82985565237055L260.9813700886417,147.17232242248764L261.03548101509557,146.7487315825964L262.8929542754001,131.15612492942392L266.0292671398475,108.122101196389L266.1747144403158,106.93809483564053L266.2653848151293,106.66338527884238L267.12451848563705,100.16570831246878L270.0990084255719,80.43983610233107L270.51076465967105,76.16479419180786L272.20259546475916,63.4920891159631L274.0839750565525,47.866208805244696L273.7555177527939,47.49118486101952L269.80040895621187,45.82442453043012L267.9668566384418,44.741192688377964L267.49315277052517,44.33439063022587L266.4601990317522,43.38958612458765L265.17612671793484,41.8026351137234L264.1136671064175,39.628763624941826L262.53701651422426,35.36583562407719L261.93226508969155,33.93273282770707L261.3389948347821,32.95817010869757L260.1860780520057,31.485894606470993L258.4490077829266,28.283102109270885L258.2698252272277,27.416261268014978L258.1592909409543,26.99809410576279L258.0083348405404,25.509571050004922L257.8656147759046,25.000000000000057L290.1171913474458,26.102290211890534Z"></path></svg>
