<svg width="1000" height="1000"><path class="state" d="M420.3337117004585,31.49374099810268L420.85802232794117,31.50001334768342L442.30737233272816,31.72016767540873L443.7650832293171,31.753996144360315L566.1597740847766,32.15333040550166L567.055482908001,32.1489784628489L567.101066641158,32.14618374697932L583.5824747501667,32.22335144273575L586.6171123453811,32.10354443093024L602.3080541477017,32.02618086996114L611.0124974576382,31.68121696282367L651.9127307694998,31.021692749277747L668.0994875700144,30.666231142294066L668.1113748386845,30.715494773796593L671.4903756565071,30.649451829022155L684.2850749891135,30.27357848002157L685.5540433222245,30.360758329592215L688.2553875024075,31.209399455684377L746.320004196958,29.699637916295217L749.026805302378,29.63913683040448L749.0550410193381,29.724973817746616L765.2370769384063,29.158957598299878L797.602827842523,28.128252134176705L814.4677773756807,27.390103557676127L829.2363625576113,26.81894162330576L829.6489002879878,26.804875616719357L843.6170171116303,26.222562493440307L843.8609771692411,26.216428280526827L844.4849585939226,26.187331076286455L846.6160730554031,26.08573301912827L848.30777024127,26.028332047472702L855.1208311193864,25.740200288755545L872.7154063565744,25L872.928308719019,29.795082229112268L872.9291871650935,29.895385785369058L873.5961558833619,45.11333946650302L873.5957669468096,45.17981782570621L876.3356917220774,106.0219075672112L878.57508725033,157.8700527667924L879.1116018940031,168.42818859154244L879.9251654057359,187.15804629471057L880.4845564492525,199.65124740343765L880.4791297845354,199.65739008893462L880.7534226366658,205.73003961641717L880.8234698372103,207.18882903831542L882.7370494078091,250.29984293611108L882.7537254077072,250.67130927684832L883.2285652845463,261.79211643819167L883.2331485534362,261.8106463720355L884.5492739755821,291.80769199235743L885.4908833772872,310.47310646636504L886.0549245724275,322.7330772201642L887.6913510656788,358.276254436181L888.6442713152559,379.9150068958549L888.8125627750638,382.27960053310926L888.8543745293559,384.634529613029L889.0642480788513,387.0367322462013L889.074194945731,389.41772079488817L890.5057880577474,421.11133371598197L890.9294624570274,430.50115275844786L890.9306676855649,430.5276382445031L894.7664379263584,517.205329271349L895.7958443916356,538.0045192466018L896.4610769040365,554.1375130618873L896.7238142076151,560.5106412523987L897.6670962078344,579.684468551874L899.2233227035713,615.656000985284L899.5916343496556,621.4596283213499L899.567305302694,621.8641211910801L899.5686888741906,622.4297431825996L899.6161023601312,623.049613162183L899.629843234435,623.0989495948094L900.4228210481184,642.3901916328896L900.7707805506914,649.2740019089719L901.332734337575,661.1694244591863L901.3359438162224,661.2425392932572L901.693669460624,668.7290375378349L901.7164291458125,668.8937454979389L901.8124397195287,672.6727949363726L901.8163871424198,672.8419333101642L904.1092685223568,721.7094154233214L904.1092762470498,721.7095836819585L904.6857315311972,735.8743101739806L904.7114265011925,736.4554971552473L904.7386050575838,737.072075383787L904.7768729361164,737.9053717976516L906.758781068669,780.9042454176436L909.2874095367468,837.9431845868594L909.3251514900797,838.7937766924131L909.6991652351064,848.2718266311995L909.8315516379716,850.7326506676822L910.949882657349,874.9666670671298L910.9977209934646,876.5649865344067L911.0874404282088,879.5670017121306L911.3949098259736,885.1586941805195L911.443992937481,887.5779436911091L912.7107862163386,914.7718367604359L913.6867272995635,938.1150709197369L913.6824712864304,938.117487203601L913.7880697425942,941.4443927095259L914.9691451580384,966.5990735136647L881.6520140576604,967.8225088987622L801.2620611597802,970.8019423389619L776.3314466498794,971.7298354976413L755.9160185609121,972.164233067228L709.2754156380819,973.4816486533484L665.3694009584442,974.1744779920128L660.3383482414287,974.238851530695L630.3942016973723,974.89125144987L619.5658977233055,975L612.1204875185699,972.2132249829206L576.8952515811221,959.292797358632L548.6669168045654,948.8075105912599L487.7943514159388,926.0883171199325L449.244868391978,911.5548496454974L432.09506139022443,905.0715611140038L430.5504043558563,904.565734931431L427.1432332407247,903.1996894383497L360.0004212801733,877.60102064836L322.9999944022323,863.5961428967153L309.9839276213948,858.268577119656L293.41019182747465,851.5729957235204L270.76452252738306,842.356601521531L234.2799315382769,827.514759195046L229.91077234038727,825.65210166238L163.81794051179696,798.3597731650939L128.76139066047438,783.7916015781386L85.05697111282132,765.54469877992L85.03085484196174,765.0436262210467L85.29546016310553,764.5808540644224L85.13046671834479,763.8603655095991L85.14638719993542,763.7251074940591L85.226694991204,763.6400995799951L85.31429395155033,763.4210481293394L85.35939725918172,763.2892723704233L85.68002836038556,763.1935745907613L86.02915211749206,763.1549120271259L86.28490104087263,762.9377282739056L86.49521709382645,762.5465523185856L86.55264590191263,762.1915671502122L86.50460618465337,761.6964900884578L85.85197937223319,761.2127554767344L85.62074982695566,760.6180956543983L85.80277718692736,759.9396726037508L86.42732972654642,759.3780962284403L87.07555629932057,758.5310656062119L87.12709572556918,758.0189464861072L86.75572132921877,757.626648517331L86.62103454274046,756.9958905606702L86.64975718323262,756.8270765145437L86.94172224363086,756.5646358796964L88.14091922906334,756.1315110561907L88.41874964380838,755.9147385848357L88.68568849188847,755.476430845232L88.77739467235483,755.1410508700122L88.74901482487894,754.526084513563L88.57326748941472,754.2926125376815L88.40012540390887,754.0146613204297L88.21701061988676,753.9151511928633L87.97870545909296,753.8426769311991L86.9944089543423,754.2054417663583L86.35531607442402,754.1700687214927L86.14708206089313,753.8455003731806L86.12181243974777,753.6203160200605L86.17922206986032,753.2655167728705L86.42695513544356,752.8766487997138L87.09774057492945,752.3577329268312L87.48752565186788,751.8607776517613L87.56606872661098,751.4857142465992L87.24873559079151,751.0230404008773L87.24982746307444,750.725167968795L87.4376791694911,750.3252493175572L87.80372622261956,749.8385229943901L87.94177589499054,749.153675761117L87.96286262654894,748.9110117918301L87.7444213485926,748.0591757268874L87.63629744949571,747.9215788353899L87.14212518934056,747.6659869980888L86.88123033897949,747.3031541896183L86.77621221707483,746.2797349866357L86.80395199579362,744.8768607537124L87.12736072643679,744.1830584782488L88.30977723617826,743.6093733780731L88.55115612701536,743.7134042176781L89.02282148986995,744.0946556316183L89.43147925042973,744.2256153963519L90.78139152778215,743.7564067400683L90.70134458879465,743.1466191414054L90.77765608417661,742.8837600696365L90.9243107126631,742.6816871934931L91.23703194248674,742.3407631650673L91.92935529035668,741.9919182140366L93.4240934097271,740.925665300156L93.5940159204502,740.6054418377075L93.5780451721269,740.3716807957396L93.37643040004207,740.0143038197708L93.40537099018542,739.7889121578728L94.39979774088204,738.8658780879366L95.16539579112771,738.3796772410323L95.94359784742204,737.429087848486L95.9972072682828,736.8395123746322L96.39296110043443,736.1022152367341L96.57315832352145,735.0172831280148L98.74541065956612,731.7295724600731L98.81131755954004,731.5926949143095L98.84692589303381,730.8143166634401L99.96584158951578,729.3939535995646L100.45811052275963,728.4598396320976L100.76286529225973,727.9883490646894L101.08373555865899,726.9755486821067L101.28670413548929,726.5423206736984L102.63372977281296,724.7262754017534L103.2069896717519,724.0876411402437L103.37386813459966,724.0849179489867L103.64328495892516,724.2293853285719L104.99563096060899,725.5113539440458L105.63138798685844,725.5684482609215L106.42219147054641,725.7661656700153L106.636751732807,725.8443584154345L107.97743211193307,726.2514239130429L109.19863310188845,726.3826840164243L109.28045036688309,726.3922254958522L112.87424653198957,727.0790088638519L114.87753164770908,727.6222656140792L115.27396130472192,727.608949389888L115.2615841213701,727.4427832460852L115.43835193186464,726.6653688745726L115.73578482398653,726.6087625394966L120.11511184476825,726.7622356828493L120.1856135785738,725.5216223426671L122.62364098448563,725.6502918766923L122.69457668092741,724.4298558182178L126.26605207859899,724.5677937966284L126.34532983446536,723.3679295454608L128.07797272922386,723.4309254890869L127.93975052871343,721.7066136157505L127.51979044325071,720.5069027846987L127.4573553272786,720.0553287754226L127.60172646552218,719.1216175970687L127.686276937532,717.6618763310943L127.83501312877644,717.2815597045088L128.12840537690204,716.8205254936607L129.13768472039283,715.9662509162831L129.38643351983495,715.6580770854698L129.49279312301837,715.309538485141L130.15894899781074,714.3713961264641L130.93182424191406,713.5709320641276L132.87185868830534,712.7066315436845L132.95032028315921,712.6756474056683L133.26471669160884,712.5291441728915L135.96789443525654,710.0665897831196L136.9991228719344,709.0286492005666L137.72841417324673,704.0679067163701L137.74083643845142,703.3302745862071L137.74273218876067,703.2917887476654L138.29376458217814,699.5348634610265L138.37179526412535,698.5180385138215L138.30100173172787,697.8850063095882L138.20041551361368,697.6363596993634L136.95562168983088,696.317817722709L136.56806359521875,695.7877416769961L136.27333850122125,694.9879435335046L136.0612282335784,693.8053180463224L136.10136346810697,693.5084343076275L136.4526462833545,692.9317964143557L137.11295006306312,692.1907886408432L137.59989874147146,691.5105777240202L137.86995711132198,690.9615973307887L138.09505800570724,690.3582254134903L138.19560090482406,689.6305618034195L138.1915489989779,688.589061356686L138.04281383902912,687.6670667262133L137.7828852667186,687.3571704952615L137.06411557767825,687.135190953764L136.451439495292,687.3578703310317L136.3116387889483,687.6204283377874L135.2642716902074,687.9250139547573L135.05189542475898,687.924737223612L134.67201986164946,687.5867215188782L134.5132778027799,687.1612270667647L134.35056711720017,686.1745597788454L134.2200691226169,684.249786968476L133.9745642537883,682.1456646762463L133.6025228952151,680.9075338360922L133.19291673422822,679.9016246780146L132.51340777893432,678.7833238746531L132.0387027083966,678.2432407929089L131.82464848336417,678.0562068792588L131.3319812921951,677.6257261652285L130.85512538398524,677.4374248629636L128.78246585498232,676.9190248849729L126.71503848886255,676.721500234834L124.140422962152,676.1446099243319L123.6462831160398,676.1331497260936L123.19655568572546,676.3064601002933L122.73377356500379,676.7588493814967L122.22383765641285,677.4584751639749L121.90086281907884,677.6582561468799L121.50131986188535,677.7583608174577L119.91347492005758,677.8142155499149L117.42850528780923,677.3841139118795L116.46338846242907,676.9580979152415L116.12498208602074,676.6686032341256L115.36526329847618,675.2876636274352L114.66594093743151,674.1970496404869L114.38907288835969,673.9125826228568L113.7938917469072,673.543820221686L113.35027845861725,673.8805551166948L112.41625552027494,675.4559250411477L111.9950362849209,675.9859377973381L111.70278097115522,676.1657220520746L111.35329929686691,676.1463124604587L110.97841744892804,675.9184428153794L110.206766786316,675.1919853788141L109.83980401833713,674.5143017392633L109.68659549531105,673.5582544032668L109.88570479099889,671.9473851028267L108.2238848210676,669.5385904085815L107.9705884883146,668.6585065501198L107.97154931001461,668.1444515679434L108.10418620709254,667.5309583371343L108.05514878711483,667.3321059337559L107.5750654827794,667.0123028605796L107.28675967958043,666.922972699261L106.36961704753935,666.8502272256626L105.87487443391979,666.7089692101099L105.63782765477555,666.5098183160485L105.47720861436375,666.0065186842195L105.5231260100723,664.9445907603748L105.83564314567678,663.6325013926448L106.26122372867155,662.2372688122832L107.37915486260982,659.3651572921553L108.39782871683542,658.2975562948369L108.84614170767122,657.596462713717L109.26155819171277,656.6227180538626L109.63828854551457,655.4506807518533L110.08249041172326,654.7507743208187L110.20127795835026,654.1808587555863L110.04825938885284,653.0353631920461L110.2630511694698,652.203101856167L110.7723066201155,651.0905891961422L110.87349719617345,650.429137885114L110.92115124905808,649.9797453539185L110.60331261273643,648.0470620182317L110.55752522890032,647.3955892576089L110.99812605057292,646.1781372793978L111.40281888073076,644.7870482576136L111.44957369365284,644.138575715833L111.35115473540014,643.7331836037051L110.88679186885474,642.9032381361393L110.27864924183893,642.095573228885L109.43348842676937,640.3158773947855L109.42715595561339,640.117750085125L109.62789596171228,639.8701716184237L111.61566119817729,638.6942143684602L111.97772905363848,638.2261312920305L111.95132854838783,637.8938455036122L111.38888825004386,636.2357826542568L110.93271513042254,635.6397503909611L110.41478948043101,635.2014084606528L109.03682767413216,634.4969737602669L107.87708835423621,634.077710515425L106.72515745050049,633.7768629536527L105.80708575375576,633.4230901413023L105.29251931225718,633.0891904482417L105.08006813185227,632.8936690908175L104.0951765586097,630.4315464881922L104.10976666314264,630.1629842119046L104.30944277474327,629.887433028506L105.24497837540463,628.8695960873677L107.11510874567057,627.5439955851614L107.53589624021703,627.0943247664349L107.9550720581168,626.3875262586223L108.63896973922465,624.8726294362982L109.1820121001465,622.3135236114904L109.1999336352473,621.621239846175L109.11728445638175,620.8498333454091L108.09672474771338,618.1992925358896L108.17980708451472,617.5319396761587L108.15480328078678,617.2106523381339L108.01582109733033,616.9340959862477L107.32738191016796,616.2081363474149L106.12757735546796,614.3796335878643L105.82177673768552,613.7658464534302L105.80324297995548,613.4774855173387L105.8474521906104,613.3135435732825L106.06352758538839,613.076506914777L106.60098533863624,612.8773151719508L107.8773409140453,613.0523912533469L109.1637903462759,612.9308937915935L109.74819102429893,612.5338313186007L109.88423676581255,612.3491161572897L109.94376421945083,612.0216965591519L110.07171814677673,611.8494621091218L111.1713614409644,611.4356095285607L113.13511280209752,611.4799632545298L115.25425250923655,612.4737407326829L116.02828384629703,612.5334467772668L116.49333076679665,612.4386135541716L117.39098017720153,611.963882882414L118.57595334321178,611.0231418188666L119.39634430411104,610.1587151646627L119.79422220780015,609.2716519530283L120.59100238830382,606.9661089540369L120.49602792767274,605.7995837176578L120.58048453214678,605.4569400580119L122.15958409703967,603.1583038012553L122.83984028545365,602.51223164096L123.75299021874963,601.4603244365305L124.05443641918657,600.9865189092723L124.44747667137153,599.9450510943553L125.32101759577358,598.5176028218995L125.80857113335128,598.0384611847767L126.92527984326983,597.4236691727406L127.86919669973321,597.2913115261904L128.47177647914344,597.0413256091151L129.72914915005458,595.8458985888215L129.7993790225711,595.5927490229247L129.81136092534626,594.5782589866117L130.05040564788442,593.5204292851248L130.1444635173441,593.3418570758811L132.5851549705892,591.6801812837354L135.09025137948117,590.1738712252762L135.13134562755988,589.9328674327556L134.82307065446997,589.2841590002251L133.68953499055516,587.3321086183537L133.65073730895682,587.2688976963848L133.14410483718075,585.3252121989492L133.19082646895652,583.5207037822166L134.90785281012785,581.0573019090316L135.2602572541769,580.7100680130985L135.55500643045974,580.3032215757726L135.60629068309584,579.8191014453639L135.4639910653778,579.4224952942193L135.18334909630966,579.0318390668228L134.97689556965662,578.3598393875523L134.98891290685782,577.5818937211017L135.20032445961323,577.1381681778913L135.44014052147998,576.6635897387043L135.47745499148476,575.919270506046L135.3751678560027,575.265328068321L135.23635349327554,574.8042597336571L135.13085788710038,574.2150849971787L135.12502235310586,573.793158164526L135.41877367849196,573.3213815002971L135.62830241313804,572.9101080503223L135.80289657178872,572.659474180485L135.89181506134832,572.5017116114046L135.93171225369105,572.2443326253538L135.92098764871048,571.9193696735656L135.8245986728209,571.6874458806735L135.70127396248358,571.4543407124239L135.52748442884445,571.1536563856477L135.34947848423747,570.8124612478875L135.19569469613714,570.2912226821187L135.15650096482563,569.6194085631184L135.35421477807336,568.9376072717354L135.73909976750025,568.3819171266568L136.2963278124164,567.8756537036495L136.99042855377127,567.4766903153495L137.9440552742103,567.0546806356646L138.98750121268603,566.8157513849187L140.19952389644016,566.2274726179635L140.31919217531413,565.973792546524L140.608565489331,564.4054633666536L140.56468353593465,563.3154949038789L140.37296038465684,562.5162623710472L139.81256958688795,561.9788705614836L139.5725600702749,561.5691830137738L139.39125529100738,560.9800835295772L139.04800695512603,560.5513962551095L138.58099356550485,560.2560792400238L138.309398656781,559.8969517693945L138.9447858149918,558.6965213463446L139.28999685681055,557.9188156230312L139.53880800186977,557.1535511522038L139.60322038160854,556.2573510744619L139.5645871185838,555.5730983226986L139.3180565655361,554.3136928989846L138.151710979577,550.8453574899477L137.77908844313464,548.9681422176316L136.8069594482737,546.3326615211295L136.94023684502423,546.1342770591159L137.5788832933635,545.7006879506064L137.87842439716133,545.2060408915538L138.0118804649319,544.6533448495684L137.96333901193293,544.2506924654982L137.61886832535055,542.9737397883816L137.35164852826563,542.4109226624067L136.86919644661242,540.8092968556482L136.92932717091747,540.1959876977577L137.0849656010825,539.6739530287565L137.33751453127212,539.2813087019019L137.65670943873164,539.1103322682807L138.72103618562937,539.2231007467843L139.02095786191433,539.1515955328202L140.31687723465467,538.2750404425823L140.57118226562767,538.0409844879615L140.71001053693982,537.6733428393077L140.71579231072968,536.5020041098659L140.6005864987638,536.1851967395978L139.5270729670715,535.1301476078381L138.99484150016036,534.595969208804L138.83284529821992,534.2139181112724L138.74358274571114,533.9291166503987L138.7075577576643,533.615771885477L138.74581032177866,533.3683816183018L138.88868428773355,533.0950129140651L139.10595081733612,532.887763312888L139.4796506703051,532.6122201044552L139.87192417371494,532.4415409007827L140.19359073107995,532.200424602386L140.3027663104657,532.0101364780851L140.32866417515316,531.678725106158L140.25949768802604,531.2930389393513L139.89297806686488,530.4415930914887L138.99017220219343,529.3245190661788L138.07315492260636,528.4856095036527L137.66727828429288,528.2314102178598L136.95631658833963,527.79574074245L136.79599225010952,527.3828346569574L136.7795929871798,526.3558051553897L137.82773136920196,524.2123604705641L138.8142332421877,522.9598506727398L139.68234001859838,522.5890918121896L140.31222450074137,522.7982408861318L140.5435452961973,522.7723953960401L141.91723750650027,522.086013202707L142.6260097174669,521.279679568782L144.11310067594832,519.9051467061107L144.36404015622975,519.5463675576186L144.48937665020765,519.1463896978512L144.61931739042302,518.9727249825046L145.41034440622798,518.484296358075L146.09754453869357,517.9151925841512L146.57907600774797,517.1324269990137L146.8244771283026,517.0464265464692L147.3523897991284,517.0195853937848L147.52618265581322,516.8770501810013L147.66705027114944,516.5568678376752L147.66708688237753,516.1291231550797L147.3770992121929,515.2344780961164L147.35265630137678,514.8810743207084L147.40901625774188,514.5819679040151L147.65132777210556,514.3171271409043L147.96951606967627,514.2069997309218L148.53558399990197,514.2124606983466L149.1827712138258,513.9763188064436L150.09192660890335,513.4201875952856L150.56956051700809,512.9178815415804L150.90938904833502,512.3877189636695L151.24217936368808,511.4915882522271L151.48865004147308,509.8869398892293L151.4510856495932,509.08013212558666L151.08551375143907,507.79776954161855L151.00384185069328,507.19317318650394L151.04583991153999,506.5149568514228L151.38712489427184,504.1918811860108L151.76009584302977,502.9123272561073L151.99340620158057,501.6490806694957L152.1119502466526,501.4825974438148L152.8838347907415,500.7914067103416L153.17361476597546,500.0967460427226L154.0050130096991,499.0669921010286L154.6699154040616,498.40456106256596L155.27048671128006,498.0345876533374L156.07206326943503,497.8217424145944L156.70417922919677,497.83334171366545L158.17555457664838,498.16465379964444L159.7807549374275,497.2578534732073L161.15952620927817,497.06853669357076L161.5496336860225,496.9108006304915L162.43036087076166,496.11950458283786L163.03796956579663,495.0073213989191L163.5185107329591,494.58173857782117L164.2135199808318,494.3917694114677L165.85192431854307,494.5388218452559L167.45911917789516,494.1601947157916L167.99590492175156,493.87282538730824L169.22147389683101,492.9073603250549L172.0557475165043,489.3847998720423L172.84208042181262,488.7878067633781L174.50684696043186,488.59413681403885L175.4539618542454,488.96010380878903L177.422102483218,488.44679524072154L178.8325156709189,487.5463360186484L179.3374007133475,486.9688877609222L180.87553153684166,486.42297761775114L181.25819029773777,486.1176636001093L181.5830157680664,485.29532213437096L181.5151708678805,483.9816553612768L181.6206287008996,483.6756135928238L181.88024420559088,483.4386825760113L182.99733797331658,482.8530586750772L183.52344821452857,482.4468054091712L184.03430525388296,481.8098054444433L186.5322369897665,479.36678965370936L188.35880824636916,477.9319534780258L188.5960275987655,477.68576597283254L188.66706642681459,477.4921557802876L188.91032764227378,477.04169511914967L189.08815373766726,476.7571529447323L190.00883852234608,476.394851508434L190.3060723101089,476.07194520070595L190.401795187932,475.79644533167743L190.51729634834436,475.49587309447696L190.70846096578532,475.19644225702933L191.00918810527588,475.00936062419447L191.40052428857246,474.9976336294121L191.88064041521778,475.03945899198874L192.73843424489127,474.8646952846604L193.0652970039098,474.86904574456656L193.84978864872073,474.9171077072876L194.25602758719225,474.6423585769303L194.4876741741748,474.28292395973216L194.53357548457802,473.80791828858986L194.50525874963284,473.37810315050024L194.28305013930924,472.4688012719691L194.2506825142155,472.0283682394759L194.414417002454,471.4012524946624L194.1524234005695,470.1048596766338L194.0443591265112,468.89015735291713L194.26818629260686,468.053512578275L194.26885777786714,467.672282339544L193.92527231568425,467.21054170817087L191.7812388710712,465.1328275960747L190.34896045007457,461.4728411469131L189.8357303042783,460.54227147954043L189.31078769097297,459.800417475081L188.7518670919536,459.2974445435348L188.1641049589528,458.906136909683L187.41877493177327,458.5844274341722L186.30916089584116,457.6636432871297L184.36121033792813,457.3966746559601L182.6990154716358,456.74847976364936L182.23145897740733,456.2305743468198L181.66116471466245,454.9170901896438L180.22532607185434,453.3582871817355L179.78024509945772,452.9306750319904L179.23570755271885,452.5761120696635L177.7366122351557,450.6435013922667L177.30722169918,450.43188542049876L175.59119956661345,450.24401141553517L174.69257414477823,449.83879414997375L174.4478705850267,449.6145482422646L174.24780029333454,449.32841119118586L174.05972085896326,448.8526969505257L174.04416834096367,447.77237552804456L173.71618119413773,447.12922483379253L172.9128267801239,446.192782662959L171.42278795279498,445.1414402891209L170.51706038303706,444.5840840922307L169.5612056950372,444.304033539063L169.00303625339342,442.9427536420966L168.70733803838368,442.46636307348945L168.39720737440155,442.12723908219294L167.82683625474863,441.86875955525204L167.41879002504044,441.8485501868011L165.57406943945278,442.04403209530255L164.5508643655387,442.32311750204303L163.13543982263388,442.3949778007868L162.8594379171863,442.23917130252437L162.46129008375732,441.7923902403458L161.44881391547756,440.49364832871595L161.37243003370008,440.0616165080643L161.41449310663086,439.8098286239522L161.9803452641754,438.4451556166589L162.27356864596402,437.52385496504894L162.30795669363476,437.2196259752152L162.19202265224226,435.3853951355289L162.3385941730525,434.2550329662777L162.4963677864447,433.68425708727756L163.00662642890688,432.3734468833377L163.06543092692777,430.8444417955998L162.8122624336209,428.6422567961006L161.7213986201807,426.39145107791865L159.80226767170018,421.87960933176L157.55344026511926,419.93565560541435L156.63822546290413,418.0640362627227L156.6710004177379,417.38390650479346L156.63249473606112,417.21162752581665L157.00358729085434,416.8394261893371L157.31105112110941,416.58649684648776L157.46072248626848,416.345699835837L157.5421433976952,415.0044264541846L156.9703546034832,414.2827190439504L155.65146375594827,413.0896649644434L155.35936652385686,411.63096490175406L155.35295221241137,411.40559220415855L155.5740897315506,410.3041115172463L155.4491156008719,409.5871432197633L155.09889664658158,408.9053610181228L154.42089899072863,408.063693901124L154.14444068168382,407.57008042681696L154.13763466238913,407.0983493281094L154.06762625299126,406.6961322303057L154.21690231387635,405.98795183442655L154.2305065007888,405.7975818560906L154.21492323728,405.5067210398653L154.13966414666544,405.21296655435367L153.933284169231,404.7576099773315L153.8659723317012,404.446523501633L153.8109480692168,404.0005245608256L153.67984036263954,403.6316783525106L152.98041091695882,402.2982224363286L152.60705314572044,401.38519624722534L152.30603230077622,399.617425664223L152.28073433141054,398.657731679457L152.05914825177103,398.01839500991156L151.91681978923543,397.74679052357084L151.6448470859545,397.56821047104665L151.1583581748797,397.4533089383858L150.5382559519768,397.1708513650364L149.90939859744265,396.63255447184326L149.38541501334453,395.65491844740365L149.25034322759086,395.5068510839928L148.74720932875522,395.10881478287774L147.75545614991694,394.5148975467485L146.83367059274985,394.0826303997584L146.0007621670764,393.5175730129672L145.43597274390567,392.75632665460364L145.2437725832836,392.32339637892505L144.8646637607011,391.7622844577436L144.35275390888972,391.1048101432987L142.9540589403042,389.99405074909976L142.10049663251704,389.17434113051604L141.35603986527514,388.29780897069224L140.60419716926077,387.10437173078L139.09908843777305,383.6449303743871L138.71238665287757,381.73014563623883L138.537117636679,380.14030701605293L137.99439948574815,378.32331457503267L137.30027545751932,376.70687067742267L136.60184299102576,375.7645590334708L135.52826846307732,374.68279881402486L135.0592096082812,374.2929008503843L133.0058325585614,372.98002823191507L132.48041511748409,372.4790870188457L131.62395868503324,371.34094971712545L131.1789124485877,370.23661605890067L131.08947940269263,369.88252863399964L130.9653422478442,368.10622813058933L131.00017765053838,367.54544715808186L131.22792010020368,366.5510005792678L131.94584149956341,364.5921762405618L132.02884069007996,363.8377392889754L131.7456484551978,362.2727077453595L131.77225069175563,361.71564765491064L131.96637774340553,360.7305180410812L132.36509032639748,359.41945866850386L132.39996876334703,358.7012634857239L132.40934392077287,358.40919545280326L132.21196621630156,357.3247082729777L131.8347000143629,356.0478731862165L131.84940289301124,355.01891571418184L131.96779170945308,354.37874118698915L132.7022518859339,352.4782484899957L132.8682036388226,351.60169720807437L132.8933361693969,350.6548158012963L132.81795826972495,350.1795844020072L132.4640198659141,348.9479076287162L132.02717716283752,347.81491721683483L131.945224102037,345.8699882018454L132.16416803630972,344.59120326364433L132.84464938416386,343.10380946624485L133.62060309399828,341.96554560798995L136.49516717662715,339.76506036137414L136.95414913894325,338.91593757711723L137.08667406753943,338.2025459529045L136.8928434614699,337.1621417242951L135.83121171928155,335.7430767020909L134.61422928090735,334.7552071124836L131.94417295751873,333.32995279227134L131.46093369651948,332.4187375990101L131.819464641555,331.77183904203935L133.8659438405761,329.8364136952689L135.24453814092573,329.3528688383625L138.03775385847086,329.59187610583217L139.59219051653628,329.2289263498609L140.8746912764139,328.46547137668813L141.73528040589673,326.8631674875025L142.36505854313776,322.88156278226165L142.5791927662587,319.52318449201175L142.33402172768137,316.68902292428095L142.01311917131613,315.7977116557841L141.35515916574087,315.14740551259615L141.04114084286493,311.78626098797486L141.16933461497513,310.44758233417394L140.83242013394778,306.4275113474024L139.7294598652818,300.67351856650055L140.1768169936778,296.03747850485536L139.29081754022212,291.3231382348348L138.46686853682422,288.73331518504443L136.7056244711411,281.9841449381258L133.54565842550107,278.58507897028755L132.3209156831557,276.0405359714076L132.04828655514808,275.16148326388907L131.94572198035246,272.3000262846601L131.201091681744,269.8179105204498L130.63651061384076,268.46688176840667L130.5158103344333,266.7746454432963L130.89858293319423,264.57456468610803L131.3901398662714,263.8766567654827L132.8747334461434,262.8686957843354L133.6065077562302,261.92013420512336L133.78649604644374,261.2882246021559L133.73679898511153,260.95680627249953L133.38788735813108,260.46188024601474L133.20056806515822,259.43280475622026L133.22231116439212,256.4421601682985L132.916851370252,254.14383686741255L133.01250332737408,253.68006771685063L133.87820600999117,252.56443304497458L134.67045647642385,250.94573706538L134.90248213518714,248.7889075181415L134.33359266667134,247.39567926049222L132.00765459919978,243.59463784657376L130.45534266042029,241.88343808017163L130.489382019353,239.7046920713931L131.64308164019553,237.54805465370708L131.91841896744347,236.36371126377884L131.60586407170467,235.7071398094227L130.20605736033264,234.681437278027L129.31360192287167,233.64939179748762L128.81628593938524,232.45752221150312L128.85804827343026,231.9179511122233L130.11161816124394,228.3562625065451L130.51589061490102,224.71757573330356L129.87167224976724,222.5340440470079L130.38492555547896,219.09926420628733L128.77132375606107,216.38952380077416L129.09769678456024,215.75061282828364L129.95803115938378,215.0742283483595L131.1566847037434,212.5104341653241L131.09119975515614,211.98499371431564L130.71701762700195,210.40761251926358L130.7607419444409,209.5757548676038L131.09217499698713,208.53163014039103L133.2525509713899,207.260999464524L133.62546153745927,206.50352815159243L133.84275827105785,205.8705807885948L133.95836901597903,205.42168962792272L133.91083424419446,205.1539660845557L133.78926956415637,204.54108388635854L133.55902626296876,203.65731983086505L131.16356208814278,200.84240252531583L130.16274962365577,199.0621579196913L130.42934492227045,196.49569724478158L129.40620103891092,195.35224550236939L127.65656808509664,194.16119172798352L127.43977471221405,193.73958779325062L127.92276116587476,191.73794431304674L127.75921298333134,190.76387999907854L126.46769602602222,188.48827689862776L126.13202125676946,186.92437351830932L126.38630094843086,183.42752259393984L126.47745020747112,182.87021799505186L126.80487831550897,182.3353331613706L128.11497456025484,181.0089247528656L128.36169432398157,179.98987981327667L128.2928601882333,179.47034791186945L127.818569187033,178.73072314115382L127.16544023446016,178.33879077023278L127.03283135456581,177.8157299155115L127.08794146509382,177.38206625641118L127.13637433075155,176.47186725899974L127.66053062567875,175.66639760092903L127.76027366596975,174.9971613389754L126.92976233032368,172.9782817202916L125.58843482054749,171.4493505673612L125.42370141485549,171.08689588780544L125.45550364294814,170.17790935179607L125.7474512505899,169.61439497012987L126.6671010946751,168.63260005274907L128.1698121223717,167.50799615980696L130.68613305657288,167.09823307065432L131.6781182740583,167.14137939800804L137.45830778009923,165.8729269931793L137.9609936979595,165.47548247120204L138.384051477696,164.80823913589757L142.25666913222688,162.03740221871448L142.75445781926106,162.2745599095262L143.46707167594718,163.76375110639486L144.13387011834442,164.12969260054507L145.2766088905929,163.55856003241877L146.80023272944777,162.3023652083321L150.19543578500316,160.91904039241388L153.65702210310485,160.9879486017457L158.13391211707864,161.42094072636576L158.77235833994882,161.89043021064896L159.02514106423644,162.33587413098786L158.97448330491773,162.8591457757209L158.86036897829678,163.65782570536112L158.7378830932435,164.11578384543833L158.76191938151203,164.64277454170752L158.92274620328055,164.92920404140386L159.21432475640103,165.0980762172248L160.00432952206222,165.29152407266332L161.21407388089023,165.09781188220535L163.5133358135041,163.67156246414362L164.37882031585588,163.56730135509446L165.06418824287283,163.78180438307572L165.6669564349977,165.0963339441725L166.24862298323848,165.83024137675142L166.51522433381552,165.91503557176765L169.15748029884418,164.35147943940922L170.5775123685985,162.8728624938044L171.19209993023446,162.65795267243982L172.10178339932827,162.68198958612874L176.4655495418201,163.58365572463202L177.55303181692142,165.7387834915499L180.79057278443713,169.52426798166914L181.89195724835741,169.98712691959605L184.40307980674788,173.87433711214499L184.70186740591225,175.12501344336675L184.3925274889889,175.6984091192145L183.52257777261974,176.42301189696332L183.24512307090168,176.9846154326499L183.2909133962185,177.57824025151683L183.48280163823875,177.80450743472636L187.8609686177905,179.9353646328521L189.04457040385068,181.7304483486085L189.51517513440592,182.81253982475852L189.9631756663614,183.37298201833454L191.30761360564156,184.37348158266917L193.09681364174037,185.37527064802987L193.82293588080518,185.4521034013207L196.42235520978585,185.3504798538022L199.27674908509596,184.59525534753521L201.37943244899373,183.59722454842847L202.74859718985687,183.64237907592127L204.35093835934902,184.34594238402104L204.67362753369923,184.24510537068778L205.16477197718905,183.70158547856153L206.57724692828305,181.59033921169106L206.7496128532814,180.69754254087871L206.6601374590565,179.65041254992553L206.8767710004243,178.62789010276924L210.0769919582974,172.91580816584576L210.1374879366536,172.62968452158606L209.730022884138,171.97273215557692L208.99669641118481,171.31141268443025L208.9095282644834,171.01838616474873L209.0542669030384,170.19684240119346L209.3761651571794,169.71663678988034L210.7117175980959,168.90997304539803L211.7408484667988,168.90422616989474L212.19300471745248,168.6815923171219L213.7878834397539,165.0325620507807L216.79200762964956,159.22711422479205L217.8681400930882,157.84990154500275L219.67257919233276,157.15536983766935L220.02883353046525,148.80864312828265L220.0169869470617,147.93509083674172L219.99252112213742,144.94799801538022L220.0937235423644,141.56796917542425L220.47477630892922,137.3630764113853L220.4574841261288,135.7097164754215L221.12986206730938,125.04891564369149L221.4744065448274,116.59756786941381L221.5921293288186,111.63334250111001L221.5096465636538,107.3051566413144L222.16568698639514,87.59875846834046L222.12540110748625,86.96779924970969L222.28313520955805,81.88186017481843L223.23911875066074,58.508082262836126L223.52403151755914,51.5393545807994L223.52411825311708,51.537245410401L224.36915558814792,32.951810289409536L224.57468979110757,26.04048990591599L235.53219443514462,26.542982279554735L235.53187973335088,26.550922365947372L364.9188322533928,30.52747389368824L373.60918829567004,30.70130769163086L411.113174720893,31.336131808648418L417.6940737884749,31.450522397887994L419.49186870071253,31.47125648199807L420.1038063397769,31.491078901371736Z"></path></svg>
