<svg id="AZ" width="1000" height="1000"><path class="state" d="M84.9381384621866,763.2016653911271L85.22787421777292,763.0511743855192L85.81363157460316,763.1918961832823L86.16275565366209,763.1532345573413L86.5281000031149,762.9605503000278L86.88661887820246,762.6820762221688L87.01341688904625,762.1709513230564L86.75794646281446,761.873410641623L86.17927632386863,761.7916631942372L85.87658805829011,761.5029813197916L85.98558814794376,761.2110763192708L85.75294166624201,760.7448446057182L85.69913406459557,760.6778731519948L85.51862201785588,760.4531903430618L85.936389438182,759.9379925232508L86.56094391106996,759.3764175202626L87.20917321844644,758.529388158619L87.26071408723828,758.0172688629605L86.8893405410463,757.6249696279924L86.75465540816128,756.9942109090063L86.78337853140022,756.8253968371989L87.07534449585131,756.5629568435116L88.27454341915382,756.1298350541451L88.3336465494038,756.083722626385L88.55237460370932,755.9130632134784L88.81931482523686,755.4747559368361L88.91102198670978,755.1393760057356L88.8826438158153,754.5244091885413L88.70689701417774,754.2909365832089L88.94444336501232,753.6017489625956L88.95945590556795,753.4835887889485L88.98090788647738,753.3147423165906L88.84548281252427,753.0530864373652L88.64187577070874,753.0905393814357L88.5324434358929,753.2798844066168L88.4712637341936,753.5756675288319L88.11233585319172,753.840999058847L87.66683257443128,754.0253086746409L87.11681145193961,754.5535320182153L86.4624404721547,754.7600378892241L85.94039410013738,754.5502414158739L85.81712591216115,754.2401676651751L85.76877819256941,753.6531694611897L85.97438609903077,753.0023627809342L86.5279276120022,752.6803146957309L87.23137451003515,752.3560517031652L87.62116119856108,751.8590971917139L87.69970535522265,751.4840337689332L87.38237329557313,751.021358760627L87.38346598881452,750.7234861456442L87.5713189138097,750.3235677620337L87.93736753597295,749.8368421429218L87.96233585546167,749.7129844364778L88.07541918068654,749.1519948618461L88.09650659372494,748.9093307989183L87.87806752499705,748.0574935995837L87.7699439371483,747.9198963242345L87.27577207150864,747.6643029662389L87.01487805683149,747.3014692123108L86.90986268678733,746.2780490791854L86.93760634504474,744.8751740430107L87.26101718871456,744.1813722224592L88.44343602062565,743.6076900176274L88.68481477663022,743.7117215872838L89.15647938579849,744.0929745396527L89.56513704231446,744.2239355121764L90.91505146023025,743.7547302797452L90.83500615089861,743.144942077258L90.91131841843412,742.8820830504364L91.05797369587134,742.6800104512288L91.24472028251682,742.4764272248603L91.37069606171804,742.339087069906L92.0630208065026,741.9902438069129L93.55776280582762,740.923994340782L93.61857447111129,740.8093963755578L93.72768630628491,740.6037711448407L93.71171619220837,740.370009911472L93.51010227798446,740.012632154434L93.53904350759393,739.7872404301224L94.53347343015332,738.8642085186054L95.29907330432945,738.3780094751943L96.07727847344444,737.4274216273934L96.13088955385507,736.837845928403L96.25556966723519,736.6055783030449L96.52664566950045,736.1005494150583L96.70684599837199,735.0156171159244L98.87910878051116,731.7279103516838L98.94501609994762,731.5910329006782L98.98062660310836,730.8126542528711L100.09954693023366,729.3922933710769L100.5918187544093,728.4581801661901L100.8965750191818,727.9866901388154L101.21744828486447,726.9738899949814L101.30884106581823,726.7788219358625L101.42041818671811,726.5406622698479L102.76744969690714,724.7246195536488L103.34071172548937,724.0859864653871L103.50759030274037,724.0832637329893L103.77700690085993,724.2277319487537L105.12935022907465,725.509705118402L105.76510750448301,725.5668012273752L106.55591094814838,725.7645209470096L106.77047113172478,725.8427143350948L108.11115124409537,726.2497837968008L108.39415436046704,726.2802197320191L109.33235265264187,726.3810473586549L109.41416994361424,726.3905890702964L110.52267919638871,726.6026108720785L111.12256419523897,726.7172825086916L111.13553723040161,726.7197618638497L113.0079665092382,727.0773828133812L114.15248528108526,727.3878277259644L114.15417213135419,727.3882851426331L114.16999014355258,727.3925744331389L115.01125140367685,727.6206454527975L115.39570491165813,727.6077328629225L115.40768135112302,727.6073303169983L115.39530461964716,727.4411640326432L115.57207469444029,726.6637496527045L115.86950793363883,726.6071441044277L120.05246545948489,726.7537980501239L120.0619629052436,726.7541285590711L120.24883733434996,726.7606294701043L120.31934254940768,725.5200155299764L122.75737116264139,725.6486919005708L122.82831028635707,724.4282552553406L124.65951169867446,724.4991830542754L124.66126897665771,724.4992509188526L126.39978759565986,724.5662032220793L126.47906872952672,723.3663384194939L128.21171256397378,723.4293392087669L128.16682275534902,722.8694171312426L128.07349505714035,721.7050258420937L127.65353802825018,720.5053130731254L127.59110412429504,720.053738599478L127.73547794498569,719.1200272189425L127.82003251956007,717.6602852444494L127.96876986159492,717.2799687844368L128.26216357797807,716.818935089019L129.27144594392394,715.9646627579062L129.5201957592331,715.6564894174868L129.62655639808082,715.3079508863975L130.29271530699054,714.369809767516L131.0655932731517,713.5693473300469L132.31685172645695,713.0119758922093L133.00563137758132,712.705051631832L133.08409310940243,712.6740676914462L133.39849012874578,712.5275652361008L133.99912976509353,711.9805700446875L134.00318095341373,711.9768803365868L135.08256955750505,710.9936411788655L135.08593310894798,710.9905767386853L136.10167646768798,710.0650167488989L137.13290845892487,709.0270783537158L137.86221401432334,704.0663346532392L137.87463833624804,703.3287020743633L137.87653419468285,703.290216215861L137.96636234536402,702.6779169122366L138.42757738344721,699.5332899935472L138.50561094056945,698.5164645942415L138.43481911953762,697.8834317767553L138.33423352567615,697.634784723483L137.08944254277145,696.31623842199L136.70188566414419,695.7861609509841L136.40716259577073,694.9863614618945L136.1950554704747,693.803734605352L136.23519155547365,693.5068507819627L136.5864762032541,692.9302134826387L137.2467824763146,692.1892070519627L137.73373336509508,691.508997036826L138.00379343772084,690.9600170298631L138.22889615624024,690.3566453378389L138.32944114210005,689.6289815246563L138.3253921248794,688.5874803759325L138.17665942563423,687.6654847206026L137.9167315409208,687.3555875623463L137.19796199059607,687.133605878471L136.5852848833611,687.3562837033671L136.4454833556137,687.6188414965084L135.39811471659095,687.9234244095686L135.18573831098115,687.9231470890397L134.80586343346727,687.585130106165L134.64712244951704,687.1596349312466L134.48441439266867,686.1729665366521L134.3539216497914,684.2481920843591L134.1084224527346,682.1440677097235L133.73638427927557,680.9059350120968L133.326780633846,679.900024046811L132.64727432473217,678.781720612551L132.17257043385598,678.2416358539508L131.9585327514655,678.0546287446782L131.46585025641167,677.6241188546602L130.98899455100434,677.4358161050251L128.91633507147793,676.9174100382684L126.84890686916924,676.7198795309649L124.27429121672094,676.1429817084264L123.78015107172058,676.1315201352586L123.33042286106536,676.3048293811362L122.86763917934525,676.7572176845931L122.35770099458648,677.45684252406L122.03472538887246,677.6566227470664L121.6351818879229,677.7567263794189L120.04733573124105,677.8125767582463L117.56236562858561,677.382467964079L116.59724933586307,676.9564490161401L116.25884353323596,676.6669532067085L115.4991280526666,675.2860105784093L114.79980823596281,674.1953939304173L114.52294078715624,673.9109259578033L113.92776026552525,673.542161666305L113.48414575055602,673.8788955619056L112.55011783839797,675.4542639614077L112.12889685853861,675.9842759089826L111.83664085331515,676.1640594770977L111.48715899919779,676.1446489079117L111.11227752977521,675.9167780760092L110.34062835630436,675.1903180247161L109.9736672128621,674.5126329196764L109.82046122501941,673.5565845215365L110.01957509810825,671.9457146918089L108.3577606577079,669.5369137985336L108.10446658173822,668.6568286506786L108.10542882153425,668.142773325806L108.23806749939172,667.529280048379L108.18903059475076,667.3304273760907L107.7089478493283,667.0106227641745L107.42064209850793,666.9212917479292L106.50349905018345,666.8485436972021L106.00875649317078,666.7072842230355L105.77171010344944,666.5081325417233L105.61109234199677,666.004832128648L105.65701269501784,664.9429036164584L105.96953365698278,663.6308142257601L106.39511837208829,662.2355818769175L107.5130581772766,659.3634714965497L108.5317356640237,658.2958725842631L108.98005089141043,657.5947797639294L109.39547034170835,656.6210355889868L109.77220418258366,655.4489985300493L110.21640828032832,654.7490928482753L110.33519747911066,654.1791772231794L110.1821819638647,653.0336804585575L110.39697618533324,652.2014191483111L110.90623505038349,651.0889071344205L111.00742751925554,650.4274556513885L111.05508284375105,649.9780629450302L110.73724931899807,648.0453774133598L110.69146369989306,647.3939040812203L111.13206817934508,646.1764524849004L111.53676512188031,644.7853636262198L111.58352175470822,644.136890768878L111.48510384662387,643.7314981074384L111.02074294947835,642.9015507903899L110.412602131259,642.0938836524789L109.56744564009807,640.3141842664886L109.56111371053282,640.116056803151L109.76185453689658,639.8684787193397L111.74962438238134,638.692526138564L112.11169377757085,638.2244437378375L112.08529417015035,637.8921576476965L111.52285805438623,636.2340921047213L111.06668626267202,635.638058172854L110.54876146310079,635.1997145126657L109.17080064607273,634.4952755292885L108.01106167990736,634.0760088004241L106.85913080882233,633.7751578586823L105.9410594517417,633.4213822743213L105.42649357378122,633.0874809340588L105.21404278470777,632.8919588567287L104.22915730591006,630.4298318402465L104.24374815953234,630.1612694181139L104.44342516767699,629.8857185932711L105.3789642177901,628.8678835211632L107.24909953458842,627.5422872468007L107.66988855938166,627.0926172742611L108.08906661459321,626.385819429433L108.7729689426697,624.8709234365681L109.31601872885653,622.3118173241236L109.33394218277732,621.6195331251807L109.25129507034535,620.8481258583555L108.23074194558592,618.1975803865241L108.31382617754798,617.5302272884621L108.28882324071054,617.2089396566741L108.14984172117636,616.9323827285655L107.46140404983095,616.2064206863994L106.26160368536102,614.3779133433926L105.95580454160324,613.7641249369478L105.93727156414514,613.4757637474547L105.98148125684122,613.3118218099179L106.19755745544683,613.0747855793951L106.73501613420785,612.8755951753308L108.01137212443803,613.0506748919015L109.29782279489422,612.9291808856692L109.88222497671887,612.5321197424423L110.01827132241255,612.3474048258273L110.07779971933917,612.0199851613576L110.20575421084396,611.8477509424731L111.30539941817483,611.4339010986133L113.2691520391437,611.4782602645834L115.38829049909077,612.4720442812887L116.16232221611585,612.5317525013731L116.62736972523544,612.4369204935426L117.52502107625116,611.9621919625257L117.85928013329357,611.6968625519924L118.70999767095765,611.0214535040449L119.53039159423679,610.1570285031725L119.92827222535863,609.2699657632369L120.72505932840562,606.9644233335723L120.63008801843142,605.7978970100552L120.71454562783259,605.4552533408591L122.29365265300044,603.1566198116548L122.97391110672356,602.5105490699514L123.88706459123898,601.4586436385275L124.18851231349828,600.9848386065628L124.34289822739606,600.5757788524029L124.58155571955598,599.943371135958L125.45510120574102,598.5159242587026L125.94265641328315,598.0367836261687L127.05936761645347,597.4219942590839L128.00328551142906,597.2896391247205L128.605866411009,597.0396546935903L129.86324328137846,595.8442302933696L129.93347390339522,595.5910807407034L129.94545861730631,594.5765900126476L130.18450643305243,593.5187602150992L130.27856486311924,593.3401881379386L132.7192626555381,591.6785178999633L135.22436502503928,590.1722136862847L135.26545996899222,589.9312098344005L134.9571865681679,589.2825000837427L133.82365548581777,587.3304451654958L133.7848579510295,587.2672340908291L133.27823048641028,585.3235457943487L133.32495713844344,583.5190362061962L134.51430068031965,581.8128643063915L134.8075303766753,581.3921022375448L134.8276715841634,581.3631995612743L135.04199152734708,581.0556372998294L135.39439718593246,580.7084041269889L136.06963087568562,580.3329935635704L136.05267695052197,579.8477977195838L135.34264013419505,579.0926653236074L135.18284426281338,578.5429517949913L134.90462502869548,578.160614702638L134.9562182087912,577.4937307332123L135.0731531966503,577.3119119850435L135.63091444798437,577.1354751390402L136.02480014845617,576.4123461871872L135.90576044791277,575.7124163366933L135.85354431976828,575.4053578598763L135.4243968964219,574.9675801699605L135.30313498277008,574.8438684864252L134.8323678330479,574.0538768774438L134.8622473784888,573.5173433409255L135.24828569990922,573.0682828125555L136.0132613654215,572.8594645556152L136.9609993900326,572.9088949475162L137.50298149531403,572.5869458162113L137.59070807025847,572.2292687168134L137.42856465808603,571.9111348351471L137.18901774426428,571.7580330379146L136.69326061600293,571.7660279784657L135.90247191495342,571.5259310772346L135.39563882520474,571.0087101527372L135.16211319419608,570.5152302584497L135.29067147209247,569.6177363381124L135.37230262389966,569.336250329932L135.48838731344085,568.9359350958064L135.87327411920893,568.3802456087908L136.43050396993607,567.8739833560818L137.1246063208373,567.4750215947354L138.0782349045184,567.0530142427134L138.43674496749264,566.9709400554109L139.12168226620764,566.8140877021422L140.33370746298118,566.2258118566025L140.45337653097482,565.9721319305424L140.7427543942535,564.4038024028837L140.6988754230942,563.3138330200296L140.507154341442,562.5145993709174L139.94676461851816,561.9772056175332L139.70675605851017,561.5675171055709L139.52545277484057,560.9784166876457L139.1822053720038,560.549728149436L138.7151924556784,560.2544096264719L138.4435983400586,559.8952811412988L138.5101749029762,559.7695141616832L139.0789892834345,558.6948515920187L139.42420272900432,557.9171462507702L139.673016172683,557.1518819043663L139.73743107727807,556.2556813444832L139.70124768207234,555.6147926514526L139.6987996772413,555.5714279815645L139.45227242347892,554.3120209474464L138.28593556047252,550.84367975258L137.91331793459142,548.9664620611209L136.9411954987499,546.3309767252607L137.074473542332,546.1325924840978L137.71312166241023,545.6990048176626L138.01266435503157,545.2043582186395L138.14612204869854,544.6516621346334L138.09758167187334,544.2490093171889L137.75311425620464,542.9720547388739L137.48589581467962,542.4092364560064L137.0034477966991,540.8076081240481L137.06358025938403,540.1942986750508L137.19478255701523,539.7542341450467L137.21922024713206,539.6722640465375L137.30831471018763,539.53375159086L137.47177044997545,539.2796201241717L137.79096606776704,539.1086444444493L138.85529329745225,539.2214159467063L139.15521539508723,539.1499115078584L140.45113815707384,538.273359343405L140.7054440247336,538.0393039166134L140.8442734156347,537.6716623768652L140.8500584303191,536.500322787669L140.73485340752603,536.1835148621036L139.96574806092343,535.4952433810294L139.18457768732992,534.5626717984062L138.20760954710704,533.2613388783356L138.06558308741643,532.9218402066472L137.95978733211405,532.0191776984859L138.07819854671368,531.9194839580931L138.3654356334833,532.0189453644225L139.25037775321226,532.5992480110261L139.61392660982443,532.6105324539974L140.00620087890206,532.4398542058174L140.32786834362298,532.1987386150761L140.43704453058302,532.0084506495821L140.462943330207,531.6770391004746L140.39377785657013,531.2913524530686L140.02726031201485,530.4399049533562L139.12445685397563,529.3228275952312L138.207441201199,528.4839148698384L137.80156495936632,528.2297142723203L137.138445959251,527.8233629323211L137.09060393115521,527.7940425065948L136.95463087551565,527.4438514651241L136.93028061194906,527.3811356678636L136.9138841712837,526.3541053477586L137.96202925966617,524.2106619401168L138.948535334964,522.9581539200855L139.81664379082082,522.5873971762907L140.4465281713192,522.7965481476144L140.67784921291923,522.7707032768217L142.05154435727786,522.0843243589374L142.76031933183987,521.2779920732011L144.247415213995,519.9034622789276L144.49835587585636,519.544683552096L144.62369357016786,519.1447057356011L144.75363488881118,518.9710412477233L145.5446638542926,518.4826144392097L146.23186608113696,517.9135121331223L146.71340007956508,517.1307472850286L146.95880162419928,517.0447474456247L147.50077922415232,517.0751085720001L147.79879031512263,517.0153285543815L148.01791824831702,516.748141538419L148.11945510170682,516.3755260320581L148.10117174356174,516.327440537397L147.97763928182303,516.0025341494854L147.74217094281255,515.7844932200885L147.0308511240018,515.3112894194835L146.89949328996767,515.0873262554229L146.90494875119867,514.7108838512128L147.1456163923208,514.1331211876194L147.33868793116335,513.9767292936098L147.50482313267077,513.9386897290576L148.66991763240844,514.2107841744215L149.3171059919713,513.9746438925796L150.22626361749303,513.4185147726059L150.7038992789394,512.9162096575076L151.04372953589393,512.3860476156605L151.37652258417648,511.48991714157614L151.6229978894512,509.8852682357182L151.5854357009215,509.07845975182096L151.2198670707043,507.79609517623L151.1381967798522,507.1914981326996L151.1801967488044,506.51328139472565L151.52148841862777,504.19020489341096L151.89446319280592,502.9106510134595L152.1009506180216,501.7926659300542L152.12777722475403,501.6474041020991L152.24632182141949,501.48092107640235L153.0182088708512,500.7897319469329L153.30799099074954,500.0950715467553L154.1393927234036,499.0653191128486L154.80429746284506,498.40288940408203L155.40487025665755,498.0329173718158L155.62397701787972,497.97474688158485L156.20644802169835,497.82007418760594L156.8385644366046,497.83167524541307L158.3099400009189,498.1629916606524L159.915144110975,497.2561950806677L161.29391697112737,497.0668819746409L161.6840251859977,496.90914687074775L162.56475524351077,496.1178526527613L163.17236749039336,495.00567029344984L163.65291020866664,494.5800884752182L164.34792052063221,494.39012108850045L165.98632571791921,494.5371781787111L166.60411592628202,494.3916815482313L167.59352287090036,494.1585552138756L168.13030982740923,493.8711871520531L169.35588243028246,492.9057247424665L170.81979181668362,491.0867444486631L170.92031101131357,490.9618113835114L171.28081026410376,490.5137200508803L171.28196281775928,490.51228736876044L172.19016802551135,489.38316942275355L172.9765031993158,488.78617803317167L174.64127157007727,488.5925125560902L175.58838618382703,488.9584824661127L177.55652976968565,488.4451789671038L178.96694655771785,487.5447229641266L179.47183359849595,486.9672756601338L181.00996713825793,486.4213693679633L181.108656490763,486.3426315168943L181.39262704644153,486.11605617639947L181.71745505692093,485.2937149726441L181.6496137568933,483.9800469856065L181.7550725233025,483.6740052714161L182.01468888964746,483.43707479149765L183.13178515898318,482.85145353983154L183.65789694150868,482.4452014197801L184.16875615242378,481.8082023780046L186.6666966421136,479.3651916248449L188.4618997182498,477.9550112970351L188.49327332529458,477.93035940813684L188.73049354927974,477.6841723701447L188.80153297212877,477.49056222339135L189.04479563275976,477.0401018858221L189.22262266006243,476.7555599830255L189.56610840609795,476.6204106297961L190.14330917693462,476.3932608257453L190.44054409753818,476.07035509199L190.5362678178517,475.79485527296515L190.65176990615578,475.49428312109836L190.8429355078531,475.1948525805621L191.1436634049416,475.00777163812126L191.53499992876363,474.9960457241031L192.01511631662328,475.0378724569654L192.87291130810598,474.8631110018646L193.19977431222082,474.8674623759029L194.46690249283517,475.2110322241342L194.77086669076914,475.1283708504339L195.02809282236217,474.81939729410254L195.0829680962562,474.4322139487308L194.63974134652256,473.3765226204931L194.4175350951699,472.4672194060372L194.38516867192368,472.0267859360552L194.54890503691274,471.39967015285833L194.2869148407616,470.10327558146946L194.22643098147978,469.42343293475085L194.17885386595992,468.88857199702204L194.40268354017093,468.05192718459523L194.4033560881947,467.6706966462064L194.05977164068423,467.20895469223257L191.9157422858081,465.13123296318093L190.48347291868185,461.47123962343L189.9702449553406,460.5406677883565L189.44530398943056,459.7988117333813L188.8863843456483,459.29583684666926L188.29862283397318,458.9045272663068L187.55329310894257,458.5828154614873L187.26537400317636,458.3439234682397L186.4436807511721,457.66202749564L184.49572938533453,457.39505323586985L182.83353499768157,456.7468532077753L182.36597957034564,456.22894607941066L181.7956885026607,454.91545929144144L180.3598530449401,453.3566510524126L179.91477290499034,452.929037325517L179.37023590829102,452.57447256822604L177.87114475886614,450.6418561860939L177.44175446715502,450.4302388535036L175.72573148485418,450.242359936738L174.82710646911391,449.8371398545292L174.58240333581261,449.6128930888642L174.3823336778434,449.3267552541715L174.1942554124863,448.85104011157676L174.1787058781369,447.7707177818356L173.85072025237025,447.12756566329324L173.0473677916362,446.19112051511746L171.5573306849136,445.1397731685301L170.65160393382382,444.58241401487L169.6957492555223,444.30236058876847L169.65180513538098,444.19520355372083L169.13758313731,442.9410780537465L168.84188600457617,442.46468628376937L168.53175603093734,442.12556116127803L167.96138516922963,441.86707984721045L167.5533386678852,441.8468693325811L165.7086160603435,442.0423462907687L164.68540939292672,442.3214290894322L163.2699835156891,442.3932855291681L162.99398181990563,442.2374781423149L162.5958349030367,441.79069562023255L161.5833615143078,440.4919498655866L161.50697876600663,440.0599174867079L161.54904256906082,439.808129516652L162.11489895564637,438.44345697736117L162.40812512144169,437.5221563955645L162.41208127330373,437.48715803980053L162.44251403822926,437.217927255991L162.32658497637482,435.3836946183261L162.47315974144465,434.2533319430787L162.63093506063746,433.68255603994686L162.8965008117121,433.00038885922237L163.14119774028666,432.3717461890152L163.20000651458417,430.84274002832433L162.9961275209817,429.06935894102907L162.94684390650076,428.64055254685786L162.78882439902486,428.31458150356343L161.85598543236898,426.389741988748L160.62669788378162,423.5002505813271L159.93686539507917,421.8778912748836L157.68804152857706,419.9339297549799L156.14785926275323,417.893231700791L155.88724157154957,417.41180410074367L155.91242698640303,417.1814223408305L157.1381966558173,416.837696297528L157.4456614352556,416.5847675972683L157.59533358742146,416.34397080340096L157.67675826878917,415.00269655153824L157.10497100003306,414.28098697303676L155.786082367645,413.08792827777575L155.7584543763059,412.94997761657885L155.49398892224593,411.6292262156686L155.487575227486,411.40385331589636L155.7087159673431,410.30237233724654L155.5837437127562,409.585403107409L155.23352635263439,408.90361938050063L154.55553046287292,408.0619497026479L154.16446383082354,407.6998005024508L153.57741765278587,407.21195260554373L153.43352857938697,406.9366934848998L153.58603602774087,406.5950052242855L154.4645441653321,405.8226967945343L154.54905040834666,405.50786621238524L154.42376716707037,405.2087027308305L154.06792436064814,404.7558617187284L154.00061332579577,404.44477480159856L153.94559024815794,403.99877534223174L153.81448345100125,403.62992846890114L153.11505710689158,402.2964695264054L152.7417015456117,401.3834415558559L152.44068532621117,399.61566868569497L152.415389981612,398.6559738393608L152.1938054814524,398.01663603121017L152.0514776500583,397.7450309282675L151.7795052143934,397.5664499786089L151.29301621820764,397.451547010241L150.93549343100597,397.2887015443303L150.672914261517,397.1690874947161L150.381211027085,396.91940410923746L150.14207812559675,396.7147006754092L150.04405787068868,396.6307884240741L149.52007654691886,395.6531501480379L149.3850050573837,395.50508229011734L148.88187183892796,395.10704427394023L147.89011947552183,394.51312381517886L146.96833434602416,394.0808537723958L146.1354267867285,393.51579362501695L145.5706389914015,392.7545450818717L145.37843986317165,392.3216139186913L144.99933227078776,391.76050048937725L144.4874238040175,391.1030242214487L143.0887307317505,389.9922600583271L142.23516997053918,389.17254741211786L141.49071499591082,388.2960124776705L140.73887495686574,387.1025721796059L140.35647171127647,386.22390063078296L139.8531550627174,385.067112454786L139.23377448240626,383.6431238095394L138.84707763690312,381.72833641385853L138.8041481690247,381.33898537407856L138.67181284264763,380.13849598633806L138.12909923021004,378.32150053753554L137.43497906171115,376.7050533825212L136.73654859881253,375.76273903246243L135.66297614250828,374.6809749601846L135.19391796532892,374.29107538252356L133.94264207864023,373.49114511522714L133.40956911034135,373.15025569465496L133.14054279876393,372.9781960294106L132.6151262917664,372.47725295510895L132.26057312050676,372.00613222423885L131.80534313050185,371.4011426548726L131.7586722633066,371.33911234999414L131.31362868225233,370.23477654480786L131.22978868152035,369.90283042134956L131.22419653233868,369.8806885774754L131.10006414422475,368.1043862418782L131.13490111390195,367.5436048935762L131.36264648192912,366.54915810301276L132.0805738571135,364.59033408411324L132.14491045655888,364.0055551583188L132.1635751864569,363.8358967244752L131.8803870043272,362.2708630846878L131.88937680718033,362.0826249028087L131.8905230261451,362.05862409193304L131.9048092885547,361.75948158150646L131.90699079077552,361.71380259715045L131.9959631039211,361.2623240145388L131.99625695320196,361.26083285927166L132.10112070749852,360.7286726839553L132.49983722230513,359.4176132969872L132.53471765807024,358.69941760264425L132.54409362428026,358.4073493484161L132.3467187263638,357.3228607098089L131.96945570559626,356.0460235075911L131.98416141751613,355.01706520396567L132.102552089298,354.3768904585766L132.83701809923434,352.4763981624181L132.86534885448225,352.3267670629821L133.002972396259,351.5998465909479L133.02810754416396,350.65296444833257L132.952730883257,350.1777324383074L132.53288542690382,348.9803158300603L132.16195558530546,347.81306107308365L132.15803766861075,347.7201095744726L132.08000778515958,345.8681301760571L132.298955410853,344.5893447469835L132.9794414163028,343.10195154453027L133.268605915254,342.67781008651525L133.75539890932419,341.96368884032063L135.1292784778695,340.912239372567L135.14421772054726,340.90080361906683L136.62997148537107,339.76320959226877L137.08895616977867,338.9140873393387L137.22148316863104,338.2006954670678L137.02765524977406,337.1602898144774L136.56683952765087,336.54439199915726L135.96602648769266,335.74122066305154L134.74904571224658,334.75334688866377L133.0346949890951,333.83838693196014L132.078990999807,333.32808402695036L131.9827777040445,333.146676002248L131.59575381934837,332.4168667264099L131.95428684480407,331.76996859498354L133.29534456076948,330.50183546240675L134.00077310867096,329.8345471883182L134.85975731834014,329.53329370073044L135.3793699225131,329.3510056927384L136.31023450113395,329.43077225843183L137.51546987041007,329.53388259927976L137.95911516471602,329.5717898261969L138.17258739315997,329.5900208244638L139.72702638740287,329.22707501913305L140.50822682963212,328.76207927672897L141.00953034859822,328.46362290589263L141.8701246182556,326.86131999443586L141.9666095763596,326.2514857301755L141.96924306689874,326.234839935674L142.499914227077,322.8797135723205L142.59584090723007,321.37540386487314L142.7140578519299,319.52133295684246L142.4847337300364,316.87034986177605L142.48406888391338,316.86266114229727L142.46889437692113,316.6871682533504L142.1479939867233,315.7958553289486L141.4900351923684,315.14554681477034L141.17602581468117,311.7843984996023L141.30422337001653,310.445719028973L140.96731961829977,306.4256436036568L139.86437415621816,300.67164275336853L140.31174438422806,296.0355998391774L139.42575706709454,291.3212529817448L138.60181442955297,288.73142538472973L136.84058728280576,281.98224433031373L133.68062772808696,278.58316669263365L132.45589085386587,276.0386180775376L132.18326388639713,275.1595638407399L132.08070704347125,272.2981040267126L131.33608286416762,269.8159840076596L130.77150498333197,268.4649525032407L130.71020468644593,267.6055989061641L130.65080922021178,266.77271433213866L130.7002910344338,266.48835249171725L131.0335881743339,264.57263264738486L131.52514745596773,263.87472544342484L133.00974512462034,262.8667676143897L133.74152268574562,261.91820718282577L133.92151286545686,261.2862975034924L133.8718166654732,260.9548787397541L133.52290607746767,260.4599513139705L133.33558942884815,259.4308743855114L133.35734072206202,256.44022716081975L133.20729777999276,255.65393841110847L132.99498900014697,255.11427480861127L132.72968222994518,254.65847844786867L132.523301483338,254.4398049120227L132.32262682568546,254.32727420958656L131.89930401928206,253.94983978918543L131.79256494073582,253.76675956434167L131.80867568469336,253.6732595511547L131.9038224394265,253.57649031755298L132.56804747893818,253.14782364529339L132.85813015788102,253.05216464724396L133.38653389789403,252.78400378887252L133.78720574691658,252.7252905473423L134.008387063798,252.62519001633865L134.80550236675737,250.94380304761606L135.03753413138082,248.78697218018758L134.5798172473439,247.73517552935573L134.30542033303408,247.30919720515865L133.97463127778013,247.1029074828926L133.7582521269287,247.0801588381846L133.5329011007364,246.93979385745175L133.37362029523956,246.68226973007654L133.16240943694618,245.8527777292448L132.59091133576464,244.5951477732335L132.07752452045645,243.54246839089777L130.5904094814261,241.88148431967073L130.62445481988732,239.70273641943973L131.63378944251036,237.8160339647928L131.7781613814147,237.54610018483606L132.05350219406182,236.36175646539547L131.74094880558226,235.70518355778955L130.3411436150289,234.67947626750956L129.44869017822305,233.64742740751498L128.9513769920569,232.45555537395907L128.99314083659016,231.91598389469735L130.24672159238185,228.35429544500607L130.65100434697854,224.71560643217603L130.006791346861,222.53207097863094L130.52005449669218,219.09728937190044L128.9064585984442,216.38754206257846L129.23283367105114,215.74863138958375L130.09317068629252,215.07224863066796L131.21393704667025,212.8094071572856L131.36741594512893,212.23625001160195L131.2263487581775,211.983014227372L130.506629305937,210.7959428904353L130.01561904254442,209.41971894801725L130.4350756866038,208.85675430428762L131.22132048876,208.72002390187407L131.6742651549144,208.6155808419502L132.09643896012182,207.94940797150298L133.38771486952464,207.25902148967253L135.0359262137169,207.04985833569998L136.00698477072586,206.4234058697583L136.15348701045144,206.12706696917297L135.96670533159931,205.68703914182908L135.44874200439972,205.48061958650197L134.83837542919497,204.9191989219887L134.10394442022647,203.78442472921904L131.29874155013795,200.8404128741795L130.297933005618,199.06016387788958L130.56453555031032,196.4937015311383L129.9333235894793,195.8375949425773L129.02345433367833,193.6871917647623L127.91863245448411,191.18269331195552L127.89441673061253,190.76187163904876L126.60290475903963,188.48626288431518L126.2672339330843,186.92235712008346L126.52152338574086,183.4255035967197L126.61267424812831,182.8681987208189L126.94010412127284,182.33331427446223L127.42553742777534,181.9606719089092L128.52141499592807,181.11920545955564L129.3924614880076,180.19919017148607L129.50864194208913,179.9127668685262L129.32010903128833,179.5298394008169L128.8175445553798,179.1972369004552L128.21052909412634,178.45633194866355L127.78608908005634,178.3347467838359L127.21631741978717,178.3971098501056L126.96102720353008,178.00289862530138L126.9607255794815,177.05897060819478L127.27161641466768,176.46984373663219L127.79577539873526,175.66437474342143L127.8955203556938,174.99513811939738L127.39148945634167,173.77000846364837L127.06501372955717,172.97625432666058L125.7236891090248,171.44731807288065L125.55895653335472,171.0848626011143L125.59076126514123,170.17587528880858L125.88271068346234,169.61236116644403L126.80236407325185,168.63056781902162L128.3050795909757,167.50596694721202L130.82140403509482,167.09621032035398L131.81339007910708,167.13935939097263L132.6139579034109,167.08233681757088L133.58266387146068,166.78275589240195L133.9782451814878,166.47759788955142L134.24546831397356,166.4829219585331L134.70509744000856,166.68333094076212L135.08549002548602,166.9790434898198L135.39770332823667,167.09759859461792L135.7855009061807,166.9987297774946L136.4369304069736,166.3395115245239L136.8795604083499,166.0594080236998L137.87404777343937,166.056101091308L138.1760662710975,165.83586900564381L138.75888394125803,164.82158509565681L142.3919649436757,162.03540619240954L142.88975345891083,162.27256546871143L143.60236393024644,163.76176003342874L144.26916200985596,164.12770369775347L145.41190343298638,163.5565737054551L146.93553215920474,162.30038184366276L150.45049290641214,161.0066485852426L151.75523754174162,161.10122117315484L152.53100625269536,160.90292274109316L153.39076657954155,161.21959684181218L154.12606039203666,161.06425184761127L154.65191873027726,161.10790710784119L155.46282942870965,161.55404816083148L155.53392354626646,161.76067823822234L155.9870992774159,161.8303980652904L157.93085681533023,161.42864851495625L158.7356903519975,161.64520039397001L159.62342874128313,162.53865858500552L159.72021410723858,162.75436316407468L159.68643553163326,163.16579840168805L159.2961057493422,163.3850868881243L158.75081867729284,163.83290012248636L158.45785700656893,164.32434375836073L158.52900990606128,164.87312416715451L159.00161356140939,165.3420413590079L159.77008270881794,165.47395709651045L161.77459239466026,165.06362343658208L163.8440864967858,163.66471464046947L164.5141330915779,163.56536731584885L165.44311542939266,163.88223769954158L165.96935075451302,165.06451855281153L166.58108695539147,165.90126328613775L167.02571125050417,165.99281100045442L169.29279549451576,164.34955926043511L170.93145903729152,162.98567454602824L171.75138688530768,162.717704017681L173.16064078431452,162.9808447381427L175.3523451315666,163.81181253582264L176.00159905203378,163.57950857170277L176.174331386691,163.58016085897805L176.6008738414485,163.5817548846769L177.34284591736002,164.61379600610644L178.2154953027714,166.1623061608235L179.98315080470252,167.76921392094874L180.94524017189923,169.12941444150613L181.26482434359377,169.74021505393097L182.02726912310266,169.98524712819182L184.73543562934185,173.87427916845326L185.04915697787794,175.0186294186334L184.5677370019667,175.96326248005215L183.88984354426248,176.51391121523068L183.60731760642022,177.17199739587323L183.5830737675941,177.41518660935878L183.68238920750406,177.66109718292103L183.89471041365692,177.8977859335738L184.34219274024036,178.02888548840156L185.49626295474104,178.02038761457266L185.99090584500408,178.23781220920574L186.30935089210044,178.52524927807247L186.61878319561617,179.1920795984334L187.99625877363007,179.93351075502324L188.26109465771611,180.03435247923363L188.82819412290098,179.94378547770498L189.2233953616357,180.12624690888498L189.44927771051226,180.8864453122061L189.37606812391357,181.55954432171308L189.87479781331126,182.88462280819283L190.32517365001524,183.46038341328966L191.44289479176348,184.3716414196229L193.23209375841935,185.37343637113412L193.95821647313522,185.4502712014102L196.55763854506182,185.34865473483347L199.41203721197655,184.59343739821242L201.51472532858497,183.59541146401648L202.88389124377545,183.64056981976694L204.48623198778483,184.34413822687725L204.80892174721032,184.24330201049747L205.30006816034506,183.69978296129034L206.71255029430654,181.58853859725946L206.88491885361236,180.69574155465858L206.7954462717126,179.64861032009873L207.01208284855278,178.6260874991475L210.21232266759432,172.91400897105598L210.27281949582107,172.62788522084492L209.8653558723487,171.97093109898316L209.13203052857762,171.30960896586367L209.04486310945066,171.01658192470165L209.1896041600413,170.19503777573857L209.51150405123292,169.71483259568248L210.84706000371398,168.9081717754928L211.87619187406455,168.9024277436534L212.32834917432285,168.67979492959307L213.9232395316248,165.03076558009684L216.92738269337588,159.22532049150055L218.00352001055012,157.84810946585333L220.1841572594775,157.28656621504723L220.5412791988283,148.53765500783373L220.5229120391976,146.48982519832305L220.52124296000147,144.24219666793232L220.64565280526966,141.2379737290339L220.9811220261097,137.38453112032846L221.00428984603678,134.72636448754452L221.5294479938408,126.96126840626619L221.97269468760857,117.37644601460539L222.1417718501541,112.25712714188467L222.08721039820028,107.95750521973179L222.5443444384067,87.78731768876878L222.61872227156607,84.60285852497879L222.78862730430387,76.58965966240964L223.26194307092442,62.97691053605848L223.4135924065754,58.61556104293544L223.41437564700607,58.593035675614885L223.41442898153406,58.59150181828812L223.46056737383998,57.26460197564205L223.51687295028722,55.64531183408826L223.51721355228204,55.6355165045955L223.659711333161,51.53747246356619L223.6598088451645,51.5353288712742L223.68660020846437,50.94636969674377L223.71335365278878,50.35822774017305L224.5048876563319,32.949911381100605L224.7104411720298,26.038584404511028L235.6679558042756,26.541107612323458L235.66764108016565,26.549047706092267L280.12962505613643,28.166466976548406L280.2283349976891,28.16976554239085L286.6381204898544,28.381188412154984L288.4564053313352,28.440169596164708L296.5884528308176,28.698580616684012L301.44330349871746,28.848664806025624L307.67981290618275,29.036867910502963L317.6392060410151,29.3267067162858L319.1525221761772,29.369594386912752L321.03734031769835,29.422585190842426L325.1641929498213,29.53696239399585L350.3687714304348,30.186431390120617L358.63054068518875,30.380964291325085L359.37500175163655,30.398048418579094L365.0547174310991,30.52596635706516L366.1268698160995,30.54794853786069L366.74682841710285,30.560589832872154L368.7873795132459,30.60183747658209L370.0114621547381,30.626315830581063L373.74509620416694,30.69974997682425L382.7929560503908,30.870031007838975L396.3824917167426,31.10537175819968L411.24910607628897,31.334756959659273L417.80389370236543,31.44872384345763L417.8300117364705,31.449166547081347L419.2190665499131,31.465228261616687L419.627808480404,31.469905814299068L420.2397467063425,31.48973001174801L420.4696444804623,31.492437823858722L420.4906253580533,31.49268459436746L420.99401912762767,31.49858784143396L421.6115506604555,31.505783646298653L421.6163973963176,31.505839922894666L424.779950271096,31.5419076990716L427.5043059534198,31.5719039728761L441.61212281894603,31.71148291807077L441.6235901541714,31.711585631541823L442.4433354199939,31.718882925775688L443.9010477553464,31.752715634979836L507.6640995319841,32.20896075818234L537.5023172335243,32.23719611951367L539.1986825013184,32.23525293867101L546.498936949733,32.222533926708195L548.8409007823943,32.21695567600091L554.1145445188546,32.20173046234737L566.2958688715354,32.152458258149295L566.439406630055,32.15176031125736L567.155691112219,32.14823655090157L567.1915768743859,32.14805822040927L567.2371606643171,32.14526363615698L569.1019981347443,32.15580868214465L572.6195248735546,32.17444321303839L572.6732091585778,32.17471489422422L573.4260887431732,32.178484725301644L573.686072094032,32.179769050072764L578.8223153024664,32.203303642694664L578.8389967767515,32.203374376177464L579.2428661049464,32.20507561275798L579.6209134153069,32.20664846933937L581.1295151643207,32.21273616706077L581.3973402865126,32.21378536808601L583.7185861005471,32.22248015194293L586.753227285677,32.102682002502604L586.9489667798509,32.10191869148633L586.956840037032,32.10188788238719L589.3192590761491,32.09227197618537L589.3281329281134,32.092234460544944L601.1943272426387,32.032720892604516L601.1946665490855,32.03271892375153L601.614004491925,32.030274019177455L601.6153112531059,32.03026636377297L602.4441860580235,32.025364923712914L611.1486396908219,31.680426537653375L611.9817049415682,31.669210549266666L611.982560850085,31.66919897836027L652.0489187559849,31.021023821296296L658.346219211951,30.88688775285209L668.2356939960795,30.6656104485304L668.2475811293391,30.714874168699964L671.6265857754445,30.648841319632936L684.4212999946119,30.273006119292234L685.6902694296806,30.360189891132052L686.1263717465717,30.49727119541717L688.3916139540495,31.208840083037956L688.7297521941339,31.20134484752998L713.5409722092924,30.60995552271902L713.5513070183556,30.60969215772718L726.5259923237751,30.267869089602584L726.5261783888667,30.26786402735587L730.287934793059,30.164578916793573L730.2989570312288,30.164273522272026L746.4562978460172,29.699253125609005L749.163102063257,29.6387602334417L749.19133754878,29.72459739979371L757.804450764105,29.427685209682068L757.8813888026147,29.4249885723342L765.3733927127867,29.15863002668152L786.8556347328613,28.49011179578804L788.217438466384,28.445666772956713L788.2182959187563,28.44563871077196L797.7391818942847,28.128022793999662L814.6041520437477,27.389925408427644L817.6812672639294,27.273321357717748L817.681402560323,27.27331620313589L829.2007612206045,26.82562655602692L829.3727550776459,26.818808509138194L829.7852933012446,26.804743764279976L832.6796775542928,26.68622053581305L834.6053083838715,26.60675008512152L837.3205733896741,26.493853762396327L843.753427166364,26.2224733001421L843.9973875093144,26.2163398376253L844.6213697054588,26.187244538202435L846.7524868090518,26.085652985813226L848.4441860204903,26.028257204832812L855.2572552369679,25.740146304097266L872.8518520239559,25.000000000000057L873.0647396619368,29.795088136373238L873.0656177960677,29.895391804906183L873.1375616534275,31.537298773572047L873.5677161713992,41.35291744283944L873.730790010542,45.073445608761006L873.7325397538583,45.11336412409969L873.7321506093891,45.179842554143704L873.7586469221906,45.768781776011906L873.7890904903277,46.445444781884476L873.8607333349281,48.037782118597136L873.861393974112,48.05246516502001L874.12396807825,53.88780389736394L874.4672776757227,61.51584919068023L874.4679104320622,61.52990689908319L874.5021966383625,62.29162172847663L876.2712877048352,101.57095546238543L876.4718882006209,106.02200579965091L876.6593810157178,110.36556272578088L876.6606122292094,110.39408429991062L876.7133269360118,111.61522562035543L877.0113728501203,118.5188729622555L877.431948219539,128.2588932149971L877.6744791769033,133.87466982083942L877.7730947146006,136.15790259045525L877.8002782972987,136.78726034927467L877.8002987045512,136.7877328176903L878.0178813641353,141.82491919515803L878.0182110257924,141.83255066001385L878.1676030410097,145.29075234030967L878.1799419267584,145.57636727476682L878.7111237202339,157.8702117750393L879.0458208363599,164.4578194229672L879.0497506160539,164.5351535889414L879.0498459369402,164.53702940612345L879.2476058179575,168.42836005187547L880.0611114155392,187.15823926482307L880.2742135246666,191.9184319874259L880.2745509702133,191.92596920065841L880.6204638194258,199.6514546691343L880.615037130001,199.6575973437386L880.6361018178529,200.12402654684183L880.7361674829588,202.33966155620016L880.8579501349786,205.03595013835968L880.8893111949823,205.73025379728114L880.9064814175679,206.08786897499766L880.9593538858074,207.1890448930871L881.3178063923081,215.26901294048014L881.3299743653176,215.54326338800973L881.3823800263419,216.72439634303635L881.4935795570716,219.2305167565849L881.7018233100378,223.92328128456325L881.8545869354948,227.36542521099244L882.0825641895558,232.50172350828421L882.1980083920441,235.10239448497651L882.1981014053724,235.10448976826532L882.3003753829953,237.40831529885145L882.5170569347695,242.28881331779974L882.5399026626,242.80334896866435L882.551985681238,243.07548202201716L882.5607411465146,243.2726708513592L882.7057404732487,246.5381633785031L882.8727998947425,250.30010725399805L882.8894747428792,250.6715740085886L882.9192289700034,251.36854543214045L883.0157439809548,253.62927371784454L883.1174636341962,256.011803181236L883.2156996317,258.3126292377163L883.2699284986908,259.5827007811791L883.318379316999,260.71741983725633L883.3202013945665,260.76009242489295L883.3642801063359,261.7923934487701L883.3688633213708,261.8109234149521L883.4404981238768,263.4443136844489L883.6417180556481,268.03210106229653L883.7450258513488,270.3873013685659L883.8497425046239,272.7744796678959L883.9489048533183,275.03490809360426L884.0567353698017,277.4927848280859L884.152548571972,279.67661383476707L884.2158688184143,281.1197796090862L884.2520602275747,281.94461412673854L884.3736998010062,284.7167641063718L884.5700111217554,289.19026863342765L884.5700155601135,289.19036976731417L884.6848955973578,291.8080019368166L884.687245870658,291.8546150137763L884.690041763399,291.9100659420473L884.6934011060305,291.97669157356506L884.7012938594498,292.1332272153978L884.754220397342,293.18287968742794L884.9107008173373,296.2859276097397L884.9593312575632,297.2501872952008L884.9881770632113,297.82212978963867L885.0702571624514,299.44949298970994L885.1541415514694,301.11249679656635L885.275467398754,303.51753926346976L885.3992531342964,305.97105610032696L885.5142182807933,308.24948242676237L885.626447092531,310.4734370271624L885.6353965723317,310.6680233697541L885.7429626275292,313.006707506242L885.8565322695388,315.4757239000121L885.8957451522806,316.32816929697566L885.9565172840215,317.6492416913451L886.0798648484247,320.33040889449194L886.1904253356915,322.73342474720994L886.2556042112408,324.14998819992013L887.8267660554791,358.276636283107L888.2302014802999,367.4398952100556L888.4742122580208,372.98109204224454L888.5662594661698,375.07117210321474L888.7796188376681,379.91541142045946L888.9479029788342,382.2800077233745L888.9897073301781,384.6349390576619L889.1995734778604,387.0371445157874L889.2095128293678,389.4181352355218L889.753606932878,401.4680530388708L890.6410069957756,421.111780872626L891.0646520530164,430.5016095033027L891.0658571987813,430.528095016362L891.3886778967136,437.83107305949966L892.0550954524464,452.9026232496038L892.9931217617773,474.1067259763371L893.6729441661137,489.46673609036634L893.7053187119409,490.1980563620885L894.2587982588718,502.69862145849777L894.9013559308385,517.2058720879199L895.2577078216523,524.4086087955326L895.65896000773,532.5161355982353L895.9306971762721,538.0050824594507L896.5958110589718,554.1380959553204L896.8585961983863,560.5112256843215L897.8018179525995,579.6850713333561L899.3579311101664,615.6566369829335L899.7262245437552,621.4602699869661L899.7018941886118,621.8647630916896L899.7032759581476,622.4303855245154L899.7506875046976,623.0502561338425L899.7644282323331,623.0995926483555L900.557345135171,642.3908520057696L900.6393421425851,644.0133323165333L900.9052829392169,649.2746686212188L901.4671991840944,661.170101940975L901.4704084317435,661.2432168402247L901.7122161639692,666.3043551254594L901.8281104410274,668.7297218366634L901.8508696172601,668.8944299925197L901.946868194121,672.6734825574227L901.9508150797687,672.8426210698515L902.6747305976576,688.2814500792786L903.8367565664046,713.0460665559335L904.243541922096,721.7101462783064L904.2435487699875,721.7103145708622L904.8199600077637,735.875053000284L904.8456531354057,736.4562404769794L904.8728297371431,737.0728192306658L904.911094974993,737.9061163588514L905.1774575339962,743.6889561326103L906.8928667126103,780.9050263586183L909.4213137635741,837.9440119408755L909.4590530079565,838.7946047255123L909.4742094209495,839.1787330383713L909.8330365300296,848.2726620555525L909.965415106816,850.7334881166296L909.9655323918031,850.7360308455757L910.6912823044283,866.466179157489L911.0836688869251,874.967523685396L911.084186630722,874.984823118036L911.1315021093055,876.5658443225175L911.2212119382782,879.5678616933378L911.2402071952108,879.9133851232618L911.5198980392817,885.0001634543528L911.5286635292305,885.159558685662L911.5777388822551,887.5788098780893L912.8444453415375,914.7727239397232L913.4428456572048,929.0878747044999L913.8203117434248,938.1159754444164L913.8160557199346,938.1183917160055L913.921643505905,941.4452995622145L915.1026384205454,966.599999104517L881.7854839038052,967.823327901575L878.591134918501,967.9566866443186L850.2871433912721,969.0841638465781L845.2979364539572,969.2728160828243L844.9669427754986,969.2852246793921L844.0951727582486,969.3178427128935L843.4834766654728,969.3406747393419L841.9844523367894,969.3964348016398L840.703766892834,969.4438569725171L840.5343276471142,969.4501161715409L828.0192812592904,969.9027893847883L806.7869021443264,970.627260478663L801.3954750573075,970.8025066276385L788.6576047016918,971.285990401152L788.457485709878,971.2934289353843L782.7417358136852,971.5038328732448L776.4648433682141,971.7303215018171L776.1035253959253,971.738447996954L756.0494022993471,972.1646550292974L746.6270872342689,972.4520524140053L736.5447489103246,972.7476456506326L709.4087689017558,973.481925336699L685.759388114766,973.8840446530967L665.502696009242,974.1745421911146L660.4716717673092,974.2389766992465L652.4737355778282,974.4238526214638L646.5796665818914,974.555129421972L643.295775680625,974.62644219907L640.5964908474899,974.6840800245138L639.1618231315159,974.7143547223442L638.634261787435,974.7254246534109L635.6910480920284,974.7865630959818L634.0035645719252,974.8211426685607L630.5275065830922,974.891284655509L619.6991962859578,975L612.2537905115324,972.2132006072131L577.0285310568615,959.2925850103785L564.6991813790255,954.7272810465881L548.8002557799173,948.8072798945301L539.6425172509289,945.4241945404838L518.2659177587964,937.479227085845L487.9277244953079,926.087890415293L449.3782628780908,911.5542997771965L432.2284652941838,905.0709567036585L430.6838088721861,904.5651256611739L428.9023850598212,903.8511086631806L427.2766398454973,903.1990693095022L397.308433804996,891.8563901185827L360.1338643360685,877.6001885848714L323.13345660187616,863.5951951531018L310.11739760431743,858.2675886248078L293.543669257532,851.5720273306183L270.8980151794581,842.3554908725519L234.413444884069,827.5135356325485L230.0442883736618,825.6508645754172L204.597651783166,815.2228518173367L163.95149380876376,798.3583332732128L128.89496331002135,783.7900550150492L120.07874059589949,780.133149088119L111.99849706098712,776.7709059141457L110.67151476645563,776.2177679471044L108.0892895223505,775.1406093396947L98.50738738792722,771.1344923650515L96.07146484477681,770.1137677772065L93.76122643265643,769.1448520650729L92.51750326447103,768.6228882168916L89.50981868853484,767.3596280407018L85.19056746785941,765.5430201058882L85.16445256084245,765.0419471664791L85.42905931949451,764.5791754534127L85.26406775719283,763.8586860000032L85.12150804321061,763.623645920932L84.89736157945464,763.3811999367226Z"></path></svg>