<svg width="1000" height="1000"><path class="state" d="M110.6085958784713,915.5349878249347L111.00946929379973,900.8581326118813L111.13458555207194,897.6354516908752L111.39021447104142,887.6165700624263L111.40537174670061,886.5766932795229L111.41996396330734,885.2831157958234L111.63064586512235,881.1949663598489L111.87064934584441,871.5883990455945L111.8870092569606,870.8877329313419L111.97660859736652,867.8355600325604L112.18922721621811,861.3688576696145L112.19062087582574,859.3486440233557L112.25534761314071,856.7293747210649L112.33848928721949,854.2210681575112L112.3385992446947,854.2171801002737L112.7300126199384,839.8216866555456L112.84571918163925,835.729025850535L112.87829817048879,834.5766053084858L112.91164136465693,832.9591678603915L113.04934452239752,829.9469790162476L113.05695784891225,828.3568082535866L113.38216240704156,818.0406517459987L113.43574799696756,815.4197854149072L113.46865444300738,814.2551924332329L113.66463593510093,805.885119543241L113.78809996902089,800.8631199011879L113.85646260294243,800.3775063443171L114.11991526960276,788.4295787074823L114.17157303684695,786.2213842631443L114.17279756780505,786.020594931234L113.64331238651135,786.2316755418418L112.79905430720385,786.2654843011768L112.4720978027533,785.8919077544781L111.60819303491866,786.3182316050443L110.4300947365283,786.5179610805069L109.71416063019694,786.2197675381673L109.00201096824253,785.5937243831696L108.38639991702405,785.4649578665021L108.06287256127013,784.9778538451988L108.09652611898281,784.3843775379797L108.51497894467752,784.05760268631L109.27808400880463,783.7693241240258L109.54054064358002,783.7785453530356L110.63973016318482,784.2453188500908L110.90892693573176,784.2311760165105L111.60919147718164,783.8269635244238L111.77262467111018,783.6160158699975L111.72219915289793,782.3135012386547L111.6247981500544,782.1717724298913L110.68568343788576,781.9073380906184L109.56326920570041,781.850008839178L109.37895111897245,781.5483880375232L109.29500595496086,781.100753516992L109.24977431930415,780.7124348417118L109.06054563251007,780.5617523744904L108.88607973615251,780.4599895355557L108.69463211778304,780.3868351687568L108.62029558187544,780.4426540654747L108.552841939921,780.5471687693112L108.54839121239337,780.7019934444329L108.5018236646971,780.9232643441952L108.41061466122659,781.0106075836495L106.4205331595752,780.1631597425749L105.14719850841811,780.1674696405529L103.42063466921621,780.5059074046408L102.87409628924735,780.7690514757403L102.23880345729259,781.2883228857522L100.26322952326262,782.0448583348652L98.83811040166142,782.0008333964769L98.73590075339911,782.3613374955376L98.6269317916686,783.5573828783633L98.13730859655038,785.348075805323L97.92424283453954,785.58721403049L97.30790614588784,785.9213379564874L96.95464968069558,785.8368558670893L96.41881826906803,785.3401704033826L96.11864123487948,784.1139092843432L95.94561506875317,781.378919357286L95.79044161040832,780.9319542539424L95.61051631642408,780.8404909248275L95.44257372953899,780.9295637823441L94.08276472631348,782.221439374742L93.70810841547154,782.335815427341L93.05071569867505,782.1484671422024L92.47773870186552,781.4742321626854L92.42533186976192,781.2085572273297L92.54279128653832,780.6502093365896L92.90946446036025,780.2225705121131L93.69855585814497,779.7617965143467L94.24790570405173,779.2629929715101L94.49801414712886,778.818253839868L94.4489234227874,778.3803118512272L94.00540523247668,778.1953285699371L93.6684684958247,778.2150328872132L93.1138000760211,778.6294846584956L92.29661987291234,779.6412611703864L91.4564494290272,779.6580771662343L90.57499823621748,778.777328122348L90.43885446030862,778.3837661891328L90.67826119294415,776.6706578794303L90.44619490241314,776.4371559656065L87.62485107844117,775.8248248360683L86.71753223129468,775.4248609383812L86.12094653118794,774.9046650672431L84.65916459650765,776.6073451835462L83.90359142077762,777.696503461533L83.47688177413158,777.9662866914703L82.82316184914032,778.0966239439806L82.04684586908417,778.140913153129L81.60708343805044,777.9904787017658L80.57517687858882,777.5308297801588L80.16809938648464,777.4347080678465L79.87643031725582,777.4983395550421L79.29943399694201,778.0743825423344L79.24584741172714,778.4308652932266L79.47982404807692,779.1336702963198L80.43129315340809,779.7982749698547L80.76518281840112,779.8727110498844L81.22773337521619,779.682690755521L81.86645623345385,779.5444486778915L82.51045618515872,779.3592909992811L83.45897572609493,779.6483979908128L83.84796679865008,779.9276658280903L84.21039048495794,780.7277399644738L84.67551171107579,782.6752236301325L84.34715533165718,783.8263570446834L83.94915260122929,784.1807948543037L83.30594584755966,784.4109737011195L83.01965767925833,784.3742177850417L82.68899221434287,784.1585349685971L82.34850317916874,783.7257057667181L81.93822096289597,781.5980882386731L81.53152338032385,781.4198025958133L81.03572460482519,781.4814909191059L79.89152642628824,782.3618142821645L78.70400837840214,784.0316383157324L77.94159279170384,784.4947536440116L77.23170599304456,784.7576752339412L76.12442675625539,784.9226366355897L74.90516165221885,784.7416953308075L72.45434004480802,783.671747418002L72.18831118985298,783.3181138037871L72.06160688152534,782.7666480077589L72.06282453117677,782.4247064917602L72.3362262265523,781.6027561402167L73.7610169473408,779.6427406427867L74.89514859492533,778.9092681483629L75.08333104670027,778.6642425119652L75.33742796880841,777.9067303888587L75.47181694138845,776.6796408531948L75.359803761752,776.3320188199539L74.72898396924512,775.7967735507502L74.20608647566559,775.7382314154487L73.56488419544132,775.8621211603411L72.185127075901,776.5383007109593L71.11869017833283,777.3858747353077L70.0788348681549,778.6023539045786L69.46136365546863,779.4955482726529L68.34617520394909,781.5952764472836L68.30852894748216,781.9729009574545L68.08948459812535,782.3788752604737L67.56734491014345,783.0571402150815L67.3342003463514,783.2164749937461L66.6223671816033,783.4209419868148L64.91092845111359,783.3284861299232L64.53736345584372,783.2054723929542L64.25214665482082,782.8961398433408L64.12988351204422,781.7742698505044L64.43030795110838,780.7111034556624L66.1255982675545,779.5332734815561L66.45696773236324,779.078642623738L66.42562528896451,778.5249514686523L66.09234954972123,777.5948174518566L65.91104059001367,777.3675317847777L65.2203072202318,777.2192212891268L64.79360981393279,777.269831543568L63.94670945312657,777.6605164344745L62.87728253460983,778.6443078391062L62.32088088311207,779.4011476159089L61.767651848330274,780.5330355288318L60.972520047790454,782.5643510477703L61.15065568262054,783.0846600294133L61.09486844806929,783.5824894018426L60.422913708482724,784.5167950104253L58.399218241711594,785.131329319378L57.565327033492395,784.8681407152967L56.18895519850321,784.129347321043L55.94326026551602,783.9620356144864L55.682937994379415,783.4638610482284L55.56015356570282,782.9516034989991L55.50327422717538,781.718761407319L55.39876224233251,781.4591463948781L54.72410520882494,780.5901400691364L54.29554826029943,780.3827394087111L53.59950219569629,780.3725050166618L53.2945754421101,780.4862055611053L51.855727394861276,781.6847089535936L51.7985669765377,782.0614018433093L52.81278184628019,784.1364416697722L52.784889433382716,784.4069414915178L52.447311654620535,785.0551538066625L50.99135156143052,786.2624344678127L50.38082460608433,786.229674084403L49.91130052989615,785.8782827779698L49.521120051519745,785.78161389037L47.845067527468586,785.7140080576522L47.47818706084297,785.8300859511517L45.80360475130169,785.8786755912892L44.91854586901394,785.6329335081512L44.24150043353228,785.1596895370445L43.66034692539904,784.0810780934048L42.6003485222808,783.2566729882517L42.36995162318044,782.9799541098603L42.33288726558493,782.5956624227729L42.390041130787324,781.9121583875435L42.779436487582245,781.3407967272366L43.3475389908981,780.9371294720089L43.821868164314765,780.655611481103L44.69275163901045,780.6312103707829L45.819451371406444,780.2948636404767L46.328207436301,779.8548427540547L46.65678100982859,779.2873903591646L46.84558409109411,778.4983562626383L46.801743624738094,777.9123899466915L46.513992904118254,777.0324281810135L45.88263291580188,776.3655279864493L45.25773894790797,776.67877351734L42.868399456677196,779.0896883035646L41.630707268796016,779.8191626072473L40.5067305310896,779.8352771139835L39.85004065487283,779.6926596154357L39.65793483692113,779.5217834501875L37.21350506350461,775.2998851977634L36.916032176546764,774.5876887924633L36.43484321028484,774.1331312023804L34.548348166669996,773.3320937529622L34.11840010149473,773.9600105305522L33.94934544154671,774.0168518916203L32.58498741361814,774.0532623274129L32.08261801668823,773.9222234890642L31.611091022786184,773.696474153345L30.808607403309793,772.2016787917869L28.831039104593515,771.8484578395287L28.231262650071073,771.3052109704986L28.07480658046586,771.0384728982556L28.0493826107608,770.6656218242634L28.623944556879167,769.930435461554L30.086888540741654,769.1944452366779L31.65228557596737,768.1375538528298L32.032565231947274,767.7073934852349L32.17652087789014,767.2686106977396L32.13135211908599,766.3448347831336L31.62100484690376,766.2549714245313L30.619682911047846,765.8547828418136L30.45830338674574,765.6080788196792L30.181745894218352,764.266206267622L30.98491381956336,763.922960325877L33.0919369749937,763.5000701720928L33.29584804028343,763.0811653755527L33.45901898734866,762.1360737918112L33.12527602401468,761.4970072048134L31.89762046904508,760.9355607375189L31.017489617598358,760.8453943833567L30.549893885332267,761.1995765988277L29.94769347230175,762.6229287353534L29.554943997129442,762.946561062734L27.494261070969458,762.2220192099065L26.50602973929381,762.2175496615187L25.57832354932458,762.4149018658603L25.773080312924378,758.6790255560703L25.87083683051833,756.2402577698222L26.28755037829609,750.3138626733297L26.30031107289966,749.4220567761306L26.62841517914768,744.6520749260075L26.66859522115857,743.3453466596713L27.164907789915276,735.1705438417231L27.168394816279942,735.1183702811894L27.210339220955063,734.4278960448198L27.252464766883747,733.7882905703661L27.705682394769383,725.8834353505047L27.824041787072645,724.263435098876L27.920782048472063,722.5897622313489L27.92405382992638,722.5322826987559L28.31765466533068,715.9456438830703L28.625656332240624,710.8367704194745L29.077077328216262,703.6293884628791L29.110048747434462,703.5609260020235L29.888730097084192,689.9841205707137L29.929991844845972,689.2187155923048L30.097658368373118,686.1057049174617L30.144366764322058,685.25506771686L31.094857220847928,670.2412182512692L31.113493100723986,669.7146818508904L31.11382960276103,669.7052753344605L33.47855999845757,629.2528269983213L35.752230537392165,590.2519536416487L35.899882855314104,588.4576458377644L36.51630452443385,578.090322548194L36.687966031576536,575.2685991053218L36.76039007585575,574.039270141636L38.00849961161828,552.9502283950541L38.54579827983548,543.8819631904178L38.56912577440448,543.2567686113279L39.81230923506223,522.3838028864715L39.87434550696054,520.4612832878584L41.18464105456172,499.86695084210737L43.10563345231782,469.61565027181706L43.15152372170121,468.83105460205667L43.18848736570749,468.19952216702995L43.391047198823514,464.87188910057347L43.63206933725343,461.21425282391834L43.65682083179024,460.3537108701093L43.6384924299756,459.94177379187335L44.226079075578696,450.8442685162413L47.0848288283737,406.4955456658271L47.25399815273494,404.330513357092L47.82462696901433,394.7358606571747L47.85572088656642,394.07508888647516L48.110466115813836,390.4103811285223L48.12561973799768,388.8807911396947L48.151075415231674,387.99542234124186L48.36481728643895,385.3063141682317L48.42831286468993,384.73409107195226L48.7247146978703,379.9812503905648L48.755898716784486,377.9919632127491L48.81846783009348,377.29426739445114L49.075571625060604,375.4188368952704L49.40431430444073,370.3675426807753L49.44960308349721,369.66085251041216L49.53902408269636,369.2758255627577L49.64232423499209,366.5124599049556L49.69702606558144,365.5575008736492L50.02679472861536,361.98934646071575L50.941499855074085,348.5656668097346L50.93991944458821,347.49229253437477L51.05526771654456,346.9715847822024L50.741722413941545,345.3627395148703L50.920910438488875,344.2922057883562L50.76255725947715,342.9366860929748L50.73662281544165,342.71543857373433L51.318004396328945,341.090520652856L51.22799023930321,340.28572679731053L48.58499335313053,316.58185539108155L46.6674452339804,296.0481640927452L46.55545619233368,294.94800589027034L46.49964926452003,294.55469773046576L46.38512988755741,293.33002012405643L45.334405071814956,282.6981903370281L43.191941086681254,261.7892634504452L43.09767334767895,261.0505522960499L42.44161898628619,253.91337582530613L42.3819367817764,253.26333465739847L42.20776827001879,251.73341943212293L41.55603743922347,245.7319135322432L41.46953258493653,244.90907724237002L41.349166990739036,243.54286810248854L41.313397762528666,243.26170683663304L41.25903891273617,242.6396638830252L40.995136654128146,240.06919238192842L40.79872757606938,237.88643039175147L40.62908864739643,236.15609319048562L40.3513924891688,233.2311341209794L38.920336414372684,219.89121693698408L38.22175870155547,212.17968490341696L38.22647540435145,212.049571402169L38.23187989274703,212.02769733069704L38.189528361906866,211.73308376385856L37.982477851443605,209.84544083950863L37.94010759164047,209.44596701365055L37.43611018393949,204.6970115836789L37.412037105081765,204.60384760118797L36.87785976253167,199.41340870836854L36.65322550548291,197.28188516543992L36.472825535316076,195.88213588775778L36.350036749649234,194.66123908593914L34.655733088520435,178.13022832403885L34.63465455475722,177.8900707507699L34.01784435665701,172.19060489649428L32.73593113943599,160.32741208162304L32.50723199267867,158.03596772281867L32.503732654292946,158.0012598006062L32.108505086176365,154.06865297712181L31.97705164146987,152.80046041057835L31.324307604384103,146.35350864395656L31.243763223718872,145.67653494509688L30.89243331753488,141.81733016475874L30.824033095910863,141.16505779727106L30.795870706787866,140.94128400079643L30.67423141609129,139.42481807694003L30.396027730513424,137.17132906614654L30.403748613526318,137.04571305171555L29.258245305241303,125.19895211907294L28.292500635760007,114.33713312558945L27.459930458002418,104.41296428401637L27.15908674370803,100.9666255367145L27.06573741735565,100.21556439912126L26.684624970524112,96.26267243864123L25.859276457159694,86.88041486226768L25.568949817286068,83.3924399370515L25.36594683825456,81.31955791575473L25.000000000000057,77.89978294783452L36.114702771586735,78.29493686550916L43.65953384194927,78.63645033706598L73.66947425323855,79.58712677941406L121.01459386153834,81.29961451401408L121.16623131196093,81.30637152933991L123.14296050851823,81.34388905099138L123.45855111924908,81.3515576611465L127.53586857852696,81.4553648579186L148.9973893928053,82.04682010845289L149.89442717950612,82.070493864122L156.97789113207983,82.25460681537601L159.95772832591615,82.33078351378549L167.42491585763594,82.50133845162884L193.73956599382862,83.06216687216607L193.82880587674106,83.05991019072945L195.47180804962446,83.06742776168204L197.1669029530486,83.10464494285856L199.0226149937878,83.1557318798898L221.00302348310865,83.6702256869093L221.00321316633412,83.6702294489125L234.2373480543231,83.92821957102586L235.5850296351037,83.94614926294435L250.83856190738854,84.29458607604653L256.7024352371783,84.37345158715732L256.9600289342036,84.41312169830792L272.0183147214658,84.67797742439848L272.0207808776458,84.67801480853626L275.6642436376072,84.746091466839L307.9417058424027,85.29490321629311L314.9585444621044,85.2973263499884L315.2153774954722,85.28722460467486L318.6536373344758,85.3244905849134L318.8541898010891,85.32478391979708L329.234014476345,85.4609889527498L351.88759764591214,85.72424100642132L351.9511244771488,85.72875154538201L359.53131739999515,85.75413709460076L362.410128776299,85.76251988299992L362.4585838452078,85.75199591370813L375.03333176991566,85.90366626353676L375.03484960944706,85.90367495053141L414.51733170216363,85.94780066484486L421.1789338624823,85.87271521879825L423.5111354488845,85.84551150363393L437.3058147204827,85.90454297088155L441.81121586315976,86.0481506598735L448.53840995065605,86.05972563718626L450.39190471432346,86.21017047288768L455.1126896203154,86.06480728123177L461.1580104409133,86.07133666418883L462.8638035031329,86.02431998209579L480.51067960770047,85.84567653211428L480.94121760290926,85.85459433238856L481.4523268756768,85.84712181157778L483.73917714569427,85.84806838368183L493.05471381935934,85.73787690606781L495.43645747245847,85.70851196981852L498.7234504920918,85.653529735024L498.7441292619121,85.65317780176758L502.90868718023773,85.64343361203066L507.35249094235303,85.62583451974729L510.7213867049986,85.62525028019746L510.98491447686183,85.62348063709533L516.096517415571,85.5945056967227L517.8937882388141,85.6092766926156L523.7039410098229,85.57110468966187L524.2635611231191,85.58248754055512L546.9927033806867,85.29520043361418L547.2981348827805,85.29071796885103L558.3778236820906,85.12697558422633L559.12555116308,85.12433883778851L559.6074546120377,85.12155780894801L562.4124260607176,85.06104009979487L565.941350919826,85.01066592202704L573.4247972785033,84.89766595474055L580.8319632928426,84.75858610733417L581.1334790134713,84.76005337481575L583.728953538726,84.70460060529143L589.3736686688068,84.65776942018516L591.4895189154045,84.66047560178265L597.2032770618293,84.54418403624805L598.1721455225473,84.57269479287203L607.0975978606104,84.43795882417595L608.9575793827568,84.41953491883072L609.4295925315322,84.40267177686133L610.7761977945506,84.41301664791047L616.3985282194844,84.37192319943085L625.9142395248381,84.50694062146431L626.6203026014613,84.51668776457984L628.4763241155904,84.50610211157294L629.0845976017657,84.52259292974168L634.0243801250149,84.46761918455962L634.0479494730062,84.4697915601717L634.4263622591832,84.4504629532538L634.4694256124951,84.46030865673958L668.1404276499069,83.68368680968354L669.8009795890036,83.660995399343L670.0449869289201,83.66831268692977L687.2725305956178,83.24035420142445L693.0094731074595,83.06487494005472L693.0848988566142,83.06853918419665L707.8598659924962,82.66733558514989L709.6444860357176,82.57389173500087L718.2720265681967,82.32047927659397L718.729991806638,82.3068029980862L734.1730611033718,81.90938923095183L734.619006703661,81.88663724179196L734.676606506079,81.91103915041032L735.2076326239246,81.9529959972304L739.631028077344,81.71956416831148L752.1540872058501,81.37145149305769L752.5227417015686,81.36105516740787L755.705353551593,81.27559368119512L766.031109059623,81.01126578429347L769.4848829730032,80.86144016404279L777.024158108183,80.63473422814246L777.9255225874967,80.61634084883673L784.7394519575328,80.37525953339741L786.0872086343527,80.35591250361557L788.201373422223,80.28819014984447L789.8996093717833,80.2245218399861L791.6371931046631,80.18032678021797L791.6500864583875,80.17990845145869L806.051193450149,79.7142390558376L807.024622451383,79.68793762905926L807.1103444886987,79.68574346599138L836.4375039035499,78.6897679018241L857.4738597907522,78.00488359821469L859.0295473216192,77.92435781674425L859.0352341018452,77.92413815328825L859.676310677341,77.91376188546775L864.1079187900212,77.73527901377304L871.9659111833016,77.39478944159708L871.6109677431753,77.67342217575248L871.7269082183459,78.02022961749168L871.5265262253567,78.42874986690856L871.076416805848,78.31084203935757L870.7606308962716,78.43887231161796L870.723968664095,78.74452116790115L870.8718481232474,78.94459649967064L871.3703915141562,79.20560596630776L871.324584616323,79.8302431661536L870.7394815109504,79.88631424850405L870.7858637546963,80.30370689212702L871.2113181572872,80.64511190293581L870.7985166394178,81.36395420534086L870.8262310097834,81.66023037252711L870.9331733588685,81.78022691983631L872.9578188937983,82.50039016493702L873.513455812477,82.39742708771371L873.8401792425948,82.49799002072479L874.1450277331879,83.40491786771395L874.168883678528,83.77813910393206L873.4000704157038,84.05311861525388L872.1424449765084,83.77018481193915L871.6543934342078,84.92986722953867L871.6585631819789,85.53162453589925L873.7872595564668,85.627731829124L873.9291649732204,85.51315459952974L874.0554260605147,85.40652475232946L874.1881747238115,85.46216562288777L874.3714782392639,85.5561792544234L874.4642007105247,85.83642987932825L874.3852866137256,86.08173639563535L874.4257644291913,86.29084697533L874.7021825506898,86.75015210467757L875.2411875431667,87.3125745919524L875.6046698447726,90.24426363431814L876.0387290997719,91.41654716891878L876.0239389115189,91.72526710333227L875.4174706704313,92.8576023343623L875.1437303942905,93.01980688586258L874.4460717661975,93.07443604109602L874.2666955608883,93.71420337728028L874.2272102326594,94.34839080747156L874.3153392822544,94.66933065628308L875.1491772163308,95.33925522624543L875.4796373004153,95.38556757944377L875.8777038800466,94.96974314527426L876.0250089009778,94.88277332352607L876.1363767295364,94.97590395197699L876.0626263341394,96.37911276121719L875.8299437113171,96.75618856400246L875.3751307837858,96.96325767193457L875.4075311575461,97.10258155115861L876.0762314255563,97.13035846070414L876.8161675205174,96.78204894313387L877.2888901112583,97.5689631044263L878.6771368871658,97.68506656807097L879.7674561576289,98.27820038779407L880.0091126875529,98.78745929928527L881.0120943014886,99.21149098806188L882.1171352596987,99.01366351736033L883.8889898580142,99.12036503442602L886.5650653180717,99.76712398416873L886.9143807919701,100.1420789696536L887.3223957834919,100.89330088687262L887.8149789754737,101.47888252317716L888.07051995587,101.53856039136912L888.8708369604176,102.53316034910665L889.7696183017315,104.05040155068349L889.976898786558,106.19400433723621L889.6531613201976,109.44248523075726L888.8562774090867,110.23279966308587L888.0161989187907,111.6742201241367L887.5763871411677,111.84934854898222L887.5914832740541,112.08662879903886L888.2028940759803,112.93267551842342L888.334326867483,113.37636112021829L888.1569601472324,113.64878165335904L887.7578246248529,113.76809257823066L887.60579299703,114.91618622594552L888.0650885040783,115.21113024036617L888.1355564561205,115.47879843056842L887.8981801275672,116.25701570038251L887.5652300513789,116.93629090851533L887.1037209983623,117.50708236277984L887.03615563518,118.34884390446564L887.446630028027,119.1546662413117L887.6206261392845,119.19600328187192L887.9506068113642,118.9659883012032L888.1021933803481,118.98151017644761L889.5386951312958,120.36168678685516L890.6434455526241,122.70866307623993L889.5626752926748,124.72364578798238L888.1558193730132,126.28666559264093L888.5778803703524,127.8934151106842L887.1819194770031,130.11670996716208L886.667813563248,130.32735469538886L885.7608068536852,130.42958888719124L884.0821517141201,131.03486663738732L883.1397849521276,131.5827478462461L882.1696660641724,131.5902248181216L881.6730188265933,131.70811046285843L881.305627232368,131.950658388833L880.7932717353216,134.83596880213975L879.6896380457778,137.08007059851548L879.4146443100883,137.27625878612338L878.7001369468055,137.34789110891796L878.5491977564946,137.62451072672263L878.6521360931014,138.04287532500598L879.2330674735338,138.95682826177926L879.7370429968331,139.12539881400755L879.7513675842251,139.54190987991416L879.470756594563,140.59953019714732L878.3565910606426,141.33682472451142L877.893908593785,141.3660763569343L877.2559296100017,141.19094422512273L876.4618931331224,141.1571980903684L874.7899889119857,143.20027652210644L874.6188467528724,144.05749292283616L873.9417545711015,144.52861287696714L873.7036146306252,144.510863395382L873.3010209311628,144.14736197839773L872.963870459233,144.0795537118213L871.7321138521113,144.70773568636054L870.7044913810269,145.46314940778922L869.5001265701865,145.99341892608584L868.9271005100214,146.76273462244217L868.3708857532213,146.88736111122824L867.9068949235187,146.74316036657012L867.5871817949418,147.67129500278912L867.5193187885203,147.70450018414277L867.0314882147447,147.94239856307377L866.7922132237304,147.8921002615021L866.6077521150867,148.00231699326048L866.2807900741975,149.02260607840367L865.7505852077538,148.84300321920267L865.4238775128404,149.03997303643217L865.4395969960622,149.72201683544984L865.6644930194761,149.95145169545782L864.974919384176,151.21940366387054L863.7039329718904,152.10904765278127L863.280000484453,152.16339977478447L862.8418383212897,151.86070737141893L861.9460675106462,151.85230530371024L860.3462517242432,154.54842953602696L860.0149800845263,155.60183040394082L860.2180590989748,156.10889595654146L859.3266692770862,158.01880384051088L860.1242850563176,159.23993665855886L860.1949381071786,160.78164199169845L859.4645187836661,162.67501497884848L858.4711906692282,163.223195746275L857.8233320105239,163.4420420398838L857.5422399841277,164.3163250406398L857.0256030073663,165.05203026129544L856.2089050350298,165.66412910870497L855.7533587926998,165.75185654229045L855.1451706774405,165.6553615388503L854.7856557297309,165.71214962016813L853.7748998347689,167.37346181827075L852.6269705398206,168.00190984219307L851.4201788759374,168.2095264725997L848.6976672673911,169.0316247322781L848.4458762867173,169.37727346218333L847.7511732066403,170.87258540886268L847.8704437216857,171.32356874056558L847.863204678018,171.7089064406037L847.540160564645,172.89753134494902L846.3575449948389,173.7658218396066L845.1898154748237,173.86869883287255L843.9300716153962,174.98915935361987L843.6691730371069,175.6713963188604L843.8340680305837,177.06456748137344L844.1043440127696,177.50986975715944L844.1978041113216,178.13569016517414L844.1862069370147,178.40727073516496L843.7914499762624,179.41453555457105L841.4302355183586,180.4075061776299L841.0586388321334,181.79363183261273L840.8583776267271,185.1103816175127L840.4433846839833,185.27780184523408L838.8484927833407,186.56256465063484L838.6378127656903,186.9989113725669L838.8333361503405,188.19077983323444L838.3509669804669,189.03871836462724L838.2164001213782,189.78720878800294L838.327113611351,190.15213037137806L838.2595213212021,190.51810026090408L837.2369667471826,192.23821859422287L835.9281146310564,193.38247886638504L833.5024733200792,197.72524170282009L835.2591462987194,197.63129230076845L840.2606888515093,197.42969176734982L840.8692901999209,197.37466894166312L849.8840628591375,196.95420089220664L850.5409773375284,196.92458228184705L850.5691380848839,196.9232880429568L875.4684158375899,195.73365245625138L881.4977826685674,195.43032986560786L881.6861143081061,195.43197960379507L885.993307348589,195.12749843252595L911.1353239166908,193.87198797337146L912.5233489437758,193.8550806352079L913.3345903213115,193.74363521240775L913.562197678859,193.7610693656934L913.6610450311787,193.75679146745898L913.6614281603603,193.7567748847315L924.8050319891985,193.18695322981858L925.6998347144927,193.13138456959774L929.7060586971983,192.92202081130108L929.8018542694448,192.91393831793187L929.8967018073313,192.91040494617005L930.9648404219665,192.8471212333494L949.8702677502124,191.77304222043733L949.9241449929274,191.76768540158076L956.1146884144903,191.47019083844293L956.1312781336528,191.48008513582573L956.9862045061557,191.41933655398736L957.3874018024792,192.2851260213149L957.9561759086471,193.04382521899305L959.8178776421689,194.75702576610553L959.8989884821317,194.98121069603934L959.7918525647268,197.45305349419147L959.8889892989835,198.3220063219166L960.0880683289058,198.9428860209103L960.9580381871214,200.14729890413747L961.8256772603892,200.86739196576087L963.8759608683513,202.13739508385618L966.4301191198125,203.52153118708083L968.4874255123284,205.12619215015445L969.5971259569192,206.19882765111709L972.5828258368347,208.42472066819676L973.3748553586504,209.41855525660287L973.7891024972247,210.2690806746778L974.5983360074176,212.55360972764777L974.9999999999999,213.4024398861079L974.6422415927624,215.65958338236163L974.0343546651732,216.6486856994544L973.1640628064475,217.63344348183477L972.7322593918512,217.9304108665465L971.2435699591803,218.5842837427983L970.4986995550342,218.6250865535398L969.0387852093255,218.1163163370825L968.0670313229742,217.14901576843016L966.7744588549805,215.55920746188596L961.5270608780302,213.60135133681152L956.473043983146,213.7214041971826L953.6772810254364,215.91604451738587L951.952216779977,217.60229254171708L951.417163075378,218.7282454252436L950.9210517341053,220.3993685513867L950.7426631741547,221.23420772342342L950.6566780207712,222.31820176667026L950.7556639932343,223.32806876249268L950.9402070341498,223.87245308365544L951.5659497007883,224.68418385087878L952.5758088394406,225.40789254250566L955.5015218514175,226.54366289302038L959.3858904555028,227.62509435932418L963.3765367279893,229.50753411397974L964.3561974893879,230.2175472334025L964.6561563605436,230.57697447961968L964.9757556321315,231.3144593842725L965.0766099796188,231.96499632194602L964.9863187469846,232.91721566213522L964.6226437553953,233.87492927459405L964.220640929646,234.37440705500288L961.6371329002782,236.0904217681491L960.9864601256832,236.6382208703591L958.9805304553954,237.4956311611538L957.2573020644767,237.66178233218002L954.3504262391082,236.70556697760114L952.8862050315846,236.58417377579278L952.9021618483727,236.98767580686686L949.8093158486878,238.18429187518444L947.1489663539953,241.22538533660202L946.6175475305332,242.27292681518696L947.1199544560534,243.64147985660534L947.1134164235942,244.24342445747408L946.7762632602742,245.37102260879547L944.96628509311,248.0836823389452L944.3062610622812,248.8807275515821L944.0181678306287,249.18233752988044L942.7517021600138,250.00711246187328L942.0488080853802,250.27724334247966L940.522594098866,250.53944722389224L937.9242883825576,250.46085623240072L935.7966927359396,251.901592427528L934.635626252946,252.54476639987578L932.9749146189497,254.11571384862413L932.1245545907525,254.13717547478205L930.8768177753282,253.33340258403942L929.9315864344996,252.1646253858621L926.4910859637803,250.1810407520988L925.629225131258,250.13999890271225L925.0473370954315,250.66353297419326L924.618060441735,251.24949908882533L918.0887523729353,255.44051932507136L917.3990750244499,256.0252404021908L916.9901395715955,256.7026127939709L916.5798422984676,258.0710832025943L916.5821108847883,258.99176445987143L917.0828892873641,261.8612452765133L917.3160030825403,265.7021928349618L917.5273443356066,266.8502790967841L918.043163413096,267.8277024317547L918.6902837756472,268.7475678537954L920.205063213989,270.421125566607L921.3284460476789,272.610915706186L922.6120325411043,273.9031155690298L924.26072686628,274.9612151395421L925.700020606215,275.49532059247485L927.5081495838956,275.804940755254L928.9062113031538,275.8002842014221L930.5125738699769,275.3709098412302L931.1809733620635,275.04863973830226L931.5604076872579,274.6818901886443L931.9288686036953,274.1047879576638L932.6917675968186,272.320042055337L932.9432412246579,271.9956463648539L933.898238966035,271.3934287987433L935.2854479283548,270.8794770564658L935.9650124550096,270.9252479855718L936.4275504177292,271.1432820036823L937.5387654186377,272.52696405545817L938.0492645975544,273.8369215636081L938.1872991531952,275.54979087347283L938.0655335513184,276.97037010967495L937.7313985331061,278.4137146677827L937.2455460697715,279.3441486518951L935.8838646086595,280.27574390680917L933.4811114279364,281.3679093455412L930.162047747387,284.1626354786289L929.6565512721936,284.3405661767673L929.115800358779,284.3219826678006L927.8991934843114,284.1179012070822L926.9849474689063,283.8272457941747L926.7031964022917,283.9541988156411L925.31536899712,285.1625893613441L922.8728453453191,286.3104809436096L920.4447052961921,287.90551450848244L919.3779247976083,288.9328572602558L918.8319725345309,289.7248914820719L918.3675078995227,290.6386172658221L918.1793669206822,291.420597842672L918.1921286576068,291.8395792910434L918.4726590544643,292.7972155375671L919.0102604892294,294.053984621888L920.5477463544971,296.95663859986803L920.9987656366153,297.71621235351773L921.6876798285343,298.5799588531329L924.1171144509997,299.6667949157585L925.0859379898775,299.85858182768914L926.3885088756176,299.8614557773478L927.0227638154181,299.97517777042174L927.7011599207169,300.4687303814966L927.9052481890209,301.288144447291L927.7503404571213,302.00126669054004L927.7940535828187,302.5600741077634L928.1059345992037,302.6782429465276L928.1806559300645,302.70661758264816L928.821489208267,302.9776651771158L929.0630261908206,303.22256260138744L929.1777883793877,303.58099539420243L928.5651061060021,306.28374335245223L928.3267478083112,306.865137647644L927.7967523487808,307.63622321737955L927.1493928142943,308.21067808911016L926.401612637693,308.541261637785L925.6544224958819,308.4412303616737L923.588265894887,307.5527691041723L921.3706804219905,307.4472535859855L920.7858650104549,307.3055106807302L920.140789073846,306.9104900040335L919.1154381671101,306.0669322888736L918.834203688348,305.69845382563744L918.7992816160759,305.00125521710413L919.1464415044536,304.25031912572484L919.1598648630763,303.9391043010278L918.9037116432457,302.794685949401L918.5329404950182,302.2548244431531L914.9624407557851,299.5107706490081L912.3750049291741,298.1522596410173L911.669062955033,298.00840094540047L910.5007891695898,297.966405855423L908.7139820879479,298.3033085126011L908.1495058100935,298.55592380910537L907.010792734464,299.34465433053657L905.7326330580389,299.31775942578787L904.8312323926775,299.6146861997437L904.0141841934006,300.07994262188487L903.1406329576412,300.85761080506603L902.7516473358178,301.4188803065899L902.4280212477606,303.95077741741795L901.9468499565609,305.35513312070395L901.6812041228691,305.858160558213L901.2000964565538,307.6256282837604L901.0397558413977,309.2956824813868L901.4886961130564,311.87815902017525L902.0921372085616,313.71715384080244L902.5774580699548,314.70596289839375L904.3476616941417,317.3942819631021L907.2792632543317,319.7606278102502L907.5729356814024,320.33309038793664L907.6332687544667,321.0424883683439L907.0837932786146,322.8393990542983L906.6920211360679,323.59849695456217L906.3001978358221,325.1578637401144L906.272339890183,325.85490812591127L906.3813058679208,326.9865253697687L906.2511431703879,327.5196190366244L905.9015342283542,328.1649761897007L905.5588588886164,329.0541885672577L905.5366452842329,329.98833173341677L903.8412224230863,331.18912863301705L903.4565755383996,331.6077643730802L903.170897690871,332.0980695066885L902.9973280254703,333.01051115966516L902.7713042620842,333.6087366764767L900.9134743222476,335.875556497988L903.2172954255664,337.32200220863626L903.9114617517025,337.45911618743787L903.3088701794981,338.3563555495891L901.479533162617,339.2233061263381L901.45398058173,339.23534452438133L898.4162783408019,334.90153912546265L899.7577907035771,333.2066079377083L898.0227229091972,331.34465111341063L897.2320749885431,328.82817395377265L897.1803048540515,327.48856350892777L897.6050060001508,324.91376748352604L898.2989705620057,322.35376260881657L898.2738606528528,321.4309540202115L898.132220408978,321.1052942713842L897.2434479349495,320.06294743527076L895.6384818690053,318.67743484222495L894.6732909673044,318.24275227323926L892.0194620062655,318.40896858634096L891.4470905917237,318.83896441607493L890.2911205868863,318.8752299017321L889.0383752595264,319.99109020213973L888.3030848095315,320.89707824116573L887.9005861937316,321.6403427424369L887.4684265502626,323.06124472980184L886.4186051091094,327.375809333507L884.3898430739262,328.7561760827108L878.9389161590168,332.46239878697656L878.662215467754,333.3081371506056L878.7209738097031,335.28178115689434L877.2933504985198,341.269569177054L877.5019821084506,342.0011630274602L878.699485080909,343.00578910868086L879.9199239269556,343.6575897402979L884.0613611115577,343.5186983694627L885.8698289206172,342.9604874206869L884.2185836361132,340.4190444340011L883.6821592291458,338.6573638559696L883.577899515587,337.6148496092747L883.7515341736964,336.58506493797927L884.0413256719005,335.87853205211184L884.3701645602737,335.4141419617407L885.0751727587555,334.6830307038314L885.5958228219611,334.31223281054923L886.4906260398313,334.092972796072L889.1438656590649,334.47495858919336L890.0120996084846,334.80661116000726L890.407710037935,335.16201172693513L891.1899278161143,336.3834870166819L891.5830574027138,336.8090854595607L893.233650591186,338.2272747841864L893.8465646637019,338.66098537970197L895.0056985887849,339.2083817297151L896.5769761585874,340.47113133013113L896.9648588372409,340.63899888962146L897.5466082553709,340.6981753826273L895.9828409427319,344.42527299740914L895.2449228739243,345.7744292796028L894.7654418194281,346.362901782032L894.1866663553769,346.48211878686544L893.5712383331529,347.28751155089674L892.9520020802149,348.648232500064L891.671064824912,350.72295884869624L891.3840394514011,350.86734120583856L891.095306334717,350.83163907145786L892.4460424110125,353.253545507982L891.9461612263717,355.1322389460913L891.6960102295051,359.8276955765389L890.131317910982,360.2740653657996L889.2168545957112,360.03649373038775L888.8584959479676,360.0522280377799L887.2082492326582,361.0838204920289L885.8411783176722,361.53521073686943L883.7971813653583,360.55280833160737L883.1037347714873,360.74767631142515L882.0489542663228,361.2555400243381L881.6153224024936,361.67528616104846L881.1390925410658,362.37122077748757L880.898066309713,363.07950552816624L880.2888867253371,365.7752338280703L880.3314483391805,366.46801181556793L880.8022377674637,367.523606229876L882.4206972254685,370.3267828483822L883.8016062627385,371.84460759688943L886.1148390430476,372.6352005588155L887.7178891725564,372.35774782823125L889.3596833248839,371.8592791723477L890.7341249940016,371.6126339609551L891.9807164526936,371.6411112482194L892.9679900524882,371.8796913624442L894.0870476408509,372.52519739597824L894.4012385677519,372.8490284381311L895.8512466421191,374.6507863575787L896.8047311042915,376.15675816703236L897.5019136038975,377.0582902083871L898.3574125176399,377.98264707288854L898.755419718351,378.7785453888325L899.1760779493331,379.7053760435722L899.3585346147487,380.5057001343034L899.3909475089752,381.83400527328337L899.3400354038515,381.90539447520086L898.9208088960534,382.49539468350815L898.0791257357872,382.688838861836L897.4825176673407,382.1711813010315L896.5909647703794,381.74138675766056L895.7666888095952,383.94786097589315L895.2293525103203,385.9849729477491L895.046264866342,386.00539113450884L892.729908641928,385.0702350482866L891.3507960429965,385.2714925201994L891.1626683622103,387.1733471780322L891.2177308589703,387.81145611069246L891.8977522103542,389.26499112028523L892.5363838605382,389.9682437519426L892.9114295618988,389.99785731804013L893.1641334164067,390.91471909735435L893.6992306747186,391.81910493401926L894.1760642601037,392.44842383105106L894.8810912563604,393.2574267160811L895.544981813693,394.0661923008105L896.2849639169906,394.93157077677404L896.7963108908214,395.1394994430538L900.9129460543968,395.59641596365725L901.4076730723067,396.00776585038125L901.5081313394417,396.18644199953985L901.9768024438533,398.66559910792427L901.8536902652713,399.3711464260913L901.6365850333602,399.7868155974164L900.782228104867,400.8739594577129L898.4933410281901,403.3406352039077L897.869667996647,403.81849656210693L897.1229224657403,404.20599908427954L895.1894538463297,404.66704545960397L893.4498096363479,404.2122387981842L887.5191659909353,400.84201086696174L886.7727940443767,400.61008421788284L886.4035667056705,400.6505221920939L884.2355900432849,401.69206749620264L883.4629138483244,402.23958063854684L882.4684424189023,403.1403903623574L880.9208045645424,404.91257691825615L880.3448527011224,406.3663973302514L879.6530385459439,411.3404716956191L877.245766431352,418.5169324184309L877.0154371350221,419.87896922087015L876.9561401180351,421.17453741628833L877.078432291207,422.85969046089093L877.2869484525895,424.3508708143829L876.5419322238888,425.4776556339476L874.7865471838993,427.04598823665174L873.8182657120642,427.26352156246327L873.4488644497408,427.21715592724837L871.7430983901413,426.34750319478695L870.5919398088795,426.06699701291353L865.4992502407853,425.50397561266294L864.3275723953082,425.09419563724134L864.1219309660307,424.8388711310855L864.0245433766561,424.34016979757513L863.7247693266446,424.18413501806833L858.4888238212102,424.0237203517012L857.7999592048286,424.45635005832946L857.4871860178737,424.9944387885404L856.9034786352237,427.19356423003546L855.7851910593135,429.7715326011963L855.2774030710154,431.8111240116854L855.2436939643718,433.11782004725757L855.5164617503825,435.16606793602483L856.5666322470313,437.7009531293015L856.9749388717612,438.37070632470966L858.2111093770941,439.69613344721205L858.8810623849942,440.09510577122654L860.0441919551332,440.5403072428652L861.0686454573126,441.6674242287548L861.8745007247578,442.2555093883725L865.5805300832227,443.8582598163703L866.7219228544368,444.48613880079023L867.5235046841469,445.3633090979445L867.9894908577313,446.13077154276067L868.358919713678,446.9785825317247L868.7422417245273,448.5730128021882L868.8460091495585,452.5361422219507L868.5520999178511,454.19124399704043L868.2472752566093,455.26383355038143L867.9190087834806,455.85588486643843L862.3342483478959,460.19968806048405L857.9908616616949,462.76507531423755L856.4555911760759,464.0100086484579L855.8046091808826,464.8487368743203L857.6822046694052,467.44044345030574L857.8317164406162,467.64691382981704L858.0914619286605,468.4119215752535L858.0816901458192,468.91673901767496L857.8658430437101,469.847249491209L857.2289620987319,470.9069175505857L856.4750813002317,471.4077341737618L854.9204616216086,471.314487503256L854.1468353751335,470.9748988605333L852.2793562954437,469.5729041348878L850.6230825494276,467.75841656945306L849.1300843889303,469.06997792765617L848.3700038626255,469.557251891782L843.0000328162253,471.4938053126453L838.8096899937003,474.1912443883952L837.5802008182499,474.7881116505449L837.0628743700079,475.03904576609125L836.2395579562419,475.1119692357567L834.7521302893003,474.72637692148896L834.4447996710223,474.5141192516873L833.4295333100315,472.921703379078L832.958081856035,471.1212986838444L832.7275425755236,469.67507211544057L832.6986911625233,468.75065445683873L833.1585014682217,467.2550529920267L833.1674306675424,466.7561178987572L832.9141692798676,465.79611616822297L831.5479804974775,463.0844935797362L831.1885446131428,462.6539288177445L830.5967656097546,462.25978175739954L829.8855407040221,461.8820117716934L828.0715153029707,461.1960689535535L826.9062055047484,461.03924058194656L825.6709156698398,461.31134782709665L823.838840317957,462.4955245725138L823.0423180941361,463.25265427462324L822.2881489688612,464.7370695157266L822.1896047028123,465.2387740501064L822.1433592613893,466.6405043544287L822.4365842296651,468.5278446660912L822.8428471078621,469.35924771947197L824.3946249548574,471.2971163835649L826.5993129988442,474.7130770273378L828.0433808421881,477.4288417266147L828.1024858139692,478.1430085526026L827.7072910913913,479.58423526667366L826.4923822387323,480.54886818644036L825.5206483286116,481.9144560899112L825.2006001019561,482.54188726124255L824.9202061214911,483.52637833837485L824.8229683943044,484.77622660853893L825.0681164820376,485.8143452390424L825.7468901203483,487.6990606693674L828.1530042189572,491.5988115401094L829.3944301211302,494.17340653589906L829.8086699935075,495.49375655658184L829.8191763282816,496.28543522191626L829.6169736313766,497.3928124462065L829.163196104395,498.4499924450661L828.5978161882954,499.096054389221L826.2943463024313,500.5952738475106L824.381414422765,501.1979888952607L822.5858708665759,501.5144611062806L820.0603090868498,501.479582018258L817.4425559533663,500.2681288907448L816.7117850294701,499.5409905056922L816.1356318024721,498.16381951156137L815.9194546488707,496.98973468623365L815.879693015486,495.80951860098077L816.1044900092342,494.6206802587064L816.8585043404144,493.40922741048837L818.9782219049675,491.8420867070722L819.7548863825004,490.52953835838656L819.809770423611,490.22646952878335L819.6762650144167,489.36580379468893L819.2085857597365,488.1009785002211L817.289420855868,484.245379891442L816.8641828834793,482.99391243654213L815.2505409429989,482.9291984743231L813.6048526822199,483.38747483983985L812.6023626305049,483.90338747686496L811.8948027098327,484.59926268790286L811.1753888527493,485.7282642203271L810.5304450109854,487.32497882229296L810.4421579124811,487.97506763181525L810.5247949377629,488.6187739035676L810.8920676740356,489.9856043187312L811.6714202361686,492.1292016800961L811.7527858839774,494.9493032539051L811.5598321249233,495.7589818670871L811.1910344211462,496.57429317116487L810.8518623840214,496.9602341347156L810.3370535965529,497.35224075724625L809.7727768057791,497.58491672240166L809.1610302749873,497.6941650901833L808.4607401530577,497.8979342739469L807.7589903823846,498.42889314744156L807.4030960267007,498.9527513167755L807.0722848422857,499.7007926053901L806.9366477106526,501.16354940937885L806.9749169659315,501.78171358122876L807.1048009012109,502.13969819151635L807.4841035370928,502.6643717105452L811.4948003538914,507.08483928077817L812.9161119591283,507.8276457304126L814.8558834555797,508.2339875142212L816.2621604228763,508.23804363259273L818.6623893092635,507.82143132650884L821.261309380694,507.11508482398364L823.1428715749425,506.8349567403754L824.5071192494484,506.77894628034574L825.4679088778809,506.91115879475774L826.2724721725046,507.3057029242582L827.1129799730918,508.0980333622655L827.8070908488896,509.16588040183365L828.0693389802784,510.0008277217642L828.0464649972021,510.84210552808753L827.4919212495888,513.2043848608865L826.7871225496356,514.3991992376175L824.9140866175646,516.7448008305688L823.3439404529538,518.0118058488333L821.6736289338239,519.6928358910804L820.4665370210487,521.4931223837567L819.5057566711755,522.5121191039519L817.7630473214676,523.952748515004L816.3393954825849,524.5828169504816L814.826506892731,524.8778515224444L813.8419651741656,524.843586394594L812.5386383390448,524.4568045162537L811.7486541189955,523.9795854203801L810.8918091186032,522.8488172573026L810.3896557766129,521.812169809272L810.1546544608404,520.5319006836146L810.3101600264649,518.4184603296651L810.5332439071143,517.2854491398068L810.9934077807168,516.3728885917175L813.0535852158193,514.5143501673546L813.3007215429093,513.9468397642155L813.0700406512863,511.7390109018713L812.809777432268,511.14338868478563L812.2497330262784,510.25010843348394L811.168109278088,509.2330779247703L810.7979177666184,508.6912801975368L810.3001037863862,508.32169219204286L809.6409612746554,508.1374033663985L808.127235082573,508.68414438718673L807.3698897618337,509.3102143772195L806.2868742374826,511.01269702573217L805.1955206163971,511.6678567681562L804.5809045967512,512.5540875959068L803.3888917376712,514.818314465733L803.3838943645972,515.3746104924523L803.6483836706796,516.1434575437695L803.9501884235382,519.4266108153889L804.2437233510555,520.5254425982207L804.6541558708424,521.3432052746876L804.6748594873128,521.5660467725994L804.6020837799725,521.8781316477448L803.7673240977416,525.4523746072791L804.0558432809163,528.0565702220983L805.2379486445918,530.7810157748352L806.6723560555021,532.8918493003393L807.6529666245871,534.7298476906421L808.7318129017061,535.8605726994887L810.1992905666878,537.1749080069235L811.9337512731595,539.2382490284608L812.6350799935303,540.3787300681107L813.7108170870633,543.3232771677019L813.7755075736611,543.9862563625522L813.6896316422865,544.6509158944923L813.264450794538,545.8553605578809L812.8712087109287,546.5000239491433L811.036728975903,548.1803097902153L808.3023391652209,549.7474971525392L806.5605858733397,551.8647555703631L806.0796325622978,552.7164963259688L805.6597899940036,554.829480671807L805.0982702149686,555.8050618022154L804.6903351833826,557.9834975374922L804.5458118403369,559.5038627275017L804.9689564857158,562.9119516566159L805.6101186019015,565.1311046519328L805.9776978810955,565.7006155029279L807.3646810243056,566.732197356476L807.9654396791689,567.3079891594059L809.369687082628,570.0259107539196L809.7152879454477,571.4587467954765L809.6191434244603,572.6288553690845L809.2815127407171,573.776176805322L808.7722374816415,574.8721638357158L807.9821340147264,576.1412314528803L806.959340993461,577.2810110396945L800.5160122242567,582.2617457010164L799.6312515663737,582.7608461933869L797.043253046445,583.2222907611734L796.3841804692083,583.4429871675177L795.1219084161887,584.0832058543682L791.7819144833711,586.1532173434421L792.4452895123959,587.0611746377857L790.2947649576274,590.9859646217885L790.3345004008313,592.7302239221405L791.7133138218892,595.7708528239555L792.3796683605899,597.7900261785916L792.394592668513,599.0069823587417L791.6698560757263,600.675096219707L790.1084153774757,601.2965307467416L788.3688072021207,601.3479791574111L786.7774239742928,600.7374169811309L785.9613663621568,600.085212294058L785.3111647514618,599.1454215960774L785.1479200858785,597.438485072423L785.5058506090209,595.2755307934272L787.371807760612,591.777310668645L787.5201543731914,589.4573136882717L787.214648732934,588.6317941784305L786.9354535666685,587.961926591791L785.4930867295344,588.057218840837L783.5980102858503,588.7775488561253L781.242794739954,589.3428492222603L778.698839812187,589.4550771186659L777.8567889030257,589.3488075296799L775.3567612508282,588.6971826605571L773.6663951257967,588.5805556566863L772.4623116581304,588.7758797674256L771.3113474141699,589.4121281535615L770.5997913164001,590.069748355455L770.3553314429197,590.5193484975937L770.1287078903658,592.1632958398371L770.3169854177081,593.7457853554426L770.4522903137016,594.1288943370828L770.853706140834,594.7059013841282L774.1616443265946,597.44225473394L775.046038248361,598.9021781285753L775.4802896546888,599.9989854731696L775.9432665178834,601.6211208691905L775.9377126012746,603.2903636087922L775.5326339988088,604.3334499093604L773.7175450543716,607.5163457952922L773.2198561527448,608.1135253468095L771.2974785693054,609.693658069027L769.8894659123013,609.8750488678749L764.8404270870426,609.429903884014L763.7743092779195,609.4455156089901L761.8262848018658,610.230629396107L760.2283711438064,610.6612278024213L759.5315131525498,611.0664846230364L758.7956238694474,611.7112884902191L758.3456142923776,612.3033931365035L758.0141565156484,613.2171088459245L757.2242402448517,617.4283226290827L756.7203839324111,620.813501277499L756.7319071114373,622.2614528396556L756.8816388187033,623.1978120248211L756.8032926147941,623.9528951638436L756.418798996528,625.4572485276432L755.9262997349733,626.8885446420455L755.3621815636117,627.9815573731531L754.3556688869564,627.3172581928973L753.5553812278177,626.810554376303L751.4892013211838,626.7371259279741L749.0661601831321,626.0064868145047L745.9326982807568,623.9400683728846L745.1720028422853,623.2683925588299L744.7997393405435,622.707849666725L743.8894781352114,620.0001809629089L743.5433405875366,619.3905360483243L743.3085865736628,619.1648454889317L742.2416013927007,618.8466485637985L740.0970231481231,618.7600739396519L738.9428860947912,619.2700882908874L738.0756531665841,620.3347603833025L737.5222447325627,621.1976038766235L737.3898413912418,621.8247255976115L737.4675660445566,623.5261203779764L737.8706106318717,625.4412097258294L738.4034618313037,626.4455625743624L741.8316958625064,630.6704121674254L742.697623228587,631.37487687L746.728381372238,633.4668498417288L747.5412764867624,634.1163108339172L748.5584544652364,633.5136929900173L749.5914893057419,633.1793629336341L750.3338959586551,633.7406358039566L751.1684146666232,633.7790516915579L752.1756572592487,633.5300573014849L753.2513808613685,632.9200932733011L753.9422605655087,632.758106133572L755.6400415097405,632.9099555898038L757.4294431703848,633.4017947948256L759.3790655597741,633.1103321807927L761.7458212938723,633.4674375641603L762.5979866917162,633.9869421680879L763.0840327601434,634.5347590297273L763.3670208061051,635.1436213277157L763.7285238777137,637.1629715607963L763.6406310519988,638.6089414340113L763.066899925537,639.9688702055448L762.1126676869394,641.4489838669814L760.8135654559858,642.8909349479981L760.206296431853,643.4009663782556L759.3084151259827,643.9566066381818L758.1619172852368,644.4562639622056L755.9606400563721,644.757541706726L754.6990902580743,644.6416595023907L752.462710958129,643.9697957128324L751.7938465798234,643.6046257000463L749.9677462495587,642.2118928154457L748.7015647910782,641.4335048535471L746.3836551065739,639.2177890100429L744.5288693052228,638.453376045205L743.2386763159174,638.204673076937L737.7524815783133,642.3913572370554L734.5790796461811,644.9483679989964L733.629516402978,646.9384215917803L733.8321273144356,648.1982594065819L734.3609927587531,649.3857019492308L734.5618395004601,649.6583373412948L735.9058697614655,651.4815546866826L736.3552243163306,651.9268936460641L741.4548919066002,655.5108595508616L742.0353912863162,655.7134253555703L742.901713209561,655.7620559763108L745.4721988761858,655.2315085187963L746.9698893393864,654.4360417081922L748.0560909541915,654.4027565653246L749.1534923989507,654.6610114596308L749.908958924171,655.1329510579085L750.3804265190311,655.5209909774051L751.3571999190079,657.004324512239L751.6752642441115,657.9397802749533L751.6767163013951,658.4761918729615L751.4224027539551,659.4856942765063L750.9316409999246,660.5420619568624L749.4725803583876,662.5463383549665L748.6615300086718,663.8572305106264L748.3854692505831,664.627771572752L748.2472927560209,665.351831738144L748.2011182486183,666.8151980973676L748.5767423543773,668.3781559370024L748.6886899898161,669.5220672932674L748.6214268357637,670.1489621426081L748.3308686248,670.812885678972L747.6575587888883,671.5382152251841L746.2685788914528,672.3158269082933L743.2464873223565,672.8589438963955L741.7630648035154,672.5773868398174L741.4179857363754,672.6042460418836L739.212954334472,673.6000715440509L737.6675572094223,673.9336365225365L736.1392348144128,674.0289491281078L734.4949190568191,673.4848191383795L732.0325179886532,673.2190800679724L730.7959929467088,673.3198702283714L729.6366472845715,673.5588234131184L728.6043430777665,673.9308257490154L730.3225723938167,678.4582708396654L730.8360746540525,679.3028404524357L732.1742679763556,680.3958450669305L734.1302601250707,683.2288471068149L734.2194044866632,684.1429525341027L733.7725759928214,686.1989338780497L733.4928545652838,686.7441999717339L733.0167152374158,687.2728319865073L732.3802825126029,687.6410908005159L731.1857626118752,688.0017548735934L729.887144296332,688.1117884121595L729.023532437376,687.9873093670094L727.5668613642364,687.4628674325611L726.4949257894724,686.6905378043675L725.8913040712652,685.6250932943508L725.4545622617243,684.1605097321165L723.6210318671409,679.9839516120212L722.512110247387,677.9214195940226L719.5829665825179,679.8848834445594L718.4535043799464,681.3681783073155L717.8354900930617,681.983844580588L716.7217768308835,682.4298033154574L713.940290631378,682.4965495580323L712.1547128943354,682.6871430200381L711.3242314017036,682.9214020463833L710.5570304988457,683.298516233629L709.7827097190732,683.8571443285467L708.8611782517204,684.9733379210684L708.6367805401792,685.6265171873795L708.5261151244666,686.3373877480576L708.5412890734435,687.2349066627586L708.7866286795831,688.3571913506047L709.1923837981835,689.0877071373217L709.7377699994965,689.5798248168795L710.8713944665519,690.064573676909L717.2740109271906,691.5165649016444L719.4519360272677,692.3442215600202L722.6699442739383,693.866273109245L724.1225136156756,695.0019899496044L724.6765136289358,695.6946139921774L724.746535338655,696.260500746238L724.5968655142268,696.61492821419L723.3034535043428,698.2108434585072L721.5863831512145,700.9373051871701L719.5796525189096,703.2711399758831L715.9345678300738,707.1068467277786L714.776033407537,708.4720591295379L712.9060169745378,711.1264859581172L712.5469544864402,712.1792460588023L712.5330661210415,713.375811721007L712.9437263368017,715.2787219978222L713.7364798804048,717.4593476748129L714.2646832368346,718.2487790471705L715.9764913867161,720.188264263867L716.7823876305008,721.3184834635238L717.4453597055978,722.6210602851108L718.0337873128879,723.4203828948862L718.9327872026684,724.0054415991212L722.4446516026362,725.5880221233497L723.4733818605065,725.9266327050673L725.9621752467481,726.313001871324L727.5199147290873,727.0095086247405L729.242688929572,728.6476948884236L729.7630192694771,729.7428670414683L729.9520456403206,730.5815837531397L729.7799708301907,731.542837748538L729.4463984562893,732.4673589488759L728.9390113615148,733.2523444434828L727.7069753333501,734.3573426623557L725.188114054575,735.5078319537613L723.0839337248902,735.9682700393776L722.3767924769276,735.8283791993715L716.837309847042,732.3208118735142L715.5091504501884,732.6100123218372L710.4932717903966,733.0287861314753L709.7959642710224,733.1928271004716L706.1419623815912,734.5335190883172L705.2798939436034,733.5980943360356L703.9796521486437,732.5497107596264L702.830520518491,731.8311682114836L701.8669590651857,731.5290373360423L701.0704926395597,731.5539987028352L700.7383817063635,731.7083070938038L700.0515151443285,732.4237136282247L699.5609098752211,733.1140211016227L699.1487648822438,733.9213486099047L698.5609444766708,735.5030341066301L698.6397785091838,736.3105482872086L698.8872038790438,736.7649774234836L699.3627740490033,737.0590344328252L699.4790909231679,737.322602016973L699.3397675468104,738.2402232123229L698.7568364432924,739.3064912494233L698.7758375670151,739.8552813581742L699.0398682148872,740.3810435390922L698.4477064775426,742.969797637245L698.4509702290964,743.9494724355424L698.6367333305473,744.8003282510208L698.8618028251426,745.3086903692985L701.4263870743949,748.2900810760732L702.8282279309052,749.5811787542137L704.4168457399581,750.3767064930508L706.4515895257348,750.4895343622456L707.7675262104948,750.3790451308653L710.0146122521362,749.7548809302814L712.8896435804645,747.9814146599238L714.3065206593355,747.4449586282036L715.2234282142118,747.5643510285904L716.0069759014393,747.8058166185235L716.8921909418746,748.3483999430524L718.6972560952662,749.7989440079577L719.8461765076441,751.3156670100761L720.3164185341582,752.1124469560748L720.7161236211073,752.9957521920838L720.9463375395483,753.9089559201744L721.5030545958543,753.9774813520544L722.1060962198944,754.2063794974367L722.1572441451879,755.6932847717453L721.9509925609059,756.541373530347L721.3562931346935,757.7973861464942L720.9081565956515,758.2208094753923L718.9977178410263,759.0054336970662L718.1706037829447,759.0761639527295L716.4356666822952,759.5217493561954L714.8599311521914,760.4591245109228L712.5888500887971,761.5814442955154L711.4619602133536,761.8413330933188L710.6400786706665,761.8452526012529L709.4578927187395,761.6398863179793L708.0465709264386,761.1403821072604L702.0289970466091,757.8967634739286L701.4187317349126,757.3614954862577L699.177501312867,754.3112733689438L695.7225223045191,750.1518104746872L695.4021760503695,750.2210393962847L694.7305349107896,750.6495461010936L692.7512829726325,751.1823821470769L689.8618161343827,751.5507366516501L687.7292387478572,751.6763509853022L686.7936284686349,751.8701965521547L685.457925120234,752.5216396007162L683.7753462685382,753.8478708764018L682.8538053749513,755.1207843568025L682.3587708469236,756.2639325506002L682.1541502259124,757.6077487724531L682.3449554844185,759.1095808455781L682.6995158657503,759.746570688352L683.4322299857081,760.6685557734806L684.2460737629427,761.4482704620675L685.8265066150783,762.1352567914391L691.0588610395538,763.2128595378108L692.512372773406,763.7850201064765L693.9704370050092,764.562373110901L695.3972540829166,765.6177091220364L698.2186669780688,768.0410930590069L700.5363420575142,769.7704066186664L701.5428400537135,771.2367147448193L702.294393959838,773.3020274631349L702.4139953556863,774.4833129126846L702.2202744927836,776.083751822401L702.0601094812246,776.6840258217966L701.7526144558882,777.2971688850497L700.8896862221285,778.1880855322078L698.1635793495975,780.232407368869L697.1049037221646,780.5835281778791L696.4335639096444,780.6035846542413L693.3513890899671,780.2811091626902L692.9009415950974,780.3786912874075L692.3318640544969,780.6549120215167L690.7706444824554,781.9733399875714L688.9064134622676,783.0240429167986L687.930764656188,783.3613625481898L684.245963158603,784.069860822299L683.713962143425,784.2745663650899L682.8458980405414,784.9483766133596L682.3845421065593,785.7572397860818L682.2754745580899,785.9484709592136L682.0657153074118,786.7141403886667L682.1387588446901,787.8440970048096L682.6656930043569,789.2251052339627L683.4050574077932,790.6273175928809L684.8713741488199,792.738878711501L685.6196123560726,793.4360647848375L691.4414010924988,797.8863529679772L692.0155899858297,798.6470649130699L692.3884379961996,799.8482534368992L692.3745740615753,800.7623186085168L691.8673526509912,801.3107927065319L691.1295748357339,802.1506850196029L689.8878569413002,803.2790216769893L689.1154746002468,804.592569028041L687.9386128844861,806.9413053511546L687.7348320353324,807.7333106636413L687.383226606305,808.1540609584736L685.9922381535384,809.1128987870244L685.0533603500334,809.5543187471728L684.4181050615931,809.6362189132856L682.7629749425671,811.0465306143449L682.5918269984122,811.8128622815649L682.4742005990406,814.22345548108L682.303403965481,814.6490249410718L681.9845239078156,815.0658600400131L682.1442648643,815.4603567307732L685.7725310472779,816.4198024399025L687.2149333659064,816.6077322076226L687.9169916857954,816.5802898539814L690.3639019249113,815.91674139315L691.9068968212463,815.3402556553077L692.9464140133167,814.785962077763L693.8408723036192,814.0721724682966L695.3980070970695,811.8546442743639L694.8513904735428,809.5092433220266L694.023899132733,807.241681945692L693.7122317665458,805.5163125576553L693.6396419625233,803.7534405799047L693.9504769780042,802.6302461682656L694.5806925076839,801.1793988413417L695.5446695884903,800.7663545310974L696.2337190535882,800.9585196130017L697.032179381401,801.5759532378117L697.6136191081608,802.0252639003024L701.8577138824883,804.7431056379453L704.2415787405571,806.746154866627L705.4141880714851,809.779961350348L705.793091063652,811.3302182040159L705.7144481714294,812.4708093818329L705.2185371556739,813.8304655935501L703.7432686355008,815.631990045224L703.3627564548605,816.3742853601225L703.368599000982,816.7050804657963L703.1107889040588,817.1570746438285L701.6568176310286,817.9452810341941L700.4927051518688,817.7896762523344L699.9314063696378,817.9321875607629L696.774193700863,819.221670357246L694.190681501959,820.5370936674944L693.5641695575655,820.5093246219292L692.5262162943853,819.9435884367876L691.007499678777,820.4259797589527L689.5090744814424,820.3149898159153L688.8634647257094,820.6907175145755L688.3318975032729,821.3339503862339L687.6661452280841,822.6870138931517L687.5740330798317,823.2789009191645L687.6261831205442,823.9230294780106L687.8210213722161,824.3136718701794L688.5178187686379,825.0717387195258L691.3296545990283,827.2417384801812L694.2418625493881,828.8270046696612L695.2601139141414,829.2441020042229L696.4156515929863,829.5389934508952L698.911140332081,829.6755692453087L701.5541066225534,829.2354100107323L705.0246018254716,827.4427984539186L706.9911603996816,826.037072094739L708.293530728875,824.5602987754717L709.8402750294513,822.2975963539843L710.610699873956,820.0344338414318L710.5382442460193,818.0459724252959L710.070137002285,816.5883620876409L710.0471095234739,816.1052559746277L710.1883631176834,815.1603557350818L710.653957146707,813.9188656018677L711.1821250918163,813.020647833346L712.177590228489,811.7206579942414L713.1064772522791,811.0643050517776L713.9116468739733,810.6905151727251L714.5703394035604,810.6350519100888L715.9775887314124,810.7725870455283L716.5768750288207,811.0806327446205L717.58408530534,811.9100918945717L718.0600220535694,813.0918945733802L718.0512301098101,817.1311772958484L717.2591990586106,818.9636454122776L714.7130842890699,822.7341607310082L711.6195324357911,825.2821270946454L709.5198699198037,827.4187798906438L708.479791363025,828.9127447076806L705.8106197155507,833.1860195762863L704.8786046979976,834.1091435826308L701.8675425844091,836.2798513180267L701.5504429225512,836.6214944554586L701.4700876930225,836.8874707790764L701.7936923050395,839.9166262923563L701.6256955715196,840.7783649459257L701.3430274503623,841.3785842073686L701.2911335092381,841.8954990094795L701.8146787533972,845.3056920473925L701.8688256701695,848.8970674372282L702.2015720480233,849.5995364186269L705.2426920842229,853.5075205014438L705.2761789548858,854.8497134598379L704.7932340982711,856.3759199188736L706.8355704139158,857.8922259734263L707.0436584307688,858.2244249640457L707.6768095664501,860.0900673793603L708.4821681739675,861.77931024909L709.4043304071088,862.7623816621815L710.6540413737869,863.6264838693078L710.8585310611334,863.6099516387249L711.2781731168859,862.7595438277133L711.6706446988235,860.5924492508436L712.3079697617939,859.5219074314612L712.5266682078019,858.911810154279L713.2862104666843,854.9230429458801L713.7539653957865,853.7190852904928L714.2359772072166,853.0526723265186L714.7752951705002,852.5397594809747L715.9714819101259,851.8837761461857L717.0875737799704,851.5418214177323L718.7762174766689,851.5684727386401L720.0771967708911,851.8978869055452L720.9499116489155,852.5132169254385L721.5838762082983,853.4169526165645L721.9183914894793,854.4735157104845L721.8738929126679,855.642116672119L721.6554373263978,856.72508831294L721.188583228262,858.0535448934502L720.6804056621894,860.2032171502294L719.9548165602866,861.4608151437894L718.0171247099564,863.6364070166328L717.693876572801,864.7083205706081L717.0679964498374,864.7347330241996L716.6025695701733,865.4369244161933L716.6967386015485,866.1143621399619L716.0068324220983,866.2480971626425L715.2768352584578,866.1041999627097L714.9665458461267,866.3513182017205L714.9818514133103,866.9861709068862L714.902754471984,867.1496225320072L714.2524881341253,867.5555187914072L713.6205538998438,867.5651003604437L712.4604337777248,867.7950512122263L712.8887609209171,870.3685073857198L713.556291005582,873.1958932260068L714.1879591944501,877.4769459279671L714.192815553904,882.1153183822963L714.0906608786743,883.5730743397567L713.7398578212947,886.1731501181173L713.3089103066598,887.5279778628801L712.645552069243,888.2570203916663L710.4098890808598,889.5588443357999L708.4288291575801,890.0351273560962L704.8515899032375,890.2971460459192L702.4682082254319,890.1856197322143L701.0307377590473,889.9969831739124L700.7207032911383,889.7345089813772L700.4656067237127,888.9389793110415L698.9475815380878,887.4826460384569L698.668769485181,887.3514023989708L697.0838718398178,887.1783072601313L694.184178262166,887.4740706752502L693.1640807930055,887.9544845818921L692.2726089498015,888.7234254204734L691.850925337053,889.2204487139873L690.5808443787507,891.5884697806948L690.5385432758344,892.5323036920581L690.7284296808467,895.3558463217598L690.8049162967704,895.7080485860242L691.0069813026918,896.0092708807119L691.8790132123299,896.5670619745733L694.9954638454083,898.0073088946559L696.2789562848484,899.6164637212573L696.5317386983685,900.1764250835383L696.9544638779917,900.5323286497523L698.1050759276238,900.9068799142113L699.1817362918564,901.0233112939038L701.4139700869616,901.9452148857495L706.6512907395785,906.082123817559L707.3824488346978,907.2738960578906L707.5850576898949,908.0598991763707L707.5754310546184,908.3990918308485L706.995596879112,910.3507691784545L706.5904948487698,912.3833087203861L705.9164042961986,913.5499026975348L704.2380201815229,914.7631550798283L703.2282791157854,915.1532829433627L701.7353906869362,915.4115548933819L700.4428725985385,916.1070037849314L699.1972803886983,917.0850034529265L698.4426537614429,919.1383527267453L698.525146099885,920.897912676372L678.2995207744285,921.0988716267698L674.3393288027189,921.199529646944L668.6938867888375,921.251746053247L666.5496920423345,921.2752072689816L666.0323268764614,921.2798483843162L665.754533483362,921.2824160424402L665.0653936138586,921.2850438195695L664.4019071406304,921.2717677931755L655.611778538782,921.3765005246985L645.5045939398782,921.5088179952916L643.3959129380116,921.5263653995931L639.8026694884843,921.6522665814098L638.3654129978222,921.6610165422674L632.4831179842544,921.6955031954352L630.244363739247,921.5863234471094L618.108989437599,921.7687960642354L615.4861222941853,921.792932356153L613.99310754987,921.922126392018L613.9596218326244,921.9114243929936L607.9916777523777,921.991787613382L606.2305314704901,921.9783998790392L604.3801001272419,922.0242951918476L582.1272667760666,922.0976349389061L578.1357804376338,922.2831825013052L553.5943640631228,922.3808586953935L538.2910316813543,922.5752075839725L537.8912178048247,922.6011143385219L513.9450082627568,922.6052105584029L482.5234161224615,922.546841154989L468.2476206474896,922.344280385998L459.41163361897003,922.3044404943279L453.89856417477137,922.2455657703758L452.3809028800819,922.225923990711L432.04948610676297,921.9190166649574L425.5865308581723,921.8775813633017L425.0974293097607,921.8768215363086L382.68685905554804,921.2302414786352L381.74785625095274,921.203564332196L380.18041234759323,921.2129488019305L379.93722781568806,921.2071076766504L379.88593429138217,921.2058768305129L378.20943342644273,921.1983623708952L365.265879818356,921.005438899185L358.26446684603087,920.7584250757311L355.55213603548856,920.6485771885593L355.50866850080695,920.639494113304L353.4894462040637,920.6098650400559L350.7624822667367,920.6067601175434L334.6106235661054,920.2925281361304L329.5875657002716,920.1528317077541L325.99708722500526,920.0928769571724L309.24600545315036,919.7985372696994L308.73930507707166,919.7670611837588L307.05127124755774,919.7407994490525L303.0552740951176,919.7295681389015L302.96073516847287,919.739678795821L292.1495693406323,919.5803588443898L283.3527317491571,919.4431038552548L279.62479183717863,919.2849945941655L274.9330643779583,919.3176251790267L260.7172243817926,919.0687286653949L260.6729700467704,919.0624447935493L254.14417212966364,918.9220916137479L246.62836127540547,918.8253884445021L228.25968302499476,918.4151973581718L223.6691337385472,918.3720366159955L223.46195141555697,918.3684411709206L223.38574105964614,918.3670280163929L217.24113305076656,918.2090202337663L217.236433829653,918.2089305787088L216.43521312893228,918.1884974602278L215.0902472337982,918.1612027058881L175.9145440096231,917.141574103642L159.2355116646208,916.7701085171848L157.26679100156485,916.7246787900597L114.38500631965059,915.6442414216369L113.66800742080943,915.6407267307662L112.06340764434293,915.5941364512747L110.91884994051247,915.5513275350252Z"></path></svg>
