<svg id="AR" width="1000" height="1000"><path class="state" d="M25.016306233467162,77.98438501378564L25.051186742514062,77.98564282449507L36.11241570211581,78.37888580983167L36.993163148516544,78.41902326251426L43.65569417029769,78.72034002933572L51.0853849042515,78.9634061210686L51.81609323781794,78.9870381193914L55.49524589937738,79.10528226562832L56.33597693378658,79.1321282038524L57.32463570589846,79.16361476971838L69.37311534159204,79.54012795668768L71.57975387943293,79.60764250927633L73.65945964419035,79.67086461693083L77.805290948329,79.82904268874148L79.71373289699352,79.90132623624896L80.00603628651425,79.91236790707802L82.16690177309056,79.99375067849786L82.75009590999775,80.01564156779563L83.89469345326899,80.05851465493117L87.28018753971293,80.18462103994023L89.03358601820332,80.2495199753003L89.78655442936349,80.27730316911527L91.05356237307251,80.32393607077171L91.08199308024388,80.32498078811108L94.01191298873908,80.43224617683643L94.90072240733235,80.46463006365167L96.05978329853787,80.50675168934174L101.29548003061313,80.69548683886956L104.89177131918962,80.82366780912696L106.6942366345126,80.88746580442182L107.22425722678025,80.906169087627L107.43846430010944,80.91372067928796L107.73702904286182,80.92423916713335L120.13115683989133,81.35366945825524L120.5018180885225,81.36629503577518L120.99483713244155,81.38306886918679L121.01014630057244,81.38375116891541L121.14644337898483,81.38982471452465L123.12276587863374,81.42733738649815L123.43829155658722,81.43500487700322L124.21835226502043,81.4549839790318L127.5147701011266,81.5387966340395L128.20989917786227,81.55861630600049L136.10511194465522,81.78061670415747L142.87784975932186,81.9665003261016L144.13082409230708,82.00042825601736L146.6671907389848,82.06866714697458L147.57010178529737,82.09281687353854L148.35261404518167,82.11368588955031L148.97187511663356,82.13016132316602L149.2198841816196,82.13671427570586L149.8687283358812,82.15383150820719L156.04172675466612,82.31454587469813L156.95073485559692,82.33791684296745L159.92995894602882,82.41408218475573L160.7599503354739,82.43330604321375L167.39558911980498,82.58472698977846L173.54135824720237,82.72136930890036L173.5995755178157,82.72264713308488L188.8292652292334,83.04625681697809L189.1125994246892,83.0520758458751L192.51750014655678,83.1214291457481L193.7048461918426,83.14536393844213L193.7940677202558,83.1431078501534L195.4367318962464,83.15062624787186L197.13147804384852,83.18783822121918L197.16734653090614,83.18882870885648L198.9868082679089,83.2389173289215L200.64534258587386,83.2792853845969L201.0307584557937,83.2886301422256L202.82936259569075,83.33205887758481L202.95868821778245,83.33517011973959L206.8254843808099,83.42748703547471L208.82625207019208,83.47471580402458L220.96269442237696,83.7533365314344L220.96288402574905,83.75334077877272L221.13014938722574,83.75670187378245L234.19429612931526,84.01129690578188L235.5417004510981,84.029224851099L238.40912370824665,84.09635700911417L238.98784783067902,84.10981469699487L241.17303670158503,84.16035239889885L241.73314293719602,84.17323571484707L248.45728867631382,84.32565665002733L249.16503210472197,84.34145849847812L250.79209440360455,84.37761195264517L252.39475033518914,84.39948176848338L255.6601963352465,84.44331375486036L256.02754401003216,84.44818351768043L256.5230292653347,84.4547323578031L256.6547613591564,84.456469678877L256.787082219889,84.47684842347314L256.7909237839148,84.47744003817371L256.9123020093822,84.49613200009236L257.5764166311434,84.50825178057715L258.597959116636,84.52681555091596L258.89378270393956,84.53217348765844L269.225933049982,84.71427728853797L271.9674897723039,84.76095489809626L271.9698778293574,84.760999842145L276.1152977391415,84.83823017779548L276.61938144328565,84.84751400598799L289.71018521720947,85.080455970672L291.96903858088103,85.1190620811854L303.1072001721176,85.30258794459246L307.88349022740476,85.37780536091458L314.8988854185447,85.38023805711225L315.1556656336196,85.37013875799198L318.5932181396531,85.40740200045133L318.7937293504939,85.40769556240741L329.0505275652364,85.54243917573098L329.1714967368273,85.5439708392172L329.17200253240696,85.54397724056992L344.192655283575,85.72374351377124L345.1764558302307,85.7347963283442L345.21504387570957,85.7352280506359L347.6367369867635,85.7620489853104L351.8203413869611,85.8071177696338L351.8838551438022,85.81162747159863L359.4623995467031,85.83710573190598L362.3407079008356,85.84540381555894L362.3891530172298,85.83488208037579L372.5883313868345,85.95901564905859L374.9613750314271,85.9865311522995L374.96283153921826,85.98654788211337L376.9143131864212,85.99208530643017L401.8406171535033,86.03213104612047L404.3644924756753,86.03301281078825L404.665727329909,86.0330790769209L407.34267723003165,86.03330282472268L414.4371917784428,86.03072082956805L415.2715082468999,86.02154487150852L421.0974040174321,85.95569318942518L423.4291455963556,85.92846551675495L430.00685249571904,85.95879617135091L437.22098714793077,85.98750446973963L439.01851721936725,86.04502572616263L439.01925485049475,86.04504926963313L441.20531751564226,86.11460399801626L441.7254613036292,86.13108902501028L448.4512715595716,86.14267118448657L450.30438483719325,86.29308770715744L451.2363309961069,86.26455430669517L455.02419886344046,86.14776112501625L461.0682761265355,86.15429775149755L462.77371836682124,86.10729316319026L472.2517790896768,86.0149029382128L472.25498901531165,86.01487025445311L480.41696469435914,85.92871150402027L480.53575824650784,85.9311739587244L480.84741411370595,85.93762808050218L481.3584182600632,85.9301578216996L483.64479811554213,85.9311074421127L492.95839314811633,85.82101916896482L495.33967247054164,85.79159631604443L498.62599399497833,85.73662708801322L498.6466639399894,85.73627821663894L500.13212064277064,85.73298687666454L502.81036521002255,85.72654193012289L507.2532548938251,85.70895275060582L510.6214576661296,85.70837340050366L510.8849312321213,85.70660449444489L513.3425262984844,85.69297580382039L515.9954827416736,85.67764274852271L517.7923838408688,85.6924132490131L523.6013415034358,85.6542573171065L524.1608464854792,85.66563861798971L524.1716581044429,85.66551322821743L530.0799434240467,85.59538879100074L533.5299730472474,85.55296197272276L534.4626346636052,85.54130529678872L535.5485298409608,85.5276330515149L546.8853137195035,85.37844272771656L547.1906824001647,85.37396161631432L550.7452186464866,85.32266060405402L552.3982896400154,85.29840819436788L558.2680923222189,85.21026855402232L559.0156659984061,85.2076334050567L559.4974703231258,85.20485362826093L562.3018648710666,85.14435232508976L562.8809168440357,85.13616561093977L565.6481927952273,85.0966172590309L565.8300638973107,85.0939934871268L573.3119710629485,84.9810273160985L576.7623537176169,84.91687179454499L576.7626704340091,84.91686585552145L580.7176136134459,84.84198651688399L581.0190673100203,84.84345390739855L583.6140080226482,84.78801620120885L589.2575620978903,84.7412025997985L591.3729771094388,84.74391120411974L593.9795992846563,84.6912335610757L593.9799705762422,84.69122601321021L597.0855600978925,84.62765160338978L598.0542292220578,84.65615785898473L600.6727895251591,84.6173889365378L604.017609511872,84.5669536007087L605.7379347686709,84.54061422367482L605.8711004946954,84.53856405570781L606.1740051988835,84.5338946005341L606.9778457837502,84.52146216351127L607.8294874272475,84.51306681113823L607.9271311646337,84.51210000833072L608.837444733817,84.50304466400269L609.309360813272,84.48618565461572L609.764257166444,84.48969946841646L610.6219312898887,84.4962729402501L610.6556890652712,84.49653029144787L611.0884569571423,84.49347065847013L615.2782520365372,84.46296205113953L616.2768630361613,84.45545320072728L625.7905522519857,84.5905107290111L626.4965346010258,84.60020235193116L628.3521743477122,84.58962148351509L628.9603226893221,84.60610976390132L628.9969935644432,84.60570994771666L633.8990891805913,84.55115426376665L633.9226536773388,84.55332622561843L634.3009886514865,84.53400212589372L634.3440431328821,84.5438458645894L649.0314116698628,84.21787640599257L653.7740828563776,84.10839490757246L666.4439049523689,83.80580877740772L668.008120180948,83.76743099011253L669.6683305794184,83.7447465734723L669.9122877172409,83.75206269769836L678.4347648510618,83.54376253584945L678.4434831328023,83.54354604077201L687.136288314377,83.32421635939426L690.4161119508852,83.22426843359318L692.8720509967811,83.14878121872437L692.947461225927,83.15244481463014L707.7193897526097,82.75134439554603L707.9589778098236,82.73881676324606L709.5036428353598,82.65792225979936L714.6804493941344,82.50669243118188L714.782466861908,82.50368750576735L718.1294090636138,82.40457397680171L718.1572760515413,82.4037423695766L718.5872801191877,82.39090115086947L722.418491081981,82.2943524290879L725.3569643506466,82.21938934773857L734.0271733846989,81.99359068013547L734.4730272873551,81.9708439929397L734.5306152076744,81.99524096251116L735.0615320369021,82.03718991954315L735.2866478125493,82.02535385131284L736.9638873754736,81.93702175374625L739.4840179400712,81.80381227468433L748.5507730958288,81.55327408717255L752.0044584126304,81.45585717487756L752.373080290091,81.4453949834193L753.0493899551566,81.4273129231812L755.5550376093546,81.35995550913293L763.0303711708432,81.16958170524208L765.8786695230909,81.09569635886538L769.3317332195775,80.94590636318003L769.3321830440975,80.9458929930671L776.8694578770662,80.71925754703108L777.7706369756754,80.70086920463376L779.5189381033553,80.63942178435116L784.5831650895107,80.45984695168102L785.9306445665273,80.44050577473166L788.0443745756716,80.37280028921208L789.7422612953744,80.3091474353838L789.942501740761,80.30405852876015L791.4795689889057,80.26487312346893L791.4923783799873,80.26454565570009L803.232628762421,79.88636435023494L805.8905237892099,79.79899204354587L806.8637525981137,79.77269737784604L806.9494570059383,79.77050378508591L812.0966915999845,79.60141396963007L817.4655904344122,79.42245265612968L818.898504118677,79.3742423355111L819.8962057810213,79.34056346856391L829.3101658958715,79.01828547616577L830.4131146355204,78.97999496149862L836.2705853831247,78.77477374828419L838.8279437827807,78.69368384842096L840.4620122633183,78.64155593691885L850.3740091668168,78.32010752252637L854.0871450145096,78.19736920701581L857.3026151819884,78.09005943708405L858.8579883470977,78.00962690092138L858.8636684410847,78.00933276035033L859.504613166024,77.9989595134158L863.9353099754237,77.8205194819007L871.7916865077777,77.48011080650622L871.4368156918781,77.75868573752717L871.552731839748,78.1054220037683L871.3523904993453,78.51385794674502L870.9023738268991,78.39597374997777L870.5866526952017,78.52397725099883L870.5499975818003,78.82956318693346L870.6978463467794,79.02959756906523L871.1962868303995,79.29055403695139L871.1504884915394,79.91506269037171L870.5655056599302,79.97112143077538L870.611877786397,80.38842828402142L871.0372442044923,80.72976365838684L870.6245266033133,81.44845753001647L870.6386988419254,81.59996693046799L870.652234863605,81.74467279380099L870.7591550496517,81.86464480654064L871.1454687634828,82.00209151269632L872.7833831357411,82.58466271754378L873.3389059065844,82.48172158676522L873.4950313304784,82.52977742298145L873.6655619933382,82.58226428622459L873.9703465259242,83.48900600662739L873.9941970486035,83.86215050721063L873.2255415444952,84.13707239515713L871.968175179695,83.85419505118625L871.4802224230367,85.01363825701696L871.4843904814969,85.61527179255455L873.6126488678053,85.71136225897266L873.7545252541074,85.5968087930529L873.8807605178756,85.49020105319522L874.0134817989831,85.54583066231532L874.1967474805105,85.63982520930148L874.2894504922881,85.92001831708137L874.210552288509,86.16527426684314L874.2510214890821,86.37434189016454L874.5273821190298,86.83355292622531L874.9249764333181,87.24842910216893L875.0662754655915,87.39586047269677L875.2135014728608,88.58344520967182L875.4296789511388,90.32694699404925L875.8636473041306,91.49899000001363L875.8488597315048,91.80764641303358L875.2425146708235,92.93974789477528L874.9688304764516,93.10191870397745L874.2713152749866,93.15653565836055L874.0919750815963,93.79617115226137L874.0524969986814,94.43022808126142L874.140607477382,94.75110203746107L874.9742729727859,95.42088996244291L875.3046650202699,95.46719324629362L875.7026502959034,95.05145489348064L875.8499251377268,94.96450316419435L875.9612699302509,95.0576147904249L875.9052803939139,96.12291260554463L875.8875327655348,96.46053487068497L875.6548974822604,96.83753279094805L875.20017781933,97.04455867815068L875.2325713360901,97.18385394453645L875.9011340203397,97.21162606475724L876.6409183987209,96.86338921370577L877.1135426674783,97.65014216741042L878.5015037337746,97.76622366792498L878.8052802162524,97.93149473473773L879.5915979164728,98.35923699216653L879.8332040363696,98.86839148788584L880.835978760878,99.29233734315949L881.8035902836516,99.1191206135515L881.9407926962244,99.09455209024696L883.7122826939861,99.2012341074186L886.3878068184915,99.84786372132675L886.7370499238564,100.22274206472832L886.9593864691947,100.63211259868444L887.0044698932389,100.71511775812166L887.1449799533416,100.97381002661223L887.6374610172596,101.55927189496362L887.8929493530588,101.61893784091137L888.6931003671018,102.61333432479262L889.591694743262,104.13026468670773L889.7989296325838,106.27342684302374L889.6556848034535,107.71102656551994L889.4752542694193,109.52123911204461L888.6785331770802,110.31138988480046L887.8386254907391,111.75251270127183L887.3989039356079,111.92760449663223L887.4139966356281,112.16483596164011L888.0252805085411,113.01070950322077L888.1566856529394,113.4543040254336L887.9793550387249,113.72666827974086L887.580301449204,113.84595411235813L887.4282995066058,114.99381140023257L887.8875001343813,115.28869538250228L887.9579532222235,115.55630861377563L887.7206246442238,116.33436548533183L887.3877421136349,117.01350051446497L886.9263271991238,117.58417392597306L886.8587745704144,118.42576223377915L887.2691634202117,119.23141938953086L887.4431236854127,119.27274816792641L887.77303680213,119.04278095450866L887.924592170101,119.05829984650319L889.3607965430795,120.43819455541347L889.7882824679873,121.34646754285637L890.4653164885536,122.78468962623509L889.3847657461766,124.79925638780202L889.0876130003433,125.1294382285032L887.978197039808,126.36195275498164L887.980932703924,126.37236834931355L888.4001690044486,127.9683723679932L887.0044921703231,130.19120799206337L886.4904917104714,130.40180868291316L886.2167003543755,130.43267702889875L885.5836714192876,130.50402059296448L883.9053607210259,131.10917152513736L882.9631870344795,131.65693873923715L881.9932676772182,131.66441283212998L881.4967224306524,131.7822735427032L881.1294060688565,132.024771071756L880.8522984835881,133.58546102506375L880.6171519675404,134.90948730564543L879.5137421779473,137.1531259937396L879.2388047335337,137.34927344776912L878.5244442359004,137.42089004865892L878.3735357092372,137.69745256073094L878.4764522942195,138.11573124932823L879.046116790214,139.0119626216748L879.0572629208829,139.0294970015667L879.5611345500588,139.1980335780371L879.5754556150899,139.6144589930244L879.2949008807168,140.6718613839903L878.1809634958411,141.40900271897078L877.7183761560245,141.4382476947972L877.0805286381008,141.26315070287535L876.2866555304611,141.22941041091832L874.6150923710122,143.2720662963464L874.4439842275531,144.1291061426267L873.7670306625255,144.60012825707287L873.528939728719,144.58238209682338L873.1264293402035,144.21895489005487L872.7893483093331,144.15116010421661L871.5578441884493,144.7792111659167L870.5304320398244,145.5344680870175L869.3263142163876,146.0646268693535L868.753404954992,146.83378353496562L868.1973044313868,146.95838361991395L867.7334092378014,146.814211893118L867.4137605850356,147.7421551822914L867.3458206596256,147.7753026698166L866.8581809280189,148.01320221108898L866.6189552221851,147.96291392393766L866.4345319020565,148.07310773028314L866.1076357002238,149.09318650349184L865.5775401381916,148.91361985205083L865.2508993698023,149.11054870300842L865.2666146754393,149.79245223688412L865.4914641232297,150.02184021672912L864.8020305679643,151.28953043048864L864.6513171493114,151.39503773017321L863.5313043477424,152.17898967226353L863.107458981955,152.23333002774604L862.6693873617378,151.930699277155L861.7738008101687,151.9222976970981L860.1743103489575,154.61786515905777L859.8431053879156,155.67104889862185L860.046141929537,156.17801043644613L859.1549328078477,158.08752424521577L859.9523828375052,159.30840699908282L860.023019220292,160.84979532409483L859.4546307628657,162.32320276827176L859.2927475100073,162.7427778607444L858.2996229487193,163.29084449932424L857.6518972415658,163.50964488185247L857.3708618200808,164.38374766626418L856.9032715348624,165.04961161914656L856.8543300882261,165.11930084754744L856.0377992500065,165.73127266370773L855.5823465850399,165.81898142174322L854.9742836985895,165.72250542295092L854.6148426189498,165.77928132552267L853.6042923183782,167.44025041598178L852.4565982637727,168.06856758647L851.2500545306586,168.27613984027226L848.5281017612888,169.09806523200763L848.27636209086,169.44364251810038L847.5817998268798,170.93864593867193L847.7010451843844,171.38953667547764L847.6938070952749,171.77479510747975L847.3708277785772,172.96317508213002L846.188454250022,173.83128534274016L845.0209647710176,173.93413955604302L843.7614784668461,175.0543678680341L843.5006326048058,175.7364641458998L843.6654917491453,177.1293489838945L843.9357115220562,177.57456004305476L844.029151529108,178.20025185945724L844.0175563633672,178.47177655358774L843.6228792002817,179.47883364708326L841.2621490283441,180.47159675569554L840.8906268499555,181.85743679135987L840.8593080655351,182.37628937942463L840.6904022318602,185.1735040972286L840.2754944139358,185.34088931339306L839.5409716527518,185.93264003323276L838.680928772821,186.62538565060646L838.470291482831,187.06164233080932L838.6657729970582,188.2532659154508L838.1835018652948,189.10102937049658L838.0489616452284,189.84936565519246L838.1596518566887,190.21421233406505L838.0920729610511,190.58010685595366L837.0697263209101,192.2998699705024L835.7611418244055,193.44389307052688L833.3359933946155,197.7857593071338L835.0923051868638,197.69183166866162L840.0928192902966,197.49027954593652L840.7012955365537,197.43526888239955L849.7142146009996,197.01489982691555L850.3709836157261,196.98526600288113L850.3991489619384,196.98399428635474L858.1537269576495,196.61956329821686L858.2642783298063,196.61432825658557L868.3572986997468,196.13169177261955L870.0730315554017,196.04872423586755L875.2933070368235,195.79463790086686L881.3214341595608,195.49138604697805L881.5097270605268,195.49303570658236L882.8342141187152,195.3995884638096L882.9187178914385,195.39362097771277L885.8160346138168,195.1886231233977L895.2277313875719,194.72539216619344L906.5362308369124,194.15812388765994L906.5550605562823,194.15716961047644L910.952881687247,193.93340566517088L912.3406212480331,193.91650372213962L913.1516959230285,193.8050823421588L913.3792564421103,193.8225132239961L913.4780834693725,193.81823634218972L913.4784009173079,193.81822027141902L916.0558548422125,193.6874341138485L917.157743998652,193.6313368233208L924.575789416811,193.2508022667596L924.619779115747,193.2485306971205L925.5143978745928,193.1929747013375L929.5197981457756,192.98365953372172L929.6155740259394,192.97557883494585L929.7104020604575,192.97204632080138L929.7257818847481,192.97113587678598L930.7783210676535,192.90877709796814L932.5549209131259,192.80923319289184L935.9824531280705,192.61637284875718L943.0246805349053,192.2167570267236L946.4552418754911,192.02044831112607L949.6798614132202,191.8349450686091L949.6939506780914,191.83354426953383L949.7337275818713,191.82958942579057L955.9229981458047,191.53216457939652L955.939584439177,191.5420568645793L956.7943350546547,191.48132195495094L957.1954486406057,192.34693389986052L957.7641047168788,193.10547783222813L959.625421178051,194.8183285737196L959.706515026503,195.04246750524078L959.5993977406492,197.51380175020455L959.6965132992533,198.3825759866673L959.8955505278208,199.00332825818572L960.765339793301,200.2074946177098L961.6327994203521,200.9274407666232L963.6826595808562,202.19718549600327L966.2362905924044,203.58104042951283L968.293171633591,205.18537418165045L969.402642361087,206.25779059303795L972.3877250862373,208.483229903758L973.1795903378387,209.47686117309883L973.5937511047243,210.32721222769698L974.4028150301783,212.61127251943958L974.8043952416178,213.45992864604344L974.527328664799,214.55350429781421L975,215.72238657398108L974.8563726160177,216.5279299704096L974.2498923158067,215.9999738458507L972.8058046585214,217.41137216208233L970.9926594780117,218.74623955098525L970.3040134194898,218.68149494140647L968.8444000442431,218.17282735686882L967.8728473567903,217.2057244011706L966.5805429300221,215.61624130119608L961.3342269183693,213.65878063483308L956.2812493540607,213.77880183995873L953.7572345163308,215.76017931942582L953.4860583965216,215.9729869197278L951.7613466329063,217.65888574363694L951.2264014243482,218.7846063069577L950.7303898178092,220.4553850377611L950.5520367972302,221.2900522568254L950.4660678344165,222.37382322921755L950.5650320553837,223.38348265552872L950.7495363895314,223.9277552640825L951.3751492364472,224.73931994018105L952.3847996731718,225.46288117438277L955.3099093699055,226.59842195731392L959.1934775621494,227.679636352948L963.1833004616494,229.56169443445333L964.1627587525701,230.2715628713089L964.4626554343542,230.63091660543722L964.7821879561874,231.36825026790407L964.8830206641642,232.01865354514166L964.7927466902825,232.9706769129901L964.7561975616409,233.06693326805618L964.4291451780689,233.92819304648077L964.0272243460834,234.42756754283084L961.4442453151279,236.14322575442262L961.3079574744734,236.2579724829879L960.7937056126632,236.69091129128657L958.7881873300674,237.5481424693468L957.0653131350557,237.71425709167283L954.1590365000019,236.75823439888845L952.6951166138629,236.63686414556497L952.7110695922927,237.04028320829502L949.618858063913,238.23664889676527L946.9590515415393,241.27711321105522L946.4277405722783,242.32443850341554L946.9300422770552,243.69271076113387L946.9235047587538,244.29453154820675L946.5864193834049,245.42189731595735L944.776809739166,248.13399662346248L944.1169203583204,248.93087699340177L943.8288859637651,249.2324245406369L942.5626796341551,250.05702808951742L941.8599297538632,250.3271024408594L940.3340293083495,250.58925028670077L937.7362581053808,250.5106718718347L935.6090980610229,251.95110880633976L934.4482694912568,252.59414889073798L932.7878972529052,254.1647709420811L931.9377120921878,254.1862269793996L930.6902330145801,253.38261768026464L929.7451976984445,252.2140795637093L926.3054075922132,250.2308981489762L926.0623217288396,250.2193288891461L925.4437240794466,250.1898635498233L924.8619549997832,250.7132891393715L924.4327658276014,251.29913414227934L918.9728423658,254.8041657355524L917.9047948778207,255.4892833653801L917.2152585697858,256.0738832265139L916.8064062877368,256.75111573454L916.3961915096161,258.11930411640094L916.3984583559675,259.039796016344L916.5856189155154,260.11235390358115L916.8991297925606,261.9086873477218L917.1321903295905,265.7488452464135L917.3434865272698,266.8966956696042L917.8158691348485,267.79182025932164L917.859198162467,267.8739186880649L918.5061841572494,268.79359581344283L920.0206497313127,270.46681141550675L921.1437984868627,272.65615272823686L922.1001036958219,273.61891391818676L922.4271191943718,273.9480885960271L924.0754729650312,275.00597282449246L925.5144699432991,275.5399704169039L927.3222266106841,275.849529399421L928.7200007937863,275.8448757361733L930.3260335698981,275.41559190699195L930.994296036192,275.0933890099984L931.3736528291755,274.7267154150277L931.742038761038,274.1497323872834L932.5047833135036,272.3653546123709L932.7562056684387,272.04102598868985L933.7110078252166,271.4389336019242L935.0979321868939,270.9250894822394L935.7773568825405,270.97085193646416L936.2397994126698,271.18884175002705L937.3507839556273,272.5722407518058L937.8611763292477,273.8819295433126L937.9991801285853,275.5944467544198L937.8774376077868,277.01473364906406L937.8581944136033,277.097866533942L937.6394527275763,278.0427737103814L937.5433693174992,278.45778089017665L937.0576154946558,279.38802283897076L935.6962128055209,280.31942460946027L933.293952293548,281.41136209993215L929.975567386543,284.20550884905924L929.4701746315429,284.3834022530101L928.929534960866,284.36482181845724L927.7131785899803,284.1607806492148L926.799121010928,283.87018375159255L926.5174277169431,283.99711027279363L925.1298840771988,285.20525036755464L924.2148471309624,285.6353656980788L922.6878611951524,286.3529024826676L920.2602183384276,287.9476046353502L919.1936558245484,288.9747346160092L918.6478147521864,289.7666051836092L918.1834443797311,290.6801423974599L917.9953410138675,291.46196188305134L918.0080995462201,291.8808571766905L918.2885709207575,292.8382968533743L918.8260600472045,294.09480820080955L920.3632256795717,296.9968673155803L920.8141511491489,297.7562854714442L921.5029224564795,298.6198552772989L923.9318559124945,299.7064711717436L924.9004799278958,299.89821997929425L925.8413610277653,300.03109994113663L926.4461707512378,299.9941830658581L926.7416881355209,300.0435282425753L927.0212207924981,300.042372460038L927.5757412910327,300.208843261184L927.792103535164,300.38692491614984L928.0016728547971,300.76153559961506L928.1256088480949,301.1580401377586L928.2207455534506,301.29790725987186L928.2394676197733,301.47997805749594L928.1926983131009,301.7628320611972L927.7764449141321,301.8196020004151L927.5051970006984,302.377218378424L927.3825541378719,302.46552091386934L927.3014734508217,302.6479639551087L927.3286137372581,302.8542035418006L927.4048873268207,302.8829835542517L927.8106413755193,302.7994457695025L927.9205474310078,302.77681528307426L928.2611766969866,302.84080412133335L928.635258540563,303.01666699486356L928.8767455075006,303.2615143852646L928.9914835971438,303.619873618067L928.3789235949723,306.3220648557299L928.1406135159643,306.9033392461309L927.6107259934654,307.67426549392104L926.963498806175,308.2486013222201L926.2158719675928,308.57911584531746L925.4688356382933,308.47910410865757L923.4031052120255,307.59082272119895L923.3325006662214,307.58747003216604L921.1859759749285,307.48532583510905L920.601281038332,307.3436112725726L919.9563383210465,306.9486709467082L918.9311994656548,306.1052853064507L918.6500233384206,305.7368822387848L918.6151094137105,305.03982697464016L918.9621989412528,304.28904580878145L918.9756199698926,303.9778950101967L918.7195210172465,302.8337116765501L918.3488268728604,302.293960690441L914.7790652782669,299.550466323828L912.1921634921589,298.1922311390745L911.4863669088264,298.0484010534376L910.3183334613094,298.0064129827814L910.106971114009,298.0462808897993L908.5318934071192,298.3432438742709L907.9675328756678,298.59580643333527L906.8290529075289,299.3843731586257L906.4653996517136,299.3767357130976L905.5511561484732,299.3574820147486L904.6499404635558,299.6543464707227L903.8330596626281,300.1195060711876L902.9596870132942,300.89701310037367L902.5707806166918,301.45816662618836L902.2472175804214,303.9895425517711L901.7661433056969,305.3936087537814L901.500551410322,305.8965323653084L901.0195402438567,307.6636359085133L900.8592302911616,309.3333464036839L901.3080746496968,311.9152924270709L901.9113890865646,313.75390985869103L902.3966087616259,314.74251622110546L904.1664445830033,317.4302848347163L907.0974399239844,319.79614806089745L907.3910511584528,320.36849330785617L907.4227954882947,320.7417553481792L907.4513708397762,321.07774547087865L906.9020058834594,322.87428582712187L906.5103132640195,323.63322706183556L906.11856838809,325.1922725917618L906.090715205766,325.88917357896867L906.1996572040837,327.0205582361222L906.0695205379209,327.5535420821392L905.7199826047093,328.19876602118245L905.3773765096689,329.0877950411066L905.355166178904,330.0217460531185L903.6600903470455,331.2222936367491L903.275521991412,331.6408427435581L902.9899022187801,332.13104664104515L902.8163669858491,333.04330039349236L902.5903888787129,333.6414025611941L900.7329378906843,335.9077535948105L903.0362831670063,337.353905013729L903.7303065356731,337.49099175527897L903.1278376525888,338.38804574902247L902.9574553144347,338.46880312880796L901.2988873716353,339.2547424211334L901.2733283257592,339.26685137205885L898.2362568526141,334.93393308241605L899.5774956604856,333.2393523481255L897.8427872964913,331.3777760620992L897.0523054774765,328.86181536507434L897.0005478485626,327.5224803639376L897.4251652181426,324.948214482172L898.1189906034533,322.3887370829474L898.0938871383325,321.46611825258236L897.9522764770685,321.140525285457L897.0636882415404,320.098391595326L895.4590541892123,318.71316173374873L894.4940624005735,318.2785672269881L893.5005991565718,318.34086374111297L891.8407790204358,318.4447456733508L891.268524728687,318.8746522720579L890.112792421247,318.91090869527864L888.8603031970721,320.0265377591819L888.1251627166466,320.9323384439275L887.7227458510438,321.6754495199649L887.2906731176494,323.0960586718012L886.2410616039617,327.4097344463814L884.2127958945478,328.78992291718396L878.762903929018,332.4952673625599L878.4862589717204,333.34083140013433L878.5450024876183,335.31406957187306L877.1176644749735,341.3006241122731L877.326252159702,342.0320677872803L878.5235074488593,343.03648891309524L879.7436943848058,343.6881571859163L883.884280003657,343.54930013272434L885.6923766450941,342.99120650105294L884.041474497114,340.45028391366304L883.5051628616652,338.68896491157136L883.4009260386367,337.64666493178106L883.5745264156034,336.6170922953173L883.8642592940048,335.9107051230584L884.1930311955148,335.4464109994998L884.8978954113752,334.715451086724L885.4184389082388,334.3447301776083L886.3130583979689,334.1255165001653L888.9657518002148,334.5074274139829L889.8338067213652,334.83901297953946L890.2293352931621,335.19434100103024L891.0113904990202,336.41556615818007L891.404438640867,336.8410776147821L893.054690387572,338.2589775543967L893.6674778017002,338.69259980026334L894.8263725710653,339.23988517712246L896.3973252282881,340.50237725140437L896.7851278992719,340.6702108242075L897.366757588519,340.72937595368353L895.8033067198246,344.4557048575249L895.0655385440526,345.80458263898174L894.5861552861941,346.39293344673564L894.0074986915599,346.51212512934137L893.392196124575,347.317351396692L892.7730853391679,348.6777916314213L891.4924086497058,350.75208950014496L891.2054421072396,350.8964417642121L890.9167684228348,350.86074657171883L892.2672233359027,353.28215677887385L891.7674423516527,355.1604631394413L891.5173362828589,359.85495372766934L889.9529651478772,360.3012295412588L889.0386902362006,360.0637054962143L888.6804052686717,360.079436069914L887.0304965196208,361.11081406900223L885.6637061371032,361.56210957943165L883.6201309296126,360.579906381084L882.9268266832341,360.7747333197998L881.8722624046702,361.28249111698665L881.4387191408196,361.70215032376L880.9625862564922,362.3979411485488L880.7216086117053,363.10607989445145L880.1125505682503,365.80125292943313L880.1551024658219,366.4938884956582L880.6257936020029,367.5492664651529L882.2439163036952,370.35186881746057L883.6245392272635,371.8693833218729L885.017388038035,372.345487314826L885.9372951588057,372.6598169011374L887.5400159832052,372.382423460003L889.181473169168,371.8840596022477L890.5556325069889,371.6374670262194L891.8019675465168,371.6659401881566L892.7890377678759,371.9044726060974L893.9078643095045,372.5498474361224L894.2219901688396,372.8736123141015L895.6716975264608,374.6750016900338L896.6249838000305,376.1806650993128L897.3220216625712,377.0820126961858L898.1773433477247,378.00618064185653L898.5752675877379,378.80191582307896L898.9958380177818,379.72855644660507L899.1782560473066,380.52871619323463L899.2106604310545,381.8567481935237L899.1598698099475,381.9282041069196L898.7406175900152,382.5180009274387L897.8991072644283,382.71140415262954L897.3026226152195,382.1938522264894L896.4112536748911,381.7641448379847L895.5871441729901,383.9701641206483L895.0499155544976,386.00685638734774L894.8668655365196,386.0272701205335L892.5509870002197,385.09230314370075L891.1721577544129,385.29351730835265L890.9840661221155,387.1949805634012L891.0391164079367,387.8329583371521L891.7189958845383,389.2861953533618L892.3574952148406,389.98930423942755L892.7324637421283,390.0189122362059L892.9640777354763,390.8592643817072L892.9851143510236,390.935585802362L893.5201003033292,391.8397863841325L893.996834947589,392.4689765163478L894.7017158223371,393.2778139993741L895.365468718806,394.08641417381375L896.1052974335341,394.95161570211866L896.616538953794,395.1595023156957L900.7323268470947,395.6163305838255L900.8684170182751,395.7294901013964L900.8795923084472,395.73878224708824L901.2269515472146,396.02759655859364L901.3273889057741,396.2062361003921L901.7403445928333,398.3907266045176L901.7959601794746,398.6848839918172L901.6957816439979,399.2590019537905L901.672872340474,399.39028603501094L901.4558111814679,399.805869417636L900.6016284513662,400.8927885076613L899.7666716010945,401.7927541491081L899.7061645294905,401.85796525476394L898.3132086839071,403.3589537743457L897.6896632538819,403.83671598848906L896.9430707612349,404.2241377788816L895.0099991408399,404.6850866482396L893.2707133404624,404.2303711054166L887.3412940855205,400.86082805731445L886.5950759616786,400.6289480690769L886.2259245027631,400.6693772134065L884.0583922624544,401.71070529689314L883.2858742161866,402.2581047621768L882.2916060588634,403.15872784078437L882.053210628158,403.4317552035412L881.8147888758537,403.7047968212037L880.8724367933052,404.78382698968403L880.7442840296085,404.93054777310795L880.168448595141,406.38406838884345L879.4767697996879,411.35711881678657L878.2044456998647,415.15115376924575L877.069982780753,418.53210027281386L876.8396989584476,419.8938566375185L876.78041233333,421.1891583033559L876.9026770103869,422.8739649491909L877.1111482127692,424.3648389166221L876.3662836356614,425.49139096462676L876.2415386239646,425.6028636316179L874.6112574246772,427.0593985805361L873.643174786599,427.27688582037877L873.2738495598442,427.2305292063804L871.5684355188969,426.361052951523L870.4175140755606,426.0806028555459L865.3258726550545,425.51769015325095L864.1544363480684,425.107992821073L863.9488375667844,424.8527205385628L863.85147070094,424.3541216324893L863.5517585199718,424.19811852554096L858.3168900654667,424.03772955438694L857.8445661085992,424.3343710799524L857.6281665184656,424.47026932606013L857.3154569066744,425.00824695669496L856.8275951603588,426.8463163726884L856.7318665043687,427.2069193114061L855.6138053221655,429.7843559379951L855.1061189221429,431.82352717799597L855.0724149263099,433.1299544315243L855.1749827845827,433.90021117440943L855.3451237591931,435.17778145837343L856.3950747439666,437.71214679250386L856.8032964628128,438.381762816153L858.0392108903302,439.70691907575554L858.7090255600433,440.10581028145907L859.8719153013835,440.55092181484696L860.8961565443244,441.67780842708095L861.7018452607424,442.2657737650697L865.4071102082187,443.8681997387722L866.5482673673064,444.4959511851286L867.3496831226421,445.3729422018267L867.4618693508444,445.55771840555786L867.8155723928697,446.14024746093406L868.1849240913576,446.9878846053775L868.568165047179,448.58198750246663L868.6719056089714,452.54430201820776L868.3780545153654,454.1990629994806L868.0732910487466,455.2714315419498L867.7450912608838,455.8633606407643L862.161473316163,460.2062627145454L857.8189763003821,462.7711163206905L856.2840198172178,464.0157914839659L855.633170530858,464.8543463113509L857.510299832638,467.4455528958408L857.6598569985185,467.6519506309319L857.9195480009655,468.4168014098762L857.9097775234964,468.9215150196848L857.6939735135662,469.85183382663524L857.0572220687644,470.9112830699993L856.3034956118177,471.41199564522134L854.7491957806487,471.3187659821911L853.9757291092244,470.9792460984513L852.1086360453147,469.5775370958969L851.3967662206779,468.79774929196543L850.4527054555458,467.7634203803078L848.9600125094964,469.0747099230732L848.2000876186376,469.56188261499847L842.8312182387585,471.49803027263357L838.6417334202171,474.1949087490383L837.4125150716575,474.79153554577016L836.8952758561175,475.04253333027333L836.0721286608764,475.1154406523474L834.585007432082,474.7299255591877L834.2777403150137,474.51771111210485L833.2626849758019,472.9256213117893L832.7913329951435,471.1255862234297L832.5608431477535,469.6796567596334L832.5319989600907,468.75542917388174L832.9917167923827,467.26013593301997L833.000644852533,466.7613034619384L832.7474368914052,465.80149880905884L831.3815328653379,463.090431977553L831.0221715034829,462.6599552623222L830.430514754918,462.2658884344737L829.7194366461769,461.8881951462559L827.9057852727203,461.2023908625713L826.7407153491482,461.04559311524673L825.5056791813432,461.31764267262866L823.6739789552578,462.50157332124843L822.8776194841297,463.25854619985364L822.1236033842337,464.74265510454L822.025078683062,465.24425632160313L821.9788407922829,466.64569828439784L822.2720028173666,468.53265086002466L822.6781809819028,469.3638834971846L824.2296369844844,471.3013557941448L826.433866842352,474.71661700406565L827.8776339062665,477.43182520704454L827.9367257242017,478.1458452425659L827.541610260841,479.58677500645723L826.3269499130845,480.55120784445984L825.3554139364596,481.9165135472223L825.0354306522247,482.54381523581236L824.7550929595992,483.5281034541144L824.657873481831,484.77769454937544L824.9029697013916,485.8156000274684L825.5816011098177,487.6999288044883L827.9872149234802,491.5988810352841L829.2283819192788,494.17294828858377L829.6425347546005,495.493027352111L829.6530378214804,496.2845432195933L829.550469369449,496.8462872743867L829.4508751597348,497.3916924236993L828.9971894755674,498.44865437387796L828.4319249287682,499.0945826616122L826.1289266646612,500.5934905762654L824.2163873447718,501.19607899648787L822.4212126073844,501.51248361100744L819.8961702698107,501.47760816141823L817.9593412088439,500.73554602557584L816.1885236865298,499.76452984407393L815.3980677237826,498.2286289404001L815.2848863719133,497.3542012050975L815.1223991135649,495.4411773022898L815.5670343983757,494.49723381800766L816.6950352865409,493.40890878129886L818.8143191128254,491.842093335701L819.5908257017311,490.5298160067845L819.6456988797211,490.2268095818046L819.5122221310194,489.36632066172666L819.0446408271832,488.1017548315188L817.1258760065778,484.246946464551L816.7007272383535,482.9957357868474L816.2916471419051,482.9793513626132L815.0874172443405,482.93103287527697L813.4420667886484,483.3892126899782L812.4397821833832,483.90501782298304L811.732366802873,484.60074893232115L811.0130993173307,485.72951727121784L810.3682858768675,487.3259025958072L810.2800160249575,487.9758575869213L810.3626351541545,488.619431592227L810.729830444814,489.98598142468444L811.5090197271804,492.1291390338828L811.9332361379847,493.0544274900335L812.758100031705,494.3531285119545L813.0450004727462,495.51493735855166L812.4125717514215,496.59601675158365L810.9323580080263,497.26022667055406L810.2141664419598,497.55388346259684L808.999138248721,497.6929544630462L808.2989918597812,497.8966807597818L807.597385663976,498.42752945585073L807.2415637660597,498.9512793924766L806.9108195668516,499.69916637910404L806.7912865472763,500.98825162027805L806.7752082806082,501.1616221696506L806.8134687996528,501.7796592665437L806.9433255221601,502.1375704374557L807.322549417584,502.6621365861496L809.393560374386,504.94525812044435L811.3324152240527,507.08170068469883L812.7534334900804,507.8243563636344L814.6928054953182,508.2306172980674L816.098793250269,508.23467455147244L818.4985291030697,507.8181512839727L821.0969156848078,507.1119536825725L822.9780913202675,506.83188584192624L824.342058510163,506.77588880989055L825.302650363388,506.90807547876534L826.1070476443434,507.30253959453654L826.3527896318171,507.5342118212764L826.9473814826301,508.09470826282L827.641348117827,509.162336666871L827.9035411487035,509.9971126437909L827.8806706926366,510.8382174063625L827.7298938170456,511.4805908091857L827.3262376833692,513.2000101524497L826.6215822555566,514.3945778254392L824.7489282363708,516.7396944166813L823.1791032035212,518.0064366736945L821.5091328354417,519.6871186688251L820.3022866438148,521.4870332374095L819.3417024541149,522.5058190527802L817.5993494796191,523.9461497539853L816.1759895359176,524.5760866202205L814.6634116622392,524.8710583982962L813.6790724652606,524.8367989378937L812.3760142046804,524.4500947762956L811.5861931156921,523.9729727149862L810.7295259123,522.842435897026L810.2274772921737,521.8060009350177L809.9925260990417,520.5259947713852L810.1480026456559,518.4129892711986L810.3710422357708,517.2802114014947L810.8311127535703,516.3678391693489L812.8908691093452,514.509685846031L813.1379554068574,513.942292499633L812.9073250480276,511.73491736252765L812.6471161874049,511.13941727295054L812.0871882079532,510.24631994387676L811.005788324678,509.2294970766567L810.6356737035642,508.6878102538613L810.1379626186032,508.31829755839715L809.4789559205209,508.1340457092085L809.466290014549,508.1386214890706L807.9655402668391,508.68067216974487L807.2083498202792,509.3066123447285L806.125554637199,511.00874335300784L805.0344245394417,511.6637668298028L804.4199336761393,512.5498145392239L803.2281627858647,514.8135740911185L803.2231656607962,515.3697557064028L803.4875994959964,516.1384450121101L803.7893375796851,519.4209235144365L804.0828106004906,520.5195297302397L804.4931575672028,521.3371248064226L804.5138566135467,521.5599205052841L804.4410278336204,521.8718814102159L803.6065024134705,525.44544783253L803.8949586109154,528.0491082917912L805.0768170520794,530.7729952127664L806.5109265146743,532.8833966515622L807.4913328425821,534.7210184284883L808.5699556679001,535.8515124140087L810.0371297012621,537.1655794832024L811.7712308212448,539.228498606702L812.4724137139768,540.368746087927L813.5479254540412,543.3126891459619L813.6126017077706,543.9755320892224L813.5267425052702,544.6400548130155L813.1016474080755,545.8442511855086L812.7084852913322,546.4887814500945L810.8743804626506,548.1687191677005L808.1405507832781,549.7355804031913L806.3991527144835,551.8524009633221L806.1627610305229,552.2710513823399L805.9182971170461,552.703965883613L805.4985379257348,554.8165151049321L804.9371322548134,555.7918948193579L804.7742382082406,556.6618592054828L804.5292780591001,557.9698819872156L804.3847823043295,559.489934311725L804.8078351487854,562.8973229625775L805.4488622969802,565.116020490281L805.8163651847984,565.6854147375938L807.2030616490475,566.716786393218L807.8036959507875,567.2924606279828L809.2076507597723,570.0098252553257L809.3584010520216,570.6348610696735L809.5531785402839,571.4423671211217L809.4570521497751,572.6122349289243L809.1194892896143,573.7593199468328L808.8505220950881,574.3381739849664L808.61031722442,574.8550808749851L807.8203744601724,576.123886402246L806.8919996266567,577.1584569205295L806.7977901749132,577.263430160466L800.3557794711662,582.2431315003092L799.4712000615049,582.742128111543L796.8837331095658,583.2034741501137L796.2247957591609,583.4241242451286L794.9627823903159,584.0642094995762L791.623472411567,586.1337906036881L792.2867097434971,587.0415621108225L790.1366219237627,590.9655419504005L790.1763467443149,592.7094426046509L791.4544356880616,595.5280056747694L791.55487234371,595.749448148208L792.2210870113545,597.768207203065L792.236006539965,598.9849131414474L791.5114166422866,600.6526829423693L789.9502961750601,601.2739874790851L788.2110456713594,601.3254228642385L786.6199905640649,600.7149840106591L785.8041016882426,600.0629122998671L785.154035110586,599.1233139524609L784.9908264156091,597.4167282251526L785.3486863723241,595.2542192541689L787.2142647126457,591.7567211512084L788.1740322125488,587.7205581661037L788.1453775490877,587.3477429319046L787.6774059402632,587.3596130698161L785.3359352646305,588.0373917100794L783.4412475263796,588.7575709272761L781.0865155302599,589.3227517294637L780.9020771636812,589.3309073621147L778.5430836031571,589.4349529692428L777.7012060093213,589.3287040501672L776.7933905055253,589.0921540777215L775.2016933988973,588.6772096700886L773.511675058234,588.5606042725669L772.3078389331267,588.7558865214115L771.1571104874996,589.3920024450497L770.445699794504,590.0494864075295L770.2012895610656,590.4989937463598L769.9747102999038,592.1426026955178L770.1629468815563,593.7247670407704L770.2982234133148,594.1077974273826L770.6995558783163,594.6846863792181L774.0068099452332,597.420481659822L774.8910199399693,598.8801060698046L775.3251805007149,599.9766884703132L775.7880598719934,601.5984909307986L775.7825047489816,603.2673903884711L775.3775079818703,604.3102616120473L773.5627878248864,607.4925003929527L773.0652004306435,608.0895564363433L771.143215952673,609.6693615046404L769.7354925926385,609.8507130191406L768.8462409729889,609.7724770289215L764.687492709855,609.405652468717L763.621594121963,609.4212594818333L761.6739691442544,610.2062090695524L760.0763834847548,610.6367166740633L759.3796682289022,611.0418891734189L758.6439293703195,611.6865594023492L758.1940115018429,612.27854165051L757.8626206007872,613.1920689907489L757.6686658767317,614.226334657393L757.072860839228,617.4024156416034L756.5691033720977,620.7868974326514L756.5806221407679,622.2345512464038L756.7303217367228,623.1707180846945L756.6519905801233,623.9256458340406L756.2675739107827,625.4296892929244L755.7751739117768,626.8606903741833L755.2111702077091,627.9534775375691L754.2048654517642,627.2893135481759L753.4047430821403,626.7827128044686L751.3389881787953,626.7092965432219L748.9164463578057,625.9788042654495L745.7836317518252,623.9128063541567L745.0230936943985,623.2412675943568L744.6509075376775,622.6808394504038L743.7408373429396,619.9737262835356L743.3947718369814,619.3642062517807L743.1600664176897,619.1385617736399L742.0933011069344,618.8204287794227L739.9491640088477,618.7338689336432L738.795263579887,619.2437767740178L737.9282074925886,620.3082286970237L737.3749116473223,621.1708939690214L737.242534649272,621.7978865380583L737.3202409178559,623.4989315431508L737.7231999181538,625.4136276297427L738.2559401217068,626.4177746894658L741.6834631908639,630.6417602996017L742.549211489293,631.3460813543333L746.5791377770402,633.4376298093007L747.3918648079141,634.0869583900258L748.4088344592674,633.4844659059924L749.4416573332942,633.1502060598106L750.1839105227275,633.7113645544849L751.0182575623344,633.7497737189836L752.0252933722118,633.5008319536483L753.1007966178076,632.890994878074L753.7915344747407,632.7290420242447L755.4889660656387,632.8808626471605L757.2779990525371,633.3726032308011L759.227220924022,633.0812033025161L761.5934894451618,633.4382385848397L762.4454788680839,633.9576375565892L762.9314242120449,634.505342447867L763.0946240030629,634.8564826537207L763.2143532052232,635.1140799357514L763.5757790903153,637.1330154112595L763.4879023015152,638.5786878060071L762.9142872426362,639.9383361083546L761.9602491495832,641.4181440491637L760.6614120378775,642.8597967713251L760.0542671755783,643.3697224609732L759.1565697296498,643.9252471913986L758.0103069540165,644.4248001478156L755.8094819782298,644.7260128326806L754.5481917726629,644.6101526796893L752.3122733170026,643.9384239004003L751.6435470013919,643.573328039033L749.8178241616083,642.180878985259L748.5519041835478,641.4026493078364L746.2344742891787,639.1873858428763L744.3800709923123,638.4231274581308L743.0901436747743,638.1744738136528L737.6050712320981,642.3602892628538L734.4323182807693,644.9167697100233L733.4829474990453,646.9064127194289L733.6855149655457,648.1659917426018L734.2142699750024,649.3531908421701L734.4151382555614,649.6257440658494L735.7588263239568,651.4486147630264L736.2080878431501,651.8938627760253L741.3067016616874,655.4770988641247L741.8870813799225,655.6796238322031L742.7532250817134,655.7282456754555L745.3231828956693,655.1978109496318L746.8205664924897,654.4025098347843L747.9065447848529,654.369233069665L749.0037201926459,654.6274364043541L749.7590306958398,655.0992800177833L750.230400789379,655.4872408050344L751.2069712303417,656.9702706818114L751.5249688280674,657.9055345240632L751.5264198298773,658.4418358152569L751.3011735906848,659.3359576378919L751.2721571555862,659.451130263727L750.7814948321769,660.5072800179687L749.3227314062001,662.5111421937272L748.5118459921744,663.821763630428L748.2358409161027,664.5921458474971L748.0976918143642,665.3160569209073L748.0515247367323,666.7791222859853L748.4270693923539,668.341759246965L748.5389923919761,669.4854355258394L748.4717421850512,670.1122013648097L748.1812427875702,670.7759879609966L747.5080703878623,671.5011673990956L746.1193750238638,672.2786172122492L743.0979041540224,672.8216182457303L741.6147870855277,672.5401169938241L741.2697789429203,672.5669701851411L739.0651995796493,673.5625877899367L737.5201197806495,673.8960819905171L735.9921115370354,673.9913728365802L734.348134687491,673.4473524190169L731.8862403664165,673.1816645157398L730.6499694628188,673.282432201856L729.4908618724742,673.5213346092257L728.4587694243753,673.8932589867693L730.17663900151,678.4197754769383L730.6900344707618,679.2641721375027L732.0279510608561,680.3569538772222L733.9835369738341,683.1893761016026L734.0726617117235,684.1032936778927L733.6259221976957,686.1588515977152L733.3462575213437,686.7040051673882L732.8702153595357,687.2325278011444L732.2339129902016,687.6007099866555L731.0396382207451,687.9612982039569L729.7412867976263,688.0713072790863L728.8778527079451,687.946852610673L727.4214819265565,687.4225164626873L726.3497678771789,686.6503441406624L725.7462717947965,685.5851178754322L725.3096218683784,684.120834873299L723.4764744293286,679.9451330310516L722.3677837665875,677.8830235862304L719.43923967719,679.8460795243388L718.3100076400628,681.3290677627199L717.6921195712331,681.9446065553116L716.5786347032315,682.3904720069049L713.7977203971733,682.4572005875177L712.0125095786657,682.6477523284316L711.1821985356471,682.8819620059455L710.4151548670641,683.2589975569492L709.640992528698,683.8175096787751L708.7196489858454,684.9334724313244L708.4952964948884,685.5865170594527L708.384652830016,686.2972412793077L708.3998223878034,687.1945756488692L708.6451099530284,688.3166298965496L709.0507805974926,689.0469960339925L709.5960539484374,689.5390132863637L710.6264384298731,689.9796234438895L710.7294446099665,690.0236640673811L717.1307423788321,691.4753657671477L719.3082184388388,692.3028553082104L722.5255627808774,693.82459841617L723.9778318098547,694.960083763064L724.5317169189009,695.6525661584474L724.5639879158377,695.9133747085654L724.6017234288267,696.218336642868L724.4520838810126,696.5726910147902L723.1589355897252,698.1682762460454L721.4422144757104,700.8941748773491L719.4358932026863,703.2275268982577L718.902797682028,703.7886993778554L715.7915526551394,707.0624397194215L714.6332545391085,708.4273697401783L712.7636188946261,711.0812480678678L712.4046287525516,712.1337911720225L712.3907415483543,713.3301107547312L712.8013146213892,715.2326303020977L713.5939020560588,717.4128086824L714.1219956757302,718.2020784659177L715.833449066354,720.141167275836L716.6391779869402,721.2711552013861L717.3020118854336,722.5734651034118L717.890317358067,723.3726241760116L718.789131551507,723.9575638435667L722.3002715412675,725.5398239034705L722.8336722202487,725.7154092018666L723.328789774885,725.8783663108759L725.8170708267683,726.2646595487381L727.3744889948968,726.9610252798263L729.0969066115074,728.5988771110381L729.6171284025789,729.6938247933585L729.6692289191542,729.9250071125178L729.8061147157032,730.5323693020401L729.6340739298616,731.4934253853389L729.3005688418957,732.4177559986542L728.7932849730423,733.2025793538023L727.5615007315289,734.3073486013081L725.0431557921518,735.457597744658L722.9394075054404,735.9179381681051L722.2324118692186,735.7780750932477L716.6940733254767,732.2712212040128L715.3661866368893,732.560360300625L710.3513388314709,732.9790408877305L709.6541744715378,733.1430471356468L706.0009220781334,734.4834582487497L705.1390322391303,733.5482246319048L704.6187376327829,733.1287459492125L703.8390593080228,732.5000547982681L702.6901650004852,731.7816583796781L701.7268021194213,731.4795882672543L700.930499441363,731.5045433716705L700.5984565836469,731.6588195601698L699.9117302522482,732.3740780064995L699.4212248907147,733.0642428314114L699.0091635049473,733.8714037388586L698.4214617334972,735.4527631491244L698.500278409457,736.2601113869789L698.7476522550326,736.7144474269387L699.2231242132843,737.0084446419493L699.3394167946126,737.2719581919523L699.2001207666774,738.1893904932922L698.6173080225578,739.2554384400123L698.6363044604948,739.8041157245225L698.900280068285,740.3297701641968L698.8948087071731,740.3536938085574L698.3082364284421,742.9179910809123L698.3114981190213,743.8974644274358L698.4972218138134,744.7481455399582L698.7222443048495,745.2564034400716L701.2862969547791,748.2371847048701L702.6878477118187,749.5280188761876L704.2761377167348,750.3233852797923L706.3104629277227,750.436192833374L707.6261291664462,750.3257281885581L709.872754013473,749.7016955241681L712.7471966486659,747.928598016397L714.1637831282412,747.3922543071416L715.0805019655413,747.5116234557768L715.8638881857007,747.7530405023778L716.7489204260423,748.2955135072693L718.553612339653,749.7457618476357L719.7022943450402,751.2621745869149L720.1724385445841,752.0587913537518L720.5720601868421,752.9419155181293L720.8022254714704,753.8549317863686L721.3588279505726,753.9234439158769L721.9617452442906,754.152295846373L722.0128805451229,755.6388954346412L721.8066701715493,756.4868095050795L721.3576452079382,757.4351757723373L721.2120912560297,757.7425629997181L720.7640462690517,758.1658986233906L718.8539992534388,758.950358792354L718.0270551777941,759.0210733312068L716.2924742074586,759.4665646480689L714.7170613731707,760.4037448129247L712.4464457297134,761.5258305905945L711.3197872124589,761.7856643485416L710.4980746708993,761.789581884984L709.3161321077447,761.5842561554384L707.9051012396155,761.084852658107L701.888769380583,757.8418924876185L701.2786303199766,757.3067337037008L699.0378651007869,754.2571356380686L695.5836024601983,750.0985231730742L695.2633219823504,750.1677374041279L694.5918183478595,750.5961550395688L692.6129726577822,751.1288787063405L689.7240994735325,751.4971533623233L687.5919604423617,751.6227388373165L686.6565422826429,751.8165432140859L685.3211126772582,752.4678504059661L683.6388779399616,753.7938065716814L682.8013105130015,754.9507373753547L682.7175247397756,755.0664569869612L682.2225903844778,756.2093694058573L682.0180099316542,757.5529090010325L682.2087738203227,759.0544325157895L682.56326038668,759.6912918748571L683.2958225252212,760.6130884085685L684.1094978401807,761.3926439167925L685.6896047245883,762.0794912229366L690.9208816659159,763.1568798080303L692.374093695412,763.7289247847135L693.8318569953984,764.5061200089282L695.2583791727869,765.5612410326615L698.0792084497214,767.9841306450078L700.3964044827223,769.713091889412L701.4026934281984,771.1790999221613L701.7104637707889,772.024946113816L702.1540898586486,773.2439890102733L702.2736649839203,774.4250317182547L702.0799816848485,776.0251412501062L701.9198487564524,776.6252915861394L701.6124160918572,777.2383081306241L700.7496640397117,778.1290403512519L698.0241148413581,780.1729379383279L696.9656564135626,780.5239850422072L696.2944546219094,780.5440364409941L693.2129140560432,780.2216228836724L692.7625590493242,780.319184302514L692.193598137351,780.5953474282778L690.6326977302394,781.9135020646847L688.7688485640439,782.9639862865431L687.793399903898,783.3012351677377L684.1093551149561,784.0095825149522L683.5774632056184,784.2142452074556L682.7095766473099,784.887915664466L682.2483191844146,785.6966250682544L682.1392690408968,785.8878035474586L681.9295518351014,786.6533152321834L682.0025787459178,787.7830395964214L682.5294025876378,789.1637645947385L683.2686129605888,790.5656896647597L684.7346251783233,792.6768186633356L685.482708532957,793.3738624366606L691.3032938013897,797.823243774862L691.8773635426016,798.5838001098609L692.2501331769151,799.7847421619063L692.2362707942005,800.6986193537791L691.7291529045428,801.2469799477828L690.9915256054835,802.0866985045963L689.7500614427037,803.2148013764029L688.9778360600053,804.5280775239446L687.801213003981,806.8763292021476L687.5974729323618,807.6681713645517L687.2459392058786,808.088834640444L685.8552354191776,809.0474733250792L684.9165500496938,809.4888011808366L684.2814252725165,809.5706836024167L682.6266334925787,810.9807029467781L682.4555196516368,811.7468767896482L682.3379140109884,814.156974131465L682.285008022456,814.2888010305965L682.1671518929768,814.582455838691L681.8483368136409,814.9992047702731L682.0080443614426,815.3936205679687L685.6355631003587,816.3528741472063L687.0776685511228,816.540767322291L687.779582546098,816.5133316099606L690.2259905716907,815.8499230735058L691.7686690022917,815.2735580717847L692.8079732268723,814.7193799510852L693.7022486047059,814.0057383892721L695.2590663567526,811.7886683980105L694.7125654670754,809.4437489533008L693.8852475058926,807.1766526798561L693.5736466799169,805.4516376371141L693.5010743077562,803.6891280563916L693.8118470021357,802.5661650495927L694.4419350017223,801.1156169569119L695.4057144460581,800.7026589509305L696.0946219483837,800.8947854967563L696.8929172110688,801.5120932926492L697.4742367377094,801.9613123891378L701.7174549365618,804.6786012845939L704.100826755536,806.6812420118258L705.2731906545763,809.7144263199252L705.4304763898791,810.3579923054795L705.6520135314757,811.2643649331145L705.5733851906797,812.4047214601671L705.0775742176841,813.7640973824191L703.6026064968645,815.5652492926209L703.2221715061411,816.3073914294789L703.2280123809483,816.6381185223755L702.9702546551607,817.0900193910406L701.5165812409653,817.878061637688L700.3527083581728,817.722487198683L699.7915247927676,817.8649684050978L696.6349595060499,819.1541815597805L694.0519766823967,820.4693307086401L693.4255936064927,820.4415664825565L692.3878545809195,819.8759451535956L690.8694495717688,820.3582351228179L689.3713326520979,820.2472658719223L688.7258551182518,820.6229153919572L688.1943962867779,821.2660152402781L687.5287789852975,822.6187995712426L687.4366849361653,823.2105647571316L687.4888233372034,823.8545609387048L687.6836209689125,824.2451232806407L688.3802740055793,825.0030352406421L690.7971993493622,826.8683525351094L691.1915285561199,827.1725927860921L694.1031354199208,828.7575371408948L695.121176810497,829.1745501562118L696.2764764590866,829.4693826077348L698.7714518616355,829.6059338657294L701.4138753099631,829.1658688965776L704.8836594292875,827.3736308822424L706.8498156210184,825.9681963735839L708.1519202439761,824.491728570358L709.6983497039068,822.2294936211181L710.4686193410655,819.9667975731059L710.3961814356533,817.9787449385801L709.9281725179591,816.5214336628253L709.9051504602444,816.0384268576704L710.0463763503069,815.0937211174919L710.5118764024237,813.8524869317357L711.0399370161026,812.9544546127804L712.0351993016591,811.6547335027185L712.963896250853,810.9985168441971L713.768900836702,810.6248049701716L714.427457998569,810.5693540473219L715.8344177596665,810.7068628987965L716.4335803891695,811.0148461052177L717.4405823768654,811.8441361236164L717.8318286715528,812.8156616905217L717.9164195816293,813.0256964649811L717.9076237133631,817.0641485825157L717.7112487907057,817.5185351317357L717.115752925469,818.8962387672611L715.5991865002012,821.1424037412378L714.5701563566304,822.6659751472794L713.4283971170967,823.606568195567L712.7846531613218,824.1367880851803L711.4772370064759,825.2134131850642L709.3780032051696,827.3496236436495L708.3381363953765,828.8432797826579L705.6695075322028,833.1156721560599L704.7376828507636,834.0386050184782L703.6978365958505,834.7884005518681L701.7272368088342,836.2088621178393L701.4102018657069,836.5504345534155L701.3298627813434,836.8163560708426L701.6533965457315,839.8448891677308L701.5044176663998,840.6090756215235L701.4854331318998,840.7064503858549L701.2028222816559,841.3065458242927L701.194919492965,841.3852670308959L701.1509382764834,841.8233542611013L701.6743710178355,845.232846816921L701.7182825334385,848.1455829661793L701.7285016947133,848.8234838026635L702.0611786525049,849.5258088112162L705.1016678001425,853.4329936352298L705.1351458769694,854.7749106521452L704.6522981562849,856.3008025978306L706.6942123604517,857.8167997651582L706.9022571169414,858.1489307431484L707.3476106201476,859.4612645077008L707.5352754087826,860.0141904358936L708.3404660132392,861.7030871003267L709.2624372296516,862.6859576806169L710.5118899968493,863.5498839835843L710.7163376596188,863.5333554431007L711.1358946354417,862.6831230931987L711.5282885956236,860.5164746820764L712.1654841302377,859.4461538983145L712.3841384734421,858.8361823830535L713.1435302194736,854.848236444167L713.6111906770182,853.644527017431L714.0931043214604,852.978251769641L714.632312116018,852.4654451581794L715.8282538212334,851.8095984095053L716.9441166800374,851.4677155810093L718.63241311098,851.494363820198L719.9331244231619,851.8237120989106L720.8056589751841,852.4389168308289L721.4394918921674,853.3424675915201L721.7739368882521,854.3988139047194L721.7294458019257,855.5671745097366L721.5110335975548,856.6499231545324L721.0442736094378,857.9781059085706L720.5361974839092,860.1273354182492L719.8107557944826,861.3846737883476L717.8734592899416,863.5598155540015L717.5502760974666,864.6315082373936L716.9245246330222,864.6579143706763L716.4591924586007,865.3599607138779L716.5533411639642,866.0372592739785L715.8635766557575,866.170965817181L715.133729801565,866.0270971686169L714.8235038410216,866.2741641532239L714.8388053588114,866.9088863391814L714.7597244494259,867.0723042423172L714.1095912450571,867.4781161155748L713.4777869379802,867.4876948162874L712.3179050375443,867.7175967357404L712.7461404485135,870.2905243540531L713.4135292542579,873.1173297659627L714.0450614719289,877.3975030819005L714.049910238801,882.034921787905L713.9477744963481,883.4923778526479L713.7142423995743,885.2233645870897L713.5970398751033,886.0919184985237L713.1661790463926,887.446467047874L712.5029561733986,888.1753587261107L710.2677510352376,889.4769118070406L708.2870977840942,889.9530940752054L704.7105937164469,890.215053798999L702.3277022735043,890.1035470261736L700.8905276515103,889.91494721007L700.580557307157,889.6525265468531L700.3255143254869,888.8571600921726L698.8078033527229,887.4011241139729L698.5290488166777,887.2699070643132L696.9444773085615,887.0968452618513L694.0453795527619,887.392543733318L693.025491154847,887.8728574035363L692.1342015236255,888.6416388610448L691.7126039108475,889.1385593548159L690.4427807375781,891.5060916942034L690.4004869884968,892.4497314718785L690.590330327152,895.2726937887717L690.6668007140909,895.6248237413906L690.8688237419511,895.925984385926L691.740675548172,896.483662027665L693.720591299148,897.3987999548701L694.8564833197531,897.9236172396651L696.1397095539708,899.5324430168258L696.392439192639,900.0922895989352L696.8150769441099,900.4481205856493L697.9654518699531,900.8225964726522L699.0418906840457,900.9390054444654L701.2736641719882,901.860722651179L706.5099020337211,905.9967884026012L707.2409080916182,907.1883166306127L707.4434741676887,907.9741584191217L707.4338490291188,908.3132813149741L706.854131301609,910.2645565328628L706.4491096754086,912.296677567153L705.7751560687594,913.4630307097223L704.0971153361309,914.6760312338207L703.0875813378063,915.0660774417024L701.5949995087924,915.3242941601907L700.3027461975191,916.0195982130465L699.0574087133659,916.9973950109556L698.3029343276777,919.0503210007664L698.3854071977751,920.8095192678866L678.1639403756611,921.010408068363L674.2045625559033,921.1110397420548L669.8968133720488,921.1511265822535L668.5602812853814,921.1632373559266L668.5569128619939,921.1632745197302L666.4165273957725,921.1866906871534L666.3995355820686,921.1868434590424L665.8992686041769,921.1913301096904L665.6215323274419,921.1938968433146L664.9325341555153,921.1965230963671L664.2691841277169,921.1832488526281L659.0952779441478,921.2456974199256L655.480862809025,921.2879474965918L645.3757562708084,921.42022331793L643.2675088334347,921.4377640998598L639.6750040513444,921.5636342563822L638.2380344055973,921.5724863087769L632.3569575423256,921.606851511407L630.1186637898477,921.4976910098867L617.9857845254533,921.6801087368547L615.3634566669475,921.7042363098167L613.870748734528,921.8334016422006L613.8372699180171,921.8227017957865L607.8705528649314,921.9030399422276L606.109768733364,921.8896524371115L604.8757623756783,921.9202900458563L604.259717814596,921.9355356609663L604.0616854620722,921.9363771138334L598.203401075896,921.959733125319L589.4550984941235,921.9890782887599L582.0114600493182,922.0088284124679L578.020794187021,922.194332092472L568.7779660523954,922.2372263523407L568.7735604123859,922.2372450340919L553.4844239696174,922.2919529420967L543.4386803249755,922.4218031540161L538.1842380462394,922.4862398524783L537.7845063439943,922.5121407045033L532.5036197610186,922.517303223462L527.7373975660065,922.5198891934937L513.8432207355468,922.516201588764L489.36334964774517,922.4780430621979L482.7076213042387,922.4586953652193L482.4280897731701,922.4577988461403L468.15523007530766,922.2552590990069L459.3210600224988,922.2154146211899L453.8091243011015,922.1565440270286L452.75488301808446,922.142919512067L452.291775107621,922.1369040899781L447.87879207584814,922.0733247355979L438.0862210285286,921.9262143117834L435.50012356720833,921.8859776044833L431.96453948321255,921.8300304299828L425.5029132608741,921.7885942813373L425.280212591333,921.7882505573917L425.0139122867176,921.7878339015394L420.6859306373176,921.7289820686592L419.6998118975858,921.7153458633254L418.01384419839246,921.691836905289L392.2903578107393,921.3026109347156L386.526644973082,921.2075378961972L384.3308819144673,921.1705614508169L383.2397867421845,921.1520321505127L382.6120638185645,921.1413252339178L382.55895533963053,921.1398183797248L381.70845755881396,921.1156537704799L381.68427450295695,921.1149657568591L381.6732541397468,921.1146522081247L380.106132536053,921.1240324694534L379.86303283911064,921.1181945504392L379.81171504362095,921.1169615241292L378.13734233354444,921.1094542977346L378.1365904646354,921.1094508720928L378.135558928392,921.1094461721921L365.1946671864007,920.9165435437109L363.02322958050263,920.8403856899929L358.19469427795894,920.6695703232402L355.4829213658834,920.5597410751684L355.43946278269004,920.5506598043746L353.4206557433979,920.5210338834554L350.6942525585986,920.5179256279143L345.42032734971025,920.4177994076842L334.5457156420978,920.2037347252201L329.560324679393,920.0650864932118L329.52369087927514,920.0640596981799L325.93398852783383,920.004136161382L316.14314696179395,919.8350204166402L309.18631402520236,919.7098084287098L308.6797178890895,919.6783380753362L306.99203121239657,919.6520792756701L302.9968557832739,919.6408444381952L302.90233628214173,919.6509528779368L299.1663644374096,919.5970364946511L292.0933938169876,919.4916498889557L291.3644803601828,919.4805304524521L283.29836534714883,919.3544102608298L279.57119225509103,919.196328058978L278.0192241397359,919.2073305821739L274.88042952426247,919.2289450689622L260.6675131493652,918.980078923988L260.6232679237439,918.9737962795016L254.09581275597867,918.8334623963692L246.58154755254094,918.7367680970805L243.53285504495798,918.6707067251555L242.74215500312653,918.6534416878371L236.75473667158516,918.5209469909082L234.22501513004738,918.4640334640947L228.21664714374728,918.3266344167462L228.20533784511935,918.3265303116622L228.2048974495318,918.3265262574778L223.6270418992763,918.2834758116296L223.41990839478578,918.2798153740086L223.34370750326798,918.2784678259318L223.32205782056036,918.2779168199668L223.08459956755945,918.2718706041894L217.20036327543434,918.1204835126966L217.19566572300153,918.1203640455875L216.39460910951937,918.0999637757249L216.29370551747854,918.0979213266883L215.04991982731292,918.0726726586836L198.84023035554034,917.6668888535414L185.76274059692858,917.3229135402335L185.48424935616433,917.3154271936328L175.88227404884617,917.0531961164229L159.20658687633392,916.6817867283848L157.23835632859664,916.6363590595039L141.61408908767515,916.2611241608421L140.63576318913215,916.2369245589449L136.0638942084713,916.1227362555628L114.365391382138,915.5560805762368L113.6485399315311,915.552565548408L112.0442701925183,915.5059824779646L110.89994791793731,915.4631806730081L110.58975768046645,915.4468438643596L110.99057035309852,900.7730073912462L111.0524675599238,899.1788197499645L111.11566564457974,897.5509893695959L111.26840121213945,891.5652869675159L111.3712567983979,887.5341684149779L111.38641249328572,886.494505496624L111.38651852367082,886.4851064241111L111.40100362005745,885.2011940482555L111.61164823560273,881.1138856194281L111.85161654934421,871.5092941809656L111.85190528828412,871.4969287802453L111.86797413084753,870.8087721781326L111.957559552762,867.7572270709443L112.17014399593296,861.2918548595297L112.17154035147144,859.2720566606246L112.20227305364864,858.0284893313531L112.23625764482728,856.653326092068L112.31938592396102,854.1455354711429L112.31948500902092,854.1418920083177L112.31949275072435,854.1416073379562L112.71084999341076,839.7491157141503L112.77314974081389,837.5456711315421L112.80216183301093,836.5195215340395L112.82653879942603,835.6572967203131L112.85911278887158,834.5051132175936L112.86265899879692,834.333100874996L112.89225433657703,832.8975723710334L112.89245151251185,832.888008439259L113.03013079600441,829.8764392453973L113.03774490275748,828.2865955078926L113.05578337419291,827.7144999634271L113.10034254194932,826.3012447326065L113.1149633853592,825.8375097571227L113.20546836656769,822.9667648999962L113.24928727033642,821.5767637321225L113.25145258469661,821.5080750141537L113.30848717773853,819.6987495052086L113.35635051837028,818.1802802503413L113.36289780009224,817.9725609726728L113.40367229013731,815.9784155766267L113.41647623552495,815.3522336969706L113.43939093885547,814.5413043570841L113.44937763188818,814.187880260435L113.46389187923796,813.5680359847725L113.47200122754856,813.2217189348758L113.50545377087656,811.793098777832L113.51873111925886,811.2260784113901L113.52092391409604,811.1324332806827L113.54652324881664,810.0391928495958L113.55065750186895,809.8626362919722L113.57788484189143,808.699871717465L113.64533116298213,805.8195289546206L113.64562135580792,805.8077260021035L113.64563375742756,805.8072215936243L113.75942563634516,801.1789273114455L113.76834350853898,800.8162026475104L113.7687772107833,800.798562265681L113.83712650187141,800.3130486758375L113.84157947723662,800.1111029532033L113.84255889520819,800.0666856750693L114.0258627142141,791.754050471773L114.10054260110286,788.367578520822L114.15219299930175,786.1598382696175L114.15341757434715,785.9590902320211L113.84518462315481,786.0819712659547L113.62404097109209,786.1701266533632L112.77995646443071,786.2039272156006L112.4530677495166,785.8304270133885L111.58934001618422,786.2566619166804L110.41148370048171,786.456348581001L109.69569726631971,786.1582153070935L108.98369498163066,785.5322998487229L108.3682107213707,785.4035589054934L108.04475061752572,784.9165545807483L108.07839812927875,784.323200372291L108.49676538134781,783.9964933391868L109.25971393689389,783.7082751866978L109.52211658352866,783.7174949062409L110.62107936538246,784.1841740310067L110.89022079813361,784.1700345027114L111.5903419251182,783.7659061695688L111.7537418197249,783.5550021376708L111.70332859132043,782.2527552958284L111.60594782801309,782.1110554902307L110.66702663584601,781.8466741480973L109.67912041975518,781.796219481917L109.54484331427318,781.789355032085L109.36056357743252,781.4877959875039L109.2766363367005,781.0402533999529L109.23141457539225,780.6520145163479L109.04222502588902,780.5013627582839L108.8677951587261,780.3996205898688L108.67638701970344,780.3264809851768L108.60206568894472,780.3822882930746L108.53462576487851,780.4867814038555L108.53017572442576,780.6415742324805L108.48361742724637,780.8627995588791L108.39242705229901,780.9501247016069L106.40275606349047,780.1028482058341L105.12968326946941,780.1071553401644L103.40347400217354,780.4455209581772L102.85704763077246,780.7086101073221L102.22188468217314,781.227773791421L100.2467159126619,781.9841507441539L98.82188993427292,781.9401327575983L98.719700773856,782.3005625675825L98.61075245754517,783.496361820879L98.1212273127079,785.2866857667238L97.90820501521699,785.5257744984459L97.29199458421493,785.8598288021076L96.93881089138142,785.7753635654244L96.40309040708263,785.278779455323L96.10297691393623,784.0527700760285L95.9299903658619,781.318342349381L95.77484947863212,780.8714689363669L95.59496132157761,780.7800241514256L95.42705314101556,780.8690784431772L94.06752187920023,782.160686352586L93.6929424483954,782.2750383307427L93.03568520213196,782.0877276041584L92.46282703406888,781.4136304369528L92.41043137156078,781.1480100608649L92.52786745643374,780.589777168865L92.89446585412071,780.162226830258L93.68339565340182,779.7015487559297L94.23263326023397,779.2028486036279L94.48269092408907,778.7582013025616L94.43361094146076,778.3203493052581L93.99018423458824,778.135403411872L93.65331676068325,778.1551031798092L93.09876179823914,778.5694688997789L92.2817481572335,779.5810361318127L91.44175047146888,779.5978474296843L90.56048185079271,778.7172782131776L90.42436665393865,778.323797016006L90.66372667988304,776.6110413645396L90.43170845893235,776.3775871285527L87.61094575542478,775.7653777630359L86.70381409119511,775.3654947799591L86.10735184838984,774.8454050080453L85.4350847077879,775.6285284612414L84.64586802005277,776.5477328057739L83.89044862220436,777.6366659800472L83.46382633126825,777.9063930984103L82.81024065310658,778.0367025816277L82.03408425912835,778.0809815364469L81.59441248853614,777.9305773730587L80.56271882217374,777.4710214559168L80.1557251886274,777.3749189102364L79.86411600800903,777.4385368807666L79.28723749800855,778.0144605511945L79.2336614066167,778.37086991129L79.467588887217,779.0735307261309L80.41886133902608,779.7380001269363L80.75268222883318,779.8124213920137L81.21513794150917,779.6224408588027L81.85372964885994,779.484228154095L82.49759743369333,779.2991095044595L83.44592148234608,779.5881584407746L83.83483214562813,779.8673694202007L84.1971801174708,780.6672795544407L84.66220281525028,782.6143634022785L84.33391226354621,783.7652595989914L83.93599085991696,784.1196239301187L83.2929160432052,784.3497544904949L83.00668680493493,784.3130057106539L82.67608966053467,784.0973667615888L82.33567128676117,783.664626069213L81.925476587498,781.5374454847674L81.51886290650725,781.3591959062635L81.02316600213811,781.4208708111134L79.87920183075028,782.3010114439485L79.4228647136186,782.9427438091602L78.69192553267027,783.9704903205634L77.92966605446185,784.433509282079L77.21992485727748,784.6963757530607L76.1128730912987,784.8613015944393L75.80350901690753,784.8154035895589L74.89385899922422,784.6803956995325L72.4435429899051,783.6106642033209L72.17756936693877,783.2571029217079L72.05089193045438,782.7057503488272L72.05210983489968,782.3638791557963L72.32545651886568,781.5420982444805L73.7499571230623,779.5824879345006L74.88385661670031,778.8491679560645L75.07200073013621,778.6041929878497L75.3260465153499,777.8468370246248L75.46040966283476,776.6200000420786L75.34842003247627,776.2724493329317L74.71773076056996,775.7373132068788L74.19494088897898,775.6787823386069L73.55387029104276,775.8026456580842L72.17439592408442,776.4786841120742L71.1081770904737,777.3260822546988L70.06853383245635,778.5423097149508L69.45118828483663,779.4353194825626L68.33622607232047,781.5346141941002L68.29858699986642,781.9121609891001L68.07958709763864,782.3180514786701L67.55755378673757,782.9961761745855L67.32445693427667,783.155477841055L66.612769857758,783.3599017328819L64.90168322600005,783.2674623601745L64.52819523724702,783.1444733691318L64.24303754911193,782.8352040130324L64.12080120842097,781.7135645552837L64.42116543579806,780.6506172478466L66.11610885144046,779.4730320037272L66.44741084098285,779.018495131868L66.41607566153027,778.4649177987937L66.08286983610827,777.5349745745234L65.90159849907627,777.3077353815361L65.21100740008126,777.1594543656072L64.78439767072553,777.2100535812513L63.93767090036641,777.6006568747895L62.86846245887267,778.5842443787465L62.312174114412414,779.3409276865141L61.75905717968038,780.4725820052588L60.96408589732209,782.5034786024291L61.14218412877108,783.0236808443627L61.086407630994245,783.5214077542561L60.65523055467463,784.1209447718416L60.41458969940578,784.4555202267245L58.391309502612785,785.0699251625481L57.55759017570767,784.80678945077L56.7697679320774,784.3839388406703L56.181502488229455,784.0681459560274L55.935858330590634,783.900868294249L55.67559033230913,783.4027957940875L55.55715431719153,782.9086773259132L55.55283191224777,782.8906434106179L55.49596609445922,781.658054772701L55.3914759868004,781.3984929963628L54.71695898396763,780.5296643868592L54.288490476368224,780.3223057452469L53.5925875711435,780.3120724284529L53.287723358612084,780.4257491389812L51.849169442520406,781.6240039268642L51.792020222193116,782.00061926388L52.80602344583673,784.0752338520423L52.778136368957746,784.3456780034053L52.44062705519423,784.9937565123328L51.07304866920782,786.1277584999895L50.98496459849099,786.2007867386382L50.37456324829918,786.1680321891986L49.90513625105791,785.816712452759L49.515036157515794,785.7200628681056L47.83932841887241,785.652468458693L47.47252323058751,785.7685219375021L45.79828523225183,785.8170991068557L44.913408728844786,785.5714062514642L44.23650323038282,785.0982586024642L43.655470834845744,784.0198681187204L42.73740222261108,783.3470028132765L42.217878898274705,782.5248800615568L41.89883047893795,781.9618981173147L42.102851906093974,781.2040867829446L42.737848335796116,780.6510461065562L43.41327247498862,780.4946393929779L43.81696392613992,780.5951062048468L44.68766833654581,780.5707114015479L45.81413685673681,780.2344355095114L46.32278894519038,779.7945058678359L46.6512957859951,779.2271706578256L46.84006120668528,778.4382991084937L46.79623062329409,777.8524532338947L46.5085403817302,776.9726720100316L45.87731122187415,776.3059080319758L45.25254530243711,776.6190882180288L42.86369362050061,779.0295036542236L41.626254889126926,779.7588261068232L40.50250927773294,779.7749356358504L39.845954663464966,779.6323464950763L39.77617893614155,779.5702823483435L39.653888605778604,779.4615051868009L37.20996778944061,775.2404715667577L36.912557133435996,774.5284211874355L36.431467798786855,774.0739563668105L34.545361907496726,773.2730808614764L34.11550133344474,773.9008678684772L33.946481356207926,773.957697289557L32.582403860935415,773.994098217153L32.08013797266551,773.8630855836434L31.608708284809666,773.6373819760888L30.806391913538448,772.1428928380225L30.6259128993766,772.1106713668926L28.829230834620546,771.7897415987027L28.229578531721188,771.2466055628174L28.073155033161413,770.9799221148858L28.047736844248107,770.6071476819608L28.622181717584397,769.8721133650616L30.08482592938242,769.1362766668949L31.649902597545918,768.0796049562359L32.030104683932734,767.6495336164321L32.17403137430085,767.210841280081L32.12887327241589,766.2872552780452L31.61863108895386,766.1974096447178L30.61751567294067,765.7973018803536L30.456169702515865,765.5506483553005L30.17967107246659,764.2090513573094L30.982674330022178,763.8658771952246L33.08926479037456,763.443077130599L33.29313454034116,763.0242587860512L33.45627332942314,762.079361807318L33.12259994826945,761.4404261539939L31.895197698974414,760.8790933340604L31.01524798511565,760.7889442201588L30.547747892302596,761.1430529036722L29.945669217901695,762.5661114279012L29.553000034738375,762.8896766168939L27.492741972937097,762.1652807189259L26.50471388350644,762.1608106262595L25.577198189553542,762.3581208700236L25.771920432931722,758.6230131544729L25.869660457724308,756.1847470611742L26.286297080710312,750.2595713849471L26.299056471361496,749.3679489128201L26.62710016234695,744.598948530109L26.66727387543085,743.292489061841L26.815661843440864,740.8489204046768L26.949765831662546,738.6402190698802L26.94981826890296,738.6393553595417L27.16349647358038,735.1193681921827L27.166982860026394,735.0672053667358L27.1712797337363,734.9964749611142L27.208919660380047,734.3768731942664L27.251037489429848,733.737399322443L27.371194801203956,731.6421085489457L27.70417360677726,725.834170476655L27.704404498546694,725.8310105010294L27.82251105437507,724.2145035682162L27.826958424383236,724.1375670157549L27.919233896539765,722.5411750504043L27.922505090164066,722.4837073438699L28.214734871796054,717.5938461678684L28.316034722040285,715.8984237172092L28.623980602224663,710.790601401678L28.70529754396972,709.4925998304659L29.075319417980722,703.5847023890306L29.108284157501714,703.5162540570024L29.886825436306196,689.942242006987L29.92805939726918,689.1768934917785L29.92815356325042,689.1751456250089L30.09571647208969,686.0646243074631L30.14241651922947,685.2141621203008L31.03547284140683,671.1083278948877L31.09273368280344,670.2034018597718L31.110255454433798,669.7083642287242L31.11136650793435,669.6769737765961L31.11170295466343,669.6675691952497L31.641549493837715,660.6132192319842L32.254374117567465,650.1340304164696L33.04532633766547,636.5979930874528L33.47594159389672,629.2234417203905L34.308363638710375,614.9573305433548L35.45075628183565,595.3565984446095L35.749267198443135,590.2305953320832L35.89254714415665,588.489457169446L35.89689179432486,588.4366567835865L36.15894281531496,584.030352062285L36.51320196768927,578.0714666695193L36.684832328244624,575.250323830466L36.75724328892068,574.0212478128542L36.76022590036399,573.9708890010763L36.94346223144595,570.8767674008918L37.145289142850345,567.4679630752482L37.153543621682616,567.3285300315546L37.37310005858865,563.6193340799198L38.0051271981651,552.9365453650471L38.037748091513436,552.3861615595744L38.392041057197275,546.407137242731L38.54232871537812,543.8701460669599L38.565652332877846,543.2450801093725L39.22481872364102,532.1817745748672L39.75791270838147,523.2282002067078L39.80861083470518,522.3764092903947L39.87063717717393,520.4542852018553L39.87760612252663,520.3448353657693L40.43232232368149,511.629956175772L40.45902880543855,511.21024094189045L40.5416786321623,509.9112450794026L40.6406269809587,508.35592245356895L40.842073530876974,505.1889222820047L41.10500928167306,501.054108759248L41.180668453154,499.8640895508522L41.745509298338845,490.97655088146337L42.67929427703308,476.270899726386L42.726441732925196,475.5279730093057L42.86968181670733,473.2706125052689L43.06160008283649,470.2455223261214L43.10133530917909,469.61911485391215L43.1472172931945,468.83468062881644L43.18417426284185,468.20327814301993L43.38669732462364,464.8763298093184L43.38849139622215,464.84910826685825L43.60654798823856,461.54009775458593L43.627675265262326,461.2194461988621L43.6524229336585,460.3590812800676L43.63409890713308,459.9472289032588L44.22161248735233,450.85156949839325L44.344678521432,448.94551099416884L44.90427862256445,440.2748815622912L45.20658041427396,435.58853432111096L45.262195002447925,434.72620276429143L45.68071930005584,428.2349585949095L46.20120588075429,420.1578100159559L46.473069895668004,415.9369197360048L46.948820036955794,408.5472710860396L46.94902818951903,408.5440370171996L47.079804945392254,406.51199893671566L47.24894265141069,404.34741219671423L47.545079036633695,399.3690637869123L47.74016032479204,396.08858881234517L47.81946817644064,394.7547338408505L47.85055666789992,394.09409802901854L48.079752407927,390.797058727266L48.10525487595538,390.4301444342929L48.12040762535901,388.900869087621L48.14585936557904,388.0156824372815L48.233439163643254,386.91393056289553L48.359561217433395,385.3271276986895L48.42304457475876,384.7550223958261L48.57846678616653,382.263076705168L48.5993132642397,381.92880163767467L48.719392413038065,380.0031597596292L48.74585526630102,378.31517090926997L48.75057293554289,378.0142818040445L48.81313020233188,377.3167295866606L48.84460076784609,377.0871929203576L49.07018386419924,375.4416852223198L49.19407733262244,373.53827613815355L49.398866332232615,370.39143049339197L49.406970407249844,370.2649794961726L49.4441468321167,369.68488574910435L49.49680079945364,369.4581732816953L49.53355000284142,369.2999381291082L49.5347869663712,369.26685096731256L49.557924539691896,368.64794501585004L49.57590976824741,368.16685100609027L49.636832959290075,366.53714102218595L49.69152493843967,365.58237849771L49.70480637517528,365.4386972203017L49.91515201411403,363.1628681284762L50.02123100253294,362.0149585067939L50.13151222577869,360.2250071028606L50.134520447135,360.1761779661987L50.18119778043706,359.41849369619797L50.21872500303704,358.80930665509413L50.34366000411927,356.7810131062338L50.504013647083184,354.17725830781205L50.60744745978553,352.49747694456124L50.69038399873483,351.1504233394256L50.71523740168618,350.74672865546586L50.857844330579155,348.4301256489879L50.7132855789672,347.883369316269L50.70798556299678,347.86332243951415L51.0333445119623,347.01236345399684L50.73603600467908,345.3917725731589L50.81556300550619,344.91646666360134L50.395236639972495,343.03588316270753L51.18679924954853,341.87502529254743L51.24197638509952,341.7940968845945L51.27978969805645,341.7386353535222L51.40455689429683,341.55563295917057L51.2612727708908,340.293318964879L50.67090067463619,335.08919805642745L49.847418011341915,327.82206702977714L49.83982322859657,327.7549997668807L49.8344337346453,327.70740626071165L49.7997381370418,327.40100684857555L48.59124249494357,316.7181176936206L48.57979274057624,316.6168053541673L48.54996466596907,316.2979992138103L48.225228201225946,312.82593846486236L47.87202113528912,309.04689462471583L47.604708159207576,306.18506241508055L47.573683555802745,305.85281541930783L47.128490194069684,301.082881207333L46.72252162051461,296.7294674230427L46.66266912875005,296.08733495858075L46.55070473403799,294.9874028920617L46.532856246715596,294.8616144573854L46.494909861529436,294.5941755531255L46.38041583430618,293.36974969251173L46.248361699502084,292.0346893432522L45.55034064962888,284.97220224032947L45.32992271826174,282.7401053168545L43.920440314352845,268.99350073131365L43.87435969669457,268.5434859423797L43.660284473077866,266.4523728500128L43.65842602105704,266.43421570047025L43.187930045761505,261.8354762566845L43.09368277892668,261.0969169178318L42.62507880391439,255.99973024968114L42.43780082582032,253.96124618911503L42.378104837946296,253.3113000720446L42.20397439190236,251.78169929801246L41.57707246317898,246.00887426575417L41.55238640591506,245.78142696639523L41.46590054993953,244.95875980930174L41.34556171438595,243.59283152587633L41.338484847831126,243.53720483315013L41.309800255408845,243.3117280432654L41.25545349757709,242.68981296595962L40.99160928554011,240.11986983172898L40.79524380314865,237.9375565547503L40.6256423014288,236.2075750410689L40.379348472473,233.6134162704361L40.34800754565282,233.28321723917256L38.94506548560037,220.2055057803621L38.91726535993661,219.94604203757527L38.82665455674129,218.94643014632913L38.821972992078656,218.89477821598788L38.275014436795004,212.85660579134353L38.21884262757828,212.23609528373532L38.22355855042508,212.10600855443144L38.228961959080266,212.08413899048844L38.18661957107861,211.78958596533178L37.97961441285082,209.9023310368744L37.93725345309559,209.50293932309415L37.43336666591222,204.7549600444018L37.40929867528126,204.66181519111507L37.40611840862891,204.63092805233384L36.87660657756385,199.48574010291173L36.8758015008994,199.47791349778743L36.87523880680999,199.47244322372308L36.65065387546997,197.34135782112583L36.64662106359066,197.31007014869823L36.4702930616283,195.94189621778406L36.41947533524052,195.43663909816047L36.3475313197207,194.72125038349753L36.12379343144585,192.54120350071696L35.282768728721635,184.3384335613062L34.65360035935748,178.19363770374684L34.63252651271108,177.95352950215414L34.34656396655254,175.31211108632397L34.01579399104952,172.25518006307175L33.299247461836046,165.62694647757291L32.97023172009739,162.58070772651968L32.943285383905106,162.3311441148154L32.7342193539738,160.3944808635781L32.505570601925,158.1035075445743L32.50207760310053,158.06876489128183L32.37436119877498,156.79829226775473L32.154923239716766,154.6146899179276L32.10693151572542,154.13700833541026L32.03331793048534,153.4268512579913L31.9755069657229,152.86907645790058L31.895344552293295,152.077752339914L31.804632636478914,151.18214464087777L31.59725919980292,149.13415129550117L31.32290662628634,146.42344994854744L31.32085795008345,146.4062317048166L31.242379803737833,145.74661539338632L30.891127809190607,141.88820398401418L30.822742611358763,141.23606569690372L30.794586342536547,141.01233789226768L30.672974290203115,139.49618374626635L30.39483112700765,137.24315789963998L30.402550605265276,137.11756773726609L29.961496170422322,132.5593409406319L29.754274249387493,130.41634677995592L29.459368999317803,127.36503771726723L29.29425763879118,125.65588475774592L29.257300248743434,125.27324216476597L28.570422884148968,117.55014072889514L28.521062336452758,116.99468603750267L28.331222912784824,114.857851084809L28.291770111771996,114.41365619036918L27.45938569958315,104.49152768432015L27.354254066558667,103.28743322209317L27.314270875789987,102.82942142614115L27.158608906105314,101.04589746378645L27.085054438409486,100.45410154357165L27.065279879902505,100.2949906951207L26.87479863062117,98.31967276274435L26.684251605908685,96.34291135184907L25.859086578797815,86.9625826581356L25.71875247789552,85.27689171632841L25.56882475614816,83.47532484609235L25.36586656442023,81.40286895681817L25.023818365751254,78.20645074511498L25,77.98379696357057Z"></path></svg>