<svg width="1000" height="1000"><path class="state" d="M226.62218687373806,433.1722630731298L226.6296900521126,433.1749296341209L226.8106786056396,433.9928357072756L226.7639081793103,434.88392034444144L226.74614719393927,434.883383320072L225.5227071722917,434.84695515487505L224.84602308189162,434.51336457134204L224.64075590259128,433.949350068387L225.28183629566956,433.25991882110446L225.8936270651357,432.90935690314404ZM229.7401909713648,437.6298683385157L229.809682337498,437.2240024608055L230.43524065951357,437.1091856593564L230.9150321583312,437.94297014269495L231.21365033922683,438.91441933434857L230.8772920503721,439.5594820521942L230.13596151136173,439.1531219584898L230.1431854491187,438.6386098596139ZM390.3562796782466,827.7624406106233L390.4526343112379,827.4993370432094L391.20238917978304,826.9279951282132L391.9407424012728,826.6776835312346L392.68071076220923,826.66416812216L393.7614764063058,827.1613616568305L394.83755088424056,827.316069586268L397.259868244779,826.9443111743296L398.60027049611244,825.9464829610254L398.9495323778944,825.2641795219666L399.5691226549078,825.1547100556584L399.9518641085439,825.1477753078432L401.7089338609128,825.8056873415645L403.8199692060334,825.8360406566924L405.231680181091,825.3733846071252L406.1581207329905,824.699023853138L406.23120934618544,824.4115822634017L406.6010450048363,824.0711079806131L406.81609615899924,824.0335655618194L407.8191526490958,824.2409784425301L407.7442508522497,825.3650727491554L407.41845117082244,825.7295927126539L407.19065967936655,826.5357930923713L407.31055444939534,826.8886296456596L407.49952927248387,827.9041363276112L407.94063368463003,828.4715549963405L409.2609794825198,829.4022259862854L410.4893400838938,829.9941450546053L411.10974913245184,830.0357353426002L412.77024253571636,829.600657613755L413.2314674081288,829.693747333213L413.13065293620684,831.0715464294115L413.3781294962377,832.3986412546478L413.8580525587591,833.0477684991438L413.9273234605578,833.667562674221L413.6339031057465,833.857353409958L411.31480566974614,833.9306137613778L409.88513480589756,834.448336449624L407.38740106138556,836.1416633971913L407.2633152787279,836.3425096532835L407.23614897439234,836.5318682764156L407.1437435859762,836.6551419891974L404.74614461742084,837.2113062479638L402.97475293310936,837.2973462839948L402.3845416023715,837.6568903865202L402.0680456573947,838.1813458047696L400.98496337856756,838.5190117931738L397.0025065188264,836.073468154807L396.1573558516237,835.1499688589062L395.26612829243464,833.1184384854264L395.05716129249765,832.853051953638L394.5274873077264,832.6467637402825L394.40781787047996,832.1642747273233L393.63987105731206,830.5687382089063L392.38143795129196,828.8425800464199ZM429.3351894599804,822.2185545679378L430.9510296351122,822.4537247791982L431.34537831328856,822.423195495036L431.5492842090047,822.2415655868556L432.24162476856185,822.2901208327802L433.5989250979276,823.0561562724058L434.7038454421083,823.2037920730534L435.8774419050801,823.6843856321791L436.5492350506933,824.2589505760579L438.07945168738723,826.0954860931852L442.2161743788838,826.7883983950094L443.77886082668095,826.4559342726604L444.3841875496546,825.9672260770715L445.06049999234784,824.913753156327L444.6786784582004,824.5356357731371L444.64179981491213,824.3200310463847L446.00191094655435,823.0665832779704L447.6839145871593,823.0203349076336L448.2536159660613,822.6792443048582L451.3984810856737,823.9424310360334L452.1582127992727,824.6488663335384L452.06215151321777,824.8550852740173L451.1582842164593,825.6014194398215L450.61215861121957,825.6991894292747L450.30609664000593,825.9963698830356L449.8096242082813,827.14907371557L449.91156542589977,827.5947020249876L449.2821408961657,828.3771925858862L448.77296474072625,828.6109502532763L447.48469084752134,828.5596426330981L446.24658340452413,829.2021286590474L445.67926260965965,829.3136520856638L443.79301135663434,829.4506552280384L443.6206625297234,829.2697068462394L441.36174533931546,829.3863671869954L440.0773338915973,829.5764045986758L437.7543393834225,830.9675290193992L436.32210887149665,831.2737961906323L435.8606781498142,831.6566187904326L435.66063631963016,832.0638299011457L435.106554913508,832.2515194962489L433.2594855770957,831.802822251472L432.6244898479132,831.8117403889462L431.9675008622299,832.2742541572651L428.757620875672,831.8756017290909L424.7850075031008,831.0912116148347L422.19183001332465,830.0449545741355L421.8816873140675,829.4913555667206L421.38564691766766,827.9466446802326L421.2336298303753,827.124948205377L421.43658033653224,826.8335737049476L421.92214232466864,825.6233937726328L421.97839927171174,824.7473314706284L420.5896405452286,823.3607135053744L418.61585036102525,822.03264115423L418.0212563180899,820.900872322165L418.38237841474717,820.0933493328632L418.9163951780856,820.0743253386797L420.75438344803365,820.5647905582227L423.62071902994154,820.7452006885886L426.27835614481484,821.9405166640165L426.8779708263626,822.6400879795726L427.80328080382117,822.7348862287292ZM372.2601469375468,823.0376565601009L374.143895407871,823.6557501099832L375.9926590141309,822.1342638309907L376.2928678805403,821.84591546583L376.6260876293963,822.0656827822322L377.27488728242827,822.3251859842658L377.9040882126412,822.3619088002728L378.35509538172454,822.1844725059747L379.7886957646145,821.1165391284069L380.25487507651917,820.5998697739951L380.28001549750695,820.2487869060627L380.1512449798644,819.868696403287L380.31470856524174,819.7119012751102L380.8198666698979,820.069020371498L381.41330892156924,821.4911537259775L380.9575908861659,821.8355543163266L381.09099441140125,822.4094634204209L382.07399502490057,822.7998092264002L383.4167375324273,822.5628834277172L384.4341131974792,823.3074110658769L384.92243411587935,823.8681033372271L385.83995104043316,825.2134038518832L385.63079695302565,825.456319068139L384.56564529703405,825.679087727641L381.96640089568905,825.5076404665219L381.31667390433097,825.7225467815374L381.09042493156363,826.0143638953859L379.63591007978675,825.6070669800486L376.7550326174907,824.184296387827L376.25824543255646,824.1709884620882L375.93040736572755,824.5028579103084L375.2125928349092,824.8513042697009L372.94987869541313,824.5394556370209L372.4895305274383,824.1773156234298L372.01927100353356,823.4611948709198ZM538.696466515219,941.2120505420341L537.6952436720278,940.1112582748318L536.2960781438003,936.1086158601083L535.4267815941856,934.8044407625241L534.3101768264568,933.6538537393127L533.0805627614578,929.6271074196629L532.278550716009,928.9078149274195L531.3669186161603,928.9913625525851L531.4290777970003,927.3029344858948L532.4181545422691,926.7748330647197L534.0579152129404,926.9540748901185L534.5991332724036,927.4427948894022L535.0025373828638,927.8744847604507L535.0062108346258,928.5238989846749L535.4921147958754,929.7933581199239L537.1941661707485,932.389169229659L538.153129788393,933.4091489999091L541.03628399746,937.19736988312L542.0568506505907,938.2460331526157L542.6059696408513,938.5656682811091L544.2275030795636,939.6601389442949L545.4591881376616,941.0964949497858L552.2543973560416,946.7836192080576L553.7260729216956,948.5485214816457L553.4713990614769,949.0360176588385L553.1184030779044,948.7725755276703L551.415636404547,948.3274871368507L550.7688888471445,948.2593020876172L550.1454218689614,948.4115284060448L549.5689945790458,948.8003080972323L547.4857839426995,950.8881293845086L547.1454036378431,950.3933077787817L547.2347325321077,950.2419504996552L545.7660680923809,948.8469677282276L543.012255707484,946.7040591346986L541.9765771074523,946.4288517476907L541.233172132937,945.7184466677986L540.2790587554528,943.9805712386062L540.1700887361292,943.6904516895223L540.2395241583138,943.1769752227806L538.6910574059957,941.451790970901ZM539.7944924256997,883.9494929670795L539.844279532217,884.1250682563904L541.058826150093,884.2749722709677L541.7356441336666,884.0382679158735L544.5085123828635,885.99453004699L546.4231379837345,886.1281720123256L550.0294682573995,887.8481920448843L551.0380182639416,887.8896380609701L551.2164117599758,888.1101974555131L551.5312243387409,890.0349517468126L555.1125390398231,894.0431979049429L555.846580141728,894.6314547058582L556.3676841520484,895.3560728617679L557.0081361680783,896.9443932379256L556.8654300218499,897.9729460129256L555.8769001579936,898.9416326828011L555.152410099768,899.1696173464038L553.5872992115033,898.5667156569081L552.093802840463,897.5557471650027L550.8400703572131,897.0926077049926L548.4109574756858,897.0544448103022L545.2182580064739,897.3491555782091L543.810929145623,897.0472571762444L543.0223636285597,896.6248993786957L541.5655866874622,894.7881550138425L540.9495454295611,893.5076155133956L541.4552763328937,892.1308409438733L541.7812754746737,890.4336853660247L541.1754534985971,887.7844348727182L540.834365603212,886.9976253571748L539.5193037809079,886.5668521640143L538.494197126129,886.772080855903L538.4590704430025,886.498819397119L537.8503734585363,885.926440388645L536.6272488953501,885.5482372274495L534.7955074452275,885.7016364541271L534.3875565616763,885.6093104877997L533.7357772768393,885.1080553594152L533.293280178238,884.1974501105071L531.7094861258938,882.2725866279632L531.0853420065648,882.0091155646153L530.8300840131773,881.324518034955L530.8837888335577,881.1632259255704L531.2783735259125,881.173326554059L532.3884306484512,881.5797824210999L535.9438043918237,881.4900385648671L537.1420148970975,882.0924658931104ZM450.0884136181075,902.135525783827L451.029214312506,901.6827856538155L451.44323350744423,901.6624888606761L453.43492752770265,902.9126001955542L455.35516684099053,903.8272367048446L456.8275699360287,904.3158408170241L457.453433003558,904.7881977022208L459.95042009993796,907.5216667757397L458.68059197986406,908.4492774350922L456.9137938316487,908.8378530157149L455.93735109774514,908.8287993412318L453.80791954654916,908.3068770031869L452.8601850074415,908.0525176327637L452.35482952147095,907.669107670005L449.906789762584,906.9779785584503L448.2601181097074,905.526844985297L448.2027401981533,905.2595265705096L448.17100660554075,904.9900912851325L447.7725091274125,904.4640676966892L447.0604228929737,902.3061013575359L448.5169628526721,903.0825080832769L449.1039939926387,902.8461016070485L449.76063369240643,902.1351884649007ZM256.7771217807142,33.07288230890612L256.7775462218582,33.072903171681844L258.7847439023565,33.20923855424718L265.84638918353335,33.52063336830662L265.9093562771396,33.523586931097554L266.1750959924899,33.56018323973524L266.2643004381164,33.56006589193174L270.04128300413,33.89379403317969L277.22316565790925,34.38856654109247L288.0906027750834,34.93886597019326L297.8864272809782,35.54791805220583L298.10951632101023,35.561287889932316L299.2334216683243,35.622269602904225L300.21027038798275,35.68215630783652L306.8932925585257,36.09403279499213L311.1826240743518,36.314877008984354L316.32830362693414,36.57308326190946L316.88953660652624,36.60087126449747L317.2174127045814,36.61764213996463L321.3865670962389,36.75784978065269L322.50774310464715,36.82793106360026L323.9039301149354,36.91754753233323L324.2435702549294,36.900175260828576L324.33952577444336,36.8902247774663L326.07066522678565,36.85479694978301L330.2404058501775,36.99031597538965L330.48554522752835,37.04713251267327L339.0892367005584,37.40400662821173L341.29307222424717,37.59593143066945L345.5204514381619,37.84070158509786L356.55201772232834,38.08274920120465L361.31360709421483,38.158481311757555L369.69612127755744,38.3940848018255L369.8181215907367,38.39658697089044L373.00836350512276,38.519762688260755L383.3612339118317,38.65185602418893L395.76435746708705,38.91868352703557L398.5689034833216,38.965575223884514L406.00112073972315,38.9184105116272L418.7921214015817,39.00396142700191L418.9255221756291,39.06230571873118L418.81294040270757,50.475447823478305L418.77363648405543,62.41099937744525L418.6232828862295,74.35720488942115L418.6589971663064,74.9435578736855L418.4690777802124,86.31511492019706L418.1613169944084,116.59083720659066L417.92218139769363,146.45814977309027L417.9263271512127,147.00145867284238L417.9250176793728,147.15104996310276L417.87668394577827,158.31603776598416L417.92003550417735,161.1004791507014L417.8413941614639,182.41477893508767L417.6662989881502,199.60799805929202L417.66577565576404,199.66481577460667L417.6123938286794,205.24335790402557L417.6113660569073,205.34689663865737L417.42038771579087,218.51105873782643L417.38114829684395,221.8768729006647L417.37268468291273,223.26587287328772L417.35922058880317,223.79272359205675L417.23047751453817,234.9620106700046L416.97983191000367,245.15142440805153L416.8509208833091,252.00416433918718L416.858009340223,252.08412168198683L416.7449575728933,257.669648424746L416.74495394889766,257.6700368735183L416.5468604913071,275.50985874449344L416.3581671795909,284.62984361158226L416.3580290480676,284.63655938947704L416.195143859185,291.4647322083284L416.13335689338993,295.79179337856954L416.07480355673783,297.15895078031195L416.0744074515421,297.16898498991503L416.06509910458436,297.412734265263L416.0645619132854,297.461750613983L416.0647991467283,299.6145170056774L415.9619191225907,305.7166369083781L415.95851570137506,306.053474693133L415.99762332504366,311.8692976849492L416.03248036110995,317.0340410491215L416.0623613336518,321.4476824367388L416.10999795709967,328.0829247457292L423.40361858003314,334.6207984741542L447.44159843318613,356.13016532079325L447.48837544791854,356.1683673217307L447.61266625108095,356.27960819925L454.585488255574,362.4965032129576L454.5978079715953,362.50807382112896L457.92187265551746,365.4263820187809L457.92103002100123,365.4262843000196L463.64648188136357,370.63455732955765L464.097824719574,370.9782499170676L466.9182096150322,373.4201302430398L467.3037272351889,373.7679556677727L471.0874973295436,377.17735395660736L473.26653649162915,379.04740857707657L474.50255414414505,380.1990772536184L480.52623331225436,385.4974283052502L482.9249468262601,387.60203756754504L485.15724170210495,389.5838285085636L486.3053643197866,390.7144839818984L490.36125749111096,394.2311271785042L492.6230846673736,396.3269817342673L496.61258163422656,399.707344386651L498.7274079547429,401.55803648097617L503.67513559355376,405.94515995789504L510.49582578345485,412.0606295339298L512.4738212538888,413.7041161708995L515.0047054974158,415.9104298515731L522.2910608935675,422.4860035138938L526.1973942509335,425.8219388720899L531.7986254274683,430.7491719793933L537.583885667932,435.8535929523988L551.6248568135461,448.17141793121925L567.4995425998045,462.0040260230222L568.4942696912757,462.9342163540809L568.4903457118875,462.9370870603089L573.6301677405902,467.35066830346955L579.3565332551508,472.4872579351765L581.661528488905,474.26146050654125L585.1475862895813,477.36468115432996L594.8859825306399,485.99095994732807L597.4538792409052,488.04521912300027L605.5163231098112,495.1692412962658L608.8134582395282,497.93636463050376L612.072948796505,500.7671943454527L612.1351713111854,500.7552682609436L622.2947476422369,509.6807405315519L631.3111258589943,517.48269780461L633.0445194019055,518.8733030653709L639.5457243395,524.484574222291L642.353746245385,526.9019254360697L647.7496222269082,531.5962948999752L653.2000959495291,536.208260519845L691.5509458160816,569.0802482348518L695.0161380791963,572.0716992736279L696.080072165014,572.9282207631727L705.2065330485514,580.8559298609325L705.5788575611134,581.07496970437L716.1830410388454,590.0535488864537L729.2817932890488,601.1809286836003L729.5892195834965,601.4173945820037L745.0868565017486,614.5626024044815L746.7967846030699,616.0006612449325L750.241162760551,618.8260861991497L750.8382305777608,619.3357686386867L759.0557297599237,626.3330264672833L764.3766013635783,630.7357513417326L766.1329760811923,632.1761715601369L767.956084236261,633.7524899360186L767.9853706981626,633.7777828244286L768.0270072437291,633.8114960683168L769.7442133922486,635.21965815153L769.882921929011,635.394807200038L780.7627050515848,644.5752427081169L788.43398841878,650.9242602185998L789.038477658228,651.5230225994817L789.1718238472463,651.6150341912057L790.0936455621126,652.381599970583L790.3099745142883,652.5750483757204L790.5435104670513,652.7699507366578L798.0020061139497,658.9805886218589L800.846715308777,661.3482511492111L804.8997744333889,664.7557894964741L810.5997441220468,669.5352292970503L810.6447139287676,669.5503474024728L811.81560438298,670.5183518495736L811.8993200365016,670.5603921274262L813.6672138114875,672.0659791656105L815.6878468254554,673.6856197064059L816.1216896765688,674.0949502575623L820.9155212205443,678.0665450837234L829.9346673824864,685.6488679844512L831.4184976828469,686.8392695239669L831.4267674061371,686.84011050769L842.1512450807411,695.7637649150764L842.2206944950756,695.818304644404L857.5504167050015,708.4797435879532L857.8704487625437,709.1985697573173L857.9567266190891,709.4811296077823L858.02202720425,710.0590415995948L857.9957161075256,710.6061748002767L857.7108557244946,711.8243381455258L857.6933524582942,712.2236956004767L857.7719923878808,712.8506439012872L858.1100888971989,713.5949622719818L858.3224297960571,714.2376291945009L858.3415918625169,714.4160321392974L858.3815218503632,714.8557326009044L858.2506784241339,715.6869296488001L858.2164984530506,716.3025169159056L858.2477482435536,716.6435329749695L858.5532087961217,717.5711292304782L858.5669732214172,718.0369771799919L858.2971868019893,719.2892986685157L858.2433721061348,719.9134352241554L858.2699414195055,720.2574255718537L858.4967013257183,721.3270688315122L858.581243403306,721.5347830744007L858.9459414882584,722.168457910202L859.5637160935564,722.7876474227371L859.9259067362823,723.0475314916686L861.2864574574393,723.6710129541411L861.6049194644387,723.8681611962861L862.3499465553907,724.4345449005596L862.8549652972829,724.9480818346219L863.4148104455751,725.8719396934989L863.8996845221923,726.9306572167334L864.141757187947,727.8825515806429L864.5401149137962,729.0140419036015L865.7503070179065,730.9895694231204L866.3092730070618,731.6512535447379L866.8367363079308,732.1208403806679L867.4257104280931,732.5465646581497L868.3710217505118,733.1028001054945L868.7383975396147,733.4589841741378L869.0167968133243,733.767889517015L869.1706002186288,734.0147809185121L869.5789898863724,734.4295592093601L870.133703916538,734.7021583368265L870.7311427870278,734.8864184024367L871.384918982747,735.1630110457321L871.7248424788505,735.362154889819L871.8196139271236,735.4406782199816L872.2216588192177,735.9905152355248L872.6500072579255,736.2642270749963L873.0512073037596,736.3830991489517L873.3568585196672,736.4114720333413L873.5374882044234,736.4968695778773L873.6472137042791,736.6498979834371L873.836511764048,737.0197935780067L873.9337751856932,737.6012560033789L874.2676677052598,738.6506155130032L874.5726275103517,739.1740030035237L875.1117660069054,739.9252442359289L875.2229741757383,740.1383657379574L875.2944977961824,740.4048998656331L875.3619811765415,740.5883398428225L875.5263505412249,740.8476481104806L875.5971888988176,741.0198696231021L875.6314892618726,741.1954244996796L875.6394632527315,741.3123577574348L875.6091230054053,741.7557741209898L875.6860271580088,741.9944057638157L875.7304287247885,742.2807068005437L875.9406874511753,742.557300395064L876.4248518107287,743.0112873834065L876.696033807016,743.3960173501905L876.8332393227588,743.8213729283293L876.7927831629498,744.5101180204156L876.8159236697761,744.6466317264109L877.1180953144569,745.5088115783637L878.0220474934999,746.1217707443882L878.4314060016172,746.5118596757947L878.4964176622198,747.3345172926907L878.4259552620233,747.4937408234106L878.260565436337,747.6738171197086L878.0666631163273,747.9318641078444L878.1047920038453,748.0333500175848L878.1429374636606,748.4497802574076L878.8593740335858,749.5098804411032L880.3930671358052,750.5000591892849L881.9456465734913,753.080075420633L882.8013896017784,754.3557477139602L883.1435373209983,755.6734288208202L883.2384374058674,756.6083639760525L883.0401290418464,757.4491854352522L882.9929533766428,757.8098083069505L883.0004171927962,758.5098109199207L883.2277008226914,759.615471243249L883.2327899494319,759.8034417775079L883.1332009918231,760.3888399030923L882.9056985073671,761.2672077527732L882.9016385443299,761.4239424921967L882.9850268727636,761.6801781440764L883.7118482294774,762.3835303907182L883.9922008972749,762.6212279676208L884.1733877851836,762.6923943345014L885.0281120888833,762.5276758274881L885.6265642958758,762.2704537682631L886.7317995709125,761.9938369526586L886.9816974155153,761.9712386032924L887.3506924260389,762.0796731879209L887.568308043071,762.2594059447733L887.7888844041727,762.5238561040677L888.244765840572,763.3040407828927L888.850055733423,763.3926207835191L889.448573975038,763.6541371723984L890.4447128394195,764.1661066785832L891.0133982864908,764.6669203934944L891.2678892572358,765.0300183198067L891.3697615508665,765.6857234133893L891.5248442114148,765.9589572107254L891.6710026570215,766.1158666175701L891.8390121621978,766.231315989374L892.4202103731961,766.400884819732L893.4799381872347,766.3683309090825L893.7591901996523,766.4602929972864L894.836272272958,767.5073945956024L895.1977886334028,767.6764348321788L895.5050694747165,767.8984112026494L896.5117158971223,768.7235590345024L896.9709740477153,769.4735793757845L897.2996601263587,769.7485384676818L898.3660495806741,770.0004753965901L899.5735885698014,769.996086584323L900.3272464438212,770.4610833008546L900.8080728398247,770.5929251032544L901.1990308842103,770.7805818017729L901.5820100501855,771.0386164905617L901.9647805269205,771.4448368916388L902.3565905103584,771.9668281248202L903.541086744431,774.0700478737208L905.0229778440527,775.1500025348134L905.2714874618648,775.4013857789029L905.3037360181241,775.6332946314322L905.2392816170329,776.1612891886155L905.4090632565758,776.890778307762L905.6794653348621,777.6567646360431L905.6336143536246,778.0521893112468L905.6910346180034,778.3172775936218L905.904085891855,778.8512569186969L905.9581351285808,779.1102356701776L905.9709191347686,779.4030582160325L905.8608337995515,779.6415087949788L905.6373074234118,779.8434156892489L905.1560716102463,779.8814034653074L904.9569045473243,779.9067639993193L904.4501759020484,780.0865506501698L904.1545887365535,780.102248996681L903.9175847389608,780.1429104539502L903.750712328965,780.2824585885742L903.6601011131165,780.4809504933918L903.615606097193,780.6736543432139L903.5809921378739,780.849414986812L903.4278806627342,781.0712742574462L902.8989576160265,781.3705118403045L902.8151818666352,781.5588086001433L902.7058237126485,781.8536256199711L902.6792058429996,781.9774680698022L902.5560199131173,782.1475274571687L901.5680063512389,783.1767232653049L900.2580136033384,784.8766678820261L900.0018711436554,785.3078884461959L899.7166783156699,785.600068327587L899.0873888274257,786.0519890899523L898.9497789047062,786.2183471504156L898.911857016265,786.4135334549436L899.0656880168657,787.2067620766358L898.9385775425659,787.7347909497736L898.7319846426163,787.953291523894L897.8431750248267,788.417151698351L897.5855507048041,788.8116586914659L896.8047935736304,789.480242261463L895.6515946309778,789.9611239346359L895.0441197419071,789.8196640005335L894.04805125179,790.0801098969145L893.6208776793742,790.5106305566293L892.1985847096051,792.8962752405707L891.5357706833163,793.5885987746534L891.2338532723257,793.8094065250064L890.2885904360243,794.1774443754923L889.2792915362432,794.2283627362724L888.8727654834655,794.4034736428488L888.616893594603,794.7035440572047L888.342544538011,795.4321942222618L887.874549125419,795.9890387626875L887.6507397724481,796.1184216745809L886.8281726046671,796.3517213944317L885.929314017569,797.0409105173713L885.005788158672,796.9654037659109L884.620231441979,797.0124988399724L884.150804355298,797.2106568159279L883.8171225569045,797.4871893238764L883.469354192425,797.94716060112L883.051756358328,798.6448737823525L882.9349664503028,799.0923250028958L882.5245683415585,799.578969296615L882.4667087628441,799.6904130742184L882.432986294865,800.478961948602L882.3156942133442,801.2894040277504L882.3070939111437,802.7320314746082L882.3396544649852,803.1482678202788L882.4411512048123,803.509116721448L882.7734590960499,804.2580047663768L882.8654535359217,804.7456647807347L882.853011390825,805.7430950418116L882.7273327810767,806.3168480405396L882.5660073301614,806.6685407062623L882.318448292591,807.0150967947518L881.8129462027345,807.4313876249364L881.4394084535259,807.6305330817719L881.0945193583501,807.6757241743085L880.9103569781264,807.7700002290378L880.7856204517182,807.951908635935L880.7769625038495,808.1387298784659L880.8221228272087,808.3516635724563L881.0752428959871,808.8711575791169L881.1118821885823,809.1314229651398L881.0536136540352,809.3383128251102L880.9600853413833,809.4399349172301L880.6411741973382,809.5015139189513L880.4992290386194,809.5748746543348L880.2733269682105,810.092428091089L879.9039687411067,810.4976073721838L879.4645177601743,810.8625996555318L879.400337561132,810.9794067189787L879.3583564045355,811.2335245033494L879.2364181331833,811.4733404065655L878.4493704235622,812.4371761718112L878.0872069571234,812.9885693627439L877.3101605700056,813.5239702141497L877.1716185072905,813.5595241446222L876.770410299735,813.4862460164144L876.2739464423921,813.7862570942839L875.7810090607297,814.6329666805443L875.3269262359304,816.0271165576395L875.42493967771,816.6506761340632L875.5578943958808,816.8881942897186L876.0278744826783,817.0923617131243L876.2966488110143,817.2122525255865L876.9265878261183,817.6441280216607L877.5717315595236,818.2464836419556L877.8677674539879,818.7331770343039L877.9429261181413,818.9619431795431L877.9555832498099,819.1658335467828L877.9054639978756,819.2909886719775L877.7303978260124,819.465294004629L877.5063255632725,819.6027913291394L877.3025465080714,819.802508564658L877.188104743533,819.9472546110183L877.1246020139349,820.1258574771782L877.122536827516,820.2796813109566L877.1713272177976,820.4672715302095L877.2500670938903,820.6329274615211L877.3814070619801,820.8515258191013L877.7510922008605,821.1309494916022L878.4948332073329,821.6809166581468L878.5921087053384,821.8638228856056L878.6890478232071,822.5771137590791L878.6360972717353,822.8127423086456L878.5014180771711,822.976984024084L877.7879803768061,823.6215468833316L877.6115981024291,823.6907837481301L876.9542366040803,823.7134396884411L876.7746548217789,823.8448616457601L876.6546405740062,824.1054639504023L876.6046981348584,824.436496460371L876.6207058830281,824.8148842855327L877.0516746829348,825.7481812109583L877.2625680188534,826.067766392611L877.5817327340671,826.8153172100688L877.645813197606,827.0561908938669L877.612009118639,827.4039879612856L877.4721526735923,827.730707437332L877.1206900543708,828.0493607600281L877.0566001711059,828.1815242310892L877.8743083589032,829.7019975887144L878.2621422910606,830.8124489261072L879.2695776086414,832.8231127599848L879.5276958551908,833.5684051516487L879.6099337818481,833.9815139706292L879.6476526925879,834.5324563138511L879.5619125320457,835.0195425226657L879.4185728665176,835.5224774244489L879.1349182028723,836.307591775424L879.3310367000036,836.5028429924843L879.6406095375964,836.6424840458332L879.8863085328069,836.8739167684887L880.0472207524971,837.2168771172704L880.228460144305,837.4456081027354L880.6156471367676,837.7245544762881L880.8009453764778,838.1945059068125L880.9212321117304,838.8540931947412L880.8797754114998,839.8334300513163L880.8287261532149,839.9980965608677L880.1415877207351,840.460196491953L879.5270452194007,840.695203911338L878.9828828165387,841.0339253808796L878.5946912778629,841.3363386954618L878.2990144760722,841.6923072763645L878.1124732243243,842.0635630279555L878.0506782537957,842.4955054393292L878.132216966203,842.901029503495L878.2705716754089,843.2050692793705L878.4082101055283,843.3974481595405L878.5398042290005,843.5655325287963L878.6348809893183,843.6968189863687L878.7134625007337,843.8296993392373L878.7478952710749,844.0265630464545L878.745714331953,844.1866398794771L878.705142765431,844.2902961380942L878.6204007867428,844.4578351296134L878.5281909993328,844.7261465640403L878.3899153782581,845.0385166076926L878.4297010093779,845.2948192604364L878.5445082876774,845.6443585026054L878.6685943760122,845.9130649896437L878.7870141009453,846.3023012308952L878.8282292200324,846.7585359861853L878.7230251249173,847.0679864314741L878.6324596444418,847.3562196892924L878.691963437109,847.8307532403787L878.8753432781723,848.2220379856517L879.0797140595887,848.4357081011367L879.2003935161301,848.6648825603856L879.210764524925,848.9639521290762L879.0663104787791,849.2369028811399L878.8816425826778,849.4785233136831L878.0481534995574,851.1254216513587L878.1747375302215,852.2278020915727L878.6501091024622,853.3673631772883L878.6791557338652,853.4025052183033L879.5368519932667,854.493290914761L879.7802390696385,854.8616603597545L879.7759357576867,855.0118875788673L878.3805411138517,856.1440392284894L877.0376678283149,857.3652456043758L876.9957586278049,857.4820274519927L876.9411516860494,858.1464867023292L877.0210403556009,858.7650552809173L877.0000454655205,858.9251880620982L876.3373868551814,859.7609323790246L875.9920624900683,859.9648919834567L875.4288439397293,860.1265814780534L874.8018951755107,860.596795432878L874.5462771352591,860.9303679125389L874.1371853545154,861.8743931436276L873.9874266455381,862.5421671569743L873.8446401178453,862.8565059615862L873.3791571604813,863.5753442499424L873.0205683787574,864.0271146569717L872.2568188216543,865.5621796801452L872.234853682832,865.778032758268L872.39293817155,866.4800270023361L872.106048973347,867.9520987868013L871.940077597058,868.5263383087369L871.5149353448104,869.1231219138708L870.8743905013237,869.7977123681105L870.3687039688789,870.163897463656L870.0937303716137,870.2616097828983L869.6173573485869,870.2917967546762L868.2417680242435,869.8689203939855L867.0423791303308,870.0106986389867L866.4084533976034,870.3571731937946L866.3453536476819,870.4730319487599L866.337251601764,870.6774917933349L866.2702979171202,870.8016451902533L865.9486199335149,871.0936179604821L865.1758206139889,871.2781538307731L864.3836728805314,871.2812513233653L864.0735615171475,871.4487171865807L863.9623748118091,871.611605984984L863.9495470404069,871.7152213547647L863.9856130119601,871.8891973416871L864.2245501040006,872.236621417988L865.1122096068113,873.2467879229744L865.5937669548925,873.6296150436843L865.7021586793278,873.7860502544017L865.7449998649712,873.9795174618613L865.7517810305503,874.3929794811808L866.601016341651,875.9190426242405L866.7176598728474,876.3816144621501L866.7662692531917,876.8046596027409L866.6556686226636,878.4095038904829L866.3695252614903,879.3906912909974L866.1750765632505,879.8570906959014L865.9575350751436,880.1670710228047L864.9328273924796,881.1350286740417L864.450710462685,881.8352338710863L864.3528234286657,882.0201875193853L864.3670342484935,882.184969775479L865.1784792561407,883.599460278137L865.3246575376413,883.7002417408266L865.6666965169226,883.8592972574546L866.25613977033,883.9957454381926L866.9834259140334,884.0798476015764L867.7256502742624,884.2353749640561L868.6252790645742,884.5457611053023L868.9783490948905,884.768106583258L869.3073862297579,885.091779052796L869.7925065487095,886.0529677179316L869.8371720543055,886.25302252038L869.6569861580456,886.5691888754759L868.547817305749,887.4562621263574L868.4468876715437,887.6242862911886L868.4677909712534,887.7443825511718L869.1355543225409,888.7553300391127L869.5753604068605,889.1947914730587L869.9295386916601,889.6601907363787L870.0243553835116,889.8985679358755L870.0516952614914,890.2974538970285L869.9249972097796,891.1793384245337L869.7614921543161,891.9585907634806L869.8454467847284,892.3513461665536L870.2053466715399,893.5008471172303L870.21501327899,893.7785968751461L870.2103353901722,894.1900849450303L869.9960045696241,894.9113701838662L869.9368579547602,895.4366557175917L870.1286546827357,896.1210194315545L870.1053867796704,896.4782916804701L869.8951520042592,896.9427397663846L869.7666535042304,897.6888855322577L869.5975254023429,898.3176174167905L869.384888914446,898.7831536659382L868.856481570431,899.5209930983126L868.4230087621479,901.3662853849305L868.28398875167,902.2525997404266L868.2066655994549,903.0785528699662L868.2701575016722,903.7292070926684L868.4113190748781,904.0218774366541L868.572829971356,904.1227420778041L868.8862883672598,904.166155342102L869.4510804489237,904.1314627165265L869.6343481099755,904.1610309802469L869.9542563355241,904.3144341948048L870.0012474623866,904.4313079645358L869.9733179648506,904.8163401864334L870.0170127058715,905.1294748918178L870.247078261639,905.6436150018258L871.466622354445,906.9673761026188L871.4841567896797,907.9655346535694L871.6598356619158,908.5345604579792L871.9417077151646,908.9156463604334L872.4742379812853,909.2915615087002L872.7221750625345,909.3980277740814L872.9366795229193,909.3797314848504L873.0991675140435,909.2450591332504L873.3100115531222,908.8859883571213L873.7430619819966,907.8461251574961L873.9841962755415,907.6028336823695L874.3784255831017,907.7761130944327L874.5715458472131,907.9254877031103L875.0914050555068,908.529379430815L875.6730733895251,909.3048639313799L875.9041067775784,909.4519925921402L876.5285594998102,909.628240272644L878.0789088809347,909.6759588849013L879.0410352956789,909.5050658781714L879.275711617275,909.4096627147255L879.455167551177,909.2601614748701L879.7053839245843,908.7901598482695L879.9481980066896,908.4747813009792L880.20711955135,908.3304745721389L880.5090134973284,908.2948549569733L882.1265460479015,908.4241864246635L883.4025099057308,908.366214332982L884.7093156492817,908.5031670294677L885.0159234946939,908.5767093005097L885.3530430659953,908.796356238861L885.499515051037,908.891787090975L885.8351502460029,909.1797203375459L886.3453645362156,909.8020805631015L886.6815408013689,910.3792781397738L887.0148779170124,911.1011215020019L887.3458714479602,912.3612103861317L887.5913785734372,913.5220157976837L887.7755806354992,914.1087986744805L887.9089543087907,914.354203994091L888.1694385994319,914.5272610743234L888.2987868012638,914.5091062427543L888.9102881071872,914.2332671833435L888.9727642014095,914.061324723654L889.3266297547634,913.8728667113077L889.7834627433381,913.9460203886349L889.9684796372239,914.1122976194122L890.1386042013412,914.660893745385L890.2309423602178,915.2947470014751L890.2325104375257,915.7465225281337L890.147506045635,916.1333628407526L890.0304318289575,916.4909634260773L889.7926087097972,916.9471947651357L889.4544672162933,917.4554114889165L889.2903172721476,917.8368702341916L889.2914980658619,918.0211216149853L889.5227276320959,918.7229788493805L889.7712302955362,919.1845824892391L890.0529869146264,919.4739245056736L890.9248209140687,920.169410773434L891.0075366097183,920.3121424728907L891.1052914925544,920.6915194531286L891.1455518269187,921.3174581478793L891.1343390359666,923.6528636427167L891.1365074061752,923.6764640462644L891.1926299641445,924.1267332864859L891.17686353423,927.2106992425024L890.6384893000628,927.9318499926694L889.2049133932258,929.6649943390955L889.0260946818013,929.7813676062729L888.9809864544015,929.8070132251155L887.8741139706665,930.5009251676331L887.472541687732,931.0551704301047L887.1478515821981,931.6840541912319L887.1131753337283,931.9055102890798L886.9882935735823,932.1146804570297L886.4473826780138,932.7221278470971L886.308511084683,933.0282543128565L886.2507699441437,933.2727285106113L886.3253475452451,934.1690787471257L886.3180635312291,934.7502233925538L886.3950933394794,935.0198619796488L886.754497258343,935.7142731329897L886.9876319606345,936.7525328137215L885.92690788804,936.8638356271559L885.9822702871904,937.6014779792123L883.7950700473302,937.8259677881513L883.8572824016294,938.5754378839224L882.3612010584335,938.7076539444306L882.4254165879192,939.4693905485631L879.744709302134,939.754156057486L879.5684290306687,939.8143231659483L879.5278996000735,940.3031214013429L879.5497899612758,940.4032662882883L879.3094694390218,940.4456157327985L878.0423173801587,940.2877180315079L875.7939391234204,940.1797171197852L875.7432778131022,940.180969811514L874.9880701690327,940.2064600177071L874.1362657100026,940.0742572268123L873.9988176409681,940.0451517252908L873.5000369680198,939.9929892075158L873.1078410025539,940.0130981653351L872.173395489267,939.3489409285194L871.9968103373113,939.2841965523205L871.8953920359943,939.3002609480859L871.6013211496966,939.7387699846305L870.9375454429995,940.9613059741489L870.8513046102495,941.2427332347559L870.7432769482738,941.8873947864904L870.5983350794238,942.2009209585606L846.3202811545134,946.2436043471234L806.1592761344384,952.7595918400973L755.7647280443778,960.7498380321201L750.596066117432,961.5623444544385L749.7935659609309,961.6879272231497L748.8916696977741,961.872127220412L741.4935383779418,962.9812462961509L712.8514259612067,967.3749282922932L705.3381928213036,968.5522622194503L685.3088011031994,971.512609638741L679.1372434352863,972.5021850221216L677.5739167093175,972.6477944875653L670.5720881007248,973.7583399376388L667.397271210581,974.1704090407466L662.5077558236605,974.9202207463114L661.9853369078002,975L661.0559963564943,970.725587302724L660.9954735091058,968.4994857681222L660.575280656589,966.2611448511643L660.2936629591517,965.4103125707644L658.3628281022009,962.0004372878942L657.5272225109077,960.8615895418282L656.4808439451797,959.8978462951379L655.3544071192682,959.3114334562541L655.0179700676116,959.2112111527451L653.5999170464988,959.384463918197L652.6773424952656,959.910886923787L651.6471857353348,961.1686592985507L650.7973255917765,961.4113573911187L649.8732010922645,958.2597358230847L649.5541851550065,955.5725149017271L649.6643115034631,953.5537965788396L649.8767732456677,952.7665219143279L649.5243625634691,949.2519297125457L648.9250277216258,947.5952264229924L647.1127865058725,945.6868746830821L646.9365231076384,943.8994790165228L647.0089733031284,943.5335669183547L647.609001169304,942.6382788016315L648.3935811316953,942.8658743032331L648.7520826685288,942.4676475332197L649.1148847577074,941.7477665701598L649.4434626191361,940.1895500640144L649.0915552920623,937.529255152027L648.4398821058178,934.3327326431704L648.2248072544121,933.4817572340826L646.3407633578961,926.017735637633L645.1567300765173,923.7567791457734L643.5726889593222,919.6909774440039L643.0186916172227,917.7510511629213L641.7720754314809,914.8692792594866L638.9114851642862,910.5982897979561L638.627949646714,910.1745131625823L635.9958727476414,906.7283327818071L635.0518064665993,905.6446791791673L631.0740858824772,900.1219037691385L628.8817034841425,897.3225529725285L625.653107049955,893.5548736386618L621.9199031014844,890.4456735866697L619.8044147305175,889.1276670207749L617.6996906713991,888.412360133393L616.5965868703864,886.4202219936958L614.4689881469596,883.9966417353179L613.2397682808145,882.9866249028578L613.238892165473,882.9861388711001L609.8184284966287,880.9152017079494L609.4208312648727,881.110722200674L609.2008051300775,881.4813646402672L609.2610224433457,881.7471882147381L607.1815049886916,881.1417594414432L606.1502514654406,878.8187098804872L603.0493206121762,875.5284948485396L600.9540441563825,872.9992066491188L599.5332659822158,872.5487550114476L598.4092888176287,871.9756160318777L596.1073030091112,869.8527712564378L592.9244113147306,868.0122362926273L590.9334973037694,867.3187678987631L588.5790746122414,866.7788922786337L587.3817995616824,865.3210841990592L585.9409887064317,864.3897684710216L582.1523492539965,861.9374828515387L579.6040276154201,859.7334786166134L576.5040016111876,856.2583163411489L574.405326928161,854.3803479863874L573.352581631083,853.9650590423796L571.9963478044755,853.0299384258378L570.6068684232705,852.0711030820191L568.5240493771373,851.3923401469604L566.9289852652308,851.0914203470463L566.4754586334374,851.1580778730158L565.9225788672295,852.5937874233813L566.2956280427829,853.9305306539756L566.5400876734926,855.8509989691952L564.3112751374501,855.9503656456772L559.9672322983556,857.4009594777433L558.3773728818459,857.0916560735066L556.6749388073008,857.0022570064951L554.9479960135715,856.5767016835639L551.7038879733559,854.6408276540001L551.1992861688708,854.1888703223142L549.0980638480621,853.7585124258331L548.1188281649097,854.3426978368832L546.8597839173505,853.743982909029L545.3278523748972,850.4124520295904L545.74008853488,849.6551435224205L547.2732284355001,847.7573403431195L548.1714357573475,847.3216375857949L548.1772658787214,847.3188545338616L548.3935601167831,846.1753840571198L548.2909694856398,843.5607680648068L546.4510088355291,839.1860060779902L543.8148357689786,833.4538689424248L542.2134052401478,830.5323185166535L540.2850886076831,827.8216706789158L540.1558733113741,827.6398179609171L538.5445754230284,825.8454623206643L537.1059738473368,824.6417155188088L535.0845857617657,823.5500608807668L532.8637559126402,823.266384541984L529.9555633031904,823.5786258210762L529.4440527001782,823.8553477579168L524.4603958591905,823.6786911085694L523.8625996393409,823.8315540215858L523.5349516679269,824.2687860483161L521.2627009856238,824.6974686298284L519.0371860470193,824.3839033589164L517.9723947516367,824.463640765868L514.7211934842971,825.5868259290529L514.4130679987469,825.7952781933922L512.9065544409152,827.6885944636556L511.49327328139157,826.4027959894433L509.8815562357069,825.0321977531762L508.66278737018894,824.3612501222968L505.1361004765432,823.8884240171164L502.42421092634294,823.236255301943L501.57567577373015,823.4968303549001L500.9964465907014,823.3020707594995L500.15951944353117,823.0206116983109L498.1955890464661,821.8456073001889L496.5596787881876,821.2335066782512L495.9096555106701,821.2096010488267L493.11090414216505,819.5049957898535L490.35394478163744,818.7729198643649L488.77417113222265,817.9819959642548L487.95333411025547,817.8828757107992L486.97648609425926,818.3772762100984L485.2457238091937,817.82191977961L482.74483097836134,815.8366154144411L480.27148364540795,813.8705844622115L479.0413203506559,813.3142627409727L478.3554656060159,813.2766584813476L477.91477576619144,813.156005436442L476.951119748102,811.5627787914168L476.14974864296863,810.127076708706L474.451512925007,806.3008567595375L473.6925531061643,804.126661255603L473.32947418467694,802.258967280598L472.6067218815941,800.8315635991225L471.5656757876498,800.0179965579422L470.62227984212774,800.239678814798L469.7011845440086,799.9433804877456L467.6347353137439,798.4285446919039L466.6434592368844,797.021014957528L464.8551462314746,795.4827053192598L464.39752851709983,795.3169218890395L463.34681748428125,795.6984121904001L463.1611940269036,795.6170192524003L460.01150469681147,792.0666891659364L459.73363211281844,791.8341225568405L459.3273466966038,791.779096253159L457.20829977450836,789.9202994972788L456.2278780584728,789.760817055171L455.7574064848079,789.6007040800454L453.0305409719617,788.6713833114684L450.81723622011697,787.730770876731L448.9260327450981,785.902339448857L444.09810702567546,785.1170676269594L442.24550990544054,785.6522641025442L441.4215252680253,785.4763169106475L439.46897994298376,785.602238224506L438.0960444454449,785.9641277469616L438.3889749651939,786.3936483025682L437.7908493275248,786.9158915470166L436.32997253410457,787.7011095472217L434.62131519302807,787.64244315295L433.269593304523,786.9217837300243L429.87707445364225,785.5676542599997L429.12922902453516,785.400153022051L425.67861912887236,785.5623529126703L424.15868682985024,786.3476383937135L422.45947524061984,786.2540622547383L418.167521069354,783.6572500653588L415.544323341118,783.4965650676074L414.2479579912751,782.5312868584888L411.22618833888026,780.8913912451894L408.6447240432159,780.5610592179675L407.6465685757727,780.7324594532436L404.4588249686296,780.8450156730435L403.7360966205947,780.6736575840498L401.96413131609097,779.8256474331661L400.05642998711795,779.4483483225531L396.494943077295,779.7129331638575L392.96670922784335,779.6441394712341L391.9125284575036,779.8833455411248L390.25048817014954,779.9259123988593L388.13167254126097,779.803172692541L387.1225858650601,779.5569098602621L386.77521216027304,779.6426434307823L386.54822153588714,779.9097920621828L383.2117827087608,780.7033360720336L374.7435309310431,781.3040138309726L373.94121524862396,781.7403165023422L372.265483981789,781.6335563041623L371.8761940705909,778.8446334206292L371.57119944822387,778.2347748765419L370.7355043428266,777.3004043229585L369.0436069294764,773.9182382987901L367.9390712579911,773.0477322736394L363.2496962159106,770.3409388435535L360.9798007959785,770.3255909946478L360.6672258902429,770.6341014292674L359.78179341250063,770.5695694383912L358.5308962474188,769.3003193311915L357.89784180886267,767.7780555927966L358.408741506159,765.4091277436355L359.7389957104434,762.3747105319857L361.7974447513596,756.5556830923354L361.95060015342995,755.282769813878L361.8590348938313,754.7641155132258L360.80172424161424,752.6079654342707L359.8594167152403,751.8396794551104L358.97100682121606,750.0089657262774L360.2561703876245,746.2340272699042L360.8613153476712,743.9087460881505L361.45006369186643,741.2346840606558L361.45167203015575,739.6676817434262L360.96495993222,738.7884414722502L359.0822828030218,737.3605799289278L358.8679358197338,735.9618616718368L358.45720545984943,735.2437380953083L357.1623572590526,735.2109406439367L356.50756427769613,734.899145306855L358.4841918614937,727.8100546294698L359.2860746472548,724.9293003699818L359.8832681228903,721.8875967211969L360.2455299591777,719.0133093292397L360.31010187967775,717.3073006086403L360.24623394258504,714.9168228356998L359.8926306223612,712.6945249837962L359.22066392341185,711.078941729004L358.6734290098095,710.2417445891347L357.7469472478141,709.6559359270248L357.28731630667795,709.7804026280595L356.7036597585646,709.6633484938759L355.7358606109243,708.8678703134301L354.77211515314684,707.7850901878028L354.33847672616895,707.5715484348825L353.51913145842235,707.270562231429L351.8668004213521,706.9827090009579L350.6544795064797,707.0234413069454L350.15486653475324,707.3251340077236L349.9733109900718,707.8770741777828L350.0169608113754,708.763962295901L349.6506492208723,708.8312914395532L348.14142718969026,707.8656684728971L347.57698739304436,706.9644692266834L346.00833811927555,706.1871988210693L342.6324962070518,704.1351489875857L341.86298404225886,703.9076688346552L340.5071717707102,701.9302847936096L338.603335041004,699.6364522928956L338.61213938356735,699.0182037781709L339.2948280060816,696.62521138005L340.1442305482481,694.9917416258909L341.24854452940184,691.6859571077971L341.6705603100198,689.7130265426324L341.75140901742384,688.30137528084L341.50675828928587,685.0331875521924L341.276820617059,683.9937841714543L340.06664265624914,681.2439276679704L339.1023761039792,680.0026072864839L338.20965563122184,679.2902667444533L335.0295046171272,679.444484770856L334.68807431085395,679.3036075550569L334.28256131431215,678.714869613462L333.1845310106032,678.0336618427389L332.6318620748121,678.13673394337L330.39812604608346,677.9057409540153L328.63619657250683,675.4449927690387L326.4468309200528,673.0683991528841L325.89208267721835,672.836463628177L322.5865339200774,668.790773223726L320.71574887954193,664.2726235652972L320.12120396066217,663.5089220362634L319.31858388565564,662.9210316873869L317.5126646639096,659.906862809648L315.72087975448295,659.0716610874108L315.1900899064528,659.2975327127283L310.6794174611067,657.5518163310313L308.9707548974076,656.4818037668779L307.96036123696615,655.7033589303402L307.61662671095485,654.1484706668385L307.0951027277842,653.3861675653106L306.4487546368982,652.8641451254912L305.6659773038971,651.6780779002561L305.7027143479513,647.7301362368898L305.0137337285508,646.0128671078867L304.44555767183516,644.6086555050229L303.3515065996777,643.3561344547375L302.5362013440806,642.4222404366567L300.04976516079535,640.3951608008497L298.59404505381525,638.2175034635076L298.11652470876163,637.1250278983471L297.0088505890294,636.6045998259631L296.004834012322,635.8803623148247L294.22548757270874,633.9392427024374L294.35047547928923,632.8084626404902L294.19647948191323,632.0477185831861L293.5216748581529,630.4675354591991L292.58590096801754,625.3616492138566L291.3220076030569,622.3060910507634L290.657015176904,621.6489072236672L289.03948606634407,620.8086940216962L287.2876850975116,620.1979742777048L286.0045765162379,619.974859893516L285.6134605683487,619.5967567565459L284.4286121763188,617.0200621645166L284.5399039753617,616.6816543959428L284.2855403460337,615.5385557882531L283.17845288143616,614.793033870684L282.2808025374071,613.1820245144846L282.05670023388996,611.9759684545437L281.4965595031133,610.4730718228268L277.6116306630893,605.1664105171333L274.73577830113766,602.1095252987033L269.8052872384276,598.6726920333115L268.44430080645157,597.9338511602151L267.63798072854763,598.0308382006098L267.09822803831923,597.8750127111658L266.10597781929266,597.0686778263911L265.38826324475997,596.147220737358L265.1419818805857,595.1613867111749L264.1982694720356,593.3818395240442L262.4055889955948,592.1790819877943L261.3611739962842,590.7564253138855L260.9248518805008,589.2349461354797L261.1679783919675,586.9793170501595L260.2369211659861,585.1518183471309L260.48503794568666,584.5986232383357L260.63232197830007,582.8048035495658L260.57226418651,581.6283522410725L260.3943235183941,581.1597555889673L259.7198011239526,580.515762028805L259.51761268041577,579.4593224807866L259.7850711350409,578.3619353253068L259.04347893707916,575.524481214955L258.185291337723,573.6286298569034L257.89042609047056,572.3036742267853L258.131698209006,571.1846573436134L258.210138789329,570.235268027937L257.83960779416077,569.6808999211376L257.80488283578154,568.673429969479L259.0855490585004,568.6014577706507L259.3215844680864,568.4092641530842L258.94768365118716,564.9173511662948L258.17304997529584,564.233363442199L257.60725945395365,564.0916094313762L257.44702118736245,564.4436334226282L256.97837435537474,564.3754877268722L255.79549453098153,563.4341974232988L255.34691585625256,562.7026231102714L256.0110317942158,562.5059545490213L258.47053978995933,559.0876431699753L258.7897218380924,557.5184444721724L258.9719115950555,557.2430051261813L259.51396376765115,557.2456444135321L259.96744381755695,557.5053386640393L262.5544128184447,560.1458073348141L262.6100536691916,560.8975940663966L262.79290877869425,560.9354912858554L264.0392371983898,560.6795361243908L264.92879782847587,560.0605915800402L266.4772119841498,558.2362335546667L267.3612628789492,556.7957372325532L267.9685908709547,555.5878905554275L268.92283869149435,553.0667332453261L269.64481123709334,549.9725613560825L269.9084427273466,546.3828329858153L271.5163964984634,541.0876635871768L271.3023407717766,539.9627018247361L270.0217402562346,536.5725206486902L269.93536746659885,536.3701332291078L268.69324718330506,533.4568742954511L266.16195556890534,528.1484916599568L264.81889508719564,526.2382850161088L263.7173685325708,525.0254548943287L262.81083615886666,524.2791165379169L260.97691929803034,523.2827317503137L260.2301207251735,523.2597782134322L259.2324471081072,523.8728271001848L257.4800528044721,525.5175256316031L257.23337111832643,525.5164381187793L256.6168327479834,525.0230544749619L254.38147138045116,524.3420704948545L253.49708010130337,524.5407971351668L253.14523553627797,525.6203049988545L251.3103992732904,525.7976821081913L250.0145365452002,525.7627989168465L248.998715029656,525.4652956793519L246.9085699721867,524.8524955034883L244.25079508013937,522.8341466079871L243.12793391456793,522.1928145125634L240.71304168516852,519.8257815072004L239.23300415246462,518.7083305798013L235.8096680587385,514.0105804248107L235.21700099660552,512.6774414308778L233.43033522700605,509.6827950685435L232.8178011309725,509.09773331590054L231.8216160593671,508.14562721711553L231.21601565146028,507.9380334261744L230.4852890485457,508.16950588576606L229.891939146712,508.1513488071796L229.37953929086336,507.92180337287704L229.2559867139039,507.57011145421393L229.44660941259176,506.5911125004504L229.41358700928487,506.0781130891677L228.96520460279535,505.2432924682306L227.7777918668958,504.04104122420364L227.660878381131,503.2376378672464L227.2897772161131,502.301333856926L226.3698788483477,501.42734561005454L225.48458153693232,501.19632858736236L224.99592607638107,500.74720272450935L224.40784618533596,499.86726501813587L224.36450822748574,497.5119449737176L224.2525062783206,496.9303562724763L223.7522705570976,496.1507068591645L223.53766323330146,495.2817672272828L223.62659632911888,494.5858596643515L224.25040794409108,492.89764331222386L225.43631600217665,485.8925410237581L225.58860442514242,483.6952244700326L225.00798337207777,482.11851324083824L223.99721290922673,480.30524458059176L222.62119452834128,475.9269524253253L222.5749804981698,473.3855523611313L222.19610907657372,471.48151923540536L221.04943044976184,469.67546316364394L220.70921636435278,469.419336772186L220.38182331183634,469.57745770676775L219.904783505718,469.8077219095073L219.6191607492669,469.9456340651218L219.55029650027242,469.96681300993953L219.51910709432298,469.9763373784023L218.98721680441622,470.13961750130056L218.93888000464756,470.10240968542684L218.57185321225944,469.8197722117997L217.34684756343904,467.17615490723074L217.20971582942377,465.58670209278284L217.48138369013583,464.84464465624393L217.62883284835934,464.7337382934683L217.74779363993252,464.13573410588293L217.53146953675378,461.75610212562555L217.67980499823045,460.3278672343479L218.9644263977569,459.50601764189815L219.3909530065048,458.2911468787099L219.7719980987576,455.1530582274868L219.7867429563427,450.9570162755268L219.46175502778314,448.79207776737206L219.22841377396801,447.23616542572165L219.13514536080905,444.7471337514298L219.05257928425533,442.53820919096404L218.90957729638993,441.57133287759854L219.66427412236783,440.8722633904783L220.63047684048874,440.96225552629875L221.1979730721449,440.7258062953938L221.90455544689613,438.76673384145045L222.49650637022674,439.01163314548955L222.9849671088702,439.4349148050435L225.96601224484107,438.96746449710395L227.40842573501692,438.9974764127321L228.10387313259938,439.6082237212254L229.02586032701174,441.12980865849784L229.479153271186,446.66600461267296L229.9150469697662,446.9504762935032L230.11537058254774,446.70245024960366L230.28685744911164,446.7431489153581L230.93921441711103,447.28280603733214L230.47812720342077,448.69300812852515L229.8150802742171,448.4053372487581L228.1314917137057,449.2322984089229L227.98561671455013,449.30385688042537L228.27391707013186,452.1361798619643L229.2295040245693,453.853848451374L229.07703058015616,454.8176933534002L228.88798827906018,455.0023185848048L228.13603456517785,455.1576109550038L228.1829441309729,456.2292361269532L229.73661311639066,457.44373418380303L230.47688176475637,458.5187730168413L230.19754228016882,458.9580246565924L229.29253617409813,458.5873266331643L229.05880434521805,458.6399989714496L228.6072959243019,459.4267599190836L229.9746238961475,460.7939207277512L233.29635395050008,461.1258294262147L233.4576484136721,461.49056615122424L233.41393520395036,461.84481357969804L234.14172252543656,462.6921008622354L237.5114679319205,463.12048170119783L238.325184856505,463.8092344817663L238.8746820411154,464.64687415158875L238.9904223287244,464.75205908628067L239.47966733957662,465.1967585645114L240.3208369755838,465.96109128021686L241.13846095041856,466.70353918178427L242.51720158995926,466.90047777488667L242.57470252715385,468.3625340026103L244.56598476484612,470.2749515883073L245.55320505420897,470.6142211841336L246.03509426474938,470.49128450323576L246.8042064626432,470.00904838865614L247.50297422310837,470.463954021035L247.74286337719195,470.8320207948297L248.67733507995737,470.34767102134424L249.0615771735918,470.14835175847344L249.10934753862205,468.0428041806792L247.94952568793974,464.84324891771377L247.55005813199006,464.59736390456845L247.2895606270549,464.1311299689498L246.81908593004513,462.6826013684422L246.64493473728223,462.0261146647247L246.83160992098044,460.8036293874886L246.78558646602642,460.15336474698677L246.43099417569653,456.8318161673628L245.76640352730413,454.11167393360944L245.19136776511849,453.2744680348718L244.57082180816212,452.85597448659234L243.20020485114054,451.52674725291047L242.711686022091,451.0117489012207L241.95055509364536,450.882997366813L241.3704346686062,450.174724749377L239.4827833233208,448.4630668221044L238.8348845184067,447.0715102623393L238.70087692463557,446.67645690829363L238.7912216896974,446.1468753773219L239.18690037537806,445.90758531986603L239.76846076935863,445.6718205800487L239.96467385916867,445.340336954888L239.1342904744536,444.56017044425687L238.3442533889092,444.17988493684544L237.47580277885018,443.87128757964587L236.6495327279665,443.621490837921L236.04170879459858,443.4962399824172L235.25585589053526,443.03978129882876L234.14257888329308,442.5476090341583L233.36438572067664,442.0994242006608L233.24056927352743,442.0281611796854L233.23816384756796,441.81003414504806L233.2273200575583,440.81917252726305L232.94862464664993,440.4603463191882L232.93945958022672,440.44860914414414L233.14347407559922,439.45617288679193L234.0008064114014,438.17367096012725L234.47752252274202,437.84206961925634L235.37262691933634,437.82262421357456L235.56403026290033,437.5735543266234L235.8556530929446,435.84204092199843L235.27288983365244,433.2260641139321L235.40479020869856,431.3739990636341L235.1716111610762,430.9419435933849L235.15411107497675,430.92120580276924L234.40172276598705,430.03033690571925L233.57710549002758,429.69743507422623L231.82226577444092,429.60762750694346L231.39211704429374,430.03803568676335L230.98349898191154,430.04927988187785L230.12535243840867,429.87565992616675L229.58090163978633,429.5565827530369L229.33659323018492,429.3499295903127L229.29852098845615,428.1199241555248L228.96611827135195,427.6501707736477L228.4898289139798,427.49609473137L227.56941825977458,426.57549729320135L227.31854775331504,425.94514865646363L226.43280582054683,423.96338477897694L226.47005667116926,423.7392865264412L227.57575958258096,424.0234280105637L227.84168596007686,424.2957961558416L228.08868895659757,424.60023488819695L228.74459189989113,424.7860117540267L231.3606327285563,422.7342952079071L231.86099957679426,421.59320108136393L231.79818484854968,421.1573264474778L231.51429410499898,420.7397841278071L231.41020605907565,419.79797019704375L231.50959294609495,419.35098212862096L231.84770548244254,419.20697505111275L232.14902075244513,419.63934890944597L233.62189710889882,420.33120159343116L234.2645408130874,420.20253028597585L235.1396378085526,419.50430579773604L235.57423267842634,419.461794799251L236.70306450191035,419.77708226316406L238.10605277687233,418.6851833891386L239.81150963780973,416.60732639479244L239.84509153576093,415.9311047429954L239.59212887668446,415.07066286773465L239.17142865506355,413.63854868352365L238.45304769789618,412.76365733881545L237.09385081466615,410.50148638297077L236.156736055241,409.45412125984717L232.28946413991568,406.6763649598853L230.00549059627477,405.71959228802973L229.45742249964934,405.62719066393174L229.45235218507582,405.62633499750854L228.8978206070362,407.01650951501483L226.49535436579174,408.79356994050215L225.6566333913062,408.8136857143864L225.3159757613916,408.53753308933403L223.0174437185135,408.8021002213689L222.5716325562162,409.0686294953008L222.50146279892135,409.28757938306944L222.44964684398528,409.4492496653259L222.49217271419658,410.54854247099786L222.7090965870426,411.2379059112667L222.84043143619846,413.05220750580077L222.10045219634333,414.5295570539159L221.41450892992546,416.88155872504103L221.47373321111488,418.14403305479897L221.70482734743382,418.5762319346441L222.67986218555478,419.37132992874155L224.10386651007627,419.86717162662694L224.82749024832262,420.6161772197705L225.14189027523616,421.40798204074156L225.1231168294258,421.7622993863824L224.45760270932234,422.3083441843911L224.01435171967321,422.02636223480783L223.2798495037638,421.9549212991393L221.9055141456336,423.36730980155926L221.76809552607583,423.5537128258457L221.73866761731875,424.101324495178L221.88651056184452,425.14316114002384L222.42821622992733,425.4953741411853L222.5091449582108,425.88745279489797L221.98019621332915,426.2468572286972L220.92153913931202,426.0283717706817L220.62816689787957,426.271060134043L220.58642704247688,427.04438411669787L221.28708502727363,427.7607915178405L221.84630860542757,427.7908465683126L222.4646432193332,428.1472314784324L222.90466229960478,428.9787468961007L222.83784337891026,429.75091806749083L223.86148034261097,430.6459848196869L224.64666407328252,430.75228144493815L225.30954213784426,431.7248281941052L225.37056106658906,432.0190853958778L224.4031309197494,432.93774200797833L223.4494377661094,433.1134026356053L222.53704115567285,432.51507867226377L222.0228899844649,432.58447530037574L221.7950832575076,433.0249725924487L221.79457363723327,433.50998664145624L222.14102642045117,436.6063717534978L222.14435284694133,436.6361017880711L221.898489882819,437.3232120682349L221.84441885752045,437.299261202833L221.56811650725956,437.17700348768506L220.85817521867432,437.32546951800595L219.83876522071338,437.53856033491047L218.4938637695122,437.2097477284835L218.43615056564724,437.1956381901888L217.3992506913213,436.5954896403025L216.52035943752924,435.9643391891875L215.63208072471417,434.3737710506269L213.8986072415397,433.5467209923236L212.66356411644264,431.9070172518829L210.71643872585938,430.71573738371046L209.7791457545558,429.5496311947619L208.53373511066886,428.7708625717733L206.83968063751044,428.46847643420773L206.5515957189817,428.4672270321971L205.63627000605854,428.9363027080184L204.88982453951235,429.61965106465004L203.03546407884343,428.4449579221015L202.6895310785249,426.8839470735689L202.41094609264698,426.31461610950055L201.09176224637454,425.2794418555975L200.2108249119495,424.9832102130104L198.96032973605213,423.59320002210137L198.40633255471926,421.7743676337175L198.00898157036744,421.03650635789273L196.26718065005048,418.95080689665036L193.65781442163058,416.82197800859853L191.73002615570715,415.86091209868727L187.3089042413933,414.9354048721144L185.96517800118932,415.1668967357309L184.70764200565498,415.9250262472069L183.91129123480465,416.97381905935174L183.83425023241904,417.44730937101457L183.9865968031047,417.79673848640056L184.21714788909475,418.3196833701187L184.38120207896765,418.65089545488024L180.5462047889052,418.1682328991976L180.8467583694523,417.7265441691306L181.19012264227086,417.5362535860907L181.57057270694344,417.3877695487742L183.28772977692796,413.7131555245171L186.16348682299167,406.86764048386425L186.99969427448576,404.3949550838582L187.32655895969964,402.8871440332721L187.34457149987009,401.90428454624396L187.10621664758457,400.74319707353607L186.26679752298094,399.56323234071306L186.26212996330486,398.43929962216L186.1516263180884,398.0467055193511L184.5014548826818,394.9130852853661L184.37396591366024,394.4699330083566L184.44257800837522,394.2689167413523L184.89849066993804,394.50905821824665L186.3632613038543,394.0742032611475L186.516189003293,393.3141537106392L185.86016463063635,391.57806059672174L185.18090860939014,391.01741951237295L184.6039088672714,390.003181405002L184.45028715513467,389.367044011473L184.04184714858036,388.7259746989333L183.95665810330019,388.59222243458373L182.48491474757503,387.1642798211891L181.39482680592312,386.7996338754299L180.42898504474732,387.02214633866583L180.212121401797,387.4978034936614L180.3023957846122,387.84582060258685L180.17039695005758,388.1191391423168L179.79952272481876,388.1969348085062L179.4053768701907,387.795333029102L178.68591053534612,385.7411174267729L179.24565544244717,384.53295937930807L179.41336919998434,382.1168827203961L178.27613762849614,379.0268714705496L177.04154925997057,376.4862200070554L175.74656804895375,374.26073408317734L175.33541265379722,372.9452479014881L174.12748345943447,371.98112185193486L172.6091217609797,370.3551267287312L169.98701498560638,368.2780351251054L166.45642598415384,366.3978155198117L163.7890872407445,363.3499666591106L163.04570699746375,362.9821852954631L160.53509948662202,360.6400336663788L159.82478366197859,358.18737537898835L159.3910166437728,357.48978490321826L157.7602849639265,356.3525994054851L157.2926863094334,354.87449404645736L156.02303284384766,352.322012555017L155.6697138301726,352.061204157358L155.51690513094906,351.3356689627734L153.66108450369762,348.2207461960879L153.05749780136819,346.9401203970324L151.6890647035309,345.1496550731076L149.60587452527994,343.50873661919627L147.78808136654328,342.42165043394715L147.0816709895346,341.2095944677004L146.54624445155474,339.73787736543784L145.9733479976265,338.87677784708893L143.83151166421783,336.6198758278656L143.26615647569082,336.12301141196497L142.77026498351893,336.08469331896214L141.79831192386524,334.90944230490385L141.7306784701214,334.426371565062L141.4728103239823,334.03725454890383L139.09271860720344,331.7929471330236L138.7869394255331,331.7566138590463L138.43970457255995,331.5870689397033L138.13908777058094,330.67154520728604L138.03042019617408,329.57951795155805L137.6893388535335,328.87863699769196L135.69835410086944,326.6653796022644L134.1397072925476,324.6240120912439L133.0463308262445,324.1293119791243L132.96342361772435,322.9410183151613L133.1135585787838,322.2794516401618L132.29166454935978,320.47795481275546L132.75217142577316,320.4271316915572L133.05528963636465,320.28611012544326L133.69194891032197,319.62757623019104L134.56268955826118,318.37683963906477L135.83910971455322,315.81992516443677L136.42821715537747,314.2099625912995L136.5487838230938,313.2532248863032L136.44661556122622,310.6802451702302L135.35187636027513,305.60155655195854L134.8631744680273,303.91095017296493L133.87933467015745,302.4362875973742L133.75810096529557,302.0556342208609L133.59082465532072,299.9457884354399L132.371496207463,297.2415725763159L132.01897976701736,297.01318076928754L131.4692959597529,295.16991859187647L131.47694566427822,292.713991018519L130.88602185005925,290.0192355716254L130.10355864898003,289.2726616698359L129.79352275988055,288.52430066075306L129.98616299866205,288.07409257026404L129.9477895422241,287.2683657923386L129.48062422760944,285.17349432169493L129.7630930428872,284.06773338069036L129.22508774634923,282.61694670649865L128.90876784035606,282.0987744418244L128.79183337179956,280.433981848578L128.7776925807359,279.66195646095537L129.160618192593,278.5904825785981L129.39371252903703,275.9902642026308L130.22923644377533,272.177562042912L131.99480917881175,267.8571492094044L132.9801368114018,266.25462462858025L133.4916571728201,265.1177519032276L134.62288211667698,262.1499184836316L134.61980927776472,261.4626088290521L133.44031731249703,257.0168167859259L133.76631385328,256.55791155946383L133.94548926322955,255.4054850828686L133.92796000139208,251.65936589567664L133.63713582770384,249.28160382954536L132.6758611829291,246.6190666172751L131.4998792708471,245.80722472209715L131.1793109734678,245.30140926677785L131.08273120051712,244.55829800356872L130.8834649826257,243.75077186961124L130.76221593550827,242.41384541589713L131.00963741046013,240.11474971772003L130.95756200847035,238.2228193250939L130.3441782201606,234.63451996887596L130.20737809676626,234.42369980871433L128.23668241050768,233.16977830330956L126.42506541381721,231.31638600317137L125.96341881965412,230.08575467461696L125.95464297703336,229.52107621499493L125.1193819498231,226.67693935373177L123.37082402400068,225.30699569395154L122.91699905738699,223.7878326910327L121.82096578437887,221.2887870904454L120.73114130074413,220.17337399110284L118.87271119919961,217.28138258634607L118.08152919711137,216.0488277145093L116.65180709450567,214.86651890739637L116.01561476121242,214.7684249488276L115.70476320168399,215.0810272092561L115.44924605928526,214.92919125069216L114.95278824934422,214.1977791336999L115.1839840583441,210.68813544570907L114.81003815117077,209.46049674040205L113.27833179250746,206.8774651955709L111.20983182611019,205.48633620558746L109.00087681885122,204.54144738718486L107.79078337566835,203.82623717175704L106.0441652454598,200.73459852772805L104.93755657501225,199.60583547735513L103.03029352477682,198.21370506813224L100.42805486146443,195.61295082846658L98.77893214949796,193.74586508480922L98.36916569174923,192.66798729537248L97.29353669697525,191.9349094165841L96.63841849926308,191.25083490645517L95.9396625229453,190.1705004737767L96.04987509723253,188.70256416850418L97.52607589012194,185.1051160578112L97.278252004146,183.4565730535581L97.0534347065726,183.08925773471964L96.72325782032158,181.60446879014881L96.7411055807778,179.20245466425422L96.28725233286218,177.41315098420608L95.93480805154667,176.81078034937644L95.09437052326518,175.94205675631838L94.40553038095027,174.4240507376553L94.02908086523149,172.8448317571137L94.14428750053406,172.35861384778036L95.17648158999242,170.61664255331522L96.2620615893556,168.0292912092665L96.47071368075422,167.07643569096092L96.235606652086,166.5623727216763L96.65943023222644,165.23983569782968L96.96307997005556,164.89209044906693L98.31188265709602,162.50912075699614L101.358528964335,156.22025376654756L102.58642604497788,154.09235497550077L102.7892723499096,153.93496593161228L104.80720758787169,150.40529360685656L108.21653876495611,145.32803643292874L109.9559241612742,142.16905029600127L112.15187086137121,138.90389183879262L114.2857037607871,135.36485051009453L115.87499407601115,132.36542339903747L117.80448965562289,127.73463334034369L119.66959736427805,121.76344415705785L120.40508660633321,118.07452541001311L119.60500735615938,116.05092794552081L119.09510342479149,115.6261189895082L118.72937527031104,115.41704985871843L118.39146973729504,115.41922974510328L118.06870148304108,115.50333636035458L117.93326839574144,115.62870568391327L117.76250339119343,115.64994174758976L117.61176551096577,115.40168306330224L117.63255822975805,114.78958390221908L117.81158886705077,112.18144265274185L117.46918696351264,111.0121176949799L117.75703541287567,108.82670917538684L117.36162343543418,108.037086814811L117.53396974100531,107.19912502708229L117.96045722595875,106.8158981804732L118.58163027708986,107.07634021279364L119.03464447436278,106.74379659315531L120.90649997547933,102.56276198552223L122.34525738727967,98.83682121993479L122.4735623294282,97.78897683136967L123.85050232349255,93.38043268098318L125.26086606261663,87.78190336954037L125.95566995583658,85.17588617865516L127.11253389007203,79.05213189768148L127.13071685129847,76.63820488865377L127.1347479245411,76.10876207994556L126.67225239952228,73.04836886900415L126.35166169006425,72.1136636540262L126.59269437286679,68.62797415382374L125.89477017344268,68.01002977870303L125.39320567466035,66.47525681825545L125.44528622536592,65.58441579971213L125.78356004301338,64.9666440558301L125.66181980775508,63.302743299151416L124.81396162684604,61.865762567890556L124.79181411963077,60.70566572717087L124.58277368661152,59.585699859155056L123.62364617997275,57.8824712847765L123.46468397534096,56.494548272709665L123.59063018766142,55.81199737243054L123.46404025768783,52.888236708455736L123.25206530504488,52.040119192167765L122.8511029537969,50.96819868424865L122.19595637138451,49.82957477405694L121.34017543693142,49.21993438264229L120.72394009428803,49.78275020585306L120.29518105458709,50.0608425172029L120.02283382227017,49.971392276575216L119.47237783647262,48.94329144019315L117.11420849261594,46.471045933971084L116.941822360799,46.338478181710855L116.48211252349688,46.35518004930242L116.05690406469535,45.21293731653219L116.90838417594307,44.3947705535773L118.13452754063172,41.970847820440326L119.13909408702386,39.39764486706224L120.25753733984021,35.49368809646421L121.02847330132914,30.508802917093703L121.25282491009517,26.465118725164928L120.90096008190977,25L126.91738538275354,25.63391911895127L128.70094416303914,25.781950110664752L128.74983085033125,25.796800147369822L129.6246863754468,25.86273919882308L129.70682118391585,25.87146292164556L135.73502199518106,26.421913957137917L147.5247505506186,27.340093099029616L148.41949075053145,27.469600125568036L148.94500770881075,27.545508576367354L150.69642585927204,27.58092235524765L155.02068960017675,27.8189779981098L160.0336395154049,28.367088460406137L162.35785151063914,28.087177531340444L167.44607296424766,28.41379616292818L169.3810397430908,28.474656564570864L169.8983817666845,28.526899457133993L171.01987131694614,28.639968806575723L171.23858810345388,28.660414099133845L171.24359154045027,28.655893638849193L175.77669039647162,28.865417489266292L179.5054703288709,29.348322534062504L181.9220439175407,29.527818507018935L190.20559428609477,29.62730934844211L190.2057356197929,29.62731862109331L192.92937157065592,29.652193291517904L195.59199722498556,29.57687604748412L196.23178689583807,29.50230559499778L200.59069561077726,30.142233386605312L201.8812090530122,30.271126772078276L203.31191975924432,30.54194447862949L210.63968537171274,30.98885073514623L214.00468905608284,31.23703443838673L215.26771230356405,31.25096570576494L220.6505704795526,31.48849129920768L226.81252115229822,31.83345126818415L232.3464308376736,32.07570990188162L241.81352571026324,32.24328697365888L249.1105406453937,32.59391857202377L250.51405091475758,32.59278963530517Z"></path></svg>
