<svg width="1000" height="1000"><path class="state" d="M419.92862894784156,172.77076526952146L435.92650290047834,173.0362118911208L476.83180773408236,173.3099837346424L477.526494515686,173.30829136665278L532.8900463051174,173.05493816903868L532.9244262231855,173.05477131509002L535.4389651040883,173.03915357817243L535.6551211622085,173.0349084205858L574.1657267778902,172.74581530718586L585.0600506582269,172.62507643048195L588.2440373101432,172.38456584705142L607.2209089771022,171.8376580286507L629.3312152612943,171.31393001588685L629.3425368402235,171.31748596053723L632.9766497918173,171.30248201477764L664.2506832326227,170.5958136602257L664.3129639902114,170.60891125565917L664.6488656529646,170.59710239042988L675.5128065832832,170.3225258268128L677.8612640369548,170.2757631667219L680.1506726803154,170.21286652463704L682.512708649878,170.16022958215495L684.2080388420558,170.13107257823089L685.9394621320956,170.06872545332163L687.8974955877381,169.9523853035505L688.5365001327775,169.97914466937794L694.1704104122923,169.82266454244802L694.3276803015259,169.83313669213965L696.5333511876945,169.75864020485443L702.3682598924402,169.62363845214014L703.6169134752461,169.52727581196456L705.8716297345005,169.47275975874214L708.2838553454585,169.3988041433925L721.6231721913572,168.92069725552096L743.3709598243812,168.2400928797079L752.8950136758365,167.91060423872779L754.221572509564,167.81596246251644L762.2176052718704,167.50053727712918L762.2240199148632,167.50652275556098L765.300858861128,167.29197183418052L767.0942058344529,167.27601690626295L769.2189177806961,167.25647174584174L769.5074060848885,167.2455025787238L804.7312755036914,165.700826553953L804.8882131079727,165.70125160777388L806.9867865846804,165.58906007157663L807.1769888781142,165.5805692030538L808.9746863176587,165.50399358814747L809.5607892432074,165.49289349103958L814.0889003286358,165.2490941543163L814.3271585578683,165.25231409319662L816.479363967519,165.1934827581316L816.6287664663274,165.19398708515882L818.8282013301016,165.08026230462838L818.97071712616,165.09235048486835L819.1950862104018,165.08407485727145L819.3284362315208,165.07198212235397L821.1538418769599,164.95289114406728L821.3683015464071,164.98420181078086L823.5327390434729,164.84518787440038L823.723855380545,164.85882790840282L825.8816834317211,164.7349648987102L826.0984482853623,164.73600821874066L828.2460108483506,164.63862155571172L828.4514900426373,164.63652138920395L830.6644426877369,164.52197289154674L830.9176389684953,164.54177759434214L832.9552365609065,164.39212039750856L833.3023298201038,164.38269139838422L835.2960299756558,164.27021964734172L835.6709677321719,164.2860469359037L842.3036129077204,163.9147398300684L843.1471900916713,163.89550692838588L844.6412147074475,163.8067089066522L846.4934508662132,163.7351428007334L857.1301510017038,163.17438577522466L861.1314539286209,162.92200501743866L866.3604894964816,162.6956725022158L866.7258389413703,162.6799759202422L866.7563055510244,162.6895059355258L867.9226030288726,162.62721908433844L869.0653903566713,162.56287905138066L877.5600063429538,162.06475871371907L879.7104741938698,161.95671039794712L879.8722798874614,161.94088570213887L890.9356969212358,161.341121058415L892.8531309400125,161.25270084883687L901.6435059600648,160.73955470748126L901.6693241063282,160.7342732139819L901.6780584809414,160.73753674909176L901.8260171716325,160.72889360455662L904.2015980607022,160.58345039683445L904.7294014364574,160.52976723115802L909.1574659802261,160.27693692517403L911.5907581091192,160.109586296374L911.9412526281035,160.09188212298557L914.1819813963318,159.97632967564346L922.3542954397237,159.47730286261708L929.0615398288448,159.04813343309155L931.3911133130675,158.9099326852135L931.4039429581659,158.90912780996604L934.0407752077335,200.27230513561153L934.0408266676236,200.27312421957237L934.563485429853,208.8015457344497L936.169337562482,234.99596746743163L936.3782138175511,237.90683232453307L937.2122654710666,251.05648317089336L937.6162546234968,258.2243572728603L937.6840880566317,258.7671364047478L937.9972818650859,264.19419314255504L938.1402986356502,265.9765949237999L938.2829952426707,267.7555555676887L939.2733435504813,284.70755568721256L939.3406170925906,285.7195127926783L940.0285661645426,296.66916596369776L940.1655240747523,299.02709056466006L941.7071515441996,322.96471835108156L943.3250305587723,348.25326558404737L943.4171677480147,349.29746245088154L943.5287927827741,350.974804551277L943.6862158494057,353.3390195566869L945.2671554694514,377.03197430739027L945.5578865925374,380.6303804422271L945.5979360365275,381.91719015174795L946.2195402232246,390.8009560870864L946.4296969160087,393.82402384506986L946.4965980154025,394.7966248925127L946.8297165419908,399.63688700731166L946.8379970544754,400.0088946095633L947.156887068616,405.0609485570129L948.0653743171317,418.7850664243956L948.11900708039,419.6341916589761L948.2983803974815,422.0548079670097L948.6386915769497,427.0078822865699L949.4458774659978,438.709779139436L951.3492225881379,466.2833733439404L951.3979231910694,466.92646998535463L951.4413511676339,467.49867796707167L952.3863083556661,481.2364247703256L955.0114540087103,520.1254566890597L955.1661295993874,522.4466255641584L955.3210763828363,525.1164008905521L955.473082053914,527.3479843576532L955.6382010740175,529.7710493934794L955.6393719255841,529.9700478989961L956.263154436057,539.4381830678097L956.3661491948014,540.9413630923258L956.3893615530924,541.2464718225964L956.5072518236087,543.1663917821877L956.5177292869482,543.2118019130994L956.577987212519,544.1008791424103L957.1278767716826,553.1781532895333L957.1287379141291,553.1916778003126L957.4956594770564,558.7952320994672L957.7419162498846,562.616398647292L957.8964088112409,565.1118454269483L958.1239491300169,568.4549993861398L958.2986749291947,571.5066143692011L958.3000030308476,571.5295207838909L958.8432867426666,580.1812394493708L959.2562124302398,585.8588525743888L959.3623136965864,586.5034196550284L959.6312695817971,591.7580895336216L960.444365340629,603.8228617261279L960.9151432000742,611.1084544656708L960.9160229323232,611.1201716658766L960.9912587649719,612.1812261795206L961.138531467218,614.2571324089578L962.316176186747,632.3988978031642L962.4511575335298,635.2135940630303L962.6238181824508,637.2240430144319L963.2957973093803,648.5507632277248L964.662362351117,668.2667445988877L964.6833680259422,668.5973034364999L965.3922538755118,678.3761760611358L965.8881436254576,685.7378895052607L966.1207066381598,689.2045646620534L966.3177630006953,691.6884675305519L966.6937288446295,696.4962439477765L966.9492074860635,700.1346416873946L967.1225517700252,702.6028438012229L967.6314928606832,709.9156989357963L967.7747726064022,712.402259568138L967.9104867041088,714.2858594205238L968.0203770476396,716.006692126946L968.4093470415844,722.1438032221944L968.9117688658604,730.5577402264737L969.0926888530131,733.3896335280069L969.141127209815,734.3900141699876L969.4877749123106,739.313226532467L969.8817322091747,745.4859977452345L970.2630149715144,751.3320196426749L970.2757905702897,751.3506962477916L970.5440534426912,755.5455528162535L970.780614009132,759.0422771944875L970.9426123037913,761.4357396478289L971.1075103082803,765.1912216460851L971.1251914715083,765.2250383650581L971.6142246590941,772.511801409948L971.763336724732,774.5120614355662L972.1519382333024,781.1915074391104L973.4125138589875,800.8926838652669L973.5765720476141,803.7255671731923L973.5823780095324,803.7251939746925L973.7626468492385,805.9324926273283L973.7981824603794,806.852333413563L974.5853402379063,818.9609244228088L974.6159552722208,819.0757091377393L974.6168734320224,819.453318265359L974.6279174088004,819.6862931616027L974.693747281998,820.7140219617937L975,826.0838899715338L973.3389093342539,826.186127112944L955.7572377249755,827.2097419809646L952.49868279683,827.3867986838146L945.3836095112671,827.7073094085649L932.5798662236534,828.4482664467944L932.568477228278,828.4371885019332L886.111657002916,830.9141223348424L880.136496975483,830.791813492431L877.7035823744878,830.5201497302072L875.1744579886554,830.781256600782L871.3463692603343,830.8424950381127L870.2752844723207,830.7662715059014L866.5749336803191,831.1524676250579L847.92653922707,832.2328648002726L847.0865971012141,832.2686362968046L846.9284812520536,832.2840603196264L844.8520360495079,832.1124844942044L833.4752631371323,832.6229484041138L824.0083317043818,833.0344039985629L745.7164805429328,836.4307012245132L745.5647923661854,836.4314946834165L708.46435387799,837.8784332868789L675.5353021934159,839.006046151217L663.5546679105516,839.4698408691426L639.0621882159131,839.9328754456783L624.7657369019172,840.0847444878153L624.633711392245,840.2192529297223L621.9892369943852,840.3010619306765L610.1776079251296,840.4753753420389L610.1654310183302,840.4692668068467L573.721037760273,840.96189839012L569.8287155840698,841.090872190034L557.3917091428689,840.7397975609495L552.7427583854992,840.7898513356809L543.840222478902,840.8774840881651L539.6738809596925,840.8271742656151L516.8619176099361,840.8733300795202L513.7188453545431,840.8566018023141L513.0676687903698,840.8539196796402L510.63366538664474,840.8624222001042L504.706614931126,840.8853381612269L504.2111885580448,840.9057345383443L501.30058875204554,840.8903827259188L488.5991491573543,840.9160245492135L483.54162263177216,840.8737544691269L476.5151943374754,840.8596018227855L476.2437817984725,840.8592672640816L438.5409975480991,840.7180557219191L438.3627304674168,840.7167581377473L437.11870342696204,840.7189774776716L410.66409117641257,840.6567600017922L404.38710846817906,840.5543921909318L404.25546441537864,840.5489615046914L398.1989198365821,840.5363244043886L391.4306057650446,840.382919478944L373.3545321741682,840.1637534322739L370.0542508562686,840.1189092441801L354.2270477049052,839.9617051440994L354.23178650918203,839.9555070346714L352.6675730245056,839.8955999329969L352.6565301957959,839.8977614794755L348.2299347820145,839.7947682013203L346.2907841738005,839.7753276440399L336.11227251942034,839.670419905968L319.93135564834995,839.3018491666844L318.9458394700472,837.9664137173147L245.1829334509861,835.8234954088744L245.18266212946978,835.823486089875L236.9317039639979,835.5354891237221L166.5588770140231,832.7055423394868L132.8293380619869,831.2789296828514L132.6608283205798,831.1776767784017L127.58427132774983,830.9252752297191L127.54141073794187,830.9290760786364L123.19510683232028,830.7128817189341L123.16036730046898,830.7092431158162L115.23338266427055,830.3104705466441L82.64228234281364,828.581520647148L82.55863976109191,828.5703390988338L37.29711228987719,825.944999257328L36.69261712237625,825.9059973740208L25,825.1357696747527L25.8087566186627,812.6516699475296L25.84421306035074,812.327466973049L25.980612200571898,810.3342729651761L26.06133522538579,808.6653305710777L26.206822692619653,806.4307904515288L26.22986167960829,806.0081199130225L26.237361097395308,805.9905739616925L26.83222769479562,794.9414469311077L27.10094901226006,790.7863889664229L27.26489541325907,789.2655096472699L27.669376713971815,782.7502638194958L27.615076150504535,782.6377479048558L28.999709876198267,761.5097358282035L30.500008774990647,743.0040840037236L30.708713298461703,740.4282458941894L31.202964335584113,735.2658529097007L31.2104400571788,735.2539663286038L32.00974533394805,722.8696669450221L32.111632414273856,720.592895677413L32.183277561341754,719.5595927112296L32.614273995722044,712.4351471180357L33.17145786829576,704.8355354572385L33.18888680026805,704.5038982185433L33.49592319379974,699.954232087674L33.539524812625416,698.3039308511587L34.1625594921415,689.875331243335L34.50704162760758,683.8637006663355L34.57795779615668,682.8169748619817L34.89163313840038,677.647172504204L35.006873596600485,676.2395217922985L35.365245213492415,671.8627860024236L35.81003824764957,660.5834021731763L36.09430212392061,656.7551872260606L36.11808082808483,656.3801749832944L37.891813965599226,630.5919276275666L38.02630435685205,628.6360268304618L37.18686077557152,615.0802853482892L36.80209521165267,609.9139941585895L39.21678546263678,572.3517597861603L40.23892505831702,555.7525929468347L41.61614512809206,535.6372436045397L42.69969155339214,523.0543022521307L43.95900072775305,509.82904276018616L44.3028488151005,504.92960817180955L44.330987936812676,504.7859367797121L44.79792266699553,498.59982055249935L44.79463596777242,498.5309171491891L45.50979044148943,489.03409029895425L46.96165782340762,468.07169741138034L49.59244064878857,428.1396148258314L50.8923070763131,406.4249018413894L52.64049638540217,379.48293557549823L54.937208034972514,344.0447165488207L56.82235127877658,313.70302349483313L56.83683329720196,313.59407176783304L58.08052688780077,293.640526547515L58.07830340522537,293.6177422287609L58.513311378793674,286.7354588217122L60.81578769808203,250.28544600134956L61.41980570412602,241.9609013574227L61.42226644038641,241.1581933916989L61.92806397013453,234.6085691044945L61.91794770971046,234.53263471639082L62.985712115152126,221.60896013914135L63.314901018610726,215.97150028688947L63.392345492748234,214.49485897934625L63.83941004704144,205.9729210630705L65.06686180258595,187.71254926803266L66.66176270760792,159.14153598717957L87.1296257030346,160.49011333492922L118.35787904465514,162.2784456327111L131.2454863142429,163.0691769427193L134.46061994203927,163.1575741768139L165.3295688017314,164.72320540557394L173.9052783077925,165.0777197271807L190.55159939835647,165.58005226758775L206.37593873950186,166.2756670876625L242.54832965474645,167.70417333962945L274.4559676557167,168.66366209972483L280.5909404664452,168.878490964075L290.0566409914374,169.19914214133252L319.79527408662216,169.93309341349675L337.4476734807196,170.49832350596876L387.3808314511642,171.58962495410776L389.1481751885695,171.63105504025765L389.4127813914227,171.6652691938216L390.21250243081477,171.68502514730494L395.0452265033259,171.85424437685901L395.7246981110098,171.86973749057802L403.78071615245614,172.31733457444886L416.58766191666655,172.71064152482126Z"></path></svg>
