<svg id="CO" width="1000" height="1000"><path class="state" d="M40.238562660099944,555.7513972925516L41.615750364185146,535.6364959442485L42.699271599509814,523.0538347984393L43.95855161714701,509.82886979619326L44.30239163623338,504.92954431210967L44.33053011916553,504.78587611786594L44.79745393231889,498.59989764283387L44.79416730055328,498.5309957745591L45.509305052794275,489.0343803947935L45.733772287396846,485.79488339553166L45.76676803558627,485.3186471896549L46.851190520137436,469.6606667793171L46.96113835069616,468.07245427795004L49.5918592657618,428.1412607985722L50.53748199989769,412.34530142669666L50.89169494483366,406.42703127178754L52.63980892790511,379.4857020441152L54.93650067734484,344.0482346278669L56.82159944910836,313.70721693200227L56.83608113615111,313.5982676293578L58.0011827675317,294.90596432728785L58.07974539708181,293.6451665120029L58.077521962129765,293.6223827006395L58.51255554202817,286.7402522789824L60.814941759146905,250.29105082578627L61.41894563815089,241.96669142345195L61.42140625384417,241.16400132430374L61.92719198889421,234.61452277651966L61.917075947413935,234.53859007936728L61.918146664492724,234.52563742230495L62.98481552912591,221.61520306065853L63.313996644661245,215.97786865280278L63.39145261354645,214.50129170531102L63.8384931818083,205.97951191676174L65.06591612806824,187.7195464124418L66.66077920964688,159.14916881792544L87.12818684131042,160.4977145005251L118.35574539572218,162.28600452696185L131.2430659347275,163.0767172367183L134.45812802180455,163.16511225485323L135.92879811880766,163.24284771465665L159.20573742428792,164.43129299235454L165.32639006036823,164.73070628656836L173.90190875312703,165.08521207486427L190.54785944058727,165.5875321993409L206.37184668331292,166.28313037926716L234.41928228074647,167.40731841376828L242.54343272901042,167.7116022480452L274.4503607273675,168.67106743555007L280.5852105592978,168.8858567517243L282.42103800042867,168.94906907103734L290.05068692237626,169.2065344981035L305.51488900312347,169.60420462717263L319.7886582610261,169.94046745345315L337.4406648529039,170.50568381591336L387.3727116669215,171.5969578263025L389.1400160758127,171.63838688175207L389.4046163921315,171.67260025764767L390.2043196354704,171.6923557223572L395.03693616919145,171.86157089010516L395.7163926566126,171.87706361754448L403.77223144353,172.32465025066244L416.5788922201063,172.71794767795188L419.9198018002117,172.77806723139872L435.9173028473,173.04350965509735L471.85733973018915,173.29698006392613L476.8216973673326,173.31727306343362L477.516368688867,173.31558069422647L516.1120973794418,173.18586289117195L532.878688368738,173.06223013289105L532.913068327606,173.06202349375525L535.4275504415073,173.04644575969525L535.6437016889209,173.0422006852712L574.1534507378489,172.75315728932202L585.0475316715805,172.63237530683784L588.2314474528832,172.39186991942933L595.2134504317447,172.1967276868246L607.2078967681013,171.84497335282737L616.5937073179027,171.63131398120743L616.6620395076761,171.62971160018708L629.3177109685249,171.3212559525183L629.3290322956605,171.32481181750325L632.9630643703058,171.30980803714624L644.8822143695652,171.05721513173728L664.2364017832458,170.603153993288L664.2986811553716,170.61625129447873L664.634575342191,170.6044426771776L675.4982744860471,170.32987174684973L677.8466796733222,170.2831100252319L680.1360373637086,170.22021468357883L682.4980207644446,170.16757881039007L684.193313226192,170.13842238226488L685.9246979811335,170.07607657041916L687.8826878562179,169.95973892579678L688.5216781815091,169.98649766874962L689.4193997764983,169.96187219729308L694.1554630730175,169.83002078417775L694.3127294626911,169.84049269414572L696.5183512590197,169.76599777133663L701.2998946099714,169.6557327500521L702.3531301035623,169.6309987773688L703.6017558938418,169.53463822942786L705.856421972645,169.4801232952513L708.268593897017,169.40616922535014L720.0209672851157,168.98629504086114L721.6076138599655,168.92807242888375L741.1121964553064,168.32084428867535L743.3549174740662,168.24748232892404L743.4473479237015,168.24434794704564L748.2523020902388,168.07970011000162L752.8787593572042,167.91800064857256L754.2052886650348,167.8233609272184L762.201143465564,167.50794245420485L762.207557966029,167.5139277991791L765.284328429881,167.29938153538632L767.0775795335846,167.28340975110802L769.2023001527409,167.26388208870958L769.4907820362878,167.25291315481542L776.4989499975111,166.95995314421555L804.7138675011213,165.70827021610745L804.8708016128176,165.70869525488723L806.9693283824176,165.59650614107545L807.1595264426555,165.58801545478389L808.9571838722768,165.51144148054868L809.5432737538895,165.50034160981483L814.0712840590243,165.25654753988925L814.3095369860055,165.25976739878905L816.4616944969322,165.20093729796162L816.6110936708512,165.20144160856535L818.8104795829296,165.08771928258665L818.9529922077617,165.09980718886817L819.1773562984517,165.09153173767197L819.3107033514887,165.07943926726392L821.1360683689757,164.96035087621135L821.3505232667699,164.99166083872655L823.5149125901703,164.85264992154447L823.7060246744768,164.86628964543155L825.8638046996248,164.74242931830304L826.0707954357022,164.7434257337049L826.0805647292689,164.74347260770043L828.2280794956116,164.64608803868896L828.4335541169529,164.643987911926L828.4528118095934,164.6429941537449L830.6464575096086,164.52944188831356L830.8996481562365,164.54924614177156L832.9372003975091,164.39959220658233L833.2842859319405,164.39016340557936L835.2779417145605,164.27769409040576L835.6528711274921,164.293521014134L839.9070107594205,164.05610327217403L842.2853686833353,163.9222219501455L843.1289270931238,163.90298944851264L844.6229184569527,163.81419335352564L846.4751133924758,163.74262877919574L846.9590892032611,163.71747152432795L857.1115767936576,163.1818838864998L861.1127906649192,162.9295086167902L866.3417098553161,162.70318097200163L866.7070511689916,162.68748472778333L866.7375171009244,162.6970145300162L867.9037886212864,162.6347290281176L869.0465505147506,162.5703903909727L873.8745828257272,162.28856588739762L877.5409774410402,162.07228087337262L879.6913974307969,161.96423489569884L879.8531995229785,161.9484105470696L890.839082950996,161.35291057986228L890.9163703265741,161.34865891354696L892.8337616709873,161.2602406140403L895.2023794935827,161.1230780207215L901.623941049681,160.74710563102724L901.6497586212167,160.74182425430445L901.6584928015463,160.74508771652933L901.8064481992255,160.73644475997816L904.1819762164946,160.59100471922073L904.6851495018416,160.53982758964344L904.7097678446424,160.53732273277456L905.6937031734906,160.48138944018217L908.1198886412872,160.34286684726197L909.1377338364176,160.2844979243643L911.5709718086418,160.11715094948795L911.921458527018,160.09944715999507L911.9556458734573,160.09768963509396L914.162137425518,159.98389721976798L922.3342695836479,159.48488127996507L929.0413646942441,159.05572121379817L931.3709424138709,158.91747879382604L931.3837156906757,158.9167186193182L931.8288901861964,165.90427957768856L933.800916533648,196.8369009464165L933.9542655135629,199.24086789623743L934.0204903958013,200.27897530151415L934.0205431307214,200.2798359839972L934.543137364302,208.80805943669827L935.0568791345731,217.18989002264055L936.1490063272038,235.00186468923533L936.3578780127317,237.91266474661887L937.1919114611281,251.06202286071175L937.594407579116,258.20340381113914L937.5958918170636,258.22973739118095L937.6637237550519,258.77250443854666L937.9769107402269,264.1994403564887L938.1198929871252,265.98180667685773L938.2626178550336,267.76072349358105L938.9595150636023,279.6901636036621L939.252944579823,284.7123462032189L939.3202166519407,285.7242807782362L940.008150707596,296.6736901607395L940.1451056331184,299.03156226302735L941.0341186350495,312.8382985850741L941.6866994331964,322.9686570596152L941.9483077301724,327.0593145177867L943.2022890856517,346.659016489623L943.3045431137728,348.2566411849655L943.396678279872,349.30081479880437L943.50830087478,350.9781195476919L943.6657205004599,353.34228190581064L944.5163455583996,366.0933140509789L945.2466255609808,377.03470903296943L945.5373503076646,380.6330350296836L945.5773988947378,381.9198160829127L946.1989894800844,390.8033841712321L946.4091415748275,393.82638460252554L946.4760628654324,394.7989624767181L946.8091524501531,399.63911830509335L946.8174327883131,400.01111762267277L947.1363158377069,405.0630590535668L948.0447832253883,418.7868712558008L948.098414817172,419.6359775782447L948.27778420493,422.0565399721634L948.3863338839205,423.63655969425844L948.6180879392048,427.00950397205315L949.425256167047,438.7111401827601L950.3738186877516,452.4575426552391L951.3285596398487,466.2841201931275L951.3773141539573,466.92727202832475L951.4206862000257,467.49939774437144L952.0386670040841,476.4846036706357L952.3656227095985,481.2368385245012L954.9907109294334,520.1250040856627L955.1453831365895,522.4461212475667L955.300326539782,525.1158370943806L955.4523288843465,527.3473708433797L955.6174442908972,529.7703818946759L955.6186151217097,529.9693759669301L956.2423839890469,539.4373001879491L956.3453764934645,540.9404467213535L956.3685883427855,541.2455486536691L956.4864760382563,543.1654258372296L956.4969532693885,543.210834956196L956.5572098762843,544.0998923765318L957.1070874272785,553.1769642775528L957.1079679125532,553.190413230032L957.4748620888304,558.7939179329161L957.7211134772401,562.61499934001L957.875602663184,565.1103905174372L958.1031380016357,568.4534699850731L958.2778599893563,571.5050169728689L958.27918806203,571.5279228771599L958.8224599000534,580.1794487629289L959.2353765386374,585.8569353739381L959.341475458102,586.5014880900073L959.6104254906478,591.7560408800356L960.423503453467,603.8205442243542L960.8942710166696,611.1059746098216L960.8951010528136,611.1176750072129L960.9703797755024,612.178792803929L961.1176543898368,614.2545823855792L961.927524231774,626.7320336893277L962.2952733494164,632.3959434857992L962.4302517629926,635.2105770188523L962.6029086176609,637.2209811641434L963.2748730702577,648.5474489463732L963.453184414179,651.1210869828275L964.6414081795817,668.2629908963081L964.662413395019,668.5935423664174L964.8100914153985,670.6311572909399L965.3712837046553,678.3721970337735L965.8671625972522,685.7337463927547L966.0997205183132,689.200344279722L966.2967725545345,691.6841917824563L966.6727301459252,696.4918610342286L966.928211741051,700.1302399440209L967.1015436747643,702.598324770624L967.610473614669,709.9110168975925L967.7537502323822,712.3975221031396L967.8894613547891,714.2810799680842L967.9993492942992,716.0018743154972L968.3883107799934,722.1388486072333L968.8907216268736,730.5525980518321L969.0716376558055,733.3844282247716L969.1200749592244,734.3847865665443L969.4667150642674,739.3078891783892L969.8606637417822,745.4805227836886L970.2419381584868,751.3264143553564L970.2547134729651,751.345090543809L970.5229704755601,755.5398535948672L970.7595533188307,759.0364251892889L970.9215206066913,761.4299091120206L971.0864150338273,765.1853073876631L971.1040958037872,765.2191233523213L971.593118280769,772.5057239432399L971.7422270747353,774.5059393733037L972.1308200952974,781.185236460467L973.3913681337947,800.8859736351958L973.5388003879159,803.4317720473649L973.5554227389352,803.7187937804752L973.561228571401,803.718420590146L973.7414934497929,805.9256700266072L973.7770282927339,806.8454903040788L974.5641688369074,818.9538113270323L974.5947831916359,819.0685934819454L974.5957013408351,819.4461941904503L974.6067450774676,819.6791638920406L974.6725735097909,820.7068697764325L975,826.0866630360063L973.3177659128323,826.1788529567608L962.2156012822728,826.8301058563302L955.7364863359336,827.2024454728096L952.478004066189,827.3794983173365L946.5280324299013,827.6479944240593L945.3630894289927,827.7000020933572L944.0813045615487,827.775181029415L936.6422358885895,828.2070956177165L932.8249349601448,828.4258153470809L932.5596316380859,828.4409429743102L932.5482428963237,828.4298652767732L886.092458561579,830.9067452874392L880.1174317544264,830.7844393624687L870.5564560955097,830.9238670784636L867.8359860840919,831.0642756431776L866.5630654072597,831.1309440501188L861.6933115131651,831.3839672660968L860.4979221468952,831.4579593466734L847.9081922178759,832.2254596049158L847.0682688208889,832.2612303325099L846.9101564976622,832.2766540168227L844.8337575864003,832.1050820879125L833.4572291987658,832.6155581143362L823.990518012034,833.0269817644037L789.7931351892425,834.6125275831268L787.415981690575,834.7168568361747L781.0899868333817,834.9907674909722L745.7004126056099,836.4232062404628L745.548727810999,836.4239996878076L708.4491165905657,837.870907573652L680.3396372079895,838.8426401040384L678.0004305154177,838.9186896553391L675.5207991563301,838.9984967385865L663.540432020125,839.4622816571009L659.802518676422,839.5381871756921L650.6238189895398,839.7165708540714L645.9406433347924,839.8032017552335L644.3669086782819,839.8316482056844L644.3172194814135,839.8325409279278L639.0569163418631,839.9251618214903L639.0484984423157,839.9253070446514L624.7523658954117,840.0771733804748L624.6203433358935,840.2116788296573L623.8234780075704,840.2364300731753L621.9759279043125,840.2934861337362L613.7273315153002,840.4172018808487L610.1645622006378,840.4677962318685L610.1523855650411,840.4616878334731L606.9219727583816,840.5125992874746L573.7088049104357,840.9543102567291L569.8165695255495,841.0832813806818L557.3798403661177,840.7322152236769L555.2554624016476,840.7554385018643L552.7309562064502,840.7822435114786L543.8286558577786,840.8698993941116L539.6624072299485,840.819590914826L516.8509525047655,840.8657469318348L516.8405934669264,840.8656939895941L513.7079503272206,840.8490191999283L513.056788281701,840.8463371728355L510.62283914760644,840.8548396376916L504.6959208443461,840.8777554156381L504.20050551854416,840.898151365486L502.86477713687003,840.8912482153654L501.28997060712527,840.8828000571937L499.37328051647006,840.8880650112851L488.5888142080403,840.9084420212358L483.5314004437289,840.8661731701038L476.50512881123996,840.8520212399737L476.23467164733313,840.8517015224132L476.2337665235265,840.8517004358594L438.53177869185043,840.7104805136787L438.35351558575235,840.7091829690664L437.10951628238604,840.7114023337223L424.45682929057074,840.6934341162425L410.65549386209136,840.6491878461019L404.3786510994039,840.5468227039261L404.24700998140787,840.5413921468867L398.1906004386796,840.5287557034378L391.42243726393986,840.3753546202012L382.06198315351526,840.2673420839474L373.3536589988345,840.1562306577756L373.3467602076043,840.1561385749446L370.1585375670305,840.1128953883282L370.046558944914,840.1113516229512L354.2197086654008,839.9541520466206L354.2244473636197,839.9479540750758L352.6602687505873,839.8880484106148L352.6492261682276,839.890209909622L348.2227294425804,839.7872192159357L346.2836220681462,839.7677792187135L336.1053373454851,839.6628744880691L331.85843303399207,839.5695618320904L319.9247812166109,839.2943130422505L318.93928692161876,837.9589074334551L316.43209098807006,837.8981434238347L308.25571103701486,837.6940796698616L304.2532215112483,837.5908928644715L275.5231764598915,836.7866604516852L267.69323335160834,836.5481305238408L257.0004219116952,836.2089975161172L246.51345804743525,835.8613763628329L245.1780253393898,835.8160420178215L245.17775401909032,835.8160327012274L242.25910191128594,835.7152359827065L237.35224621472997,835.5431792496661L236.92697726865515,835.5281140322735L233.41180358456984,835.4026517122445L220.81322490733692,834.939257308901L205.64176945503658,834.35272948838L198.25578921893344,834.055915845109L196.39418299592512,833.9799403256201L184.77471236507682,833.4951285795097L184.71762293148083,833.4927014623971L184.38742680516282,833.478654751473L166.55572161428108,832.6981642888122L162.3037387125271,832.5268060786623L160.21641680617114,832.4417900435253L141.30387721776253,831.644610746986L132.82693455149627,831.2715860550923L132.6584285590381,831.1703354213214L127.5819847276424,830.9179398998947L127.5391250937065,830.9217406674541L123.19291807128661,830.7055514715125L123.15817931366013,830.7019129522691L115.23137728820438,830.3031595571384L93.92673615644986,829.1892447818766L82.64099752560492,828.5742411816191L82.5573568077512,828.5630598894295L79.07554901052771,828.3709667486986L37.29683820238273,825.9377823420787L36.69235650843683,825.8987813794098L30.45882689626262,825.4904716030439L30.389096619922782,825.4858742693077L25,825.128571845205L25.20895552112512,821.9036389737472L25.80873752367239,812.6447503687L25.84419314727603,812.3205546188254L25.98058907680445,810.3274050345303L26.061310159802133,808.6584998398719L26.206794193244377,806.4240095230424L26.229832630608882,806.0013484052301L26.237331879715498,805.9838028444174L26.83218427481006,794.9349220790359L27.100899248135477,790.7799567173536L27.264841864975324,789.2591112879059L27.570083659861893,784.3424873575009L27.66931359468606,782.7440106628878L27.615014232098588,782.6314972610335L28.466566295088114,769.6397535746055L28.830645139342778,764.0831824922726L28.999615296896764,761.5039560318166L30.49990379043345,742.9987924500474L30.708578836824756,740.4229358532914L31.20281842000037,735.2606578910079L31.210293973963076,735.2487715742157L32.00958038638953,722.8647481486773L32.11146500308479,720.588027616915L32.18310846585598,719.5547476747217L32.614094691363675,712.4304608314985L33.17126550303402,704.8310184968435L33.188694018523506,704.4993886478284L33.49572318453028,699.9498238880334L33.53932369211469,698.2995594272803L34.162343774277474,689.8711476082133L34.506817724937775,683.8596509757879L34.57773222469325,682.8129484922856L34.8914001401111,677.6432613188067L35.0066742683868,676.2356086116824L35.365001172610846,671.8590036820733L35.809783343422566,660.5798711703612L36.09404056240618,656.7517415072098L36.11781870507724,656.3767376191627L37.89155851268555,630.5890534912204L38.02599737662467,628.6332075283635L37.186571359065795,615.0777681619563L36.801813933385404,609.9115921154436L39.21644722835185,572.3501944193065Z"></path></svg>