<svg width="1000" height="1000"><path class="state" d="M965.1388687023009,179.8338514606757L966.5810808571991,226.95529131820317L966.7887867629496,231.39027612518004L969.4480103406274,288.12770712386055L969.4587255178956,288.75108593854975L970.4757878549162,309.1784408881924L970.5036524710155,310.26237608989527L971.7407911701293,334.10886984856086L972.9229355079165,363.69327273928144L972.9277001858693,363.80047902156724L975,408.36976938448555L974.8687116942424,418.83191577634597L974.5170796082732,446.82989106852983L974.51627261097,446.8676628457811L972.4781451316551,564.2725742259292L962.3236408386193,562.560464673886L952.0114808360395,567.6090535410788L950.6108675831769,569.1083401072923L950.2092361447355,571.7396989425964L950.9765786625973,578.5560186123602L955.3427285315295,585.5512426689597L956.3850493016868,594.4217128193092L953.4663259398408,599.2778072540145L954.4441046985607,605.521061220727L957.6577360329126,611.5953993796439L953.1578077509005,618.5226053010348L942.7697741229138,627.6931283029994L943.2113283664454,626.2815621420079L938.8749939105774,620.7767695333275L929.9683686514477,617.3477320819402L915.114037237835,620.3105040669078L912.4550600614922,618.8486358397657L911.8663448244292,618.4691156986457L905.4699511169147,616.7062030229052L900.8826777429506,616.8772332822607L895.5215273121294,622.1275516001592L888.6092242747352,625.7131451184634L884.3988996524063,622.207823246781L883.0541709805311,622.3085883163659L880.2173173468507,628.4062502035324L863.7121880381333,631.0666657600885L833.0151987941134,629.6240668253031L828.1776933236154,633.2510016816976L825.5963721780705,637.9581449286013L819.7721789604072,643.1815154222256L808.7861359394194,643.108293974502L795.2971266768042,636.161584056786L789.1981532564521,631.4373925533539L787.3522819906818,628.2583784361801L784.1571072957391,627.3117208654792L780.7810141996272,627.8674353201084L775.7320251257563,632.8115603726035L774.9635930545096,634.4506242836384L774.5623274726148,643.6575187464465L770.2452443981867,648.7460281845662L764.1409153539751,643.7887954034484L759.1043476035635,642.9433666013691L752.9168418535893,643.6025948040149L751.0908834089561,644.1852569095987L751.7918918439822,646.9428408968674L751.4208206955404,649.8111406864906L746.4755240645887,654.470158006756L718.8965304780404,658.0512133548899L714.0681266457266,657.6446352594688L710.9567085462011,654.7583500085188L707.2582641612464,656.6167982026718L703.7465615429298,658.3807653699372L704.0640658880798,663.4370777589862L685.1742159309831,668.7206843515296L679.1907630479132,658.067016887337L675.6368892177812,657.9407783912927L653.0697053341504,657.7470224958017L642.9832932279942,663.529821947883L636.526202969837,663.0514089726789L629.74811798979,666.3550497104716L626.278999060534,670.1348797199221L620.3733257450701,669.404727248078L619.0608993084121,666.5714289245275L615.0865147281303,667.3560099583561L613.2103629514942,668.4930099518931L611.5078919033971,672.7321721536107L611.0035611345874,673.100258966825L606.5682646753119,676.3333345921284L606.3713771003996,676.4769976992559L594.8408241974355,665.2524215911562L594.6336391250845,665.0506166984834L594.6041121562964,665.0219736849563L588.6108573988166,662.6880932084156L587.7061641328431,662.9366097447407L587.3369252738545,663.0374634346614L586.9740594125892,663.1369898732598L586.3601243004993,663.3057091872261L585.4323403493041,663.5600854074472L584.8688935077843,663.7142799052542L581.4022574815383,664.6648697259154L576.5773965345703,663.5731485964693L575.4123604112352,663.3092992017848L571.9753211697923,662.5310435970275L571.8360402298006,662.56919163459L571.6094634841108,662.6316708313677L565.0471056371251,664.4414283827355L560.3194975334536,665.7446820594251L560.0560754231784,665.8169171529477L559.4314590210568,665.8923224747809L555.5619968011436,666.3589821603695L554.0207490557417,666.5445659627223L553.9750777863379,666.5224280669225L553.5900659136779,666.3349017434144L549.913088484252,664.5472953020317L549.601294793572,664.3955386949729L547.4732310749459,665.0541210930054L545.2670558374499,665.7361227992087L544.9403143373135,665.8369998475962L543.96954743994,666.8023085419769L538.7615013221493,671.9800868531648L538.5308105579536,675.2386452865417L538.470091415574,676.094123337926L536.5536058956252,678.4907689120378L536.1655573231228,678.9755798551641L536.0664581659718,679.099722265833L534.5929525266431,679.8869190742532L533.9533592492927,680.2288428264079L533.59688547653,680.2434163527512L530.4858263152062,680.3730125793859L528.3106202116268,680.463381544113L527.8313854192272,680.4831476265152L527.1213703885022,680.5127776320173L526.9716091706077,680.5193569098137L526.8586743200915,680.5239644864887L526.1702619709108,680.5522560750395L526.0592270318455,680.33547715769L524.6576890681838,677.5963753518497L525.868059585224,676.2828525704126L525.2528600007455,674.2267293767718L520.3538192667985,670.9816149078064L515.2613909175108,673.8617580096109L504.64676477365754,665.9015614187957L503.15829880194,665.9007483249918L489.08922647968956,667.2711639121402L473.0781906079759,675.4446302179308L472.7684879115523,674.2576078768395L469.0845217294289,672.4918865231944L458.83291994597414,672.5132993688703L457.631989072808,673.2588887412797L455.7324747846052,678.3505198905093L452.1496895197999,679.937185858906L442.27472023128473,681.6739423789425L435.4022932617811,680.9349806719092L432.77589575755144,679.5114843967251L431.0398250785794,678.5700255845397L430.60009364744906,677.9155452307285L431.6898477079849,674.9805710256469L431.806403449154,674.9176107161443L435.7714338045115,672.7734321516342L435.77892513294563,672.7323178698066L436.2207111309068,670.3588500427933L434.9896599808999,667.70928255096L431.695554765733,660.6180402365901L429.3412009479273,655.5474505064253L429.2252871068934,655.2970319902555L424.99115879642216,655.8693433271042L424.88784435202587,655.9525405575159L423.39954035367697,657.1543316403345L423.08725216384255,662.6907683072424L423.0579102044069,663.2090559096387L422.98871584358676,664.438210470001L417.5513263395894,669.4834969180758L416.7705845064355,670.2085603844814L415.6996486984672,671.2015082551193L405.2102807255574,674.8005260007911L403.90788287850387,675.2468168065261L403.0661415098622,675.535718713445L402.72098489205376,675.6537169164109L392.0152495793209,686.2059927449834L391.35202492266524,686.8598566394612L390.7835247156469,687.4194633776076L385.0011026867198,694.4450862261313L382.18038269144347,699.2710389451051L380.2423114582025,702.5860517373974L377.31812686468936,705.6528386705315L377.0596276366625,705.9238872717272L376.5851235433946,706.421129482037L374.02809668702196,706.538014554275L374.01974668168685,706.4465072773344L374.00672673189575,706.3098971871842L373.99978745662827,706.2301572105746L373.97936193570484,706.0092321954412L373.8888192782012,705.0346840496798L372.85957652963555,704.5064377235882L371.7624921926117,704.3449229450121L361.5392419650424,702.8342872407403L359.0605748040357,702.4674224584928L356.9420287999503,703.5841313353297L354.7710391500216,704.7278052185063L345.7478396456139,712.1976089604259L344.8383200615262,712.9502344632947L339.00839978830896,719.3552904363639L338.62195335878164,719.7793665854998L338.5491219818285,719.8592455658666L332.51244217867657,726.4875855011876L331.93989332839396,727.1155052990426L331.93493319997515,727.1213519896048L330.6922187833493,729.3711332012498L329.4868230367816,735.2713183118146L329.67111162376034,737.037302647808L330.4432743206687,739.1859325610537L329.1009853704487,741.0856355092807L319.6317767526,743.6311055803335L302.90205943415,735.8089644496004L300.1059826495956,734.5005595187354L299.8211997295068,731.6140547918346L296.35107024833985,730.4402866009532L284.0609266538048,735.9560933619007L271.3512482516977,745.9685384658013L268.03085409638817,745.0262473777653L261.5702035612078,756.4703754694498L254.4215281944501,762.2193692777387L242.47377868916942,755.2984592166965L237.73152154324418,756.6871834780277L230.031765027875,762.7508104250569L220.72591105705993,766.7677485717271L200.16872563408685,770.4376502689365L190.24952624964982,780.9929166333388L186.29905152446025,781.8576241106721L179.52856953206594,790.3022963061394L168.8386174790076,800.9986950981463L161.29496529225526,800.6369245190717L152.4266525519705,804.2778478313281L147.78555667954902,814.2574868601371L140.0211206467153,806.1812107775723L128.29977187709414,812.1857041519547L128.27886347570808,818.2325569628873L125.26839789541498,824.8636413015302L122.17933493350444,826.7159033142698L121.09616269967381,823.0857557397537L121.64674450564041,818.6064686210634L120.3932248549147,816.6939137936074L119.1361748460053,816.511507510175L111.08686221721268,821.3528387112879L105.84033402273371,826.206204695454L102.96601997951899,830.0231967080637L101.6858233619347,836.0906402325404L94.81344848534536,836.4405523108421L94.41001670383724,830.1241101543264L89.17864337199029,826.4680015802185L85.09401848806675,827.0178035970903L65.43600608992136,835.1236490477115L61.55683596345693,839.6018328560267L58.40003791236006,846.1322655127736L57.27735931623846,844.3203174938149L57.78468255922115,840.6707848614028L57.556172704806784,836.7390243356778L59.525869720233175,831.4053511875999L60.0153056455959,828.7955575708781L59.68206466756618,828.0698328327262L56.16465099204453,822.9693219222627L52.42405628183758,816.6213605108817L47.87024472285327,808.884892871098L44.421478758157264,803.0001751871607L41.02004920900566,797.3132545834383L30.21293854292435,778.6042330623088L27.47621892328425,774.6294809407104L25.000000000000057,769.940074320333L68.85674641476425,744.0399002666308L72.59504183879858,741.8631481380083L81.42244506255088,736.7840461158637L105.98038380055328,722.6305801874361L130.95127468689913,707.8045114444085L133.49530302909073,706.2864722134555L146.76573545119504,698.6708413432032L129.65748319049965,669.7136735371571L114.05361044066268,644.2107830412288L115.17086370730658,636.2798107240731L114.93746538318527,630.8373399757686L115.334896097649,624.0781235809576L117.81039579766065,597.9653092326162L118.54913806248948,591.2920065501477L118.55533187618335,591.2059961211976L119.94159329432955,572.1561647954226L121.9239831693111,553.9868293742423L122.04306541712748,552.6944920149883L122.3381976234785,549.3062748593418L122.87872553468065,542.641044925509L122.9351475102738,541.5148465166578L123.00569129352198,540.0975094933767L123.02397739463379,539.7894689769596L123.08108929140315,538.8451828469372L123.94708913080319,526.6473976016439L124.00076861764319,526.3223478205143L124.00579639094593,525.9854944760409L124.07505929068515,525.237731797954L124.13026059075673,524.6468230251714L124.17928768413867,524.1750844674228L126.54330536869526,493.26157495144014L131.8282663338892,433.0598352325581L132.53058323935215,419.12793092954144L133.63827858268286,402.5288878153242L134.54201409591656,388.9811967110962L137.4068918689008,354.3242130238459L138.03998143852561,342.7570755795811L141.5324500942587,300.5538059554568L141.56819958548743,300.2217133155907L143.32053820831283,277.88264568688817L145.41223776912153,255.97148342060134L146.5460010735024,236.5968940471501L148.5922114470746,213.17089822759047L150.5920899337391,186.23384761299184L152.15106236384418,154.12845132861258L178.39115781584206,153.86773448722636L244.9757644049884,156.98476885766974L245.6123041801941,157.01994344358144L275.4645025754228,158.60773357818368L276.0696822509898,158.65743395704249L325.4093655802426,160.95669549746498L361.0381253816055,162.55879166872523L382.4643480955805,163.32792259378954L386.89136438885083,163.48476378871464L452.28331594317194,164.34324129809755L452.3382052723884,164.34402834022444L460.2707052604073,164.8912404709048L476.44951520958386,165.18152675729561L474.8667112364424,190.40224890397099L495.10478454510525,187.48764806701251L498.9692867387701,186.92918841398856L499.26066566801245,183.88145780067055L500.646431596684,182.55499784275412L500.66078335723034,180.5752465129607L501.6251296509892,179.40867274737298L502.3487506369606,177.85287661236714L501.5707400197722,177.082056492157L501.1108838762643,176.04947389343005L501.18822405111416,174.91351233734588L501.9556937394025,174.70716547473444L503.11475215085704,175.34395346944513L503.44426715091646,175.29097449637663L505.0974886755266,172.4078101746112L506.2067310001562,169.2961892923804L505.3404817354032,168.0639113539301L503.4146532292743,167.2848731443728L504.2343136857766,165.40518407431665L524.3155493407096,165.14059397063386L533.082422140529,165.02044263129005L558.5072678474735,167.84190284665266L575.4610669543608,168.84775350104235L575.9509254765644,172.60721154074122L583.9949980476068,172.7827872573497L587.8005544358168,172.77296487049642L592.1741322813464,169.22996345830438L613.883954402576,166.46647873957266L623.0040055957224,166.4821532243385L648.2911959238929,166.51009828644027L715.4908444465573,167.44626659148508L748.0573395549784,167.36270620883914L802.8708112128372,167.7192362019673L802.8842947718264,167.7190895094721L819.0384134622441,168.41108068601096L837.6708974270471,169.1965409153683L874.3566562316396,169.02570159617113L920.8752374589257,169.97996271350257L964.2891369571759,169.79385349164733Z"></path></svg>
