<svg id="CT" width="1000" height="1000"><path class="state" d="M501.21054453445174,680.1865391126437L502.0448072191738,676.1897712196693L502.4755025929782,672.6709599685911L503.7068104137124,671.6027134445415L504.53903096232716,671.3099620175487L507.9654385788178,671.3598084187718L511.5878328512498,670.9698060374061L511.6857980875155,671.850701475085L511.2146159298302,673.4269082342246L510.3147277195363,673.465840545152L509.0413751316834,674.5422437720392L508.9541942986193,675.3643588540834L506.8865589072336,676.9406244451166L504.0458614133353,678.4079614844607L503.3188733429538,678.8999661331343L502.07811449009057,680.3967094924499L501.7433904961293,680.9039390053275ZM204.0203614343758,778.58296167078L205.23163339663535,779.5370753388385L205.9226818611196,780.7205088172452L206.68200584881345,780.1185204272948L207.62525676598602,779.8469904846776L209.17966152444336,779.5831813638497L208.93036008003497,780.8026987572148L208.49104651239185,782.2077426980566L207.21020450017426,783.1804620003375L205.98951707792293,783.1354387195272L204.21445113035873,782.0641349879832L201.29319135007762,778.6441729211648ZM189.0872184559014,792.5089430034825L190.05590911600336,790.2633978444508L192.09713520738813,788.6890968424141L194.3190943153482,789.2229674127109L195.1918727220762,789.4326146601743L195.46243615855354,790.4236474758388L194.3337782185069,791.2386607601184L194.18129512253768,791.3487633154859L192.79382279378018,793.2596729050211L191.13154872986883,794.5568347638994L192.0934573910821,796.6849496439311L193.16471966547982,797.545241370294L192.9658960663383,798.4364761826961L192.44733974804853,798.5243493220942L190.2147770468307,796.4270288002463L188.5460696090002,794.4307649055359ZM177.782401499409,801.1640597198302L183.82439569527838,795.877220456751L186.27246526283068,795.7194236327866L186.58971279181452,796.6641180646648L185.6215780569558,798.8633068188369L185.35457296521287,801.4003871841L183.10141337106757,802.2593190048512L181.39737429922087,801.8210719529773L175.12470216796987,805.2976898518714ZM80.16437349665836,842.311167797792L81.09934177410634,841.5880326195156L81.98404367790761,841.0951476754767L82.67567094097387,841.106449465761L83.04598438317555,841.3671585926675L82.71006632494834,841.8448228336647L82.0081116220718,842.4336905717134L80.56473307556377,843.2401862998138ZM71.57532125629507,847.52161190427L72.14757929041457,845.6069595619435L73.54085845569483,846.0210837784232L74.98279498626101,844.9667715052003L75.49911390948864,845.0650395641131L75.8974113038073,846.4393399910527L75.43131006786689,846.7085546978578L75.03206007075431,846.6423457640651L74.27190890264632,847.2353269559005L73.4463638165584,846.7678526444325L72.93378354262853,847.0362506581379L72.36817177039484,847.5492774013054L71.8122710557297,847.8941919662047ZM64.23780343346743,837.3849952747744L64.88888921307506,836.3460366139211L64.99330645680357,835.9000463740698L65.64170125783517,836.2095665105599L66.848567318437,838.320274137667L67.39800432772182,838.730211293562L67.83834893120957,838.6957527684729L68.20841275273608,839.2538707041797L68.30052504560689,839.9447794470286L67.27725075732405,840.4950935045531L67.43631679926767,841.6676815071105L66.60691010589477,841.8539840984729L66.33017158499598,840.9497729244283L65.75621491490222,840.2938853417384L64.74810357992578,837.6522591778712ZM24.999999999999943,768.1830035479395L40.82410770487837,758.8506462440906L40.85254937232344,758.8338593636129L54.548968189802906,750.7444124673043L58.4942438546982,748.4121864331253L68.85662744163568,742.2821598050407L71.68910032089025,740.6328815977174L72.59491314464776,740.1053507711728L74.25416491525317,739.1509863240481L81.4222473396764,735.0262378683537L90.02729918892595,730.0706870565259L95.43876719373952,726.9520907487889L105.98017110582254,720.8722758252513L106.07069349840845,720.8185946347344L111.08881368895413,717.8420138885715L120.34614881501108,712.3469677029002L130.9509939282716,706.0458260815869L131.86943125446652,705.4978169876841L133.49501525504007,704.5277480121023L133.64397637755695,704.4423162231997L133.64581425359722,704.4412621613378L136.24130698577278,702.9524961585605L140.21148627721038,700.6744619798242L145.67436001148252,697.5384520748366L146.76541489847966,696.9119160070117L137.2443681009417,680.804991518604L130.11496398000543,668.731242024071L129.65672136315828,667.9548256115492L126.40825519226769,662.6497894370523L119.04216254597173,650.6123338127164L115.39848918025012,644.653854681975L114.05245719061497,642.4520097209894L114.61323441340727,638.4713407554362L115.10132373250133,635.0059191899767L115.16961681575941,634.5209861048061L114.93614952453112,629.0784926117565L115.33349783154858,622.3192393836206L115.55876544153801,619.9441893533736L117.5089163414604,599.3707207590764L117.8086836776983,596.2062708626233L118.37862661869542,591.0574158084099L118.43722333684218,590.5279718844615L118.54734625668613,589.5329274190136L118.5536102376314,589.4468712777634L119.15432503380089,581.1923564555807L119.19277154336919,580.6639394130535L119.90565845011992,570.8633032608213L119.93956959677507,570.3969777401247L121.9217424797099,552.2275314976671L122.04080919186583,550.9351865246445L122.15543578697566,549.6191167983244L122.25725146086023,548.4500573707319L122.33590058761303,547.5469496173921L122.87634803276222,540.8816813155679L122.87647762406982,540.879094058427L122.93275624731842,539.7554768571039L122.99676239516157,538.4691724785223L123.00328271016338,538.3381322254038L123.02156506096912,538.0300900185013L123.0786654664306,537.0857986929805L123.37160998695055,532.9597304339574L123.70286212694702,528.2930681709264L123.94451748930021,524.887944708333L123.99819318288354,524.5628927135442L124.00321678467418,524.2260377051925L124.07247070055558,523.4782706098315L124.12227670417343,522.9450455306852L124.12766490355375,522.8873583403557L124.17668635476758,522.415616929268L125.1169281481184,510.12425786533885L125.12367489749249,510.0360325067276L126.04437831906102,497.9924860064474L126.19521112774197,496.01875754637575L126.54033034789308,491.50193082821306L128.09167246710615,473.8477947422703L129.08434678783811,462.5425657091446L131.82456729507413,431.2998377620178L132.5267142423629,417.3678579810523L133.63440088052187,400.76873619892456L133.8132934108291,398.08665784324586L134.53777979255176,387.2209540803252L134.6522873307032,385.83674178858683L135.0055537144039,381.5656805336939L137.4022404455659,352.5637680496619L137.4117734343265,352.3895994398795L137.65024118070113,348.03229678215155L138.03518928478525,340.9965669913211L139.79667403176302,319.71924184009873L141.52715036884962,298.79305016120924L141.53601808855024,298.7106649921147L141.56289590725044,298.46095547085656L143.31496551938045,276.12175792638186L143.9252059793073,269.7311802091424L143.92561708722883,269.7268742416709L144.75009089030516,261.08925126641805L145.40640311335488,254.2104634280871L146.5159301085469,235.24619701374894L146.53993137046353,234.83576587510868L148.29259022844462,214.76943402785915L148.58586091100472,211.4096306896963L150.58541486893182,184.47242395948916L151.5280891068366,165.05986682023263L152.14399662542894,152.36685149267896L176.49133733070977,152.12552057504456L178.38421715517535,152.1058080337952L181.57755590380646,152.25914364729374L222.73043178454583,154.20016878806047L228.94093732250576,154.48744981066068L229.95341821044036,154.5341440797951L244.08132852021515,155.1816000942655L244.96918755704598,155.22203322696936L245.60573087368675,155.25720011134473L274.36094093534314,156.7868927297995L274.5424799114594,156.79644916138204L275.45809452192265,156.8446289279816L276.06327776262185,156.89432207079136L303.7719891103252,158.19667873607426L325.4031872420718,159.19290163517985L361.03218290726124,160.79465016094116L382.4585820997329,161.56362165826113L386.8855590713267,161.72030825765296L396.7792597478747,161.86057582184384L452.2778389055887,162.57798539627817L452.332728510965,162.5787717675696L460.26527373179766,163.12588906804683L466.1646078114557,163.23282486191601L476.44416576257447,163.41597800675783L474.86166391807166,188.63684184960346L485.3755409766093,187.1245359589341L495.09990277914164,185.72190465149998L497.141444298421,185.42696025873911L498.9643134742914,185.16346855162809L499.1751707462382,182.9577409215443L499.2556564019354,182.1157196045888L500.6414127591773,180.78923621287413L500.65574028876216,178.80947511855217L501.6200769348833,177.6428838658057L502.34368233086224,176.08707131277225L501.5656584837848,175.31625700716842L501.1057874386395,174.283675049666L501.18311404583187,173.14770704007157L501.9505849204525,172.94134975808754L503.1096567634765,173.5781266131359L503.43917270993524,173.52514333927445L505.0923668626004,170.64194475756312L506.2015763793426,167.5302951820662L505.33530779390185,166.29802189997298L503.40946039114,165.51900354656237L504.2291017549904,163.63929530392915L506.26724442948444,163.61313319169415L521.8885673538283,163.4073373421008L524.3103558822022,163.37459679546492L524.9610542189826,163.36576165863875L531.3802166017613,163.2777346323022L533.0773453313412,163.2541981478219L537.8191693259356,163.78226496193497L544.1359144155991,164.48435789779785L558.502348777691,166.07536043069717L571.132952950148,166.8256154812998L571.1350820805754,166.82574143386358L575.4562422788345,167.08100830643986L575.9461492054647,170.84047854080376L583.9902628435855,171.01595661996822L584.1848524531476,171.01546542317908L587.7958375203857,171.00608760116677L591.6629711088784,167.87335199864395L592.1693931592035,167.463015519308L598.0685752860358,166.71385425806488L598.1113885971137,166.70841222906773L601.9129970241099,166.2249004248538L601.9768567186072,166.21677351464422L612.22284080199,164.91077643841402L613.8715557641029,164.7002392794908L613.8792864902949,164.69925183196182L622.9995338716922,164.71511241658663L646.8188670617645,164.74153265472108L646.836653237628,164.74154427602087L647.5618405307976,164.74200780322013L648.2866948993224,164.74245101951885L655.5299338759246,164.85157636236477L676.821076734478,165.1607235079656L691.4807894437621,165.3635011574413L713.2359922747758,165.64927264868612L713.5075251395199,165.6527250447134L715.4866793676414,165.67780373899996L737.8671883147462,165.6244652593585L748.0533305474381,165.59384612764256L752.0184635311884,165.62342842299847L769.4579055678341,165.7463988896289L772.469839005208,165.76645895320792L795.9518949397374,165.9109572329233L799.2422113935024,165.92951991797838L802.86706442758,165.9494906035821L802.8805543058902,165.94956398588312L819.0347103914795,166.6412376686668L820.1999268781844,166.69074172298673L837.6673423667221,167.42659979468647L851.5633083880359,167.36777499473396L863.378009122008,167.31195277659322L863.4136691138658,167.3117762101728L871.5713294808154,167.27010654228826L874.3532755413908,167.2553143642964L886.0640560503971,167.50320220203986L891.2165525689068,167.61060492305097L906.3292749925423,167.919766001438L906.3383337813996,167.91994869590883L920.8720918561303,168.20901616304099L924.4721495516401,168.19628001338566L924.7012543158219,168.19545272251497L927.3255500156171,168.18583329908512L932.843744687564,168.16474716793704L935.5071501432592,168.15415314221065L942.5780032332343,168.12471200291634L944.5385522257632,168.11621027289817L962.3336640729437,168.03232216562913L964.2861974863683,168.02238052235185L965.1360547613239,178.06241636080185L965.5894480523376,192.87806272335484L966.0784916196006,208.85067064534417L966.5788439740111,225.18406422777733L966.6707561730884,227.14719676241393L966.7865120525296,229.61936641988143L967.1598548840191,237.5909741071013L967.5188029582916,245.2526611822319L969.0412137456219,277.7203893766663L969.2011114479599,281.127838462727L969.4465275933519,286.3567367403523L969.4572503691436,286.9801183874948L970.4745648799885,307.4075580056726L970.5024427541675,308.4914980116796L970.5824898325438,310.03485157407556L971.59749180106,329.59548717459006L971.7398761111403,332.3380897903383L971.7422197049907,332.39675672206073L972.922384395679,361.92261824911475L972.927359452869,362.02970174184605L973.7194193057437,379.07188066687684L974.9976555226791,406.5489325406028L975,406.5993003357515L974.8690083783372,417.06139936742386L974.8244137906827,420.6197293676004L974.5175435022047,445.0596085632614L974.5168944268332,445.09727341797554L974.2373736428053,461.3023317759008L973.9424432368428,478.3682022819017L973.7284675651026,490.7288960410252L973.4906688896829,504.4453475423969L973.0177317804505,531.6613185115709L972.7715459257572,545.7952848970942L972.7124374977773,549.1854367551852L972.5903129049334,556.1857493900374L972.4823185869989,562.3714842479245L972.4800240474663,562.502864733651L970.6568345667499,563.2931463877069L969.5383530576827,562.0843890409194L968.0175830411863,562.6026188482285L965.0112861906698,560.8727777661161L963.048259525975,560.5648455355101L961.3794874266213,560.948238153415L959.6716799344647,562.4230901754154L959.3504525313209,563.6863129908949L957.7327116758281,564.300780416398L954.7287104582163,566.1451089924365L953.3645055778544,565.7463310651888L952.0133051564533,565.839608029238L950.6127036038363,567.3389185730348L950.5006836458736,568.072943977271L950.2111022586669,569.9702945123868L950.3313080901193,570.8611158321837L951.0925243548643,571.6442943544836L951.4170332116216,574.254826453186L950.9070493195475,575.7964641490229L950.9563811393306,576.4798180800133L950.9785311315674,576.7866365200434L952.7349042544163,579.5023559920202L952.9670113638534,579.8612000999257L954.4290827968855,580.5135035568069L955.7019434047131,582.0591839611965L955.5532415063205,583.2936049077105L955.3249553187858,585.1884752293968L956.2738772361733,586.7027651181254L956.7798038022038,587.5100526405733L956.4598581037973,588.1984351601742L955.8170225983597,589.581432634317L956.3872195708436,592.6523386486055L956.1538640796352,593.187699066359L955.9693291331735,593.6110419010813L954.7914353561939,594.8563506261536L953.498811514153,596.2227850046072L953.4741064618837,597.6599584134557L953.438743729912,599.7167234251301L954.0338342812115,602.9964942904408L954.5717736420295,603.989147169796L956.7507062666185,605.4361967728616L957.4871321196403,608.4639177894641L957.7865306126428,611.2145080773416L957.1949043055326,611.9851390333063L954.5386221884582,615.4444981406656L950.4278345850071,619.0540943476012L948.94744492964,619.7184067951222L946.935071139037,622.9749674870509L944.2636731177441,625.5470460049847L942.7722856008261,625.9240736377244L943.2118751508997,624.5131794988342L938.6687401462509,621.0510643371139L934.2759834364999,615.7627342613116L931.8948597093743,615.6610843675205L929.9706951200579,615.5787851609596L926.8854014775845,617.6756156075344L926.3987888956894,617.6517008646543L924.2879006897159,617.5478566269663L921.070363364995,621.6260596031216L918.8938966990537,621.5586035508827L912.9554357577662,621.3736396994872L909.7658752059554,618.5737506953593L907.290046079434,617.9198186120525L905.4721563040297,614.9375511083231L904.8495643662164,614.9608178660377L900.8848637549576,615.1086379812294L896.8241793366674,621.6182586827185L893.8174975973332,624.7799629782546L892.8114410563082,625.837677135386L889.4710188114173,626.2123229628801L884.4010741700376,620.4394533039184L883.9956374210066,620.4698462636935L883.0563404939327,620.5402352147868L880.2195479738004,626.6379598982546L879.7333034700475,629.7257561729075L877.4986615443415,627.3543961877253L874.3840337375257,628.1738704337482L874.10210889851,628.2480262088964L872.7122723787179,633.2858640387776L872.0145076287031,635.8144640954357L871.7451570112518,635.7962938946338L869.4892473155021,635.6440035494151L869.219682010043,635.625792986298L868.9895545347139,635.3613808815638L864.5186394226589,630.2231464529137L863.7143746184111,629.2985888439409L860.9770613522342,629.858879644399L859.6547965000295,632.4298478026233L857.1594117157731,632.0050128555213L856.5918873962496,630.0222860102081L854.0804228962368,628.3456084415415L850.3524822809325,627.9755728204817L847.6415262029934,631.7954042019679L847.4886420738983,632.0107880631451L844.8161315349855,632.6260528725104L842.5789879331408,630.6100332590695L841.614702365219,628.2363976291444L838.1107711428288,628.2136770551667L834.2538129244483,629.4143154521255L831.0910612739708,630.3983691304613L829.6958366697784,630.918394345017L828.1797418624656,631.4833681311777L828.8757092384146,634.5656364334915L826.2710840294535,635.7624130652591L824.9868824240843,638.0913067563374L824.8688566691496,638.305325875329L821.7261376219415,638.93548862946L819.77430971011,641.414030450042L814.2514772449829,639.7445772511518L813.0516622853775,640.0952729538635L808.7882148919238,641.3409427527174L803.9484451227747,639.1011630491175L801.1356706391663,633.9443393111428L798.0208638279826,632.5380965594742L797.857437170655,632.464300820214L795.2990582747508,634.3943653262301L795.570360054971,636.5669365360307L793.9606585938484,638.6815403459585L789.8450981262856,634.8855269253659L789.1999988628005,629.6702263908534L787.4323692167839,626.6260629420638L787.3540802014478,626.4912200639242L784.1588791099776,625.5445971263114L780.7827771275777,626.1003554029677L780.5430180312522,626.3351963944631L775.7338250209737,631.0445650949898L774.9654094112716,632.6836460031905L774.7424205175737,637.8022463649367L774.577886897123,641.5778105933695L774.564254476576,641.8905880836369L775.9173720019571,648.8144956347596L774.1189059967667,650.9751162664359L771.7182607386535,650.4250062264275L770.2472135747146,646.9791738789875L765.8671459057634,646.0605026059856L764.3081922184393,645.7333419423301L764.1939523688998,643.1699776743413L764.1774905514894,642.8005728437942L764.1427956260678,642.0219927266587L760.9512107722803,643.6656648313909L759.1061941743511,641.1766215772515L756.3412766177514,641.3713235550081L754.2597411527556,643.1438603780882L752.918667776291,641.8359284973426L752.6011246128596,641.9372711013141L751.0927079846958,642.4186156366083L751.7937533963245,645.1762038444799L751.4227156057538,648.0445214764528L746.4774530283617,652.7036208891609L742.8793309552354,651.7525072531539L738.3807458918036,652.0304975283364L737.3016270304073,652.7406009511627L735.1081477154737,654.1837677144165L728.1924916486767,655.4700794623101L718.8983753708636,656.2850303552334L714.0699441631876,655.878509494361L713.4279406012106,655.283045464978L713.2349383941652,655.1040269334907L710.9584762832615,652.9922489533045L707.0616256331879,644.2220211949477L704.662722870535,634.5659625358984L703.3989421162487,634.351925825404L702.6793494814599,634.2300258340986L699.937578225742,642.1732915741139L699.9353891427678,642.3248640444144L699.8584283518755,647.652386322733L699.9814608244994,647.8020337178755L700.1704785097804,648.0319367684372L703.385485658759,651.9416654684508L704.1770976676236,654.3571475053982L705.2921229593362,657.7588406607249L706.0649783715301,660.1208151693479L706.7481624879631,662.2084415672542L704.0476869291025,661.3819910365L698.6775779184642,662.7425458964372L698.2318710310487,663.0649829564059L694.4997694944324,665.7643479377215L689.1183017082956,665.1166100561975L685.1760351221845,666.954963950545L684.013540555514,664.885820782036L681.2351560839874,659.9392704505699L679.4572061412094,656.7729315383756L679.1924238818215,656.3013203954919L675.7487387077072,657.217083607082L670.3770211456028,656.2746381381601L669.8644004199698,656.184641242293L667.924166183276,658.3899424167641L665.7285048887404,659.019874675399L663.2977616384925,657.7741049396211L659.9201342609979,656.0425241574549L653.0712409344488,655.9816448531121L648.016852029164,658.8801264324347L645.165563340893,662.4665548534042L643.7294056772862,662.0042863385985L643.2619187560055,661.8537926710644L642.9950213146516,661.7678685710847L642.9848529350313,661.7645949337651L636.5277268117792,661.2862589914026L636.266054078256,661.4138468539666L629.7496509045147,664.5899982882177L626.0355072704602,668.339544651158L626.122193826013,670.4619930672777L624.4853745291167,670.6534007039799L622.4094366583877,669.410545862178L620.697795244808,669.9180494622284L619.0623852333777,664.8065097496833L618.7760468916133,664.863060448834L615.0879918249569,665.5911432466484L613.2118452989916,666.728171570032L611.8568569736079,670.1022591809631L611.7168420288756,671.8781539445398L611.5152455225933,674.4347723749248L607.9941004701732,675.8790106117057L606.5290618904996,674.4986999605683L594.8669178474223,663.5039807020019L594.6352803636742,663.2854731468317L594.6054653769913,663.2573478070709L588.6121540614056,660.9235301498468L587.7115646928177,661.1706260580393L584.8703264272286,661.9499556150091L581.4035449224841,662.9004044905432L576.5786521977532,661.8087857481125L575.413593815875,661.5450520060477L571.976538516595,660.7666843692054L571.8371695244219,660.8051419294195L571.0065504115198,661.0343263895622L565.0483332709708,662.6774616114872L560.0572777364594,664.0527198469111L554.0219322412282,664.7804463123956L553.6815759278602,664.8682191536709L551.7719890428164,665.3605835767348L550.491184493194,663.0639192531391L549.9235753719256,662.8033135896669L548.213453073036,662.0180487569552L547.2880964564511,664.5975703165701L547.1670007113295,664.9351039137192L545.8864518001958,664.4390847027714L544.9414465551087,664.0729886732084L543.9707520447577,665.0382908614293L541.8220175833909,667.1747598138902L542.4272609761001,672.0610001518935L538.7626804196146,670.2161803394488L538.6656565479761,671.5862895521093L538.4713198165803,674.3302395510684L536.166944879374,677.2118099137356L536.0677124010468,677.3358820573055L534.5942500922248,678.1232662922805L533.9546175638495,678.4650338929588L533.5982510107635,678.4798964871516L530.4870691481691,678.6094473868143L526.1714880736484,678.7885445153897L524.6588717207137,675.8326686766533L525.8692316873808,674.519124873518L525.2540039113509,672.462999691316L520.3549003973852,669.2179304728402L515.2624838309254,672.0981497276342L512.8578865903221,670.2955637177406L514.0387878972256,667.9836375983597L513.3009210266144,667.7910326387533L511.3555950076341,667.2831360897828L506.1047067774227,669.7311723867372L505.9894876776624,667.2812356682722L505.76527136377723,664.9762819798922L504.64771015476003,664.1380468848108L503.15923723839217,664.1372521340913L495.85603674109774,666.7307877354165L493.2685496954074,665.1013926470141L489.09011625718017,665.5078475651815L489.0846064827795,665.5176458578164L486.85482214944506,669.4824019205411L482.32593001719374,670.0923546457516L482.2262009501658,670.1057772358763L482.1476091870144,670.1163546727894L479.49139627613425,671.8792416921704L478.9233587643107,672.2561801578202L476.7575752646443,675.0216289594774L473.17072517378404,676.1135313905954L472.7693878209653,672.4945254049235L470.71371999921547,671.5094959456387L471.2788564043466,669.3192249905762L471.5737215867525,668.1763101705756L469.01060218111434,666.3055819456495L468.81213237355956,666.6854688969812L467.48847425772396,669.2187925413219L466.4328640542968,672.1336022213525L464.6745635119475,676.2146902464881L462.34410921511636,674.4591545914973L461.6523994058971,670.7447694346623L458.83373338499996,670.7503807514195L458.43147433125546,671.0001371351791L457.6328061176246,671.4959884236958L457.20890790057723,675.0316698236151L455.7333458334984,676.5876667512572L452.92324200353073,677.8322398053733L452.1505634648684,678.1743843472342L442.49089136369133,679.8734396873746L442.27556961165646,679.9112709076378L435.40310148719817,679.1723906480461L432.77650953898944,677.7486471855362L431.04058375111197,676.8074784322855L430.60084218364517,676.1530004600477L431.6905650645281,673.2179991057482L431.8072495773859,673.1549123387317L434.85248444075694,671.508205090096L435.77214292991016,671.010799516462L435.7798481583854,670.9693889571716L436.22139252585544,668.5962005958L435.0784518778045,666.1363468226538L434.9903558821461,665.9467278350577L434.4413897553091,664.7650694834817L430.53200218637016,661.8998947441014L430.6787407943583,661.033569939876L431.22104757229204,657.8314655711066L430.28028742558536,653.6939861070557L430.2103199967057,653.3862244559592L430.1130946654167,647.498384980349L429.6740849669269,645.4923759529859L429.5387051376474,644.8737201606594L426.8593698756043,644.5147720922222L422.52940465014785,649.3371175670712L420.3009169629621,653.3631710594036L420.0059223477062,653.8960293126623L419.8885975602905,654.1079511313238L419.3422544175157,654.384315075828L417.14293431069655,655.4966650091567L417.18928184748415,654.1461310094666L415.34512231521137,654.2898558530708L414.74342709424434,654.0995045756999L414.50474507352965,654.8278807625973L414.4736515389325,654.9227651098738L414.32487228510934,655.376768561675L414.5232081613617,656.3891087263196L414.58318282960624,656.6952168266218L415.29539433522183,657.3749946540486L415.2997107373571,657.5445615007006L415.3605528644099,659.9344905551375L415.5336586106072,660.1259647881233L416.24787534562745,660.9159323203086L418.45489485892597,663.3152315889399L422.0778670611728,661.345724734917L422.58487417193874,662.0856024523496L422.70356237518786,662.2587984186262L422.98926234534343,662.6756968677497L418.0157525166235,667.2910952729146L416.7710375387398,668.4458368759233L415.7002447618683,669.4391163012299L412.6750502068954,670.4775986048609L405.2110788028022,673.0380571642554L403.7142018459368,673.5512483519605L402.72157543283055,673.8915061913137L400.502590352369,677.8567295124157L398.29318711027804,681.8036976430327L396.2424384290918,685.4662279283982L394.8933120398584,685.854270034172L393.25616479770497,686.3250495848599L392.87321735737413,686.4351537690495L390.1386434452834,687.2212101366812L387.9066670281247,692.0267595628507L387.77959143314433,692.055482896832L387.51693271691477,692.1148504620659L385.0018430341419,692.6831823324376L383.9871354777421,693.1868694783394L382.9628753734073,693.6952433311038L381.87265768347504,694.2362933358884L381.15230489121507,697.148912511172L381.05074383184854,697.5595141948546L380.24313038007693,700.8242446727052L377.3189135420921,703.8908868254867L376.5859729001229,704.6593855496948L374.0289355809655,704.7763028205723L373.987058134434,704.3243628479224L373.8896389125373,703.2729670375874L372.8603848296196,702.7447309925278L372.6330126108116,702.7292137672985L369.37412757312836,702.5065927227647L367.1053616484454,703.385530718241L366.3748540091642,704.516684136692L366.12515385265715,704.9033095552309L365.27543072257305,706.2189003013448L362.08256598808975,701.1529910361141L361.53996980057275,701.0727191819342L359.8832603788537,700.8275540571992L359.0612935550611,700.7058770924598L356.94266343499214,701.8224542545521L354.77176590553347,702.9663235176364L351.536650018556,708.7842729616789L348.1736797397083,709.9919458575835L347.81929592943015,710.1191782799433L344.83910240453383,711.1889141342L343.55981939550935,712.8027683316859L341.58960028952947,715.2878297837781L339.72221791897573,717.6427014064532L335.36134012959144,723.1401871811531L334.22027401139485,724.5782373020096L334.20026035426184,725.0048896050803L334.1516590678259,726.0409341907113L334.0620427785843,727.9511546030752L333.95769558252186,730.1751269682463L333.71387615634444,730.5998572811269L332.8829130617065,732.0472856869073L332.7107596382077,732.1214830629247L329.4878106018007,733.5102921838366L331.098782630679,736.2458374527203L334.01995144375894,737.1734273403481L333.05777214846665,738.950478100837L329.1020432400252,739.3246412064154L328.07519622330983,739.6008694903511L319.63282216398534,741.8702405556137L315.8994457506865,740.386557118742L302.68472422278,735.1295991000088L299.0548975826112,733.6841710875194L299.8220038581585,729.8533796527723L297.29331470407726,728.9981408284818L296.35184364914676,728.6796490646168L294.4659310408,729.5264697809002L294.3567603334132,729.575484650177L293.09977057215326,730.1397981870157L292.9712849986904,730.6036492655475L292.17241982036467,733.4873647558738L284.06171129677506,734.1956340882665L278.4329404314151,739.6829733236668L276.9948952314618,744.9882525875948L274.6584473950441,744.6654495218002L271.35209808256315,744.208283658964L268.13811817288695,743.2962421654265L268.0316767658069,743.26602943641L267.96067624452695,743.4587695177258L267.82130241426324,743.8371107769035L266.626774402249,747.079371197409L264.23802472853527,753.5610198482921L264.06086005418274,753.6855894720983L254.42250122028946,760.4594004580779L251.40956832336195,759.6685674107887L248.64063788685866,758.9414458342096L246.90324256835652,756.1045118086492L242.68982030480964,753.6633236947192L242.47461008756562,753.5386067504627L237.7323481424001,754.9273964493793L237.1779651283556,756.1415276457026L236.1189415870968,758.4605740834447L232.605301808599,760.8711038165802L231.5080999207949,762.6260551663488L230.0326312237337,760.9911473863606L227.17288352841967,761.0252355138623L226.41074856088522,761.0342682547536L225.78829984287847,761.0416292483114L224.61534281782093,761.9610187309692L221.7439680623209,764.2112307180006L220.72678394225738,765.00822000875L220.58103407745733,764.9469225172121L220.52299423787184,764.9225126269018L217.907739767934,763.8224428053516L212.55081413459754,766.4915189526236L210.9993495445122,767.2642502006763L209.8202835543139,770.3672915930738L207.66550639420393,768.9166399808053L202.18808434520122,766.6268554385988L202.24656314258004,769.4901663787964L202.26225575597857,770.2584004693429L203.51748279858163,773.0846750718136L201.62956559484172,774.2335855307401L194.9323613186603,774.2525233068961L196.41797450911884,777.5045967383014L195.7469322446065,778.5775908194271L194.45663542277185,777.9105185160086L192.46302315752513,776.8796620889984L190.2504345133375,779.2338336934154L190.14724347267764,780.0850100489511L189.8086788311233,782.8773915605564L187.22960134286944,782.9625449737778L185.15446220308252,780.2419199164367L185.0934698486911,780.3365639106692L183.56668811323664,782.7055046643197L182.463889926619,783.4412024752307L182.72415947086398,787.1251155778897L182.10147484794794,790.0477826039971L179.87472585192273,790.0195933246666L175.34820232089646,794.3976997739319L169.72634063889927,799.8325486812L168.83967556975676,799.2399719692391L167.30585411404695,799.9924755411232L165.98247809227553,799.747337329014L164.59057724363197,798.5708989000211L163.1123133751904,798.7088762397275L161.29598383099056,798.8782937742857L161.15932745317446,799.0422247044487L157.00779274580663,804.0212390410713L152.42767530601185,802.5193446114129L148.45871995944947,807.0727817039933L147.7866823880462,812.4990878833157L141.70650894204203,809.8173978489313L140.83247692695454,807.0184292503252L140.02210951902788,804.4228711833913L138.85670901727593,805.3150014706791L133.7662363316689,809.2106669983621L133.70532725408373,813.433056071274L128.31590180430703,810.4359497297814L128.30078124774087,810.4275387564223L126.18007737478843,811.0530849926542L125.3348775338373,811.3023407364047L125.28930488348504,811.3157795810604L125.46383298276476,812.0359921664281L126.17391299755468,814.9658754213314L126.40938786106841,815.1345602551567L128.08909983449644,816.3377285362824L128.27994824346024,816.4744199082368L127.23756142754291,818.7708707903298L126.29065724582375,820.8566610574179L125.26955148685346,823.1055726140437L122.18049732165645,824.9578817971937L122.01464096987456,824.4021123626377L121.0972747261008,821.3277309031052L121.64780315020619,816.8484161143169L120.39425379486494,814.9358680595531L119.59426261499857,814.8198013287611L119.13719567012072,814.7534766273461L118.47252438903627,815.3002553805941L117.40362300862256,816.1794934355564L116.85539788328532,816.6304080464843L114.38489716006177,818.6621001375129L113.07656274284136,820.5774591199419L111.0879061317936,819.5949308485508L110.39852207350896,820.2328022760361L108.61066153443585,821.8868717405809L108.21486937703577,824.2487146897056L105.84141421412409,824.4483849117989L104.84417029461628,825.7728594715468L102.9671345244663,828.2654305564045L101.68700778981992,834.3329182309834L94.81460540521306,834.6829178273882L94.2956113210717,831.6851798391073L93.08723485693872,830.2622988730434L93.06888007904757,830.2406844727744L93.06253847400097,830.2332166533122L90.38028249925873,827.0741727942725L89.17964947660295,824.7103912456778L88.66342162095583,824.7799191419656L85.09501249756306,825.2602468805742L79.71030612973664,829.2650484329022L77.34558310887718,829.9373734483073L74.63781262360737,830.7069401098698L73.5286838239067,833.7394941994228L67.22198463018935,832.7767178434867L66.65562861991185,833.323911166528L66.02506658901183,833.9331027631102L65.32952295992698,834.6050304845796L61.55787808795549,837.8446289616154L61.202421024595424,838.5801267760185L60.25301891079812,840.5444128250526L58.660564022959136,843.8385703157303L58.401147107084284,844.3751314282717L58.26656411296784,844.1579403786061L57.27844062532927,842.5631890517577L58.519287553878485,840.6172839672347L57.36696381924662,838.3551823127323L57.44869817500472,837.5796170669914L57.56198498712729,836.5046028750367L57.12578980543071,834.3282957541L58.03015970075597,832.0428511571744L58.033544041463756,832.0342979153697L58.33627908232825,831.2691767924491L59.29666740277247,828.8416780184632L59.73650776773104,826.9320605251773L59.73402839347227,826.6741282799042L59.69691461346616,826.6215277741692L59.53493821783951,826.3919597546837L59.31842751630023,826.0850940254052L58.09379382205998,823.7266793242854L57.23142154188929,822.6022006686493L56.16545994709111,821.2121082366002L54.30329339467335,818.0523944310138L54.22287934117338,817.9159314311199L52.424768408178124,814.8641641136544L51.575824082592646,813.4222751399561L49.88424284626734,810.5487445736098L49.87720840743174,810.5367937051918L47.87083884370202,807.1277174610389L44.42198317380695,801.2430155371217L43.30217269332678,799.3711040792048L41.020466602829,795.5561110096571L35.333177481650694,785.7139530817769L30.21307135056702,776.847137496484L27.47628919559901,772.8724010744586Z"></path></svg>