<svg width="1000" height="1000"><path class="state" d="M419.89188798885266,199.23931137288463L413.93366490594605,195.89244776550333L412.65033965818355,193.59913251581742L412.18655463668546,188.721077919764L419.42696855853023,194.21915594078615ZM424.6684337769158,183.84858937797367L421.48215549880473,184.25973704214192L418.4632272062747,178.44114427142893L416.3368313981934,171.72936082963366L416.84430922855455,169.5592481308691L422.80757698783253,167.4910974657389L422.9876414978027,168.00669617825463L422.71518554911063,171.31160550191072L423.32348971210985,176.02488692367353L424.143369091948,179.53859462815467L423.8134591644348,181.55656807042027L424.21513324659816,183.25896591042897ZM404.4645223495456,26.151880627096375L405.0812896057116,26.037938686020084L405.3864907214953,26.007836429738745L412.2753015183575,25.323256328672983L412.3019531315584,25.320573296783664L417.2060643650189,25L433.46473976728134,25.558042844021543L444.38573360128004,26.856840242617523L454.62786384794424,28.899423939174085L463.8264908572817,31.75610789511461L473.1842146986725,35.35849264616468L478.20444900224675,37.73683373050187L491.64924560559933,45.27759398933415L498.4525509166085,50.32277386615317L503.53370590672034,54.10825153517385L486.4922587336373,62.84590346452899L484.9397348157882,64.60544202406493L480.89946761857436,69.18331416903914L481.16329790901386,69.28111779378628L481.5802580290766,69.72738156804428L478.96620447698126,72.65750051160114L475.25192701635973,74.83929171828322L473.2126987554687,77.9729546566723L473.37101702323474,79.94761550287876L471.69365791145486,85.08600458078024L471.6863406603239,85.1078011563767L470.1307700651688,89.96033382630264L467.55209217463886,95.50556495645134L466.9164722937375,98.51364438057374L466.8878178557223,100.11023711511274L465.9459551141271,102.83524035902633L465.846468406923,105.66353566272147L466.1321039643824,107.178408930952L465.7389452182291,109.44292430442562L465.0580146492637,110.26065457448482L463.5900354003571,109.76180745540597L462.85620940896894,109.10328188058827L461.7557278626351,108.89921003041587L460.0203298694309,109.56718943814298L458.5597053842088,112.10163517920085L455.9921010234723,118.71028662543671L451.9027191280956,120.82229134429463L450.2669983226534,121.74325806311106L449.28112043089726,123.41102567991766L448.9130224744342,129.13452149965252L438.4269064570814,124.701613649168L421.3583157462352,149.15269010061337L408.285650633935,153.0199516694097L395.2185132702484,172.79573131352174L394.59530247129936,173.4817074159621L394.4767168065638,173.93963546291536L394.1126021566482,175.28068868744924L393.65544219663127,176.8942993788428L393.9981367187189,177.78958514662452L394.4833431304562,178.8706352093772L394.31455532021647,179.2084851197614L394.53423086889865,182.72193253952685L394.40527611826417,183.09465865784023L394.40733664791685,183.11443770076988L394.2383199520661,183.55049822331682L395.2182081550532,189.43338690011717L395.23480065163324,189.5425321630488L399.0257611568998,194.65660162367283L399.5795151697891,195.3123685780643L405.54381209832707,199.0004458549193L405.66959868252377,199.2189077585702L407.89550361547845,200.97949864093255L408.18101804734493,201.26368781456608L408.4907350804827,202.20268864671243L408.80148382467564,202.49782920579986L416.37092866008595,209.82080443546482L416.7996123744182,210.1269574950706L420.8703613216127,213.56996915504777L420.01915705724156,215.15024133180515L419.4989049394835,216.11354163649634L417.52527169904624,228.336848477277L417.49295667186016,229.33637698472097L416.98577176384157,237.4562702334241L422.0513225964755,242.06923079732468L418.77469847674996,250.39068589888348L413.77162199949356,249.75486018563538L407.8111937874289,258.510947032574L407.8101172096774,259.18259546162034L404.9791598059165,270.224829484255L404.9777791346494,271.03721382867286L406.62868374415757,281.9459147126917L406.8708706559423,282.7724799233174L411.73908637668455,289.6259659848973L412.4063876614657,291.6113234812987L416.58264599674277,295.3005304312766L416.133786424966,297.7509129159984L424.53489552406523,303.59724084237587L433.69552195707814,313.0643358880904L435.02999074807707,317.92744169773437L441.56598213252346,330.0920055049859L442.568684177174,332.628570199144L447.15160129248056,347.4701109327998L447.48119164821577,347.8098292388646L447.7896613835498,348.127672375765L451.2297003132419,352.24368127997184L457.10480739187983,355.357461293048L458.35275746755747,357.24912170605825L457.1243192238004,360.8477659781744L457.6392160704761,361.5674382833598L458.41107888222706,362.63634829255716L459.1041897597855,363.41887125413143L464.6727720932179,367.071641574724L464.6105993383246,367.68344322753387L470.2374097352778,371.616296521989L474.9451150839919,373.3798102703459L486.2701143953935,383.5233410296014L487.37927251725546,386.2603858952498L488.1212594499971,394.3504990959059L488.2156073928964,394.9452979137822L492.1528725771779,402.89151196228033L502.53826158067886,416.7951814923422L505.41629586388416,423.6799196635303L504.44176273441803,429.6523655000256L503.85946813977654,431.20426992207433L503.99413624935727,444.7490809299011L504.51020830234745,445.54742274684463L508.68129808597416,450.0049746982822L510.7520591510286,457.9592950649279L509.8316073370095,469.02005719703436L507.8209775294915,470.21341731384507L506.99352872049485,470.32442867626173L502.69775918058906,478.4304592541822L501.465998164692,491.0151402758034L506.55549902322997,537.225784631418L506.1340946280781,552.21603138176L507.0618722367806,553.0640897323833L509.4579193390663,557.4687245626101L509.2089826958038,558.3785726421802L513.6685080972356,562.9684194458616L517.9516241996821,564.5933532586855L536.1522224009753,580.9528377712049L538.7569404119021,584.3024872711138L550.8310803714544,606.0474250866392L552.6618478407282,611.1269762215676L554.4751159677805,620.1312493762123L554.0128070853425,631.4998711868784L554.0169458159273,632.7243265470532L554.3571306064193,635.0301708347074L554.3795148087455,635.18032996127L554.5633975295674,635.9103050547315L559.373699566924,639.7566013832926L554.2151153733082,649.6597524676449L558.6220683169895,657.4902298587202L580.5986698844614,681.9810051391916L597.3203110359384,704.6273213866932L611.6754511770181,718.8847380858604L619.6453226375344,730.1911855047238L635.6638193809556,740.838894003838L636.5923634191983,741.5414715362994L650.0149149725858,746.9181514570043L661.0923972024879,746.3233080424304L669.7545862558914,742.3419254378564L671.5747008072954,738.6950869941983L669.6321541621377,732.4519001827971L671.4442683908571,731.9502373509033L673.796859365509,736.4762446636793L677.8458241339458,753.6499795637712L678.9980042019248,768.7902773834629L679.5939761987156,776.9466813720826L687.3620992270188,829.9731363666516L687.6746079265295,849.6698819001163L689.5749488625792,865.8420411736286L689.9318362168303,866.0229449648175L690.3550241611194,866.4255940738094L690.5965100581215,866.6321842671978L696.8082450258472,950.1191521438545L697.4424598455797,974.3165106483121L697.2648991211945,974.31727357197L695.5152020351625,974.3253233022504L694.9900864635283,974.3288913808055L688.9261382010545,974.3670429672973L688.0583180472618,974.3725026738248L686.1252554838043,974.39798076822L685.8840171771628,974.3998614099655L677.5416787880963,974.4760956539872L676.2102866403549,974.487443887687L675.472007796285,974.4943249656851L647.2763005263635,974.7307139815878L623.7901667463138,975L587.4619118006016,974.9202225206559L583.3453711989961,974.8728963358933L539.6846163965789,974.7007917639703L539.6829973207265,974.7007964071695L531.8320267455284,974.6960856024643L523.5977842433666,974.6481546794224L511.449859481681,974.6691024863441L510.7897564833155,974.6386595829617L502.10154091442826,974.4884541740666L494.5743089478201,974.3548384136848L492.4710984422598,974.3155623492837L465.258811077182,973.6294244494237L453.93000084317043,973.324689684512L452.4086819651885,973.2722455087669L442.5097011916689,972.968735656221L441.74014461271474,972.9684141034757L435.78619622106754,972.7578231580578L422.05292058627947,972.3290530133991L421.66330599809794,972.3175982121124L414.0136293581816,972.024224183021L408.89233026876695,971.718402777294L405.8129993737739,971.8086087001568L403.77599848476655,971.7238797623381L401.08538255527594,971.408364282687L383.6095068025397,970.6488777360514L366.1351938160887,970.0128017948512L364.65588651475156,969.9111960356329L349.5844923842257,969.0155239843275L348.1274221025151,946.7935943839761L347.9655520948768,943.972733972126L346.90313556891823,926.381437681079L346.19985253832255,912.1130636407634L345.5495960108924,900.6014244328798L345.4990618246985,899.7041757821847L344.54932646360925,882.9152756596793L344.27874125585436,878.133498731267L343.3728060390381,862.5262723816161L343.3305168567364,861.4746897365405L343.1419214157752,858.0142962082291L342.9662938169892,854.6910311468657L342.58107286522574,848.3908687681036L342.5780540666276,848.3365070948632L335.210646021246,719.9602977113703L334.92679235179133,714.6154352167158L334.9213226326419,714.513088903284L334.7845886650407,712.3507121391767L334.2233659366948,703.0604501256456L334.19489473580387,702.3057280818118L333.44809290318574,688.3167247643785L333.3102168410579,687.5308095291446L324.384857277939,532.9331781333527L323.39309721349804,519.0498387155322L323.23528687093363,515.3621731292253L322.48415247173625,499.61575045643053L322.4826794786976,499.5890379605449L321.6544463020259,484.88481990334066L320.80737261427726,476.01756909207813L318.41095597420724,429.3374338208124L318.40654082629834,429.2614754344192L316.3760680732357,394.5420229071873L313.1691453646864,339.56920561750377L313.1564743784314,339.3498020794594L306.92679500260533,231.98812754270062L306.8566492110284,230.77322020442347L306.31349575649324,221.3835882577738L303.3873150028842,166.59540601918115L303.1177132702064,161.90371152697088L302.5575401544203,147.75258882078668L302.6598542918031,132.39799161201506L302.6419930396996,131.60129622654011L302.8444061908734,119.25575099625604L302.84531720033146,119.08133689227373L302.9407625590018,104.4184566117446L310.69745843771904,104.04921234200907L314.6774250814676,93.57910850458404L317.69924350970507,87.17789353485443L321.54364765762455,80.1133376067362L326.11417957688076,73.17200196791953L330.27443969824986,67.80841448170077L335.23753044726215,62.132714715216935L340.53211808801814,56.79487893251098L348.8025651994858,49.605060811425915L356.779545249378,43.88276640400193L368.91347034342516,37.04969256817412L380.06199322841525,32.17161705289641L383.6251224646144,30.954919242867504L392.7527480300943,28.366049555195673L403.98887687239005,26.239517351570044Z"></path></svg>
