<svg id="DE" width="1000" height="1000"><path class="state" d="M419.46528855696886,245.90920112795533L421.4714411898338,242.03218831262234L422.21909056527574,245.16129013903895L421.0906582941309,247.41234719344982L418.4597269735306,250.1627749842787ZM416.52428151121427,170.69523066440257L416.7887432933778,169.56359616060496L420.71359340625435,167.4318803514363L422.75190836873765,167.4945770476093L422.93204800240756,168.01016671177933L422.6600312051127,171.31521109706858L423.2689912987467,176.02855022333603L424.0893705672974,179.54225135038786L423.759723950612,181.56032938829242L424.1616403694078,183.26272343552307L424.61503416587783,183.85230306677641L421.42871688273465,184.26389418616895L418.40891140100564,178.44553713066483L416.5497985889761,172.58031321679914L416.2815440654544,171.73384202616364ZM411.7411204961815,188.18122196010796L413.12794770493457,189.19073469852066L414.1571493264381,189.93984181592697L415.24861340620066,190.7341929946071L415.67428966314066,191.59672992463044L416.77549136515154,191.84558949228142L419.37481689456524,194.2238871194868L420.0145737373695,195.09140267406065L418.9507319930032,196.60026572747756L418.39043342008364,197.54972532398176L417.88696903966314,197.94065568273487L416.06253630435805,197.4583954753585L414.325685812278,195.91489686805534L412.9724277786363,193.35017985671698L412.368996619762,191.42140346756457L412.30247268653216,189.65704611760987ZM302.5543559887125,138.77474067965147L302.5958584697464,132.41668504867152L302.5826217593737,131.82981405907321L302.5778888723931,131.6199682968341L302.71439974059535,123.22529388678777L302.7240456137563,122.63201656987746L302.77863750560607,119.27402710674647L302.7795249422762,119.09960767214443L302.7534840326764,105.86320369777235L302.7501599645801,104.17134208956963L310.50971559399125,104.20912742451787L314.60853574907037,93.5950171281662L314.7031319222526,93.39459993562434L317.6295784573634,87.19320230200424L317.75863660078085,86.95601912583368L318.2274848292882,86.09433835120251L320.7341892398272,81.48652176771463L321.47314175929716,80.12791548490497L322.33194257874607,78.82351669690831L326.0428712248988,73.18575447155126L328.68319003179107,69.78104498821347L328.7111444166324,69.74499288009235L330.20253008093846,67.82144424204739L335.16500133680415,62.14490389011678L336.3115409177851,60.98890295881017L337.08214397637454,60.21187350456L339.21680214028277,58.05913088198463L340.45902508973455,56.80619283206181L346.32643469384806,51.70457489816977L348.7287466697949,49.61504185118224L356.70519088099616,43.891498160899005L359.0277284574519,42.58377056201289L359.427273996141,42.35877412379716L366.5762944554559,38.33153039279921L368.83855387865736,37.056580007631055L379.98674954376526,32.17685186014876L383.4939614438777,30.978722664085012L383.5498204666726,30.95963609214732L392.67736797637997,28.36945534178915L403.91354397719357,26.241340892798576L404.38927657359557,26.153494655971713L405.00596198802106,26.039608554943243L405.31130591267726,26.009268303179056L412.2002737657433,25.323882440478542L412.2267435065487,25.321245746337127L412.46451301208026,25.305690170502885L417.1309573739057,24.999999999999886L427.1328484041917,25.34302135187602L432.58530819273676,25.528559918468545L433.01801929919606,25.54324035766649L433.3901919476602,25.55586174990742L444.11646008723704,26.830067754498145L444.3116861031596,26.853221608118588L454.4795959029707,28.87958858614968L454.55439689376453,28.89448163405234L457.5677223002167,29.830211682116783L463.7521561039972,31.749533344945803L463.7536833620367,31.750007136751947L468.2307723951929,33.47329706851201L468.29880149326726,33.499475739168474L473.1121720819083,35.35123404307524L474.89766829226954,36.19695508369591L474.9546166176453,36.223926851775445L477.4754037297852,37.41766486705842L478.13287693437894,37.728967180751624L480.1547591069732,38.86321904428087L486.72865116250483,42.549622732596504L486.8539892441522,42.61988598663697L488.50726443965954,43.546618705237734L491.5790919063037,45.26813394543626L495.7378700707237,48.30130872710629L498.37214931498903,50.22202685505363L503.4245973438077,53.97294342187115L487.28610179001237,61.66366054545608L486.23410145673927,62.16455949369629L479.9329531871568,68.35894918265137L479.7593128464434,68.52959786286237L480.00861228686495,68.7356525616384L480.4887084196457,68.95644773333629L478.8993758243455,72.6505676341693L475.1852831111223,74.83292579638317L472.8419950365601,78.27362763212466L473.03818341615164,80.82646437719075L471.6343917932942,85.06202750851742L471.6282938914821,85.08042394989127L471.62097937049975,85.10222216193188L470.0664173851626,89.95386538801074L470.06601877779417,89.9551092251046L469.49186752252314,91.19037871334604L468.69089773494494,92.91348030840197L467.4880142222639,95.5008536787139L467.1653691952654,97.02886192392629L466.8527822713035,98.50910835618168L466.82434290245703,100.1057523603406L465.8828207324159,102.83096387271894L465.78793830556157,105.53879750362455L465.7837135806042,105.65935658729552L466.0695624970268,107.1742361912602L465.67669835169033,109.43887195620238L464.99585816840903,110.25671859466286L463.52776787452837,109.75805521226033L462.7938310335429,109.09960933867518L461.69328921687656,108.89568027018134L459.95793004743155,109.5639142223788L458.4976049878015,112.09863276298142L457.94217602562975,113.5290272435488L455.93081826938266,118.70782771077631L451.84160062878954,120.82044828648793L451.63367464395924,120.93756249869449L450.2059558266085,121.7416636117814L449.22027425443537,123.40961411277624L448.87573498484574,128.77819094561437L448.852939599297,129.13332968885118L440.7949643100565,125.7286146866532L438.3659124690781,124.70170868459081L438.2096608372761,124.92580307856235L436.4227688144113,127.48828571272173L433.17925288845476,132.13841756877014L427.5938920141063,140.14231587658713L427.57938098919186,140.16310433532988L427.5678964566376,140.17955702638466L427.4918918610028,140.2884403832481L426.70706585661395,141.41272340731103L426.35466031788974,141.9175234602812L424.26679691624093,144.9078858345834L421.8005612307478,148.43934207167393L421.30012258671337,149.15582086576973L417.7363563122493,149.30060650981176L410.3986658852242,152.17494966874943L408.2275921684872,153.02496625374664L405.8078788756095,156.69011485240435L401.2042183950187,163.66068185303124L395.1627424439619,172.80310227926395L394.5396059510233,173.48918312804165L394.42107873598917,173.94714084331747L394.05713475820113,175.28828323084798L393.60017959442894,176.90200378485974L393.9430054807609,177.79726979611297L394.4283726379603,178.87828633734978L394.2596255351327,179.2161691398017L395.475768935476,180.839328930617L394.4797831578443,182.72969130938492L394.35262517058044,183.09738523656569L394.35087502130636,183.10244596570897L394.35293828935187,183.12222531791588L394.18397558885647,183.5583216843936L395.1646892071108,189.44125266158647L395.1812969707364,189.55039892394086L398.9730624284957,194.6641072886997L399.5269216698952,195.3198187803152L402.0693687215543,195.21367786327653L402.8949733294663,196.12888617955463L405.4918951145443,199.00719833084605L405.61771500927216,199.22564970009836L407.84392441690346,200.9859915931442L408.1294858030971,201.27015056286808L408.219830630109,201.54393904824292L408.43933914979596,202.20913737321195L408.75013708066825,202.50424463731588L416.3207981233204,209.8264127546795L416.7495360166779,210.13251687606146L420.82087196999447,213.57507972255365L420.2495223419678,214.63616002185177L419.9698563581738,215.15551406588037L419.44971919948307,216.11891341135396L417.47768221237675,228.34285047461788L417.44550155545636,229.3424130413121L416.9394010097434,237.4626160977822L415.8774347351145,244.36891997430325L415.61449240122556,245.09664407832219L414.7474665533865,247.49601684155823L413.7268211573699,249.7620064954088L411.2444586911199,253.41041303993495L408.38741477804786,257.60832794128186L407.76740171481623,258.51916055742646L407.7667884356296,258.93707895922137L407.7664160660783,259.1908290797366L407.7165871572132,262.63247558676807L404.9368701049104,270.23377445974853L404.9355994245561,271.04618311793024L405.31398879694876,278.15949349912233L406.58803063524067,281.95498433240925L406.8303367010359,282.78154128080274L411.6996253198995,289.6345713738224L412.01052465070507,290.5591747037778L412.3672153553554,291.61989741057744L415.44316222059604,293.3357782192654L416.54409740589995,295.3086481235192L416.29459856168205,296.67177803100174L416.09555646085255,297.75916413733285L424.49770685167846,303.60452743161085L433.6598875664962,313.07066222546354L434.9950547961032,317.9337314415681L441.53288813430765,330.0977703084259L442.5359635975481,332.63427432074474L442.7560919399092,336.8822698204181L445.6425542353111,339.1425926847581L447.1210276464349,347.47563384772735L447.450630281361,347.8152229250971L447.75919575104507,348.13312830696105L451.19989437871953,352.248792968723L451.86280239649085,352.60010203082743L455.2428716854586,354.3910349633922L457.0755974482175,355.3618690229285L458.3238408395645,357.25341633398176L458.1724174845613,357.6972411000706L457.1035036382016,360.829916642471L457.09585391723607,360.85233365689476L457.6108635458213,361.5719574922312L458.382894079859,362.640794546473L459.0761315345023,363.4232467441183L464.86320478590636,366.0171045264109L464.58328211519114,367.6871987005542L470.21079209083194,371.6194057946032L474.91887577034646,373.3823336800867L477.59314635723507,375.7775040124343L478.95065399828735,380.0833350512877L481.46676797934623,382.0922228958823L486.24558493090535,383.52462955098497L486.91241745662404,385.16957123704594L487.3551468403451,386.26160502334267L487.2847430442067,388.5424128034489L487.1385535529786,393.27743349291586L487.2014340168924,393.37701078413704L488.19268367257564,394.9466604985839L488.81878747522796,396.2095663654934L488.86718408631805,398.108566149432L488.9074976550937,399.6902562579939L490.4393195461978,401.21205937619504L492.13114242722565,402.8925757595252L502.5187232352131,416.79524829437435L504.48050248560446,421.48630198266005L504.0812835879478,423.66686478427886L503.17495345946713,428.61630716790773L503.3519988458208,429.50709360883525L503.8502839667399,432.01392800404994L505.45231802752744,434.40489065506733L503.9784311109383,444.7497761295808L504.08854733484145,444.92007435105177L504.4946266639868,445.54807154526554L508.6664440963688,450.0051895178957L507.88483842519423,454.55900930866494L509.9101521881115,458.8406120283863L509.29601794552394,466.7848178075751L508.2902451122637,468.4254793807458L506.98138058480527,470.32547236310313L502.68658366798786,478.4323249349544L501.6311782727123,482.1858070125637L502.0103998003174,485.35089362492107L501.66512721183733,488.88336061138955L501.45649335774976,491.01754461306257L500.0093892879424,493.0399153787263L500.52100897092845,496.95163501852005L503.12798040531965,506.18225099556116L502.82339260749376,514.1177641049464L507.2747126263115,530.1532238934237L505.53220730136934,544.185802799874L506.1267139074314,552.1351487228484L506.13303175215725,552.2196084955727L506.9940983236939,553.0064757713113L506.99517180022565,553.007456707983L507.0020261959163,553.0137202132345L507.06095182845587,553.067565945254L509.4576674149135,557.4720055003457L509.3366331972742,557.9146200409601L509.2088469186171,558.3819142026539L513.669126807215,562.971291087789L517.9525897524042,564.5956914674671L519.9986355720338,567.2995771607332L522.3860213441166,568.5810292026557L528.4975645966863,575.5035140593761L529.6369657810285,576.3145366073231L536.1559449065865,580.9531876282177L538.7611943354627,584.302582221916L550.8386417910049,606.0465211700241L552.6701527822567,611.1259732478875L554.4846968235217,620.1302651829994L554.0239180360495,631.4992842780217L554.0282231607029,632.7237751023308L554.3689654325135,635.0297686360051L554.3911363333846,635.1798015406072L554.5751235922121,635.9097731397304L552.2572431076262,639.2849975742025L551.8002669778602,642.4693403601727L551.6381094208067,643.5991641797901L554.2286984271917,649.6596723376327L558.6368444939643,657.4897815107354L564.7116275827127,664.2617010104565L571.4065971482348,671.7206441173532L575.1220338247031,677.5250802148829L577.6698489722347,679.5899758595866L580.6174185902552,681.9782915799931L597.3426272479735,704.6230011940306L599.9154915823539,707.1789807632928L611.7001256678095,718.8788858633026L619.671767111715,730.1845819310032L619.8602700271053,730.3099317418378L635.6921801761127,740.8304258387606L636.6208468891423,741.532897777038L650.0445221893157,746.9079111993841L661.1222478647525,746.3115450835901L666.7131731780089,743.7412695453122L666.8640169381746,743.6719036057973L669.7841494064725,742.3288689391635L671.603821695781,738.6816764843608L671.7773644916826,736.1893635146115L668.615947341359,732.1509241072955L669.4944137880441,730.4902932630486L672.4307196815572,731.8676332643423L673.8257437908007,736.4624673076881L677.8771605476169,753.63615439757L679.0314318161884,768.7767383962846L679.6285297646805,776.93329987082L679.6327028542926,776.961798672567L680.2566567626312,781.2224155856027L680.480284936501,782.7492098182923L681.7938614795523,791.7150249641476L682.0291906299814,793.320818347762L682.7660865792593,798.3482311394943L687.4040882962568,829.9602485218769L687.7192844944439,849.6575268673432L689.6218803357882,865.8298999417464L689.9788027146969,866.0107604750615L690.1187812607725,866.143910724826L690.4020577785932,866.4133637827928L690.643578824257,866.6199271635826L690.6902025034574,867.2466835801588L691.024453091849,871.7394074047602L692.9292160851327,897.3227500217122L693.3322470117582,902.7318378166781L693.7682358838509,908.5816377585543L693.8158256025357,909.2200623163255L694.0948106978398,912.9622947715118L694.5149810183331,918.597052074242L694.5401877778176,918.9350415932095L694.8640852446908,923.2775824618942L695.0786231054672,926.153413980262L695.1306326399863,926.8505289639979L695.1537141882543,927.1598971651413L695.7295059106605,934.8758705817696L696.8668538388695,950.1084859994912L697.0219331096419,955.9968029450979L697.2100331708716,963.1370745134238L697.4113674967347,970.7774906761531L697.5043807408254,974.3064637310131L695.6349404399024,974.3152683081437L695.5770679407112,974.3155389943383L695.0519375442913,974.3191786597015L694.4625988306236,974.3230296619425L688.987851127926,974.3582450528297L688.6461516883819,974.3604095090984L688.489165437156,974.3614026023292L688.1199729302998,974.3637348387674L686.1868574563882,974.3894768248178L685.9455931897668,974.391732914675L684.7799444201464,974.4026054123417L684.6490410502345,974.4038235450387L684.4021601816654,974.406119345842L677.6030211039565,974.4685393043984L677.5935249922347,974.4686253953007L676.2715953958857,974.4805802483927L675.5332943469094,974.4872314491652L647.3368138636528,974.7275085355358L647.2982342271386,974.7279713681572L624.0503345736291,974.9977546448006L623.850030412262,974.9999999999999L623.7733361238983,974.9998888377655L613.2186643245105,974.9827012184953L613.206215661722,974.9826787316115L605.9659294256533,974.96871585369L601.2847273561814,974.9587484536169L598.3246445574196,974.9520648578537L596.3946346504765,974.9475481501771L587.5207017738242,974.9251665347755L583.4040342003354,974.8783994865242L576.5414218590391,974.8565369496694L545.0159522617546,974.7357262590035L539.7420954290508,974.7122479483182L539.7403573346159,974.7122400562323L531.8891558144427,974.7085982495856L523.6546651644625,974.6617872705223L523.6536211109647,974.6617894266108L511.50638665608056,974.6843900521291L510.8462601299122,974.6540361520588L502.1577689566234,974.5050095621868L494.6302976709268,974.3724150127964L492.57207384788745,974.3342610091382L492.52702002047084,974.3334242342808L484.23229893215205,974.1280543919404L466.18311144667155,973.6731579737768L465.31383921556755,973.6509723656484L453.984654184816,973.3477716351349L452.46328339586046,973.2955331246187L442.563969921505,972.9933626271556L441.79439064341415,972.9931458833581L435.840238264128,972.7833597080837L434.43772521624396,972.7400543814563L432.7425257967102,972.6876232297013L430.72836858866424,972.6252009674075L428.18416183638953,972.5461559472516L424.19641317937266,972.4218227491749L424.19420163159475,972.4217536469376L422.76951376582366,972.3772034384986L422.68569225534816,972.3745801944312L422.5468732033473,972.370235248235L422.10649972193966,972.3564475423652L421.7168720945371,972.3450454737222L421.69470027127886,972.3442010373863L419.9661653329205,972.2783169564641L419.4622913940848,972.2590925322143L419.3327938912529,972.2541503983049L414.06693008153854,972.0527047846651L414.0058318123585,972.0490698531211L409.86752757768414,971.8025745924451L409.5228848526598,971.78202001979L409.2391334425364,971.7650939997931L408.9454383893398,971.7475719607286L405.8660290072453,971.8381999960682L403.8289565228721,971.7537460334711L401.2087618465706,971.4468534998998L401.13821828408186,971.4385877588159L383.66172361220026,970.6814593666699L374.1525767766605,970.3378957665527L366.1868082160336,970.0477450754023L364.7074433951609,969.9463378373307L350.6435400161099,969.1475995697164L349.55496852092455,969.0854965904264L348.1753417380962,946.8303047486952L348.0130827325056,944.0093830194082L348.0130258015641,944.0084429636629L347.39473721954613,933.7961853657406L346.94823898603465,926.4177114797161L346.9472323403425,926.3973531154277L346.24633689875986,912.216710451946L346.24299215526986,912.1490113978557L345.54057464124946,899.7413280836901L345.54049111073266,899.7398520588629L344.58844193343447,882.9505847400826L344.3171977626823,878.1687032167267L343.40911125587354,862.561138510874L343.36667768822457,861.5095305120126L343.1776056710776,858.0490602788083L343.0015205565393,854.7257207996305L342.615430743909,848.4254244424865L342.61053678776216,848.3406607686562L342.61051722208333,848.3403218886608L340.12682742336625,805.2695837807905L339.8247296491267,800.0235306585516L337.45374737319673,758.7955733146684L336.0243839040939,733.8937711994544L336.0230019951131,733.869678866042L335.22731546851475,719.9920527861896L334.94267858527803,714.6468149409069L334.93724292904926,714.5447218709259L334.8002109315264,712.3822996052497L334.2377086054311,703.0918385130049L334.23670587445326,703.0653540020294L334.2091339641836,702.3370979672871L333.9270295597297,697.0675412260459L333.4604084491916,688.347781449644L333.32242147511107,687.5618616537865L332.2781256564458,669.5872629171157L330.7798413639298,643.765887580947L329.83489856994254,627.4609173391083L329.8145666204534,627.1099206400276L326.94456830644447,577.4924031408124L326.39361202382275,567.9508939301415L325.31508772085976,549.2575598931103L325.3149752315459,549.2556091295667L325.1724719207815,546.7841718254833L324.9622023709207,543.1368130957809L324.375796660608,532.9608546237334L324.13109150096574,529.5428667191918L323.5899739119451,521.9822587630047L323.382122501834,519.0772373796622L323.3763747876109,518.9433660950434L323.2238069134929,515.3894836463509L322.47051296956073,499.64269501098477L322.4690018421355,499.6159420728054L321.63878298900977,484.91143924017837L320.8254810493878,476.40999008859967L320.79048084953314,476.0440397916101L320.5840046804168,472.0377413631534L320.02657712108896,461.2171295234091L320.0259760614787,461.2054582073886L318.3876599278151,429.3628415652381L318.3831854401956,429.2865935899879L317.90133901395404,421.07364038472866L316.3478044077202,394.56699712702925L316.3344259278655,394.3385518760827L316.1687879206255,391.50993295250464L314.248179764314,358.67701870070835L313.5342646504355,346.4563650434149L313.1335212004441,339.5926525375502L313.1207193623252,339.3732437097656L311.58866399205647,313.09498953885094L310.4167080701692,292.96562467200783L309.62735245982446,279.39419838378296L309.00760581443103,268.73119847358856L308.47623135338324,259.58329634776646L306.87630230451856,232.00954402691104L306.8440934787334,231.45398041807687L306.84382459302174,231.44934238468335L306.8058640983279,230.79454559491217L306.26165512354567,221.4044421421671L305.45713091342566,206.39710308959428L305.4559120590786,206.37435671634518L305.2810801064714,203.11130471755843L304.7913193464815,193.967037560559L304.79120333119755,193.96487085801925L304.5852366111349,190.11778876351008L304.20919613674977,183.09174487475167L304.2089710542193,183.08753848192032L304.0109807272064,179.38703891188743L303.651126264592,172.6591401055079L303.32796927076936,166.61502168308618L303.1876681644934,164.1793785798049L303.1747119395394,163.95443912718946L303.05772443028343,161.92322367404512L303.0153584260563,160.85705476276672L303.01503264700864,160.8488560423189L302.90076977262754,157.97300282277138L302.7572472277761,154.3599966952446L302.74143731693886,153.96195205284317L302.601247389509,150.4319752095717L302.60099899507543,150.42571996492637L302.49561925917476,147.7717544408963Z"></path></svg>