<svg id="DC" width="1000" height="1000"><path class="state" d="M118.07904063400451,307.8147573163353L144.40040214784506,281.22371527415686L144.59521847755013,281.02686893851796L173.64391743279464,251.6698897051139L185.36778856279682,241.8112706297851L187.46976138120272,240.04356403983732L188.09966614719156,239.378340971841L196.9713045822026,230.0086897001287L212.2218996221677,213.89943640384863L220.95591710287715,204.67220697081964L221.32198792749352,204.31226062050732L221.48244994890797,204.15448263889854L241.64821818688108,184.32341631584563L241.73841581142483,184.23470411412748L248.82547977402055,177.26402974782582L252.9469293668651,173.2099717315632L254.6412696267722,171.54327357669598L261.26836641905214,165.02394238669496L272.1008897296708,154.36636547742154L272.11138381505236,154.35604014777914L293.1859053655659,133.61758558481264L300.7387488137724,126.18380576449653L302.9657994521283,123.99172363176793L311.1834539991369,115.90255288565417L326.1807237777189,101.13754580258394L356.21920931226913,71.55563282537214L361.3652267245603,66.5982274216257L363.77262227325735,64.27895476773409L365.79830269342034,62.32736869916778L384.40266165535303,44.401124202388445L399.48441413162,29.865929811232007L404.5326584960265,25.000000000000057L420.83374638184887,40.226446690334996L421.4785937411789,40.828717219931974L421.5445592022395,40.89032695002862L430.92548545467406,50.13375386289627L439.8757441795266,58.9517762094047L456.30796539355674,75.13855089301227L456.53124187990653,75.35846854276176L456.6900085377141,75.51484642348537L478.61249058695114,97.10439228006318L485.2409381551326,103.63096440832432L485.42906914321816,103.81619573792781L490.25132520998426,108.56397212415727L496.4998876262475,114.71558368263054L503.019263697053,121.72261722539822L512.9495024572085,131.73471523483695L521.8887266998659,140.74652008195025L522.9440228210237,141.8103151603043L524.840352826553,143.7916331341545L543.5830673767082,163.37168122434989L543.6285058472506,163.41914379572538L543.9590579161238,163.76441977223146L547.0324611700489,166.82654029648754L556.1866593926518,175.94640745989514L562.0992347776161,181.836231787714L562.563973269796,182.29916281089638L582.3993314184062,202.05476935392096L591.0111375574904,210.63036405463518L596.7831080460176,216.37752682598992L603.992145882526,223.55497485221798L631.2006211388887,250.63816470258843L633.405966870272,252.83293603515764L647.6926904011848,267.04963278266337L648.2059629883728,267.5603404387618L668.4766455190064,287.7270031052247L673.2937542495288,292.5186117017503L685.6153276754483,304.77359468445513L685.635417337523,304.7935741732171L693.097195936829,312.2140710973661L702.6262663939418,321.68937724215345L706.3649721111553,325.4066684020198L706.4147386481865,325.4561486693227L707.0446628357868,326.0824466072652L756.3267616899461,375.06497256623857L763.7221068715687,382.4126597224534L763.7243287404823,382.41486716694965L788.512395473928,407.0380480688997L800.5167724286338,419.3396938887571L801.3402423738054,420.18348497415707L802.4794195788415,421.3507591960457L815.9011055168646,435.1021730180075L830.5398763442506,450.0978215235775L830.8240938702382,450.3889395814002L843.723498874415,463.60039185143046L869.2794174800036,489.76795461322763L870.9177175403253,491.44516706999786L871.3634095616607,491.90143881995607L876.2457857432335,496.89953773006744L876.6280094522564,497.290807502545L881.9209593659955,502.7088245056723L876.8361010145801,507.8476701177228L871.0848187308727,513.5912296990841L867.6729515694435,516.9983127366395L867.5124294589291,517.1586060443324L848.7168508122401,535.9250841624814L848.6628660452988,535.9789787504815L845.9580070933943,538.6792709924467L842.6880079162038,541.9491181980441L837.6385880964979,547.0320879714565L828.9621864102113,555.765358720118L828.7350229258806,555.9939978962161L807.4684054984529,577.395775060032L793.5384615473471,591.4110425560682L793.2260710539241,591.7253173961749L788.9854935299696,595.9913479070235L785.4487139894725,599.5491761690239L772.5566946633003,612.5165358345423L757.4622968271223,627.6963829259486L746.3314870948892,638.8882963074346L746.1706758802206,639.049978446275L735.4419065481482,649.8360895314318L734.8418838178725,650.3753179311235L720.8920330021815,662.9106081904587L704.7238615642962,679.5592232251062L704.6916192836437,679.5924200828982L690.8918499426532,693.7994664129037L685.3214977489725,699.5334923835235L678.1664302319635,706.8981850550209L674.0456681680874,711.1393624443117L658.6167561186792,727.0171043744837L658.4626403954326,727.1756872088326L653.094060330003,732.6996786366547L651.2107523969199,734.6374133819824L626.9875142994861,759.5564440803372L616.884914581667,768.9743072321018L607.0605580364124,778.1316190283616L598.4608223178996,786.1465138134292L592.2331475485876,791.9501137889201L583.8439927298909,799.7672767981982L578.914582391463,804.3601975337821L578.0299969388938,805.3382923107441L566.1884797194477,818.4304629468664L557.9213313739659,827.5695292621308L555.4711149099661,830.2779712091542L552.3146148879721,833.7670007538902L547.2165042142657,835.6303266954262L546.9101172691845,835.9419542850113L546.8709621514046,835.9817790484722L527.445470301163,855.7369905875466L463.26831703665897,920.967973673778L415.27328119876273,969.7155490413006L410.06860934207486,975L410.12607190941816,969.7576077704223L410.22680929140256,960.5667359370815L410.40265184936027,944.5221783657721L410.5117230488566,934.5692085136972L410.53816120707984,932.1565698996907L410.89995391023075,928.208846146027L413.1458479339808,903.6998802977103L413.87332342005226,895.7600774793376L415.92555449082255,873.3589625696085L416.2631778264662,869.6732576246898L413.5735281198641,863.00564323986L411.09348909220273,844.2933060390236L409.9812138690873,835.9000622955296L413.68057736278973,802.272899471636L409.7034984485304,785.4474934266486L402.43791132432705,778.4269269322164L397.344118715012,777.9504358592424L394.0637769637903,780.7473393311786L388.9822786953354,773.7304010071606L388.6518913006378,755.9780804314192L390.5160459390603,750.921835586351L391.5776712851119,748.0422345628016L400.67389127063296,748.0590661652657L412.1272721056107,752.5174687657812L426.72026360297406,746.8857628016503L437.14162989401893,700.0098618362357L436.6581020112664,698.2130500687842L428.80556000992715,669.0288490452846L409.60709362358335,635.5083235188308L411.0741194560868,628.5055251516824L410.3659785249396,617.762824842891L404.93795671933236,603.2758531683425L401.34389452336995,598.4703860415619L395.14539945723664,590.1820568799778L394.5823098924035,589.7671448914756L387.521200879294,584.5639225416966L383.1558873163252,585.9565584271812L386.77459570704065,594.8362533630873L384.2144288009266,602.770324557959L374.02854110039755,605.5526139496874L366.05291764509724,593.8618656642938L366.79871480689656,584.5235945006842L355.92951833412684,566.289542624294L351.9395143673558,562.0786286251299L340.8348006260999,561.7891430180795L321.85728864055926,521.8614538214771L317.67909807970125,506.7573421931487L308.1600113100057,472.3387604245629L304.896334392916,469.5299789996394L300.6432658371846,466.9277799187346L298.00264133728047,465.31206654394316L296.10404547200056,465.0656121596053L294.53059400574506,464.86135037633505L269.8984112723179,461.6620048849934L268.010357723371,461.4166472317661L266.1154602589153,461.17038183352065L264.59224914152554,460.97240834465345L254.04968912432207,459.6018539683763L251.7294752214708,458.73791712586853L225.012687867943,448.78749655031856L212.31895266122115,440.816190135443L188.05201442835119,419.0708649639254L185.81073000563913,417.0621362433393L185.14260854333077,416.4633279655858L177.17591038698572,408.037147506343L171.4018685403438,392.0245602096294L166.72893280463143,379.063927829941L162.8905789043506,374.7996394051665L141.03218981381076,350.5114841936868L129.4670850020034,333.20479814678623L128.69050938408884,330.48468615123386L124.79922837733591,316.85374696648796Z"></path></svg>