<svg id="HI" width="1000" height="1000"><path class="state" d="M916.2216342556699,755.7747118966101L916.4123794551273,755.6605713049421L916.5784502617938,755.4680163169945L916.509167025256,754.9230287526949L916.6873042605587,754.7786936807279L916.745607710797,754.4068243600311L916.6849106735299,754.2283817382082L916.733273064871,753.9330991325774L916.7100610125077,753.7032430904301L916.8831144340884,753.450028539768L916.8965685338451,753.1583610588264L917.1027151854413,753.221792524919L917.315251952751,753.149841024203L917.2614917754264,752.9188726067861L917.4673201483832,752.7930606432717L917.7310773869532,752.720454435606L917.8278233213026,752.5144332381117L918.016025822797,752.4581230795848L918.4081737346469,752.0213807292829L918.6668289801634,751.812085893813L918.7746408907075,751.5989282119208L918.9799717951695,751.5690485831896L918.9473216256282,751.3457510804419L919.0966375927826,751.3333946535126L919.1585648127723,751.0360339374323L919.1592505774876,751.035028402629L919.2611867786849,750.8855529975091L919.5037215869226,750.7772555007041L919.5908543377365,750.7598363959104L919.6798774360847,750.7420367745729L919.6754564968253,750.5849802968702L919.9096799144509,750.3592687212914L919.9812413775375,750.1723837044354L920.287188744905,749.931261578975L920.827911531076,749.7168419512532L921.0864828054405,749.69975838389L921.2831184897766,749.6867526559602L921.3802237233291,749.680325474046L921.5762119823614,749.6556927354392L921.7086347230189,749.8110706876344L921.9597846488062,749.8452912794835L922.6559611746474,749.4645001719642L922.5635784991917,749.0542950748434L922.5977637520252,748.8052126700662L922.8101338889037,748.5730564195205L922.9662268160788,748.4031171843131L923.0982691487947,748.0652274613838L923.2057014526315,748.0106581243991L923.3631111884686,747.930694213561L923.3590263990017,747.7775873343788L923.355835632091,747.6579846050804L923.3521732275715,747.5206967557806L923.6007713880005,747.0326368391478L923.7654385231478,746.8323954156061L924.1212138644652,746.719064761468L924.1070806602847,746.4161803650904L924.0668815362866,746.1060114760187L924.0962425521877,745.9168380046759L924.2942339147083,745.7093569952557L924.4992580246195,745.5746948028108L924.6915486401035,745.6141199934025L924.6659985536921,745.2689551601031L924.8539250296737,745.1042025753453L924.9969299251388,744.9926233976408L925.3646577380177,744.7432335908126L925.5604268698685,744.2082296379061L925.8408249630351,743.9361835878401L926.0948660603248,743.9011734235238L926.3476264434645,743.700315024735L926.5906568073497,743.6763838054111L926.791934769794,743.6548280021436L926.8077036268594,743.2607950254429L926.8094622674752,743.2168450850135L926.8484347205132,743.0327212357055L927.0531180310107,742.8171101340788L927.0257487378678,742.5695282334227L926.9682265771906,742.3362876998012L927.0790544662838,741.7938599354404L927.1201509592503,741.5820132040066L927.2103855514583,741.4207479835503L927.2048811457663,740.99479558107L926.9196216803023,740.9134321411267L926.8311035789825,740.7917839097678L926.9647672031529,740.6110301087657L926.7101110119436,740.2978557956358L926.5049622480018,740.0455189811311L926.3762696194505,739.8872035142415L926.2556123618776,739.738758223393L926.2242102753892,739.6953544797857L925.9233767756671,739.2794866272507L925.6557755160856,739.0054666939582L925.5008919453322,738.720054030432L925.3284843160864,738.6702583144764L925.1492895850059,738.4867158361582L924.3384822436201,737.1033436916872L924.2861889116818,736.6189413607623L923.9981194096279,736.1784183764171L923.7784631081137,735.2950181634604L923.52416468465,734.2512737995402L923.51953919331,733.8413453132263L923.4162397813609,733.1146523706841L923.3491632339852,732.6425947009317L923.465105893367,732.2551656983729L923.4406021757683,731.8441365887111L923.6187264041096,731.2732753141077L923.5935937052719,731.0156203671348L923.8825550866974,730.4354635145827L924.0510348841532,730.3495784545977L924.0926301955235,729.986236433149L924.0933745786864,729.9797335525705L924.0993311325245,729.9276967858706L924.3944582824944,729.6285060820184L924.5912252495641,729.4290885124873L925.0409020803755,729.2168448285472L925.7997752224657,729.087349729242L925.9833000500115,729.1952316419375L926.4134233902028,729.0968008883767L926.8017034379279,729.2411548211111L926.8982616973533,729.4085268553251L927.2071473809027,729.5051713308999L927.3608101936926,729.4489995296793L927.7181562600505,729.6096774362738L928.1691136056589,729.8123727976331L928.2803089814379,730.0034458766162L928.5470740405657,729.9822345833462L928.9666800388873,730.1707181481836L929.1172058226499,730.2383337406026L929.2060700972941,730.3366693170622L929.2943380464143,730.3359321057188L929.382198346915,730.335195849556L929.5200257251718,730.163876264026L929.822871087804,730.3755003161062L929.9122830130746,730.4952405716863L929.9453963015434,730.5395835626267L930.1765590806701,730.5375936638013L930.3708163121614,730.664561268801L930.5653356600235,730.9305942022154L930.7806785783519,730.9961402208133L931.1184062749256,731.3184089740183L931.3977768639407,731.4511871496478L931.3834423807684,731.7059544592183L931.2568337151429,731.9155736980405L931.6878364487704,732.3571994682185L932.5767174785728,732.8948427281105L932.9049717119993,733.0826714605175L933.5368582459488,733.4441000384476L934.5028383704814,733.8434868473339L935.1013655403318,734.1160569078514L935.6382516457973,734.6017081047376L935.7155734150183,734.9996752484473L935.9164868776567,735.1431444660851L936.2252057203167,735.1655475437553L936.5458253888779,735.2247044072321L936.8904321635695,735.4856721668252L937.1495357621844,735.4467031492009L937.4127598955941,735.8407963610239L937.6097622265265,736.1062420955028L938.0286537687712,736.3661665167275L938.1895934055071,736.3411385061919L938.5568582634356,736.2839927889079L939.0681365862699,735.9577400043802L939.5521849454387,735.8529304226528L939.8894546288714,735.9724582231023L940.7014618996291,736.2600586778242L941.3845553641559,736.5226073298778L942.3122871378697,736.6595519791322L943.0617793614838,736.9243438581353L943.801486719261,737.1942903924195L945.0639394471057,737.5902314464836L945.1906728967778,737.6492879169044L946.2447861656184,738.1402372311313L946.7357671198367,738.4028323404498L946.9027358084023,738.627811481251L947.2919156604391,738.832126821307L947.6695913216283,738.9781164912445L948.3800726983228,739.2693342853148L948.5986129615032,739.3873958994938L948.762851410295,739.4761081575482L948.9594609094289,739.5822896343301L949.1367718438735,739.6780339299388L949.3821715023596,739.6845270687065L949.6041035704903,739.9140055913065L950.0990725014648,740.1974852358369L951.5824264560495,740.8816661077528L952.2420402116707,741.0458004789513L952.4053591200466,741.0864167238921L952.9002724187606,741.3412815130846L953.3745581423856,741.7464232183145L953.7337142735189,741.9382405356275L953.7761547375923,742.006390678595L953.7873431933789,742.0243564711L953.9513149385167,742.2876324474462L954.2448449052072,742.3003104788554L954.3364138262325,742.304259908161L954.314015660988,742.5199252651136L955.1695112115752,743.0294347375674L955.5735443301037,743.2699456392905L955.9969777372919,743.5219224385178L956.3527742999461,743.9313083156769L956.4348944877911,744.182070269937L956.711903128831,744.216481711537L957.2253292203898,744.4893355311563L958.0335348400625,745.1722309980049L958.6078559128131,745.7823365815536L958.8342689019373,745.894662489715L959.458807667543,746.5630960974355L959.6849992477471,746.8037315156259L959.8170263745039,746.9441703295103L960.0767116732609,747.4378635855944L960.0324634731412,747.6213878024329L960.1823076238567,747.7680793680545L960.3763871705797,747.8024116002032L960.4866622937553,747.9364860840498L960.5441946042773,748.1029753627095L960.5926821316655,748.2432805694458L960.7622133444847,748.3343663339216L961.0079244758955,748.4663595147201L961.3149143817648,748.6022619284854L961.5081712571209,748.8179789226929L961.5811544175748,749.1710883555517L961.7434939185165,749.2047464855418L961.8631252995428,749.4427932357594L961.7013938464601,749.6488112034868L961.8023610428971,750.0307902836194L961.5796874446206,750.8884509230925L961.3445197580849,751.3583226090119L961.4736326484407,751.5531360685604L961.5041723728013,751.5992131174369L961.6358598137361,751.6433754726286L961.5817263369502,751.9544568451892L961.4819115029806,752.1012589257705L961.5111824037687,752.3753264390301L961.6733124471257,752.6307871232458L961.6446854369111,752.902957714781L961.6210977339626,753.1271889039937L961.5255067897053,753.305086355934L961.5462495290863,753.4313713037889L961.5610503702118,753.5214770876848L961.5058046817045,753.976624934251L961.4987601974756,754.0346542549013L961.4979038902937,754.04170801685L961.4847297019768,754.1502261976541L961.528169855435,754.740977032141L961.534791233966,755.059150969714L961.5395816426308,755.0701626582809L961.6636340636596,755.3553008646161L961.6763056013402,755.384424554602L961.865478182347,755.5387178800244L961.921860805565,755.5847006068014L962.4219018074015,755.5544865781912L962.4540371602741,755.5525421566222L962.462603604002,755.4191844155736L962.755888373531,755.3194177161032L962.9070606629919,755.4441544264324L963.2337789782653,755.128620107872L963.5866360811831,755.1191192295979L963.6653270685567,755.0153803978296L963.8162049887464,754.816458086716L964.281753714623,754.7984165027434L964.3955814896018,754.9384257079265L964.5620146353446,754.9351985329878L964.7531631167394,755.0646687182038L964.9969049032245,754.952965154424L965.047676793375,754.803658346079L965.5701939888836,754.8974075567177L965.6766554899921,754.9805246295573L965.8693232151421,755.2759330487434L965.8988213368913,755.3121202758724L966.0726462450348,755.5253453291174L966.1006169047201,755.5967080356394L966.1953669968708,755.8384300780949L966.3610960447911,756.2611642641393L966.503800278576,756.4573764206295L966.6558088250127,756.969743276173L966.8052524242115,757.2221593007946L966.7686449224005,757.6116289766621L966.6082072615773,758.0119496438559L966.606694283246,758.7386595272967L966.8194586032336,759.0325842814764L966.6785716546843,759.2270386682824L966.6915265049012,759.3454866170204L966.7061713918849,759.4793804321483L966.7860824166899,759.7587353593077L967.0353290293649,759.9862318930001L967.5275543417376,760.2541249771743L967.715809717466,760.4472768077883L967.9747511236346,760.4020150727924L968.1805800505681,760.3830981168866L968.4053569441801,760.5007802082564L968.4067625926062,760.5542373168769L968.4105393534655,760.6978661223701L968.2763270652505,761.0159228912247L968.2895747707702,761.0920828754716L968.3350313909865,761.3533913957857L968.3374472490199,761.3672782405642L968.3477158919638,761.3747836048311L968.695487840521,761.6289365738392L969.0180577380572,761.8089038298621L969.1646270560773,761.8988894560482L969.3372551725611,762.0048606038738L969.5515218600196,762.4219601898999L970.0056176190374,762.580371546746L970.2807157499442,762.9639443490178L970.4556918445796,763.1358106764203L971.0023374791707,763.364769816939L971.1290178202077,763.4178124390413L971.1767034879127,763.4734015142101L971.3473730512093,763.6723410637699L971.5436055837267,763.7310701092257L971.6777521528644,763.7258311638665L971.776913344142,763.7219548938739L972.1514740230925,764.0588291820644L972.9378781326976,764.170426057181L973.5419192297384,764.5599112793575L973.7762506713503,764.7181607748182L974.1232162284449,764.7196111320042L974.6065737403005,764.9849477396135L974.7736625136082,765.1073752927948L974.8623266932948,765.3244199783387L974.9879619872795,765.4646322715076L974.99268646471,765.5319866176139L975,765.6362488831437L974.7738453607129,765.8377139164762L974.8040127198428,766.1112916356052L974.5046739191639,767.1638436229913L974.4829327139324,767.240270067353L974.4096544502451,767.4978426134516L974.1113264673747,767.8843440424356L973.8997026741483,768.0365165883197L973.7275835482692,768.3678334670184L972.3611277817679,769.6701976289055L972.0432855517581,769.8459386551427L971.9565413347593,769.8938933187095L971.6903807202686,770.2059509221739L971.4037318238061,770.3509285710194L971.2475130111418,770.7153388542895L970.3211003381008,771.184766109029L969.6420974737416,771.790166824747L969.4209194359406,771.7858312874968L969.1765570449087,772.3214290400938L968.4908943228814,772.9106642469412L967.7214782797142,773.6386082787369L967.6940604684096,773.6726741216959L967.5469315844488,773.8554646894377L967.4353597525894,774.0611394058985L966.6341026226299,774.5122810946451L965.9060523031873,774.9225235355877L965.5624639393121,774.982666779558L965.3607858670725,775.1691413472348L965.3225754901526,775.2044680666583L964.2449573368499,775.5882293748543L963.867028174153,775.9074627836347L963.241191707172,776.0706026212439L962.806580977357,776.0578233683963L962.4758799958483,776.3642749950244L962.0060213539339,776.7724053389458L961.5642850791362,776.9136922220833L960.8995155669837,777.3751858482142L960.5358948169101,777.7041718801748L960.0858736738487,777.9841674611023L959.7942533108982,778.007361622165L959.4971280003255,778.0279365358227L959.1793524442995,778.2378146703887L958.8120318328342,778.4408637995201L958.5358477835207,778.4916242178497L958.2108251308655,778.4413694818556L957.9775889481591,778.5148038178014L957.5151468079682,778.563601402717L957.29306354782,778.7160665269554L957.1818443827505,778.9248347776337L957.066592057215,778.8634126903236L956.9048637764379,778.8321207471813L956.553660285037,778.8671886099456L956.4370521610871,778.9204165599913L955.7615136277079,778.7203118000212L955.6368097936613,778.7451433107069L955.2499112654519,778.634224333659L955.1818578193631,778.4765055906973L954.7637781516648,778.3393412378405L954.4839859130885,778.384975311798L954.1750570736245,778.2567329521123L954.0246592041344,778.3182304489751L953.8498759370822,778.2282607918235L953.2579749313628,778.4895900735396L952.7810024526817,778.5356383063292L952.4119519581683,778.6147693328694L951.9933681884288,778.9587911365522L951.8826441465588,779.049774132988L951.5966542527315,779.4449468835682L951.3625928062157,779.6702034969533L950.9785086573495,779.8428470845816L950.5172471666224,780.0868681869658L950.1810991550672,780.5634364577007L950.1661138849009,780.5846784147944L950.073152961518,780.8341064289135L950.0468004256259,780.9048086395453L949.9779686544371,781.0894683839915L949.8433328225412,781.1941244517672L949.7939738284426,781.2324899074163L949.5611358438451,781.4134498086411L949.4655565118288,781.4877242699854L948.6635078075209,781.8549912864418L948.0894300563414,781.9314085479017L947.8426745041551,782.0675246271435L947.7117607668998,782.1397286610742L947.4839318406548,782.4538138282351L947.3009424618027,782.5175361700283L947.1105971034937,782.5095554097162L946.7550730993129,782.6424889253229L946.605036361266,782.8621809447618L946.3121956968012,783.075789687623L946.0421225650799,783.5274796595131L945.433213446256,784.0075487727929L945.3002058064146,784.2654597355661L945.1126575731292,784.4444966696009L944.4668495283162,784.7056313512007L944.204789315879,784.6813456243542L943.8423760640451,784.8266623465928L943.5274555334872,784.9999195690982L942.9263754655814,785.1183348338293L942.7103176668982,785.1833836851339L942.5404758936659,785.3087665096692L942.4868173800437,785.3483757012875L942.3022901725067,785.4805019521248L942.3219999374855,785.8483181715596L942.0849643148136,785.998951019503L941.964387303566,786.2691359225884L941.7208443534029,786.2759928294786L941.5657808510198,786.3643841058937L941.235822901257,786.8082763481327L940.8387179984151,787.4191900004791L940.7781202180324,787.6542049683097L940.4795219540416,787.6765902666926L940.3692608176129,787.8367288418495L940.3027601962523,787.9333042307868L940.2149463662629,788.060823292759L940.2915311947193,788.305783580082L940.3164585775414,788.7110324616216L940.3794822563658,789.3592748642063L940.2823291529995,789.6706779414394L940.0693285004005,790.0746604710683L939.7609202476111,790.5152105799704L939.5935142102463,790.6490548677461L939.2592660838908,790.7747060841109L939.065126719566,791.0566928352854L938.8424215322884,791.7497206297088L938.5906380152835,792.0081026337809L938.430525640402,792.2020775448689L938.4385066337145,793.0746948077106L938.2878052542096,793.2325275597505L938.1874700015366,793.546376644051L937.8595037382364,793.5269908393493L937.7012218986481,793.670103088423L937.5387583940409,793.532673350903L937.2249678693827,793.5922063562928L937.1246812817568,793.8417889160818L937.0982378490024,794.0957391148831L937.0935524058051,794.1053335755375L937.0609391800059,794.1721149149926L936.8681524578067,794.5668329810138L936.8646686485664,794.5739651138792L936.6576433402253,794.7085772693005L936.6375692949173,794.7216287017234L936.626246442758,794.8537850033748L936.6211946871204,794.9127446087073L936.4929342206732,795.0428740695522L936.3652609936764,795.1723953220999L936.1162963640575,795.2327075798821L935.9946965666634,795.3271717551154L935.8268298908431,795.6262218185713L935.7501475636234,795.7035379448979L935.5850807686018,795.8699540190446L935.4530773879129,795.9472393264226L935.1590844826827,796.1193374055068L934.9129619570001,796.1754385442923L934.8770426818068,796.216549086826L934.7248708912272,796.3907010316871L934.5197232068546,796.4485431552459L934.5122862881159,796.4506397475957L934.4637623075376,796.4578888366611L934.2661749799112,796.487398969366L934.2043177364984,796.1095110051908L934.2557269968947,795.7772251277556L934.1983191123563,795.2968929653533L934.0018542400829,795.0336889052455L933.5819221430261,794.6978281480101L933.3735448579898,794.6288595090407L933.1634523592797,794.5074274444163L933.0864023133153,794.3101332469682L932.7272045771715,794.0061129808632L932.5200674437547,793.9723611977066L932.3102572361614,793.7036010674112L932.05287717177,793.6495488715402L931.7784502633625,793.5326319775778L931.4722852640833,793.5257358752941L930.8354264971686,793.2287134779615L930.6248602756219,793.1779902021913L930.4371751533288,792.8922752475868L929.8448967619961,792.5511053914473L929.3561554140877,792.1511092037177L929.173334723897,792.0918319063921L928.6360879341919,791.5535771948854L928.3384546539015,791.5494143825882L927.3858350540214,791.2654569552958L927.019076853823,791.1560362321476L926.6068214482514,791.0956493943688L926.2985429763818,791.1076055781655L926.1087504907786,790.936466308491L925.796186577318,790.848939304581L925.5113051237145,790.5949695309997L924.9180042613381,790.4118747738229L924.8245306066128,790.2572435651247L924.8265126907041,789.7614852463628L924.7370632103284,789.4879350873716L924.5949261198474,789.3045050172005L924.4130202087122,789.084056311066L924.0725131680271,788.5466254512296L923.7706703308966,788.2216107132228L923.6198897741059,788.1064098354337L923.5949376331486,787.9922602458195L923.5754676959426,787.9031863590645L923.4122481961666,787.301236935581L923.0660157357909,786.3679886370732L923.1259274184109,785.7273745607745L923.0648982447459,785.391760306381L923.2486956740487,785.1128227085201L923.3913450326337,784.8070217420469L923.4331734940597,784.54891040589L923.226706513381,784.4784660034027L923.1403802942011,784.2820276064284L923.344035284138,783.8344712856501L923.5039995134346,783.6825545606475L923.5197014597404,783.517557522619L923.5428507728457,783.2736889600558L923.4123727982507,783.0489202099452L923.5261337853092,782.7780671737064L923.633727127838,781.9882280831624L923.9308986521861,781.6014273126933L923.8395100776547,781.3458378372147L923.7888162903749,780.9638518228047L923.8556076674496,780.5002438264485L924.0144528617942,780.1087184314924L923.8548611781396,779.7488676995018L923.9119867260904,779.2943969154733L924.0765192495847,778.9835763896216L924.2729445357844,778.2999920456693L924.2820149024102,777.899504842504L924.4024013580598,777.6739640679925L924.35487258798,777.4501598574851L924.4168474561576,777.29973386364L924.3348521602885,777.0941557972149L924.4393954711594,776.7895747909545L924.4415010473883,776.4681735911258L924.2996994479091,776.2054703243937L924.345442878233,775.9224984081587L924.5540814419228,775.6634817964722L924.5479821346183,775.1942478543632L924.476148753758,774.8596562801193L924.2935745828935,774.3480804111274L923.8986184561227,773.2493035504812L923.3262878737861,772.3310192955897L923.3459408908552,772.1610796131013L923.6025585370988,771.6425515721893L923.5968095911574,771.6352105658481L923.4033335399456,771.3881353427832L923.1547973529035,771.1427882793439L923.2568602023003,770.9851461827176L923.211679891609,770.8962462144333L923.0197064484319,770.864137820314L922.8975460009806,770.6464954787625L922.8185913214127,770.3749208712711L922.870856441839,769.8839090533883L922.77503329889,769.7162164150075L922.7895841157781,769.5158129490839L922.5136538267066,769.2373092337282L922.7591544079044,768.90745345685L922.8070832937126,768.6027564417703L922.8838940936192,768.4128931024803L922.7493426604559,768.2514061339191L922.6774712369543,768.112895988194L922.4025382972966,768.0370864804015L922.2467013401628,768.0603102115473L922.226379606863,768.2200300295556L922.225139764395,768.229774261843L922.0628437362832,768.2329433168412L921.8840182770241,768.0346045410038L921.627305486697,768.0320492207322L921.4432806252157,767.859724176058L921.5450755391203,767.4203777597659L921.3713648570798,766.9517597581032L921.1015151955295,766.4967474323113L920.978764804671,766.4529161693433L920.9751073336744,766.19678933904L921.1726558529758,765.9474266891199L921.1495899787928,765.7265327996429L921.1242378183156,765.4837201783196L920.9562123823347,764.8823600997305L920.8701568696389,764.6261303762059L920.6903293203826,764.6513374136825L920.669997835691,764.4816372817943L920.683370324902,764.2585723903551L920.6936758202356,764.0866515758366L920.5629412068826,763.7508249909662L920.4531374646685,762.9122485668382L920.2056752570859,762.2672195737139L920.1940662079763,762.2369547994557L920.1794405593411,762.1672855747009L920.1086347253191,761.8299717749532L920.0950705661991,761.8137288767767L919.9347682922614,761.621755944568L919.7197446948629,761.364212503015L919.6594583448673,761.1869784668437L919.713218437983,761.0237442831775L919.6737701181619,760.9556108595076L919.4893924964355,760.6371284958702L919.48880029605,760.4432209843985L919.4146951574822,760.3898453041554L919.2842757584004,760.2959009467421L919.0448190756218,760.3914481471946L918.9768381302995,760.3498141088932L918.4128496433452,760.0043214058483L918.2982825501767,759.882470464074L917.9564710472708,759.8943852115515L917.7238318741267,759.7598707215086L917.5609274970278,759.467679158413L917.6205180564581,759.2549242479603L917.6258772221703,758.919149183936L917.7699693657472,758.8518756827459L917.7728759177852,758.8264952324085L917.7913833728306,758.6648784103647L917.817869837161,758.4640680574811L917.5563632837647,758.2975084363015L917.4302557652869,758.0735488050618L917.4712887773533,757.9235073911336L917.382983701989,757.7687040090017L917.2397189463247,757.6585091376909L916.9957358355229,757.6398055022178L916.9623154915123,757.5808036756554L916.8260600510582,757.3402325920053L916.8194425919655,757.3059786244867L916.7961382684495,757.1853442573237L916.7735836438768,757.0685845384651L916.7591634112382,756.7365988102517L916.7521369850234,756.5748187387579L916.6104671943317,756.3624267530323L916.4309554426304,756.1666852512269L916.1871471008293,755.9007908878382ZM886.7985974541622,697.2666593707912L886.8789534040193,696.7715926214114L886.8921894088619,696.6900360079492L886.9068674579582,696.655940625999L886.9972114029555,696.4460692116261L887.0203193629076,696.0846354382904L887.0410407820154,695.7604823752924L887.1300676748233,695.5903252679794L887.1393279348248,695.5726252358469L887.2033327214267,695.450282065994L887.3097273480241,695.3226048956667L887.4204201811514,694.9438452432701L887.6142184227074,694.4853847457215L887.7148766430922,694.2655911238088L887.8544725020467,693.9607332060596L888.0953063889681,693.4902939670717L888.1327890554468,693.3566224946958L888.2814533427272,692.8263692191867L888.3891589912753,692.9605085419902L888.6357066093448,692.9503143654599L888.7056249814619,692.7610571455392L888.8172939669056,692.9435848159341L888.977322925738,692.9165511947423L888.9966097062304,692.8825523496462L889.1379685681203,692.6333445319408L889.1400906327848,692.6296031867136L889.2150261540191,692.5796778379023L889.3892020651886,692.4636228493196L889.4456970618565,692.307788052793L889.3908934843922,692.2195648488619L889.402847013147,692.0361455799664L889.6786572025737,691.9038014449354L890.0493637577767,692.0756222402453L890.4273640778064,691.9881832132255L890.5488224044934,691.9803309348264L890.6701577859264,692.0390859772549L890.9118039427686,691.9732097699145L891.132195785234,691.6552073140989L891.5722851558281,691.6687366146995L891.6268345435165,691.7656359756138L891.8085012405932,691.6760008679024L891.8222267386793,691.9997883091219L891.9941882831808,692.1248426058129L892.0021945544665,692.152464462714L892.037865773942,692.275526632947L892.2558784227879,692.3617615668179L892.5003417101589,692.312875828185L892.6843418216545,692.4080861868715L892.8508546805325,692.6090668752598L893.105092524682,692.5104562463007L893.3417556910928,692.76859621148L893.469962836602,693.1574023593641L893.5892943557018,693.2773828301267L893.7654927935263,693.0797855093448L893.8565661183682,693.1294175639117L893.9691847163089,693.3937491712303L894.1086089868076,693.720972799182L894.2197712539058,693.9313343392242L894.435445480822,693.9478091478771L894.6909217879125,693.8178644019082L894.7083464919438,694.1231411870923L894.6763911661142,694.5427112550329L894.6992367585611,694.9478911406046L894.8924287491998,695.0633934505738L895.0201373725034,695.3272300213716L895.1182082450606,695.5450434146792L895.4211260440155,695.7493142749762L895.4629767666313,695.7775322682761L895.4880830107602,696.1455228076928L895.515633314339,696.2946114575624L895.6538124686834,696.413742582276L896.0119924571317,696.5887928532278L896.1900725736015,696.9852744832154L896.2360436887774,697.2207075416637L896.2378093966805,697.2297497860903L896.2283101922502,697.3069423497047L896.2230270121729,697.3498734301446L896.419686781326,697.6390789602253L896.5162186771654,697.569308393214L896.5393436058444,697.6047484871325L896.7101533159944,697.8664997684367L896.7220528147899,698.0629459511795L896.7414648181789,698.1128360683638L896.7751921244161,698.1995144600857L897.0251555786419,698.0862448504242L897.1522564270871,698.0704332868542L897.3124241453207,698.1744067493211L897.6448009685103,698.2179845565377L897.7515934812668,698.2319784206547L898.1467369159357,698.2495279435752L898.2778648381953,698.1819854041626L898.7377412402692,697.9450484144122L899.0151430692953,697.7720938307311L899.2682806790301,697.6280412032388L899.4325794083647,697.6025641882819L899.5658954452707,697.7042250263003L899.8948788187265,697.6334083209921L900.2111098987887,697.5033749438803L900.5740862294922,697.465587457551L900.7278737146718,697.3759961801522L900.7363502341265,697.3710577270563L901.176165747496,697.3262857792139L901.2894003147408,697.1669412923143L901.4353156405821,697.0754954377164L901.6381890236594,696.9483360734895L901.8350964759969,696.6713252077159L902.1215523789001,696.5279602360624L902.4637935322329,696.35662934926L902.7525758119156,696.2194989883926L903.1193604997273,696.208012470277L903.1253611207121,696.2081965476516L903.3298752848004,696.2144634232632L903.4823538933975,696.034170163029L903.6948864717685,695.9165952074108L903.8644901740411,695.9707467257884L904.0141354334058,695.8000992238905L904.3246671379611,695.9011107755582L904.68900083587,696.1600096109938L904.9446815190198,696.0885284787164L905.1837188362052,696.0138514247225L905.8294739347785,695.8740034333642L905.9702264317397,695.9945315647838L906.1514278155911,696.2762508555899L906.2228584597626,696.4097008141206L906.4416232776852,696.4011195271322L906.7295181291962,696.1648784805358L907.0397105260572,696.433933610625L907.0447627729674,696.432403279569L907.1355202535825,696.4049111711598L907.1938534710927,696.2453071816915L907.7474010011449,696.3457899850632L907.9764577257745,696.5850113429434L908.1291451148959,696.7045558452769L908.3376230013561,696.7000288893458L908.399574783545,697.0643805663178L908.3698901778048,697.3576279927368L908.542280149112,697.3692429586625L908.7292977409049,697.3351921390304L908.9419987155311,697.4259130826724L908.9582265725171,697.4328338207757L908.961678599288,697.5320035660445L908.9679358766753,697.7117516019698L909.1384832934916,697.9598940531292L909.4640920573142,698.2047227137176L909.6678961410811,698.3461044230237L909.8599396506246,698.3864120862665L909.9013815329204,698.4347355089595L909.9627679701623,698.5063123814547L909.9278788888919,698.6084656573163L910.0049067382375,698.7098277830104L910.2494247405176,698.8644899934095L910.4510304298291,699.1072400749919L910.7710693102413,699.2375908962124L911.1205820870139,699.5091917195629L911.125622476381,699.7861111924339L911.3647070020533,699.8985172246452L911.516567045092,699.9618656468488L911.6236036197735,700.0856128327785L911.7868623639152,700.0712116921055L912.0349350747026,699.8062128383856L912.1570154630306,699.8006013687767L912.1609957122296,700.1531336194091L912.7956001391802,700.0853118842866L912.8335631878502,700.230314251817L912.8443283417377,700.2714306622253L912.8564309525326,700.3176544013933L912.8941459703957,700.6395659250506L912.9265382334154,700.9160087042693L912.9348212900362,700.9866926532775L913.2405728078621,701.1056890829882L913.4948401324413,701.5297925614102L913.5117357894788,701.694276029872L913.7932748693585,701.793085770038L913.9777158445598,701.7760373816652L914.4122577051268,701.6768022859175L914.7473975753011,701.585202867052L915.0168635836142,701.7703681860255L915.4684376031747,702.0805505841686L915.7629208119474,702.2003043198833L916.0426990429826,702.4748873692931L916.2819917253829,702.6000875310996L916.5737134703247,702.5947996754348L916.7593981965722,702.6956440033578L916.9670531594652,702.6767428092098L917.1600785887945,702.7124367206345L917.2351139215509,702.7263087569087L917.6510980761561,702.8617312431661L917.8297896030857,702.919884289501L917.9522023675315,703.036436736457L918.1414941395501,703.127956729587L918.4069351320607,703.1375082046185L918.6207786926689,703.2913037044979L918.7700768696334,703.398663422815L918.7704126132654,703.4248298531647L918.7734921501269,703.6648261149029L918.9430109031755,703.7123959213914L919.3494702977064,704.1286711204414L919.4801859997954,704.275654448372L919.514119887611,704.5595318436411L919.554268129009,704.6285420669028L919.664297721372,704.6558119235035L919.7257755545069,704.649537657571L919.7658083679732,704.7130934863764L919.707683746535,704.7623400488559L919.5719170116128,704.794214509366L919.4655771508034,704.8225868827587L919.4246659539738,704.9487283774197L919.5062035128998,705.0680839837917L919.5426490471597,705.1481265764006L919.62944886643,705.1411294970483L919.732314089269,705.0799962698188L919.7633740439633,705.1400185727454L919.7539658320857,705.2786790740264L919.6604989325585,705.3370133227066L919.590268439091,705.4278977098433L919.5925719109327,705.8345091042293L919.5873192981342,705.8732109035631L919.5387046549371,706.2313750153045L919.4634734084754,706.345887563645L919.580948226398,706.560525109037L919.5747450798578,706.8202090261735L919.3736416061632,707.0856049745001L919.381594466362,707.4877883605042L919.1108815108432,707.6242809404285L918.9606932607915,707.882297373853L918.8810437643776,708.1434504559545L918.5704422826277,708.4768188105463L918.2306242542734,708.7751648669641L918.0406717741115,708.6938318621854L917.8748069100909,708.819315649665L917.6549064069413,708.8824569789755L917.5085625122239,708.9181007776589L917.3768170961478,709.1273370153104L917.2453625467466,709.2028770795546L917.1060645740142,709.376398822513L916.945649589005,709.5125932198391L916.9659257781311,709.8172400678592L916.6811861140453,710.234355968848L916.5318291261027,710.3348945875465L916.2776352079877,710.3411532328378L915.8515485522536,710.536227095507L915.48355730771,710.4715257336227L915.2033489651985,710.3138799155832L914.926667074974,710.5283529814479L914.5164089211819,710.7761631734872L914.0385013506398,710.8134583994757L913.7323705181556,710.8801938724637L913.6617645130269,711.1087623084386L913.3425073760869,711.3502284800685L913.1305337290325,711.3565351704988L912.9405388441405,711.6997691716654L912.662732936015,711.6714753331848L912.5828017490048,711.848623825808L912.4337800736455,711.9457487256377L912.1770535351494,711.6558316201681L911.7254100975429,711.5447321375548L911.3060797092239,711.7629726371921L911.1589377204766,711.6258695818642L910.9837105142292,711.8039633548175L910.6883105307821,711.7324464225005L910.604853620846,711.5142388999196L910.2340745200349,711.5184252393084L910.025393811939,711.4415297526568L909.3797187332955,711.59247494427L909.0130587708718,711.7072411814321L908.7500529361776,711.8310533330997L908.5768746462727,711.9125626423883L908.363500899958,712.1188764356541L908.1618666623057,712.2420918823917L908.0568634980079,712.3062497972355L908.0161171581916,712.3081904263383L907.8664178970951,712.3153156180409L907.6175956398872,712.439193221504L907.606893715972,712.4445206394392L907.5037038734591,712.5770723687792L907.3828315234041,712.5571743169596L907.228904305042,712.6592314733798L906.9950257776096,712.8142747015842L906.9888222330795,712.8183867834202L906.9246278609137,712.8629057788092L906.790212930917,712.9561158064939L906.7578028911431,712.9463562118297L906.6543362759846,712.9151969175306L906.071311748078,713.1668398058923L905.857137744083,713.2356874630012L905.7949311657832,713.255681047832L905.6422184558502,713.4494032155555L905.4490667334821,713.5652586665492L905.0411271228669,713.6836226115864L904.7952339714707,713.6497783400212L904.3601239808006,713.6180596524754L903.9616881919972,713.5889612663804L903.5288022552932,713.6606831428993L903.3775322090378,713.788316024243L903.1955549267022,713.8156037083143L903.1094374128941,713.6831343258524L902.7817925244043,713.663261396362L902.7082127845822,713.8102527857573L902.5052220967708,713.8172241183529L902.3716461137107,713.9135640054075L902.0248447867828,713.9572900154554L901.8998665560282,714.0457403925466L901.6234946177708,714.086048292696L901.3837410412768,713.9411572830812L901.0276740196566,713.8855555431886L900.6057262193707,713.8452708566507L900.4970360665587,713.8561511341511L900.4422990480604,713.8616290659805L900.3509749814936,713.8707663802101L900.2515201194262,713.6865349919376L899.8494667997431,713.6918835851103L899.7616440869597,713.5195133383515L899.7801837027619,713.4045304672536L899.8310357847881,713.3132500357528L899.7791391082152,713.2015980449152L899.7791776946672,713.1622822338328L899.7678068274914,713.1090302707983L899.6271693698184,712.9876472022875L899.6269469237668,712.9875689915506L899.5460430998791,712.9591224513584L899.4827398574694,712.8906122406075L899.4357820910232,712.913391931143L899.3633771445591,713.0388327014915L899.2733024257327,713.0628416182511L899.2138295265374,713.1499163190788L899.1112966536228,713.1110705743326L899.0002826273538,713.0417041246441L898.888502826176,712.9990025392773L898.7811746621522,712.9355389260979L898.717618491348,712.8622405251265L898.6997230635604,712.8116851718119L898.5427701407899,712.6381339991499L898.5674809003175,712.3834581539111L898.7182221115339,712.1602028993293L898.6104030572212,711.8027031080395L898.2952504614564,711.3879661726436L898.0136308383442,711.190984168106L897.9457135735037,711.0263954473623L898.0863551630839,710.9236162325358L898.2338819075269,710.8899481125445L898.270819008388,710.6543594427642L898.272077463911,710.6534115181902L898.2817287509158,710.6461417099559L898.44930924189,710.519903589826L898.4923813273391,710.3450946883405L898.5156792598657,710.2505336001338L898.4747598141797,710.1899281961917L898.4094599120923,710.0932085820014L898.4156096179521,710.0784935315132L898.4930749119994,709.8931247561189L898.4603368295851,709.6135177666262L898.3574246179799,709.5410865427089L898.3462558542336,708.9254553793027L898.3320988317851,708.5991184416027L898.37091138631,708.3470138408157L898.3105572733346,707.8650464494816L898.3054428736646,707.8241996655648L898.2242040073999,707.6589130414628L898.2916583364604,707.3748960962796L898.2638560583987,707.2056837003033L898.2273040887335,706.983198006188L898.204628289845,706.8451626702864L898.0757548275567,706.6783072926851L897.9908383312954,706.3922444423775L897.8651046057538,706.2199393141922L897.8311469136661,706.1734006194279L897.7132206368417,705.5749570643962L897.6670714362872,705.340716829428L897.6825669273786,704.4714111650998L897.6426689918655,704.2518090325349L897.6102889097119,704.0735693313303L897.482693188476,703.9160606029621L897.0752809961455,703.5282220475269L897.029786661964,703.4849059124734L896.8637654457115,703.4274920778211L896.3597547186213,703.2531309768907L896.3161957887916,703.2380574394116L895.8463092072303,703.1859115379124L895.5489427076293,703.2513427423353L895.3330873718202,703.4808497839505L895.1255157304827,703.6160120920468L894.9329008236574,704.0042306488001L894.8355632306017,704.0651797816262L894.6376964611404,704.1890620073552L894.100073618816,704.2562347991409L893.826097264686,703.9829150187015L893.8183825478424,703.9784601601227L892.7791427897903,703.3780960733588L891.9903366754876,703.2483459395715L891.6375180690785,703.0405712667687L891.2660303025665,702.7166918576312L890.8701740447085,702.5191026371689L890.6431521899455,702.5108599356738L890.4002741007616,702.6231046222673L890.1912587672847,702.5538066171936L889.973840276843,702.3085517283845L889.8479556745178,701.9033442523029L889.53193077041,701.562369538913L889.4301040081074,701.4524856029102L889.3884926894842,701.4075792002125L889.112172106892,701.3165759323796L888.9723771241368,701.1450497895611L888.9138660000023,701.0732517704807L888.8275344596037,700.9153731986423L888.7861138462572,700.8396204747155L888.2931807783041,700.2984509723082L888.2573249034627,700.2590781523469L888.2372028600051,700.236981936779L888.1481964500548,700.1392388948536L887.8784748226262,699.9747917221412L887.6621069448307,699.624895520348L887.6473833555885,699.5576120248721L887.5941352081845,699.3142618813686L887.4472860201699,699.2078375390842L887.2832232757993,699.0889239719527L887.1640116673233,698.9575333126971L887.2444587175959,698.8619875384948L887.2791126651605,698.8061522648934L887.3432357295279,698.7028309174524L887.331533863354,698.5012697030356L887.3372660689155,698.38871621406L887.3589054747148,697.9637724964253L887.2217061963512,697.7615656164486L887.0764502414975,697.4607959441787L886.9221643627176,697.3530011037165L886.8346339539588,697.2918405416104ZM886.5815409223072,716.3573578430529L886.6595571978123,716.1068101463732L886.8690803614085,715.8402045863724L887.1525926663419,715.6400342243969L887.1698816306595,715.5472253000058L887.3144352190506,715.418374699299L887.4830622261521,715.3034217214978L887.5677383624272,715.1988356408408L887.6274578730118,715.0308755643179L887.8173721702399,714.9488970518595L888.1707560539437,714.8851991307333L888.4384920065226,714.7419226827968L888.8663843526409,714.6724359036278L889.0955716621472,714.6178775116748L889.2671599303703,714.4430589405329L889.5378092284582,714.2330251138786L889.7084905001796,714.1760621161341L890.0977867609138,713.8380870065948L890.2129055986609,713.7732963167117L890.5678947711002,713.6058596034798L890.6856437776773,713.404360994713L890.801842951877,713.3148066061576L891.3386952663668,713.0213338851498L891.7531484311475,712.8248270484819L892.1308330731443,712.6990477322488L892.3435344785078,712.6663090495041L892.6612582273062,712.683346585709L892.8178583145068,712.7370876960396L892.9402028609112,712.905899202607L893.341668286497,713.0968747400618L893.5198291122981,713.3616999860877L894.0104803889692,714.0118207037164L894.0209692921711,714.181444613001L894.0579959589031,714.3858464108974L893.5957418980411,714.5665771085064L893.6542751061448,714.8156559896914L893.6001588564442,715.1950567908684L893.3478866153913,715.5189025551813L893.4096232056229,715.6065672073357L893.3139456147464,715.7665198672262L893.3127617496417,715.9439444227327L893.4657979889071,716.075904614467L893.7928040056587,715.9211919963027L893.9150160229285,716.0042513792162L893.9905314197633,716.0868805558289L894.2557795502282,716.0675794735748L894.3377600131861,716.3715281192716L894.2220182043485,716.5256172923241L894.0006983443549,716.6842364798044L893.8994682255346,716.768935953196L893.9109705855262,716.9727734812852L893.7167982765105,717.1687397933546L893.5807216542431,717.1443602498937L893.4837585780477,716.995608364904L893.3453706604488,716.89981345184L893.1583154009714,716.8566494842618L893.0652657988686,717.0006364090551L892.9172509514159,717.0218876776333L892.6960203281433,716.9645533947728L892.5308295758941,717.0197073975332L892.4208512787146,717.0986732037939L892.3916113626004,717.2095693002716L892.1685171713352,717.1973456009355L891.9555844240859,717.287814171016L891.931715982786,717.3608592607519L891.7726609769268,717.3404573604043L891.6020851309172,717.1631160805098L891.5150835827709,717.0016832025941L891.0365583445049,716.9769752669894L890.7673096915814,717.1117613445516L890.7006418691532,716.9389614324351L890.1646230883646,717.0629523850919L889.76784003984,717.2332338810047L889.3296456252141,717.4987807163726L889.1775087917608,717.3851042846818L889.1324987547778,717.2882409457858L889.1525990747202,717.2056480571785L889.0971289218246,717.1179994585322L889.0640126937534,716.960575511004L888.9530634168008,717.0311428679828L888.8404898168569,717.1960496657198L888.7833245461105,717.2109615269901L888.6883055343351,717.3561504221994L888.587179281382,717.4729961920002L888.3166093225138,717.5620756574024L888.2617868299579,717.676568248601L888.128803404237,717.6950569544936L888.0098846514671,717.5479871757536L887.9344941429825,717.5812169966906L887.8382657049077,717.6889561249743L887.6402184381303,717.5395239963092L887.5193559985995,717.5700120723725L887.3897955222191,717.483294953501L887.3631163524735,717.4026960087427L887.2291631795634,717.3204345323647L887.3523942505943,717.1354930645022L887.2598539056969,716.9816950766598L887.0990935337965,716.9245620041879L886.9612968290195,716.923868967057L886.8302325727681,716.7965573874028L886.7634486679462,716.6267842846496L886.6802742936823,716.6508786112244L886.5353306699088,716.5100970416444ZM870.1637144474178,697.8459534692037L870.3461369319926,697.4290444276796L870.5452454839981,697.26040117349L870.7300014944478,697.2289365495451L871.3091815986412,696.8520755819577L871.9404934583158,696.6805229907203L872.5977220973506,696.6695245050967L872.8706097144125,696.6068010336204L873.2408733692554,696.610323809485L873.5354042392154,696.5586390151342L873.9589347883199,696.6932698346005L874.3823565611572,696.8387369052496L875.1227470833012,696.8671630799907L875.5743082501359,696.905422710889L875.8041919966015,696.8452066055614L876.4544070842195,697.0202634888849L876.8153357108685,697.0386905316391L877.4961585493428,697.2771819739515L877.8204685590799,697.4373398069228L878.2085022275504,697.7983658421891L878.3101943344319,697.7957784670014L878.8941785719995,698.3663423782441L880.3810098523331,699.8180249564837L880.7558726021598,700.1982816900709L880.9182777558193,700.4523426106083L881.0912322340034,700.6446205837925L881.5170256623003,701.4570280481984L881.6305787183901,701.5835497714498L881.7954229864948,701.8853263328843L881.7754887308836,702.6249686884133L881.4070608727573,703.3508541254307L881.047478813144,703.7776414110527L880.7458890897268,704.3890590507377L880.6776586050426,704.5668670279199L880.559062051542,704.6164340765507L880.3528080051603,704.8903936589691L880.0848759602476,705.0224971132324L879.8587224416955,705.0368657464797L879.6615496697237,705.0026421969117L879.4166219281866,705.1622300554994L878.9861168672609,705.3048705713037L878.7409839438798,705.5613152360349L878.5166239583265,705.6999268469376L878.3402425408706,705.771331750342L878.1726074125586,705.6573814949322L878.1470202473199,705.6399872705928L878.0960731990424,705.6817750659474L878.0151027055556,705.7481853757797L878.0170395912503,705.7781589011149L878.0248473309534,705.8989799976006L877.8844427738003,706.1131140377115L877.7596941510992,706.0798806333999L877.7189986314796,705.8987571111415L877.5444957958247,705.8645769747554L877.5389253848173,705.8693014697398L877.3856765150772,705.9992703294214L877.2407287554248,706.0381318699402L877.1246959637931,706.0692357849789L877.0922171142695,706.0618442015005L876.9554000833188,706.0307032249129L876.8218353047743,706.0002963217928L876.6643127848722,705.9901817043744L876.5914710586234,705.9855018054642L876.4497526970592,706.1141512979906L876.0437345587128,706.0435295304209L875.8462860448763,706.1399292737665L875.6970862242371,706.0238898695245L875.3476928861567,706.0556908377663L874.8765569712207,706.1165453997056L874.7233055709247,706.1745923093091L874.5302528317671,706.2367458599737L874.3901616300702,706.1651020804637L874.397085239508,706.0047074615477L874.0900892114419,705.5813513968966L873.9193889021582,705.4695620677157L873.6858131176026,705.1678064209307L873.3562116888934,703.8987220756896L873.2571413562678,703.8694930742226L873.228060200342,703.5104221906291L873.3301377924712,703.3164732820004L873.3125229061271,703.1974386165301L873.3230918455127,703.0551936580351L873.4206143718454,703.0215807252422L873.337657045303,702.8590115104139L873.4250031358761,702.5391649228633L873.4405415618978,702.0278733983038L873.2644731476789,701.5740960595891L872.7825204140086,700.741627425172L872.6278463921026,700.5560301003561L872.6141135962005,700.4386106163962L872.3889507225763,700.2201261729375L871.4462028374188,699.7567376569547L871.2851215149567,699.7736748204404L871.1901278704335,699.6961883785112L871.1703620261386,699.6050789663996L871.0712294602043,699.5339796658895L870.9722517031247,699.5743543231019L870.7988479055564,699.4154615080571L870.632527379389,699.4079639851084L870.5488508518181,699.2763411123229L870.4757116172245,699.1375637032329L870.4119782633144,699.0609739847711L870.4270049379205,698.973813050944L870.2452719374774,698.7486606703501L870.1173157423357,698.3994628891782ZM859.0194102334453,687.5970902101888L859.2786558847564,687.2847396415314L859.3806237843069,686.9869033741049L859.2999993449432,686.8253840498572L859.3989368268157,686.6293453368376L859.4810673404622,686.3861626633329L859.6823548812154,686.2516852785121L859.7596888671975,686.102318685185L859.7468847691564,685.9015205691836L859.8694966762914,685.7166489043179L860.1207556018294,685.4299843133008L860.3892879362884,685.1556923073521L860.565647092616,685.0933599635239L860.726874223694,685.0623930741076L861.3333615733067,684.5497601214563L861.581685646285,684.2226678187372L861.5358724710456,684.000756562844L861.6626081033556,683.9013999652859L861.7286411224675,683.6907183900759L861.6733917628749,683.5544093598644L861.7638919322068,683.2974689249405L861.6518993948625,682.7590137412622L861.3888722864563,682.49826729846L861.2621404879961,682.3783036174169L861.2020058567753,682.1943892417916L861.3301743662885,682.0376033922945L861.4871898374704,681.9540088482971L861.4957692509894,681.9576272913406L861.8552951997517,682.1092339158547L861.9443101684018,682.1807185401937L862.1796344208176,682.2722170290383L862.4853471279803,682.2624843037308L862.9894810673654,682.303315221402L863.2397328752155,682.2747921228718L863.4021674149448,682.0911980069333L863.8143191685149,682.4168944024177L863.9281880810103,682.3286685773425L864.1094130779321,682.472931694098L864.2894327114877,682.7973601236156L864.5443064281532,683.0114255333817L864.8141557592012,683.0403698814445L864.9200441464872,683.0188522708687L865.2558430706791,683.1185438897128L865.6910571779275,683.1021232140555L865.8963819491277,683.1137125060342L865.9274223327855,683.2514575844184L866.0135129259638,683.3067023715749L866.1546193855927,683.2975480358087L866.3611478514556,683.3166582052934L866.5329217282831,683.3345675385718L866.5392743014694,683.2278013483565L866.8488149996434,683.2404407274922L866.8590859748693,683.240012205745L867.1419874287946,683.2281957868698L867.5261345028625,683.365737005179L867.6596089482703,683.3370960820992L867.932636333173,683.4495974889684L867.9586886735493,683.4499822321384L868.178234282586,683.4532158662133L868.4224614795585,683.409134614177L868.4268312487297,683.4083457202428L868.7595142040765,683.4642692671875L868.8305231951376,683.4762010069707L869.3163319854323,683.6794353703262L869.6926795387353,683.7916730703542L870.0244481253321,683.7960042976543L870.0862420631805,683.7968071216417L870.3164887795828,683.9360196801881L870.7796489937539,683.9385602333276L871.0878073686223,683.8212540323493L871.4600175677489,683.8624132893142L871.8855126880399,683.9341103838896L872.3314870230146,684.0510308503871L872.3909409762555,684.0673758114878L872.7372649990043,684.162561589108L872.8661149580262,684.1979646281276L872.8776506585878,684.2017588573505L873.1363814401387,684.2868455653659L873.5583241251053,684.1437909736572L873.726417904287,683.9629374638948L873.7597624560583,683.8129361577397L873.8481997396148,683.3861920714131L873.866298112651,683.2159985032428L873.9920264231528,683.1639173671348L873.9710449813921,683.0004645699792L873.8736267609878,682.8935145643396L873.9677999883677,682.7940190085386L874.1415567200077,682.6517036071485L874.4121763825177,682.5206404637964L874.6432261167503,682.6165434486288L874.7649167391446,682.6896236292989L874.8978551769941,682.8522065332493L875.0130564369323,683.0458525925937L875.0454867144227,683.2414564854299L875.422279904845,683.859115049672L875.46643600307,684.3244519428378L875.6231551065758,684.4574976220767L875.6121058476887,684.6148280017359L875.8627808140958,684.6752087754128L876.0699953069994,684.7902207470884L876.3516687566747,684.6809137455953L876.4729794347331,684.796979946507L876.7525098830355,684.8713885477516L876.7885931000749,684.8390141248543L876.9276527495401,684.7142392835585L876.9647626316959,684.8136278319664L876.9947747716442,684.9710679075763L877.2399593582717,685.0561653259723L877.4545595436903,685.0581628672875L877.5484907712064,685.1680970968246L877.7877275100196,685.1049148729145L877.9742322479352,684.8460166962494L878.2997430170658,684.8485931887906L878.3421712072867,684.9682762517925L878.3730635326307,685.1855380771669L878.5572453242346,685.2195325529955L878.6892943925152,684.9818005945484L879.0762707484286,685.05575562775L879.1701067565805,685.2097493704027L879.6182404243416,685.1078114903593L879.8891286827716,685.0671263032006L879.9710491283038,684.9960089054478L880.2317248889533,684.9514506697801L880.445409058444,685.0672512765465L880.7782542454979,685.0880291521428L880.9392614371018,684.8814993821752L881.0744132819789,684.8971799491017L881.3043228518122,684.7363011436449L881.7086386864667,684.6603023398857L882.0048267777355,684.5529382957715L882.2281043741159,684.6455183985103L882.357518803181,684.866997276943L882.6177526857657,684.8903809017839L882.7487790025434,684.7610624820547L882.8978906423264,684.6142840408932L883.1093770208147,684.663355731324L883.2381692024916,684.5797276440265L883.4123250809988,684.6352989321458L883.543715411577,684.5138367050018L884.0442405132379,684.5987858058684L884.1646311549368,684.6061946773939L884.9627131087982,684.6551909067251L885.1458710038023,684.8840566518637L885.1107345116509,685.3395774347131L885.2964231645688,685.3548735380949L885.433238674182,685.439650607762L885.9620838488869,685.2972029891255L886.3258327173623,685.3896707251788L886.2317390983776,685.6718081039006L886.1700650768263,686.1051321061194L886.0053570769271,686.2550086537308L885.6884354848194,686.8406973131839L885.3590408809431,687.0791226755222L885.0872146283996,687.56483584642L884.93210834565,687.6990782864556L884.7460188705928,687.721269839002L884.682889795653,687.9149580763874L884.0762536821709,688.4176018147946L883.7270162253876,688.6322441953432L883.3365566872634,688.9626048396993L883.2965470678572,689.1182411730575L882.9926060583282,689.1261227327518L882.7389528740351,689.2679478766754L882.5654913866542,689.6025316359091L882.2815131101905,689.6609401139941L882.0457685249485,689.8484577933633L881.6189842525979,689.8970846239959L881.3659822313962,689.9258817447852L881.279526301,690.0184218041982L881.1490111911227,690.1581097092277L880.9198442620915,690.1555793970645L880.6261765323131,690.3174632167883L880.4955285510362,690.4835326662962L880.1456589170037,690.4672904346563L880.0441804902886,690.5301349830796L879.896476242227,690.6215976133869L879.9296972522392,690.4320004294729L879.8000796590591,690.3223598646327L879.5018016842104,690.3873286702511L879.3743561119154,690.5692063143962L879.1343222413503,690.6869666494395L878.9604599250537,690.6899065155354L878.7982594217382,690.7285535787623L878.7322073366157,690.8839345539512L878.3090092996165,690.8000253046966L878.1751138014617,690.7160040503602L877.9059503476333,690.6882873251126L877.8931614358951,690.5085336286311L877.7907154624437,690.3721217620699L877.7302197291721,690.3878268283788L877.5481060683766,690.4350969195078L876.9170964687813,690.3192780172758L876.6195975167931,690.1802769432657L876.1460151434335,690.1290717929116L875.9779377760433,690.1108812390024L875.6201359988717,690.0040026345307L875.3541440333091,689.9783996709599L875.1109045227071,689.8419933030915L874.574287943023,689.7360047304751L874.2691410959167,689.6004966407755L874.0234647571407,689.6122762966247L873.8746265968113,689.6194033516705L873.8068859298412,689.469875522218L873.5480158967598,689.3340648822752L873.497212671546,689.3074085468946L873.4890250564733,689.3031124164384L873.3596391915913,689.2352182807424L873.2505876802426,689.235872324181L873.2110773001867,689.2361083518547L873.0995954498073,689.2367716327229L873.0679549996565,689.2544131081767L872.9831321610748,689.3017047214456L872.8757991164399,689.2292443932258L872.8597428186973,689.1397759720005L872.7966615354185,689.1199529952755L872.6601666378676,689.0770551888045L872.5746930949076,689.0417519690336L872.4091756185107,688.9733798624626L872.1569850222156,688.8691837897485L871.9375609135725,688.8521773484553L871.7941887524429,688.7535111875534L871.7260639176542,688.7506001556733L871.6671727422251,688.7480824869194L871.4600807333921,688.4281261226141L871.2885808045233,688.3797737659016L871.1451209486333,688.3393189273045L871.1294823331875,688.3396222021049L870.7985332859229,688.3460218439021L870.2860457950923,688.1636422436284L869.9893941859457,688.1126502302502L869.9625687092652,688.1080377016906L869.7688400945681,688.1734935764628L869.3330315515007,688.0291473541046L868.822531122809,688.0148311148719L868.8158331686058,688.014642725986L868.6520103676161,687.943004284859L868.3980474292291,688.0941214774061L868.362852398915,688.0830777516273L868.2027652788761,688.0328388696878L867.8677031906998,688.0732899520804L867.6567345765482,688.1641882712464L867.2216128243066,688.2082926717048L866.688830054474,688.396895353475L866.3293783731942,688.4345025192949L866.2014409819865,688.5053116183831L865.8223384287614,688.4406860323569L865.3008500193876,688.4470057508704L865.0402424203818,688.4500856827825L864.8560793497801,688.5150649444562L864.6049834306139,688.5134724136896L864.4784318788156,688.4790009189011L863.7554982434324,688.562093328098L863.1378473324926,688.5436766023572L861.9331149836946,688.6238168640317L861.5979939706324,688.7779486180225L861.4703739087639,688.63575416621L860.4886195507232,688.4360492229978L860.2930436034814,688.4255053438984L860.0552965199832,688.3537236987672L859.8815390140719,688.3357615382555L859.3579464906016,688.3278342362103L859.1192228763949,688.236324365911L858.8195251880736,687.9158101798702ZM843.0834692965734,676.5482688716459L843.1282207040438,676.4563837773094L843.2345157449021,676.3989701592802L843.3537687513167,676.5642933923752L843.3424220290868,676.6791642815427L843.2324456917333,676.6810229969471L843.0928519067813,676.6242282126079ZM837.2271370724909,671.245130165913L837.2788981915479,671.2290762162511L837.3216750754174,671.1754173047796L837.3945109685635,671.1927264533123L837.4132924240283,671.3223169833652L837.3523998398214,671.4200966759144L837.2437755741664,671.3962680884968L837.2410149596026,671.3244548011291ZM815.3068444931557,663.7579761254195L816.1278947654312,663.705520201844L817.2529865697675,663.574981688348L817.5630570192933,663.6697651649083L818.1018137245661,663.6845055279819L818.4169415935451,663.5960451654133L818.7513402372564,663.592927179091L818.8914553152312,663.5916100293359L819.2201805590544,663.5884950620814L819.519005539657,663.6383123969836L819.556835717942,663.6446169647638L819.8765749110637,663.7043002830384L820.0867556073255,663.6517511020489L820.2994136182482,663.7652279145769L820.473826515001,663.6943822610758L820.8981311694004,663.7223355079612L821.7169603511227,663.5640949163571L821.8218849784531,663.6222609758942L821.9153316466688,663.6740597986986L822.3302161131639,663.6296615766412L822.408806931902,663.5182404614948L822.557425757119,663.3075173691484L822.7029941427255,663.2245411000463L822.7905628133434,663.3344122735402L822.9138132366526,663.1543122773488L823.0765909594647,663.0116184334844L823.1442549561044,663.0168141550444L823.2082701623036,663.021728329464L823.2135158983735,662.8170893941844L823.0860651505184,662.69738799079L823.241911203869,662.5832979814045L823.3984117179209,662.4349557034714L823.4055514631344,662.4281877203919L823.6332045161452,662.2142775347771L824.0503444414003,661.9736674196788L824.0476748848637,661.8036873852266L824.3201613865872,661.681305133209L824.7123472234597,661.258160488671L824.8758926384139,661.0036361450209L825.0163896075469,660.9877539865948L825.0770315949073,660.917286023523L825.1162434327513,660.8717187639891L825.0755949204929,660.773767160812L825.1635817794132,660.1970844045733L825.3114035474621,660.0516045856718L825.3896712259826,659.9745701577848L825.8738164383627,659.4989216196061L826.1927275312754,659.2537719002611L826.3339315706146,658.9649393625244L826.5526293584244,658.8960402166388L826.6017304121049,658.7226077480188L826.7670952587276,658.5651920541412L826.9598515696835,658.4433746677174L827.0294693161446,658.3993732959942L827.4147327802832,658.1582104354359L827.6170729702795,658.0658000092792L827.8665848464124,658.0538079013878L828.0289518778268,658.0146467678619L828.1696202036592,657.8327544760265L828.3888208823821,657.8188223335719L828.5228308671963,657.8267231414301L828.5448485136975,657.8280206767168L828.7949418851423,657.5876192265716L828.9203835326166,657.572775926895L829.0491876510494,657.6677460970911L829.1582933841462,657.5897408850334L829.523426108755,657.6198813139795L829.7010417781735,657.8267907246368L829.7585468698653,657.9630345651032L829.9442429688766,658.0279774207421L830.32651855942,658.4829149351306L830.3316897025896,658.4890679997128L830.4141203251855,658.6573327794453L830.6736550166758,659.0568044226026L830.8190648643513,659.2862484003992L831.033352425907,659.4275498165592L830.9537289797154,659.5043645973617L830.8988907844247,659.5572656585235L830.9259369751893,659.7839783471088L831.0621153353342,659.9486816274581L831.3291942247104,660.0409857963064L831.2816645469715,660.2337217537523L831.2529594536983,660.3445043455711L831.233469209414,660.4197205870352L831.3932519325172,660.5511358511818L831.5618214067113,660.6471119864846L831.605450002647,660.6719500222845L831.8648258089953,660.6347915616162L831.9039778151327,660.7141327832816L831.7428792583441,660.7417973194272L831.6734126116222,660.9966651460311L831.6762979173443,661.341409908177L831.6225908402001,661.4438352302047L831.5431484158346,661.5953304004349L831.5915083710074,661.7398598008577L831.6018166334665,661.7706658325011L831.8974374599765,662.0360369912239L831.9264930911631,662.2389073746816L831.9438924217585,662.3603813996348L832.1316272997788,662.6340700045197L832.4309517282052,662.7837238291743L832.5397469627964,662.945580309597L832.6256792436366,663.1700197946038L832.6769500433651,663.303917011828L832.9255755028756,663.5760970134767L833.038200373054,663.687018942624L833.0816354390743,664.0030285435375L833.1555198027702,664.0757465589518L833.260996421636,664.1795507556852L833.450211354626,664.2996958758005L833.5900416891521,664.4133649368246L833.5794728931604,664.8876006303591L833.5109508758981,665.0586489294918L833.6688064769638,665.2347476488568L833.8439387397725,665.1199750033659L834.0073075603467,665.0481155878056L834.0315398121711,665.054423072552L834.4148279098131,665.1541627123898L834.6441796902784,665.3194415551241L834.8136570181138,665.5714257546127L834.8103404186877,665.8100699986221L834.8446970750589,665.8343553485909L835.0229315315903,665.9603316619798L835.1707457930074,666.2922385919989L835.243000654448,666.4544601644648L835.3418331497194,666.7011691299815L835.277832631793,667.1873240762084L835.3081166354833,667.5764281312495L834.8347031375204,667.6559297545597L834.6822137898683,667.7173201072505L834.5882726666146,667.691291585715L834.5689973291037,667.751822202517L834.4906581229004,667.9978142796871L834.6377795512216,668.2669608700718L834.7364560367109,668.3804340016347L834.6302068605465,668.6123056519433L834.7247358723876,668.7331162384675L834.9173304464992,668.759689054981L834.9674941124651,668.96135795147L834.9545361001226,669.0508364332596L834.932827395643,669.2007333857597L834.8421853590022,669.4517345542366L834.835902605348,669.4691313044333L834.8982566928212,669.687305743211L834.9064747943138,669.8062959822498L834.9757856017369,669.9853212695764L835.0260356703727,670.0392963627775L835.104800445523,670.1238955649472L835.1210264320115,670.1173301684603L835.2822112967132,670.0521055040089L835.3083197291851,669.8501548784722L835.4697288760245,670.0694054798425L835.7028580088471,670.2015157511327L835.8175161937723,670.3437596815163L836.0793028224982,670.2456074737224L836.1683825650056,670.441158950661L836.2393723018914,670.5906560522245L836.3122727319916,670.7441640682227L836.3139556684317,670.7453233906723L836.432788772992,670.8271799291255L836.4904277002053,670.9790207751491L836.5775132471157,671.2084110640652L836.5730137830739,671.237356595838L836.539316328691,671.4541248314814L836.731992925189,671.5988071927668L836.9506265105329,671.6974768242385L837.0156734590311,671.5288111000698L837.029944553749,671.5287472746684L837.1400819665271,671.5282525013973L837.1567834895973,671.5281771326137L837.2977986813935,671.7048058443127L837.3418294676795,671.846859825809L837.3250973143552,672.0326032541183L837.3229600197144,672.056328407802L837.4056049936344,672.179172782789L837.508663226237,672.3460731057601L837.5259464710032,672.347787088321L837.6805385770122,672.3631136920511L837.6942386876996,672.3644715761636L837.7867141329502,672.3736356662602L838.0405006908684,672.0025629259283L838.2126504083852,671.6332624210659L838.302309991336,671.4408943553913L838.3439377361067,671.3515739709204L838.3661755058114,671.3038568508395L838.4929983972524,671.118381552487L838.0712537807872,670.8745054594137L837.847847574377,670.8336566595261L837.782239691046,670.6840055960754L837.8494104743877,670.4105443000298L837.9720524783838,670.3317404186735L838.0986470836585,670.1369330757241L838.2564546994219,670.208972516285L838.4086267284164,669.9520836474499L838.5147336865361,669.9021253131054L838.5022001960033,669.9451579024584L838.4950679121749,669.9696455629125L838.5311693145318,670.0546301726966L838.9529342608745,670.2250101751239L839.3306216725415,670.3680171455493L839.4393030855579,670.3506711929208L839.5471347378164,670.3334569780573L839.5931670615903,670.2669017406503L840.0198326156644,670.052273205416L840.3581557878201,670.11065353339L840.340222507528,670.2771612403637L840.2013258912027,670.5593301749789L840.0376968777674,670.7187627010186L839.7764037471158,670.7973856361916L839.756294907708,670.9430656990226L839.7327094402954,671.1139213605356L839.7276385823285,671.4447396287392L839.660973924141,671.6004051531255L839.5740797374981,671.8032894459409L839.5475999537579,671.7925758362551L839.4683149732318,671.760495801449L839.358815949125,671.8831237449467L839.3860318689952,672.2970620772614L839.3902098955996,672.307830271774L839.5059882093487,672.6062059263172L839.5725175814662,672.7776393941369L839.6452277447112,672.8430270401437L839.7809680356679,672.965087272861L840.0857906607017,673.076147124209L840.1501073020078,673.1087030208603L840.379057655217,673.2245787049148L840.5956019485918,673.3341542677648L840.7680922980664,673.5501517630519L840.9025620332798,673.8304813925777L841.0366974842026,673.9798450590691L841.0361917416908,673.9873495446309L841.022314340511,674.1932624084516L840.8969604314526,674.5263702152989L840.8743321854768,674.9523992697102L840.9769418559102,675.3072395549332L841.124188556709,675.5716337232225L841.2935630596542,675.8757107512012L841.3839032159502,676.0378762344474L841.5079236640007,676.2500319005078L841.5409496326089,676.3065233795012L841.6744840588217,676.4274407641083L841.7840025128546,676.5266019799925L841.9186290154328,676.58618005084L842.0421259107262,676.6408262352977L842.2597803045626,676.7371209436044L842.6021716565714,677.0190056696277L842.7843228138904,677.1689371108646L842.7956274113823,677.1782414051994L842.8234214368441,677.1690104381436L842.9097312606939,677.1403433436503L843.0575422778929,677.2970073522902L843.087876192985,677.4469202089388L843.36618302213,677.417504951366L843.4114621462287,677.4127168498673L843.5092418034574,677.4292602785264L843.5220722686637,677.4314308397552L843.5468461809189,677.4356217477484L843.5570386103426,677.4373459025953L843.5573357376198,677.7235550069772L843.4560681657234,678.0101444475055L843.2901226607952,678.048693116498L843.134245339742,678.2726747959733L842.649466620294,678.5416302649518L842.6194892567947,678.5947678465412L842.5882182744149,678.6501968337668L842.4079066997544,678.651647229632L842.2589931573195,678.8712961612264L841.8516388985385,679.1066426573358L841.6833856458774,679.4354269475857L841.5043855985605,679.2356649047189L841.3840019241252,679.2983021824157L841.3797333577221,679.5149144592485L841.5790412181461,679.6629947329292L841.247327865774,679.8324712653229L840.9059118173147,679.882555456335L840.8948025253063,679.881565793133L840.7652850232801,679.8700248700259L840.6652256342458,679.7573269700076L840.6946612947926,679.6116475340092L840.7993571290431,679.410873722557L840.7892879520717,679.2708734037483L840.6805974083462,679.1851728659038L840.2690189323151,678.860585412397L840.2455248008374,678.8420538743964L840.1802965528743,678.7906018259996L839.7440499568416,678.7589639957619L839.6313426943786,678.8713780373035L839.4669710457466,678.8670040786964L839.2207807625227,678.8604366994632L838.7193309756033,679.0272298242621L838.65601467635,679.1892027720246L838.527416557978,679.127855884643L838.4922291182745,679.0372261021902L838.2686458943867,679.0620996711076L837.7604045158183,679.2814356261099L837.6979133325956,679.3565299673747L837.6161934807124,679.4547252785336L837.5504518160305,679.5337163536071L837.3737147461311,679.6330196293562L837.0958469167834,679.7891159334686L837.0268297089899,679.9983178656587L837.0066188216473,679.9975986799762L836.9119718223648,679.9942290097595L836.8159538882987,679.9143135674617L836.3433459070492,680.0076478067323L836.1326978116119,679.9618806287339L836.1146088621653,679.957949763824L835.9479715895593,679.9467976738533L835.6701853333346,679.7213646225522L835.5991052003177,679.5058081630233L835.5875541298669,679.18950226444L835.2942487452615,678.9294404677489L835.1099902722126,678.8654756621439L834.9251358194848,678.6994557579243L834.585531625037,678.6683828167977L834.5579284615493,678.6658555523712L834.15545341094,678.4099876612252L833.8752830297977,678.2318246859321L833.6344053425356,678.0786164224987L833.4865753031293,677.9845757478661L833.4790263433467,677.953737867902L833.4496093631601,677.8335633679895L833.1388842431055,677.6814342182297L832.857540146271,677.7318114636038L832.7319907553862,677.4045182141144L832.655056344585,677.4064252626118L832.5868606365932,677.4081141083818L832.581014089925,677.408258826863L832.4334979780901,677.4302129528045L832.1513919827016,677.4562999291152L832.0671874344716,677.4543894184021L831.9132796637168,677.4508915381915L831.8730955698668,677.4901604144646L831.8154707933477,677.5464706321231L829.9741617011077,677.4819702120647L829.8796734573033,677.3473304868176L829.9274042669861,677.1668749945387L829.9875682163083,676.9083792801151L829.9499795845285,676.8792132322865L829.9452766252967,676.8755640177787L829.9093492685934,676.8476861035573L829.7772460258556,676.7451736214379L829.3778869207539,676.5909544927938L829.17894982887,676.3047710809433L828.9772970367726,676.2614173132703L828.9527856643672,676.2561466130493L828.9481837580621,676.3282501175947L828.9355385424982,676.5263691381996L828.5706246184476,676.8542065816619L828.4243531010936,676.8522337726087L828.3594800676813,676.8660129700048L828.0250059378266,676.9370333242128L827.326160537813,677.0852989584205L826.601333681124,677.2389006488552L826.5878662487391,677.2411397516738L826.316470188407,677.2862493254463L826.0902842899022,677.3238256199322L825.5501782573963,677.3757203712023L825.549329220214,677.3761022849844L825.2776215518626,677.498306497064L824.4683226763725,677.5549480546825L823.9444787665814,677.6111352509566L823.7302906014272,677.7196644104799L823.6426511098939,677.7180498219656L822.8736235746837,677.703776339229L822.6298286263507,677.6026791831565L822.4347722301674,677.3880363283965L822.1822588747793,676.8241501978191L822.1053640872003,676.4863124803296L822.0856502714043,676.3996901561172L822.0836119252862,676.3959475386921L822.0706847407982,676.3722116846368L822.0668637964259,676.3651959128221L822.0401476364166,676.3161406340198L821.9942983475705,676.2319505617484L821.9897011675478,676.1542856116179L821.9795281223295,675.9824082657457L821.9775199594285,675.9484774162095L821.974009769588,675.889165883155L821.9689349802758,675.8034134623747L821.8937469368805,675.675379454981L821.8608282862715,675.6193208817284L821.8334640484461,675.5727197509297L821.7754349234783,675.4738922858805L821.7135491398192,675.0602691277362L821.695419386335,674.9390788275045L821.723263211351,674.7667520108291L821.6171152251966,674.4393574943693L821.4716608773964,674.1383422514413L821.4381902542283,674.0690682554199L821.3651163152387,674.0177142820507L821.2473430837356,673.9349409160276L821.2390634166701,673.778641163465L821.2357098781891,673.7153300735828L821.0065741952583,673.5465181150159L821.0001817472822,673.5349305191734L820.9156241317716,673.3816455822376L820.8562807352661,673.2740605702986L820.7439336755358,673.1641388232821L820.5024357117121,672.9278213262116L820.3096793772371,672.7391676328034L819.8172088938695,672.5919382923277L819.5748276721163,672.3415449792724L819.5405871620909,672.3061687265024L819.6102108037935,672.0416827263844L819.5576876640864,671.4017499948062L819.5527685690564,671.1200165667894L819.5527490556289,671.1188988006835L819.5512479347893,671.118063385374L819.4175646267773,671.0436607213871L819.1751475239888,670.5273539323147L819.0816245285009,670.5366736054691L819.0296245548576,670.5418542296005L819.1073733827019,670.3830436635585L819.1118546494941,670.2316927510445L819.0002229472937,670.1547847625561L818.7584621127132,670.11411965234L818.6878331502314,669.9285092992186L818.6375270362113,669.9081054498376L818.5326138352017,669.8655500676964L818.4978870042299,669.6574720394906L818.4100159168825,669.604979953994L818.2728995568438,669.5230624015912L818.0130352226751,669.5299568551642L818.06483974004,669.3852909393784L817.856055090105,669.1682260402016L817.7642071354189,668.7509611531399L817.7046938191709,668.7206459897433L817.5455913134318,668.6395939472965L817.2844530902854,668.416100104315L817.3523383849847,667.8011268308165L817.3994118619738,666.7493668428717L817.4354749508464,666.352426754401L817.415569279248,665.8986287851169L817.3400094852512,665.7571083127503L817.2176211054868,665.6134213346386L816.4990830510759,664.7485346027481L816.2429360037629,664.6456656822965L815.5539637766,664.0985730381254L815.4288237741182,663.999171552638L815.1220811637177,663.8419066937345ZM747.970860997195,639.0522065258649L748.0504355140044,638.7741462321062L748.1973448852416,638.2025231552967L748.1741277358517,637.9822692211013L748.2635693705075,637.6791801499342L748.2441095194865,637.3740570377333L748.4954013775664,637.1646084323831L748.8342760422131,636.955194210516L749.0995423651682,636.6590150075334L749.7849570207269,636.0943066284481L750.0526765556674,635.8789491951186L750.1248175930889,635.5986974047487L750.237583773616,635.5072747371712L750.2848449030867,635.2935993408934L750.3972596719259,635.1187712027831L750.421102218435,634.8302867395337L750.6575234910657,634.4981352600578L750.7123104706103,634.1265237947023L750.8145780559784,633.854102338173L750.9385455261097,633.7510458534922L751.2195661389552,633.3702585100452L751.4164725486919,633.3149361028603L751.6383267823059,633.1360326419418L751.983386488085,632.970631123792L752.0905156325907,633.0374626474521L752.3062053559662,632.8158671183746L752.6652039663097,632.8009601717222L752.7053861755185,632.7992890531795L753.3090327610279,632.640167743413L753.5454401763358,632.6049970328659L753.7860661934479,632.502890974323L754.1323415217885,632.40411827411L754.3962048857743,632.1912935819121L754.5872192004299,632.0712067775842L754.8257863802,632.0543090995487L755.2682290162234,631.6862998641694L755.4252243057558,631.5155518430303L755.7651239080257,631.3243526946935L756.0335344812947,631.2542155075353L756.5514416236731,631.0181054326912L756.5957302544718,630.9250446036442L756.9898403848564,630.7145610257738L757.4352292467854,630.3581474669033L757.7163433504193,630.1299845404607L757.8859372859512,630.1354796347908L758.0406604022701,630.1404847488484L758.1037735275235,630.1473334215997L758.2252679709087,630.1605136035854L758.3796501619094,630.3019317403952L758.7123455513977,630.0231431896057L758.7543179379344,630.0426843686411L758.9547142269379,630.1359729546837L759.1559814375448,630.1292970523026L759.3092881652565,630.2439156019797L759.3773603122039,630.2948047306182L759.4294672355041,630.4706366940488L759.4589412651138,630.570087530405L759.4655289246562,630.592314757019L759.5787896854664,630.6830727161317L759.8829952082261,630.5032579664979L759.9617542013204,630.6103612094516L760.3279164690543,630.653676388313L760.531761053589,630.7113996354358L760.500710355974,630.8572571699146L760.61802761388,631.0167653023159L760.8241687017094,631.2428024792806L760.8363974450618,631.2421855180116L761.1561327659219,631.2260370499985L761.3888119461894,631.0444208915644L761.4446717243318,630.7585657874563L761.4256378490109,630.7253676870869L761.3946976601272,630.6714016582351L761.2999549299227,630.5061399304752L761.454539780433,630.3103754842139L761.7048603489416,630.2381650514698L761.7521211995385,630.1895283579488L761.9051724063374,630.032009247673L762.0082990185655,630.0436339622256L762.0486874478684,630.0481857004738L762.2239387888588,630.0679301282169L762.2732771213831,630.0676865345195L762.442805109898,630.0668435247162L762.5939951294721,630.1488674353903L762.6592282849671,630.2517795390524L762.8139605857167,630.2443012297368L762.9158867967645,630.3824666731906L762.9536756279111,630.373658396369L763.1093565560632,630.3373651371909L763.1093811747987,630.337358216967L763.4067413390153,630.2537555141947L763.6359919745493,630.322319689696L763.8431320323671,630.4021020328998L764.0981578014191,630.4215394690661L764.2685067541241,630.4345112084217L764.4058810052366,630.6063562011066L764.5223661548812,630.7273112707218L764.5239643879131,630.727094176856L764.6405555332421,630.7112548789096L764.6690711058363,630.5523457333234L764.7115428238728,630.4760914957909L764.7295741114056,630.4437169547938L764.7503379661982,630.4064354850659L764.9499909017636,630.4794484848585L765.0458083848283,630.473251701568L765.1634471531222,630.4656395789485L765.2139791974132,630.4623683853104L765.537757586697,630.3820144610511L765.6007166999407,630.1810569942328L765.7208148904209,630.0758410850347L765.7443847966122,630.0551907630099L765.8063155822801,630.1030458969673L765.9095883376533,630.1828415663144L765.9388052748764,630.2054154081662L766.0367778630821,630.4153239461408L766.2486513030727,630.4321490066575L766.2944735816731,630.5560613518305L766.604035359457,630.473460768137L766.5807507646368,630.6338445488489L766.5772545995179,630.6579252667311L766.575606916245,630.6692740287488L766.6209223915063,630.8528209362296L766.9212828439227,630.8233656455346L767.1836917895348,630.944695963891L767.240052718889,630.9707518083784L767.7327419778841,631.0726785854615L767.8661517624712,631.0330396686661L768.0700633223373,631.0119640154055L768.4961062178228,631.3454143534263L768.6795138111933,631.5646496519942L768.8545121860053,631.7738009723731L768.861880899221,631.8803931393777L768.7608109165836,631.9935363458135L768.8303704574298,632.1141007835645L768.9838182703961,632.0245893754112L769.2418972113212,632.2183824020008L769.5429848863662,632.4444609732348L769.6841495274743,632.6319083494301L769.7208991331936,632.8679201886957L769.6488784668339,633.1247866723294L769.821640606195,633.407382926538L769.9047367851612,633.5326389497484L770.0625689340409,633.7705216472315L769.9576094221322,633.8891603168387L769.9196956105259,634.062298295676L769.8822874300076,634.2331152892431L769.8952935744649,634.2463482479474L770.0359236815244,634.3894218865149L770.091048310903,634.3849329728087L770.2076047337548,634.3754382670551L770.2652063248466,634.3323012324857L770.2689682237574,634.3294839313667L770.3291048260058,634.2844462732447L770.4568573337671,634.5465216108278L770.457824631454,634.5960026220982L770.4585028035574,634.6306917907707L770.4702533800332,635.2314898990672L770.4566399755622,635.335868706111L770.4436464246547,635.4354913762404L770.4243154842919,635.5836970307687L770.4054939489386,635.6223448378128L770.2412004767974,635.9596697041543L770.3263755818018,636.1667464752284L770.2245056998646,636.4424650551584L770.0133051580295,636.6848726758267L769.8858755022475,636.7178684998164L769.8311449865713,637.0542676107073L769.8308169911479,637.0562834954603L769.8258753710342,637.0866548847334L769.8176535936307,637.1371854863417L769.5412179333066,637.4275656324731L769.398521472163,637.6951954978769L769.337350374059,637.762407794774L769.2635310608711,637.8435131073434L769.2673407142058,638.0644336453461L769.2677154767996,638.0861621596606L769.1601267717451,638.5197149734726L769.1005069854546,638.6179152058096L768.9992691824182,638.7846524385787L768.678751375294,638.972956794899L768.4887316683521,639.0108753148311L768.3552644915524,639.2336848646762L768.3650849529184,639.2939125629682L768.367822236554,639.310699615634L768.3896901044615,639.444803712536L768.2630902432343,639.9180136326602L768.1665813214967,640.3226536280464L768.1866378966043,640.6887869290572L768.272399740315,641.0029537386905L768.3428551760425,641.3111918333252L768.3868564348586,641.5036676439756L768.2774704111982,641.6247183417453L768.2611273976308,641.7989248990697L768.2574404453329,641.8382243567299L768.4644295279144,641.7614892032567L768.5128312446277,641.881483423692L768.3933330622996,642.0015722829067L768.2990894702964,642.2085072600402L768.3004139893355,642.5262286357238L768.379740647306,642.7619446444552L768.4287660568432,643.1003537233337L768.4248782034193,643.4107953331207L768.1747079795482,643.641501533536L768.145668288127,643.6877602981324L768.0854895232549,643.783618169766L768.0555268349501,643.8313433511428L767.7566107502936,644.3073922121765L767.6143891051387,644.5338469220229L767.2829346718175,644.5085818051462L767.2289552867422,644.7483467074043L766.9159740877877,644.7407866028404L766.7088640443935,644.8455940783053L766.639848007707,645.0033379019637L766.0894226591643,645.2061687450569L765.827896569617,645.6197089511371L765.678211688385,645.6125885795801L765.5901011832352,645.8571942325088L765.7195016981332,646.0593761789702L765.6963557401677,646.0724833734561L765.6130033828965,646.1196824249695L765.2841349522686,646.0567923444132L764.9636156775148,646.259761263956L764.9147721736217,646.5074442257694L764.652538049149,646.6690409182032L764.3604819048543,646.7292474113437L764.3453779989904,646.7630819025387L764.2952628444851,646.8753415982886L764.250311705899,647.0146057489253L763.8716513477236,647.0527331742255L763.7629083601619,647.1110885658168L763.5502820345381,647.379521470103L763.4191638057807,647.3412584297639L763.3794368681552,647.3296640491059L763.2537025393372,647.4116809961747L763.2222084169125,647.511872407319L763.0460747547113,647.6280299917586L762.6979054764339,647.4087146138012L762.2999423464858,647.2164141615672L761.9778924086839,647.0665201990564L761.7018038007027,646.9099771043657L761.3717407398348,646.8921293899161L761.1711725889226,646.7429471268432L761.1270818634888,646.7101493538873L760.532601471022,646.7341289837631L760.4731584084128,646.6991135158233L760.3519636961692,646.6277173548071L760.2025436414547,646.6243865450474L760.0532444314244,646.5440367673602L759.7135292073663,646.5871501880755L759.3806061230429,646.7173475381013L759.1679281154395,646.5623012413537L758.9556349901313,646.564558404948L758.6006794230874,646.4756375357106L758.2665755486798,646.4996239557134L757.8580422464835,646.3610360190327L757.470184402309,646.1330609438008L757.2550862473148,646.1837992794476L757.003692299174,646.0000621193784L756.974043958726,645.9974157850055L756.8568770845009,645.9869549644998L756.8634304273655,645.901682851412L756.6744046946953,645.8662262985507L756.5848654034505,645.6630886874266L756.5687064334661,645.6571335266245L756.384397253908,645.5892018356271L756.2410913694877,645.6682830910187L756.2413481110415,645.6713940963623L756.26154956233,645.9161593960939L756.2279045676327,646.0427934391023L755.9576312651257,646.1496362294968L755.8916207195024,646.0931408848552L755.7846106471776,646.001549719023L755.7560644455868,645.7725571065827L755.3700634989386,645.6445511791127L755.1416454920849,645.419659500938L754.860723595714,645.2857061116512L754.8234796130348,645.2500144277964L754.6335161103418,645.0679519284355L754.5283045439294,644.9133298638832L754.4373546292733,644.7600249614321L754.4509433032925,644.6685124583005L754.4565007768869,644.63108498901L754.2413995574175,644.4307921329589L754.1358059990204,644.2535734021245L754.0468478478394,644.1042591416201L753.959718850688,644.0292050753405L753.9639323954514,643.7691894449431L753.8355287514969,643.6450894217578L753.4839357403448,643.5731828380716L753.2792096355129,643.257343459711L753.2343462887973,643.1766674835784L753.1526601631037,643.0297645469587L752.9030020157813,642.9207360897467L752.2201975455532,642.7509078544861L752.0916863253777,642.7233684664731L751.669401485843,642.6328346435637L751.4112709862691,642.5730015706836L751.2030027163125,642.3854321045961L751.0729794122901,642.2683155057701L750.9898653075891,642.2396128306431L750.3082970397394,642.0041408847703L750.1430706463893,641.9470310509696L749.538790637527,641.7604522231713L749.1320487071066,641.5710371122749L748.8643056580182,641.2131215368572L748.5313245143745,640.2590353314896L748.2449246779001,640.0254484969474L747.999181599056,639.6032269582843ZM733.8192951637235,638.8761726263142L733.8527613244729,638.759896780743L733.8515355833564,638.7114297289768L733.8477881746754,638.602751835869L733.8374701349409,638.5441088112007L733.8535652732068,638.4617646291944L733.8922247175403,638.3922327163881L733.9302820079387,638.3691193165714L733.9485540137877,638.3895261988035L733.9432103611866,638.4163265043496L733.9408464728217,638.4203170424905L733.9154406265737,638.4632047285285L733.8979420149793,638.535792696376L733.9120213863189,638.596586805832L733.9646597062026,638.6614361894364L734.0551360552104,638.7419250951666L734.1414713191725,638.7563228831087L734.2058127917953,638.7482116074966L734.2711725883149,638.6859182145296L734.3081008183833,638.612441632484L734.3183612958692,638.566549085309L734.3114350330189,638.5158276398307L734.3315656878974,638.5014099149523L734.410455610963,638.5463778501428L734.453918430703,638.6010375185394L734.4726581668086,638.6485120466157L734.471283305086,638.7084613013353L734.4583986283535,638.7677836038876L734.4082538557767,638.8347544533164L734.3381856932577,638.9122643156591L734.2793617029141,638.961346748214L734.2186024122506,639.0103229532656L734.1475067734535,639.0354813564413L734.0760945176835,639.0664098671962L733.9872895590806,639.0615555496345L733.9083617170668,639.0533959686835L733.8486933766676,639.0114093624949L733.8197367387147,639.0098246418127L733.7871994292401,638.9673760532859ZM726.7591718926274,647.6380537909696L726.8760646520684,647.5145994269348L726.8596183032156,647.1380880498828L726.9101764202674,646.8279696668221L727.13013494031,646.6368671526861L727.5045371823312,646.0992795365676L727.5108541818462,645.7987872260911L727.5516794011249,645.4573057560863L727.7112838876147,645.2944572515336L727.7478855215174,645.027966118929L727.9218129525434,644.8014988684316L728.2639943065683,644.6382523806863L728.6133785688688,644.3464772785177L728.9960090522986,644.0351266502919L729.3084813883148,643.6339237967079L729.5190382044594,643.5169011282997L729.6558532770225,643.3742662447544L729.7440295475682,643.2047095961087L730.2730824938699,643.0867220512627L730.4007058075406,643.028822792767L730.7042693453634,642.8910768536672L730.7576303203277,642.8668596321771L730.8901924379177,642.6059062031027L731.2652706683548,642.6160398075955L732.0652633294976,642.3169226987982L732.5892607395573,641.9595538560491L732.7745499689989,641.712236597365L732.8890468887726,641.3859832994207L733.1377615836559,640.9598665430638L733.2042762445487,640.4824560377276L733.362522457542,640.3087709498984L733.3159586029432,640.0580690526712L733.6337676427626,639.8500802669191L733.813565708667,639.9781036816621L734.1589746945998,639.7396617913921L734.234777910246,639.5293978174279L734.4522835189575,639.6698945012558L734.4691554844553,639.9106665705651L734.9121563987852,639.887930485029L735.1181292830139,639.8455075868765L735.2123747124429,639.6898335832826L735.7158731875542,640.0536857672561L735.953144209113,640.2659918021441L736.0416271142691,640.6408934528445L736.0045890698892,640.9015023432487L735.8479661339439,641.0217468133596L735.637853035123,640.9861017758396L735.4618030787266,641.0222621028813L735.3189856617687,641.2827000389942L735.1856449311462,641.4420945282641L735.062470111332,641.8587625400909L734.8059569594424,642.0379470894864L734.6762717610801,642.4493791222004L734.4359086294613,643.3162973457507L734.5628681451896,643.9450110178041L734.7299654641502,644.4340797533724L734.8053307162616,644.6733112757761L734.7687363154588,644.8503710750002L734.7147569609531,644.9440487102722L734.5388715278258,644.9570772224398L734.3544913730178,645.0513463471324L734.2257632038543,645.1739157743172L734.0102142918469,645.2195243428121L733.7009173081558,645.4282534869745L733.604347744963,645.3744650779266L733.2122657010882,645.6497307279129L733.0324008897368,645.5218541660904L732.6202426492894,645.6866609635521L732.4393729153502,645.6963306516449L732.2351203475985,645.7988483065764L731.7239300718974,645.875332544243L731.5427012893026,645.8356396391774L731.2505830430159,645.9909995433768L730.8424250066,646.1684822609899L730.5552477959534,646.5618362802163L730.4329752317433,646.8623742766908L730.156284983088,647.1711690324983L730.099141421748,647.4041807904731L729.8825843327814,647.5865399491256L729.4360471071896,648.2524592356693L729.3996827520158,648.3718108746215L729.2254237075074,648.5612117727317L729.2220883554938,648.6948970517957L729.1024536637995,648.8844429381166L729.1593023246771,649.0390099763633L728.7942930800814,649.4699396162774L728.7142696326255,649.7453230579583L728.6731149798384,649.8630182874188L728.8411680267734,649.9816078330084L728.7158184537801,650.0735664092194L728.6014922005445,650.2398010933209L728.4152561053427,650.0637683181405L728.0998881436476,650.0459884550336L727.9758241062345,649.845362516974L727.8255766408543,649.7791589358754L727.7259357399636,649.5953627236217L727.4125194916774,649.6206138543587L727.2893172300425,649.5168246881759L727.3326889700592,649.2746915947414L727.1615127627401,648.9639122030941L726.9513807070089,648.8722125004202L726.9211621545289,648.8590239057495L726.8565129174378,648.803832784482L726.9249584917541,648.7095914333943L726.9615188649356,648.6592499801916L726.907559040385,648.4733742612523L726.8875399345582,648.4792635234483L726.7544178381196,648.5184219610317L726.7182804403901,648.3980850526527L726.7800944161568,647.9055994094174L726.766826487576,647.7359427340064ZM712.5618013718137,655.0125968032075L712.7392031951263,655.0320210008357L712.770816575818,655.1852715975108L712.7005270030015,655.4053024591016L712.7848769587815,655.5516917258118L712.730116566976,655.6338093827579L712.5850591389192,655.6257425591361L712.5152452115234,655.4370373798849L712.5618672730717,655.1918823655394L712.5224797445019,655.0767603868683ZM655.8268577723481,582.9866159638239L656.1298851880122,583.0993523239524L656.3967451514106,583.1146894311443L656.4242502415791,583.2381065529734L656.2712244996455,583.3338255847866L655.9586785681672,583.3984049925667L655.8656838415656,583.2544086348471ZM473.7373866385988,530.14205126822L473.827410966745,530.1101703618717L473.9050479209578,530.352024962669L473.9051820881243,530.6145775951412L473.78897464271097,530.6226876468486L473.76846150149066,530.3491089979234ZM472.3603080155354,527.4552668769111L472.4862337597522,527.4556768688311L472.6126259322133,527.6362968215866L472.57500770258116,527.7387603321604L472.4580816676192,527.7081819417954L472.3882369363406,527.6034247527493ZM472.4684054955905,523.7116557883961L472.68612898885124,523.9111929191112L472.74201846239697,524.2107702205116L472.58755147068507,524.19901326546L472.4924539242303,524.0152923977575L472.39563329064794,523.855632268117ZM471.41815258546427,523.2204943739571L471.62062423672,523.2964750036333L471.5303967238874,523.41712758629L471.3486035703219,523.3059216859484ZM469.57589444279057,523.1806253562805L469.79086202364766,523.1276393152444L470.0020632260432,523.0844655438358L470.03003878396055,523.2174786758317L469.6073199737001,523.2899814813692L469.56383815924835,523.2560550514835ZM404.8487194674532,458.55873439817344L404.9321490650677,458.4213294760565L405.0680256657924,458.38178608294606L405.13871943489363,458.5164856568815L405.09832775641513,458.6849568817814L404.9768149119379,458.7171057970547L404.8741038080177,458.6874102236972ZM255.59632349934498,392.24049487754985L255.70586802545984,392.1159703635556L255.72286124370248,391.98080716369407L255.8539232869274,391.923643915851L256.01417341563445,391.9121888559657L256.1257449873518,391.8364723285055L256.31780962472556,391.9121565990387L256.4923803469567,392.0366408920268L256.4416401491567,392.27557318833806L256.33391346803694,392.2977546028379L256.145037577332,392.7501277583156L255.9560547572935,392.9746301042741L255.78246264320364,392.9825830394329L255.55893725047292,392.94145519484726L255.46082793785945,392.7275035452861ZM167.77332492657206,356.2347417356074L168.01353289715746,356.33656124222233L168.06887359307814,356.4741807430135L168.0776770081826,356.67516917820666L168.0076700163204,357.00638120143117L167.92690276929488,357.12055877345364L167.7177327505441,356.95929992566874L167.68239358224628,356.63448738889304L167.63172609750802,356.2589812821018ZM119.46557409765057,254.56520741463459L119.7274184401216,254.37887648968706L119.84369729875846,254.48951460501507L119.7498053081531,254.613205058677L119.57983389386425,254.7020612966578L119.49657367673512,254.72147107753102L119.43899319936133,254.67839495312046ZM119.23337605050142,255.05499362110055L119.34591472393913,254.9686552221924L119.49699784447978,255.08113833999226L119.36110547534406,255.1823006761639L119.28075143334456,255.30920064580118L119.1444979738659,255.2177529496442ZM114.73405286022614,260.0113982815146L114.91406423018304,260.0501159679525L115.07578216048353,260.1714808980321L115.04095925946285,260.278322658466L114.85240576058004,260.2812150085206L114.76361120137915,260.1833433553767L114.64159229634447,260.1137843014678ZM112.89942754704452,259.3090175932043L113.16987676110318,259.3638800730697L113.16136393926274,259.5099831854986L112.88000746713658,259.4740357511666ZM111.0615076527423,259.7171400990158L111.42734780921376,259.90625845963956L111.36850515433241,260.03552142459426L111.01344095194509,259.9040115263897L110.97746472323308,259.7779091835262ZM109.75290706567432,259.6727828682741L109.85679792128246,260.1886467065681L109.6114470804365,260.21320129611775L109.41338804420582,259.72449989766466ZM25.134340590602505,203.51260103063385L26.040672208267438,204.01515725951856L26.441290398292495,204.06952292189555L26.936132090024103,203.7220286875213L26.830869995830653,204.15786326951684L26.59193869666194,204.23071149709529L26.103407693101758,204.26021544913078L25,203.711185011662Z"></path></svg>