<svg id="IN" width="1000" height="1000"><path class="state" d="M186.33672802964657,940.9130288891429L187.5266057310738,940.4924413714417L189.17659229886021,941.1044174840433L191.30151222057594,943.0707261174069L194.09595950945777,944.1639306542774L198.05837503564106,944.0283647690426L200.16489159183828,945.0466853602184L201.60661808778445,944.9762969030409L202.14263252752409,944.2168820039112L202.37855115536314,943.8826013409766L201.61167988181268,941.7366071619083L201.64168340693874,940.2096120313388L201.14656797803156,938.6961820353991L200.05063146078004,938.5197707973572L198.80495385871575,938.9867421403193L192.94526584974295,937.6010460865839L192.00884948051032,936.4700255313859L192.31987779911248,934.7600377674639L194.0823614989328,934.1549625508242L195.1439552596401,934.7863137819439L197.0720670219477,936.3118329562142L199.2829342131257,935.3086043034315L198.42530433798322,931.92051846871L198.40773770617494,928.513986579765L200.05790465963054,928.1755171330371L201.90120047786723,928.4512838411512L203.04048614524584,926.2990212522502L203.1896383438235,923.7540734792467L200.8943765333285,916.3651189632812L201.15749977493573,915.5545433542103L201.66085403838179,914.0036379882106L201.94546097300878,913.5610534875974L202.72221105349257,912.3529639887955L203.78699134068967,911.8941870689657L204.53475685100102,911.1751901516327L204.23898896242804,910.3657776122724L203.71315890677153,910.0103110511267L202.67168993159123,909.7589671392026L200.72302455494145,910.4231816794436L199.2254451969572,910.108326952434L198.13610394389082,908.9828133141525L198.12467312656094,908.8376327403782L198.10324966278,908.5655258078144L198.02277764144435,907.5432859307224L198.43293085522612,906.3034832490193L199.76318269332575,905.5980645799411L200.97713667321602,905.4894696481545L205.40199150969335,905.8703303960184L208.33216840921273,904.8890185871985L212.5236711220599,902.231503825245L214.42895212275863,898.2498301904345L214.30704848251173,897.0503556998924L214.05148586562558,894.5348374881423L209.20991871320865,896.5011445254736L205.68938770077892,897.9161186226906L204.24697870597993,897.7120787627414L203.17849118345197,895.9025701954266L203.36370660412467,893.8959908388855L206.91966000170044,892.0353271601753L208.90761613681133,892.3667905462464L211.3104196948613,891.7945327322464L211.59588796492113,888.9160410834442L212.20638671400917,887.4370444547203L212.78659324922597,886.6329084306744L213.57182047114168,886.3966339288643L214.29501046004526,886.55192087577L215.1778022408115,886.3851039105627L215.60168666415962,886.5976124270419L216.14323937541445,887.0576953945133L216.7340317247806,887.8068115743026L217.1092217051152,887.9647641514263L218.11929347450535,886.2779986230828L218.47864294245386,885.8159791236471L219.170010610644,884.9269554712674L220.2657878725106,884.6459360492248L220.8108199388601,884.2222750597108L221.05227363260553,883.3329944237679L220.80852694012538,882.6163314601278L220.55966402496034,882.1947438537575L221.02674881744474,881.7203558000547L221.4537258015829,881.6832012935542L222.7754745590678,880.8148452896124L223.09774357330895,880.6030794492528L223.8404193391267,879.6691932409635L224.02873613367734,878.498006952414L223.69213826921185,877.4826359422362L223.11923578903748,876.845324781807L222.4793483419673,876.6653897104436L222.17463323582388,876.7258838760147L221.74422885444636,876.8113144284557L221.26867858079208,877.5166664083551L221.12517256635516,878.4420972118401L221.35544353673617,879.5252719017809L220.97572080857117,880.2844066007879L220.04063833683836,880.8589921582213L219.45445253415306,880.814289712864L219.29025964216214,880.2585675124161L219.61520951837065,878.9096321494826L219.15674690660887,877.201085802453L218.4137461367174,876.3202619990441L214.87272590131437,873.9194371909219L211.87429179742935,870.5708687160336L210.36822166960422,867.5908885352105L210.298611384116,866.2407548039125L210.21186812192178,864.5577231620882L210.388251042977,863.1024670535289L210.62515561373476,862.6673096067894L211.12490210648673,861.749242658512L211.47370787777442,860.2284547278343L211.0096806458481,858.2444824270888L210.8073265075572,857.9117668363309L209.99205016190774,856.5710503227126L210.06281903151375,856.2278270872304L210.0858961529987,856.1159014078621L210.64263787511874,855.9951125937765L211.16920999748055,856.3764062455402L212.33449230280837,857.9595442235719L213.33156470675766,859.6084863231557L213.17920644827126,860.2574995396076L213.47248211425182,861.0550672113405L214.35393141711882,861.3464652821667L215.12923961574774,861.1719711983933L215.60180268127868,860.1860992270304L215.53946985905054,858.6143877672187L216.0116523487186,857.6854027053585L217.950639804223,856.858572662636L218.54449545995703,856.279438035413L218.74567047383363,855.6786099684364L218.1167994520489,855.1290068403507L217.477677673269,854.717564744608L217.06196742604436,853.5846846108508L216.93845128207266,852.3692293003917L219.07018061393205,850.8568762920461L219.9817108399978,847.8100003087936L222.67697430751343,846.397517131245L224.43965007491977,846.6161747177098L225.46905088779135,847.9367031192072L224.30223468654776,849.9946782411963L223.14680257044597,852.5722027084972L223.7600156434437,853.7203863562834L225.16296403064115,853.8715430027479L227.06484426580118,852.0736111285355L228.43879947754692,850.7118337578447L229.20575404747797,849.9514751799292L230.16242476055072,848.0460278740327L230.820164636772,845.1532901252403L232.6770421758775,843.5486825215062L234.53895136395477,845.2575208007398L233.6429048800751,847.6435730450711L233.44280008640322,849.8869983766901L234.3050538491263,851.805831595479L236.09390675460662,852.6129645040473L238.44736079342562,850.9390022325313L239.46082985713707,848.9654315446851L239.9472830488179,844.9618159045935L239.92647574671003,840.7064089222233L241.87490779354647,835.6855677162081L241.9715129738047,835.4365246590198L244.67938912933568,832.2577164450935L245.09252109137896,831.7725390690591L245.2318755351409,831.6088710700938L250.21701854979926,829.8885799083159L253.52180634594464,825.5174211723954L254.18318267843023,824.642162408102L254.7291783464742,823.9194782439231L255.53333088564642,822.8548995313289L256.08806401961493,822.1203789327552L257.0368171042158,820.8638797821525L257.2373511356096,819.5416989832815L257.33309494364977,818.910348946846L258.00542653484837,814.4753833376162L260.0057404602057,812.7597848796872L259.8156264007097,810.8554194691044L257.30791517852026,809.8610156248844L255.97954973582085,809.5544577799678L255.1741176479499,808.8674969481392L255.3440981046353,807.3151146850407L255.34414693542823,807.3146686848283L255.4625598510388,807.0793995650226L256.07973859967035,805.8530007843906L258.0694485477831,804.1685151303102L259.45987870208677,804.1417827984067L260.22292419532147,804.1270324066035L263.38533150196923,803.9303629357887L267.3721403140008,802.0671055287332L270.2311979767718,799.6329045255857L271.7328922007171,797.4770450513058L272.86965352561907,797.8508450996885L274.5028556738404,798.9079228455544L275.94007604553053,797.9398445302514L276.3952270015405,795.7742362695683L275.6782980501835,795.1569556508695L274.6312374389938,794.2552321895913L273.96814161153173,792.9112647525155L273.718262669285,791.5949302339038L272.22175989048117,789.2434192759098L272.08518289930447,788.3974886908779L272.4059610547146,787.8021232204999L272.98746535563424,787.285469570681L274.5455173222247,786.5225497732383L274.71285393737577,786.4405918149242L275.8006337410632,785.8397152724549L275.90614862976,785.3167314246721L275.466130317137,783.85049063268L275.7176137161398,782.9634861229797L275.9829138667924,782.5139886390157L276.54372629184826,782.1871054412871L277.36029583271903,782.0126328608249L278.00610863866245,781.5757551546417L278.30940498678194,780.7001895445147L278.0140731021845,779.6880324650847L277.99989665306987,778.9264096474186L277.9790955799863,777.8085341962862L278.4521596811546,777.1729010500804L278.48239058316176,777.132278436166L279.34668235155635,777.3612313133314L280.23741834734824,778.2728474186456L280.8186643481498,778.6283908415087L281.8454014935049,778.7071927435591L283.1960171845056,778.4194063975265L283.4592601731913,777.850980455843L283.5147145631977,777.2618243559623L283.26649695228133,776.755118645181L282.8686209871068,776.6169655914985L282.2730055107425,776.6184925135824L281.4593577116716,776.5582385844142L281.0455327563741,776.1596730600077L280.50237337164253,774.1368933205016L280.49298766292077,774.10193373974L280.6504836462565,773.4120595502745L281.40765750881224,772.828542028996L281.85271826252114,772.3659352819508L281.4254658158513,771.3201353029988L281.50830630678365,770.8912675992722L282.5307663725012,770.116283980389L282.8066572944625,768.895440113028L282.2313895260242,767.8962783550721L281.887984067201,766.7448507300621L282.05452926893844,765.9395521325773L282.59759650894716,765.3104107553017L283.704788773155,764.9157880689534L284.38471864638893,764.6733776555275L285.2494594072151,763.4437266679631L285.39724474064053,761.9580706295384L285.9369861150491,760.5027141244775L287.18729165035137,759.3436070176786L290.5627054775717,758.0406675492106L292.72921668101105,757.68546316394L296.2883137805437,757.1009006941381L298.1628349133591,756.0798536410696L298.203381625263,756.0577623546482L299.01102649410706,755.6176794470787L299.47008087032464,754.9833176768736L300.95536366454735,752.9302618250621L301.26566299922024,752.5012372783519L301.91495122909873,747.9110807967872L303.78587276165473,744.6776339596807L304.04546542359003,743.8196081350783L304.14901925744635,743.4773020401668L305.6336855091794,742.6536178670415L305.7744289441025,741.9992838822429L305.8497689649972,741.648992751448L304.91020741727783,740.906999769868L304.47865715451985,739.9386913990649L305.0959712826097,738.6530976641718L305.76598574439856,736.949475030317L305.7769090499173,736.8772074678891L305.87645424373613,736.2185923795884L305.72256612217564,735.6916783046072L305.66427275638046,735.4920687500727L304.86299747192754,735.2658474442669L303.79078206041254,735.6893361546746L303.0823910608885,735.6189936418548L302.6407019996334,735.2160042110688L302.62232512796913,734.5784843026761L303.14714416079505,734.1726052498459L304.6109939217627,733.9537785888448L305.86061366657464,733.3004446044606L306.3832566450834,732.3439100465866L306.18925054601334,731.3848945275427L305.53145249767164,730.1803744851561L304.3402780551392,728.8340413955641L302.4084126024777,726.3115004605679L301.52710669322397,724.6486934503272L300.4791785150148,723.3967866447786L300.6570094345919,722.8198154567498L301.1444698494883,722.4121858543865L301.5852184481707,721.3895405073226L301.5072157291577,720.4486188417205L301.17936139401655,719.8568101857178L300.71267452684754,718.4847597486604L300.8497297288873,717.3125968670781L300.9188161684036,716.0339106740103L300.5042868441632,715.3284480049396L299.95677435535583,715.1197988529784L298.8211900082674,714.8329348124929L298.0000485482828,714.393175168819L296.3730115958476,713.342010423338L295.85055961913713,712.6449610838101L296.3133275993225,712.1292648320555L297.5687500504413,712.4530480298547L297.7744242130856,711.3606416437362L297.10328909641316,710.5658356238464L297.05079152632766,709.5002003258468L299.0338077473383,709.1150495790296L299.29602039330075,708.1247318900046L298.5173231239999,706.8663696207325L297.7004744395011,706.3105300536641L297.7725791162769,704.8371787252612L298.56788575701603,704.5639479730974L299.08318007693634,706.4611641412812L299.5639952151545,706.0116982630818L299.17117688528805,704.8817461589576L299.67645598215626,703.6982876602318L299.893257953342,703.3424728347584L300.6271387283959,703.3439295431647L302.1113121203562,703.1836856475372L302.68773603737935,703.1213906039387L302.93460277118027,702.7863815306406L302.75546462958124,702.4102483816094L301.3472786610374,702.4159111681158L300.91457467497366,701.8840758291094L301.0126020426361,701.2344374431358L301.24816593391256,700.4702684419343L300.9630093514314,699.3005803394517L301.14996537480454,698.732295390833L301.75931586042793,698.6081087220678L302.58866081635745,698.3399859298818L302.6788519558635,697.0833865219012L303.1103857020223,695.8562039406108L302.9852569909667,695.3855858992338L302.21592297258053,694.2834555173628L302.2893776757379,693.7146037034341L302.6344120613667,693.4475156910078L303.7618238654055,692.0770840670291L304.04399444234735,691.1581312553981L303.8479352123554,690.3491689934663L303.088599622832,689.8368704203479L302.7764720255029,689.6262598466703L301.8354917367466,688.6315907443735L301.54962183978716,687.8095675954127L300.921840627931,686.4595485125773L292.05741688472904,683.1490317152602L291.9112841577155,682.2020434718272L292.3521378600932,681.5097707717046L292.843085622192,681.58982000769L294.06209019145774,682.1696992293398L295.0903377285331,682.2505347285828L295.38560415126005,681.6161574568586L295.21195275807133,681.0509551569662L294.65437357691656,680.9176145130486L292.9185076618308,680.5559950991325L292.4952258546138,680.3697991084014L291.97056485017833,679.8120657690964L291.8357007169898,679.1232100674231L293.692624406341,674.8944398270964L292.7827113070517,671.3581988783951L291.7874829054417,669.4923258718857L292.9115679927635,668.274506704595L293.3688119588934,665.8010066522432L290.3593885034924,661.9763801141166L289.07045343476466,660.3373019403518L286.4150008149349,659.8904400025472L284.9419844145938,658.9489361572721L284.6726111034507,657.3808025653973L285.83971874303376,655.9093392571095L285.77208666247765,654.8927600864012L285.11992496138157,654.3318276688135L284.1683092720686,654.2624270419103L282.89046825349897,654.2719066619233L281.0510596051947,653.9025835901932L279.39971935684196,654.0655856110824L278.6513535130035,653.5135795496428L278.37805182607974,652.6763206009418L278.344089690343,652.5722689763977L278.64314766355864,651.7761871474543L279.3300322972143,651.2811303112337L281.01961979173655,651.8119474307179L281.9315315351773,650.8562921848943L282.1299186060025,650.4690290265221L282.14571015698743,650.1323749260423L282.11907292230256,649.9392211127973L281.58923351244766,649.6551823491438L281.0458001775569,649.7984287341333L280.8105230320784,649.6875679121565L280.8428178151421,649.2501784545515L280.66130567035685,648.4014026473569L280.1074777199066,648.070199568091L279.1222701947309,647.822347156429L278.221439412108,647.2383170328334L277.8073410527491,646.5476307769336L278.88554359236184,644.6583275784716L278.8964337908542,643.7668092810042L279.2005937893432,643.0823223063956L280.4762380230509,642.2278155605285L281.0120140340174,641.5711522121344L281.88883965434934,641.6706227131153L282.43792727218374,642.4880129903296L282.9568669610891,642.6046335892363L283.4875988471358,642.3946419280962L283.6871719917609,641.8452764318453L283.4160919343952,641.5509239084311L283.2106910754989,641.3278751217204L281.9053990047504,641.1313736135543L281.17312863805483,640.7953976621808L281.06456808161954,640.2832410424613L281.3927600106968,639.2730286002925L281.8670414303126,638.8772449551184L282.80234576421367,638.7890321359553L284.2689745097879,638.7286854083702L285.11104508046765,638.5016286312732L285.32860674976325,638.0910112092951L285.32676735530873,638.0860138217328L285.0862034537348,637.4323953400454L284.99861634986325,636.4531885229399L285.214824608841,634.9836957598915L285.22083844423605,634.9428175452774L285.57107430840466,634.6617620511759L286.9505295983121,635.2498354102908L288.0508050908812,634.8436741947822L288.4770723263958,633.558681051708L289.03608936263623,633.0602724929241L291.192261693966,632.0622032087607L292.3735450756981,630.2757225385058L293.4172183388679,628.9297859617068L293.91681351904754,627.1978107974451L293.75348543488303,624.3670993717571L293.0967502378486,621.6171604306629L293.38701732637173,620.8657546914012L294.54132941429043,620.167389532457L294.7013455011537,619.3197779297341L294.32923314939273,618.5446057440759L293.1728694378161,618.4161426745993L292.14556865761085,618.8384118215146L291.37899819751317,619.9745765881801L290.57386207257844,620.1621264741601L289.8941812710875,619.4052190042728L288.7656576741099,617.2430662276446L288.73477243697994,617.1838802651903L288.5610835586276,616.8510245412052L289.44027009872457,614.6708595047498L289.2823361772399,613.8751855209462L287.95653307466944,612.9803644559394L287.7736717121321,611.174277755116L290.14542928629925,608.3103835309107L289.81891332221693,607.542918753215L288.93566099869884,606.888590546732L287.08185659548815,607.2745227943168L286.46635019541867,607.4614659472838L286.00869851791936,607.1836652362063L285.6590689220788,606.7081960298389L285.83741996001936,606.0276808293271L288.6439351434859,604.9137680685642L289.05449117336616,604.2139937962841L291.63352142550525,599.9363859470209L291.88437170997463,599.520137562964L292.1787771925224,599.3007793017443L293.9099574819319,598.0105691227357L297.6205510268274,598.3266805204962L298.33583311335826,598.0799927038165L299.03197772191766,597.4928884836563L299.2511051669386,596.6503058821066L299.4282647086974,595.969017351814L300.3251234061529,595.1554735138326L301.3467471837157,595.4799370657053L301.9024137680342,595.8969471595314L302.5739622053704,595.9080346155114L302.70497632317836,594.6847024858207L303.12286008547864,575.1956882648035L303.1228897237235,575.1943922997659L303.1287382777265,574.9386570205949L303.13151358862854,574.741169035061L303.1681642848007,572.1333700447273L303.23771730826206,568.1322162408924L303.251988141584,567.3791856031095L303.2870359954534,565.5326107866965L303.28708062049014,565.5302596250654L303.34212435886496,563.3086272113183L303.3733164972499,562.0495992774357L303.38218585216083,561.1377735534743L303.47805768628757,555.2060417053829L303.50343576029593,553.636053774936L303.5498270683727,551.6973546999548L303.6087512660227,549.2347425582158L303.611454955645,549.1217432247606L303.69784269256826,544.788203138303L303.7649605288467,541.3483432988986L303.8993642028013,534.4599969966861L304.0333736986404,527.5918321102042L304.0799951986984,525.2024136238174L304.065361698562,525.2078039919244L304.1201091232008,520.7330391660597L304.12026373234846,520.7254871560749L304.12031846114974,520.7228138830062L304.26452951994384,513.6785120707686L304.32311988551163,510.8164275525659L304.33456315749993,510.25742694509574L304.3570644296015,509.158239025984L304.4415838708027,505.0293770845537L304.69013094184936,492.8868262791685L304.7705002546012,489.4344242164163L304.77057140181086,489.4313381418988L304.77057604926586,489.4311365549541L304.81264636591436,487.6062570885377L304.83513805381847,485.93353627085185L304.83530992496674,485.92570566704194L304.8998389104531,482.98562870306654L305.05678617229626,475.8341277731836L305.21143211009826,468.7865863108263L305.2120950329055,468.75637359147237L305.38553259854683,462.27985887952116L305.61878490998754,453.56683170168293L305.63004466022585,453.1461447633591L305.6768625558632,451.39685051456627L305.7719393533628,447.8440066400348L305.79072854913164,446.9090865211865L305.82476309079516,446.27228525803014L305.89206299280073,444.28633864218347L305.9034417422455,443.95053736138567L305.99778859876335,441.500246924338L306.0175818010448,440.9757144464795L306.0180568891003,440.9631240450334L306.07633219879546,438.24103336817336L306.07684715505036,438.2184601100925L306.0784167526922,438.1614413075115L306.3854905563238,427.0034044490871L306.58186227410386,419.8648207097016L306.67671029884224,416.4160027125678L306.76959926577865,413.03787296596624L306.7724511107345,412.93415024184577L306.8699704635963,409.38702630272013L306.8916182346218,407.07125366446047L306.8949783980222,406.7118843489954L306.97332643809455,405.8223013383024L306.97409010432546,405.79944928612645L306.9757278179136,405.7504420023192L307.14739085329575,400.61265758296446L307.14773393163034,400.6023876348747L307.20461607749553,398.9032419899266L307.3206702548341,395.43593904136833L307.32081202271775,395.4317371733623L307.3378422234263,394.92696902553746L307.3814768665004,393.63357606665534L307.5043834901385,389.98982927348294L307.6740012262433,384.9597605503009L307.78621898038085,381.63094820264064L307.7784232446763,381.4801363241367L307.9549606653087,376.35628496464744L308.0717589578304,372.96528685914484L308.2104169443592,368.93857671625005L308.4303822176272,362.5482898636227L308.9022954437139,348.8287703050342L308.90598108715915,348.7215680995412L309.26177843693426,338.3688397541923L309.5012809285398,331.39567143087925L309.6203887552979,328.2048336473994L309.6338118962119,327.9163126226247L309.63688109476834,327.8503412274217L309.7344574526842,324.51985951296547L309.7367947542642,324.44007507086735L309.97426604461873,314.14214174545873L309.98664533940064,314.0719122752763L310.1450491630026,307.25871068347493L310.16178873151546,306.5386414924999L310.2220904453046,303.9445866651806L310.3850724646285,296.93252422357125L310.61498103338806,287.03877752364974L310.83609786775605,277.5208654334188L311.09278284822676,266.46885360895226L311.09313872289977,266.4535285183722L311.1683116697184,263.4274190366183L311.33179619010474,256.84515961508004L311.42117608197617,253.24586025814818L311.56370333091525,247.5053667227973L311.5642442659213,247.48357750830084L311.7659151758023,239.3589479272542L311.7809262454575,238.75410814033646L311.8129555727612,236.23971550502918L311.85708306492825,232.77648211331328L311.88887240947054,232.56136877479707L311.87664848490533,229.36839995372102L311.8765989284806,229.35543456702578L311.95928546553444,229.03347980342892L312.00880990562075,226.47348488836715L312.03341603362776,225.20155766819155L312.03376430545006,225.1835549887966L312.16018032023044,219.13139370407097L312.19624168647937,217.4048792259139L312.46604306546567,204.48646696267497L312.48042947416536,203.79757418196255L312.518116755219,201.99289371962993L312.5178897352539,201.9907847685365L312.5120912670957,201.93691834799262L312.55696337489064,198.57977634970683L312.86635852909353,183.90698933978422L312.9025287396727,182.19146648641032L313.03643996117376,175.83983598634006L313.0366035218515,175.8320777119635L313.13504084038664,171.55711542043048L313.1865183989544,169.30757611880483L313.2121873980452,168.1937002489925L313.2367214105276,166.9024288677083L313.25057519725124,166.75167969723861L313.2574109341701,166.58548299374894L313.28707364359025,165.8642677629117L313.29832414260864,165.33943793438488L313.441379129467,158.66562487249456L313.51524666213857,155.21927958925585L313.8855165115173,137.94128321221223L313.96299453574005,134.3253210637917L313.9636256540857,134.29586542784972L314.28529968626395,122.50900100200766L314.33294390411777,120.76263863527925L314.6510380164033,114.88892816169789L314.67157875117937,113.84619313854483L314.73647566272814,110.55173378018759L314.8606636606324,104.2473236638279L314.8635966217372,104.09843066302409L314.9040643783725,102.04406296912964L314.9040739415995,102.04357748576734L314.94065988498414,100.1862640534195L314.9874113749713,97.81287771114484L314.9897666506301,97.69702190954303L314.98989853478963,97.69053453577408L315.04052654844173,95.20012295233988L315.0660740002118,93.94341655924455L315.0673196774424,93.90412545796562L315.06750382742666,93.89831699766285L315.1323922334925,91.85146935213328L315.21402071019224,89.27618241751964L315.2477292159105,88.21259051197256L315.24803370065365,88.20298288228099L315.2798088935484,87.20032380955723L315.41778095512325,82.84588478384325L315.4569784738817,81.60857357611133L315.4986214214332,80.29396024364542L315.50899143502744,79.96657493241344L315.59187659106135,75.80677934030899L315.5934830409367,75.72615498592643L315.5974394119257,75.52759289645303L315.59898469808337,75.45003813085003L315.6050279895183,75.14673740021578L315.6316358071906,73.81133960214504L315.6379708270515,73.49339542586534L315.64677202630054,73.05167708457833L315.73851833300944,72.0923960008119L315.7392081474927,72.0616932783501L315.77506835096654,70.46557375023872L315.7752385427434,70.45799846091347L315.8101483076011,68.90412624172569L315.8110251479484,68.86509639765393L315.81695324999185,68.6012243038594L315.83431363021157,67.82846868555134L315.84237844462893,67.46947820175183L315.86531392781194,66.44853095587536L315.8892649156153,65.38235422908014L315.90192836824247,64.81863092463306L315.9083441525113,64.53302459538986L315.9354599843273,63.32591024068273L315.93707836829753,63.253863656260364L315.97204091015254,61.69738592349779L315.98130606699794,61.284906338422786L316.0043167993842,60.26046462365355L316.0131929717719,59.865289512377956L316.03234943095725,59.01241470447286L316.0500949394841,58.222342746936306L316.05035613796224,58.20483573658947L316.05124517201773,58.14524772973658L316.06176488312644,57.44017197834194L316.07692607270894,56.42404940315015L316.08469839314716,55.90315891929015L316.08839153960446,55.83268651070904L316.11536153094585,55.31803060030683L316.1178281216063,55.193503731985686L316.16037123675903,53.04568881144786L316.1854813430462,51.777982958458495L316.1859235594877,51.75565722498993L316.23365456020395,49.34590123248523L316.3032255493301,45.83349444762365L316.37834334435934,42.04100396864686L316.378959244282,42.00171835725581L316.4055195138277,40.30761256726487L316.4187192871862,39.46572885826225L316.42025864998254,39.45479020496282L316.6059562425991,38.13509991686533L317.0929209392318,37.74886226773526L318.17565525084495,39.05377194669268L317.7915802849411,39.419899104717786L317.9502283343789,39.76184076631074L318.8022286658286,40.71594228338074L318.845871978739,41.04197874386682L319.33575908933625,41.528043563076324L319.5988907632478,41.22285193230209L320.0430870866194,41.641825936795556L319.99282618212055,41.961576695194424L319.93179046279226,42.13564926154402L320.65281287436204,42.70130715082337L320.9789873480763,42.957162601208154L322.26964792551104,43.747837474671826L322.6257687054516,43.86874326939267L323.28326831490983,44.07911120240493L323.4679564889892,44.29790985489586L323.2246108556185,44.62849888771393L323.7080414316483,45.059680396439205L324.166830938672,45.216959551246816L324.37654897702373,44.99242130066523L324.88177444614166,45.45447021392124L324.9328694744198,45.64858226721964L324.7796612793293,46.06760510484719L325.7411347186393,46.650263456660866L326.2163819546596,46.75486654341262L326.90932622149853,45.72874058491948L327.18215812287394,45.429830302604046L327.2308864883799,45.40080338508483L329.473552096086,44.06445369823285L333.8458674410291,42.78352817820672L335.0196328938034,43.13760419198297L335.42083742013745,43.25859340545793L336.26498720490974,44.25744603477506L336.85490348846474,44.767696085010755L338.0367072285078,45.78965922123376L337.6670287456418,46.20714044600675L334.34971046301723,49.95148418567936L332.0770151554709,50.79229442604401L332.2073753024738,52.364027693629794L332.2077039044591,52.36798895445935L332.7642325189605,53.07704504774193L334.3281761641632,54.286502606044166L334.7203413622917,54.09353808704475L335.03476687647753,54.32633279842736L335.95564382840377,53.69101598781066L336.1624748256449,53.97171231219289L336.5015485149195,53.950040327512L336.9465240071097,54.19393076130876L336.96770839103993,54.20554113161626L337.6584801746222,54.74978493004244L338.85494591575616,55.24539297008465L338.9006681769374,55.264328601569105L343.3625452997146,57.039212575423335L344.4059408831246,57.37670691369243L345.28395085535146,57.55432573940516L347.1044676932112,57.92234090789782L350.5089333859629,58.37070625445011L352.12520557109144,58.714682582203864L352.0243315005749,59.24567025174707L352.6857443024441,59.10854811557846L353.44975028943793,59.09584948651286L354.3410082140841,58.94648769411236L354.59708652109384,59.72454097780309L355.5424455088483,59.8359481351477L355.77917194838824,58.86077094652234L356.5309058097505,58.77988268844359L357.0151342707452,58.94924709814762L357.3175484173158,59.08012819804941L357.34780080629605,59.458193764985424L357.63072522262485,59.48824010684325L359.21445114357925,59.65627533394428L362.09632609371533,59.61918938602264L362.1235086950278,59.61627592898185L368.93923732114945,58.88330600212487L369.28722012953676,58.84575244118611L372.53042397163017,58.20633961643466L375.08785520937204,57.7013147296891L375.87034842481415,57.54481105852426L376.5033670207731,57.41815393882308L376.79617269557195,56.87884014961588L376.7537446968975,56.61174818048636L377.1958524158169,56.583291016345015L377.3840741362975,56.70442078384809L379.5841034140368,56.42877357489613L379.6309477040136,54.17892160537542L380.1760886969332,54.13697872307176L382.0109811145392,53.55795841651502L382.45015773474086,53.325872365870225L382.5259788010904,53.373642258862276L382.70308890380625,53.485223926925585L383.1666429669567,53.777243695581205L385.0672491911792,53.210860642661885L385.52490231250925,53.96122775708881L386.27198953440893,53.87522030608943L386.9262979601817,53.79984550159054L386.93030697426866,53.79873781268134L390.677963414637,52.76244406201289L394.5484020943446,51.247177335970036L396.2363366840266,50.58574828843558L396.48954669392026,50.48649435321937L403.20402993542666,47.57752672334061L406.4169923366253,46.01368329974508L409.0980389775478,44.7076043086293L414.60148764097136,41.888185984915424L418.0744878389738,40.28729444413443L419.8107947534114,39.68110753289642L419.9461652497855,39.62485297065035L421.6987357409785,38.896335101869056L421.86149288895774,38.42480702124698L422.8179156705657,38.051859657309535L423.36843345938667,36.611773005694715L423.84736984563096,36.1981713573752L423.91018225103863,36.0569886076936L424.1152438300154,35.59604804215144L427.3407153528887,34.41993548315554L430.02577005234264,33.08834046915848L430.0303074327923,33.086089366708904L436.6836744638643,29.24862332072547L437.3607892407441,28.857686359271952L438.9190732951093,27.95772124498251L439.01443386545895,27.95865702675161L439.1285427500396,27.959775551112102L440.44785244311714,27.972609946741443L441.53872038858293,27.98308604652368L442.4802358885373,27.992028874990126L442.5017750958755,27.99223238866665L442.9775535236049,27.996715553574177L443.1295941790222,27.99814326513757L443.14637596622043,27.99572634338182L443.17242413512145,27.99615953521902L446.71333340464713,28.054392882774778L451.8059518443324,28.135870780504604L452.3128140102909,28.14383334609795L452.5877782350285,28.1426375878508L452.6485790990854,28.143418456994823L456.8160815091584,28.196030426993616L456.8187380009839,28.19606339040513L460.76402838893387,28.244213354997385L466.1626755926121,28.307491389825486L470.94382836798354,28.361014192811183L470.9748689094297,28.361353951117678L471.1742811500121,28.353755346274056L474.3000339663708,28.381284698860668L481.0883275509568,28.437590270286194L482.98217711791597,28.452448408249154L491.39264926304645,28.5139502859966L492.24887870263245,28.519801134330407L495.3118020403213,28.50768434026469L503.43623801750243,28.50649779372867L508.50830952301,28.502295522809504L510.5335249457217,28.499874270344208L518.5232207930434,28.48618406152775L519.9341680000095,28.483080475481074L521.6696380856949,28.478980656496333L523.3700711941011,28.47466145407617L524.950134496558,28.47037993188019L526.4386285399456,28.46611031982195L528.2591617753372,28.460576732377774L529.8679869490746,28.455401307297393L535.3370549996912,28.435805945215634L535.3488563794924,28.435760316376047L536.5587539829121,28.431005926197315L539.9296909729023,28.451362007006196L540.8149870406951,28.45651316698661L543.4366310545558,28.471291895592856L543.4413250229384,28.471317718858074L544.921669741001,28.4697338933982L544.9309563050601,28.46964333930498L551.7011709197001,28.401252327155873L551.7151320660329,28.401106396078433L552.9131233857493,28.388509104256627L555.4591075564564,28.3612441537025L560.5881342444472,28.304281195249814L561.0038093930007,28.3106017319011L561.0043201838947,28.310609487711588L561.0741360083606,28.306668657668354L563.9710464060562,28.301031335992548L563.9711584316285,28.301031101221724L567.4702776148154,28.293064412714386L571.9819059393091,28.28092335394524L575.7251722765375,28.269251938324828L575.7434489191851,28.269191396733618L582.2637388995671,28.33769459625364L583.647596063268,28.351667822130935L584.410846272089,28.359289823636857L584.4243597233703,28.359424229290255L587.2737597749359,28.367498133735637L587.2755054401848,28.367488485182605L587.2875505303432,28.36742190158617L587.2984221992538,28.367434090864208L592.9745402652956,28.372128731791918L595.8012003412802,28.37322365714965L600.8100035242493,28.373134193275348L602.3141601355408,28.372600692658523L602.3239232735507,28.372608204265475L602.9280880668077,28.373053857973332L604.2015405667887,28.373869546642368L604.7281984387413,28.374157859644924L605.2441745128981,28.364743975508816L609.4562952577866,28.35469381082521L614.4893441553716,28.34027849308228L619.3283624365715,28.323948377013153L619.3332774570443,28.323866159554655L622.1777486957261,28.275865106110246L622.3533870494917,28.27480490199372L626.4668994907564,28.24906206628549L626.5501638913988,28.248029912572463L630.3625578900983,28.21192326968719L630.9941953780158,28.205795937862263L638.3192901541033,28.127012687908234L639.2496915348572,28.11660870213842L641.7983322331323,28.087650523806246L642.3029087955872,28.08183773609659L643.876033050945,28.063546079403068L644.4092521012947,28.052313447502854L647.0221124711233,28.012949226103217L648.3711181538017,28.013678568369585L648.7865139743488,28.019046235729263L648.8504991978165,28.017420978558505L651.2815824592533,27.955356243978372L651.4152682993072,27.980411922523444L665.6912229753907,27.703209686198136L666.9665557387314,27.677419779290403L667.0011153757735,27.67671856837154L667.3941949201926,27.70827064023962L667.4017065839834,27.708873436065915L672.5191771865318,27.609528249996856L681.9732832690406,27.418867900054238L682.831617780799,27.400528075170428L686.1133410002511,27.33403192410543L686.113558035157,27.33402748956621L691.2823754396161,27.227033616603023L693.1715569405497,27.193193558406392L695.4902603328353,27.151154859845178L696.3367637286896,27.1356689037342L699.7488744114146,27.060390139677565L701.9295408738709,27.022483756235317L703.6725189904757,26.965336844541525L705.3788901455009,26.951356995044648L706.4590328136275,26.947382232364873L706.4728038674224,26.947330777852244L709.6826158393,26.934413885073127L709.8150108028111,26.899002752459694L709.9429183266313,26.87607652942779L716.8168869868948,26.785853629069038L723.1111453842943,26.68891073816451L723.135011885706,26.688535350280688L726.9305744776159,26.637860769801307L727.3952766540879,26.63155411783407L735.9687844268443,26.42682055699271L736.9873399611082,26.415532856803225L742.7969795321204,26.263154308721937L747.1925121353718,26.145543686143867L747.2353314059559,26.14438813890166L748.8808375859398,26.099837675039623L750.5689219991905,26.053843124241496L750.8389959008167,26.088812179810418L750.8524291956547,26.0905513145089L754.0014006221143,26.04759362908976L759.2260536935917,25.974056723753165L762.2006497559483,25.930927648755926L762.4182484397384,25.88809780150376L762.448537388002,25.88727978263273L764.1613005953961,25.840868339862766L764.2844428260336,25.86461814109134L764.4063449528601,25.8602527603569L767.4932782938331,25.74919481848366L769.2348874567656,25.686101619413876L769.2699759993043,25.68511582645175L769.2703375189514,25.685105669097425L771.8105776883131,25.613400254497435L781.858936681664,25.323207911250734L787.9550311150156,25.142059484777576L787.9665591500725,25.141587553704596L789.0579382862431,25.096846619750863L791.3236364726182,25L791.3238017111686,25.01053287321298L791.386406093512,29.001789241763447L791.4312356085113,30.291117820776265L791.4620662950576,31.389349609732733L791.5431681693153,34.28254309111935L791.6287882358117,37.33845679884456L791.6599936520873,38.44926539296665L791.7035230473559,39.99870370325851L791.7077173693156,39.99859193166935L791.738111014658,41.650036126471605L791.8006454745353,45.048225022540294L791.984289163672,50.126146584651394L792.1580114000776,54.92827068311925L792.1598799280982,55.14944669650498L792.2227560745548,58.01567836926273L792.2367427698498,58.65327652699841L792.254208553217,59.44947748213565L792.4912070928597,65.95004599891263L792.8621095375925,76.11815044184152L792.9616892941735,78.84698415677451L792.9622925244023,78.86958147345848L792.9625590131307,78.87956427545544L793.0881507140393,82.90704889016632L793.1798606619202,85.84756009553354L793.1799865267783,85.851432092241L793.2723782620611,88.69349246093134L793.4589415164183,94.12217447363957L793.6173832221089,98.73128232534299L793.6970710335745,101.04897488182735L793.7495115089066,103.25501589752326L793.7499752045645,103.27460990802143L793.8298761356677,106.65089442615732L793.8450760783189,107.42392604950885L793.8301983113026,107.4405252179007L794.0668808655405,115.1801966371753L794.1196324142625,116.904868630571L794.199038135957,119.60493766647124L794.3137646540366,123.50556912553714L794.4166486939394,127.0030944725134L794.7875169911288,139.60701907828218L794.788858399599,139.65259626705824L794.7892772055222,139.6655849830032L794.7898959826778,139.68477552979482L794.9209454494053,144.00256992017495L794.921165395875,144.0098160466341L795.3485544034053,159.86618654175015L795.4193899239715,162.4936374553207L795.402115882008,162.65550816911457L795.4879938223801,164.6659540810678L795.4901352878162,164.8057696209152L795.4988596228457,165.3753955371306L795.5749093195891,170.34196548536772L795.6273594449658,171.4274380154277L795.7919620227763,174.83327324420412L795.9276529691053,180.60860696681266L795.9694757091149,182.38866305768363L796.0452618443726,185.17043696869877L796.4808290719825,201.15434240015185L796.6103644165503,205.90660702952698L796.6115517922908,205.950165618717L797.0994532014172,221.64725936962728L797.1008493607026,221.69216238132364L797.2505861325557,226.43522247832968L797.7536286543178,242.3622231506408L797.8995162856447,246.97909897182896L798.0076198386307,250.39961489904164L798.1367413531614,257.23094998358044L798.1641143918905,258.67937312831873L798.3187119598958,263.00593673281924L798.3598549787173,264.15717928127003L798.4757495249253,267.4928274865317L798.4758379131999,267.4968557594779L798.5252779529676,269.7500943313614L798.6431120312534,273.5568149684557L798.70742754448,276.17101021947L798.7152569254522,276.6625401004808L798.7961875123914,280.09492092590324L798.7962674510354,280.09831121590616L798.8926820466128,283.5073504611777L798.8929708851114,283.5175627171143L798.9122257333923,284.16543378128404L799.0013532361738,287.1641195746327L799.0277249379853,288.1977956253877L799.2902531359283,298.4870351716992L799.3782210279292,301.9343756752228L799.4393725516697,304.33070846074423L799.4393892074106,304.3314286092417L799.5447440439018,308.8866790936994L799.6809187557573,314.7744784538288L799.7925871386743,319.23631271467553L799.8362197801137,320.97963307115526L799.8367074667765,325.02616813962555L799.8371845172378,329.5985262532397L799.8372480356174,330.2707751092088L799.9022817951646,333.830637000018L800.0356299397292,341.13162630618183L800.0578006626815,342.34572308728804L800.126418034337,344.49933457314506L800.1270610468529,344.519515041737L800.1676231673171,345.7924895051956L800.2852391801471,349.4832551962179L800.5007938745725,356.245708625397L800.501422407245,356.26632696548916L800.5678554243384,358.4454948057752L800.8093930957799,366.3669271313628L800.8094376078953,366.37200609026576L800.8252145535894,368.1726311748556L800.9256885773372,376.4875215942067L801.0506018092099,386.83914338194427L801.0509503763044,386.8680514204429L801.051029727488,386.8755641427828L801.0811921380686,389.73202948428786L801.0881511220193,390.3912866241652L801.1052065619514,392.0073801755809L801.1139567980346,392.83670561420433L801.1152258849135,392.95699742100203L801.1211543009525,394.23902662849855L801.1214461735501,394.30217191911714L801.1206557240034,394.3199954196064L801.1207833421996,394.5963933580493L801.1219663727634,397.1880629595361L801.1219708232794,397.19791541079695L801.1227616126769,397.39303313169415L801.1709194712241,409.33027583055537L801.181174385639,409.8071428061273L801.234510416085,414.5091999616454L801.2345904477179,414.51521818409645L801.2665195468768,416.91656329497573L801.2805170906767,417.9695135310777L801.302446236329,419.61937186661044L801.4184703071094,428.353868523753L801.4463813730005,431.85072360293776L801.4632650919045,435.30133606680647L801.4802316131905,438.7760328566407L801.4802329758893,438.7763122256116L801.49152975371,441.09386402341755L801.5756698461729,446.43892210926845L801.7450071788504,457.20254504234606L801.745905530699,457.25966980104175L801.7515252171083,458.58629697407866L801.7725638069259,459.73934267453166L801.7725680623371,459.7395777952501L801.835889259506,463.238467800141L801.8812054770699,465.7427896021289L801.8816057759532,465.76491260814623L801.8701750034252,465.94492181759017L801.936053145893,470.1973638374805L801.9859705846172,474.88546121396746L801.9862990953714,475.4778523804697L801.9882415318909,475.6151238753777L801.9882445288675,475.6153356726949L802.0118946427018,477.28683268195414L802.007322818594,477.3141010681226L802.0579597828937,479.5611041671031L802.074901634646,480.3128971721074L802.0845778966686,480.74228088833104L802.0946806659447,481.190591266455L802.097600130262,481.7025582302551L802.1041459207954,484.17477976741327L802.1041637893142,484.1815386424425L802.1047047023283,484.19414744832727L802.1328855466976,484.85103279018944L802.1908233055237,487.62289797950814L802.2785615471212,490.6942122586502L802.2849185481315,490.99995136388515L802.2899442545029,491.18229164904665L802.5606705157342,501.00329484644215L802.6719088710847,505.03786092455397L802.6723308470946,505.0531649509683L802.8932525598448,516.045267931695L802.9487863227848,518.7280121309882L803.0880855177359,521.9033068911675L803.088418331751,521.9108923844144L803.0961851718436,522.3998675255566L803.1518473683868,525.9046684919372L803.1522789561019,525.9318470050398L803.1905140833236,528.3398448725246L803.2552192915277,531.4137501914689L803.3570635047699,536.2522479753801L803.4671842006558,541.484302844228L803.4711877753462,541.6745275656348L803.4942729693123,542.7714003666612L803.5204968993877,542.9272254998042L803.5382683635669,543.0328233158757L803.5446616632132,543.2713833311561L803.549475553034,543.5340919749399L803.5513613520241,543.6370065096564L803.621459237333,547.4627823891822L803.6214613995888,547.4629004088254L803.6242397621013,547.6145485952032L803.7543420303467,553.8437879705996L803.7543449113753,553.8440159141644L803.7872270968126,556.4460546460148L803.7878666991705,556.4699230098345L803.801317636856,557.0751390966138L803.9550198004551,563.9909717328361L803.9661211806883,564.4904860630636L803.966153332876,564.4919327744567L804.0876075494048,575.0864739827022L804.2002921215656,584.9318332436653L804.2003358893264,584.9356602382286L804.2004537654735,584.9459671800148L804.2925368423878,595.2547058825721L804.3760636497329,604.6282101833066L804.3852699502171,605.6571465083532L804.3852728645447,605.6574722672513L804.5421045956548,612.5323043051378L804.5684163061203,613.685693943889L804.5774815435516,614.035919340139L804.5876436688724,614.4285189515799L804.6208090539999,615.7097967591261L804.6286999911927,616.0146425164698L804.6456437419627,617.6119597873189L804.6547536495457,618.4709574181347L804.6553158994302,618.5239778370709L804.6562125915991,618.6085373656551L804.6794274010953,619.1781227251179L804.6820439700441,619.2423199438863L804.6875242899202,619.3767780251663L804.7075317293821,620.2076014104846L804.7435305373716,623.4535708281396L804.75295303118,624.303474256088L804.8155761331016,626.3410899801139L804.8178465994656,626.4149626526046L804.8353461640154,626.9843269081849L805.2373788553052,640.0611341052168L805.2634264674984,640.9081336704572L805.2652222172327,640.9665256162076L805.285940875089,643.01071081469L805.3048442815133,643.8079758109305L805.3796798144438,646.9641771423712L805.4512402894002,649.9821895171693L805.4596348707021,650.3362210117685L805.4965255986233,651.892033599983L805.5336067363985,653.4558599549791L804.5419979079276,653.7595328617012L804.4099076444093,653.7999761432284L803.5037107587348,654.3635761057205L802.3342633771458,655.6298048217908L801.9990458081954,655.9926921643994L800.7588348483042,657.1697691153682L800.172587856767,657.7260430092347L799.6861085609214,658.3281912910526L798.168372102125,660.2062717476767L796.2849667666856,661.2828004120606L796.1098384859544,661.3828743172941L792.9968091076794,663.1609920909112L792.0901449384652,664.1219038942464L791.4851769295459,665.3304052940982L791.471347616312,665.3580279121943L791.482471468595,665.558248576498L791.5150213606478,666.1440989537463L791.5375048578285,666.5487495692316L792.0927895004409,667.2147071210986L792.9377716097227,668.9246800711339L793.1174159315401,669.2881566532443L793.3604265937768,669.6123975947224L794.3153272627164,670.8862768066185L795.2301187328285,671.633361949741L796.7309375634063,672.8586729477407L797.7962736366931,674.2379757264846L799.2792627897566,676.1573466371613L800.5620980680228,678.110344285365L800.7461621689076,678.6639819423216L801.2071404682423,679.5192364084814L802.5992896393861,680.9271728957315L803.0054258075544,681.5155398756361L803.1250199673586,681.6887820363486L803.8465865776076,683.2387618308701L804.4210307676503,684.8135919107796L804.442698357383,684.9747572223321L804.5983426125351,686.1323507782529L804.1340637931032,688.0473314264049L804.0897834529849,688.1307863311115L803.9455110792519,688.4026864433338L803.6819218707435,688.899418311107L802.6835074587232,689.9554629209481L802.5355447203866,690.1119428562599L800.4078142569127,692.361482585443L799.7284840766698,693.0794398080106L798.3086385618014,694.579606768702L797.2185201663426,695.9676165227405L795.9658913662487,698.1312038900044L795.8284998822185,698.6834761474145L795.710841568469,699.1563842969393L795.8118115905839,699.8049451485779L796.1728976512895,700.8498838833368L797.419818530434,702.7412173907136L797.5162926990718,702.8875206645264L797.9624076925405,703.1776853756912L799.2830337659097,703.4986523049181L799.4139461612676,703.4974506011301L804.9442865749974,703.4451483486044L805.2870623456612,703.5047443231954L807.0855349435942,703.8172334336001L808.2698672523247,703.866353259992L810.4726819611496,704.716941853175L810.6317151927668,704.7783276277821L812.9417520055533,706.4792936039214L813.276312360239,706.8324520095741L813.5070942733068,707.2540501814914L813.6632719703533,708.4797734814169L813.4735958054052,709.8844646987475L813.0396698026263,711.1389975937536L812.559480028883,712.0540564714512L812.0706047864089,712.7364806717094L811.906196588631,712.9017293415345L810.3338951032906,714.4817155828143L807.7770695741508,716.3060319169812L806.766166844614,717.2401743265408L806.6454909558033,717.3516710698767L805.9012143695893,718.4020377616514L805.466417700321,719.4417460371085L805.4681178385422,719.4872300026923L805.5133406258452,720.6970324357393L806.0785394595002,722.3097584563119L808.1471753260502,725.4554351155562L808.6608986563997,726.6705622304157L809.1387296519308,728.4474773195227L809.1420084362303,729.3123948066648L808.9512504378495,730.0587214744241L808.896149074295,730.1264051869125L808.6311572996199,730.4518932403842L807.37797266653,730.816721786474L806.0030345511532,730.8301528714694L804.6926345686463,730.6050399376828L802.3743869782074,729.7483614671858L800.6778221751932,729.2835277628203L796.8625290432968,728.6865663709236L794.8411022248354,728.3696814410448L793.7210731347795,728.6262298841132L793.257390395089,728.873330549169L792.2520260960121,729.4089930977996L791.1034701839349,730.1689290605013L789.7887825848936,731.0385154826731L786.5037834347715,732.6996849569418L784.9983539944715,733.1918679032248L783.7687570746152,733.3071866046396L780.9622972693154,732.7112550259887L777.9218840243736,732.4849973605318L775.8128674649945,732.750934404289L775.8126270685771,732.7510254258018L775.2670800684764,732.9575684851347L774.7103839071702,733.1682957434699L773.9705091459555,733.6765862353984L771.7997738682509,735.652217126059L769.6117572217144,736.8279876250444L767.8356672758761,737.7818987296484L766.3963453938023,738.5546062136283L765.1019986735012,739.6217224098631L763.6445575360606,740.564484981316L762.8280565207327,741.092496420197L762.1992793462458,741.3423378040048L760.658731042814,741.9542623754373L759.8368476972101,742.4707086299542L758.7684300130766,743.4703262488937L756.4572698371926,744.9021171983968L755.2902032721959,745.6248083923446L755.2111166545104,745.6914001322584L754.856989544293,745.9895627193795L754.1883174661644,746.8925809630864L754.2071277677258,747.094533353597L752.9472454029118,748.2095516264367L751.5437037129516,749.4512977901943L750.3658887432998,750.644311022956L749.394194074755,751.6282730497223L748.3532929906117,752.4219696910668L746.8361287958019,753.3540344717708L745.1063224841323,754.1543143106248L742.0528847001071,755.2203635247156L741.1904632999174,755.1601481444757L740.6261810212444,755.2283197805243L739.2852106383926,755.3901963581066L739.0320771125841,755.3611112690028L738.6771710820643,755.3203217162086L736.5830845512089,754.6491988186835L736.0315362347503,754.4723528012119L734.3694269611785,753.601605205559L732.8664691725464,752.3046927139931L731.9184314681477,751.2404263439738L729.4741084625741,747.1877563660365L728.7497028120891,746.3015168072286L728.0029459035435,745.0443665126547L727.9603310175312,744.9726163029038L727.5358448184954,744.7219971631735L725.6182881019494,743.5895186071522L723.9592832903357,743.1045171541911L722.4877489493635,742.8255651183708L719.8991403768064,742.5752336635069L718.6481779940939,742.6705950351811L716.7470333515369,742.8152242267838L712.1239580340656,744.0862871708734L711.7054465827855,744.2432556911688L710.9320998827012,744.533254943136L710.2323279534412,744.7956025339845L708.2111352193863,745.372793116386L706.0458537725094,745.6775665735267L705.9548813535089,745.6903610144151L704.7991165333244,745.6924211222878L704.7970552904899,745.6924246795952L704.3677677176855,745.693156486141L702.0965938829102,745.1749385887131L699.6220810271267,744.6097012645334L699.0563568810022,744.4803851885488L697.0928349898907,744.2473322926978L696.0254988916965,744.458705957225L695.0197929660102,744.8205525574813L692.7803835857944,746.1496665453083L692.0973235130873,746.894038667469L691.2762743876758,748.4837958305229L691.1145990739635,748.6941592661544L690.0631485517645,750.0620184812094L689.467462949732,751.0383886952604L689.4391933454932,751.177191066912L688.7941019003223,754.3436705523297L688.7328004544584,754.9237528295721L688.6280025904185,755.9152953399009L688.7361640814476,756.8922339450539L688.9339247570398,757.6062256427473L689.1353701997504,757.8873806864359L690.982766366541,760.4650194066605L692.1639343221898,763.0379734487087L692.3914923422356,765.543304211868L692.3433801090944,766.2758198272852L692.1296981079182,769.5279471299388L692.2316724392302,774.8192276783534L692.3926861434176,776.0169231427756L692.6224598807933,776.8999922925199L692.8754316448152,777.7227489308787L693.3003959038019,778.5178611015194L694.4036315172342,780.581494937988L696.0351084416262,783.631816748039L696.8383748053197,786.0285536522181L696.8502162282413,786.2009487755663L696.9730061541459,787.9883845634142L696.9460002388662,790.1757926465577L696.6428507571286,791.5249443749437L695.5931415476142,793.7546336131695L695.09309632235,794.4497057483204L693.7666973596238,795.596608776143L693.7257705171648,795.6319911691189L692.1202467404523,796.5543444209267L688.979059777821,797.9983502322602L688.227098423364,798.4431467857123L687.4484848538004,799.0146201024215L687.4227190735041,799.0391692355395L686.4198561151626,799.9945540873042L686.2325047852501,800.249846268247L686.0254129758764,800.5320216886166L685.4204059405687,801.9282755189062L685.0939049445244,802.8461860464208L684.781038797074,804.3358738297112L684.4789537959202,804.9848635448901L683.3836587881617,806.8511139863007L682.9086910922198,807.660194455365L681.525956461249,809.2381362324572L678.3353151448068,810.8470570131681L678.1372634026336,810.9468812072275L676.2168062615109,811.7134389974719L674.4531815294218,812.2700743202417L673.4681186162082,812.4492542816739L671.2948303203741,812.8442173587213L667.1512275270122,813.0406818470692L664.7982990516427,813.7456270492529L661.7873717295585,815.8100989717313L661.0786214865817,816.4941232453168L660.5248263855049,817.4069399960974L658.6904472090505,820.4293874468102L658.7039264519746,820.5425238071882L658.7308639909219,820.7686152360104L658.499401975051,821.8832661616718L658.4547156088225,821.9878218002782L656.9664183081795,825.4689911949667L656.4227915264963,827.0779322740455L656.422096790133,827.0807305257292L656.2859971338835,827.6288860885568L656.0208289719501,828.6967347028059L655.6749911852849,830.0891594283858L655.61731022297,830.3213651963895L655.5012893380119,830.7884023004117L655.5001560168586,830.8004001457255L655.4205698296083,831.6428733872347L655.4294466147298,831.8225469276299L655.447598926065,832.1899524402228L655.5479692093643,834.2211610323657L655.4159544870506,835.3506063485847L654.9987129156427,836.7354194728786L654.7552722558413,837.5432432823529L654.3019324406222,839.0472957729123L654.0630539930355,839.8396735296544L653.9702324913801,840.1004655997185L653.0939859329511,842.5618032891427L652.7552206007214,843.513102979921L652.6983291837993,843.6728467666817L651.8895268193855,844.9766419206044L651.6239214690333,845.4047278005744L651.5345730960951,845.5487258680813L650.1564133371238,847.362975000802L649.8913002389627,847.7118975440242L648.718636746201,849.9472847929715L648.5734572348897,850.0767859581963L648.3567336405797,850.2700963154502L647.1147280686203,851.3777250532123L646.6489301157959,851.6654737308237L644.1276126167169,853.2224411178466L643.247055754162,853.7659702715459L643.1262907941757,853.8405037642322L643.0345629136373,853.897114687569L641.3272665324425,854.9505531147383L641.2355362437848,855.0071398120108L637.8637936632708,857.0861953668041L636.7163004094047,857.7933493691062L636.2434788734637,858.0153088851775L635.5739593828233,858.3295554547865L635.5614133283558,858.3354435275766L634.4026101237579,858.1776765423159L634.3036126697518,858.1202979307786L632.4758239630517,857.0606553226874L632.460857538899,857.0433205500015L631.4207554578649,855.838462560099L631.5678940398151,855.3540937136099L631.5330722576048,855.185153346716L631.5281324924817,855.1611873708935L630.1119325120683,853.7974217984106L628.9345771368894,853.3560019066231L628.6657515485097,853.2551893872376L626.6557321669665,853.2493434520693L626.6532859539316,853.2502410311148L626.1832390836881,853.4227003492781L625.806613890521,853.715974666899L624.6448049583967,854.1145775743867L624.630433412078,854.1195073087578L624.577751237861,854.1375781687291L622.0028601736057,854.6431303370499L620.566556685311,855.2351623517478L620.5377924426205,855.2604534428386L620.528891994611,855.2682791658983L619.5122050602683,856.1620886919256L618.9389974188225,857.3415050103173L618.5867075052334,858.0662435354361L618.4863583772647,858.2726667547331L618.2243995781046,859.4308994114482L617.9888661799706,860.4721066518716L617.9004212269792,860.8630437365107L617.9316195032727,862.3608562199696L617.9277246732503,862.3966402646993L617.7662840737429,863.8797023632751L617.6325493101698,865.1079725146526L617.6314039448738,865.1184909054443L616.9679432122581,866.5312434437049L616.5488538110296,867.423456924108L616.4961136653003,867.5044679044603L615.6365847513431,868.8245572074883L615.4285232053464,869.1440527023046L614.519849881333,869.9139238941195L612.6834202537802,871.4693107557455L612.1965740761357,871.881533750338L611.5731712105952,872.473623056846L611.069245363853,872.9521695869582L609.9895383899965,873.9772971836921L607.2603760452704,877.5998778564624L607.1154729631776,877.871467459486L606.71639642549,878.6193807218227L606.3645205229811,879.5712175759895L604.6449210681826,884.2205912745308L604.5467473810955,889.3251998026326L605.2397186608011,894.9309695737963L605.41351477101,896.3361599806991L605.5458916086722,898.9489505954366L605.3218549735434,901.6721754833254L605.2652489126044,902.3600439032335L605.2649520135966,902.3636515702311L604.9682224173075,903.0663115090906L603.9524007353612,905.4711472978256L603.5708833476065,906.855146411105L603.4910489279498,907.1447154941434L603.4230690538517,907.4512627894512L603.2424002945443,908.2658935620518L602.9894162245207,910.1154645390402L602.7848838973431,913.2974258058808L602.4544444514081,915.4656152559269L602.2646513021608,916.3038715843145L601.6962606379992,917.5726127312228L600.7852881877917,918.824715820494L599.9517277033415,919.7718275219352L599.0318795590861,920.6186819606078L597.4063275727957,921.5519056897824L596.7526460648663,921.9270724429457L595.4500504626685,922.1752172542161L592.0674653160277,922.4506153184634L588.1485444331286,923.3166590863548L587.6935442326132,923.3901614720187L585.7556272053821,923.7029864552931L583.5577005629623,924.2983595463478L581.871251835798,925.1484547010084L581.6462804636783,925.3957833265025L581.3091115772903,925.7664327386385L580.8291691699787,927.0493502550659L580.7821207703767,927.9184416943178L581.1556556684046,930.5448832523889L580.9970369155229,931.7844518906604L580.9769018987843,931.9417849007041L580.6633290053355,932.6503680316675L580.2503102586039,933.2224777808531L579.4556966781229,933.5488244544208L578.9100868449625,933.493047496308L578.2879082629626,933.2264803570251L577.2414950469239,932.2125715151874L575.7399889507277,930.3394565044244L575.1383117715699,929.3018384006621L574.5569298112615,928.0558039193351L573.8314893914766,926.5006428188533L573.2012138254122,925.0142505709838L573.3777841993431,924.5038419993139L573.1066389510715,924.1417181446863L572.3060849504766,923.2944199959052L572.2171145914981,923.2002440954084L570.7834247685029,922.1688761102932L569.2072725542793,921.2531451401401L568.5439402434478,920.9510408659144L566.8390701800183,920.1743254176304L564.9194048111341,919.7290095476953L563.132348281502,919.5569186866996L562.0359617737907,919.615770247015L560.5578537225485,919.6949270646874L555.5519815933162,921.0609257993553L555.1577729899415,921.0575385008203L554.6213522965418,921.0529051012857L553.3234781678369,920.7192144028472L551.5045902707252,919.7318823937695L551.0419138634279,919.4806567511321L549.9675028798123,919.0046349259669L549.0035725425112,918.5774375057578L548.098132341935,918.1760546777334L548.0800077994156,918.168018983634L545.4201176278153,916.7070187907223L544.4366791352999,915.410456861737L542.9975063185858,913.9527602776968L539.7705018308563,912.3750558580118L539.226418776565,911.9542477692505L537.6148481464165,910.70748975785L536.5434173463069,909.641505365606L536.4635046721922,909.5132025949521L535.5384213850305,907.6811560748065L535.2670876089088,907.1436900732831L534.2879427846583,901.8521277069902L534.3000350909897,899.6239674464566L534.3660314459612,899.267305162585L534.5888457661243,898.0630086081305L535.7143337264964,891.9763441441442L535.6038177841268,890.0984330134191L534.4585528705114,888.2593301636343L532.5653875407439,885.2178072594111L529.4506322094991,882.8412975170938L526.9825253078346,881.6222211217067L524.5355642446858,879.6265524057985L524.0053387487781,879.1939590368363L522.1033627408576,877.1753740904865L521.1718430559523,876.186386875852L519.1882259953302,875.4979770337445L518.7709118851591,875.3530912698893L516.2179345080685,876.6653694035754L515.9421457170452,877.2681846702468L515.3880285118837,878.4791756663755L515.5180989733122,881.9777837604443L516.5978188895122,883.7200671131443L520.0412027595492,884.8388302359988L525.3053010707376,886.1173231258565L526.1917799656673,887.7868814675403L525.7756592942873,889.8152837742774L524.833430657568,891.3036117679285L523.5485561909217,892.1818852739696L520.2517274741756,892.3675223908197L515.9021659166209,891.8358537607414L515.0544718119016,892.1621874335108L513.6360868489706,893.2826697700746L511.9145428354208,897.3548498268104L510.8777629951517,897.9317132932057L510.2276732980136,897.8322356165482L507.90747764737705,895.2586829525081L507.62765298800343,894.9481984532907L506.14149751821435,893.7159394215435L505.1605538167034,892.9023362755908L501.7269646490037,892.6255950244915L500.33125051842336,893.2725150612827L499.5826237630139,894.0822410215338L499.1596123864649,894.5397081249382L498.61631176247215,895.7092969642906L498.5840974041152,897.5619017204633L499.028733287415,898.9196373879145L499.9891811505186,900.0780035841822L504.6964995323267,902.4258547750446L505.4445700154381,904.3946787599173L504.9227090111633,907.1692054650646L504.83714086979893,907.3029629414937L503.8797862467214,908.7992356372737L501.2117817847475,911.1969157351494L497.44978912135895,912.2187939660068L495.830246685455,912.3679438210249L493.85161728334924,912.3376041669119L492.0817516948484,912.3101447861L489.8475757349399,912.6178580903855L488.7912880079356,913.052578864765L488.3864604289234,913.3881336579362L487.92161149188644,914.0917433300468L487.36449310661425,916.3963606403906L487.3410230678704,916.4934303212576L487.3105898747643,916.6192967034694L487.41192808571236,918.8649650248701L487.353999689332,920.248990988111L487.1540160296347,921.6406902946983L487.111417258902,923.7626125804502L487.27589054452267,927.7733375609002L487.2064267985624,931.0699787432379L487.45641765753675,932.5394360252412L488.0840115503142,934.4158795681205L488.4496510542707,935.0573395924298L489.58882569254473,936.2373107016081L490.1955231316016,937.320448858376L490.6380465179131,938.7895518711022L490.7131465734515,940.1764737945214L490.47967767314685,940.6336795403975L489.86997289011504,941.2878502464L488.29099685984585,942.2403537764682L486.96677606688047,942.8913558289694L486.55841058402433,943.0920657826236L485.4325458082887,943.4774595300755L484.1765216472811,943.504491957172L482.6886577794298,943.261834859673L479.29942828628936,942.1966992785246L476.61070045063224,941.9443679322376L475.42001522902024,942.1462248288472L475.02852126076715,942.4170024828006L473.57606225601603,944.0743139319686L473.12623668353797,944.8776443923542L472.85318491580625,945.8971015500954L472.7978371099463,947.2391784098993L473.14634070504474,951.2826926388558L473.1086976339559,952.2848780604744L472.8952180990681,953.6581497765429L473.25702564802725,954.4546509360882L473.2850318953821,954.7740297405043L473.13020282095397,955.447468643548L472.0240412736166,957.3796540348285L471.8692656160472,957.6499537041883L470.99570661474377,958.339501554434L469.83267756605153,958.9512781803081L467.8035443969069,960.2950239096101L466.31516929717895,961.040873656528L466.1681878509022,961.1145123501115L465.4011621336643,961.3829284650965L463.52846645233296,961.6841377520129L462.668900920731,961.6270833652716L462.1395313608948,961.4125892316258L462.1377076221924,961.4118502160409L461.5710407560552,961.0109749216826L460.93506368841537,959.6551167409305L460.7830608556542,957.8982949309307L461.03466593769815,956.4906021551151L461.59336050587933,954.889857728883L463.46796885708295,950.8618678154182L464.242690602581,948.7402021082972L464.3850323260644,947.917610426262L464.3718968975813,946.9077701961833L464.1165619892921,945.8965876703943L463.82001029010655,945.3873241668853L463.2482478824073,944.8997118325178L461.18623665748055,944.293115224189L459.1042709510969,943.877232744027L458.9926109848228,943.8549155847278L458.86538973539507,943.8294866784424L457.3562398025688,943.7925184837802L456.37993578393656,944.2522549509047L455.2278895459056,945.3480421900315L453.02919783756795,947.1098429404138L452.1817131041263,947.7886777667518L450.580966937851,948.8172740283178L450.1343737727416,949.0440665791714L449.7746564942735,949.0982907899947L449.40910148448245,949.1533817390554L447.6494049281438,948.7285718345947L447.0305031104258,948.1784905356191L446.47118440125575,947.4558024042298L445.54234330230685,946.255415483494L444.9701165363183,945.5157471295739L443.95108489874576,944.1982461298396L443.13669287752305,942.7286332402043L442.87659522318575,942.2591897258109L441.3033932637889,939.4188935598513L441.2014650466981,939.2063966363025L439.6087395884376,935.8848910027878L439.4630945997948,935.5810621479079L439.21923808088985,935.0723183948814L438.5007519074896,933.5731156786933L438.39285651750794,933.2880192318626L436.9993170063504,929.6045733376304L436.52811303963176,927.8501286472492L435.71058597312924,925.6810972794678L434.72760985957535,925.0280861557724L433.89148492427984,924.4725064217962L433.55838621165606,924.251140425391L432.6886645738243,923.6730673092716L431.95870371057293,923.2966333122121L431.86160367442676,923.2465542203026L430.9457937856175,923.112723893197L430.29185037991004,923.2159491538469L428.0512922698979,924.4504486252906L425.3946015490333,925.3266784595903L424.0657784883187,925.9736464179798L422.66438094081997,927.1210119783531L421.9471415775319,927.8889231196029L421.27730243879637,928.8553033520269L420.2175198034869,929.9356677564431L419.16509767012474,930.7109431451427L418.4644926617085,931.4665550188647L417.17159016430014,933.3640627208136L417.08062256386654,933.4975433353891L415.07980902498446,935.8423948900938L414.16929912476087,936.5925642285047L414.1430446676955,936.6094870876716L413.24384964800396,937.1890155380006L411.819647092344,938.1066453793253L410.20547226862595,938.5015649471092L409.1329406825575,938.4928338594392L406.9731057969062,938.8072219672314L403.1169640088148,939.0380862069875L402.3041749433228,938.9128894489347L400.42427161966395,939.5252654077791L400.40070891007093,939.5329383990118L395.72113861866,941.3639151031138L394.3709900628859,942.0070194638631L392.8765913524941,943.0475731914171L389.90387435757464,945.1163540578108L389.3318980598749,945.7808512009201L388.1912564136824,947.1057059494401L387.6301415457714,948.1930278556846L387.39938190697177,949.1378205869028L387.4366756910165,949.4970642843643L387.45717614829465,949.6945317776024L387.50934187156315,949.8343860794167L387.7799683895097,950.5598718934989L387.90708798663803,951.5524907276916L387.9537483761685,952.6209154280705L387.958932150261,952.7395993001753L387.790305171287,953.7688963640951L386.71730106658197,956.4346304030455L386.2766095905934,957.8995808894165L385.4658166500386,962.2950564397809L385.4559322144653,962.348624638464L384.96265365714146,964.2441273794427L384.1738838785918,966.3896412538473L383.4556858383461,968.3425529520562L382.970780916843,969.4074141470153L382.8815484778696,969.5630228722222L382.7887464974017,969.7248517281522L382.40088834122434,970.4011507289515L381.60952718779515,971.2361449226166L381.26194643880285,971.6028378906635L381.10102181616185,971.7726003858625L381.0900147073635,971.7811810400764L378.5328362384318,973.7740262263326L378.1715954102302,973.9239621888019L377.487322901837,974.207931260929L377.4490759203166,974.223801840586L376.85746782075876,974.4692667113343L376.7441681874775,974.51627111407L374.8563984367943,974.9385125728761L374.59903152237433,974.9960496775554L374.5813603635497,975L373.0294495536277,974.8945158846136L372.36479459688667,974.661003925307L371.44470712042744,974.3376675935272L371.31495320326025,974.2109404590137L371.1745834361287,974.0738405152722L371.0485908281214,973.9507787556781L371.0369385437362,973.9263694886317L370.39475429857487,972.5809547328627L369.61763675892405,968.9137980092618L368.79918952643345,966.7376545813688L368.4498270233265,966.0924795223284L367.6341928677656,964.5859330759607L366.6511816127352,962.7696723398392L365.6395493628295,961.4217962109708L364.9893071363431,960.8560289590597L364.5061001335389,960.5919100394831L363.3671628979955,960.3053732978825L361.59476653403317,960.5051754332817L357.3561660289906,959.8477088229374L355.41696064918426,959.2244253294739L353.79565905695654,958.4900861488409L347.3041358318819,953.9616636245528L345.8580308863233,952.5964445696178L344.7803498832261,951.1690589833009L344.5567041199019,950.8727872111831L343.712974259109,950.1083072293645L338.43393900328107,946.2499812249396L338.3818380405754,946.2215214481682L335.07936319135865,944.416782098523L332.84768801898855,943.764567778352L332.38842652982424,943.7672928667989L332.1497696200571,943.9178570134429L330.3429742381609,943.0097692063491L328.8977549718275,941.7785182628916L328.50716109397536,941.2547749899854L327.8328600099212,940.6865947586697L327.19570489937644,940.5613994321759L326.8228614254365,940.2280692637555L325.19595919454196,938.3332969084497L325.1251298806744,938.2038530952459L325.2592108159976,937.9272448073855L325.1843881067824,937.8442739993875L325.1115092243732,937.8002607611471L323.7093124905627,936.9532843783315L321.62393396041176,936.1935413627664L319.7402589389679,935.5068468869681L319.464158588723,935.2490078537257L319.1012689577781,935.1691685448736L317.2661195910826,934.7652082657262L316.42814314426886,934.5806333849769L315.54292759883504,934.5565907952093L314.52968554412314,934.5289780603493L312.9331591582982,934.6451171674366L310.8362942075787,935.0279926856615L310.83586615599836,935.0280707997556L310.32014017879703,935.2535722521395L310.1809377736625,935.3403300161124L307.40176104256,937.071818169185L304.3821059596402,939.438323506309L303.34716932585803,940.2490064456853L302.55101876149166,941.0887252279558L300.4601863915082,942.8655088285961L299.6489927882453,943.2367925884389L299.23205712013345,943.4275913688225L298.4623033049428,943.483867437964L296.8164456340279,941.9446973685863L294.6861062232414,941.0033363857244L291.9746431621776,939.3962004680161L291.53527385187226,939.0962651664336L291.4847428360781,939.0617681091019L290.9624934420925,938.7052081686187L289.4534759483375,937.280827888962L288.24468463740834,935.6073883517856L287.7805304639917,934.7972609623399L287.12248955575654,933.2687939709831L286.98962016058067,932.6542956061256L286.9883381815667,932.648366356602L286.9774365389627,932.5979451957185L286.7338938120199,931.4714229633912L286.9455316061237,929.5857167957495L286.74092525450635,928.4249115169964L286.7267202456083,928.3443127576501L286.137621865353,927.4091967930292L285.5375939002755,926.9343163948522L284.63250811457226,926.4278334044677L284.255933114295,926.3448759995064L283.89135140274715,926.2645466247411L283.29827474755314,926.298683559663L282.5668336421103,926.5233229708153L281.787087458927,926.9815110733822L281.6558386213006,927.0586255253979L281.1762752021281,927.9194950738909L281.0260995780546,928.39307875642L280.886433525704,928.8334894152247L280.8645363611983,929.7298200657609L281.1744604016113,930.3433951866267L280.60364039985654,932.5839351001898L279.73610571253266,933.7290770514079L279.69483562428246,933.783546702404L278.35989303028157,934.9096039281535L278.37736693021,935.2710496886062L278.06500865960186,936.4135821487223L277.5185406839405,937.5655141300488L277.3820264258214,937.8532457687634L276.82517182982156,938.2572484009991L276.236379794445,938.5437971627243L276.1924455499627,939.3106818346157L276.57342878174484,940.6083258462977L277.1070119740191,941.9292040274988L277.66236964318136,942.8703676899067L279.869434450664,944.8960459420434L281.0968989614348,945.6711669540127L282.00489168928596,946.5005027396774L283.03349319057224,947.7867984345528L283.05689797257355,947.998038963615L283.22392790167044,949.505337598477L283.5296679360208,952.2633073904756L283.44799212669636,953.7532980959929L283.4259700131478,954.1550052389476L283.37545667097083,954.2493803662542L282.86921997231246,955.1951070669827L281.2603441081676,957.4978631498166L279.8723107471119,959.4836989245571L279.75891386076563,959.5970071021162L278.7273620370754,960.6276066791377L278.2220707381831,961.0092615661129L278.1466725532624,961.0662070694391L276.2872130434237,961.7233695337145L274.2070643483788,962.172031083911L274.10455014854773,962.1838339954602L273.90009791944084,962.2073703919357L272.27430060371944,962.3943845518438L270.49076253627186,962.3157889893718L268.3247101117185,961.9164195652342L267.20952220512913,961.4819987234179L266.62402386829086,960.8346607185548L265.9535170338524,959.7035807980749L265.69294226211133,958.6534874742661L265.4973145059832,957.2432714939459L265.6080611583251,954.9390815362258L266.8640561753296,952.537993104801L267.3032259222173,951.9509622135711L267.77878778825203,951.1304909477394L268.2197688271976,950.4983785072907L268.8560707148426,949.302354058942L269.2173085025709,948.1881237959253L269.2777814461459,947.5815039472462L269.02078378938035,945.9052999279479L268.7563376560996,945.3474356970172L267.82758400918544,944.4232717960733L267.02546180422996,943.8127737275191L266.15255572244763,943.4642854271902L265.4501541685209,943.3917917366377L265.3337728236706,943.4234929619834L264.61750525268275,943.6185655690358L262.2237148039962,944.7943091692646L262.17907136682936,944.8162291607317L260.29062338426,945.5854699568144L258.88643236487894,945.8704580431289L257.79963063691986,945.9657752128365L257.0090486529143,945.7054562582009L255.96561352279838,945.3617711950556L254.65767446562586,945.2528881521467L251.62153406933396,945.818819552218L250.40322479552356,946.0456462150844L248.6995545237126,947.1257484413126L248.30335257625967,947.5313810990453L246.2243355924898,949.1200036946336L245.68732920329074,949.3969624334834L244.8218646686796,949.5771620126434L243.9988899763418,949.6611878788044L241.5435254157228,949.6121632580582L240.06966745507464,949.4605555282844L237.23464964721177,949.1683346328234L236.60784091651743,948.9543482893132L235.81757353148322,948.3384641724306L235.2439916383786,947.7018449722732L235.17070967639933,947.4406288093563L235.18575763304477,946.3998156460293L234.64275681175315,945.3257313024287L234.47851448785377,945.0534180382847L232.30243720510327,943.1715114892277L232.0315621855392,942.6469642966322L231.2622254866156,940.4224032783884L230.81436631207913,939.6336813194332L229.5218698559877,938.1544628702816L228.62888526580258,937.3921563167178L227.49863109882972,936.8243027329443L226.5261389970845,936.5657240201995L225.7620369963352,936.362483732308L225.3971836936198,936.3859776227072L224.6905020281834,936.4314459585246L223.38582350585216,937.0282951427198L223.04014888585573,937.441726682487L220.02048223002032,941.0517181330446L218.95240572484687,942.5181384349232L218.81722211532974,942.7037088543545L217.95683365676433,943.5517745504444L217.03152032915239,944.6717063544481L216.9430902176931,944.7903297043661L216.71589081630088,945.0950901988813L216.3667099749896,945.8442338477928L216.18724619105143,946.8897301250767L216.1214547124668,947.8994470244284L216.285228577765,948.9050768447346L216.6118081433645,949.9809973858949L216.95529936292996,950.6500510039372L218.59536063437383,952.9393310420635L220.90460339350778,955.2154968084108L221.74316020345327,956.745992715133L222.18018222702068,958.1680930020302L222.79606760341426,963.0048319955449L222.60642843557685,964.2703204266197L222.14626678770048,965.4466598455699L221.30856409884865,966.0202124164311L219.7432563537373,966.7086704975347L218.11543521576476,967.2121786074905L217.1387843288092,967.7115333523561L216.66400129057723,968.2924435153923L216.68448600199628,969.1169922222903L216.44576700117875,969.6254841057612L215.90771867196167,970.0434692815247L215.4247654170078,971.2386805092434L214.68057956979737,973.0799467267777L214.29196347444548,973.5000771334649L213.8747703028675,973.7624186485157L213.10381038059944,973.8848581694181L211.68791825267482,973.4813337216497L209.79079690398265,971.3256087627498L209.51606807216245,970.6389720459149L208.66260113982202,969.7972733497976L207.16367780026445,968.8283927441973L206.63014852047445,968.7139727942987L205.87535267752145,968.2416404688245L205.51827188512453,967.8158398495724L204.7656555402976,967.3267536829862L203.32718961684014,966.6805572512369L201.34039066681635,966.1836834009855L200.20993017615194,966.2739256839352L198.8494580800542,966.7606867769744L198.5220349014724,964.9814313925558L196.65985912475253,964.1361203078422L192.30649690541054,966.2179920502426L189.6211594626024,965.1448973432355L189.46907206081266,964.9616788209612L187.10647522702203,962.1145183155584L187.1681923691703,959.9628720294409L189.24702571238151,958.7335745017341L192.21467106085487,960.5623622257592L194.44804294247825,961.0580668042651L197.32649440449865,960.8990761610021L199.27556566715555,959.4011370240919L199.31421827952556,957.7206417391844L198.52896820397018,956.5588218975447L195.2540338431229,955.8179739133107L192.18750055716896,953.4468565307956L189.81331908791674,947.0720052025094L187.3596420608563,944.1762809259715L187.30668698660259,944.1116846308599L186.38491492434605,942.9871297204697Z"></path></svg>