<svg id="IA" width="1000" height="1000"><path class="state" d="M24.999999999999943,335.6203853063172L25.596882362696476,334.87857897028584L26.166163858660298,333.9953303390574L26.484508959735365,333.0782139535552L27.143893795994984,332.6520419746387L27.956626231673,332.5399842906106L28.123236609066282,332.3011574910853L28.037268214885273,331.83567476949105L27.90900003067202,331.6386972183746L27.724846973794854,331.5559921832182L27.488946469668633,331.66895719238084L26.818014278680266,331.68469109330897L26.361760252017632,330.8723368115079L26.359277352861398,330.81699101738013L26.30126615475092,329.52349128062724L26.478408706838877,329.0325969582491L26.74317271089592,329.0435748126407L27.31111871326067,328.5793835342764L27.337246061319263,328.5580271898241L28.05691181527709,327.46683480040974L28.455605187288768,326.54628402104595L29.03132638306522,326.38952516832205L30.600648207535983,326.86707796254774L30.720320531223024,326.73850627060926L30.94058729693404,325.9521573938139L32.05231202474545,324.9862951105483L32.54668852903336,323.4076919451146L32.87745013211179,322.0186047353525L32.86315872208792,321.87330427473677L32.69442932130664,321.6787193629374L32.19362639066151,321.55100473751986L32.19594942761648,320.6396533999814L32.258840464250454,320.57996801014895L32.35286780785867,320.4907310884249L32.91663743407463,320.61749056850795L33.717271493816156,320.1350197235067L33.90253722642211,319.9604523145421L34.94478642968039,318.3095044450723L34.974689158614865,318.09925504702767L34.37114992241652,317.09043946316035L34.5263545979285,316.3367789484712L34.796988995850654,316.2393092783413L36.00079986625195,316.4928037487726L36.627501492647696,317.63045716545594L36.754989964338336,317.86184558985735L37.129290270636716,317.7612777525361L37.21926340910886,316.7287864099519L37.36704987593458,316.4897865576467L37.580476426212044,316.14460923145396L37.86847107239498,316.13839279323946L38.18656486894747,316.71123883016384L38.493172498595186,316.8550314412365L38.766767091466136,316.8659246199556L38.8892584023032,316.76449764078166L38.925290222886815,316.70295209948915L39.17296747080496,316.2798731092811L39.123499813740125,315.9688706750468L38.81790320319118,315.7229530313215L38.54651890894803,315.3556331243584L38.50122807648506,314.8609790433155L38.65142776356703,314.6013100609251L39.074845452293005,314.59618082753735L39.87114042918529,314.18563990166354L40.0560996739066,313.934422097087L40.53934375349763,312.69890266756306L40.51672913249433,312.463057513195L40.38278362507623,312.28862672321634L40.276935166858436,312.3321953803825L40.20976194803444,312.56753006964215L39.98254464796531,312.7709799193668L39.80014829791725,312.7380290062548L39.3057082574627,311.5465996409191L39.30771116594434,311.43406589122895L39.49690248804649,310.1547553211976L39.870941813097886,309.49939802577296L40.013736518308065,309.3586999384903L40.373639410149224,309.3493540111608L41.289082991620546,308.63916960948643L41.28876007474912,307.13299369916194L41.0372218026497,306.5733204368314L41.086399333187615,306.41809865732296L41.92132546528086,306.27145066904643L42.87918952891192,306.33907538270785L43.092300809782444,306.10169480752006L43.08354100496081,305.72588797317735L42.79507556778003,304.88242506155757L41.80202228377624,304.24483488953723L41.303486836843774,304.4016551176593L41.03058442689638,303.9402236657071L40.848322163138846,303.63201737726786L40.839558178304856,303.46922388298685L40.91657016254362,303.37889267918376L41.47594414686637,303.49608584091925L41.7742286680259,303.3055568870195L41.69506331393882,302.6828358202248L41.68894155672035,302.6346768919998L41.646649957456475,302.3019569414107L41.39007320787357,300.7185378603872L41.2109055747614,300.31175306051443L41.22307898307531,299.93819753358866L41.32933430082079,299.5655943000271L43.69005624082962,297.52610458640993L43.98413648176944,297.48870607770186L44.309541455690805,297.69179055443914L44.37608678030955,298.10577330234474L44.53750601416681,298.26815959400466L44.69716414202145,298.30426632135004L44.90156906553892,298.184942743267L45.01389952536795,297.9433801234491L45.00108762921275,297.613625309165L44.498637533170154,297.04446062518616L44.53404803089353,296.7355427783601L45.31141944728046,296.00844287704047L45.91482142009386,295.89829895465857L46.10676180093958,295.7603303094394L46.34551435360339,295.1067157694712L46.87431515437254,293.92872408483004L47.580069511359056,293.0351351720009L47.26983836756716,291.2833092842328L47.02615012025518,290.7471244638648L46.87063041201537,290.6391657753167L46.2162752094265,290.6201684692304L45.48233751477028,290.2588860910097L44.912853036129036,289.2896601252943L44.86714284373494,288.74674183413293L45.460830578601076,288.5683709356565L45.493051224759256,288.52917855886426L46.1546440947414,287.7243363810831L46.19099864273704,287.15864127324653L46.121323447389216,286.6412530259154L46.57842168245389,285.93720081269817L46.974206213262676,285.68470333154016L47.64234000478319,285.61398238783033L48.0326061695298,285.5200718394476L48.27144631116511,285.4625886587535L48.35917674459847,285.4414719968555L48.52744101973957,285.3199504306064L48.89890005698061,284.7470336226538L49.17111997259457,284.11780491245054L49.368150003395954,283.2188610188855L49.0263346382788,282.24566792018237L48.44128276767418,281.36643234842904L48.39186606957338,281.29215739257256L47.82079319055185,281.1439043990126L46.75625976003323,280.1203473265409L46.652098398194994,279.89826491473275L46.49699934648169,279.3699942333338L46.53791100844262,279.0718713090986L46.862540025751684,278.7077755222111L47.1523464072892,277.78273726411715L47.159217611532995,277.6615896429803L46.834851993484335,277.1255521493857L46.50813136328861,277.12964508295556L46.23381605985992,277.19829082994124L46.018321185840705,277.01710322508325L45.87865323639255,276.650657574139L47.13740800485215,275.17478912041065L47.33040861079638,275.1721148092943L47.84426698905236,275.4485822465245L48.34414215369526,275.4947989410771L50.00079160904738,275.16157744476146L50.16214612438097,275.074182836971L50.22716656688095,275.0389643501561L50.35277900634162,274.5460647700585L50.57443405880838,274.26583702139817L52.05704777031576,272.9915776057461L52.6060754010731,272.7919124050484L53.05105895679981,273.10420213902717L53.299054409203336,273.16268512732785L54.04450487634216,272.9827316750544L54.37766379018825,272.79378529676035L54.795352324433395,272.1232737816637L55.30474114222437,270.67451069779827L55.5401922974126,269.04803924918855L55.554582050108195,268.94862394726033L55.563314778346864,268.8882909533595L55.5286496477903,268.36881866276104L55.42633421761707,268.106718054286L54.395966536134495,267.75812190141096L54.383939333407056,267.4021195860772L54.756945377748195,266.7293473664844L56.05426797161158,265.71070778041155L56.63311836771936,264.95916131913214L57.9946476367229,263.1702791066847L58.461656218158225,261.83243709458577L58.04015775625152,261.588971916949L57.88269839042982,261.3509550936404L57.77854722603547,261.0386821874939L57.669972817239795,260.21528080688654L57.61995541800445,259.2317509117489L56.71748608822617,257.52737528545794L55.99605055443226,257.11028106847436L55.513660588688936,257.24158798385315L55.35447475322951,257.20141597727337L54.66431584179276,256.3768216528753L54.48817721455816,255.82293418246647L54.46707498383529,253.98664381541167L54.505080422112485,253.44239172580504L54.52808826104274,253.1129010058084L54.72713463984144,251.81006916079437L54.728349144968206,251.80211900174942L55.0635611240142,249.60745918849892L55.037855851022755,249.4217395176333L54.768272608725624,249.10584067385693L54.53171296166721,249.08837103332567L54.44537444628446,249.0457710372105L54.02994616254546,248.84077728389414L53.86890956096681,248.01368157210027L53.97341557503637,246.2566959163466L54.46969900955531,245.0383534609218L54.51468223871842,244.62270388264156L54.320540929671154,244.15797439173903L54.01102666774017,242.60376032963092L53.95669199944905,241.8726051707881L53.80615246660602,241.6755710539936L52.63922045224871,241.19686439210778L52.60565650015593,241.18309227238876L51.70800280613423,241.19206686790062L51.00139081253616,241.19905852708982L50.35512364611162,241.73064993096366L48.65971387616446,242.07147156525733L47.67661900747703,242.18711629230563L47.44145871694161,242.0658642016438L47.31072478526289,241.52369121264704L46.66175118037887,240.87574111862696L45.43300722319816,240.10526598462465L44.79078586245225,240.451179008973L44.105696849270316,240.36752772558322L43.647747660567916,240.14831261471147L42.6816943343955,240.12091043510506L42.478090491458886,240.23529458800814L42.31969422432343,240.49321839635516L42.07280501937453,240.60751500510622L41.86742965374958,240.57764281871766L40.79676117835601,239.07478111044594L40.720300730413896,238.70155944800848L40.49492922561109,237.6012516565162L41.401684070375325,236.61437762257745L42.277953382999556,236.48413152190784L43.18982681971346,236.11750285839165L43.365311142040866,235.3732007867466L43.36229706334831,234.7882192452235L43.358576466156194,234.06506897649274L43.28436350240827,233.79117372856666L43.04436457240325,233.6089931235915L43.043894497005795,233.60924847471097L42.74825786986662,233.76983378761196L42.30372713947742,233.70879985657663L41.73407991218062,233.48792677912252L41.13144381286514,232.97754272586806L40.02005126542542,231.804717516157L39.14283919387236,231.87641073853152L38.82563076080555,231.62484841604416L38.72975488128668,230.54985328703185L39.155408785044244,230.07084868116056L39.23632231138231,230.14286686351218L39.22369155157213,230.5238758971462L39.507297665080955,230.4994911480256L40.02478817527583,229.7426131150754L39.98529294712176,227.32383170519336L39.97668302397267,226.79230895711515L39.93652583251935,226.53198603185604L39.81205590208788,226.3787046202816L39.73443596364541,226.1258881323416L39.84716808209356,225.91886138025825L40.82593792604206,225.78451396477905L41.08734316572679,225.99249502517674L41.204746480240544,226.29117348452942L41.41952414759078,226.53247234129995L42.09868243883727,226.71451242688502L42.208045089842756,226.72068681781346L43.38821638731463,226.7874150322526L43.67464628162571,227.18538775026812L44.22315354126732,227.0499622451524L45.42251265271244,226.75369320669333L46.989340530558025,225.96133142657453L47.49196511407234,224.649378412363L47.72378994793252,224.0441491686739L47.81345629970667,223.5642037910161L47.39456403083676,222.7364207694227L46.91566571132836,220.34688173914822L46.74386423277281,218.78801695309335L47.19657603381938,218.37778943374667L47.94816415872424,217.351262490603L48.330531828273706,216.8289116813574L48.37434874861282,216.76904887960671L48.35794208412017,216.5840803317517L48.21270850332394,216.5398444541334L48.09069885456017,215.84594627325544L48.12079054209471,213.8002070348748L48.16731441661301,212.6534698696587L48.294515828489295,212.62030087054046L48.94099553590877,211.94282548394398L49.09521307108963,211.42902485560836L49.11351151542232,211.16689206088188L49.179979415137836,209.26715820413096L48.92774582843663,207.46195799702076L48.744299065038604,207.14641961892812L48.233686175047694,206.8395353419059L48.09345932225091,206.86744612346263L48.08097466294174,207.09117212756286L47.92502978769426,207.23954600213364L47.071789221200106,207.29927158888938L44.91113689508728,205.40041627474233L44.2896529876013,204.84025366316234L43.62466357140664,203.62677536876072L42.8532952264423,202.71255209009655L42.153477583302276,202.27818744790216L42.600270750113395,201.4147687231852L42.80684895262959,200.6859951391117L42.734033589935166,200.4710550695018L42.064586128013275,199.81386953221568L41.10698808752073,199.6700790175815L40.25883120064634,199.7253491243086L40.02744568026321,199.61540641526386L40.017919578387534,199.61087989055352L39.56195238421503,199.39419890960886L39.38124087480651,199.1909503143013L38.62904961794152,196.89146623384812L38.45522903418163,196.35989515200367L38.36750196650371,196.09158419306493L38.345771172744946,195.84344148799408L38.81532164329013,194.6587493136126L39.687775591651246,193.96939263722965L40.621614321202344,193.23131462880508L40.983290592258925,193.2379333692826L41.42003924572032,192.85024289471147L41.14636557794813,192.33255313816693L41.08756982672088,192.0287898281499L41.32636178346314,191.4220859794243L41.280183141114776,191.1720315689899L40.929040762700765,190.79379522559032L40.968909048702926,190.5782620367292L41.788858503769404,190.05873813614284L41.61495487233475,189.65351738499567L41.48245100308418,189.69053673358832L41.06351706036645,189.599646286868L40.945982539903696,189.31808624673607L41.10091241046274,189.1518767093304L41.01760593100539,188.78162367096712L41.367787927292056,188.5733365038044L41.30826697174882,188.363167400417L41.14792824005275,188.11627465338944L40.62217542330467,187.92806287918762L40.590758396530134,187.45699094250318L40.4178852570048,187.4336184080014L39.97404117523655,187.61493495817246L39.47245333770104,187.24105465002583L39.371404080271304,187.05146435218L39.456716957075,186.18723931137663L39.45702454393563,186.18412329103313L39.457309004303625,186.18413661092865L40.55196002353216,186.23531608798692L48.997325582154986,186.7216915360293L60.119759254768155,187.34811657730694L61.04214836716744,187.39891027434567L74.61891752207083,188.133778738994L77.31514624263087,188.25870904069052L77.65595638645891,188.27655815626497L82.94411775629715,188.55158248140026L85.67512882591728,188.69219544735944L88.59869726879873,188.8416507233594L94.06547460822804,189.11814285333827L94.80337359848636,189.15516657478616L96.22849048888372,189.2415810809112L96.26873214370613,189.23906916512783L97.0914169021512,189.2811297473578L99.94410036940502,189.42629619899998L102.54272582451176,189.55761571493701L110.78388498585116,189.96828448756656L116.89123529812815,190.26694157497144L127.51824232430056,190.77508855181304L133.84248365153604,191.07054423781636L144.1444259975076,191.54073104833623L144.17371173907924,191.5420038136237L147.9391971090879,191.7047271020029L148.32488189262284,191.7213310678453L149.80516571713054,191.78487927558865L150.61077103038235,191.8202927820924L156.51805657802794,192.07740160424066L161.12074589600087,192.2745956851877L161.13792886722916,192.27521054648503L161.22810398883462,192.27843667217172L167.8938339749061,192.55169548143272L169.35042533803716,192.6106416960024L174.25060116821498,192.80692793803138L175.0935896091014,192.84038202154153L177.91895661864476,192.95183592209253L184.89400621664765,193.22255889796037L186.17311280201915,193.27152139033143L193.32325877764805,193.5413176946406L194.72646047973114,193.5668718953599L195.42464098534998,193.57949186506124L197.29803602960817,193.61304301473677L197.30760894327682,193.60790426966196L198.9655467651682,193.65641165297717L201.8583031720837,193.71636448841446L201.85890205313564,193.69972362487835L201.8976395356351,193.70187259729443L204.75573715603485,193.8598890846556L204.76876555874128,193.86937029323292L210.39365376652444,194.08003136055038L211.350356152723,194.1154537945631L211.3558948346123,194.11564631545923L211.35943323056404,194.11573738685468L213.1377831865958,194.16130371498656L213.2132830170571,194.1654784023562L218.81234789192285,194.34735646639524L220.30694824390162,194.39522055529056L228.22834125817357,194.64407485898244L230.79241840846214,194.72288717365439L230.82145274344995,194.7351918260086L231.66696717928627,194.60755851150702L235.91261658729098,194.80376660587496L235.91369285476077,194.8038053730058L238.05659273071345,194.88069522230245L240.64066912125026,194.9726244244277L240.81428663237696,194.97876992521117L242.59497275103132,195.01191566964422L242.67908405215238,195.0368429672139L244.43248202930963,195.15359567810532L244.9516323147942,195.16261796176087L249.022670403535,195.2321604203949L250.1242716403527,195.28225102164862L253.09167293542765,195.35689755246733L258.73125851092516,195.4956254568558L258.84225698809564,195.51663768683727L261.6130360229663,195.58719439829815L261.817665146191,195.59210205757722L264.41960234306316,195.65403262913912L267.2282457963381,195.8002640595426L267.2311863673914,195.80034803959012L270.08364024829416,195.88128470637167L270.0849294761087,195.88132339031506L272.90782443096407,195.96551006350927L275.7281176400899,196.03605787463232L277.42201330476973,196.08539482532342L278.52226373568396,196.11724221663627L278.52936686052726,196.11742738353382L278.5679008706071,196.11843178868696L278.58363474116834,196.1188418434122L282.4525724509159,196.2085108658174L284.3076472828873,196.2449261852663L284.5222008654823,196.24898399040308L286.3026261866696,196.29733868811257L286.6332693791718,196.29209596014533L287.10377649150377,196.3040441408446L295.1485362404212,196.50390510152886L302.73428435593473,196.68469563163956L304.2056102071084,196.7188999856686L312.1218853902861,196.89812713014487L321.0083185679895,197.0896653050176L321.24913385313045,197.09603086502358L327.9125444793839,197.26919206094277L328.1474572948505,197.27519191356282L328.8334985709346,197.27943326109215L328.8338569452935,197.2794404742105L338.5592064239555,197.46907141710227L341.68097214153084,197.52734906676835L345.00303203557496,197.5275174614889L345.59965832381124,197.5488589847604L345.60148475010675,197.54892424588894L346.36310285559057,197.56442753354565L352.5728503981378,197.68803292634146L353.0239337235111,197.69681753835823L354.88954024761165,197.74489079232518L356.22597769791895,197.76707960077113L362.34833137025544,197.86577729071888L373.29172296248754,198.03012418664258L376.1341325017013,198.07027881163498L379.1952640037441,198.11235542691583L390.31910121184575,198.25506040427L392.91466607561284,198.28605709120842L393.1722086497316,198.2856268552481L393.33936263620336,198.2874713742342L394.59094516924154,198.3011676563005L395.1232577195378,198.30693148212356L395.3286087898341,198.3091864597974L395.9409233321773,198.32069635051232L397.41255884739513,198.3481609565967L398.8275787177731,198.37430493046844L407.3579273892245,198.52642828716876L412.68408367009965,198.61664038918173L412.68430515080627,198.61664406426598L424.38488422950724,198.71771949304286L429.5248233635571,198.75652795265552L437.55051685483653,198.81029781862418L437.7648606423885,198.80716564757967L441.42978050682206,198.8250361164441L446.33959861381504,198.84625673843107L448.8601100681768,198.8559405764338L448.8733543345938,198.85599175233398L449.918360233485,198.85995820910182L450.4662484666469,198.8612991151972L451.2580233295255,198.86273352015456L451.484978190697,198.86368559836086L458.47959227468436,198.8897645563112L462.9425727266455,198.90310072812588L462.97386748591634,198.90320036083773L464.73034059687024,198.90858954087417L468.6848139468467,198.91926348955417L471.256842772059,198.9224681816416L475.01645993976695,198.9355016702412L475.54160469438517,198.9360316727698L475.5417533563535,198.9360318177678L479.8135906376822,198.9402682912998L479.95856883517575,198.94037069849287L479.9663928387261,198.94041694525805L481.25816056922844,198.9479439657979L482.1467235194386,198.93503626477042L482.63970860292426,198.94095094323188L483.45498963676914,198.9506634992659L484.0577352736978,198.93608375207043L489.7504022740574,198.93017498472432L492.5776898059192,198.92524494610058L493.9393829314304,198.9225019858943L493.99935282285526,198.9224791312634L496.65561854152907,198.92100067861236L500.38417075781626,198.91738734880687L508.1677826806575,198.90405503766215L509.571972591533,198.90081631358333L512.02264312419,198.8945535624456L512.0433898253956,198.89432768245535L513.5597811000641,198.87766733191546L518.1250841559784,198.82571492794705L518.125652625546,198.8257121231817L518.5234532043391,198.82373917525888L522.0708237435216,198.80524127882222L526.6080594740348,198.77921167810484L530.5807365987705,198.7542365822045L536.3741683554234,198.71415925008887L541.3621627139254,198.6761790120222L543.6597739189709,198.6576026526559L547.179050168695,198.6278263185959L547.1906128815002,198.62769543020426L549.5321809262105,198.60083313216234L557.8470304752384,198.5265413101506L558.2009986455269,198.52318039222683L558.5706300167482,198.51965347021826L560.651980022931,198.49946416660924L564.0768444922663,198.46502410202135L566.2433621603388,198.44245507849223L569.0865233185942,198.41191696362625L573.9818672688642,198.35253775642963L577.6121201614854,198.30650373154464L577.8477070905394,198.30345747834446L580.4497244203031,198.26933499087494L580.4537478588678,198.26920782616872L585.8810343736548,198.0957658247977L592.2439947644169,198.009192788183L594.3082184101285,197.98020537950276L594.3265499161553,197.97994178170177L594.8415370344809,197.97251877709306L594.8862976785543,197.97188179315094L597.1795844668849,197.93889975903357L597.1797160457082,197.93889781708106L599.9167785901901,197.8980175056135L600.5028101902051,197.8891249606562L603.3971473628029,197.83315482914276L611.9120176965453,197.66221593236065L614.1481918930599,197.61576981847594L614.1528750872784,197.61568547115274L616.1824215195,197.57886518193266L626.7454603214817,197.37863108309688L628.9557011960576,197.32172578235435L629.4410114666625,197.30914628890275L630.8512059099799,197.2724204538966L634.6549274914738,197.17207717306434L635.0393852694178,197.19143574062315L635.0636072775333,197.19093787655282L637.5730351591844,197.13894755982875L639.2932825291191,197.10731672644175L640.3281766358523,197.08810343563522L642.2005463237164,197.04964554502754L645.9453135218215,196.97136934593533L647.8057085098241,196.9318077000259L648.7986349194655,196.91050977393712L651.6262847297934,196.84915923380953L653.0905583246704,196.81698309126466L653.3261344155483,196.80583646765615L663.0539244640678,196.5716434040661L664.4858507456227,196.53613700055416L664.4982074859913,196.53582944568728L664.6244114400154,196.5311966049648L667.3280945402246,196.4314513951581L677.9797270190455,196.162178118488L679.9569358405417,196.1213748798313L680.026839479631,196.119925861456L681.3800208743851,196.09175154587308L681.4016198406165,196.091226969476L691.4118291342411,195.84161438205604L696.8988122516076,195.69929326749116L697.04612860352,195.69541850525349L699.7709951642083,195.62324204661758L699.858925081789,195.62089695745738L701.0009138625646,195.57486360715365L711.0454764241313,195.2662468070173L713.9118700487783,195.17578329763109L714.0880277690846,195.17018907567444L717.6178326187149,195.05724707181633L719.5838242569378,195.00217742283905L720.1309887131497,194.9867617857924L720.447460193035,194.963611180445L722.4795265275889,194.89071445435837L722.4861191863101,194.89047708466273L724.0880053447393,194.83263415183796L724.3161121837297,194.84347132592046L726.6280244418392,194.78466995573467L729.8909145665409,194.70198684254706L730.1588408405086,194.6862773108557L730.6169218242934,194.6593085817949L730.8908044234311,194.64317933102558L731.0385304816587,194.63447553503892L731.0586416110181,194.63391612406014L735.2446163837661,194.5163403052502L739.488348307831,194.38857782693998L741.2593868511037,194.32508647682488L742.2547752343232,194.30691255507764L743.1734397265934,194.26103260944672L743.9048366326617,194.2275067524776L744.4943875866385,194.22894663195297L744.655173023488,194.22815546390967L744.6905522806268,194.21910499417936L745.9149387686132,194.1285273749914L746.6006543071876,194.1147412112628L747.0803222969432,194.0962452865453L747.1531973706922,194.09843492735365L747.381473393496,194.11270323085392L748.0062016039681,194.09501828607392L748.0147279744942,194.09471950157155L748.0152069900289,194.0947027154378L750.8212047991033,193.99586251503632L756.5090802044856,193.79417089476448L757.901088566586,193.74902112653558L758.9536262775666,193.70233692898051L760.7589869592941,193.62948159802835L765.0254341442992,193.45563158542944L765.0257074342612,193.4556227115383L765.0271834118425,193.4555747854813L768.6744374943089,193.33628472611366L768.6850900365987,193.33593379406955L768.7150907346936,193.3349453871109L768.7712963934152,193.3321272777975L769.2345622543144,193.30888387360108L771.4318239335805,193.23704098889192L772.0216549328165,193.2442132046495L776.8843133964175,192.99137597532422L778.3323776659472,192.9154902073683L781.2276550694303,192.88273196440213L781.9574461665493,192.7665488845564L781.9826275048055,192.76253872742762L782.3076875095525,192.772980447203L793.2741957676635,192.31341087132915L794.612645338748,192.256254216912L797.5755675880004,192.12890115728328L799.7186107982485,192.1396581651215L803.8365544110304,191.95625227479775L803.783689739887,192.60979644348907L803.833192734762,193.0271358614022L803.9276453454718,193.82335454300704L804.3098719205123,195.0250365231953L804.2329041895684,195.74517999369533L803.6935498256419,197.69664123471262L803.1459155043367,198.8532754692091L802.4710189349723,199.45370435987758L802.2630145130286,199.74937810064102L802.1030132833637,199.97679935161614L801.9867570645176,200.41979555588478L801.9824698028247,200.9330689040549L802.1718765346092,201.7521319407589L802.7172700959138,202.79158911684436L805.670935242558,206.33489376797098L805.9576998213904,206.678707547535L806.2016474345569,207.07702067167878L806.56992864263,207.6782682013672L806.8752953291722,208.43099584316167L807.0248213539053,209.05296439261832L807.0357499545639,209.8795710805682L807.2400773376366,210.94117839620367L807.4651440896805,211.6791401793363L807.5511293623968,212.43869842912784L807.4139865813174,213.52367719084953L807.1974111021404,214.2992112209178L806.6675011157945,215.703868488191L806.5230339397006,216.47759320692484L806.3494576902256,216.74340142148606L805.5251952085162,217.47720519665472L805.310202697676,217.8966665527435L805.3590610020196,218.31311578805241L805.4051049298812,218.406139331901L806.6301606529117,220.8804162931351L807.0307071867051,221.38811916768753L807.2669102142852,221.49097456836228L807.3385906559115,221.52218618425525L809.3224254946408,221.7329429636901L810.3196151998,222.01961604329034L811.7308969228495,222.8908245510574L811.7949093128348,222.93033060284955L814.1627845448434,224.03453598629383L816.6953212048036,224.92046044700382L817.355882908658,225.23091192124238L817.8966122784067,225.53730112952468L819.1202464618251,226.47941212017133L819.5907747761851,226.84158447398067L821.1262765451253,227.89116577775144L824.3940664087437,232.02397500575682L825.2977150117974,233.77094622916917L826.2477923371016,235.3056764319688L826.560645037811,235.95070229827928L826.6100369993296,236.57703647878245L826.4710318114508,237.33577277995292L826.5095540724411,237.77301505834177L826.6551150373452,237.98561472602407L826.9130989614025,238.1199043381802L828.0782618281573,238.1306938900802L828.3784599855646,238.28977069413406L828.5486811416877,238.55625811388265L828.6727145312689,239.00520913791615L828.6861544722917,239.2793232913848L828.4802519299099,240.3501184142052L828.2260441105259,241.10339190507952L828.1165420953805,241.42782676395058L827.6024244442849,242.21178906190508L826.8585162923623,243.05650270735595L825.8582484506303,244.4581903880454L825.8181343169895,244.5050708313838L824.7447229140225,245.75928641938316L823.3799892092886,247.28967411108147L821.9497227739107,248.8927449942217L821.7441466795125,249.0870738173787L821.1492420328871,249.64935413578795L820.4035772432816,250.18174266304368L819.9932674910644,250.8112893570697L819.7782232485072,251.55184290923106L819.7505042983266,252.66389938008265L818.4711646303523,255.37033870834674L818.2299224988136,255.57411639332216L817.868075061752,256.26410853930895L817.5354891301952,257.5481012954118L817.520380588239,257.6470716380903L817.3201524113713,258.9584451980244L816.9603147654855,259.7132966668367L816.9364726078472,259.76330654897725L815.6304741945116,261.6167931702154L815.5843215336854,261.6822756737447L814.9956612704086,262.1737645348858L813.6009287266602,262.86125487707227L812.9244297718276,263.42501152648964L812.6973161480134,263.98921848163286L812.589091918129,264.57825910340733L812.5759945818406,265.34462782571165L812.70331978401,266.56851910399234L813.1922312286094,269.4912959981473L813.0985620078897,274.12424999278176L813.1534651160975,275.5514793327716L812.9588003394203,276.03311892058207L812.8853232002764,276.65641992577724L813.1366660079052,277.2796551514375L813.1270951644053,277.70560160120095L813.4355407392175,279.7659452669424L813.6553005475239,281.23347015673664L813.684036289885,281.42533763091825L813.8104134940124,282.26908283778005L813.850377764683,282.4075453739404L813.8719162981729,282.48216748058917L814.8934345373044,286.0200605137104L814.9430294398328,286.1707211043464L816.6810328421818,291.4475871043612L816.8064352885806,292.093152568191L816.8193313970247,292.1595369459482L816.9267465303919,294.04659703472913L817.097565349249,294.5222263845734L817.805844225722,295.52780234518525L818.2608707523073,296.36683210189227L818.4017289409383,296.69583552461484L818.4935702801494,296.9103373607187L818.6984613184779,297.912910764025L818.697118450546,298.24809209095514L818.2708746453518,300.2281252128131L818.196254006692,301.13752944506274L818.2246256328951,301.47344405443704L818.9230474607697,303.3873508107703L818.9830971978114,303.6029015596922L819.1284305608574,304.12454408808554L819.2342853898392,304.8520814375547L819.2420752392918,305.2914251481301L819.0038046437858,306.420996227129L818.9809660883141,306.94014081357864L819.002885844774,307.42956794688325L819.1077276286874,307.79360442113875L819.2479755295451,308.1848889572192L819.4508174204377,308.4311518048888L820.2330767457147,308.5741944145667L821.297259665983,309.0762712408674L823.2685944064965,310.00581509989956L823.5523679535254,310.2230219849108L824.0662751585885,310.89495305970297L825.2798427189782,311.86232807858715L825.8075580819266,312.4093927277672L826.2063891127428,313.8270828882471L826.2214106194444,316.0696761294953L826.4289117380155,316.95771198864975L826.8042604991807,317.8385497079446L827.343814542035,318.6222039268847L827.4184946801195,318.88808491346265L827.3860001510614,319.1247999209399L827.2462163899999,320.1429196626244L827.0327897057784,321.69688179372184L827.012644600786,321.8435249585791L827.2010051170627,322.6543253394864L827.7812725372587,322.93946217254745L828.8382454843261,322.7465327589506L829.4510599101652,323.17271505502777L829.422013647332,324.627608476369L829.5364896639496,325.6715448195215L829.7187650825135,327.33345243524263L830.1722799477695,329.3961427389603L830.1938843528364,329.49438555946466L830.7003623740113,330.9978048435614L830.9311885329438,331.9204491188009L831.058283230137,333.39519910881637L831.2106077814146,334.18924782649947L831.2787769478837,334.5445700200713L832.2391689670189,335.6227347535554L832.6905641344911,336.0169384073333L832.7261261690882,336.38265077335654L832.5554854944107,336.78743749921495L832.3175501782125,336.9364827205351L831.9761803442223,336.98969392701224L831.9667173326749,337.71924728027113L832.1481136306473,338.1992516604807L832.8040481201729,338.2552713956135L833.116018528558,338.4850249377562L833.3924297249803,338.8486258237507L833.6311059081777,339.3619750460156L833.669294660473,340.18087064709766L833.8441631162352,340.62526230279923L834.2108257113628,340.8529335624876L834.4002272979856,340.8633397640437L834.8900293040069,340.78949561050354L835.2291271271795,340.490279437596L835.9184346851425,340.4841370996736L836.5023316807287,340.6823090316848L837.0206137765638,341.22259460271806L837.1868502792017,341.5968547935641L837.1902090227263,341.62631465505433L837.2510307968796,342.1597674569507L837.4256124989034,342.72635817031914L837.8690739094527,343.2088454855342L839.1912315886168,344.00322489519243L839.2929715976129,344.06433770891977L839.5206802011971,344.1204600645882L839.604743830651,344.09968078975623L840.3970928433812,343.90377551842306L841.8006073204762,344.6160455936666L842.4879883335791,345.07505015343156L843.512097117301,346.01112757144574L844.7887102212753,347.8857199109082L845.2198440677321,348.2835927491944L845.7408590205474,348.5688408759104L847.0903747965003,348.90408196412034L848.6669753680924,349.89406028603236L848.9799632927588,350.0905296975304L849.4550015201557,350.3062245721706L850.5787733416471,350.59483652503934L851.2380594855815,350.651623209473L852.2691739909669,350.4588564687607L853.1613773289448,350.1455418368895L853.5213918596668,350.1470074687345L854.6679421496303,350.57775927285843L856.6347071955752,351.8062736896985L856.8101975235747,351.86708878330603L857.1314053975929,351.97838919880934L858.5298263410846,352.4627664455655L859.4475798830214,352.64633760923266L861.5080309088867,353.05805623925914L863.6655133919464,353.7247566805239L864.9269581660096,354.009047290233L866.5650856864337,354.20706121482647L867.2316497783111,354.322595160135L870.5633999233628,354.89918735492665L871.7951167993804,355.1119717714787L873.0880049738164,355.4197159358647L874.1528455450136,355.50688878051466L874.3803203955222,355.5254920037145L874.4705127025883,355.53286621595157L875.8275546544487,355.76542439822464L876.8546156457901,356.0630262715994L877.1706589164828,356.154572336683L879.6292539521977,356.73569952876454L881.4694631302312,357.06152400894416L883.0802701559825,357.5085765794378L884.723458096845,358.3491315229054L885.1635314302491,358.7037766914966L885.7249522050752,359.34941426858677L886.0320518350302,360.18566566078425L886.1829841596871,360.9653676817074L887.1484081313755,362.48738002448624L887.4762447058588,363.28942522187333L887.6479846370905,363.82287996359133L888.1755050602337,365.46110905199447L888.2549807396642,366.3648945558641L888.4000838083019,366.91731537395304L888.6382112462777,367.3320463887735L889.608764122125,368.8854460186802L889.9691426011359,369.31913201065674L890.3178756770502,369.5762317019161L890.6245436979605,369.802295435356L892.3398643321832,371.4134145070214L892.3592839773328,371.4980368727961L892.792863134167,373.38706216998946L893.6021647197442,374.9269819502563L894.7769103432584,375.9056203437109L894.8976234226218,376.00616112686396L895.183150178432,376.7228528817488L895.5117057439362,378.0548527904332L895.7949949459239,379.2030853922698L896.4558507166889,380.9486831901512L896.4840989447582,382.0354609055676L895.672729875691,383.0124556478861L894.9391123966129,385.10498288349936L893.9439872462779,386.42264732294313L893.9431912030448,386.4237011783985L893.9425974306355,386.428515368196L893.8817647097216,386.92170021833186L893.968879409176,388.02546570383635L894.3565436179631,389.01454030324317L895.487863697316,390.26123447567886L896.0452495184138,390.6541389223805L896.3714655287079,390.8840575299952L898.885373263882,392.6550566840202L901.5849859660316,393.97615461694977L903.9453950520722,394.64406463681644L904.7101696800305,394.976179523565L905.1852928415237,395.1824599259689L906.8742005847142,395.63305193645795L907.2915150895954,395.8702647767393L907.7054446419259,396.1739785759639L908.4687856911304,397.2900249160266L908.7544524194373,398.14189639459545L908.9275033926617,399.6243542571863L909.0361075961152,399.9602908448537L909.4387195275209,400.5563414283748L910.4844870504382,401.0981485507431L913.5852152159007,402.28719141687804L915.0486493293938,402.84785114633553L916.6532663900712,403.5966527147976L916.6765468410499,403.61017827139176L917.6661508354445,404.18502348354394L918.3366948753012,404.76851810188396L919.1873561822248,405.773867273836L919.6727164276463,406.1336103089231L920.0489748515722,406.23371953465477L920.7005971770525,406.18036351732474L921.1282191417704,406.31936292441986L921.6117414894982,406.70149544233L921.6597894461011,406.7524626518421L922.2104542107318,407.33652648467444L922.6370485712971,408.14990665459914L923.1093654470103,409.0502926489514L923.4502854549539,409.46692411139L924.9828548222818,410.95624178251626L925.9428971269112,411.35042517278566L926.3203064933184,411.69041627300027L928.4717243057994,415.20730368379174L928.6748080744273,415.4081733110804L929.2763715502073,416.00310041196144L929.88663290269,416.3932215559776L930.2480934274237,416.7625836207954L930.3496100430161,416.9267071439139L930.6503636581633,417.4129023698243L930.7648661184171,417.8841531076898L930.7420355526601,418.16003074379597L930.6223174742809,418.43865578569114L930.2167186701402,418.9102035706378L930.0923609335618,419.2289425240818L930.2512159127266,420.09603332613756L930.2997424136696,421.3455702490272L929.9103515964309,423.52806289974336L929.869124628325,423.7590616070266L929.5207221049802,424.29583209213513L929.0519500386704,425.5660779736745L929.0342437160979,425.61404947884114L929.0795177209027,426.7976434623573L929.9370730997623,428.54154112308754L930.2054595048407,429.0871876529154L930.5214641765851,430.21657057023737L930.5586542176304,430.34947057267595L931.0375976829182,431.399739138145L931.1173131034168,431.48859197150483L931.5096905724877,431.92591150237223L931.6787657076724,432.0627897382379L932.4094142801744,432.65421639503563L933.9423323847786,434.244148483627L934.7105897562503,435.42229199562064L934.9011580612178,436.1369635424775L934.9228913420447,436.2184622131502L935.4968472638086,436.8970465353364L937.9588455700972,438.8709364614783L939.471543018341,439.6337787849368L940.1985653034116,440.17536813694113L940.727465246358,440.5692887445629L943.5058499781039,440.8288914960061L944.9822304911602,441.19378206471566L946.5782937161714,442.516841353583L946.605135546112,442.53908618657056L948.2413999748167,443.1371103662754L949.5110791871771,443.6008699574645L949.8612076913184,443.82411954034177L951.9984507932093,445.1863173101972L953.9692870849212,445.9316256387795L955.9985770535432,446.34200494509804L956.783823737748,446.3647315691637L959.0860907468241,447.42490236927244L960.7162629389704,448.39915828968196L961.9492692338285,448.9792653999611L962.9701751481173,449.7214636324665L963.3150878653987,450.40964443075893L963.512924054341,451.1143461192288L963.7383972028572,452.3758876376076L964.417200006629,453.95169039920074L965.0468904152082,454.46425171380884L965.4464095854247,454.62172870971233L966.0870300113216,454.87418689764286L966.528454036752,454.91786180509473L968.9536154709092,454.8135482497604L969.4913136436078,455.3213376910467L969.6034648545851,455.4851967176623L970.2424572456299,456.4186713857596L970.4267945118193,456.9909733791452L970.5351596612643,457.7937950716371L970.6238242472068,458.4506047368074L970.6643874720116,459.93033446850507L970.5232954864832,462.1842513222103L969.9456307865241,464.5493319775177L969.9400944128553,464.57199216154265L970.4430393273478,466.8354984874731L970.5125937984402,467.148463346123L970.6343641420834,468.70136401389175L970.6935428709088,469.45599427153866L970.9209401415378,471.20485123313796L971.0945265144693,471.53169827812565L971.8059331089191,472.0121799848597L972.5413486576399,472.9002942722591L972.9599713396674,473.35947966020836L973.0721617014128,473.58972307406907L973.2815403697359,474.1485718996679L973.4206494202741,474.91241944720497L973.5099788518222,475.16660333179686L973.6029104105246,475.4310239522548L974.3018084527232,476.40831690026516L974.7590882344447,477.56310791951313L974.9771278424001,478.6073759411151L974.9918787977306,478.6780172224747L975,480.1200110028063L974.2986582846911,481.72693032489883L974.3541858918531,483.07805429602274L974.0421318433764,483.7061180593823L973.908079324795,483.8682243691183L973.3219589673733,484.5769125342455L973.2287967968534,484.80553057952915L972.2552049189667,487.19392631748104L972.0239728548377,488.22586672769256L971.9950526780719,489.68348180252633L972.1378976049925,490.20850143900856L972.2041359914124,490.4519411720661L972.7259152967639,491.23332557932326L973.3109614854628,491.7272270826743L973.6225355270475,492.1692098552607L973.9995960549297,492.7040223373091L974.1810542924054,493.1019233919845L974.171529391893,493.51738085383863L974.1105826364023,496.17300781964923L974.1633987833435,497.38579015088055L974.1882042546829,497.95540451186315L974.1412382275971,498.15856282896095L973.7868482291804,499.6911880755068L972.7737289418221,502.58914840041604L972.6030593090695,502.98634902489584L972.2969531772775,503.6986534377903L972.1287729931478,504.0899523967747L971.9801826530056,505.200488584925L971.9642009054476,505.3199122465668L971.8898687970075,505.87530583958767L971.8822607209829,505.9321468023783L971.8523131146073,506.15588048057054L971.864713721889,506.45770841197566L971.9236910425076,507.89327514518357L971.6676463520059,508.6604193022445L971.1438343931839,509.82335407380947L970.9755894679913,510.1968092587472L970.838884050434,510.50023016056434L970.7951476134181,510.72375977346417L970.782440325271,510.78870215041366L970.6350563021118,511.8730352489844L970.6346429874247,511.8760756183844L970.5919903345745,512.1898172102694L970.5998987236583,512.8207276189403L971.0607998418876,514.8781241841732L971.349751811588,516.9759717596332L971.3441843824374,517.1850151469602L971.3357996446822,517.4997918590743L971.2129339739716,517.9623864698281L970.3734620346527,518.7923760259728L967.4077103341792,520.0793519874784L967.2592635953291,520.1437322909954L966.1889207539901,520.6078264764323L965.4201507046791,521.0933184013119L962.5646454419233,523.2923798108172L962.5645732198238,523.2924354045027L961.6769817853353,523.9755707297451L961.5379679472999,524.0716019351598L960.2515241049794,524.9600774699234L959.5988127386698,525.6335739338404L957.3824255177306,526.7136504769645L957.1388320450776,526.9776916133129L954.0096155292641,530.3676190220524L952.9269522871338,531.9898148370825L952.3514823929321,533.6085338931135L952.2459054445627,534.6870938564256L952.1242710937036,535.9292512442587L952.2119837466433,536.7927167468566L952.9239392673478,538.5129862983422L953.0103651870613,538.8998790293026L953.088534171008,539.9125797914343L953.058120925732,540.4673602102562L953.0408906224291,540.7816121661516L952.8933047551945,541.4388209832364L952.5404164954034,542.0898201930385L952.1760924370533,542.4999907669062L950.7151906371334,543.7361200531635L950.4010018946321,544.1151621005882L950.2165043278139,544.4744170676909L950.127788218377,544.6471540976213L950.0357370815849,546.4690675297447L949.9776411533578,547.6182385380956L949.9758700312943,547.6532640129964L949.6161880088052,549.2631188587154L949.5725065483475,549.4585826057254L949.5723002434831,549.4595057461374L949.1820576505734,551.2053170371341L949.271253880896,552.4178712617614L949.9350688432783,557.6697170625731L950.0085777496813,558.2510808866406L950.328567361775,560.7813124144761L950.291509505427,561.0732918706243L950.1709433986946,562.023067674508L950.1243478670907,562.3900620556276L949.9040608265432,562.9618693891692L948.6540720903408,563.7137567741626L948.0423387316241,564.0816113111036L946.8893460173089,564.7747412967142L946.8098314852043,564.7982262491604L944.7382838930419,565.4097515754684L944.364019797651,565.5201704449588L941.9436012335884,566.5382422222433L940.82381166303,567.3237145891086L939.8043268907907,568.0385836943152L939.7824685737496,568.0648145375583L939.3850169303603,568.5417366118797L938.8437564870147,569.6736439050848L938.5310055494925,570.3275371265114L938.2019200996624,570.5947583266096L938.1117841111959,570.6679448896357L937.816876423761,570.90738256721L937.0203886183083,571.3520959046498L936.8588489570659,571.582371731011L936.2324771087608,572.475131530558L935.5338074163062,573.724475895554L935.3097962822953,574.1249628218193L933.0373582265835,576.7696887094055L931.15714558899,577.6344226584574L929.0796138044891,578.020396098731L928.914317532754,578.0510813508563L928.8482934666185,578.0633369205575L927.3717110370521,578.1827318553895L927.2554456407969,578.1921213341585L926.807084826195,578.1456340001489L925.3753084128988,577.9970124471039L925.3669418996774,577.994494824075L922.3494191164681,577.0858173433496L921.716406236001,576.9932521841775L921.1587657326816,576.9116657926518L920.4824513865699,577.0623971975166L919.0916603626195,577.3721729496611L918.89894391226,577.4150769412145L917.4667389190636,578.7159380247788L917.3317316871487,578.83853295318L916.7632780779312,579.1091032032257L915.3909582483707,579.3875831514598L915.2138067668731,579.4235137314986L915.2135231984117,579.4235712426771L915.1510970776017,579.4362317705837L913.833775968166,579.9667984819497L913.3295003634895,580.2926881615232L913.2268404253484,580.359025962434L912.2514874784049,581.4101349659572L912.0346444533353,583.2193562527378L911.8377365460184,583.7223828220144L911.8110136698247,583.7906451230396L911.4336681845657,584.2001818439793L910.0293368835275,585.7238544810346L908.2772488086143,586.9076900280929L908.0069312413683,587.0902766125487L906.9148648956107,588.2270997769463L905.5096950074385,589.9597728444966L904.7039892046581,590.5817570639247L903.1668929545745,590.9624661196547L902.7631845058837,590.9731178453089L901.6417708020422,591.0025996546592L900.9093398104884,591.3296733429527L899.518390343899,591.9505726481572L898.0136393900696,592.4085269928106L894.7283207275412,593.0722144966651L894.696005294264,593.0787356648159L892.6278575854697,593.6088567158615L890.7501007614893,593.803842843359L887.5226919988114,593.7423836453033L886.6347194429345,593.6874117521024L886.0264450421643,593.5678499465629L885.3190048144575,593.4287345123068L882.166413335294,593.2716691602697L879.5595327205225,593.4013542175354L877.6544614354123,593.2647887359091L876.2933962707092,593.428237925843L875.2530076610099,593.725544434544L874.674301022819,593.9852998943886L873.2653205611964,594.9605185140246L872.6857998077267,595.4494215664289L871.4677619443651,596.4767038032298L869.9227159159143,597.6449511269847L869.8771138869236,597.6794232261126L869.7742465493557,597.7469462254312L868.5992326016726,598.5180769206014L868.4710043453722,598.6022121093098L865.7022141937725,599.8473530140601L864.9819769735451,600.42715575419L864.1477091511326,600.757957537777L861.1651410156373,600.3483821782028L860.6471980316038,600.1906473050896L858.5877031314524,599.2934696576201L857.2794566045752,598.5688473222915L856.581746184761,598.5343831317781L855.8262108348983,598.6600017788975L852.7664802818651,600.3475642750495L852.2156505722921,600.5078952340582L851.8596665396014,600.6114894298994L850.485428624103,600.840864505378L849.5094005414796,601.0036256953358L848.4923474404048,601.584382016745L848.1450225168205,601.782666133299L847.7487675952794,602.0993056249754L847.1571539464626,602.6510413244288L847.0055760520097,602.8627677882323L846.8891795318037,603.025344024259L846.6296051791448,603.6736342606913L846.4749983562791,604.8918568453398L846.3527590063684,605.8547634896848L846.3588787460208,607.2102286951115L846.3640202915121,608.3512034011937L846.2993290632037,608.8084759190867L846.2326378884791,608.9268371328368L844.5137813585088,611.9761870757776L844.4281395755572,612.1280592283787L844.243997440529,612.9070589105306L843.7208263906787,618.0482281390609L843.7171277587611,619.2599701792606L843.716984687201,619.3067629268442L843.7047360782651,623.2909378569677L843.5343423566967,624.8712016665455L843.1685362035754,625.6377994743236L841.8292602191394,627.1896763823099L841.1227679279007,628.7137384393372L839.931957312749,632.7169250601132L839.4786238754976,633.7506445765567L838.6549363038812,634.9911479613453L838.1257036438159,636.2271854881513L838.2037799551413,637.0813832014237L838.2829094320836,637.947015038529L838.501677730296,638.4172706640769L838.8069260147079,638.7436419912402L838.9395280271174,638.8854099737097L840.3051432459739,640.032625032021L841.5492400075407,641.5578693788004L843.3619879042978,643.1193789177214L844.6998488187344,644.5162650145089L845.8332977141652,645.9935786076132L846.7481775230076,647.3892482560318L847.1381772111154,647.9840579749164L847.5864703076866,648.6676681930563L849.8011094751491,652.4978182294386L851.556419038161,652.9377893584492L851.9815520889736,652.9517074579L853.8823392857771,652.4193290250754L854.1635508552736,652.3405238699166L854.6028357407281,652.2893944896568L854.9091061134286,652.2537325894191L856.3992565811282,652.9094602156723L856.860622976955,653.2765932225025L857.2373474283361,653.6984773149118L857.7035251310363,654.2204660768361L858.5396383185639,655.7673115421028L859.0827458177753,656.7717994214087L860.775498364749,659.2073208911788L861.6197221274635,661.2812550410802L862.4188503597784,662.2238723279154L863.0041723423979,662.9141348747617L864.0225619124244,664.5643309609322L864.7413110946597,665.7286062322718L864.8148045639929,666.1055603487396L864.634121540123,668.0250769987076L864.6191801737845,668.1837621533605L864.5529455122876,670.5328915962488L864.5529724037372,670.5330883239155L864.6101284889348,670.951208111873L864.6355740713009,671.0224615877944L865.2355183988291,672.7021600011124L865.4722621636776,674.5908235607995L865.6462546951462,675.3080727332465L865.9440353536697,677.3324434529684L865.9900506808644,678.0863578701096L865.885048062263,679.1168929098983L865.8213041827207,679.742355140364L865.6732239145283,681.1949158722354L865.7840512930163,682.6664479325289L865.700462499836,683.7581289078569L865.2507012157934,686.0359276883065L864.4896218055482,687.7660493946198L864.456346534427,687.8920298194644L864.111826732695,689.1961640932068L864.1494311797867,689.8212701324296L864.6639484620104,691.158506320604L865.0999781090029,692.6974140759656L865.2496473614965,693.462820830189L865.249226052731,694.3040183479593L865.0472941201884,694.9795704905043L864.172128007069,697.9061528277578L863.9086596740933,700.2070438746774L863.5725899473499,700.8902767482083L863.0435972559046,701.4183706999077L861.534173472952,702.2131791039956L860.6163380461215,702.9350680117199L858.679788198612,703.8328928086489L857.9449074123636,704.4642632666346L857.0788475081873,705.4243627484325L856.7593612641963,705.9215836210436L856.554442099831,706.240468478124L856.4635537643501,706.4457818406416L855.4104434239033,708.8239872976168L855.1819481060347,709.0952776220189L854.5571248114272,709.8370147758627L854.4936911356779,709.8783570887622L853.185830554426,710.7305573178813L852.8495717197344,711.0418357993091L852.055239891648,712.1244880897067L851.6812299881527,712.8852013620628L851.2982133786626,714.1360832131998L850.4522397727628,716.2090863618678L850.1194885853228,716.6417044560508L848.8831487289037,717.5641506285899L847.3891335433218,719.3580272503991L847.2712015859306,719.477185734241L845.5638390054328,721.2017921857772L845.353005580914,721.5778975502225L845.1525729062373,721.9354165348248L845.0870040758575,722.1878584082319L844.6772059636828,723.7652554772683L844.6527711537744,723.8592917091107L844.621893349268,724.4148819083663L844.5851094035842,725.0766085562939L844.7068083962188,725.69501354703L845.0997178986484,726.6085601381064L845.5178611466139,727.5805907789954L845.5694617593143,727.885142662732L845.726933329046,728.8144655048114L845.721183936576,730.1108897503601L845.7206766196584,730.2251317107721L845.4802356992316,731.3214697323909L845.1606708174947,732.7781492751308L844.8960238048153,733.5743268114867L844.2853839140132,734.8396052324324L843.8577228183808,735.5077838141497L843.4717451537982,736.1107375647384L843.1819517390405,737.2109383496656L842.7311937065963,740.1800399192055L842.5559962955716,741.333459017134L842.6729779864228,741.9865787897323L842.7885057592748,742.2371165839281L842.8877485540861,742.4523277593464L843.412809041195,744.6919576493956L843.4832608441211,745.6986992272894L843.3848818309713,746.9592594925066L843.3163490835695,747.1110505612966L842.9034422015186,748.0254698274208L842.4021599177959,751.2536555599876L842.2489615224123,751.8872862973168L842.0238028318802,752.320267536106L841.807787570735,752.6363267980933L839.7287324968536,754.3902581801714L837.3186018970675,755.9646295988127L836.6010998186271,756.4824240748083L832.7080322720547,759.2898818959769L832.4781814443832,759.4555303943869L831.1850733907731,759.6982915705155L830.8225706523167,759.7663072159625L827.6721771289565,759.4319231425416L826.1855551606768,759.4981657781142L823.1878012346684,759.6309187171319L822.395035229493,759.7503187327444L821.9383254485467,759.9218235720867L821.6168067918427,760.0425423823395L820.7114656719332,760.5872903848589L820.61784059067,760.643615985945L818.9203334605968,761.0469130713698L815.7505839906378,762.0150967391723L814.341419277755,762.4450667377332L809.3813541524589,765.2117016589741L809.1499867669362,765.3524076337671L808.036574510853,766.0293828403214L807.2598029403252,766.6930855050523L807.1342812027174,766.8376686769798L806.3999420569129,767.6833996822386L805.7189806676103,769.0014854826936L805.0170857409476,770.3596537907174L804.3584368833926,771.6337377647438L803.5832955108759,773.3037071969361L803.244777552309,773.6365084843223L802.3403316897466,774.5255032331212L800.3823844922767,776.4491178424232L799.8458889514912,777.4403588941668L799.7005082443093,777.9913123502204L799.6949760097657,778.012276649777L799.6554871861008,778.8747671323283L799.7928455964909,779.8482373167642L800.1384047237896,780.554134323497L800.6765701693674,781.0040968099628L801.6497880663003,781.4184264164908L802.6411455888965,781.6764007804763L803.1985948998024,782.0817509829086L803.6289066661793,782.608957962653L804.3175909405788,783.6290734194521L805.7114643888506,785.69297837618L805.8019338861604,785.8790068011057L805.9088498838468,786.0988439784983L806.0790734532824,786.6477921233355L806.5531583503373,788.1763556944352L806.6807238613928,789.3466864951847L806.6802079883479,789.5657946473807L806.6787814963658,790.1709240972874L806.5727048973679,791.3752699751378L806.2332069897233,792.9895313725343L806.1654285792981,793.311735209803L805.3869114513972,795.3941830996175L805.3502090826096,795.492333380419L804.7690943210847,797.0460691633016L804.5331686419219,797.9191806855944L804.3423528337223,799.1506682466392L804.3239735187869,799.8541341395307L804.4356408050407,800.744444904838L804.5041838974333,801.2908742726004L804.7532368277361,802.0601192234788L805.0698223146735,803.0377897224146L805.0883215431456,803.0949129559472L805.7542454062259,804.7715848760329L806.0004301674132,806.0559542776384L806.0275957380186,806.9049034508658L806.0460318951059,807.4810544034406L806.0666698482607,808.1260178454494L806.0271107964825,808.5496166963075L805.6515296842433,810.0229221688221L805.5103518544183,810.1886554150564L805.5030631908485,810.1972115986664L805.2586085279952,810.484165386284L804.7323261912734,810.9161720608017L803.7715025784735,811.4994660847558L803.5081005179063,811.5829027564164L803.1843634063307,811.685438099156L802.4605947075913,811.9146196852984L800.0096903630922,812.1819822182662L799.6048301110757,812.3785285607204L799.0572661728961,813.0287309843794L798.5909766879652,812.5070986945897L798.0666000907435,812.2142838313598L796.5853436423222,811.8067366130822L796.3136256380121,811.731944533143L795.646379631801,811.548237972393L794.5985017190109,813.0695664021754L794.0082709387434,813.7807933466265L792.2515874984949,813.8158767089669L792.0762814093623,813.7087395448743L791.9245156444312,813.2823155064609L792.0904462797747,812.7546542449152L791.9907162169384,811.889272444318L790.9574929252144,812.4072204114862L789.6945494842375,812.6770720852467L789.3746334237171,812.633846495231L789.0253322815257,812.2751603535971L787.9600170098362,810.3816623245666L787.9715653462265,810.0300128707836L788.2758240950158,809.0535373271955L788.3557286811463,808.5551141803926L788.3644572088858,808.272182777155L788.2610374327624,808.1850934271092L788.0562665503153,808.1927790600664L787.6263109233004,808.4940854387671L787.4833137640444,808.5942867350352L786.8046780796492,808.721943193684L785.6915457032778,808.4435414156012L785.4594321209743,808.2861709095304L785.3459137741204,808.0505600932377L785.0856130421013,807.8079005242921L784.3162931907827,807.4810493950339L783.6405201079499,807.4768235498336L783.0288905962904,807.3045790811348L782.6710633517362,807.0924822167897L782.3734302357948,806.5711790928513L782.2521459902414,805.9130995961955L782.3055142845933,805.269180668733L783.0485824460739,803.9075123292155L783.3770300444037,802.9253837525241L783.3469839876448,802.6191709723544L783.2178718913532,802.4523355514889L782.442916867999,802.5192473909021L781.8037132901243,802.3836776369924L781.221842682559,801.898518064689L781.0854248543748,801.5938000873682L781.0785654086219,801.0931788934795L781.3150478714647,800.6961480826387L782.1755408999368,799.8773371259629L782.4770475199978,799.5026966212155L782.5848087919314,799.1712889892647L782.5949781053005,798.854344723941L782.5990118088838,798.7286166334816L782.4732470276375,798.051410470365L782.4474025304226,797.9122360020233L782.2483529208789,797.6143408702749L782.079422285623,797.4633128149999L781.7020878147885,797.40119642527L780.8244487728678,797.4984891123104L779.3822126315583,797.6581638302453L778.0133522478433,797.5830178971541L777.7538496783941,797.5251343643752L776.2886787113372,797.1981527280915L775.6819673876,796.9575719412328L774.5848560679748,796.3168912452279L774.3905104073913,796.0903658450904L773.6871624258915,795.2704374387007L773.4941122201228,794.9022239684912L773.3417507900845,794.5394110104573L773.1755221050502,793.6554610074185L772.5707520990376,792.0414912446229L771.9323964762611,791.0446767929656L771.3272523206347,790.5210712765956L770.1430917129125,789.9989523202837L769.1940607949416,789.5803440974169L768.4927951964385,789.1341237056951L767.8441406724424,788.6698881472782L767.4392462015138,788.2125845930747L767.1328481803898,787.6313293326466L766.948234503692,786.7734080301057L766.9547588382397,786.233610453004L767.410079005517,784.3548537576528L767.4724003884364,782.7926045525901L767.2882547522709,781.7809776476528L767.1121279483756,781.4380660821687L767.0580534048413,781.3845672779971L766.8220999334314,781.1511154228258L766.6519324758488,781.0754134710119L766.3150462298094,780.9255299929248L764.3254101583454,780.5837333658642L761.8139400582409,779.9357641130457L759.2570705543357,779.6712822434264L757.6039619440728,779.3049352447337L756.5065535258179,778.4649700574927L756.3735926431835,778.2714918149147L756.1680038840534,777.9723108094121L756.0319350203858,777.5078682376613L756.0191943883017,776.9756415882639L756.072548905637,776.8158798578205L756.8296061631632,774.5483692291762L756.8675173277638,774.1228318385897L756.7049457563844,773.7290499591599L756.3115228466622,773.2321285438575L755.127983638771,772.3178541412294L752.6892047336037,771.0107291316876L751.9415218980919,770.3342272324421L751.4193486726278,769.748241901377L749.9561956911211,767.3583810526095L741.3003002422292,768.0725866510943L739.8590552954571,768.1963860356739L739.1335495138932,768.2491866372432L737.0243497148301,768.4016650533251L735.4649909647889,768.5140194423857L735.3689584487632,768.5209289532172L734.2159816980328,768.6352448866114L734.2028525550936,768.6365456720179L734.0856908702538,768.6476742403263L728.7300010730111,769.1545671691229L728.5543352214295,769.1661485724185L722.7902262986241,769.5440622115927L722.2480021501549,769.5794018602824L717.9182161855977,769.8602998062133L717.3365904674395,769.9392410036809L716.6371967451109,770.0341099705169L716.4923424563854,770.041243732289L713.084729279996,770.2083188476256L708.8598080354592,770.4642222496418L704.1354167959702,770.7398845522704L700.5379262500965,770.9697507566812L700.4592796660987,770.9747582028274L698.9056497466311,771.0735222579675L698.2995462091453,771.1119717000158L698.0519544537444,771.0936133314834L696.0977171480794,771.2653996051561L695.9658728239178,771.2551926946043L694.489253411505,771.3266254687562L693.954254997075,771.3913478170981L681.2251972010466,771.9760004921679L678.7254883519176,772.1296454040256L677.8848450833731,772.1679210423724L675.4519595258303,772.256152600602L674.6712815076203,772.2911617271682L672.5696543716973,772.3850368788119L671.1110878582798,772.4520106614385L663.8514166934033,772.7814770025892L663.0635418998163,772.8168445388999L658.1097494564144,773.0597378296129L658.0734880822263,773.0788416428792L655.1225913914182,773.2310381889549L655.1179035434989,773.231301978704L650.7089634248808,773.4782025286379L646.2266621672032,773.6678243372652L643.3673096936179,773.7875017593478L639.4013254887474,773.9518384732094L638.1997091327984,773.9616516578417L636.4539007422939,774.0426240357524L635.1332623427847,774.1036283267815L635.026197131171,774.1151147819393L634.6909062717563,774.1154160900148L628.9421576032873,774.4415891246506L628.7142305537038,774.4544376229175L623.2788931251299,774.7589435967491L620.0816132269658,774.9363714669778L614.2641694536866,775.2064832580186L611.282154420873,775.3433336621029L611.0797917428603,775.3522088347488L603.8296529657628,775.6694619643774L603.3464210907625,775.6616551018826L599.5664694142502,775.7820444193359L595.3448533755306,775.9144333008462L594.4212988021276,775.9513549865677L593.5958965455169,775.9842643355169L593.0268417421555,776.0069043332826L582.2310049625002,776.212051709126L582.2417447855687,776.227615999121L581.1595993647824,776.2472794333028L577.8025070452239,776.3125829745477L577.7495499632914,776.3136020765437L577.1249446738809,776.3480072508517L576.887655270654,776.3610653235733L576.2343814580324,776.3599137047396L574.4202079208318,776.356442051718L572.7982954064735,776.4357380801544L570.6977571232535,776.495265474713L564.8830736036238,776.5810580317604L564.5964689192463,776.5913354200445L562.5910932201274,776.6629650044473L562.4153457257837,776.6692190232759L559.6208781272455,776.784032415864L558.6535188426817,776.8235543732458L558.193248708657,776.8423186912878L542.8936494184098,777.4512841078881L542.2417056471066,777.4846138927226L541.0939557922933,777.5431644029658L540.9089284770197,777.552790838914L535.2102722885004,777.8182939756532L524.772830513362,778.1083359611846L523.5046464550594,778.142668965168L516.1353750508272,778.3382807723895L511.8087219113094,778.3687295154102L507.42377532911576,778.3972543922522L505.87149570703616,778.4137981259012L503.1688021454833,778.4418998894022L498.7445837512019,778.489284631175L488.4633047611293,778.5901613615204L488.44492920962546,778.5903300916468L484.8481047913716,778.5432486031741L484.6050687643444,778.5618992196487L481.21710947143805,778.5311447966188L477.4592312456642,778.4953915095025L476.40237725938823,778.4850254249213L475.9807987469791,778.4808523123245L475.85589459357533,778.4796117426173L475.40698413677137,778.4869974051185L475.32348506338576,778.4883684494259L475.2363475275451,778.5022031986595L474.53131223418137,778.4994365386724L472.1628352536975,778.4896975173747L471.29121345523134,778.5117387820032L470.84592099841905,778.5249276771781L470.53423107928177,778.5338234886191L470.2499416574042,778.5103373382142L469.57090226409014,778.5418867672447L469.48375467489376,778.5554590333248L469.4258321281958,778.546929869188L464.6620476347339,778.6642551755749L460.7167900083916,778.7567687604462L459.5163561419667,778.7845403742092L455.6641074584911,778.8724705585032L455.19617391854695,778.8754819967262L454.79247210367254,778.8694080401507L453.73273844370993,778.8887922919012L453.6909936650484,778.8894162363246L453.3651555455061,778.8942791029087L452.4709102971316,778.9075582956025L450.44770223084976,778.9511720754992L448.9909741207411,778.9597226698395L445.538966879936,778.978949681876L444.6351357068012,778.9939908727036L443.274002411284,778.9889684560486L443.12464856534893,778.9891512148974L442.433211538421,778.9899617830785L441.6555147946357,778.9586197536914L441.29240556400674,778.9439606826646L438.2337542091045,778.9499800310291L437.6049421134889,778.9528962611853L435.6903612890982,778.9614779588857L433.47273287571494,778.9708581211851L431.31556085870756,778.9794059759033L430.8200400338369,779.0150752111384L429.8953290035445,779.0256165264717L427.42524537102616,779.0532620106267L425.47960187645015,779.0777190719593L420.0683753995625,779.1346337200009L418.6499478999141,779.1489606116734L418.4985025342485,779.1617082287319L418.2632106498444,779.1734289881613L418.2599224038365,779.1735927397235L416.2594584346474,779.1988651214414L412.9376410639546,779.2410740069818L412.84125621174434,779.2495400510331L412.7493036909466,779.2274772800424L412.7222441643867,779.2209844956656L412.48812419580634,779.2466258653033L412.2999392973746,779.2635842921096L408.62934910843205,779.3204668707723L406.656626531321,779.3269291994036L405.0258141793292,779.3520795990967L402.59573954348065,779.3889530854083L400.7351118544868,779.4166979595244L397.88458114027435,779.4547454694737L392.07325839185194,779.5080959142654L390.83729172215527,779.5189104077772L390.800601698995,779.5185096989171L389.46564324393273,779.5225378338921L389.1767602018262,779.5010127911123L384.9787324660335,779.4919937921338L384.7549303846416,779.4914525214655L383.20713333437817,779.4875416210398L367.5954123988531,779.4317289849961L365.92738711285114,779.4240048792038L359.1695608913086,779.3892329080087L358.0281467132189,779.4085066432606L355.59638225999737,779.3350055423662L353.4497997533144,779.3115020786149L351.6473193511007,779.2837895057746L351.6243163823018,779.2880580245263L350.1733187583727,779.2730045100052L348.32193074196545,779.2534235561004L348.3090944186871,779.253292897909L343.5665615363745,779.2036417736058L337.4034587758712,779.1350116802008L335.0659925185362,779.1034203937543L332.7617235148878,779.071624223542L332.6740395373982,779.071323051724L331.147066132594,779.0659276688821L331.06068040839614,779.0653603524725L328.29848110263697,779.0383096379471L321.48133788485734,778.902489236468L320.9953413241788,778.888217409582L320.87458316746853,778.8858672316478L320.802739727647,778.8844681792089L320.26638819966786,778.8647432268704L320.2165565117,778.8637691845777L319.4139722358936,778.8448385737674L313.5507242416396,778.7041523539083L312.2920747902273,778.6734035499096L306.4798910687474,778.5077922200924L306.4794139527127,778.5077746204918L300.6587617097357,778.2909917111497L298.75319927976466,778.2191202464087L297.8741083834735,778.1847444327173L296.4298568422472,778.1280632486526L293.81461428299343,778.024775298467L293.548673339688,778.0187133922925L289.14067349661116,777.8383431652687L284.7913158338946,777.658040070424L280.8350468784553,777.4848110868189L280.5924712563806,777.4741272902002L279.10877370296794,777.4086236609957L277.7663373499489,777.3388801140644L277.18979716203586,777.2786940748695L266.0357878879896,776.8341443435773L266.0315095369574,776.8339709042884L265.3216583517504,776.7873743217395L263.26810981832233,776.69472992383L257.4071829399544,776.4218325426007L257.12265855456474,776.4084773211925L255.38819486777297,776.3267745317611L251.54133406917873,776.2497583488553L246.93541226778885,776.0263559368841L246.7907311533386,776.0192962936629L245.5833502630509,775.9602826718924L244.21857383236048,775.8933607740356L239.74320662856724,775.6723085722142L238.09063594917342,775.597997699705L235.36207024063737,775.4843742371297L233.89410574956636,775.4507770398275L233.42226960771748,775.4276981229413L233.36754662352527,775.4167855608865L233.12949070791464,775.4051697293046L231.8156179215528,775.328134315085L228.10775846130088,775.1498046512179L226.6743037861271,775.0804108470521L225.22253729898213,775.0038427301752L225.2149033603791,775.0034394226286L219.38127575182398,774.7166769042726L217.98522428319552,774.6474327116287L217.95744646935765,774.6457368358581L217.78574492753927,774.6351967383507L217.6923162003701,774.6301855089177L217.06214908579892,774.5958437233396L216.8594184174833,774.5848899389307L216.44083350194802,774.5621414161363L215.95057458463208,774.5404016492337L215.04366045641495,774.5001083274115L210.71671937392824,774.3064790194586L199.0239490614053,773.7717538646725L195.6324410674202,773.6083482260744L193.1774794051778,773.4418206113526L193.17289672610423,773.4415850897929L186.84056122743806,773.1136810248502L184.44850534139465,772.9967461819939L179.90894350028788,772.7729021796272L178.61032250288787,772.7084028781726L175.73667398503494,772.5647428392521L174.05582399897958,772.4802440489655L170.05099514479213,772.2775192331378L169.85434374641693,772.260795733036L168.86256547455326,772.2003429061947L167.01271482078516,772.0871054866151L165.53989594970983,771.9966472296461L162.62777024513184,771.8168152215835L157.00716823807966,771.4900147061919L156.97848748587512,771.4883371645203L152.8611571871961,771.1939782605224L152.28583988900442,771.1526811278343L150.70448365384226,771.0824327305339L145.3241777884703,770.8411290715317L145.3153303593083,770.840565332133L136.32062570301804,770.355647250725L133.39135279539778,770.1769398674141L134.45388193659346,769.4637226588738L135.36398944117428,768.7234326087428L135.8720833721054,767.8966801019372L136.07912410880095,767.3188292725191L136.14321461490687,766.6389286335832L136.01112393845534,765.9312598264246L135.78787743474396,765.4758765941195L135.54632769449552,765.2355742124299L134.79423588231805,764.4872462415656L133.8512442561693,763.776696905632L133.4978582907874,763.4214674956245L133.1982612077785,762.9086624837985L133.04877143850416,762.2659460571251L133.0734673361864,760.8454087003031L133.08675271510822,760.0813937358171L132.98720115906912,759.2502631633877L132.78395693693466,758.6170387233831L132.59570635355948,758.2159243729741L132.3052327501585,757.5969237395828L131.49260116204613,756.3931101502463L130.81673946724663,755.5630148725231L130.39057687900083,755.1150957218345L129.5014978045238,754.4740177459249L128.17952968744578,753.9136134895341L126.68576205791538,753.7114156941145L125.36521341539458,753.3180524300019L124.18878631029241,752.5858632587303L123.98853314937503,752.4612015360246L123.22810293690952,751.8116345159806L123.17022829684441,751.7621910732174L122.42554968387532,751.1259173170552L122.13785884399351,750.6362105231472L122.12207984833532,750.5810849176901L121.97816715417798,750.0782781095633L121.79153076198037,747.7377664484834L121.61821549864885,747.1878014532008L121.53758586896163,746.9319232097266L121.14967977303581,746.087011651635L120.17157754874353,744.8785274287073L119.60828326409353,744.5498559941157L118.52116869493119,743.9153754329965L117.80550713981233,743.5537123528102L117.54298457702964,743.5084503655734L116.63463697564742,742.8058168534501L116.3357853306245,742.0856629912439L115.89099964668895,739.9012201243193L115.96273157234543,739.0120668666904L116.32001175754317,737.8597894975417L116.83461683146743,736.7304661874479L117.58332301177444,735.7081158117451L118.48903508696395,734.8364911618908L119.01676160732927,734.4519313686371L120.30498098847232,733.8603022838803L121.68494546372744,733.3662234074137L122.64684937936528,732.8077574634594L123.2454775841436,732.3366260269365L123.87526081060679,731.670216013596L124.19245258988559,731.2956910859452L124.46977697747008,730.7702608876348L124.66710347648473,730.0019331786362L124.66483710745132,729.8474409685259L124.65305621615687,729.0441021969824L124.48179227241229,728.4633591943477L123.39294542626294,725.7721065635205L123.26748252541438,724.6872929495468L123.21678702808623,724.2488673834515L123.30807836869951,723.5850054161394L123.3261966423554,723.4532433736379L123.4884275502244,722.9822864713205L124.3703706416702,721.315090151766L124.61106693341571,720.3231758320889L124.66547013948718,719.4851044737761L124.12993866413615,717.4009904398982L123.32935774124974,715.6442932282259L123.20627377057366,715.0097450667132L123.15515168875964,714.7461614900541L123.15884790925077,714.4631033034966L123.1615850855128,714.2535080846282L123.31238291963734,713.6039010829472L123.45325894730524,713.3254627647465L123.9183785826213,712.642256381098L124.16258732828794,712.4484856503899L124.48532962365289,712.2513999666567L124.75337740779383,712.0876984579003L126.8615321626026,711.6154088804476L127.7010856645428,711.1620085784184L128.27625138945228,710.703523747987L128.89780280534495,709.8481854987735L129.12716015595618,709.3676986574844L129.35363910308973,708.4643940697159L129.3445315391142,707.6168205011404L129.19750437952706,707.116517380854L128.84070841699787,706.3408940255548L128.7235949182135,706.0862747739166L128.08976275720602,705.2794108599816L126.34523433385323,703.5601344842765L126.01015415841721,703.0960327248915L125.53427153578059,702.1921552584582L125.35886918246285,701.5682014867136L125.28304567769544,701.0249978353306L125.13144768753745,699.9387181716884L125.11365851181819,698.5003654105612L125.28545500311839,697.6809275341988L125.55875888157266,696.3770843606114L126.3802141001687,694.7894587863863L126.90296109621039,693.7788599837294L127.20404647925619,692.0821304862593L127.12023149325773,691.414336267403L126.95836126864418,690.8767911787081L126.50628425197908,689.9887437010691L125.72778943306679,689.1875665854325L125.54272430783635,689.0377070695342L124.93169452666706,688.5428536654861L123.71239082296319,688.0452028096151L122.59937274544336,687.2932668080045L122.10772853171505,686.8507002783947L121.7639842732741,686.2872306647063L121.6394998444793,686.0831543785973L121.5721037272292,685.9726626438974L121.32175620148786,685.0885916297228L121.3087886577905,684.3963837594821L121.50602835502463,683.7423812653419L121.92462884430347,682.8181789468895L122.89538492167543,681.2565064485291L123.07323738132715,680.02174043528L123.02601219546807,679.1982516456242L122.92336284290951,678.7541595809009L122.73768348406111,678.4371582149156L121.57737121554209,677.2284860360138L120.1883463028999,675.5427642809942L119.86581873024062,674.7440712984935L119.80980019757794,674.0999991058574L120.00933574246875,673.1481404240228L120.54188254300061,672.2929048990156L121.27633583184172,671.6195210985786L121.71894750438594,671.2136376488947L122.54376774264591,670.220553954025L122.81639035910337,669.603180709617L123.04833933711711,668.6328593350563L122.99318793202633,667.5583654343508L122.99301062546118,667.5549103963567L122.73062198250739,666.0417967666508L122.73030712467119,666.0399807422898L122.8088922966192,662.8042106764034L122.81116680951612,662.710573859568L122.4494193836523,661.3320540075855L121.56837304482929,659.6246039379724L121.03186164598395,658.5845054679379L120.9912926501649,658.471056760692L120.60241794088284,657.3834390328511L120.60232282657154,657.3824577756602L120.46788139086726,655.9952106114106L120.48838983686011,655.1948609017701L120.49078887997996,655.1885704607133L120.86395104104093,654.210020390814L120.9204398312499,654.1382240142507L121.66299011448154,653.1943256058629L122.34799620787322,652.6286081802801L122.69613517081257,652.5022049199491L123.04077623448069,652.5366607433563L123.37443479991015,652.7380547178213L125.2018297840433,653.2999653762012L126.20643751918834,653.0836285727094L126.89195486180074,652.23237418393L127.01300410826201,651.4772287217382L127.01628747466981,651.4567447462955L126.9593141931303,651.2826668538037L126.93231797802383,651.2001793195741L126.64396116767011,650.318999186424L125.76311943868092,649.4393628376049L124.79057648825551,648.936092771203L123.59774640961467,648.6432665694944L122.27358100787416,648.737098809494L116.80965124633559,649.1219658542525L116.07894590490565,648.9489057602639L115.53686743832083,648.6040596733835L115.17670393009507,648.1435842853726L114.83875197249642,647.7114522386294L114.83487091561426,647.7016293032655L114.46018135674353,646.7531842178985L114.2939740441401,645.4494501747761L114.29329352621875,645.4441112628715L114.73877646408374,643.7643434094189L114.76551373058226,643.6635099385855L114.80292738925465,643.6092467433659L116.3447293953979,641.3724443424757L116.756349212011,640.5902433854694L117.04436038289867,639.676251528123L117.04589619677051,639.6713772627995L117.05488947328098,639.6428349018761L117.07464854193569,639.2033549481695L117.03546712571568,638.4009468295721L116.7034857519833,637.340407434516L116.38082902177172,636.3094025311738L116.28603342744367,636.0064487632202L115.73325717354044,634.2394207376332L115.72534104808193,633.9635699436857L115.69818893198061,633.0171379334115L115.9576000123804,632.2684483315824L116.20946171356059,632.019680140407L116.9451828137149,631.7126613351542L116.86637718252877,631.634606333662L116.33547753767527,631.1087109951268L114.82934780878196,629.6162798611297L114.72775896457478,628.8716030351015L114.77615823648,627.8030409638911L114.79286917027349,627.4340880738756L115.16299214057756,626.2305285435777L115.94776902856648,625.8821401752218L116.26719909859429,625.7403057298881L117.29615172960939,625.8057393129914L117.31523680131801,625.8069517331288L118.42521419476992,625.8773873806972L118.65354720303708,626.1476758957722L118.63559199921303,626.5482861470746L118.59896354769853,627.3655126161433L117.76997059870797,629.0408350723114L117.7608883428162,629.0591861617946L117.24306210182391,630.1053561052197L118.49218884866121,631.2156839818202L118.68922341781825,631.390784149475L120.45987549549886,630.5521472139487L121.77682003261634,629.9280566725699L122.63485765915294,629.2258700441398L123.27403786840273,628.3739050275175L123.27497153385849,628.3695171559034L123.29768095411538,628.2627905286695L123.53968347953258,627.1253394376506L123.15954292403984,624.8481471310629L122.68247207386435,623.7469170334368L121.98501339973478,622.8759278299639L121.16662747697757,622.359523466873L119.59630252571088,621.869450960065L117.57037633044132,621.9642437208593L117.41373523668318,621.9715516471074L116.1776375877684,621.735840724599L115.64792317240904,621.4919072106004L115.46644636593152,621.360773176625L113.66999915523519,620.0622636851845L113.65855043761462,620.0508405798051L113.10427413075877,619.497752793783L112.57831758298238,618.9728307703386L111.70217662472407,617.7729644616192L111.21396610162839,616.6308192075218L111.21432480949295,616.6167351771984L111.2145369709786,616.6084050410719L111.2327880242072,615.8918382955276L111.54112461463723,615.386075863616L111.96103602599658,615.0653651844732L113.67498783879466,614.3437447468328L114.52675585002402,613.7626529390157L115.14243360849275,613.0807206312671L115.23769740855255,612.9751930005086L115.61587813621088,611.9127682220538L115.58436501404788,610.9517901689383L114.78711554158406,609.0168708113588L114.58622649209201,607.6916633694375L114.52169801442875,607.2658927806378L114.6412873617187,606.6133644809972L115.64420324158351,604.701876953184L115.84882041157283,603.6815718612779L115.8582126233477,602.9178463134942L115.6928827852289,602.135765393018L115.56105164477509,601.5120414304145L115.49670240429577,600.0491351983062L115.66505016663302,599.5604656170717L115.90536305398689,599.1757580698594L116.97448051335726,598.0557477125712L117.30502793670382,597.6071808718773L117.51287426468599,597.1690624920352L117.65180559292463,596.4521672957223L117.62238866692428,595.7229140174915L117.32427402746418,594.8705058555881L116.88114368493223,594.1282171454241L115.84424423913106,593.199255827541L115.27728010281055,592.8955162449885L114.51508347748495,592.6467769950561L113.84269190532302,592.6353452704177L112.23608917213033,593.2315081975853L111.44260066266582,593.1959600084887L110.97819560704374,593.0348318480762L109.82301153738831,592.2211063297395L108.42491436648288,591.6652412574866L107.22734444931717,591.4907382428866L105.20123276155044,591.0034243904331L104.60105924180385,590.6364698162611L104.18470226890929,590.1830051835109L103.54299301037781,589.0856697230063L103.51302967526414,589.0127458380306L103.11959241221018,588.0550911695406L103.09175322300536,587.7716045078457L103.19210178123234,587.5234912293427L103.70680642720123,586.8760413769429L105.04437666291051,585.945747375444L106.51813234904148,584.5851446728152L106.79613404103321,584.1647497014537L107.15499421574935,583.6220162054328L107.34131679854977,583.1832372359773L107.39630582108992,582.7521462843633L107.41452173406049,582.130893212656L107.28901510330132,580.9028842597232L106.53193705885138,577.6602372923544L105.79978744461772,576.8736399251629L104.51263131096289,576.4013503921582L103.72487751044343,576.399379575399L103.06205458687225,576.7079862490099L102.56120269422217,577.29762218763L102.5179447722569,577.4740351833565L102.0495706978374,579.7457984793413L101.63798443123318,580.884286828186L101.21932120370957,581.0901382698174L101.29661904907391,581.8787916681808L101.1638036019703,582.4061953592393L101.06642498928608,582.949059725201L100.78394846768651,583.4662266356045L100.55051680291217,583.6662462006244L100.15400977399332,583.8299966131412L99.04929211572374,583.7387290109094L98.23304245326716,583.3828900142191L97.62471656247766,582.8286249027848L96.81839946360395,581.8573769946977L96.10147815684616,581.2339525666548L96.02217558489548,581.1317432304704L95.32390023880322,580.2316408552072L94.4827484857085,579.800990476498L94.07605067531955,579.7670736522682L93.06277768963815,578.5873612689932L92.75748880015391,578.1192826344073L92.18554592725059,575.7986809983607L92.18777528716817,575.7837572434428L92.34784734763127,574.71211811836L92.59969750841844,573.8059958257102L92.75240464470818,573.2565038119448L93.04659155531948,572.7088883256376L93.58752444380292,572.0805370826857L94.15916316990956,571.4163947839282L94.54620663173432,570.756906137764L94.75823826260688,570.1594581763693L94.7909439657098,569.5593973028224L94.71786029672683,568.9337187560909L94.70066362536977,568.8841356053192L94.51152908070969,568.3387652736992L94.1840655006535,567.8427455218875L93.76749552097692,567.4687288457287L91.89893019233728,566.5684324858269L91.47226205920475,566.2307313453476L91.03732533849444,565.7487125762241L90.77533134092266,565.4583229145715L90.16587797578165,564.3501763211004L90.05800473500989,564.0604487578348L89.90240641101553,563.6425049147379L89.68634080079045,562.786341455262L89.63883882771665,562.0866306857716L89.69932680184019,561.3193945776751L89.99562766227677,560.4924582789649L90.32932295113375,560.0297827381337L92.44029746633129,557.8321338163483L92.92208340401345,557.032566703818L93.39514559672318,555.513482334316L93.39337238295832,554.9327985018351L93.39187689846324,554.4422935823569L93.07474843240027,553.2413453553395L92.8143565020315,552.7605845446934L91.15623834791779,551.1812526559254L90.66278355351938,550.6245363909715L90.2267523286987,549.9695170749559L89.8349842688421,549.2602284078223L89.77192726670609,548.2844894415856L89.77643624358836,548.2348992061717L89.87626070283682,547.1369489013866L89.96093130014305,546.9300779136863L90.0864740517381,546.6233302144034L90.47349800233144,546.0300254143123L91.3665267393867,545.3654411122792L92.40410791271745,544.9884296398385L94.53901590260818,545.5882758022977L95.75616211054364,545.5005205119513L96.20732399350698,545.2055737697801L96.75079169329882,544.8502251825283L97.21197359540997,544.2060172740896L97.33976394126921,543.8426228215607L97.33249771283795,543.4564310717358L97.21945934813118,543.0763458555314L96.9806552426632,542.5485482645162L96.35293481864568,541.5824176172964L95.21819215889599,540.6873463481325L94.43907596098148,540.2325430139657L93.04699961468702,539.4196357644066L92.64102188557052,538.6764540993889L92.55900700392635,538.0858665451847L92.5761008319688,537.4293636566242L92.9043859233559,536.1858536988113L93.19922322107192,535.7761546817582L94.00570377342899,535.269848689272L94.01973888150837,535.2662422489719L94.88221438265015,535.0445693151058L95.94995205848284,534.5192026667675L96.69912693087218,533.642575055723L96.9738444704995,532.9180925097045L96.97377714551254,532.8455974490696L96.9720553059297,530.9748892043439L97.24057117577001,529.6988842148442L97.93387928527022,528.6993989141479L98.99502943655074,527.5742758386007L99.31168470763572,526.775071506971L99.29159751840575,526.1312962276177L98.97039169938466,525.2401976167621L98.65219660497905,524.6513292989818L97.82142172930094,523.7549991531147L97.03248304235024,523.2526640937328L95.16117362107929,522.6368306131195L94.51817275456426,522.3228769099845L93.73531040752425,521.6986739609899L93.20041296327332,520.9691576162985L92.97000400152797,520.3507548382042L92.79621550438725,519.4589791694102L92.80144172135891,519.2121282740497L92.80735681276076,518.9327540143389L93.10344633681848,517.898248782526L93.34236084309345,517.0633629518924L93.36395503542673,516.2566406217022L93.07886369717977,515.356457973906L92.57019526527256,514.4854501277938L92.25594274628378,514.1184857134112L91.25464741521824,513.331145738631L90.18120377710682,512.8351252854078L89.51864672835677,512.3411802293676L88.99407925814069,511.68399152867255L88.57026007946695,511.15293044543625L88.23897333232765,510.54182371288664L88.03302806396943,509.9080249430605L87.95828841362851,509.39690365553133L87.94163988221317,507.94883206637945L87.75594871129573,507.2788843953292L87.29913026541084,506.4698492524391L86.45876949994494,505.41606195860584L86.2769410116083,505.05625784143916L85.97961201851075,504.46783014818186L85.98197327382923,503.72526475145304L86.186752604672,503.23981620972165L86.45298752359571,502.8525025340863L87.18458001217743,502.4183178351038L88.99088476063423,501.918730143506L89.35845623374871,501.67000190944714L89.39079887824812,501.64811488228L89.85926571949273,500.87777857297766L89.97560408506985,500.3456143713846L89.94007480423898,499.6204494930755L89.02393969368029,497.54282617933643L88.90357085612635,496.71016230043637L89.0771021529622,496.1284195931715L89.23914322064024,495.8587480880615L90.10534597716281,494.93372915460316L90.36347731252192,494.6580195456112L90.70365671344507,493.9768802842629L91.40430220379596,492.1412014371987L91.49093546053052,491.23260682810184L91.42055830855924,490.84226179140734L91.00205714718419,490.23490531265475L89.75396268734562,489.49028030826054L87.51693535336523,488.96793200778546L86.90604943264901,488.9423515074427L85.80540751041076,489.11017758970576L84.88757672465653,489.48853489392803L84.4327171262616,489.5731018437837L83.39839495687556,489.44786043158126L83.1074038695279,489.2900044726735L83.0096396139362,489.17928285662754L82.50070485854258,488.6028343722606L82.37408659306732,488.33586573810595L82.31089069597402,487.84980116217145L82.74589533263975,486.90674657395704L83.50410291445871,485.722799087293L83.6716909053153,485.27394899276845L83.72802499254527,484.834074860041L83.59561887866016,484.30152009418794L83.12776798417724,483.54473173222607L82.19494118650869,483.03321943539686L80.50281230300897,482.828149325148L80.35761307843046,482.87481761803997L79.13041000747546,483.2691272584734L78.74666796598291,483.8140901242865L78.06648327055501,485.06784877240375L77.74022714180046,485.4342249755734L77.50206433032781,485.5657059127605L76.86867097676799,485.5980424119632L76.67896182093187,485.5103018767001L75.8945692649769,485.1474556913078L75.30132100471747,484.53623663243394L75.1222726133563,484.2170205529848L75.09150569197891,483.8202763514402L75.1985425302999,483.01750101538545L75.70517867624733,481.97986808278756L75.93481264775454,481.8197037891094L77.38790971612684,480.8059288865383L78.05482522246706,480.0444916930368L78.36741077080393,479.354173377104L78.3758090358736,478.68825174584015L78.13092164548851,477.9231060139084L77.8796718169246,477.5385949647332L76.96680023284995,476.7118069399735L76.06385717024278,476.2798743147709L74.82687776777107,476.1119925856892L73.670134749814,476.48255592960993L73.42878495827813,476.7432500042116L72.69523134860651,476.528040223391L72.53839175055236,476.4504979807309L72.2988354261526,476.33205188232097L71.62452766615263,475.80939285617256L71.24114077643617,475.2583345739653L71.0506847869791,474.80144947581863L71.04753804704904,474.7926945577541L70.70596979359453,473.8422656950401L70.46187601869565,472.6290825299869L70.36574368735245,472.15118780503406L70.334756778653,470.1865213711409L70.4117128148996,469.4463147379911L70.82849148907547,467.9997866152554L71.19497835706073,467.2568997130224L71.2602497960076,467.12457866470385L71.63508259880132,466.5950488995155L71.65945073453196,466.54344784119576L72.3199582359241,465.1445638254731L72.54515486451896,463.7489971238262L72.54179998862759,463.61627285371617L72.50996756219382,462.3564388509719L72.31134342248049,461.6859454901021L71.86090419164293,460.70843069502394L71.4881146930773,460.2160539488273L70.89858307771419,459.64935329096903L69.97056735432955,459.17672653890673L68.05711285226846,458.6648089702799L67.74052281265938,458.58006043166114L67.72804966579827,458.5730600337373L67.69284557103856,458.5533020155753L67.04500116676257,458.18966242473266L66.45589149224077,457.62347419978846L65.94699356671583,456.83946257840967L65.5536958960713,455.46229513404637L65.21547694162314,454.7545190085056L64.33444475984635,453.7475330586435L63.80409254897012,453.36975157822394L62.61680697512918,452.5237866804575L62.00327442382411,451.8375777577246L61.79284551364941,451.46018669635754L61.28321646362713,450.5460462251002L61.053959465084915,449.4944334015999L61.01727253337674,448.42128575298113L61.56601915489006,446.6082865252921L61.5448841439669,445.6926629080665L61.52921626955191,445.0135607178491L61.39414180124146,444.5091268422641L61.083586790367065,443.85136046025593L60.05032520612252,442.3453434560814L59.96437676004439,441.79592225114453L60.25491518589422,441.1083374946602L60.48364832440075,440.91237136406033L60.493516740624614,440.9039163189264L62.208061321591856,440.536615576455L63.08892020948008,440.4645835147014L63.349548031650784,440.3738925068819L63.502468027481825,440.3206759370684L64.15712031909425,439.8267429556566L65.46228234194274,438.24816477314437L65.60983181772508,437.94364250283104L65.62635389857928,437.5128468555169L65.1351865535932,436.8302096376082L64.64947456892156,436.1550256361012L64.82033129161687,435.8345133310069L65.0872971682146,434.24048801630227L64.96092995315593,433.29334331820627L64.65451630810992,432.34591197082483L64.02652485183188,431.2467525530392L63.274191211016785,430.35263625499545L61.165110924172666,428.7807608217221L61.1627508757947,428.77803705253234L60.555238414877635,428.07682126447105L59.88800912227515,426.85009887509545L59.561401632321974,425.6484306810076L59.6525871331969,423.81810262417554L59.677388826173456,423.3202586982461L59.623941723931296,422.38129401387977L59.53991278128501,421.874483735247L59.3083610101408,421.20917743944324L58.8381586462159,420.3581195256956L57.622518282232875,418.79966927663304L55.9072399345265,417.7201345009919L54.96514769353098,417.01564723021534L54.2633172389136,416.3333240357401L53.73997099510768,415.5268216784872L53.46573100252118,415.1041338093189L53.26125979433738,414.4162619756672L52.98347032969701,413.4815483771072L52.96217981821542,412.8405077203377L53.04164092431665,412.0477911731612L53.19137923686333,411.512339549818L53.517497421214784,410.95016460233967L53.69168411100003,410.6498646641269L54.61116075084203,408.68638457005625L54.58502573646899,408.09233226503784L54.563994604901495,407.61418338873705L54.293712963637574,406.7144703149147L54.27315361961524,406.64602418051635L53.84117818772364,405.2076232391117L53.837089293023894,403.85008785938237L53.83949057652268,403.8401245326678L54.195200895736946,402.3640315696351L54.48977815783837,401.7857196726086L56.50784480853105,399.59681992585155L58.24658167513803,397.70971710827547L58.77828309250174,396.7876469591922L59.398716803746424,395.0189209879463L59.409075179926106,394.9453541811106L59.41198065812006,394.9247188827951L59.53982385762964,394.01669054563285L59.47244008219997,391.99372440909633L58.99555630299113,389.7115390259338L58.92297674812221,389.4303371433532L58.92180480390198,389.4286479783874L58.92163003096755,389.4283960718742L57.55415916154948,387.45686896483767L57.542543701479985,387.4520086906508L55.65543564114313,386.6620925952191L55.164426550535666,386.5713287087483L55.05244211835367,386.55062369154984L53.88234918306881,386.3341829875981L53.562341761782534,386.27495708124206L52.89720754649079,386.1694860877682L51.18759491040214,385.8981242124018L50.43445130877325,385.7784579589643L50.071515480193,385.79646483918043L49.77058718308922,385.6838448158124L48.877025844814625,385.3276181820998L47.81281452213602,385.6679343147716L47.40329579706042,385.5771727139858L46.93427808191126,385.4352204304563L46.87502419549861,385.65819683843716L46.74898543308433,385.8056533739206L46.535480014364964,385.83963189805775L46.071911275959394,385.73909655268017L45.82955746912586,385.4436915167885L45.76126861097123,384.78676630872405L45.8223783246936,384.56072899491585L45.943103013739744,384.1141561104753L46.29928097595342,383.4679883266434L46.404432753970696,383.073998917208L46.52483789531851,383.00977530258626L45.99206186031529,381.7827281026372L45.72821375731951,381.46164174046095L45.10758424999568,381.5843244419092L44.18556758216101,381.1185635423492L43.819494396057166,380.1403084702571L44.16561250589439,379.56033091141416L44.168039895781874,379.55626314014313L45.77002708921219,378.8914267876088L45.79392919458638,378.8815040678318L45.79601672239835,378.87574818834025L45.94870566459633,378.4547256687747L45.94567328223593,378.4309999066241L45.86721359857711,377.817065071592L46.23770832788614,376.6503508171623L46.23774589950324,376.64999698848527L46.4640610099089,374.51842259742426L46.570302449324004,372.61627502773365L46.34271520522128,372.54458852708586L45.473129228729306,372.3963213088741L44.78858446350421,372.3751030171968L44.42646348127266,372.41243097153415L43.873961201706095,372.39587037818313L43.6292922943627,372.2752861552624L43.45591747942416,372.04114882558923L43.41983652573964,371.50189093416293L43.454207797103095,371.4620018549632L45.14175349571093,369.50297203693094L45.455103176087675,369.1041469294272L45.491666332838236,368.8140414046539L45.38561334429704,368.59833652123666L44.699734407528695,368.37033990129225L44.13877623511996,367.8545205716649L44.06462235220391,367.57392252527023L44.15684646164772,367.2131577300307L44.30089672049269,366.96285484127606L44.30494751832407,366.6243071844242L44.03337016494123,366.23073810342146L43.59408315775073,366.0315502693259L43.434620289749034,365.88268498382524L43.404615400819296,365.69162544787446L43.391918054392306,365.6107706531059L43.58799199647086,365.2022192842037L43.61174561172243,364.9316300923808L43.08225411740847,362.74783894420284L42.468610179254256,361.18549171255313L41.94565352315675,360.7285028240527L41.39780148754073,360.60917328903554L41.02940935525129,360.7807848475144L40.60401013589865,361.11547675573706L40.080514313500544,361.72800348638464L39.74949308646558,361.77392825223L39.48025945474433,361.47293066124416L39.28432573687593,360.5294927357993L39.4089096922977,360.1448042548792L39.8166656863296,359.9070699741179L40.42596214192116,359.9047967012589L40.84445234513669,359.80996449279917L41.23619966658413,359.61021761569486L41.540110886715524,359.22959840812894L41.66782079987905,358.7161807029319L41.726416446201426,358.44405491871146L41.779328921132446,358.19831185045103L41.66674045676126,357.6404766254644L40.27332714621667,355.43775634696294L39.29413591795338,354.91697404014513L38.72043232063504,354.3105471864385L38.65358230324591,353.9814410371162L38.692733759341365,353.7993328031793L38.69511914262836,353.78823730373915L38.824418165705936,353.1867780833888L38.82047432828489,352.540243527849L38.22882551535628,351.4584892104772L38.04295380892296,351.3213439069518L37.590898825210104,351.27335540565167L36.19151221627976,351.8944288272688L35.74663033021898,351.8783633119689L35.65509747819078,351.74669145859934L35.711749918558155,350.9047865104135L35.86014099858153,350.75052773951995L36.22242753167802,350.71231584124257L36.25895178964771,350.6240615890308L35.68870869097634,349.64279404312015L34.87556372826657,348.26397911503597L34.677025875362915,348.19363131938724L34.507224736869716,348.3286502550929L34.33861262989859,348.6038451790596L34.240190751518526,349.06800074660526L34.01009147449179,349.2357570971117L33.41925508048291,349.0982174380083L33.10933127019109,348.92702649706445L33.17973533626065,348.7954651595952L33.625973311810526,348.29676680324786L33.78182499904801,347.9933960519277L33.829950400799135,347.7959499785659L33.703248369875496,346.8688818208417L32.25840542296828,345.9149676292685L31.403671790463704,345.66756920732894L30.713218626475395,345.54250981145594L30.86781239245869,345.0162740142805L30.75588336847659,344.23927146840595L30.42506724560576,343.7907769445166L30.182251202086377,343.6974321030252L30.005531070599147,343.74044799040536L29.566919609823287,344.17169976469773L29.373428265585062,344.2510844979495L28.789054313086922,344.23587711072287L28.528034280711267,343.99956452034365L28.52902364868271,343.82337491072525L28.567135397423215,343.7238117856431L28.57950493370771,343.6350180861741L28.535391875400137,343.5133374698854L28.487291106890325,343.4609764009167L28.416770141548852,343.41720377025L28.367115086495573,343.3943898408746L28.29431645254425,343.39019890194334L28.20633325883199,343.3950119841019L28.098624130659346,343.3969096952335L27.49723128079222,343.0508593073778L26.0931164682994,341.9990520133839L25.958438652453367,341.8375469600298L26.113849387515245,341.25936645018396L26.494404872987275,341.06504419951665L26.947086440619557,340.2324128592553L27.037178894359613,338.0245134709013L26.809057315856933,337.92165171508117L25.987260506548807,338.0449829493617L25.13202974577399,336.0527134773991L25.08002897341538,335.8824438617524L25.005894865270932,335.63968890627666Z"></path></svg>