<svg id="KS" width="1000" height="1000"><path class="state" d="M55.28318010429797,255.17881532432563L71.38054057227089,256.2092014442988L72.87318192033024,256.3005690654985L77.92939758632218,256.6578452923657L80.3978256299801,256.8308652158201L81.45600885789389,256.8731722109792L83.7624697608884,257.0322203912957L84.372513072108,257.07415338264684L84.70887779486367,257.1020044325545L87.26579017185111,257.2610187093011L91.43065158586882,257.5179227051289L105.90697833648483,258.3905543276071L106.0582980604911,258.38514739016927L109.39743834492265,258.5839692474018L111.56398279202512,258.71207339070145L116.01921198870843,258.9732827432819L116.01969832048161,258.97331109370384L117.3269253441955,259.0498286086022L130.93492103279402,259.8310851912737L131.66997185518943,259.88035932152485L131.79984874722635,259.8890571498294L136.05106711117065,260.092543666688L139.80527914089845,260.2837986615094L141.8753245207942,260.37673592810006L142.05170636245384,260.38462504169775L145.63487606241938,260.5941677719011L146.52199196672996,260.6404508407093L151.0413087212102,260.8768961235737L155.05492787029988,261.08021568379297L155.62392742652946,261.1111988714198L157.77640513380004,261.22796499994206L158.4119186421433,261.26139919465743L159.37670861406866,261.31204041819126L160.58253467469223,261.36009450459744L165.09150949299402,261.6027134106947L169.0141991296917,261.80372444690875L173.51384835957208,262.03145119701225L177.40742859625675,262.22534967326635L182.51970697320917,262.47424909943254L185.21380609674588,262.60383482235443L188.17821637672796,262.7451617433891L196.1010803221983,263.0945417631398L209.49607226838236,263.66378076785116L210.2883532505005,263.72467968687033L210.59414836969648,263.7346698208114L211.88344267617464,263.7766359458649L212.54381129287094,263.79803413357814L212.9476705496129,263.83987877345925L213.99499645532939,263.89046770883925L216.19279214795426,263.9697549564977L217.51539854301421,264.01711957959105L218.4956123881779,264.05205316889806L220.6845101986433,264.15095147356317L221.26528728047373,264.1770711620432L222.9722452799353,264.28878113755997L223.02853746273172,264.2924576354809L225.2160331710541,264.3794478007933L225.2580662132678,264.38111229279355L227.39215823539394,264.465272814061L228.34121186377678,264.5024802083371L228.532583668143,264.50722655029335L229.08040756555965,264.5207831360014L232.36527741054664,264.66411302518327L234.1981424359705,264.7357182152157L236.3714003755838,264.8233788185293L236.4628467436321,264.82705185134813L238.67150037268448,264.91538313260867L239.07155915950528,264.93130442905783L241.92539995964796,265.05109836791536L243.1361217699052,265.0990579248079L243.2751948036669,265.1017865084844L244.12039828317916,265.1403522745185L244.7544883993875,265.16135075601625L245.46070444185355,265.18466673102637L246.71190678704784,265.22579185727534L247.6659209990218,265.26434834837653L249.9430385622196,265.3458760689515L252.03982440187093,265.42025905014714L253.51703303674452,265.47226644592206L263.4145035884036,265.8367018132576L265.4533245131146,265.9099467370145L272.43451617800997,266.156020982319L272.6943802705399,266.1537159740177L274.37467409932117,266.219195682087L276.57699054340094,266.31235405173805L276.97890932870325,266.3131276548364L276.97973247997663,266.3131292143686L277.3699587019691,266.32377430731526L277.62553941874944,266.3390857484335L278.8628103903856,266.37095647415185L278.8661681903154,266.37106679207227L282.6763982477388,266.4951587052153L283.70824384925555,266.5283890765546L284.39214646851303,266.5503259791825L284.90729284121954,266.56680350291833L288.253813180808,266.672876074035L290.4601801146031,266.74189074679305L294.9675845230993,266.8806111275801L296.2488862302275,266.91948819981366L301.1841595963021,267.06693207908563L301.6997595084126,267.07446621863676L305.1539487248316,267.1421826145521L306.29276711365264,267.1641160719191L306.7396790002266,267.2123991167556L308.40970060477594,267.2696333692896L311.2495211707371,267.34857778053765L317.4674040767404,267.5255945041697L318.00733411769556,267.54069208736087L320.14130783500127,267.5999345365826L322.38867007721683,267.66158634949227L326.90038574818266,267.7374488887865L327.32136236216803,267.7234697842721L328.26492132649264,267.78642834817015L329.14559101297584,267.8408355903021L330.36672787777405,267.7962776535478L331.01988936085826,267.8118404857726L332.1190799632875,267.83788639872716L333.5907385314554,267.87635645475706L344.49697023759256,268.12030934045504L344.5078960681038,268.1205598865315L344.779619731342,268.1267851691181L344.85799039523874,268.1284026517127L346.7661229066588,268.1675002106226L350.1924150106468,268.23633466171486L357.69797001199004,268.3809712487707L357.9980948358334,268.38657923062374L359.61662644916464,268.4165895272472L359.9500933193986,268.43405413627613L360.1099248820292,268.44428015262554L360.6111863892717,268.45040564895413L362.1329172133503,268.4798321544658L368.96335624499727,268.559965746495L370.09735359602496,268.63565391296095L370.2668578550607,268.6469507367413L371.2219116595595,268.6509611839923L371.3730187291593,268.6515831865633L373.5635495707532,268.6919293519568L375.7476541036718,268.7314409758816L384.6999800865119,268.8859207238245L384.81181933656933,268.8877746215355L384.83655183509757,268.8881843453919L385.3202656077662,268.88545791119805L385.7606839053728,268.9141350530879L389.22077557233484,268.93884744688006L389.6556463273203,268.9639039890347L391.459280993276,268.9877279750178L393.6911123311586,269.01653301896476L393.7175129358268,269.01686928958543L395.9365603728574,269.04716686332586L395.96194998993894,269.047509247763L396.99989401794977,269.06421010939374L397.231950067773,269.07474973453066L398.1644156709949,269.088181672431L398.16728332888033,269.0882227793275L398.1874764204434,269.0885122054825L399.2805382196955,269.1122005104203L404.8710018594603,269.15161865830623L406.0089380619902,269.162321652513L409.34408772860473,269.21473655543514L411.5636698381422,269.2366484939779L411.673163092818,269.23771031347076L417.14209915784846,269.2884597482831L417.33782822104416,269.27994128561227L420.5119732379371,269.3375632807101L422.8837312175818,269.35492837203685L422.95140166778856,269.3520591850855L424.2314783202401,269.35788638393433L424.2421577735152,269.3651741038101L425.08255713223025,269.376655424709L425.2309065487874,269.37867114404L427.36403231140514,269.4072905883165L433.9622405737533,269.4561727351621L438.3919643165928,269.4853296444536L439.35379653601683,269.4912719744954L441.0106597434544,269.5114536190424L446.19526393987496,269.544228149702L446.4655384863845,269.5497396272816L451.9226519732114,269.60292858034865L452.2690862610113,269.6061545243587L452.27845666534756,269.60624153033183L454.177351027295,269.6243442046799L456.24578816204297,269.60620253135664L456.44343267333,269.58672005511323L456.581608680267,269.5807844171486L458.6688319757601,269.62080971980004L459.0387147883312,269.6155716791121L460.93754450006236,269.64719466954375L461.09753425318854,269.6517251648621L462.50588454919995,269.61979377493174L465.40914974825307,269.64586278978754L465.726889583493,269.6486391538014L468.1662566516408,269.64660644267803L470.33192861784596,269.6539564905213L472.0814022867539,269.69202128667877L474.15973860224875,269.6967520228992L476.5656402120569,269.69545044858205L478.78808868573407,269.7019866889384L479.36263195142857,269.70355602511324L480.45175703160464,269.7063951599489L489.4593026657204,269.7078797814088L492.2438729350993,269.7058785913049L506.3253227988065,269.6779647168817L506.3255462444223,269.6779640381897L507.01829011557254,269.68068611680934L509.1944332769772,269.7045762379006L513.610245050065,269.66163321713753L515.9489721985265,269.6377057666845L517.6420949965377,269.65231324796275L518.4841068228219,269.6562746975097L520.3273545014549,269.6480940930245L522.0974889890508,269.63975874636645L527.1610298080464,269.651483745375L528.645308833761,269.63783394065103L529.9841102455856,269.62523877887077L530.8603400754092,269.61200891386926L533.0883193620347,269.6112835800059L533.3716184316709,269.6227545536073L533.3976637568402,269.62380854135756L533.9594164899333,269.6196326445587L537.3478508585645,269.5934411605735L537.8563824837781,269.6010252623248L537.8581610853278,269.6010159108331L540.4515989465613,269.5868759010168L542.3938390021274,269.57562632588775L547.2168372899979,269.5487601251855L547.2185755075561,269.54874981419687L553.8564664108437,269.4842230913977L554.558118640933,269.4796757407819L556.1043275111812,269.4693944692474L558.1581572451794,269.47170083432917L558.3834303028892,269.471915339234L559.0460410496464,269.46062576867007L560.3885114279126,269.4375509854344L560.4007083253761,269.43776646387374L560.648122964447,269.44213263885297L560.6677514145755,269.4418093378448L565.6988577620789,269.3570372076591L566.4614178041729,269.3784217770601L566.5003658919098,269.3774153508162L566.6492287378239,269.37356660889566L566.8234497851704,269.3718190032961L567.1587397901427,269.3683039499391L574.0799957640311,269.2919806228109L578.4241300729703,269.2404089996978L584.0750081548429,269.1690918069231L585.19102774235,269.1544410904427L585.4614141990631,269.1508634590014L587.6172420109392,269.1219465462059L596.9869510547167,268.9881741776434L597.45616729172,268.98121546140794L597.5897854008721,268.9891239969066L598.7479720283568,268.9641876611791L599.2265707811616,268.9538244623376L601.0424122848067,268.91419331150445L603.2024118955069,268.8664069847472L605.4277297084625,268.84344393016784L606.5657697254956,268.817352658974L607.7237749203508,268.79060430459685L608.6339115052675,268.7787508166765L608.8720948733576,268.77823677366L609.9454555312598,268.7578738773019L614.4436461950254,268.67065934721234L614.4437188745659,268.67065791352513L614.4551297702197,268.67043281241706L616.630805905629,268.65102704159676L616.7052268627115,268.64247988475745L627.9050469471072,268.4912440554958L627.97837720042,268.4901918953768L629.2636979978998,268.47161893040845L629.2744766387217,268.47857738205107L634.3843283228271,268.376788733808L634.6372519519135,268.35476059032777L636.8372675512038,268.3078115507088L641.3316627932799,268.21817184131044L641.5357447266733,268.21402959307835L641.6020334770011,268.2065219606227L642.0820329551099,268.1521388603624L652.6208020814249,267.98624535465115L654.8565991702441,267.92971434118675L654.8737563173527,267.9292776327094L655.03329145655,267.92425924627696L656.9891073671749,267.86242610357135L657.3341501275803,267.8514580102245L657.4581517424153,267.8475119284292L660.5631634756608,267.7687603044408L666.8341951603669,267.6053005333474L668.2050109116318,267.5687834687884L668.2939089803629,267.5664055876647L668.5383951180517,267.55985986193707L668.5759021292788,267.55885487843096L672.8326484257997,267.4550462354986L673.0960785253702,267.44516378185L673.4779138356901,267.4377010892536L673.6266195841152,267.4333828366669L681.7545931086754,267.22170097591714L682.0627590641521,267.2134802596473L694.9068586287823,266.85817837094567L695.1755388790501,266.85048172063995L695.5919778127643,266.83853095555094L697.8440275913072,266.77345195395696L698.7285995503216,266.74768176842L698.9806144196541,266.74031834814053L702.3210661231797,266.64181621912667L703.6565032534775,266.60196889677263L704.605415435383,266.6005243779442L705.0972429882793,266.59972257483554L705.7498793723198,266.5774595372351L706.1749915229177,266.56220620933004L706.879296776618,266.53687553131397L708.0342596811402,266.4951755621322L708.5078488261266,266.4780187245602L708.6196185593551,266.47396470266335L709.1085387407259,266.4502109290844L709.8130214241933,266.4159210356602L710.653283360371,266.3990527628258L711.3552687712358,266.3848792345183L711.3553542929078,266.3848775032668L711.3651092957251,266.3846800230051L711.8228458692483,266.37344101459394L713.621169504258,266.32898176091817L714.7288175117217,266.27041874502675L715.0373231829392,266.25407472431175L715.845970982285,266.22840931481267L718.1094793675004,266.15604684479837L721.8644561052586,266.03430781534814L722.1517656992111,266.0137098698756L722.6086608026908,266.0084682553641L722.608826177655,266.0084663524797L722.6173797358732,266.0083679253519L735.6130827615654,265.5860090607833L735.9689260033604,265.5740877176298L736.1042721716551,265.56954840642476L737.1577907434794,265.53412096226884L741.6156964896823,265.38236803850486L742.0322773625106,265.3664095518101L749.4177919352519,265.07825555233944L749.4220758822713,265.07808603261105L749.6618617229956,265.06811492809135L751.2525477179411,265.0017501683019L751.6905429546075,264.98623406518277L757.368137959661,264.7896624798939L759.5445929033002,264.71302570710566L759.5486178184608,264.7128833241802L759.5631045413744,264.71933055842214L760.4080748973054,264.6810800687914L762.9213125986232,264.5874147023942L762.9429545898795,264.58660401326745L762.960522952248,264.580431446543L763.1863159019183,264.57088872792315L767.2588465417266,264.3974560686422L768.259440008947,264.34324036986504L771.8046706305331,264.1770399558322L775.0996092647597,264.040120031342L776.2196654292774,264.0016238856934L776.7009320955608,263.98502499698935L776.701180287362,263.9850164278739L781.2053533629835,263.8055347531835L782.973546276865,263.7342432909176L789.7255806578971,263.4439814162269L790.2238572455708,263.42228974785706L791.9927724941011,263.34498162189607L791.9995293652928,263.3446854204264L799.2092563825948,263.0201592279145L803.2680932192143,262.8340254148167L803.2785254632727,262.8335438138191L803.6900744573309,262.8127117190244L803.6992264067682,262.812299904507L817.0061568660185,262.20020818383193L817.201166306245,262.1910402994534L818.7135061609958,262.11974735833195L829.8497546309,261.5841893653631L829.8521230746919,261.5840734806877L830.7113074456904,261.54197914591606L841.9771699083628,260.9797580637321L842.057151917592,260.97569835187267L842.0657839119879,260.97526015320796L842.9862185498396,260.9284704772827L842.9911271778742,260.9282206089629L843.3724109387254,260.9088007071786L844.9768361173101,260.8268430781926L844.9879510602187,260.8262739518955L845.285670471008,260.81102270053145L845.2880228063839,260.81090214453195L846.4323443451834,260.7521575841414L846.4660061717623,260.7504265487555L847.0386826808556,260.7209509588844L847.0400061211833,260.7208827844533L847.8180361134541,260.6807585014568L847.8266005998039,260.6803163102767L852.5340984932327,260.43559505691286L853.322991913638,260.39311905817533L856.7523928757189,260.20738336096605L858.3564699633521,260.1199065478953L860.5225950346157,260.00116462019355L860.5286592712522,260.1490896860763L860.5624598910606,260.973604145249L860.6638148152688,261.45848728398494L860.7565265975484,261.68831049201424L861.3466931539813,262.39886841437476L862.9304652308681,263.3503520338071L864.7640441048427,264.12204368417247L865.3690304420619,264.5131527592139L866.4041430970858,265.82687253168694L866.9557581987308,266.6916614198774L867.8936253391237,267.6145004118011L868.9853612158274,268.1305962169948L869.5462902604978,268.25811054112626L870.2220053634999,268.2429902491692L871.5183017346,268.06829982233705L871.9730175110749,268.1175500435288L872.3024319568196,268.2156059021072L873.4519284841222,268.8155721949048L873.8704766167934,269.53488403211963L873.9941969089575,270.47169473894326L873.8872240039323,271.37136634751005L873.5053725479953,272.5293224620476L873.4629519317502,273.00819053658074L873.5012138512484,273.4068214441189L873.5679169735336,273.6034340054241L874.05934634643,274.2354751246851L874.3806457350947,274.42727654591135L875.059786076795,274.7041668204233L875.5744836829319,274.7890368744597L876.5522261810681,274.7200200037133L876.7824070341765,274.7037510644551L877.6203876793224,274.34857831231886L879.0654693181286,273.4902279788738L879.518515883874,273.4235747295394L879.8630160293509,273.4939249931606L880.2911848015171,273.58133464914727L880.7376480962262,273.83140402117164L881.027415119901,274.1687107587353L881.2110157090192,274.7718647362882L881.2483794741489,275.1718245069232L881.1886700962626,276.12342106025415L881.3019266743303,276.6589522873103L881.5930901313878,277.2989448166153L882.0429616804465,277.7946193063571L882.3370104887781,278.01192587959133L882.4353988272788,278.0571474893723L883.1485219870865,278.38485751653116L885.8560066829324,279.0085690560336L887.7958453451661,279.83656122608136L888.4241285323633,279.99607303495736L888.8406672031572,279.997260209709L892.2852422487668,279.3772566460628L893.5244708281791,279.2358030015826L894.040931363789,279.0896060739122L894.6982860494761,278.61303705668763L895.1614894511433,278.0870851040761L895.4129371920492,277.26043954153283L895.4292841574197,276.92759832719634L895.2561250164812,275.7004011883015L895.3129817567676,275.2352070873307L895.4006409696087,274.9950640349932L895.6729555460105,274.5529177389497L896.0176689024745,273.9931317826988L896.6616743481461,273.5507265445749L897.2187921499929,273.41653989617987L897.7729148101507,273.41351774914847L899.0415848131524,273.7443777372781L899.422654162326,273.84370538090457L899.821378727622,273.8726304116792L900.9164804742588,273.68052401856266L902.6030751103747,273.0045139683977L903.084240508611,272.8913710777032L904.0196267123947,273.0118932296151L904.959661948124,273.32981122617366L906.1258103561714,274.0028551060352L906.7581946875357,274.6850057890653L906.9841311895789,275.0842055438841L907.0691408563503,275.4145616655792L907.117693533542,275.9914736152581L907.0102837336726,276.6102766161178L906.6879766688637,277.2154857999935L905.8659726523241,278.1496720342986L905.6569598515517,278.5604896110785L905.4900522592911,279.0938511959837L905.5137890790799,279.7906746034396L905.8936609577686,280.49810459868115L906.1669668333782,280.8166422396901L907.6251890039313,282.050637503812L908.7801372573781,282.79007991291394L909.6316355090386,283.0050096568717L910.4492925448203,283.04420187557605L911.6984418616423,282.8835848705212L912.0829438513967,282.91460385123264L912.3983916751665,283.0400531437658L913.1477657395913,283.6464981117637L913.4508633540524,284.0030177070471L913.6734406712062,284.42217780660155L913.7642437234376,284.9109665409859L913.9075866914138,286.04435504286613L913.9223857586626,287.0450382009059L913.493367734689,288.47930759755013L913.466440827094,288.569307809852L913.1192275453523,289.07693091056717L912.4010025498674,289.5301437797191L912.0859224513642,289.6325045939625L908.1884451611336,290.08551102014314L907.7175290986482,290.34507626889865L907.6246073872777,290.4342286211926L907.3687341414957,290.6797055169709L907.1019427304601,291.1895767353894L907.0736139997803,291.8525269652745L907.1628994791894,292.3629635804099L907.3065169050685,292.66216431700684L907.9028048600788,293.33663505359925L908.3384407792543,293.71794838914013L909.5238711620616,294.5136193536691L910.0784245394079,294.7296475000661L910.8028885268834,294.6720129372943L911.6347710428608,294.3320340953371L912.0818605295406,293.9984842558373L912.1077085500469,293.97494933794155L912.2181802057071,293.874729842277L912.2354850136173,293.8589306909997L912.2576909153147,293.8387543375587L912.266573238219,293.83068378165956L913.3735527043042,292.825440179532L913.6583954034776,292.6397418876336L913.6629499542045,292.6394560348153L914.8760963204829,292.2918045235295L914.877787132565,292.29131981456607L915.0585439998731,292.29559474000246L915.3700808034378,292.46383524158875L915.6135330563388,292.69898069119245L915.8927806947672,293.11973757217027L916.2218074373798,293.7565475155652L916.4702389952606,295.21266798948767L916.4680540986867,295.23308459643545L916.4675913710427,295.2374085017867L916.3999797513973,295.8691243727774L916.3818481582314,295.94630717233923L916.155889875839,296.9080177305608L915.374886766619,298.2727059947904L914.7553359671351,298.95379177346L914.0907745336647,299.38709450863803L913.7717961297553,299.59503303625826L912.8783673133419,299.9485869348692L912.09324859709,300.1140559723875L911.9781170989768,300.1383124625464L911.5810671534869,300.1380402270628L910.6710199463123,299.94668469725457L909.651243086942,299.53901637530805L908.1862272516362,298.60003574865675L907.0208398869377,297.6999480295864L906.3318088147297,297.304166226214L905.8503536483103,297.146604236083L905.8421614322689,297.14392288191857L905.3703874559792,297.1153273195538L905.0544362037595,297.17733749975275L904.5038370444624,297.62201431051983L904.095878111468,298.08061474505416L903.9144944539153,298.2844893177844L903.3684863071383,299.4052930331705L903.3012920842159,299.8503851183226L903.3754261226838,300.8103800437723L903.8408243616041,303.24772888895404L903.8542994095637,303.6554961501912L903.9154514760336,305.50631161427987L903.841295551001,306.1224264995915L903.6973992181722,306.54480827185733L903.1439467992707,307.3682218869974L902.5415069353896,307.83363673933195L902.2375833518863,307.9749955666719L901.3244350846953,308.1943665655489L901.1194963301458,308.2435816393604L901.0969269520922,308.2452960208646L900.180622805583,308.31483436115855L899.2690042695143,308.4819109440981L898.5278230516482,308.76218518372184L898.1795326884679,309.0014513385749L897.816614968934,309.37296989446634L897.4665387027536,309.731291526126L897.1286189043976,310.2265279140194L896.0660240077545,312.2566654671033L895.9060667995141,312.77804089420636L895.8039637006282,312.92180033834416L895.2934987628082,313.64042422257666L894.7572602531716,314.6901967360541L894.3646022134955,315.8936154469936L894.2270989777007,316.74064519128547L894.230908355218,317.26360319154287L894.3616236689882,317.7345674361303L894.5019603439796,318.24014586068836L894.5601103169081,318.4496220020884L895.2456124450955,319.6120551002417L895.4658078841753,320.3328489403433L895.4950747216637,320.65231665229464L895.439805701892,321.3516976664667L895.2372719805467,322.23143401839735L894.6380451034142,323.3796531173085L894.4039301403837,323.69482807781577L894.1015610217248,323.9378652352732L893.5182080325028,324.2888811238239L892.9489609604394,324.4633942136189L892.6072218232684,324.4987533138452L892.0559504378139,324.43080878035937L890.4717964876857,323.8560158044113L889.7264267946264,323.9642954573794L889.5696439408666,324.03108813267454L889.3304543116715,324.132978696123L888.8502681484118,324.46040772636184L888.4907768510517,324.8783958910676L888.3774920527762,325.10598087928884L887.8529603192251,327.36739561460547L887.8350761595481,327.44447271110715L887.824837595798,328.2592901039422L888.4443312012104,330.05097731124556L888.8132603352005,330.7551774332029L888.850380299524,330.80456556452305L889.2998941913023,331.40258396451793L890.0819156771586,332.2080965614964L890.6116830607386,332.75364092245275L891.8859877093207,333.85939833289376L892.5512187075642,334.3157199153684L894.7888283238137,335.3450340542035L895.1807428992981,335.66227715860805L895.7249199023946,336.2536216017549L895.9441739221008,336.62996158108746L896.0584595892108,337.1094013970993L896.3674059547782,339.2870921589485L896.5677300206104,340.1302634909139L896.7623115779814,340.5128564610207L897.4151490490067,341.42672998245723L897.8365001614409,341.82491207855526L898.3570300803412,342.23516832881694L898.9742922220419,342.60441277756627L900.5564110882126,343.3688601313928L902.4576876006147,343.81458851478453L903.0227340950146,343.946942810143L903.7174946558114,344.2158109762704L904.7410054837553,345.03884594107444L905.1864105391799,345.68847714602015L905.5424992386593,347.16461211817455L906.0318890962433,347.91915393243005L906.5530233423747,348.300542232066L906.9064532894479,348.55915498546085L908.2991756540036,349.014398524305L908.7558723686582,349.3218693753903L909.190142556941,349.7824100817106L909.4086104562737,350.23348830654726L909.4212490402458,351.1639036698565L909.5131393373031,351.79732893347676L909.6090944964309,352.0736587105883L910.0790035961929,352.7282180795837L910.377222249526,352.9530960101707L910.566386430379,353.07282872112216L910.6980274578065,353.1561466393856L911.1315994576986,353.2840263527857L912.4168375073034,353.3698494094933L912.8800716055755,353.2339144179609L913.2757260075957,353.02487014813437L914.0104105055357,352.5837000605085L914.9101144627823,351.90971585334927L915.7301620782641,351.7379156555518L915.9884667701986,351.7485357946849L916.1115832527157,351.7535942045126L916.4676240776661,351.86964710908273L916.9706272961698,352.2513461497616L917.5180947526349,353.14406660030295L917.6266397367563,353.4228601718992L917.7640128421538,353.77567211617713L917.8275089294461,354.41217979619546L917.6050439632468,355.26199246468036L917.172688605579,355.8346718385071L916.5098706136655,356.32878219539214L915.8042776326838,356.51378462070807L915.5459376361241,356.6405699827627L915.145730577233,356.98738901620175L914.6005287411297,357.5946449047607L914.3691527980013,357.9987665883491L914.3122853687789,358.27132424974104L914.304163979338,358.4277810764877L914.2778465160977,358.9347000617752L914.4034813504484,359.80805440306386L914.6948484251268,361.8330524980647L914.8307785842608,362.7775512049574L915.0691529538053,363.74671037503913L915.1699938408624,364.1566440076196L915.2767177700346,364.59045726122247L915.5978813068197,365.4632477274143L915.9367181933198,366.18874789083844L916.0316138723149,366.3919105828222L916.6758775205346,367.2923184306334L917.4215472421849,368.0962067186441L917.7409731373942,368.4405017841026L918.3150675769339,368.90000415059956L918.852613814038,369.2108288125174L920.1886566491539,369.64465705703907L921.413526462705,370.156577451664L921.5009981183646,370.1931243107305L922.315296271961,370.64584091118934L922.8578227753071,370.9473820191446L923.9447915551434,371.8318567238223L924.252218622148,372.16777440762763L924.7804372167602,372.7448528829908L925.3275681490297,373.71400443257085L925.4795811375177,374.34824551748676L925.5161739108008,374.5009093365967L925.6305743758478,374.9781553096194L925.6106764327346,375.5205486047256L925.4497593418093,376.20537160260574L924.6890726603197,377.8521288134184L924.7014732822267,378.352265025871L924.7143181393743,378.378850204119L924.9126824235042,378.78938536542745L925.1586308862743,379.06569891389927L926.1770650244009,379.95471428733293L926.5664762412725,380.12615263030864L927.6826328392502,380.37430813105937L929.1455565124005,380.37084825866634L930.4138238861792,380.06668587626785L930.6248196857479,380.0160587140474L931.055585881611,380.0687613896488L931.347508848351,380.208478433354L931.820997248334,380.5907106111303L932.1292677274813,381.0291837911638L932.1299652016226,381.0301757899315L932.7663515405827,382.42468495034433L932.8693468616627,382.6503339262918L933.8469286442611,384.17622910933386L935.22761170068,385.1408067642078L936.5221001551733,385.52839286247706L936.5236327655995,385.52865443112717L937.1886895588551,385.6421243887009L938.7583303405071,385.57048749469436L939.8982556480771,385.2749844299374L941.9769447075712,383.8530106103349L941.9961914451308,383.8375310311352L943.0305125976636,383.0054914456263L943.8600784043646,382.8244154877288L943.8603019692468,382.8243666737659L945.244908192063,383.0940564127292L945.9190983669337,383.50547976263556L946.4772977453929,384.17360135797713L946.5389999081476,384.2474451240507L946.4626670101915,385.2089043241955L946.3868918469503,386.0497802931195L946.7041140816791,386.8001461521327L947.1428421359153,387.1109830864314L947.773466336629,387.31697000289387L947.7842302639565,387.31674977447153L949.1092920413324,387.2895084474817L951.0044590757257,386.7056575960727L951.0720892148718,386.6629097923842L951.952769796598,386.1061459202854L952.8138592831415,385.88384060750656L953.6706114086724,386.05250163044957L954.3835655945936,386.3031268860301L955.0677898867904,386.718769353208L955.393396480801,387.46779068795263L955.3293726656941,389.18702521576785L955.0418951302989,389.6910472935163L954.1601746350862,390.91652074767956L953.5827534334301,391.9478584861866L953.3172307648024,392.6368613756824L953.4790137919117,393.3346651617373L953.7463694412188,397.0550213836401L953.7475843102948,397.071925304241L953.8050239870586,398.060907507038L953.8195896126771,398.31169483972246L953.9251992712504,399.76193086976957L953.9268175348906,399.7841521391866L954.0022832279037,400.82038662192156L954.0781075414127,402.1337663122779L954.1050361007453,402.60020592208434L954.1424491073449,403.24825100857777L954.1424597711042,403.248435719643L954.1768060104332,403.84336061857556L954.1931647761924,404.12671747661267L954.1982048324671,404.2140183685482L954.2096797601228,404.4127803559527L954.2271283271382,404.7150143260901L954.2637219911392,405.3488689476924L954.2875799474116,405.7621231584021L954.2876995722686,405.7641952339593L954.2908525617044,405.8188095741252L954.3188571086908,406.30388902121626L954.3408735380158,406.6852457739685L954.406621009274,407.82408919228993L954.4603384174311,408.75455530946346L954.4603637857651,408.75499472713443L954.4716689306708,408.9508169358563L954.481996230611,409.12970143155695L954.5265690569815,409.90177082051474L954.5931214001051,411.0545603261249L954.5962199559347,411.108232143809L954.5966207787305,411.1151750198327L954.6612767527171,412.2351180814316L954.7100956184692,413.08073852932716L954.7281423275103,413.393336463744L954.7427774359812,413.6468400909547L954.7628415564375,413.99438306339334L954.7976058473419,414.4779635369341L954.8430153945026,415.1096061847614L954.9242616385609,416.2396883531345L954.9516562483192,416.62071627101056L955.0457883316074,417.9299359211045L955.0458930296202,417.93139205126835L955.1293790219346,419.0924765421823L955.2112626703505,420.23121630826114L955.2119970454914,420.2414288495784L955.233347755759,420.555493134471L955.2939258719416,420.9628158821551L955.285882350331,421.04666183199794L955.2860509396057,421.04917148161604L955.2861142515894,421.05011395491016L955.3041969957344,421.319295681277L955.3663678673483,422.24476025713454L955.4609771112241,423.65304352153674L955.5385474782481,424.8076507795596L955.604269493935,425.7858657867671L955.6155287499813,425.9534469066134L955.68899375003,427.0468669006478L955.7705707811334,428.2609773580968L955.7948807873574,428.6227738014122L955.8457347129959,429.37959944694387L955.8458970523657,429.3820154077835L955.9961146728604,431.59084855311846L956.0019070078174,431.67601692552796L956.0136625198835,431.84886489392903L956.0274907037369,431.9798976572633L956.0874059170346,432.9331321868971L956.1015676311094,433.14135066114505L956.1536743929701,433.90745893161534L956.1536957708588,433.9077732393585L956.2051139030998,434.6637367620101L956.2370528746865,435.1333022792125L956.4261799468247,437.3770200642336L956.4421426275944,437.5663770277657L956.4678468183786,437.8712868749492L956.4970754921058,438.21799670742337L956.5103402763822,438.4925016576218L956.5116800254647,438.5202269771379L956.5819753528979,439.97499839392174L956.6223032225739,440.8096343069966L956.6223378534071,440.81035104977286L956.6225483885448,440.81470842537124L956.7439351140802,443.12439543218824L956.7721531126467,443.6613322910317L956.7987857485418,444.16810904740834L956.8622092686181,445.37498308754687L956.9853114307446,447.7175718480145L957.0399280369885,448.7569485024724L957.1902726338752,451.6182041743139L957.2019011693346,451.89240894088744L957.2232123576628,452.3015902611634L957.3576555095101,454.8830423514216L957.760373032383,462.61670678720867L958.0659649444135,468.48625709970065L958.0739300359746,468.5878457876715L958.193955276404,470.1185995594434L958.1940950848663,470.8286839079397L958.1940962345903,470.8346701339577L958.3080955642317,472.60110393896247L958.3446388819342,473.1337734337518L958.6219082495907,477.1750197749276L958.6229453217558,477.1901341469161L958.6214088230811,477.1948287220787L958.6258702304674,477.7586317763619L958.7448997437588,479.49361767408305L958.91481973208,481.97019691241724L958.9210233431465,482.2705861337244L958.9240945069831,482.3194419298689L959.1926061555844,486.5907296952669L959.2100389221316,486.86802573972597L959.3331187102451,488.82576604309685L959.4372776109738,490.4824899426111L959.4768575440469,491.1120244931948L959.4788827289971,491.1442356656698L959.5468669048018,492.29235896125476L959.5635898948285,492.4833796681388L959.6023138757557,493.3602425254723L959.6025325764529,493.3651949255284L959.629610589489,493.7965171329503L960.0322567985248,500.20981506337944L960.3027958487844,504.5185031537925L960.337190916215,505.0662651407995L960.3792683532847,505.6254113080155L960.4677164617905,506.80069915849793L960.506274748891,507.3859267260877L960.7049439497033,510.40112108130205L960.7630682757216,511.22355756548615L961.109314031912,515.7372116173553L961.2537764672621,517.5380955866432L961.3040322520324,518.2081503989689L961.375416725652,519.0457673657232L961.3938819302161,519.3167764650975L961.5078367880701,520.9892056480003L961.5172476260155,521.1572318525651L961.6061521832505,522.7445926626315L961.6217749169607,522.9830042476544L961.6578250090183,523.46698409054L961.8278761541476,525.749790842346L961.8509955970658,526.0601307373639L961.8513921807531,526.065454167037L962.2124817195834,531.2206140366599L962.2136060597659,531.2374889770609L962.3260048991369,532.9244109261699L962.406381372163,534.1473919609765L962.4137535180786,534.254757421442L962.4137833974557,534.2551925737608L962.423768517848,534.4006118415481L962.474465105927,535.2635251458229L962.5513751044087,536.5726151947166L962.5826775359365,537.0793675838083L962.6642530493052,538.6879209666079L962.8642294720755,542.2580353078961L962.8649846185523,542.2715168738457L962.9028867378809,543.4248172321402L963.0065981801615,545.1440124041678L963.272061485984,549.1531152728439L963.3394069232352,550.1701100195215L963.8704291902432,558.1880978587805L963.8825077515842,558.4165935063409L963.9495065251012,559.3364891870481L963.94986637697,559.3415763907293L964.207401295113,562.9820503550766L964.208614746808,562.9992021914504L964.6604476631164,570.0465140810117L964.6792588581345,570.7873107635273L964.6824166546143,570.8367424404989L964.7767248142159,572.3130034755602L964.848949173474,573.4435412404771L965.0593683692668,576.5364762464278L965.0720115254749,576.7806234624016L965.1304925831889,577.6707340934769L965.1320728556238,577.7134499035268L965.1516016530236,578.2413456594201L965.1854823123358,578.886894214312L965.219645027671,579.2826217032775L965.3667213368396,582.1796512344577L965.4431513865019,583.6880389704073L965.4435373930003,583.6956571997496L965.4839792786497,584.4282477900254L965.6158840889111,586.7976859887873L965.6810834146146,588.1492169341443L965.6814066063049,588.1532516006746L965.7549666970399,589.0715351705376L965.8357466915445,590.561120908789L965.8760934641662,591.3789394251742L965.9256466899003,592.3834060804278L965.9755458189209,593.3949241655716L966.0010889816731,593.7832319043765L966.0561351190265,594.6200300764251L966.2005237561691,597.4956440172836L966.5716262528804,604.4199932467183L966.5962756253523,604.8799522191013L966.6070768684183,605.0420032807353L966.7203753377726,606.7417714569369L966.7812285126365,607.6546886016368L967.0541731387793,611.7490772295266L967.114835856233,612.9464057812215L967.4831665811477,618.0270600818118L967.5297180696938,618.4239791932504L967.536234922854,618.5860018087345L967.5594937909866,619.2928735607142L967.677059157221,620.7352141655946L967.677315953672,620.738649624607L967.908051594899,623.8252137423635L967.9091476258523,623.840212996231L968.0204165753144,625.3628791808865L968.099617677095,626.446642904429L968.1069818772112,626.5467163640963L968.411547190497,630.6850755392059L968.4059952378398,630.8408539226969L968.8330273727199,636.8220701280533L968.8333082519582,636.8854793055972L968.8479033305076,637.0181736802763L968.9107675628006,637.5896956915194L968.911557071654,637.5968731816268L968.9486541037006,638.1965473041529L968.9864699519119,638.8078353699054L969.0070833089399,639.1410450573865L969.0414349041082,639.6869215991128L969.0453616722317,639.7493209766673L969.0661737936805,640.0197057151952L969.3596551144234,643.8320792715186L969.443124921442,644.8324091828948L969.5905159078868,647.1561843121701L969.745391176576,649.5978364797706L969.8242355314354,650.8407924088622L969.8808284756052,651.7946007550734L969.9574796405163,653.0864577483085L970.006425843782,653.7967064206705L970.0525737729411,654.5495600824299L970.0558431802983,654.565810126074L970.1171479909997,655.454895474169L970.1171951461101,655.4555498647571L970.2862283889069,657.8011675549858L970.2888627719242,657.8377220215887L970.4271734743445,660.1063858026043L970.4275810482445,660.1130710054498L970.5553562304435,662.4368558754777L970.5557849735367,662.4446533163667L970.7082999558377,664.7600146639509L971.0135302147696,669.34862564944L971.0148314616245,669.369507026888L971.0597838264188,669.861084613201L971.0617411936612,669.8910299789788L971.3300348142859,673.9953717329995L971.3300484752299,673.9957260287484L971.3397332962297,674.2469049722504L971.4902257098895,676.3588940638841L971.5986184902963,678.0439650027068L972.1228323662122,686.1924302808231L972.3435247879635,689.6224385858601L972.3639846543736,690.0760612192892L972.4586672340595,691.3940096341075L972.4684849933815,691.5877713113952L972.6819907894659,694.8352661837155L972.6758128460399,694.9054301132225L972.6774026061478,694.9288586553467L972.8128078637035,696.92427809877L972.8768524884283,697.8680336506497L972.9361434458244,699.0810973783466L972.9368957717072,699.0914788801863L972.9371591957645,699.0951139224511L973.0101796214371,700.1027140234573L973.1849721367189,702.4277250464816L973.1853147428354,702.4322036852067L973.2715874525611,703.5599479215397L973.5080718971171,706.6508734440972L973.525193926969,706.8746429852742L973.5531410905871,707.2882731391884L973.553808399708,707.2990569814276L973.6601689474388,709.0178403478877L973.7171339124689,709.9383734855164L973.8255753470289,711.4074892640466L973.9170924873918,712.5715071885152L973.9462836834632,713.0518013247213L973.947965941168,713.0800945075447L973.9944122012806,713.7491890452399L974.0262770578554,714.208217154777L974.026875045774,714.28681868094L974.0268848693867,714.28811000479L974.1162953443404,715.4240965277204L974.1633198831622,716.0215258208564L974.2187504839472,716.778648813868L974.3387934845994,718.4182137814819L974.3771034813573,718.9414301062085L974.3771122518489,718.9415669529585L974.3813762872835,719.0080990327618L974.5437161392315,721.5410251210454L974.6280152131586,722.7849401810304L974.6281019950097,722.7862207049358L974.6478298600663,723.0773170143352L974.8513325398245,726.0799517745093L974.885230553371,726.5800794033221L974.9999999999999,728.1964252919769L974.0754456564966,728.2971702530921L964.558299766003,728.9204414062331L964.2948528140475,728.9366558048424L963.085195416636,729.0203909021195L962.8936246345121,729.033632640605L961.6266488134336,729.1265951111682L960.3340516846679,729.2212006149963L959.9148293385216,729.2518322204412L959.776946294417,729.2619015151687L959.5032564173971,729.2765270206678L958.6515908450881,729.3307927704288L958.1597569953917,729.362083821547L954.6848023175144,729.582179389453L954.6573601918692,729.5839106411372L950.6062486096755,729.8441167735233L947.8762689724177,730.0181423652249L947.7561788428652,730.0257731818974L947.7229721576524,730.0278290639772L947.7225870393935,730.0278529063814L946.523763637605,730.1019684959738L946.0839234173686,730.1276348927593L945.3895968176564,730.1680953320364L944.9557966174796,730.1963019464199L943.2059667821059,730.2983735356104L938.414518204554,730.5756317114115L933.7842473526721,730.8404484749294L926.7954277564576,731.2343592856473L925.2205522433633,731.3336910317178L924.7331527432005,731.3602429679382L922.319556931814,731.5108181295692L921.728143057165,731.5488527424853L921.3572149421249,731.5726821072858L919.868820401541,731.6498068210658L916.8021454291004,731.8465769898985L916.801490417658,731.8466188744499L910.5868978850317,732.2152832540635L908.2455388135982,732.3527475579772L906.3635689481248,732.4626729178111L906.3399170926048,732.4639015423206L905.8802673705654,732.4914100205918L903.5376006466878,732.6311417871609L901.2359729625115,732.7577993513094L891.9620255059897,733.3085417547928L889.635506531295,733.4447768887026L884.972414030618,733.7155084982187L884.2702041106123,733.7534500109853L884.2358099292087,733.7552010716305L883.8671614405102,733.7734320654441L877.981570441261,734.1111906125255L874.1067938918773,734.3308537332387L874.0925991650279,734.3316544988754L860.8099340527465,735.039006176339L859.423972813521,735.1038692036598L857.8910435787847,735.1752913552339L852.8794312887021,735.4367184906039L850.9112867914498,735.5363133703867L849.3094486004037,735.6169640152943L847.9510741154892,735.6850697573716L847.4902646178554,735.7015753986728L847.4655786115036,735.7024587683151L846.8163079974264,735.735590616026L846.3894536228308,735.7573399453964L845.8271120627996,735.7904643325527L845.6571934205147,735.8004644007603L844.6463492626564,735.8509322014395L844.0855351789314,735.8788687632001L841.7773202686549,735.9933785874656L841.281025499017,736.0179003545712L840.0352764131037,736.0774832672929L838.448155435435,736.1530730831897L837.1439152273776,736.2384244009105L835.3880074837407,736.2989549278319L835.3718446325098,736.3001551416535L834.812346305775,736.3416790507671L834.4075193723962,736.3651637229298L831.3569775639676,736.5141171776444L830.7734739852926,736.5410213535355L829.7092977784594,736.5899633872198L829.0551281624519,736.6199688703695L829.0440931079793,736.6205990248063L827.9283891031926,736.6842213125042L825.6199998653987,736.7767375853019L822.9076844312954,736.9341251689854L821.4512198193205,736.9979272052309L815.3707876781358,737.2610215116034L814.4772662997332,737.2956413609652L814.4694005512611,737.2959456176172L814.3014439688641,737.3032855544876L814.0591730003032,737.3140080704615L809.8342171826018,737.5001143984211L807.53985577839,737.6175061975612L806.4050873055359,737.6643755132067L802.917001263046,737.8466271043178L798.2443543402695,738.0880513184236L793.7715736127324,738.2758326377082L786.6701174448201,738.5681181117731L780.2817683157548,738.8249140652092L780.0252186166765,738.8095295884006L779.52236979697,738.8479571864366L779.1939528110876,738.8584092513732L778.8516350368996,738.8705328643251L778.6419904756856,738.8613795351366L774.7142889686004,739.0114160612018L774.7072535009136,739.0116828415506L772.7559471666805,739.1187455480099L770.5110672629755,739.2007236078872L768.2396598187033,739.2800227746667L762.9878106707633,739.4605619227568L762.9865488502601,739.4606048275841L762.6396528222037,739.4737178460737L761.9008452897186,739.5023402819924L754.1682220119169,739.7972475449828L749.6874505110873,739.9642381895843L749.5266075270656,739.9701793667097L747.8995188085969,740.0300731992788L745.1948445922878,740.1446254455976L745.1485837803833,740.1466005576078L734.335319644081,740.5999077072087L731.0982967776961,740.6988171354863L720.6301082383408,741.0084699697983L718.4374917005241,741.0713529593589L708.0759928883238,741.3592592121769L707.4291351436138,741.3680305349304L707.4159930037689,741.3684202886193L704.6769319385302,741.4491156023439L704.0872153874266,741.4663495155554L703.4883896084225,741.4917697741324L702.3928537164678,741.5646145004365L696.9873017230832,741.6920686956994L696.5869659913404,741.7549562192082L693.0534674208641,741.8043014623236L693.0395111856018,741.8046831677523L687.3340130408565,741.9584077963789L687.327871852543,741.9585707643632L686.2047389294692,741.9868197166594L682.9031876770578,742.0888771204859L682.7206076374906,742.0974732165034L682.69011613424,742.0981515697745L680.9815418641776,742.1359513806633L680.3643738168448,742.1573221481353L679.9318925001651,742.1722304847983L678.7354281059668,742.2133358119596L674.5454695736353,742.3227400070625L673.4970405430178,742.3573038314581L666.5175189033275,742.5465937513511L665.2751261327641,742.5656035789904L664.5378999727548,742.5835682149209L657.4822645602981,742.7515879552197L657.0181975567201,742.7588429858387L656.1051945903977,742.7803981676002L654.9685581068676,742.8070674248004L654.6724664026416,742.8103168091454L651.4554881942407,742.8711260640887L650.3649160201506,742.897004795419L644.574531127527,743.0315736776217L642.216359232722,743.0850109607723L637.6214314274298,743.1868618114656L631.8572557590636,743.3103832919842L626.4862207745616,743.4212266262853L626.4837338772195,743.4212769986116L623.6528210313644,743.4780469699233L622.6854511950161,743.4971849100198L621.08438702697,743.5292227792268L611.1794470551312,743.726800841965L611.1709537227243,743.7269063560072L609.8244192072276,743.74350485882L609.8242817863415,743.743507033483L602.8541963230755,743.8503528422916L600.4714226708454,743.8934598288365L600.3947523052765,743.8885274999444L598.0849414162917,743.928918127742L595.8003250512211,743.9643862727722L592.7048795865559,744.0112582998161L591.6493484999878,744.0083892590781L588.8244198444156,743.9999316280437L588.7868906008721,743.9998116322801L587.0801631133735,744.0364388249429L581.738539524681,744.130762315894L581.1079949809612,744.1416288358548L571.9387534486165,744.2616198054893L570.0522368067282,744.2484783957225L570.0451351732684,744.2668377306254L567.6365703423484,744.3140141795288L567.6346503458252,744.3140379282229L558.1401586585378,744.4250668680163L546.7624325758034,744.5412367293306L538.4489725122054,744.6144829055883L537.96870198524,744.6184141463534L537.3626852573645,744.624364828627L537.2086040129143,744.6258694790176L536.510369189307,744.6336693796937L527.9752797025069,744.7113968814197L525.9013828594545,744.7190367566243L523.5789163121299,744.7268666022919L523.4328101709292,744.7273335418424L519.5721856460524,744.7670609069505L519.555974716827,744.7671281828649L517.936394399006,744.7736611942245L515.650233469786,744.7822483860463L514.2054804045215,744.814326540596L511.8727468001772,744.7969648738139L504.9463189194327,744.8121278747849L497.9794359362264,744.8204998641282L497.8563565922555,744.8205910824537L496.96954475789124,744.8211846756744L489.93583139545586,744.7322942941584L488.74767415371394,744.7275285875899L488.49907632401556,744.7308729405328L481.301947368855,744.686975596124L472.56016116238237,744.6237529827405L472.5330207835463,744.6235397803912L462.62105653128475,744.5819521115623L450.80681592529476,744.5141387162637L450.3006691188218,744.4917815722572L444.7770057829671,744.4161498847241L440.8913135916659,744.4152482908493L440.6639568196772,744.4180242034533L440.18485228399487,744.4140667303002L438.34322865880966,744.3979579863942L430.9643981954804,744.3285787904922L429.61197559238434,744.3200525595958L429.5389167116631,744.3120083291288L416.032121158165,744.1482607044243L414.96657129053045,744.134238786101L414.2069514283857,744.122907299843L412.49546189791903,744.0970757802172L410.48893478815205,744.066260833143L407.88113293644426,744.0948628799389L398.2529532546209,743.9387261502471L397.6682430229772,743.9304369449208L386.65768005922627,743.7546906290552L382.4720959662419,743.6833594773598L378.7091942938375,743.6205388783965L366.17686567511714,743.3083633971528L363.45053269927087,743.3229039082023L362.1258127168419,743.3295876214679L355.8272769745158,743.2261547262826L352.2259709952859,743.1297155948912L350.1692333930431,743.0960279388974L350.1694331372227,743.0862483130165L349.8788105450212,743.0790233706552L349.6959807041926,743.0747980577903L349.1222717460349,743.0614143951661L344.955392533659,742.9881616088859L342.7847536754708,742.9490240815741L334.16462726191185,742.7356866370451L331.18728655365635,742.6782136403189L330.0364661102039,742.5563924958452L321.72529013134516,742.3007581303887L315.1224947483736,742.0906611878338L315.11192250571366,742.0903198087983L315.04012106594007,742.087853207855L313.60670133923884,742.0368299516717L308.1510843776214,741.839219124486L302.1664316753121,741.6175702487174L298.39174125124407,741.5147842985467L286.83264553809295,741.1874148016676L286.0541050690639,741.1535458290341L285.8906865764661,741.1475924013405L285.48848887262585,741.1324792639952L274.76738993775075,740.7480157508734L271.4098268776876,740.6242459725792L270.2870383790492,740.5910691908086L262.2168930472772,740.3473282278537L261.59928208100257,740.3343358418902L261.4228020735986,740.3129434145767L260.408688158081,740.2876916249287L258.5656321126622,740.2359077173436L251.66514100674442,740.0377328891034L230.63831792019488,739.3920739112409L215.6236922327705,738.8925099101704L215.54477972003366,738.8788416883596L215.48560219013802,738.8685911022814L210.53898025572198,738.7285888893725L210.52825381541868,738.7244660318261L205.61847666698526,738.5848903598248L205.16335538323693,738.5804797829974L205.16282044404534,738.5804745815722L199.78879674962866,738.3973066493286L199.7591379692147,738.396284351352L192.87096842034111,738.1968522321185L192.21149818879883,738.1774044871586L189.3509773807791,738.0062526907225L189.01373255199582,738.0004907582602L188.25086826180586,737.9873973032861L183.05261158791615,737.7732780571278L182.0086368972353,737.7280029104982L177.4363205482398,737.5872908655883L176.71518176848667,737.5648262903923L175.10268652587405,737.4931222768979L172.10692662422355,737.358923713365L170.50197270215347,737.2627468002751L170.4945458917619,737.2623008930733L170.45302760055733,737.2899211980744L165.22116075138456,737.1127307444116L165.20873390133346,737.1123052381191L163.58924077823048,737.0407008304871L158.6932734890202,736.8219566920869L156.63020438913765,736.7020832547174L155.97927474172604,736.6749882774955L151.391744482842,736.4823199451197L149.74651507258272,736.4091765174701L149.7092923668974,736.4075172113085L146.72753109203427,736.2814697567518L131.19353793089812,735.6043090872677L131.01092223282006,735.6077241933697L130.75405251094355,735.5961758074634L122.01922909264067,735.1978763424593L112.47943919948437,734.7504440291889L112.23913205332872,734.7436575380372L112.05323642824897,734.7344160293111L109.87263572403822,734.6256428793164L107.46070193347612,734.5066495986616L105.3088659599876,734.3997879808646L105.16314169249137,734.3984707879893L96.1705949907323,733.9522032372308L91.85717433844087,733.7171444488217L87.2323311506488,733.4721688774714L87.22960700772654,733.4720309683589L82.12305097286054,733.2116518092812L81.45821931454543,733.177478896846L81.30468565901356,733.1777772152916L77.35252303828469,732.9675407608006L68.25272070154335,732.4749994320655L66.3899817196243,732.3727185009197L52.54659968092244,731.5970754145867L47.92898524334032,731.3322658891191L45.602085884742564,731.1976699147767L43.28990553468145,731.0631594873008L42.847077157778074,731.0373109641305L42.09757218152299,730.9934898145592L38.65809702454163,730.7913659356979L30.321796968352942,730.2944653753965L30.322039798273806,730.2907868150726L26.774772825276102,730.0793356273882L26.774405017044955,730.0793136092939L25.000000000000057,729.9785660624683L25.35620180482374,724.9066388296261L25.42116596786161,723.9373370928516L25.43951985333763,723.718084360442L25.48515036717123,723.3648068985183L25.470648771975164,723.2536836557772L26.224872890476604,711.8319491168963L26.30483477980124,710.9672647816055L26.407853264338144,708.880628392405L26.40237710427516,708.8802630080307L26.42214915365855,708.6097639923805L26.597509416248954,706.2105132500594L27.84173125094486,687.6288635376795L28.299477868645567,681.3336449605001L28.40589885851267,679.4444126183738L28.844105634147695,672.5687339515538L28.83172363219154,672.5349308533182L29.13898985266553,669.0019998395869L29.281597395545987,666.7433064528135L29.489914530520593,663.443638600458L29.754321997791294,659.4869908387848L29.74466642524004,659.4679521267984L30.106080319938144,653.9529560053485L30.495619784472865,648.1307304000329L30.775848582413687,643.4830881901876L30.853355766152504,642.5414000209372L31.03177221946578,639.87027066277L31.59452445418748,631.9382398119598L31.983761161621715,626.1498159133473L32.09210376380554,624.5266454100224L32.196247028419975,622.7480483933913L32.36726615632551,620.4044984670427L32.78817053303305,613.5014488340499L32.9287155114485,611.1714159736031L33.13589389545393,607.7365418239464L33.373677148401725,603.1930523663008L33.49385419506905,600.8453367823288L33.701256742437465,597.5739262286834L34.13963041141733,590.6265767300079L34.563176531482895,583.3161530644604L34.6746602005328,581.3918800781875L34.69550540825651,581.0800766669558L35.683350164922615,564.8981337545611L35.8316385405368,562.4686039365042L36.58943439281035,551.7900649195394L36.67394119120945,549.8881165383975L36.8920924946849,547.2383802572979L37.241047876638106,541.8945029350584L38.00958336766536,530.1219792984813L38.125644205873016,528.1619128501002L38.18497211886836,527.1599502217364L38.18562629348037,527.14890209381L38.635949799256935,520.2752199755707L39.34986235305007,508.888335286122L39.74030663476299,503.93926759582314L39.719792303874044,503.3232525768869L40.0270795472249,497.9608552664487L40.57549302588603,489.7999010207067L40.57704781548455,489.77830731677534L40.78622283490324,486.90183662892525L40.9815423710985,483.74613636646103L41.14166952693256,481.3924776764863L41.37775118363015,477.78722812763084L41.71844977241045,472.4994997491895L41.71926742011465,472.4868086593466L42.31248598304995,463.92660851413694L42.36458426451145,463.0873903984276L42.36032153668265,463.04362397739243L42.484260744741675,461.2328619249408L42.499766054918496,460.94455362404125L42.586784947555145,459.5255294590712L43.15803443678453,450.5904557753294L43.18120848992328,450.40411605168686L43.32221253277419,448.11678555840246L43.45211369045592,446.01021242493715L43.63267186903488,443.4932678039531L43.77095338189264,441.30253319171686L46.05299648266282,404.59380491581237L46.325687219546865,400.1070371792176L46.841218607095925,391.6237155724921L46.870269494650756,391.08305430531266L46.90292711968857,390.4752728742757L47.69200141082274,377.420350982287L48.476348787492725,364.4409995004962L49.143712514929064,353.3921885564266L49.33682680704737,350.2075007606845L49.42728586425517,348.71566505744636L49.553613973426366,346.428604880203L49.60661618892391,345.6274570911837L50.423911612841835,332.6736097879228L50.73912464922739,327.9069381023674L50.776557148033305,327.55778965170833L51.05264861185549,322.9875663415217L51.10812404019799,322.0692265921408L51.27852346063486,319.2145439111773L51.77529405295684,310.82505798432555L51.89400937979525,309.61590516423615L52.05867166319001,306.2129520738006L52.70291650093611,295.8841966031394L53.453534740084365,283.84701591725786L53.592912131895275,281.61522422764045L53.6918412179831,280.0318363934446L53.73222613477782,279.04338123724193L53.830244339928186,277.5357003334494L55.032369357673645,259.03925359769244Z"></path></svg>