<svg id="MA" width="1000" height="1000"><path class="state" d="M897.120819402494,774.6088355876177L897.9474217758686,774.3925260878127L900.1327847770009,775.1696130453934L901.4435173094985,775.6355012645336L902.4669033967855,776.1102075543461L903.1322774308842,776.4187944512952L904.0702796588666,777.8009620076722L904.0978681498684,777.7968487315338L904.3883861627405,777.7535309584838L905.5698695198055,777.5773033341547L906.7496868180197,777.4012245699419L907.0686372806939,777.1846976587328L908.8224680563268,775.9938492100297L909.2641978361307,774.0351718793103L909.3315982028148,773.736268332052L908.1994371473264,772.2965266381306L908.1663083193331,772.3162489397996L908.1501512353798,772.3258675549952L906.5000206690211,773.3080716257653L906.0758601482611,773.2439330448053L905.0843045889337,773.0939465019585L905.5262435390182,772.1636657336859L905.9073078464959,771.7591195958825L906.2885155322876,771.3543925416684L907.2445090452086,770.3392908059218L908.774503547038,770.1014203432776L908.9406354958089,770.1717161437921L909.7096062590692,770.497060392323L910.5267631148135,770.8427337717483L910.6347493332948,770.8410171516266L916.9600926465484,770.7390569128177L925.3584203443293,770.5994017718151L927.3700808969397,770.5652252118526L927.8010785366716,770.492442117675L931.3502500482639,769.8925789661591L932.7276780242173,769.1504856627016L932.8079850218419,769.1443389154899L935.3444689341893,768.9499632507273L935.9843058737313,768.9008603883331L936.0269980148694,768.897583058083L938.722429983797,768.3267813162845L939.9981811841443,767.4284945117543L943.7453713078942,764.7888322802239L943.8620898397628,764.7065831405482L944.152379516881,764.3831384922157L948.145466419806,759.932181131745L951.7225941065476,753.7859850169059L951.907093492088,753.4688358895543L952.039893705374,752.8338907265952L953.5138733374287,745.7829757912477L953.5242206979885,742.9180816786906L951.7466186809854,740.6621698442152L950.5511021954653,739.2949749482098L948.6740493018285,738.4442799928247L947.5569185460267,737.7427905449274L946.4382133408042,736.2374073234862L946.5311686003627,734.8718110128675L947.6335571625884,735.3840022671328L948.2546179902919,735.6725091018935L949.7580244730657,737.5029157485174L949.7581789574156,737.503103807355L950.1784390390894,737.9677986445066L954.5006635635405,742.7449363239731L966.7941303112584,765.4072563805255L967.4791173171576,766.6680761736118L969.3763944238381,770.1592425590147L971.7573754180798,774.5382830506016L971.9572217200073,779.6210091429016L971.0058051474155,782.9419363337547L969.9927976558549,784.5569232863259L969.3423239846366,785.1549450285335L968.1887925765552,786.2152880489475L965.5165030709485,787.1995650837357L965.4872401133321,787.2103401064777L964.6316440474479,787.5253505180068L961.0932590552839,788.8274477892883L957.4443235865562,789.6496540267106L951.5204232907968,788.5943186093671L947.141220739135,787.8125253650428L940.4078430283519,787.8084722501694L938.9625097920527,787.8071935535111L936.575948722425,788.4053579871705L935.1295416659955,789.2303503852158L934.6824489996543,789.3804666219828L934.426205336345,789.4664958823422L933.4426001682792,789.368553638823L929.975954252583,789.0228205704518L929.5064650384722,788.9759328014751L917.4240885337006,784.7122216130749L915.4084664224181,783.999751627778L908.486584461453,780.7164348287597L903.8025634874488,778.4920537833196L901.4620991212505,777.3798202586552L897.8840895090984,775.096177886252ZM886.0585804510179,765.8200161822292L886.2146133650028,765.5369548371968L886.295402331588,765.5467234765697L887.202271807899,765.6563462810926L887.7228555082654,765.5103076656964L888.6736954153757,765.4997501819685L889.2453842064072,765.4178273721034L889.6867908652935,765.3866395648446L889.9010495212431,765.3714961154564L892.4796360098842,766.3056793361845L894.3690028923945,767.1316811276669L895.4053390621652,768.1066295895597L895.6301070502708,768.9741516332422L895.6681190699449,769.2167044898962L895.6942300932513,769.3833143906231L895.9380631012804,769.8300623772838L896.1569338514684,770.2310530676843L896.2899056275223,770.7928182511298L895.954562531156,771.1142279963447L895.5852023026247,771.3874784174336L895.3833369169765,771.7871513535233L895.4031432786983,771.8745126171189L895.5903299630652,772.7001106527227L895.5717130744733,773.1927747936943L895.1563266119617,773.5821426976729L894.2495056420837,773.4279172237634L892.9129041994495,771.914796142813L892.8924725090237,771.8916632147798L891.9545026068835,771.2295999070424L890.9436858497452,770.8812578978348L890.4184602588664,770.3055660508983L888.4748152271698,768.8844407869926L887.2238554066093,767.5747365198031L886.24152126741,766.487249423601ZM877.2174604315293,757.378680580823L877.2703869777722,756.9042924642906L877.4871840748438,756.3153258279267L878.4979365027466,756.0230394551188L880.419084032045,756.2344603878116L881.8105111648202,756.1571724332051L882.4460405597614,756.6645870647374L882.5651063172241,757.1276915319417L882.1658531318935,757.6261423090541L880.653726927081,757.7534457014897L879.0417489065251,758.0952649563444L878.3037172364683,758.1612308265903L877.8364711898707,758.2029739275353L877.2110830724187,757.4358396799764ZM793.836710783396,295.76745613716093L795.1602146205139,294.4076539458724L795.6079707922158,294.49423233643483L795.5986489312068,295.6034180653262L795.0569405188091,296.297132404191L794.2586742363171,296.28111824450605ZM790.8254913221793,298.14152353077947L791.806443512006,297.73273754763795L792.1972619809849,298.59113020730445L792.0589063470264,298.8758577788866L791.893771915471,299.21567994318934L790.9551734224924,298.8505073598569L790.7880544135536,298.15712264140836ZM790.1136877844813,287.08103819800533L790.8225930653432,286.75683130015676L791.6162110128494,286.2628506497035L792.05109645306,286.5201320604585L791.4003631510175,287.2322760973509L791.228214147925,287.6721060860425L791.1446224015349,287.8856685416681L790.3310582550504,287.67502108178786ZM757.1048205376653,320.59022618962933L757.5945534057985,319.9510897954018L757.7485838185812,320.0451314899112L757.796845719847,320.31953808013577L757.7855895321277,320.4884559547696L757.6286126285897,320.71910282450824L757.6623209908023,320.93107439248087L757.7019055959483,321.0840988982915L757.623037080542,321.1739139150389L757.5433297564973,321.2215709612153L757.5086529712851,321.3154690344904L757.1756819410518,321.17535707727313L756.9594043111633,320.9964205410609ZM741.5722026254164,326.0984055337071L741.8297969181683,325.9393950854881L742.0560338156108,325.82102073460777L742.1695797938372,325.8472442142323L742.2517653931736,325.94139961420007L742.1568756031952,326.04667853571885L742.1390169113618,326.19410746545077L742.0902703926517,326.35133233283705L742.0812433404742,326.45464527126455L741.994438505827,326.57359603108074L741.8385251750732,326.72503418371014L741.6541251421354,326.59663681775584L741.4984532463423,326.46840838536764ZM740.2055891144832,333.0202112796892L740.2260274039136,332.3927176864565L740.3289514196779,332.01467840577783L740.641344219983,331.84613862992717L741.0197078906602,331.9514466696927L741.3011428063937,332.1670347644333L741.7043696599991,332.46931635442553L741.8034102176775,332.77800336491924L741.9129867738734,333.0911032198198L741.7112773221575,333.2561846919951L741.5831743885078,333.404287152156L741.3928126507116,333.53405624330765L741.2266545019236,333.51943945525466L741.1263538043918,333.72976700618847L741.0508879079472,333.9970619054162L740.8251483174627,334.13564005233616L740.6335260694866,334.11475564652693L740.5475809543278,334.1938981255152L740.5089611319247,334.22946074394L740.2557700016607,334.1150639892581L740.0573776021915,333.7585748037496ZM736.5881412295448,327.24998445172577L736.3935182052721,326.86118660553717L736.4769872784682,326.68597501098986L736.7461209226451,326.7675120997709L736.9877387079764,326.9711261570328L737.2242579272593,326.9118306518693L737.4355321932017,327.02703047527814L737.5491405143257,327.3538642896814L737.6423855466198,327.48258199260454L737.8712611860501,327.5180548545326L737.9916901198771,327.22411616864576L738.1491463272683,326.92772167343253L738.4648939481369,327.1427009689844L738.397832279368,327.4555049683355L738.2705925178677,327.62090797703087L738.3720361959308,327.8253237368871L738.6506308003336,327.7815296373775L738.9170904441655,327.95629982273357L738.9450311517717,328.2801115175149L738.8036911354313,328.26252799479977L738.5315984300938,328.2349588140345L738.307120270413,328.4237877530969L738.1788678854555,328.53497980478545L738.1563273361573,328.64350775782697L737.9930858998875,328.6844528297173L737.352706990026,328.4265262104129L737.0255009598268,328.298922618657L736.6281553349475,328.43242022509907L736.2634334671056,328.03893626744366ZM742.4505293860486,716.1164784930916L743.6572140598797,715.8392826220219L743.8039991971973,714.8970549245248L743.5183521350069,713.8432656555844L743.8352621864829,712.9763481389552L744.7294139247297,712.41164171567L746.3094982509687,712.2092902776628L747.2064926007969,711.2455613088855L747.7167563645415,709.5344091915063L748.4752757813734,709.064421328116L749.6419646203651,709.361013485996L750.8040712720651,709.328962725454L751.870050630361,707.631872182061L752.1296670976792,706.4946528933176L752.740693297801,705.4652889509246L754.4118548925267,705.330125620086L755.6150749827852,704.2652719476271L756.2275698398446,704.2426785018204L757.4950817657384,702.6356060036778L758.2425095400174,701.0275494498517L759.2398939359932,700.6261483311911L760.7707462126825,699.4131839591024L761.4632470647548,699.5706060329717L762.7707950590586,699.761979229657L763.7449992806104,698.8661113611461L764.8921565992077,697.5379863064109L765.7501198414813,696.2317161419246L766.6917966306048,695.2851990322481L768.0007889399569,694.0245382735366L768.7933243397922,693.6391946701367L770.0580562705807,693.7219449588199L770.5518950160908,692.9478707924931L771.1947123813408,693.2528832760793L770.6478136560436,694.5380219790311L770.9298109085738,695.8696338850418L772.2641203110762,695.7149385333005L772.9112967734134,696.2112771517286L774.1860758160146,696.2487343620057L775.381279476017,695.5232952420356L776.5681562399395,694.4160950759729L776.9543331360198,694.5988009347327L777.4210045856105,695.6082989111732L777.5604649822603,696.1787154258941L776.9050017584647,697.1200246807533L775.7632177019208,698.0334825873329L774.7027324744437,698.2705370378123L773.551196496433,699.0598486221841L772.5073495505713,698.2577604604433L771.378142531999,699.1090709972005L770.2993390389931,699.3221986306237L768.9801635244532,700.2409153866838L769.2595264475456,701.4457470643422L769.6829743778753,701.9017459692072L768.2726256795324,703.0589054260367L767.6574340138641,704.1548377456681L766.2648997534392,704.6288706493895L764.981967306222,705.0501104339037L764.059093622548,705.0137555780586L761.759502634064,705.6109974541496L760.3950802412921,707.258069407618L758.3825224922459,708.9281253944903L756.8470265580318,708.6390485097879L755.8249562603182,708.5314118609025L755.0112651864879,709.3121565380693L754.7197527706602,710.7204255407717L755.7555248476833,711.5292323928352L756.1884722041457,712.7886113852969L755.553454203131,714.2749247650743L754.7647215716546,714.9765131766235L753.347683961519,715.213199734289L752.9763433420653,716.2379020558031L750.7164985355104,716.2884941909634L749.6140217457703,717.6592811514506L748.5863896398746,718.9537802242581L747.0122445920806,720.3433558820542L745.4856369697038,720.2794656711137L744.4385009191046,720.5230863533316L743.0145669534766,719.0404382972442L742.601433938598,717.3894618580624ZM732.9931368028804,340.03990192450743L733.1296309983638,339.9860171072661L733.24630078297,340.0207768645463L733.5143165211123,340.2151804719839L733.5662776146213,340.471653122803L733.7343930026631,340.8203337824127L734.0403512560636,340.843493027645L734.2974834967392,340.8980278800102L734.3458685711727,341.3017165350009L734.2778468129716,341.5422947044704L734.2545828517834,341.56144563071393L734.1637642938708,341.63620682163395L733.6193709143101,341.27982284670486L733.3615395436941,340.7834895028291L733.0052733829828,340.5367843105215L732.8046479725807,340.23903474470785ZM737.0412857318811,787.5631266983742L737.6346093986701,787.461698255817L739.2430709833479,787.531655208483L740.3733165628448,787.2987690006685L741.0105269253527,786.7221739329188L741.3387718315723,786.6526897620531L741.8443871195855,786.4770018314797L742.1774426020908,785.8169678489611L742.4176186024915,785.5485549584024L742.4511503250685,786.068429823194L743.0804567561809,787.0200332466816L744.9484602080967,787.5778304156906L745.2646277082201,787.8022791101566L744.7709424269456,789.6585729523688L744.8460883478874,790.746360010746L744.6028379131441,791.0260276915576L744.1432977293971,791.103755735102L743.2547747503271,791.1908000630494L742.7977625982335,791.0248395993074L742.4498063615104,791.0836028169886L742.2099206847179,790.8576753252864L742.0058564527759,790.6727054816753L741.6385101653184,790.6442669691017L741.0649601451923,790.6970732089476L739.9958361180813,790.5522244502533L738.8487125165082,790.1199136968148L738.060813932578,789.2487588498868L737.4181514058203,788.7103877570974L736.9693269249851,787.9708567946444ZM728.2831770670928,350.8265985631743L728.7737969667608,350.10430227054184L729.1237110424609,350.8953377891973L728.9312069038983,351.8641678682826L728.2988330210499,351.70766055472245ZM734.1712254872834,664.7302631604541L734.8103716777662,663.3263570997406L734.8766589463643,663.4079615328982L737.0823529525596,666.1227340153101L737.9060231738417,670.0042044592377L737.6720734893254,671.7364866151715L735.4690341853001,670.8664297555897L733.1616808852048,666.9472366093772ZM735.9626885865366,753.9164278534743L736.1565591399692,753.90943209774L739.7132995191507,753.7806253792463L741.7277300476437,752.9664817271791L742.8614422899316,752.9399307311182L744.9732126015056,753.6037486276625L749.4307011375977,755.5888881711801L749.5850609778706,755.6575996156614L751.8129997410895,755.13259768135L753.4185651084297,753.6432060827434L753.5138887915956,753.4658214150688L753.5746108848332,753.3528234766361L756.0841511571045,748.681301767228L758.5943895429583,745.679746456508L759.6651435456233,745.1578723663062L760.8681737955247,742.915881683213L761.7332676897581,739.7640771149147L763.0644251908134,737.4910157227064L763.7725192570524,737.5016865713112L765.0691748239497,737.0409366722488L766.2791310964236,734.966817593406L768.2034473483568,733.4285425395921L768.2209848713367,733.2250450814988L768.4078333659459,731.0565924829489L768.9469282724381,729.8990907011195L769.7050312222154,729.691380948961L769.8946921046308,727.9592792514097L771.0110731096358,725.4644988061491L771.0996804711544,724.3577969612501L771.902976142835,723.775888550631L772.5647685295123,723.9697076039633L774.0419034533181,723.2836101264259L774.825359964447,721.6583765309979L775.5499807013355,721.4270897309468L776.8772428165397,721.8794396760811L778.8484581676321,721.205873772461L779.4359649047083,719.4710437479714L780.3771715385126,718.0475286736084L780.5625105292645,716.2059455823144L781.9856426275471,714.5821544572564L782.9405200967433,714.5135835179149L784.7511517103597,714.3833846804148L786.6673010561929,713.8954969515785L789.1537978964607,712.0891691341635L789.29999450633,711.9829390582784L792.505033632149,709.3736425214634L796.8589934049835,706.4880893812351L798.2388898850186,706.8988029194206L798.8928803208627,710.1944024609177L799.0461799226874,711.3284536448487L798.2746383946935,713.3134636284486L798.0210368149818,713.9658155948168L798.0437505789932,714.9858061212533L798.2605666533486,716.1293362495069L798.6352974392387,716.3562798134112L798.9717150738552,716.5600070279406L800.1688299621708,715.8951137072445L800.5968100775583,715.2055217612215L801.0921278015128,714.4073462973558L801.12796911943,714.3993417705383L802.3614394364088,714.123809289553L804.6685454639353,711.369658984147L806.6539336772805,710.2685288376931L807.7639242333769,710.9881766858025L809.3011666904972,714.1142258857585L810.5800676676442,716.7139954240724L810.5968366146958,717.0537900754541L810.7488642464732,720.1340193016567L810.1426153731961,724.6292261657541L810.8688807218465,727.0946509878022L812.2409661998267,729.6349785253262L812.4206979859534,729.9676787443698L814.9638513356141,732.2691077966997L817.6090500377821,733.6904458122106L820.5738099212294,734.0970134663769L820.6508121308566,734.1290007904289L822.9461562597162,735.0822628626795L823.450998115138,735.2918621246063L823.5152751230822,735.4351685488011L824.7608241906291,738.2116443800596L824.8942050775195,739.1287476952908L825.1043213703858,740.5733030520734L825.7440465198655,740.9348301391549L827.9537901565827,741.1339046405747L829.6112932013956,740.141771116505L831.2029604597606,738.020588548062L832.9672134414029,736.5084842128182L832.695049206397,735.4661076142323L832.4943343693969,732.0212383385569L833.0613408447214,730.5319814662232L834.8731041602135,728.2410277542566L837.8959217741037,727.347184627426L838.4570520830441,727.5935593220104L839.8020194908396,736.2379549187693L839.1310304720735,742.0088542252938L839.6421003752436,751.590795544317L838.6056354402026,752.9871480530894L835.6554548303995,753.9027308580108L830.5006248703214,753.6992979974264L827.120552505274,754.1013667500122L822.602929473288,754.0087266548105L818.033650647547,753.9135878331454L815.471522127654,753.8596072458772L804.4709502712526,753.7371553871894L799.1001259686582,754.121360237457L797.0587726282065,754.2928836031957L785.7647979483738,755.236581223832L785.1232969503278,755.3044478802872L774.4050703352946,756.4340784040158L769.3897536779825,757.459092901144L763.1265318922729,759.5549422499724L760.6661971537254,760.8323065674032L759.3261992274464,761.8788022366913L759.118924844175,763.0103278819404L757.6017631225393,763.7260403290821L754.9239997382283,765.9959305845512L753.9401839089169,768.4338863081609L754.4585817698143,769.4985461729575L753.8159171047275,771.3969498911263L751.955450701958,772.407791440712L745.3468818036479,768.180745128541L744.7534240076932,767.8009053725714L740.0026850589497,763.2255686117874L736.3531658778322,758.3918645279075L734.6641190684933,756.1535766496527ZM733.5608849062988,718.3186688356341L734.1238535795703,717.1853984072386L735.6389134376384,716.4640375132569L736.703175802212,716.8828115521901L738.2828722898117,716.8345842048485L738.8309891446463,716.2073575654614L739.9804320016732,717.0547269791048L741.0828957339302,718.0550661346595L742.1916445487097,719.3742854328091L741.763915709163,720.4030512584657L742.2845565264134,720.967511563503L741.7395471048188,721.459169468106L740.5568124994452,720.6801207690753L738.302804065323,720.942074270407L736.1859673019876,722.4184025689431L734.5714809209427,722.2063138526842L733.265683016134,719.6634746316596ZM716.6692107112463,402.09993261333614L717.1275328759476,401.74416090690784L717.4835747360326,401.44124884190796L717.8937059664402,401.279457173936L718.1687220516072,401.22968310808704L718.2755211773799,401.0737466630385L718.5831402688012,400.99677644656003L718.7894639389772,400.9364418963735L719.1166008284183,400.9422238394908L719.0087942919943,401.2846190578304L718.783920761132,401.6119670873295L718.5809047026706,401.80541613804036L718.3068283404856,401.8338755045897L717.8410396781051,401.88760419219784L717.522648870997,401.91893163224006L717.3818238835003,401.849229816338L717.1074909378966,402.0797345286105L716.8533711798215,402.18666525171903L716.6422933159203,402.2623237109964ZM714.4738468793773,402.71749242537163L715.2944141521701,402.4199830159192L715.9117264842419,402.3062558995173L716.3022350825881,402.5191393053622L715.9980546625052,402.8339398735404L715.5867700871742,402.9310676284898L715.0573213543588,402.9012554017943L714.6720095441738,402.9979206303769L714.4653095265955,402.9758136819566ZM714.3940347854864,406.43434669653516L714.7050518053824,406.4110250890016L715.2682669107185,406.2392675602635L715.3178837341763,406.39505984057956L715.2234846117155,406.6527175646251L714.7992882628063,406.70707179284494L714.4912468097253,406.84577415505413L714.3447479737506,406.5644503145728ZM712.7198575286825,402.2460279263185L713.0159043135934,401.1551560344137L713.4350038347557,400.9464715663871L713.7050518547463,401.4792525657391L713.7173181361957,402.21414380734274L713.5811945951393,402.7242432492125L713.1747208252136,402.8744893750493L713.0007570617826,402.5162218112962ZM712.7650119052711,405.4681436794818L713.0661504571196,404.9471032902141L713.1098636802678,404.4818463078088L713.3762078489588,404.2064371390586L713.7492605104001,404.0649068596106L713.8906228369934,404.103742708274L713.919207681638,404.2747980591637L713.6487657267868,404.5243609933697L713.4815765637395,405.1884318615559L713.3891448858267,405.7546640670857L713.0028876803331,405.79980762639747L712.9218536793377,405.64772910337126L712.7304989075861,405.71377261588424ZM716.4291977496712,727.609554503438L716.7301129515342,726.5197443411579L717.4026725579154,725.1938539400152L719.1428972441427,725.7775132826744L721.0162490861325,725.5711859254388L722.4614705017342,725.785188671314L722.9403742081885,723.841371063239L725.0206992115835,723.3076223249271L726.2096287697684,722.2149625707149L727.3758289077159,722.1274462239423L728.1212018328857,720.9660758771656L729.0893581160605,719.3363810035637L729.7616400011655,719.9165199366275L729.6576450043685,721.2579489494235L729.4931083252172,722.792071601315L730.7978528848568,724.4283321370438L731.3117287446202,724.6108805318886L731.4906175609071,725.528481260636L730.1322736633535,727.1063557253326L729.0558780544221,728.0223729309172L727.7601621702502,728.7200796695844L725.4763482223544,729.4866613362726L723.3746029397734,729.6512776886157L721.9387093867839,729.757381817293L720.5984817142391,729.3742608493274L718.8097655089156,729.6926664423336L717.2479107366762,729.8971184559193L716.1300848232506,728.8272215377835ZM710.7516815490156,719.1156220866243L711.2456102408862,718.1644775919528L712.0096721152024,718.0850925095555L712.9004609205472,718.8632959695618L713.4469815779397,718.8049349259968L713.5061591689991,719.3206537153802L712.1317906219482,720.1111852997228L711.9235595146524,721.3664287220871L710.6661999358128,719.885780406991ZM701.2268566090993,407.19801587726397L701.7804975940469,406.8415523132973L703.1129281657629,407.2625537293662L703.5468914073444,406.88598657353725L703.6763076571633,406.77368119174065L703.9509998964598,406.53529882995275L703.8282380611248,405.2455770694503L704.3404051693991,404.3413561464597L706.4781133205114,407.27635490349695L706.1982258042303,408.24471006101373L706.0245941502685,408.84538143060405L705.7377027449631,409.8377701072522L705.7924137610045,410.54336397452L705.0711254543824,410.5549761188352L704.3505998378923,409.9257740318202L704.2965499268579,409.0109749786405L703.9973927838031,408.7436437761148L702.9666648650409,407.82245918568003L702.9514780834096,407.8088851325198L701.9829392849512,408.1496128569522L701.3172013554363,407.6309533367544ZM699.1781657603208,420.4164385187934L699.8086379045881,419.7276190278668L701.6409190219421,419.49374957242736L703.1808792597288,417.9384461005293L703.2617373372775,415.9555600717358L704.8084943394897,415.49742334067486L705.6014011171115,416.16496483803763L705.5462227538239,416.94811347250294L704.6756341565122,417.8122346551771L703.3090962283186,419.56921837238787L702.8177044657539,422.06796517005216L701.4289587538663,421.1640876205431L699.7405071392361,421.75061800559ZM704.5772662243191,732.0910564665162L706.1652110976357,732.3725420124092L706.8407746186622,730.7016353640147L706.7147438400326,729.9214010103733L707.7929925823469,728.6402549779647L709.1066814086312,728.6865203525567L709.5964985071688,727.4021926630757L710.3145461341131,726.2563800444802L711.5012730450119,726.7969090020043L712.4238098474118,728.5690391938028L713.8360699850348,729.0566651923579L715.5642360368572,729.3473244328027L715.7386295011138,729.8562602134141L714.0453215831276,730.1384709558736L712.7573573342365,729.4572016603843L711.4786409197669,729.5854819970408L710.4701672371671,731.146622607997L709.8053239535996,732.4418098075625L708.6758414847404,732.9987031312573L707.3313853202117,733.4393076154462L705.9808470067834,733.8909911276396L704.7302648825582,734.5021686500716L704.0138425709249,733.6193769916904ZM697.2143547974407,412.65862177624444L698.192785063917,412.1674258856464L698.9374916918898,411.9519106109476L699.7283183201104,412.51744281713775L699.4271700100263,412.82800320103297L698.7136501146047,412.8732690327423L698.2308174308469,413.70745212202786L698.2171575700363,413.7310506380124L697.2923986234072,413.30354349612963ZM692.1403437464443,412.50769568901904L693.9597874751885,411.0765983133918L694.6711346521689,408.7037323930094L697.3209068283285,405.5495053604845L698.498091040617,405.8983958246729L698.2799884351747,406.86284434400875L697.1852652263518,407.8041495714233L696.8711741420436,408.07418835375654L695.7487969635494,410.23325868432465L695.1985836280629,412.04363712118135L694.351410029978,412.22678065426965L693.7832837048342,412.88159378246354L692.97337816206,413.23956362819536L692.1994134637929,413.23320466502344ZM688.9670985510122,406.869017976634L690.2578521753439,406.81558012013875L690.5703195380805,407.2526937364986L690.3636589503194,409.3296251895511L689.9355536708076,410.25384357248277L689.1172097632746,410.0959667592616L689.0594671056053,408.49924820054616L688.3322265410718,407.59235408196645ZM25,487.3166752273192L28.233249758543764,476.7781611427382L32.40236885503214,463.17098513606595L34.47905740295846,456.3853804536898L39.163622809071455,441.0596138524074L44.154343867632235,424.7033182534918L47.51140582092279,413.6842120364592L47.60332784782037,413.38229886290475L52.56354946590233,397.0755273089346L53.17507658728209,395.0630585029592L53.56177796169982,393.79023180059477L56.47773216988321,384.18650836952247L59.11815089598173,375.4813064628058L59.95166807047184,372.731509920539L61.43614618251195,367.83206523301357L61.86074952120629,366.4301859536218L70.42211711130443,338.11639326765095L71.93722012691234,333.1446536430884L73.56211216763575,327.80953126004096L81.93594126497209,300.2638070613044L83.52855477937067,295.01512687093873L92.94343755400018,263.92277428259865L93.22576706246701,262.98868429472753L95.56768399676395,255.23658239279345L109.0017530288892,255.9588924486951L121.87914647489652,256.6391700117445L127.35118208174936,256.9246568932215L141.00551133718477,257.6277047818163L151.74280715095983,258.17120670473105L158.39137530577074,258.50361830763677L159.49658406518847,258.5607299223091L182.441303736747,259.72669547498174L183.2386602926224,259.76653834441845L194.7654495742271,260.3374462234999L199.56671902614983,260.5724491136834L201.29127522361017,260.65645755970263L213.89649522227438,261.264050361708L218.57904050455738,261.528087402172L221.64802163576528,261.7002895248835L245.818099903024,263.03296288204245L248.83157137080164,263.19619128039835L263.9501716315781,264.00531778026556L268.5557804476754,264.2485592882281L275.99594128161255,264.6383050046833L277.06160216263027,264.693804967686L289.82118084395984,265.3520295502584L304.9474485730014,266.11728518398786L306.83382062375347,266.218035915721L310.33504418289203,266.40436186790294L312.5800665953432,266.5233753874859L317.0284943350092,266.7581329351459L339.3365433536304,267.9140867655516L349.78195399239115,268.44313100454735L350.5546011412986,268.47615236085926L371.1708056321579,269.3415258730174L386.3112625887863,269.9577542393343L391.7369688028284,270.1746075093066L395.2346269913669,270.3399106479004L400.88605864003046,270.6051588504156L402.9506513046354,270.70149156874606L403.71437330064265,270.7370493474359L403.84399583462937,270.7430802521608L420.01388255450655,271.4860099719767L428.8966819798,271.88619534634995L428.94166772915094,271.8882077084488L435.588019184626,272.0918141053249L442.61518767346035,272.3036658955766L450.4400320049203,272.6086862503905L469.90891028167044,273.3486690050603L469.9192776751736,273.3490558589699L474.6990939093111,273.52659651722496L483.25574712661773,273.8403580649608L490.19944533974433,274.09114062012316L495.13491597414435,274.2327469466395L501.7983356312084,274.42118000164805L509.30066472293254,274.62955398456666L514.6223211782603,274.77493199557944L518.7047498498181,274.88509031272145L519.8491644532259,274.9170644508422L520.1954967134334,274.9271797369368L522.9398662634401,275.00703231529303L536.6271969099961,275.3972860257496L542.9475651171359,275.5729920514774L543.0720125538744,275.57642314290615L555.2608905913974,275.90713687610645L557.2279056208565,275.95951587971547L557.2473660429031,275.9600327093717L562.576503539145,276.100549623108L565.1401620486207,276.16742731165937L566.6970361400806,276.2078129350393L567.357785074476,276.2249007560293L571.7352071181759,276.33732182869596L571.7459632975094,276.3375963897874L583.2219203700628,276.62584029882987L583.650563806139,276.63642507016516L588.0040562304428,276.7431880074571L588.6130781373445,276.7580158420019L589.1965131725576,276.77219596261483L592.6714575769983,276.85615117332543L592.6884488656982,276.857039931532L592.6914185020266,276.85719526129856L598.2780751212218,277.14829588957275L598.3103280095387,277.14997000139715L602.6698738543387,277.1447446395504L602.6759399804059,277.144736427592L607.6751652029038,277.1370795066879L609.0559621367577,275.3481674313705L611.600365345895,272.050387287958L612.5002624584725,270.3873703037559L612.5044981857475,270.3795417370307L614.4162708088519,266.84529025508164L617.5761955239575,263.09918122675003L617.6857509817926,263.00575339738674L620.1786322929122,260.87934131038764L623.3116486687883,259.82113049346725L625.7751520314271,259.37077079126414L627.6219368856424,259.8934958131913L629.3640319050753,260.386336918354L629.8411917862474,260.5212834557656L629.8607536761962,260.52814713671944L629.8842164475683,260.53532224233805L631.8996141634776,261.1036905202769L632.5912389462491,261.2986623117347L633.6205204607393,261.58874959419876L636.7486109428976,262.46983079572874L636.4132738614985,257.73787958304524L636.0444338281566,252.53055275665136L635.4195321910096,243.7018543743334L635.8011424607945,243.20603001084467L636.3796309929149,242.45432756451345L638.4115884124528,239.81323363788613L638.4194833163823,239.8036990903519L640.1259005109187,237.74253081369744L640.4277188095639,237.48179611610837L640.665248589059,237.2765887869651L644.760555485024,234.8239537496697L645.2240034861977,234.60044724982257L649.1953964148086,232.68430203947486L653.4781476999075,233.91740606698343L657.1003454897893,234.9591612483337L657.7216406880809,235.13774085777814L659.9446820602616,235.77645617271443L666.6519616461383,237.70113955518494L666.9770942404144,237.7943452279661L669.5966496003412,228.28312481852623L671.1240648139723,224.3735338186988L671.904323568736,222.7013657996674L674.3441591819048,220.03069848440558L675.27304920759,219.01359350348972L682.132140078945,217.47866709070442L683.9945367914124,217.06127424893316L684.0432909262859,217.05034407740064L689.8312994995667,215.7514302297953L691.9789263212646,215.26881423648757L694.8387575126354,213.6090304610776L696.419995731924,212.69092529164112L700.9053169234999,209.75769244515683L701.1360334528003,209.61266183197787L701.1955486266876,209.5927261538407L701.9524351096159,209.33916734926788L705.2403507071042,208.83977821125586L705.2438592969963,208.8485552469653L705.3383590307003,208.84737989520008L705.3429758492567,208.8473224566381L708.3807007186113,208.8091999369506L712.7089949813778,210.12238712189497L713.4252201198344,210.66779451099052L713.4293679181466,210.67095286306085L716.258431370492,212.82459391123828L722.4716437316838,217.5505378491197L722.5531308639809,217.6124836691673L725.4412773249283,216.12774072213244L727.1208979897575,214.71174706466883L728.9053810885541,213.87410558336282L728.9211543511633,213.8667001914047L729.4393446775872,213.62340149800264L730.5949143747364,213.45766829856527L730.6206205713465,221.11899026865723L731.0372689624733,223.86419681837506L732.1056350793024,230.89975840522112L732.2515267026076,231.26042678610386L732.6866110895265,232.3359317946397L733.2315837476935,233.68287181020497L733.3415087175404,234.8797396179658L734.3068798118121,245.38474554446677L737.1400374086631,255.4585066465236L737.7399339775943,257.5900294906545L739.0093966548511,260.4645045350974L743.3318180899591,270.24403294805364L743.8452526078128,272.4429382842724L742.4850126898679,273.9393676812463L742.4780265510593,275.70201208921674L742.4718103756738,277.2688417191549L745.5430091294636,279.1980269360771L748.59018019973,279.6072634602451L750.7285441650479,280.63539323533706L754.655938994815,284.70309109290525L755.1984509699535,285.9932779563313L755.9349902997225,286.2284378976117L757.4731430528408,286.71938912226494L760.9795525503616,288.5984962011014L763.571448495298,289.40298843038545L764.79809736419,289.3903844707014L765.0028400550416,289.19320093318385L767.1401981000048,287.13430388868613L767.2590766154892,287.0197651638934L768.0408805528693,285.958237133L769.0015236135516,284.65363999848705L769.2727296505477,284.2852813893689L769.5978066949924,284.1036674482606L769.6785860524551,284.0585359029477L770.0301823988855,283.86209035105094L771.0419583132757,283.29671215800903L771.8430387090165,281.52098456403604L774.3033140011153,279.2838900686741L775.5192737334633,278.17785851573035L776.5535745374636,277.2368672087605L776.9671352894749,277.2454069251843L777.8236481323105,277.26305457433676L778.4698884745856,277.27633521268405L780.4363252009814,275.993983282297L781.1632012984326,276.4342685110381L781.4076954557273,277.3444772904122L782.2550690568036,278.008696610146L783.0851459447806,277.5980621048593L782.379687320411,280.07145645743833L783.0050693264241,281.6022716114334L783.0277889666565,283.1252721209404L783.0550607110254,284.953511199873L783.0569785831331,285.0820849325802L783.0309442448147,285.19748846153175L783.0055412038769,285.3100919492977L782.9423398432052,285.59023607586045L782.5754961820542,287.2160937757915L783.5884988511662,287.2690044694536L784.0265466602903,287.2918616941389L784.3136103096238,287.30683317326464L784.7898680485669,287.34142023424386L785.6917810414668,287.4068749114922L785.9557659357079,287.4260220958517L787.1498709162389,287.7740906949272L789.4550295664881,287.2986156819472L789.6898489722417,287.25015789154065L789.6921825604252,287.26603270925636L789.8665334053742,288.4520246428199L789.3329924241662,290.2890816370916L790.7544379202965,291.4152227095149L790.1415132954849,292.86988087824443L789.9554222706907,293.3114759200338L790.4424178776387,293.9223709832057L790.8939994977878,294.48878906861694L790.2689288561694,296.1996262362661L789.2784961856794,296.2369391270746L787.868052762389,296.28995478171555L787.3754750780363,296.30843642048694L787.24951486689,296.31315970838125L785.9095360886116,297.24604417461217L785.551920769404,297.4949749103688L783.961614328107,298.6017662189792L784.0893156273116,299.5295650115428L784.1158037309193,299.72200023684536L783.4668494667197,300.5990272584961L781.7373742996987,301.23658910752783L780.5812474762387,302.71562753711964L780.4578066592139,302.87352504502326L780.4862702646965,305.2400764857524L780.4957992156583,306.03242111773443L779.6929318151344,308.7540004558723L779.6473701776404,308.81504029771406L778.155898104469,310.81287046510744L777.0288051235141,311.6589242828211L776.5545953337038,313.31879967135853L774.8505750393163,315.2382626332141L772.2141316684008,315.9308099879577L771.8872049053695,314.6456455618044L772.4138936935809,313.14636571672696L773.5007945125415,311.75972870155283L774.1369421538075,309.5764887273983L773.6020054058235,307.728016398779L772.40371387615,306.4151871153553L771.8258420297306,305.78197283695044L770.5027338963569,306.064155388251L768.9258971440872,306.40027727157985L769.0187053437137,307.8856454384831L767.7368709080955,308.8421493681643L767.0265143763845,310.46851377836435L767.9677982701685,311.4026041865495L767.0368793817403,313.05381718776084L766.2450460498701,313.96710967479015L766.1260430846576,314.10435414045924L764.8721945850668,314.7437214593074L763.4498249590837,317.189770128821L760.9542750937892,317.88445325340484L760.4127411936622,318.96096628359834L759.115520236159,319.08350480259446L755.3750827436158,319.4361580663592L755.0292499528873,318.38797274704604L753.829137856543,318.04513509498133L753.4188905867052,317.5776065065677L752.6255257756593,318.3217145940215L748.183166828949,319.95003479505135L747.8497841542951,320.59635660648206L746.5623815174836,323.0916742412551L744.3819434833481,323.86749299227847L742.9890049730819,323.98205339038105L740.2982324034508,322.74576147820454L740.1015057533189,322.65534708434376L738.8202577971236,322.3180059773245L738.5336621668613,322.24253014771824L736.0287674064069,323.3182662566878L733.127510937081,325.99393408049343L731.0827749176726,326.98785931420275L727.4782576920782,327.24222914069617L725.3101302029625,328.2598562881338L723.7204259761045,328.43733010725356L722.7867889984701,328.5414757843268L722.4290066382418,328.7947084179708L722.1653456579483,328.98131286230534L721.3096272972664,329.58688043860616L719.4145736916514,328.3002416745539L718.8283727664091,328.78888449282914L718.5605923483001,329.01208235434774L717.5775923701232,329.75904563564814L717.409169334218,330.1106695006531L716.7382136872021,331.51128556383577L716.2707323563696,332.2536383384606L715.7105996992409,333.14301369150695L716.0667779516135,333.49505614159665L716.6778965363873,334.09902453728756L718.499938372851,332.886941338959L718.5613804071579,332.8460609664177L719.6123598301413,332.57990886008207L720.5129583822008,333.5779145069282L720.0019884618723,335.9619276521785L717.0824914003828,337.1558837201956L716.0186598829684,338.7766614631216L715.4106393565805,339.70282282304015L715.1448663474266,340.10761894236L715.0216214722521,341.1846776361209L714.9474333284325,341.83294740493125L714.874192919713,342.4728815229275L716.0721346819703,343.50897361911746L716.8896860698616,343.60394055954333L717.9396570181792,343.7258343772883L718.2116453416078,343.21068908075586L718.5961652625697,342.48234645829996L719.2635906626929,341.2179608203542L719.9575916879027,340.025799380973L720.6513716521432,338.83381522868723L721.7563471416822,338.1609419574572L722.4358712298902,337.7765352628845L724.649040385179,338.5476997236839L725.4654984124401,339.1478029868436L726.375597020079,338.41558353346494L726.371232418554,339.747531624565L726.3631440093521,342.2128222455371L725.1660855942105,343.7723491588167L724.4097393566234,344.75751671641683L723.9940043165419,345.2989603384814L723.718490395519,346.48908010854325L723.647310857088,346.79652054571085L723.6035189794554,347.8537147094426L725.1513695997036,347.5159784549013L725.8185392511075,346.5719461027627L725.8511605158285,346.5401376061513L726.8569734886822,345.55928971502215L728.6248661409304,343.20742285887803L729.3497840440003,344.00013934054573L728.6715639419077,345.50759948080594L728.1517061288371,348.6669867804253L726.705877155819,349.7210626986775L725.1652260432886,348.365079344271L722.4538356817056,348.83797085712047L721.6461253826707,349.4344850415477L719.2908234308322,351.17343443615266L716.797378043326,353.0135661398086L716.7955854037298,353.01676263280564L715.126051926938,355.99311854616684L715.0701799481212,356.09270260273576L714.6965709295906,357.1989297580665L714.8927980039946,357.9760045941611L713.0852720997564,359.4251800638037L711.1922201256464,358.2754056561746L709.677151753315,358.78672568468L709.6428577367662,358.58013495640193L709.4398688945253,357.3572146825469L707.1155097061408,357.41826748508316L705.823818274934,357.4864041355255L705.8046752935811,357.48741303521354L704.5771468173818,359.23439818253377L704.3414454018236,359.5697887517195L702.4537112772921,360.6627707481502L702.4515881564164,360.6892703557497L702.4159976855071,361.13347650599314L702.1209038128302,364.8155230970968L702.0934984676226,366.99398391253294L703.0482436464347,367.7710358589618L704.1565148092359,367.58334534190817L705.1237627309517,370.19344971250695L705.2038876395949,370.4096285639652L708.332902121571,371.28212291915526L709.604329094795,372.14839568726615L709.8190316639229,373.33823061043535L711.0799691323391,373.94944716487197L710.3639680079042,375.3296381034745L709.178105515635,375.2499361880108L709.0106032018031,375.2386702672913L707.9906090935483,374.57576824237526L707.4974844852616,374.64949057511217L704.7581722837646,375.0586948184946L704.4020336380952,375.1118552174618L702.3119788552677,374.78578049962937L701.9964292346664,372.05736037742344L702.0349461613778,371.3490305284422L702.0856037886779,370.4173214213503L701.0378161229701,367.8725366889632L700.9899330990477,365.9957986609213L700.9183312706464,363.1890649669683L700.9047659525069,362.6572674589464L700.8941517954873,362.6137834878414L700.6417035587323,361.57949278121765L700.5720037772161,361.29390852406715L700.5528474382431,361.2940217711581L699.8587195239745,361.29810775302514L699.316095474499,361.3012781685L698.8005229830759,361.841151608874L695.8519602838703,364.9276765130857L695.8185669410086,365.7721842430908L695.8007485923855,366.2227598759895L695.7832571808142,366.6650376681892L693.6692714797925,368.61542347839554L691.9940846658691,370.160429756199L690.0750781501188,372.88189631494924L689.8949652275184,373.27605088369813L689.1059785871031,375.0024051344762L688.8830009276853,375.49022276586066L688.1825511655677,378.86538644224714L688.1739309121893,378.9069147910838L688.5585519250831,380.47379700270073L688.5645465809989,380.49821442340743L688.9513019378066,380.56294550434694L689.6488589751021,380.6796673490513L690.1100250725679,382.7295220412516L690.9186373025434,384.34395639497654L690.9451445002526,384.3968735694742L692.1172677459592,384.6992325198482L692.9532413408434,384.9148130177232L694.5416456891134,385.25470241169535L693.7346261352827,386.05579345708946L693.2205047767096,386.49854224531214L693.0304744081282,386.6621812786424L692.9976398460406,387.82806749038605L693.0170706064653,388.03119140471586L693.1483061697052,389.4029840702486L693.7125718760849,390.0781347901815L694.0482927575061,390.4797935271944L694.5729134886948,392.35356571217653L694.8308187273024,393.274569242143L694.2437887141714,394.903767816152L694.064621438989,395.4009471022865L694.9717913844645,396.3160104057282L695.648164542193,396.9981686007464L697.2849898161368,397.12054196938243L698.2646083998078,399.12958655973387L698.3671690198416,401.1609117090639L696.5098901956612,400.2903090228598L695.1110307868406,398.5655674442931L693.8443097572192,397.2143985064231L693.2090861966517,396.5367055845672L692.4514881137981,395.92440072678L691.6442291522796,396.00856000091665L689.6939181102521,396.21169292293473L689.6496320792476,396.21630232365766L688.7263989180959,397.5718986738399L687.0748437202698,398.03663901456815L686.4522545113557,398.2117764995362L685.2881645358473,399.29333808934143L684.2195995278112,400.2859431643342L683.973001175621,400.9412032060116L683.6417050542725,401.8214346026743L683.4363125756889,402.36709835084827L683.2491280225502,402.8643558759872L681.9987741028544,406.18511520191504L680.9611641139049,406.37341277763073L678.2213083424343,406.87023656701643L677.5172832144522,406.99780887003254L677.0983293538625,407.29466809494625L674.8175693381693,408.9103562787788L674.5512393163133,409.0989806047097L675.801938441787,409.94345415329093L677.4498814229883,411.0558534440367L677.5922507780858,412.3023454670624L676.4229800556091,413.50520394466014L676.3057532206908,413.7995655949559L676.1235306270023,414.25711209193724L675.8160009352935,415.02923320757037L675.3977211901969,416.0792926708736L677.9672332936033,416.730176321924L678.6494684977831,416.4082474689779L679.9000512976695,416.5154717436012L680.0980619941704,417.2618452049242L681.2907019937037,417.68204254600187L682.3276495886097,415.9807483619564L682.2389435926195,414.65895654525224L682.2002013019162,414.08161308308206L682.1685898010793,413.6105104459974L681.5263256897172,412.37122831057644L682.732467108837,411.5371961582924L684.3563761002436,409.52097302985646L686.7268495244741,409.42362441407425L686.49558779007,410.67550466442765L685.552163501475,410.190010809187L684.6307186973992,411.20230884411484L683.5995874250328,413.27752183355295L683.7235423172467,413.77738202739636L684.0113447163732,414.9378635517953L684.2630385009073,415.9526216456704L686.0081992470654,416.0844025177583L687.685858238659,415.15304598639347L688.7311716431398,414.07608081497006L689.7393471157694,414.6854868069951L689.4394635367566,415.5016773376145L687.3883632050533,416.1567306471889L685.1564462066995,417.251099326158L685.3593906311569,418.65421637365216L684.0696957013424,419.82769730435376L683.4019165312291,420.29742111958484L682.7096261968506,420.7843262888763L680.9127440107466,421.81001073272165L680.9581855642971,421.88272241247654L681.1526702378843,422.1939117132395L682.0196144412439,423.5809182974294L682.383443255027,424.1629200534788L683.0000418392419,424.5292300057223L684.1015871838695,425.18353280037206L687.4469574230158,427.1698103402042L688.3278449301323,428.5001260250895L688.7047753353786,429.0692881369855L690.0288880395428,429.08529105000036L691.018072488984,429.0971654248016L693.4693411001351,429.9978245308249L695.0203881355844,428.1408024262527L695.809331486133,427.8758731313927L697.6623490448194,427.2534208322828L697.9324701801122,427.16265978449826L698.4660463894824,425.7333556879484L697.5624153585244,423.872740578628L698.5043049732898,423.60154370400636L699.8282953693925,426.52505249386826L699.6191175086135,427.6958275657582L699.3916939066095,428.9685288353744L699.2919764715423,430.59554432263343L698.8481217689227,431.8610218108903L698.6493169906139,432.4277691866838L698.4541756696533,432.9840329190572L698.6236078520147,433.6196645268084L698.985371916319,434.9766821814758L699.8857885044295,434.5315426662733L701.0909016821927,433.935645136977L701.4671902738279,433.7495507774857L702.9981349279162,431.72475048364464L705.5516814032247,431.12131979912317L706.2267517741132,429.6804048562138L705.7938491938721,427.39424775806646L708.2175133316989,426.3777950763389L709.3175538735209,427.33704305078334L710.249325607042,427.8569318992977L710.5685944673324,429.12056323971404L710.7840537621239,429.9732254117802L710.9297029743122,429.9708273462791L711.8471064828956,429.95568822430477L712.0966123701199,429.9515605790317L713.6623686958462,429.81380861768974L713.8443442650889,429.7977874459729L714.2816558426285,429.8215417797628L714.7201497298573,429.8453467299066L714.3264927413165,432.47789100051L714.714882197992,433.07669131256944L715.3041270312448,433.9850632853019L715.6102843363798,434.4569848840101L716.2161746264712,434.8779548194449L717.1921445869102,435.5559573652598L718.6744188454444,434.4677437227068L719.1288550151276,431.77134354050384L718.3661382390283,431.03444714212463L717.248572439025,427.80279404110735L716.0270748262221,426.05469610961853L715.266390687666,424.96584526929394L715.2633564608456,424.9615016965443L714.5353530179738,424.6126337349822L712.7437939546621,423.75387815755516L711.488164550197,423.3994553483975L712.1630000862967,422.6385859043324L714.2324618031987,423.10408111969736L714.8880005548269,423.44304024371894L716.6908056027409,424.3749912313009L718.3741854428158,424.15886179664517L718.0396844144915,422.8527051057527L717.990497372174,422.74312806515815L717.7642164076367,422.2390083834605L717.0655661130647,420.6823195548788L716.4986616483648,419.82878488174725L716.0400009227844,419.1381457544698L715.8847226302038,417.3292380162506L714.7735209418584,417.0821552942061L714.3175043833908,416.9807298487186L711.4904783776612,415.9662238743966L709.8200029119002,416.9305213748011L708.4300858994937,415.7436287176511L706.3669272244589,415.8002115371019L706.2267698161921,414.8657109220145L707.9118650364268,414.60713656410246L710.5081331373973,413.7820836976481L713.5909271351748,414.42549876256754L715.2462951312648,412.78152134234176L717.026310337749,412.78384866668483L717.262887953608,414.65471452655936L717.4624925833698,416.2329156116276L717.9902658495889,417.2230276139681L718.9237020333316,418.9738527413146L720.0114551980207,421.01361491947176L720.2774531650322,421.5123323397549L721.1699499989126,422.7572254811047L722.7194129619954,424.9179334660645L723.9140026233763,426.0378875887992L725.58330445496,427.60248658246707L730.8511406120103,427.8099324750605L732.5469156122792,428.30878625694834L735.9626736997448,429.312911765927L741.3684259008323,432.04724978425486L742.0742751371474,432.4040668301675L742.6062814561637,433.47779872575666L743.2463881761132,434.27867703771085L744.0187622022304,434.2165442998297L745.3729733272598,434.1075038821923L745.9590604509683,432.22654217713824L747.9556414354854,432.0009345067655L748.9230401592515,433.5459391207549L748.4438987979988,435.7876063723411L749.5347420580457,436.7694523674909L749.7151736069161,438.9720210242564L751.2505616944643,441.2040852101096L752.7884661018606,443.0898597199591L753.2077725113493,443.6039134929684L753.8396259369733,443.821914278433L755.3508878249643,444.3431903326076L756.79690399323,446.23786723917533L757.6713241155514,447.38332890080585L759.8750244888456,448.3995826250532L760.9682083517157,448.012972513392L762.3422854897532,449.60474341095585L762.2365292948732,450.34088312670923L762.0434165180534,451.6849062594042L761.6389234299145,452.65278979182625L761.665386706986,454.69849408085724L760.976795005992,456.59429478618654L761.0328223665538,456.74321321580663L762.0751788532664,459.51326978674905L762.25199432213,462.2844327111129L763.0212118428228,462.9847328086299L764.4105174976089,464.2493179855666L770.1524051572687,474.84510001821064L771.7451574593241,477.2155775129036L775.9769763375766,483.50982941020175L776.9782095438823,484.5825905883382L782.3984743036895,490.38660035797466L782.8983368377754,492.8869699443396L781.4632016554597,494.0822753251808L780.5958752308713,494.8045102275109L780.5273956094417,495.9909418479723L780.4335221472872,497.6169852066665L781.8837773118101,503.8598975463111L785.260999337358,509.0492948350298L788.1286280397051,512.177496146795L790.6752787168396,516.1645199986502L791.3565593891797,516.914142684629L794.2267153225367,520.0711640506604L792.9724460348804,520.9561447805997L789.9362987451741,519.4313289222534L787.7230377239641,521.0721351686406L785.3131018048181,524.4298919832336L783.3947668314083,524.103876166904L782.7572093068927,519.8317181181287L783.1285251313498,518.088539268897L783.9698646871965,516.9896854501158L784.6283536313475,517.6159844761672L784.5566422392047,520.133970294548L785.792655116045,521.3584326748446L787.2528922296453,519.6979775776153L789.8540407206667,517.816893151878L789.4838637446458,516.9804605143294L788.8614087325641,515.5737988226138L781.6228472137971,505.61963348502036L780.0262637164651,505.5380122144089L779.8922594180306,505.531153407048L778.5546547699365,507.05518817742427L776.3620665060914,507.41584559231046L775.0738036222128,508.88444628427976L774.7755424447649,512.280466376036L774.6889152048253,513.2665112436302L774.5809066608754,514.4957434799064L775.7472377455999,517.7021280467652L774.8756349665607,519.3354781374373L772.8117369025522,520.1892085648891L770.6417630955743,517.6499606450861L768.253631922304,517.4915960233035L763.95754363239,519.6304747465048L764.3020370239312,521.1855833790589L764.589414227779,522.4826572425916L765.5312188413398,522.04148579601L767.2475600619746,522.8877050457654L767.6080732816977,525.1459011675855L767.6047157771812,526.8540249386697L769.1038386791613,528.259754865901L769.7635873679371,528.8782815844966L772.1004604835662,529.3340049958024L773.1923304211841,530.3818059364197L773.7299668580131,532.00767640936L774.8930031920199,533.280605122105L776.680071910648,535.2359896112737L777.4670801029813,536.0969151272064L778.323200075281,537.0606924568677L779.1882187248038,538.0343293319384L779.9849351017385,538.9309468034947L780.2065344200746,539.0720020517804L781.7092873554568,540.0284031491066L783.8491377551737,539.9195065367766L785.4303646637443,540.2005351779696L783.8594287367482,537.4621434734526L783.4062050821015,536.5409007723079L782.3643455469979,534.422761340305L782.3516562875193,534.3969600853521L782.0811439206984,533.8469032423859L781.8215418173265,533.3541810899858L781.815824863123,533.3433300140042L781.1378163816444,532.0563261817988L781.0312758146442,531.8540700282706L779.7804184354947,530.3213702914978L779.4150723615694,529.8736342702375L779.3937434489516,528.8667456773808L779.7909218920399,528.6575400159895L780.3896693524259,528.3421316585761L781.2128555044908,529.5490963976944L782.2096959607102,531.010393944065L785.711379325938,538.619064942212L787.9224005590144,542.0459878214872L789.807206151971,543.0988059505675L792.0096266709447,542.873249459957L794.6271217828119,540.2948284278096L796.3330850391807,539.7028869560603L798.4528719222856,539.4126042684519L802.7258320359944,543.0613974265153L803.2276380389708,544.2163343904219L804.627180432588,545.1209514847133L806.2856767548658,546.1926496220817L806.7360999634168,546.4836512617885L809.1406997448164,547.6265440080391L809.6151831282439,547.5494313630418L810.4053917682943,547.420970871634L810.1983888295708,548.5310126287204L810.8035635579855,549.4891461333185L809.742896354419,550.2273150154494L808.9544878444983,550.355465366594L808.5802996258299,551.0365953780237L808.3485615446652,552.7594980837013L808.7755282970384,554.4525789263301L811.9931347912528,559.6550635331214L812.6001193321467,560.6360680643512L812.3958422300858,561.9782819743554L812.8441801121771,563.7367934150295L812.896161387278,564.6582396057437L813.0539530342726,567.4549514421196L813.2237366187205,569.2088347574604L814.5887761585464,571.5889024796752L812.8856239989746,578.0751409175094L812.7343939614304,578.4245752784219L811.9490130005677,580.2390297035963L810.4358254427408,581.4861415664764L810.1993040817129,583.9242478811894L810.8398234755625,587.0112317299279L811.8750646973938,588.7340223721474L812.9784550394841,590.5697804394405L813.1576925430747,590.8679425043687L815.2330235461038,593.277903389854L816.7679596089299,595.0597250253621L817.3287879057004,595.7106299664129L817.3548662032647,595.7291122499801L823.4714599349811,600.0617043268502L823.5277225649979,600.1015351032743L823.5810537360619,600.6091470026894L823.5848930361869,600.6456889656357L823.6298512429757,601.0735862373087L823.6906335058437,601.6520648528904L828.6577575470851,605.1163098953133L829.7851886713484,605.9021910721542L833.1673814477068,607.1242674004015L841.6109425757386,610.1709183936864L845.3350328260733,611.5127448278569L845.6677279499404,611.6325610034751L845.7762209633781,611.6516692725669L853.4404372535456,612.9993373962669L855.609319115591,613.3799283919789L855.6327820353881,613.3809713428631L870.8856707942737,614.0508169799659L878.1267623911984,614.363112396128L878.8420686440297,614.8310127951432L879.3042195648403,615.1332855861054L880.7012334913131,616.0468582257514L881.8996897334013,616.8304011283701L882.3534072344064,617.1269944455598L882.405074924553,617.1607678673818L882.9927786862072,617.7296234305703L883.6323800562025,618.6207420075156L884.9343625088788,620.4343586391994L885.5630153787115,621.3098785119321L885.60391696687,621.3668379526088L886.2779971972031,621.3802777634614L886.7910741716673,621.3904862269403L888.9814794224869,619.1015710435049L889.0978171542582,618.979974975139L890.4341394204558,617.5830625683772L891.3072995037587,616.6701238329134L891.5713169412586,616.3940491438701L893.1472796258298,614.7458309382295L897.9799309312876,610.6974686234524L900.6203790848136,609.4149468761657L905.0249814146039,607.2740424995584L905.0589691694122,607.2846378862541L906.4907812191097,607.7309077836851L907.2973957790664,607.4614980261905L912.9785172950767,605.5624845827896L917.0346729542575,604.2050198334637L917.6395066052787,604.002485501419L922.8165524936251,604.2785110307923L922.8575287307287,604.2806882638254L924.4563807504916,603.5847271782062L924.6738311006297,603.490055665538L929.6682672867867,601.3144387074865L933.117845694175,600.3436802596427L935.8759868559589,598.8357703711517L936.4086719298778,598.8267694926625L937.4611579209833,598.8089271699109L938.0434222965705,598.799023057335L938.996350772552,598.2915619633598L942.3564544573471,596.5014743881688L943.7019744829513,595.7843290227385L945.8762359107433,594.6250847322074L946.1815171362343,594.4622802848901L948.4027007473087,593.2774516548009L948.7054238045071,592.8686094428753L948.9678670674031,592.5141460642249L950.753814344585,590.1014767378961L952.4482061369749,588.4660619560669L952.5709828727854,588.3475389509936L953.7073297178899,585.5487250421908L953.2779049105486,584.1986508359772L953.3551976171575,583.3169308457177L953.4512522643385,582.2210198533803L953.1764474742081,574.7491552295105L952.9917132335836,573.245687170484L952.6071672648004,570.1154010136243L952.0688890036274,565.7322450051267L951.5268235799309,561.3165317176176L952.1588437244936,559.8012917251633L952.3263910415571,559.3995532834924L953.7458780095408,557.5636181679579L952.9805416015117,556.384488902474L950.5158973896682,555.988017355376L948.8349524774868,556.0892740045824L947.255176392956,554.4238473128014L947.2009387435844,553.5421225597363L948.0135589966028,553.0416883531842L950.0180640448439,552.5966792572261L950.0231889532466,551.255633332915L950.0245735731103,550.8930211781852L948.2240055461446,550.3833005457159L946.7270440628581,548.9642895634356L944.8349766530272,545.9087824803796L944.8655107586064,544.5648189914971L945.7019490744042,543.2286026047059L946.0331957143172,542.6993617493006L943.946560033053,542.5152858152372L941.3600795057657,542.5960583553141L938.7433952812522,543.4411246202641L937.6988909944573,544.29464121614L937.030450226903,545.0728711207747L938.0727231417318,546.1115554692559L939.0248288539593,545.9167518080436L937.8115608539085,547.3267494143361L936.7225762353485,548.0376282092892L936.0914800257069,549.3246599097175L936.2152828164819,553.6065657345766L935.3886143574457,554.8404594631361L936.1956026047255,558.3487271178465L936.1040183345037,559.4246847304056L935.511778389781,558.8786462425744L934.2734373687008,553.618191798787L933.5741969022026,539.7803710253884L932.6678167619577,538.1307680584454L932.4853174838431,532.9719726235907L932.1371075586802,523.127031181267L931.6666766092916,520.8975971122848L930.1552751504444,513.7314121431149L928.4756845831039,509.20477827498235L927.9776039069732,508.3824094699959L926.7957814753097,506.4307647717719L923.3808736976226,502.7021290287298L919.3323411569687,499.95511731251946L914.8559904659105,498.0095506622735L914.276030403741,497.75734634884293L914.1362000725467,497.69653440434263L912.7917024154699,497.0246305092849L912.477029697226,496.86734905691293L910.6629311514607,496.3963374345319L906.8969158846594,497.4623938833367L905.0864106375716,498.463231410261L904.6375254492309,498.7113194443892L902.8932341965867,500.4950054864397L902.4955093544096,500.901631258866L901.591128261311,502.7877903815185L900.5929180414134,504.86907620305584L900.4895375395793,505.9660211438967L900.1800315247071,506.0716927446454L898.8748664407026,506.5172147114033L897.6423256318712,507.37113374467197L900.1690449147696,509.8750496871082L901.3247025922457,510.6582703626448L902.0747519219776,510.2515423424259L906.1931953874803,509.0163362172586L907.932865324367,506.39264741328606L906.9128519016617,508.74956428402135L904.7071400625571,511.01996569281624L902.8487021409861,511.7717115910525L901.7563460463462,511.7601198612254L900.2871245692816,511.10698817722863L896.9087594426327,508.08452670306826L895.723364277811,506.20122289897455L894.1184160247965,502.7883399553415L891.4142927463553,499.98811302293024L889.5966800683061,498.80508793102763L888.6366776344576,497.73707759944574L887.4033919783524,497.7406054885275L886.8836049484023,496.6288455187972L888.7173296749609,493.31954713192886L891.9488195015073,491.1880153695443L896.8590503511588,489.8694913452771L901.4996407571773,489.57632855894667L909.2328493934135,490.6643380010553L910.8302927807501,491.14601517301185L921.024485730287,494.2150110350442L929.9774343465664,498.55610113819034L936.3495315508184,503.32116439921566L936.5062913977508,503.43832128501174L942.5129228093404,510.2833341049564L943.384337105477,511.2757328476167L949.4267155931943,521.0599034021171L949.8193154056985,521.8155568504498L951.1757713866514,524.4258257077465L953.6085684776466,529.1051588289154L956.7052980099425,535.0574975265687L956.7367321479244,535.1178951520344L956.7544490103119,535.164372961553L957.4275452074701,536.929965041747L961.8263151695606,548.4594528876493L965.1674168890054,559.6938204477199L967.3146029261371,566.9064201670612L968.8133388591185,571.937458510852L969.635970451736,576.2478990929183L970.1409491861011,579.8968939598462L970.6423005609711,581.3756051868639L971.1369054227972,584.2974605100924L971.1887116196492,584.6034558866073L974.5245855605478,608.863018533509L974.7965247541382,615.5574259474179L975,620.5655385737599L974.6648382870022,626.4753791689134L973.9423546213694,631.2585990413263L971.45107685411,636.2946593949281L971.5011659749193,639.5936405809006L970.600196509302,641.085086672643L969.6525456423909,644.426126920519L969.4743675148407,645.0541503446016L969.3093242572465,646.0266118154588L969.0812948343291,647.3699892490337L968.391525759386,648.909044232914L968.2467025699432,652.2865751833687L965.8342520690194,655.3758622607999L963.4710112754613,655.5580096064649L962.7558804407167,656.0455390666291L962.5146313174074,656.2099928418188L961.607310408668,656.8284281563883L960.3771352806259,661.8283822871292L960.4767409433452,664.4953779132779L960.2789049452281,666.4738781429865L960.8967483555148,675.862047814054L960.9074109754476,676.0240176051066L960.4250859997833,677.3946568050874L959.9877769338394,678.6371617421779L958.5232702985832,680.5321442575391L956.8912357145339,681.223345587234L955.672305330587,680.9458000389218L955.5124046247676,680.7712997827485L955.3691263348439,680.6149352751893L954.8796224091113,680.0806917893028L954.4643256438108,679.07600153193L954.1592784848829,677.5584549307519L954.3052018602561,677.0292221978251L954.3765522650838,676.7704364408771L955.4119142034202,675.0349110953014L955.4199352515299,675.0266942590606L956.8886885191096,673.5218836338179L957.4727835454963,672.7327268315374L957.9289182924824,672.1163872929669L958.9629280506936,668.8895980023717L959.1335810795492,668.3569188669829L959.487079406627,665.4296659507693L959.5982525127566,664.5088138830737L959.672353760777,663.894963657296L959.5942236675157,662.9217120085207L959.2543635985202,658.687335303141L959.5953184955059,657.8862615131095L959.8463020987194,657.2965210136567L959.9054075904494,657.1858279831023L961.007474804866,655.1215616061352L960.8355207440557,652.7870252959375L961.2195947518113,652.0197347185099L961.645514906086,651.1687515047258L962.7361301705165,648.9892659315076L962.8593912784579,648.7429002295655L963.1787157712697,645.8440046533128L963.5818619777463,645.001812356099L963.8881589027064,644.3618789097941L964.3078278912772,643.7746472516936L964.4237389921109,643.6124466780075L964.5472639185323,643.43958726453L963.0514227607015,640.5300396597079L962.3416949782061,640.1200557669551L961.3888658900532,639.5695560356353L961.002264492008,639.3461681616409L960.7401440606011,639.1946993436063L960.4353797546123,639.0185790717046L957.4013684904098,635.9322049029295L957.3836240684086,635.9141492452127L956.2316874551709,635.3272454618073L954.4902022815688,634.4397208546837L954.4521205636095,634.4382158843061L953.0285317070461,634.3818836135645L952.5653055109178,634.363522913537L952.1496477941175,634.5348250383751L950.7864985356327,635.0965027791781L948.6381824902846,635.9813695879209L948.5783588662118,636.0060044004059L947.8414250642106,636.0605690602599L946.4689724247978,636.1620876559784L946.4342344017763,636.1646554671009L945.6032173901438,636.2260584148225L941.629583819515,637.2696086628135L939.8759602663155,637.4681785354612L939.5779688529353,637.7162584523824L939.2532243629588,637.9865954375567L938.9428298470984,638.2449719613608L936.1842644666519,637.7626237680468L933.3657980520422,638.1785783556539L932.6587935743839,638.2828296719258L929.4719847488145,639.5414527404374L927.487429705466,640.3248015599103L925.4658077498837,641.1224290329222L925.185740078835,641.2100730067211L924.6508277930293,641.3774501391878L921.8127926363097,642.2651023813623L920.1218487914771,642.7936706801331L919.0186841004972,643.1383823988967L914.5637829784655,642.792807597662L914.4031750244034,642.7803228389532L911.673638290714,642.799584695472L911.6679712209182,642.8007935892045L906.675652294537,643.8648191573724L905.0490070387095,644.3308411312427L904.549865696501,644.4737997125371L903.8406180461303,645.8394430251318L902.4400025040852,646.2240828483368L901.4338429509788,646.5003019836405L898.1093689639558,648.755414286055L897.9397312608742,648.830792876423L893.9753126873892,650.5916322611987L891.2251423954963,651.8123032813346L888.542828867832,654.6715668560489L888.7861530425178,655.7934685571713L887.7375706868743,658.2114928971087L886.1975019719456,658.8025670692675L885.6035829076257,658.2548056772426L884.9729321654729,655.8185706396007L885.0408644775168,652.9679050232337L884.5759030143308,652.1915151276953L883.528250784569,650.4418558403871L881.6909964772453,649.7078956320618L879.2072192629739,649.75227417644L877.7765043355648,650.0839997603787L876.6637598714526,650.801447914883L876.5849320388222,651.85835918423L873.6591774730274,652.6909863422694L872.3594746722059,653.4275995899495L870.9847118787623,651.6562185320375L870.7716539452015,651.525232445268L868.7190664423902,650.2630591545185L867.6263223145061,649.9790445681118L866.5277679845733,649.6934266029057L866.3931392453586,649.7191111704441L863.2133068698422,650.3253739964126L862.921246796426,650.3810204854954L860.6279591740089,651.7359431988601L859.4569657122429,653.3217044059137L859.5164968508303,654.2673326074082L859.525502843926,654.4103835445962L858.2344655784591,657.2275835834989L855.7935079953224,658.9108924264083L850.1142046896371,660.8399070728775L849.9621703096706,660.8193219898727L847.979956909207,660.5507832784731L843.671902622013,661.4937808177946L843.1201935262679,661.61444503905L841.8177413412989,661.2888866590102L841.5253908743732,661.3238549557542L840.3264836959327,661.4671937145437L839.2160609916859,663.302458520066L838.9474486780946,663.7463390899742L838.5195768201929,665.4641500694019L838.2985948758494,666.3511974324856L837.9775025065337,666.9200421200526L837.6497262242076,667.5006816605926L837.3038911102254,668.1132608134233L836.9940494139535,668.6620404571493L834.2020325653363,673.6052690903562L833.575013762907,674.3891622678229L830.3131311610978,678.465557095069L827.858142850906,680.0489659108573L827.5282693342788,680.1846625366135L825.8241702933357,680.8855067155922L824.06889049857,681.17726518545L818.1529456889812,682.1589539514789L818.0681081767681,682.1730133851139L816.6033160589307,682.9135841742459L816.4021753372451,683.01526060694L815.3760515065749,682.1145617429186L813.6350156612272,681.4577384456425L811.4924347712084,681.4522456448501L811.3179646756455,681.5125772337642L811.2011864357432,681.552957626536L808.577627847565,682.459852232942L808.1939212563939,682.5924416385263L808.0748997771589,682.633566906829L807.7771231432195,682.6819141603244L807.655479881086,682.7016624114444L805.2076267676628,683.0988330026601L804.3190101542477,683.24290607764L803.5566143063345,683.659409162938L802.5906906777093,684.1870150861076L802.5674322673606,684.1997180879648L802.5238600121905,684.2235157138555L800.9458699186083,683.8333543348293L800.3057333806105,683.8862182265657L798.9693270663818,683.9964888526479L797.1368953745418,684.9679142236142L796.844384141077,685.1229515183751L795.2358896077338,684.9482051674318L794.3634759174787,684.8533496477569L793.4810026141031,685.1222802513505L793.0454677529924,685.2549850418679L792.5465769905057,685.4069753804259L790.5551151030336,686.0134893734244L788.3707757164265,686.6783816312485L788.3430013728907,686.7012082652247L788.3200883700517,686.7200394707315L786.3699152911709,688.322521157814L785.7337021512421,688.8451852614098L784.0740924480676,691.8093855118783L783.0299720484578,693.6736512248513L783.0785982620077,694.7891695200054L782.3869909640946,695.2068196247005L782.3391514481107,695.175594812365L780.7015525785121,694.1065734310914L780.2207670374612,694.1167042052894L779.237308878046,694.1373768815947L778.7068139382818,693.1293121754038L777.9214571235484,692.1269423361427L776.473569631602,692.9214920024112L774.6288531314358,693.0230752868724L773.9712595814242,692.0178583754071L774.1473851654587,690.1148419335756L775.1160523959661,688.8746536373948L775.848940173539,689.3694773728448L776.2138406932509,689.6158230273415L776.8565854057998,690.1291171441646L776.9907187479062,690.2362283134081L778.1383330733439,689.2128711040507L779.1888361686406,688.789747710942L779.028785446096,687.5189460848039L779.5505029739436,686.2567720571519L781.6256357535059,684.9868732557184L782.1377624232451,683.9027072031894L782.7421515804849,682.6230226646319L782.4002098082885,679.9214222258108L782.7342514346196,677.173466952398L783.9647102590297,676.915831944434L784.0677291592494,675.4602978090343L785.661906902732,674.5265948989397L785.9544304350748,673.3549074179703L786.044051140848,672.9959020371261L786.1053983473554,672.7501462044694L785.7693006664499,670.7040416069634L785.6923417089688,670.4993098829884L782.8175874132837,662.8481545168479L782.8233079474751,662.7296194477551L782.8453634158834,662.272588099219L782.9034970074424,661.0677936164791L784.2508476076432,659.8527013878142L784.3960018280901,657.6278648898009L785.7479727644911,656.1174024323522L785.9946684862011,655.841744637006L785.9625473501956,655.7726878231832L784.9266531089946,653.5453154085079L784.5245212939315,652.6804887892846L782.5256102620422,651.1924321750473L782.3416811940929,650.7841871715234L782.4308462122204,650.4180940329427L782.8699710763015,648.6148928963398L782.9671383569375,648.2158347730865L784.5640753612931,647.9636990340418L786.1532657904395,646.969168443036L788.2702019379733,646.6392998688244L788.3850320016097,646.4904353851665L789.8135785496618,644.6381924696983L789.7424293062751,644.4622319509717L789.5110558104752,643.889992262827L789.2448853632354,643.2316433195606L789.0758950303243,642.8136338600382L788.4260265206681,642.565966841342L787.2184815645683,642.1056707533636L787.0282219061711,642.0331354581202L785.5346464240904,643.397997980883L784.2026026014532,643.4265505919808L782.5096773891624,642.1803573946561L781.9991556810052,640.745274815544L783.346302781843,639.5594626391267L785.1247652637951,639.0918706219675L786.2083994285982,639.3222990307354L786.3609024154947,639.3407602083573L787.5441785738999,639.4839446935566L787.3073434012167,637.332111013442L785.5709061202642,636.2275008173775L783.9749986044202,635.754312181897L783.0861669652168,635.7718600023152L780.9337201814153,635.6257074070531L780.2464495325592,636.4045510666434L779.6848848391884,635.8450425877721L782.9715619977417,632.1726211200832L783.7141030873764,631.3426121530532L783.8744396031196,631.1633733118318L789.308783927469,629.29659515973L789.3979968841275,628.616216384001L789.4964184138267,627.8655388182018L789.7177528208629,626.1771156616517L788.9073908356527,624.1953613640169L787.7135248473937,623.9747591330574L786.9524587181637,623.8340746840952L785.3567719162631,622.7146830774593L784.3330330860208,622.6350141371003L782.9317764860629,622.5258463996258L782.5233894375206,624.1823335502654L779.9254551456931,627.2166746467755L776.398715426997,632.1869414753892L775.8360793578865,631.7402739671488L778.6676812659318,627.6868624604783L780.9945137217385,624.2251662593252L780.8753359250561,623.5082732152749L778.894679767265,623.2643229708218L777.133529210794,621.2613525168817L774.754280265152,619.3397006734139L772.9837176969961,619.5031351931971L772.5473119306646,620.3755599131907L772.3751550339709,620.7196929861072L769.9917276649873,618.804524347232L767.5655761541739,618.9324472035183L767.0112557031891,618.2382916104968L765.1559625082788,617.7621075283204L764.5869647898033,617.0863679828113L764.1673826253182,616.5880266767269L763.0550823629055,617.2075913876956L762.6197550623853,617.4500386320556L762.1662838707754,617.7025696363585L763.6704999292542,619.5022606129405L763.6679639694939,621.0695504773046L762.3620815992886,620.605547995568L762.1081203493271,620.8297250867382L761.6513183813097,621.2329282986382L763.6470170613699,624.7318729558791L765.3762171685032,625.6459795737667L766.1616743888128,626.803289592661L765.6126961683613,628.7066183657334L763.3330603875966,628.0010019383275L762.075959380528,628.5333056455856L762.4687513419009,629.1592494598387L763.2620282822829,630.7918246860086L764.809417375109,631.4918497423432L765.5027466056058,632.207484978916L764.5957001767199,632.8620011511866L765.5441241057762,636.1118935655408L765.4391952606456,638.1686112326393L764.2895116133607,637.2143665144654L763.8095771233815,635.981210878747L761.6656654315577,633.641044886516L758.9187229287817,632.399746916004L757.9262742199287,630.7394402828681L757.6075229565686,630.2061095567926L756.40731296318,630.4195816907587L755.4720188399574,631.0488430343298L754.7143565804804,631.5585168678392L754.7012389638246,631.5673403801152L755.5068536143722,633.0369148513298L755.7290077741009,634.6814839124206L756.4622903117524,636.506629590606L758.0236083042792,638.5057488443564L757.5854328565874,639.329399528731L756.0516633375582,638.2272515981165L755.5880279828552,637.221097942434L753.9881629480554,636.4909678336833L752.8163882915771,637.6031087684645L752.5555848148035,637.8506072489616L753.112368045264,639.2417163636836L754.5264043763443,641.3653299303794L753.0135759515097,641.1010937249252L753.1407833292847,641.8998435968576L754.1690734369562,643.4052862614146L754.5289764733809,646.3768234695208L753.1017977116119,646.4697271770378L753.1958251591361,648.0548258332673L752.0522062299858,648.0131437839285L751.5628691693071,648.9746751567783L752.3646255014328,650.4630562579711L751.3381833406221,650.6363887010276L750.1539461800467,649.2692412153675L749.5536250939517,647.8109242791895L749.2995028374806,647.2399524616815L748.8743952738769,647.1577871217066L748.811549220846,647.1456390205828L746.8019816763556,646.757036823836L746.7907014194319,646.754144947035L745.513439718455,646.4266346403879L744.3576189151788,647.2698587061634L742.4225086335327,645.5920140457197L740.6285984764894,644.6729711709531L739.3626852389173,645.06742018253L739.2956156967448,645.08831494668L739.1139401155422,645.1449121186779L738.4805486021577,645.4429090932307L737.2892327526506,646.0032945631071L737.1375968727007,646.7877001864438L736.8829086751098,648.105018377487L738.7474298231716,649.137704432289L741.8997121460618,650.809186172915L742.8850593284725,653.4403791551158L743.1499523911232,654.1475890033298L742.9382677820106,654.952249156249L742.0853924111933,655.5499127879701L740.5069951746977,656.6557550393493L738.5384610152075,657.206853835376L737.3391724582805,655.7797176964096L735.8349057607275,656.8257202485361L733.8261111240035,656.8985699314302L731.6957112376058,655.5225733611635L731.4286482111328,655.3500435939217L729.2103667749258,656.1269703846274L728.5801491098734,657.0451473682346L728.5556850236767,657.0807870822906L728.5214177810515,657.130707892485L728.7974025965713,659.1107182423075L730.0826767096156,662.0709744156278L730.0868714500973,662.0931803874092L730.5732882841496,664.6678008406803L731.8845068586697,666.9323791580083L732.2212637999058,668.0070436202451L732.1542272315337,667.9802085972088L731.0049278614626,667.5200778027802L730.3514606011302,667.8810151668736L730.044574461228,668.0505059255045L729.8346564945289,669.2128248136243L729.6538666890218,670.2137259739513L729.3540219352069,671.6014189831856L729.2424369809719,672.1177775794034L728.3568857574785,671.5918253474983L728.1939531128884,670.165622769721L727.3491939152393,667.7021726607854L726.3445099908904,666.5811714781673L725.5063972200871,665.6458652303646L726.4674975139585,664.5333433147541L726.5653728970768,664.4200360913615L724.9553943510065,660.6912298915065L724.9086625199685,660.5829707906431L725.0047038366762,657.7212499501717L724.6488883893912,656.6749339185983L723.8229638681976,655.8998203168317L723.2883735287169,655.690511659809L722.4596504329439,655.3659917341355L722.1081179191206,655.2283169448028L721.3099952357903,654.9156988664879L721.295281510178,654.9099351005723L719.7941042307525,654.3217840787817L719.3729477314146,654.1567425705817L719.3694301823341,654.1705076029278L718.9698832440769,655.7338802009967L717.9947988468776,657.3235297129054L717.5105626362681,657.3720558883217L715.7119247486905,657.5521554357383L714.9910692353261,657.5641058031476L714.1880539486754,657.5773756022224L713.044526831257,659.1373558785447L713.4561083921886,659.6831085445043L713.9657502314204,660.3588258102503L714.6931573853151,661.3231516058604L715.1858709646174,661.9762637582867L715.4164766957684,662.2819190529699L715.7628504645049,663.5769385425905L716.8014153470411,667.4587906417107L716.8318390011749,667.5724799271735L717.1028719976375,668.5852315140003L716.1884385042063,668.983447979726L714.2966039488915,668.2577553942837L713.8223774993558,667.6197711685113L713.3969913204178,666.4967211184207L712.2105735879577,663.3637004895629L712.0819939125033,663.2053091167086L711.7105453336758,662.7477165742799L711.2576404977599,662.1897323990696L710.7885137987826,661.2663902439328L710.6222299107847,660.9390816029837L710.5393648049785,660.9550944213701L709.7530461417725,661.1070171120695L708.4689434686707,661.3550174050462L708.6869242011908,662.7072509743031L708.5406327618133,663.0762936878298L708.4544239761732,663.2937605078381L708.3355635707181,663.5935831009684L708.3151880970235,663.6449786056658L708.6646570377155,665.9391362765618L709.398371404734,668.2075562852099L709.2903421155451,668.5911925186156L709.2115673898004,668.8709277534251L708.4107292762037,671.7142173163311L708.4032509103206,671.7407637368062L708.4003591414538,671.7510288051906L707.7852660517306,673.1606510115636L706.7242573003517,674.1483483072695L706.663378566859,674.2050148244452L705.6772595175305,672.9267974591253L704.9170631118075,672.9283568443439L704.2533391558068,672.929685460225L703.9477754977702,673.389284415154L703.7604930178549,673.6709612038214L704.1912386885879,675.5879318146326L706.7724656408496,678.5585134399004L707.4690774912041,681.9691146815522L707.5051339697243,682.296745662437L707.6589237819776,683.6940528579967L707.7413320193779,684.4427195716837L709.41029985646,687.6249207637997L705.8570506172297,687.5583967338075L704.6622292334349,688.4921518147971L704.2704313651573,691.275482105441L702.4204861995714,692.1042420274305L703.080622699305,695.474250850667L702.9153842998462,696.5897380761605L702.0283007981409,696.4418723563379L701.6115617990563,694.2197662579031L700.6759688328839,691.3689580906241L699.2649002440749,690.690594339346L697.7423843307313,691.0324433022498L696.5924276650641,691.6824981481525L695.6592832349667,692.2098894756093L694.4883154714315,694.7745545935518L695.3526416261773,697.1815548905064L695.3317684633173,698.474453217109L694.7358067712688,698.902173056752L692.061615804113,698.099204875547L689.5437754448429,697.901806898834L685.2518224395121,699.0577321640031L684.497569404228,700.6382598133916L684.4760811333741,700.6832834146844L680.9716891203782,702.6297512126421L680.2465424767945,705.097034374766L681.5443885230602,707.0043384962391L681.0609148227405,708.8592692062523L680.2989442642532,709.0611808708023L679.4868400628591,705.6950752594161L679.487823895841,705.5636046827208L679.4996615408447,703.9813316169368L679.505565380551,703.1919237001109L677.4485462695618,701.3864745513357L674.7994315660134,700.2392111080677L672.0142541504205,699.398669021246L671.4978333609336,699.2427497012782L667.4832407149078,699.1478524876081L665.5272271889528,700.9908179090978L661.8474271650965,701.6629695528161L659.9860321267049,702.532396452121L659.4714160796966,703.8262635481353L658.1836314964052,703.5064374281587L657.5823759705561,694.6721039977226L656.3115943371058,682.8736581529378L656.0178932567837,680.1447895726535L654.8851174032295,669.6126560832006L654.8325676129714,669.2731293346658L654.796186303116,669.0380607027415L653.1877879253884,665.9674795862516L652.8877689167128,665.646166701803L652.3490999613773,665.0692209155086L652.2655685051644,664.3545292898298L652.2530014453122,664.2470014623345L652.0551807654085,661.1494321349076L652.2993148595705,658.3520120146941L653.5566367287655,656.7248335547608L653.5593387408842,656.6782512059292L653.7741503865948,652.9739971172205L653.8220447714275,652.1478468152276L653.823365895244,652.1249561677987L654.2291885273288,645.8721861301887L654.1650142420206,645.3876936118725L653.6827732481917,645.2506897842243L653.5493066767325,645.252329697255L650.688022618781,644.4677994040323L648.5153349199767,644.0268493287058L646.3313173840811,643.525062417779L642.6092019909734,642.6690587773793L642.5998600970389,642.6669090296211L642.598213640742,642.5240002509661L642.5986157149914,642.4957517501766L642.6129635055102,641.487620138952L641.1940953134687,641.1108616030228L640.3806398834008,640.9234450844388L640.3797611893494,640.923242610117L638.5490246945002,640.5012655186267L638.5485293375041,640.5284257787947L637.6890787829973,640.3286838844195L637.3543777958923,640.2295207528352L637.3409879407454,640.2253825901903L635.8384159109611,637.8272735537502L633.9179759126725,634.7610813347083L633.8967315123869,634.7271550157185L630.0707009212563,628.6668481598119L629.4395769445822,627.6666756217355L629.1702843579628,627.2398512100498L629.049530885829,627.0595729239444L623.8790823950517,619.3360056518787L623.8711834193417,619.3241996933184L622.0562547208995,616.6110430913867L621.3330339805959,615.529598455401L619.5350748680586,612.8403519131568L613.3738847610518,609.4338275394219L610.6018041401533,607.8998487630719L609.8177650044047,607.4658413373318L604.7961415992899,604.6845800149263L604.4389566779365,604.4866500944003L604.4376056487297,604.4859014117291L601.7352944294378,602.9390866769224L601.3295807669032,602.1934038878322L601.3432052040558,600.6942093308409L601.1201516303022,600.1409670678547L600.5545918892897,598.738034273342L600.095535686337,597.9568134875785L599.5888478622022,597.8540847070302L598.6531184366831,597.3267193724035L598.2746230322768,596.6161625089849L598.2422900995385,595.9383750882935L598.3969042664853,595.3372353155985L598.6286112811375,594.4362765133802L598.6222580670486,593.6869380699657L598.6853767135916,593.2847597264724L598.7231986366742,593.0437572842673L598.694054728141,592.9551264774499L598.6412910231979,592.7946621080534L596.4716941614513,587.7817639155562L596.4891112974092,587.7306073381287L597.0685511774932,586.0285258649792L597.5054938106664,585.5784799964941L598.4653856984675,584.5896743129292L598.9918414126652,583.978708582034L599.6242609471584,583.331151469378L598.1140552397487,580.8605441463743L597.8454228890789,580.4209888142805L597.7355601815009,580.0295177322387L597.8713363226228,579.6297966627127L599.7392043303098,574.1288325821353L599.8612355020741,573.7693139313267L598.9390231394649,570.3734541230106L598.8110912836071,569.9022653783928L598.8104925348496,569.9000600526774L598.5498800886762,568.9401124647889L597.9967037915115,566.9021721594642L598.2575649794779,563.8731071816226L598.2579260691855,563.8689134960093L598.3592713465185,562.6918061833334L598.3586670885422,562.6204990873198L598.3876821607828,562.2771490850635L598.5033862626594,560.9078184606933L598.2270444785717,560.9553047683165L596.5998756368592,561.2348023767054L595.7613616851427,561.3787575301974L594.7929487559578,561.5449494651594L594.3105348390928,561.6137950530378L594.2627725288039,561.6206103267674L592.1953768504962,561.9582846598959L591.6120942815434,562.034274748289L591.4266066788846,562.0714132208467L591.4257726957252,562.0715601298836L589.9423905113532,562.3327821573855L589.8930217610149,562.3379125495828L589.1998434832778,562.4099291982745L588.4858221501117,562.5527003407474L588.4587664985968,562.5581094691281L588.4575781165446,562.5583470563334L587.106234869094,562.8540453032776L587.0784154048856,559.2346293245158L587.0474314130395,555.2032424899743L587.0470469175723,555.1532133629889L587.0449125566402,554.875497469325L587.0254080543893,552.3375781457366L587.0513809914181,552.266086059907L587.014388510783,543.3613987061528L587.0070122796907,541.5864513501995L587.0070099425707,541.5858890012515L586.9893354259658,537.3337110707395L586.9576386216373,536.656946298416L586.9219218531022,530.951086449854L586.9168286890206,530.1374538193794L586.8833526896506,524.7897612347739L586.8414649684245,518.0985561817206L575.4706438288791,518.3881063520087L566.5501860386929,518.6089047711381L566.5467135267072,518.6089896345474L559.7756577804316,518.7728545529931L559.7541695425125,518.7733694613862L557.7499831996869,518.8212519261594L555.9269518506425,518.8645614445591L555.491267970996,518.874877383785L555.2268738094122,518.9119402542777L554.924042799272,518.944489354018L554.9226914306495,518.9446345880965L552.3714838743736,519.2185849450456L548.9472105948017,519.5855547422103L548.2449789383892,519.6607074379956L548.1657749433888,519.6967167929153L548.1570479115492,519.697002285291L547.7661536492993,519.7097843451611L541.3513187970483,519.9180127188475L539.7436350800754,519.9697457460447L538.771057055052,519.9922600098768L535.1215195599027,520.0761512510428L532.4675164117316,520.1689115983733L531.3652479319572,520.2072916089658L530.5459559934815,520.2357633072011L527.3564845956155,520.3461532353031L517.0223466550377,520.6989146763312L512.7552355493654,520.8423857201735L508.3650833952507,520.9886583989712L507.61223392086225,521.0136060794499L487.9519857377367,521.651002191362L485.083471478762,521.7417308761237L476.2888119293879,522.342199110506L475.9167056972206,516.8204668335586L474.84433385226424,516.8075270922268L465.07096796097323,516.6858778376413L463.9942111179046,516.6720654975949L460.1108287287247,516.6215746625414L458.64806593677383,516.6022817630632L455.6174410253613,516.5618319388708L454.1761672044712,516.5423690647095L454.0503420870176,516.5406630110444L452.07318121630396,516.5137089299556L444.0944273661494,516.217888383013L444.08945429520236,516.2177026053969L435.7929623569965,515.9053513756197L432.96439946299625,515.7977535506503L426.53558444449436,515.551110399169L425.00769843475933,515.5329779680245L420.52741042927204,515.4788629090931L420.50782558595427,515.4786232616487L414.0190987954287,515.3977429468594L406.3874047466287,515.2988344890194L396.80193666774625,514.7297501391474L396.1625142300715,514.6915573002028L387.2978489467531,514.1590963957917L387.29044156254645,514.1589286297093L385.3000130114301,514.1137088066688L383.4932856425474,514.0724215492744L370.59932654520435,513.7711138960532L368.9454967822783,513.7316221948754L359.3697123474779,513.4991866810558L357.19252549966143,513.4454407122971L351.59848667553223,513.3659069364328L339.3076934755775,513.183446926622L338.2210775539196,513.1509454963447L338.07199788393757,513.1464799490055L326.12784932780886,512.783629084078L318.0794231244621,512.5334728488822L306.39040568758713,512.16205555496L302.41385333249605,512.0335120577639L302.0158078741945,512.026401391613L301.6175798312708,512.0192763331211L301.6078127656992,512.0191014418277L288.52783914733755,511.77887850487645L283.51968130910825,511.6837202377209L283.5154266876002,511.6841892026336L282.6080534925134,511.7841746351022L276.9691835108124,512.404212354731L276.934038511468,512.4080696819555L274.8418373118773,512.6375391614358L274.81827519819325,512.6401216339628L271.5716941108838,512.9955758081366L271.2897062551707,513.2161053711817L269.1363986081345,514.8997404816158L267.1533738823049,514.8706417233559L267.04651234788423,514.8690658085059L262.6308379177708,514.696401535743L262.39747345534425,512.6272840365668L260.0269814011739,512.4461158389175L260.0258134099071,512.4460264755003L253.0969963802453,511.914200252334L245.2229701194435,510.90419205589916L241.76088951451047,510.45869520676206L239.16200434167365,510.12370632820625L238.2298300998367,510.1205210390201L234.70401738294686,510.107921607198L234.34661345230992,510.10659573006956L233.0164184795945,510.10158227648753L224.43629173643714,510.0662603649431L223.3168349056137,510.0612708695772L222.84889208321215,511.08569368481676L223.89903765278422,511.5317675819484L224.36303055975264,512.2166753852428L223.72437547276974,513.9148486046365L222.78916844575045,515.4824058370161L222.60771714999862,515.5083709401779L221.97728095483475,515.1476868442325L221.55387756264295,515.2537147266547L221.50062510790931,515.8767775083659L221.74334751131195,516.4481703672202L222.16326466697805,516.8788400825379L221.7511308539263,517.7263154436812L221.2105000820128,518.3577697320208L221.18382656248002,519.4447871769344L220.41026012413607,520.1600404988853L220.35806393768394,520.6216584736876L220.2213213462215,521.830895987012L219.21781810371294,521.9582712187641L218.09393572555047,522.1008401093762L212.7406327455439,522.7786785720659L206.95274247844975,523.5092222237154L208.06140936824943,509.67470496074765L202.4183518831518,509.4764512047124L199.1798802580184,509.3616651405057L194.82910517734433,508.98583226307613L194.79897130620662,508.9848787060266L164.33018367196468,508.06315833701973L158.8986776477085,507.89199710288716L156.46922474188068,507.76383011471887L144.71089426988948,507.1376356957053L125.16167402109926,505.91881182776194L113.29317434226402,505.16569231254675L98.09041501712494,504.186466829137L97.75857649321728,504.15341060096125L97.25626260616747,504.1182259328722L97.15666884179075,504.1112477504589L81.38152198264066,502.9970862367784L81.0323268916739,502.9717046648654L80.54518283320596,502.94103427259836L72.79363318238711,502.45074555368114L72.23811966944379,502.4154461930339L68.83063895963659,502.19844568424844L46.25199565671289,500.7398414725079L44.499994463814915,500.62515509614263L43.4604246474164,500.61790549868414L30.08900628855298,500.51789348053603L27.562179102763935,500.42513948845635L26.159545248564484,493.2518933908345Z"></path></svg>