<svg id="MT" width="1000" height="1000"><path class="state" d="M31.29383960412241,285.1027017627241L31.8894027109676,280.52151203416963L32.173589227179036,278.18242885352595L32.35483636755322,276.6904687460179L33.78465184947504,264.916639436173L38.9602569410456,222.237128844948L42.5013465299798,222.62396448555782L43.25610845311047,222.75564899662157L44.371073854544306,222.8901148498947L79.23299193617589,226.9320945978253L85.41234026060152,227.65927566903216L85.75161643946603,227.69891508941058L96.40871958203127,228.92887496534271L100.77362653492423,229.4241568184472L101.92545772549448,229.54013320874253L103.51577097253374,229.69969806256614L111.96824155598392,230.53684943614837L136.1039040445496,232.82609121854804L139.78809051010415,233.16235476839827L140.06892576283303,233.19427620221396L154.70454747850164,234.50457630877358L162.06625122556795,235.14286303177138L171.27680635132384,236.01048141107412L173.1863110594839,236.31415669592465L174.93738309728633,236.51492971883783L176.4826533605206,236.5962805686154L184.73952585224816,237.38404609967586L185.40019338718668,237.44632082420654L196.59134874012642,238.36364796666558L199.78541360986685,238.68550971019934L212.41029926434538,239.74461154701822L218.60450513275953,240.14487632537916L221.04420153544538,240.29983692864596L235.82654488391944,241.36056391651735L237.23079357595293,241.4975571431686L245.8026640375611,242.03403293007753L249.21138911389835,242.24215560117486L254.9985789185127,242.6766699486256L255.45735161038306,242.69678975026113L255.69813275536706,242.7180924475387L255.97015006036452,242.73260099159393L256.3440888960151,242.7610944847084L256.5446659750768,242.76976916992987L256.79453095940136,242.7849244832991L257.1043442855149,242.80351273470606L257.27348748094,242.81180094813206L262.7810095023775,243.15904604363473L262.8655152169696,243.16713518604507L310.5366109672898,245.88376020623622L323.2163960862697,246.5087596269398L326.90147838511103,246.68271707601485L337.24904666935566,247.1973310666261L337.4718662480655,247.16760987385544L339.475409783616,247.27420344185106L340.5044235146978,247.32855169286452L348.32822094712196,247.73294249423404L348.32794095237057,247.73609413500458L355.1640785383988,248.06393365265322L355.1691252189463,248.06006889156876L374.46789604450976,248.86341391488784L391.5026908741468,249.39525085273658L406.432385892619,249.80068893929518L411.2554474718741,249.91955629164303L412.2839457352002,249.93854433919395L419.87992646775723,250.07045732674538L419.93578148493776,250.067597084419L430.5623863937091,250.255007841883L440.34272268198174,250.40213738088212L441.7264719731894,250.42099120219632L446.23153564216193,250.56996152741408L446.2749907068261,250.57013036879204L450.9421854606043,250.5854721383138L453.1547079089329,250.59081182538227L469.59741901402367,250.79976278398112L469.6432119594986,250.80500673774492L472.89622187103794,250.8319696559383L485.93023490917517,250.89954304460443L498.4395110882169,250.93424250608953L522.5842694665943,250.8888216749904L523.4021029222304,250.86823280933302L526.0438910753139,250.80056411517535L527.275481136122,250.85278371051174L531.1739875592068,250.86291962475923L531.225400670517,250.86527573706633L538.4905200852124,250.81268359932938L541.1018595257175,250.84760171238736L546.9160899676355,250.8175645367464L551.3776177363814,250.78869296917L555.1854908698376,250.76005201159674L555.2061348817775,250.76491018367545L559.61954435666,250.75857017037714L560.0628744773577,250.75293210619478L572.7531651014467,250.57406809325417L584.1451216396913,250.37865046704727L593.5009787610023,250.19349625585795L597.583352227505,250.10868055157636L616.2094699740471,249.64503279897437L635.6573603865802,249.06679261401115L639.8307354750923,248.9301700281383L640.6468583034898,248.9029349108117L641.4589032406539,248.87566770197765L642.2787870455488,248.8479670808651L655.5738483097721,248.37490613089201L675.0884178789922,247.67573867809205L680.8146313737918,247.3611982466645L684.4319595090731,247.2078486952999L694.4063055162443,246.7677429807643L720.1605187053287,245.5141496995677L733.4921968415164,244.79880773384775L735.3955287209795,244.69298208383472L735.9915762540105,244.66562699032667L743.3347046690546,244.24395045427883L744.6349756168186,244.1457622923388L744.6370556429631,244.18102515079767L746.1884278485995,244.09723509191736L753.9463390084425,243.6011693965947L754.424890398222,243.58466428015635L761.3637890750106,243.17347399601096L763.4372746176819,243.0478685143738L763.6622471625247,243.02050760793597L764.3392028399469,242.97157526365208L773.3446118974,242.40094305051142L777.8929096637842,242.10486352205788L784.1209613851421,241.65271244502404L793.867998879502,240.93766528515448L798.1786220220013,240.63471075720963L807.4481324134149,239.9719431212839L810.2282550072472,239.73302172154817L810.6005742096188,239.71373856601383L812.7351908737871,239.54570161371103L816.8674985917582,239.23710353462508L825.033937042882,238.59705597743573L825.3346455842568,238.58466862577092L826.554364650525,238.48792600735084L826.8421479972951,238.4754373380421L829.1740321877628,238.2909977000415L834.9546030314702,237.80944047003197L835.8636932881745,237.72984046867268L851.1831620220448,236.46932489822902L864.6026216792536,235.31567877154606L881.4115694482275,233.73167015119964L889.0527955060678,232.98342578682824L894.3207515685463,232.46871201410053L899.7468352317909,231.93107810309223L906.5971242502421,231.24149865904604L925.4830096767911,229.2777193404782L925.6541008022148,230.71915443386064L925.8835741138219,232.99403977530613L925.9231112296886,233.32607336004367L925.961524033727,233.86366149502572L925.9964149555681,234.07244786680607L926.0538688432706,234.6677298156989L926.0669817186033,234.91512637330703L926.1493452149004,235.6244468471066L926.1895567406086,235.95715740415199L926.2609309189609,236.70921916979498L926.5201973689166,239.12408990226632L926.5822297182114,239.71390066705123L926.6401089545056,240.19000545720172L926.7308826327239,241.06952289136504L926.9030293237907,242.737379924761L926.9258301755497,243.03023497714463L926.9396879326143,243.20822800608417L926.9609180885514,243.40248628771872L927.04186081754,244.12831469345724L927.0759350530143,244.3296332060378L927.0970660302003,244.5486687174007L927.2748686328214,246.39166943548167L927.7647145823732,250.85065845124984L927.8956854079477,252.04263717275188L927.9988027166903,252.99733333837685L928.293001220589,255.56983695086302L928.4390115227545,257.177078334112L928.5045120165764,257.65006777262647L928.8253486141668,260.5875906756979L929.363592364531,265.51438997284316L929.4500411645854,266.3055489616805L929.5228310443304,266.97167303819054L929.5375656535523,267.0870260661992L929.5878279208966,267.57154193614156L929.604230305426,267.7297144023104L929.6921445993469,268.57787521789226L929.7124030039502,268.72132163933554L929.8990827003553,270.32460542710567L929.9040347535267,270.3671326691902L929.9041275854772,270.3680429887361L929.9840196446542,271.15146095201726L930.0028401153115,271.3054403327909L930.0361666656102,271.82901888650633L930.0420701388764,271.92177127800835L930.2722851489071,274.30215635757463L930.2927902447234,274.4635579985096L930.3785506336837,275.13857031303286L930.4831997792903,276.09493323293543L930.7335849302675,278.3828979712038L930.9215248011635,280.14794653562853L931.009670639726,280.97571385322715L931.0113028191645,280.98970651163154L931.1178769553849,281.90332815558907L931.1090988454877,281.9829304719789L931.1118881323125,282.00084527782343L931.1942998724926,282.5301273235265L931.2781548549063,283.43913420106173L931.4620740453599,285.44980385467574L931.569380255124,286.10870488699004L931.90373379421,289.1549873286069L931.9925273413206,289.94750853789435L932.0821765931084,290.7476201626762L932.0844696531876,290.79431870036774L932.1549783940068,291.3882241924774L932.1786642407409,291.5393115181317L932.4844034466573,294.3373611814104L932.5906919945539,295.466742920882L932.8460675531608,297.7630006893273L932.8650716199799,297.902574897142L932.8651209638988,297.90299426032686L932.8883765641599,298.1006367778459L932.9628771541414,298.73377153667536L932.9842086719833,298.9150483042596L933.0593217727925,299.55334106985765L933.0879015394198,299.6208912456276L933.1000430218351,299.73475863655233L933.3462943451228,302.0440402438543L933.4710417847438,303.2137762203005L933.7299526363834,305.6080501903999L933.8186437174081,306.4281393213853L933.9947294691946,308.05620889718097L934.1715922499595,309.69130035711987L934.4375522541276,312.1497866811973L934.5145172022048,312.86116810327087L934.5315858983935,312.9568154518584L934.5477802955049,313.04756175731893L934.6706079042497,314.0524328689047L934.6833358785884,314.23291442790253L934.7240236107209,314.5905599118157L935.2502407224729,319.4724332733186L935.3020146196427,319.9526785925784L935.3294798258487,320.1142104891617L935.5180258640862,321.94708747764264L935.6674045189891,323.28577873886525L935.9697574826491,326.0073101147206L936.0055297830444,326.3292683632802L936.0606714829704,326.82554102883927L936.3347598639497,329.29206661367937L937.4202249048636,339.0559856526927L937.7808232450717,342.2981385116906L937.8168997947203,342.66850467938366L938.0901710972656,345.0788427979883L938.3276386047194,347.0018044677596L938.3996549099945,347.5590406121752L938.7205673323947,350.2583950021011L939.186316829769,354.17484241352554L939.5716644088807,357.3960983004306L939.5752199990501,357.42581615170616L939.6195681921242,357.8719601111405L939.7329756310232,359.01281631670264L939.8060656921391,359.7480682818704L939.8071350461416,359.7588253720222L940.1567762057826,363.5554536303267L940.1762865225937,363.69663302239104L940.1793440967642,363.7187578069498L940.2017081395352,363.8805832563304L940.230667016255,364.11837912907816L940.6903749741833,368.88875375903604L940.8425759809008,370.46805858157785L940.841538873029,370.48949381490246L941.6631613679037,378.42794977438075L942.2754925597335,384.34245717223143L942.390928580817,385.79114343400937L942.5254547483324,386.81676139360667L942.6777665938666,388.27203127790233L943.4722441901299,395.86125999640336L944.2093634962257,403.16210140926546L944.4491081229964,405.5432614872574L944.9242213901586,410.2055080850914L945.2118825015853,412.75672958277937L945.5580051655734,416.3512940770946L945.6988573934673,417.65931845606104L945.7214913813739,417.8671805537474L946.380293011124,423.9161986327921L946.4145264019689,424.26246480710097L946.4503167898308,424.5492748433942L946.5077585174848,425.0656945823685L946.5162311475387,425.1701545238906L946.5361970693139,425.4074282847882L947.093520563461,430.9005625730432L947.8845117473047,437.94572142511925L948.2218818499144,440.94950195447507L948.6200798034213,444.89890237700257L948.7662055866143,446.2225254069561L948.7720791912005,446.5250313055048L948.9232310864343,447.88520822675054L948.9579732501634,448.197826090685L949.0383244963007,448.92749133877237L949.0878213559315,449.36789680406497L949.2544342845238,450.8242393617875L949.2924213596827,451.19797433115065L949.9731819216729,457.79429969971915L950.4280366979983,462.20065694198695L950.5184933221894,463.0251291746302L950.5194347775976,463.0391199375268L950.6961605650968,464.73267660598054L950.6980312105161,464.75060222432586L951.7492242305386,474.8214027606542L952.0931181542148,477.94479286643605L953.0758974347855,486.86731916581726L953.1155202160489,487.23873409783084L953.1284441608444,487.3351438969209L953.2037366141577,488.18942800103736L953.2743398740524,488.77713428666215L954.1139050306542,496.4780557915939L954.1139792356612,496.47874196137445L954.2627216055982,497.8540987864759L955.3594939825559,507.99206910231123L955.745780068172,511.5612572627348L957.2082283017005,526.0091775182292L957.4670739099136,527.9604510702118L957.7758034461144,530.827773886058L957.9887372706079,532.8201701857115L958.5388987625425,537.914787201253L959.4611800397142,546.4519676218696L960.4667377749023,555.755224123776L960.438147613014,555.8811888004982L960.4944990998715,556.437617242376L961.8821644010336,570.1363767146308L962.6717319422485,576.4487654058634L963.5696320104037,583.7379971863509L963.5696811779285,583.738448395112L963.6952937502787,584.8911504084633L963.7554487360471,585.3033837659239L965.322689535564,598.9541624437699L967.7662976727909,621.1464003484551L967.8798333389526,621.979495497525L967.9099845299563,622.270866626585L968.0143198778607,623.2791015849748L968.0183922956799,623.3184541576625L968.5107095880103,627.4506632365783L968.5423293791346,627.8421532528058L968.6174286839773,628.911810830034L968.936932513908,631.3355145577808L969.0448679351565,632.1541393905688L969.9427799384405,640.1687367624756L970.2076601704747,642.3976252554977L970.5562976570187,645.7432447109184L970.6664472826345,646.8347674256237L972.2257608142595,661.1050972398768L973.3415769802023,671.3092116783753L973.3874201791484,671.4157702649727L973.7861394804698,675.2388153564151L973.7669731954054,675.2872005729635L974.9164399824411,685.6789127547789L975,685.999882407378L974.158777979278,686.1965863707749L973.4873905746626,686.2913950492455L957.6473994176881,687.8770881974011L939.5412430647359,689.6957170983464L939.5161354019326,689.6982232214458L923.5821930965718,691.2097677890984L923.4788427107324,691.2491966645047L918.4283672609563,691.6254001202108L915.6751738079599,691.9387391681655L915.2448855405293,691.9654955056709L894.3706784475098,693.7308538664431L894.2857569185276,693.7511139503515L893.7931354491616,693.7995859206353L892.709649264071,693.8894567010404L889.560811021953,694.167567419953L879.6426553957016,695.0283066320737L865.2618799987608,696.235236383045L831.0893896813591,698.9083002144324L825.9223528173309,699.2886221525681L820.8702648651328,699.5950045676648L820.5255732949734,699.6156906083688L820.4612592680174,699.7323873892326L819.3644640948337,700.5549599480769L811.3841328852732,701.1136468703994L791.6594339916369,702.4305106676023L766.5997641415695,703.8678501399354L766.2543167610918,703.8866377531537L739.9692618646336,705.2343923051512L739.6296865786971,705.2450924440236L738.9088054765072,705.2800650611912L731.7975792184438,705.618552909568L731.6269987297185,705.626527340661L730.3421301812807,705.6863750400818L726.5668125642936,705.8599945517307L724.5624023699287,705.8914008682117L723.7423861204891,705.9792815686321L722.0143409127124,705.8135937581183L720.360830745073,705.8172393634217L719.6498817213984,705.7670514741204L706.0986479283905,706.2843021298863L701.6726248094183,706.4439622465876L690.0401093687246,706.9316678573099L683.7338006227201,707.2300302758679L680.463794867594,707.381083236271L680.3788846839981,707.3924863318297L669.7522140337984,707.8029774277055L668.6454650091653,707.8442145237397L660.8415288130559,708.0852400650115L657.8146708896307,708.1749035245966L655.3118218803372,708.2474313226089L648.2251127994887,708.4448702589867L647.9524079577837,708.493538471883L635.6421670844949,708.8823404287814L629.9245761172687,709.1031884440697L628.2980865295235,709.1865054486198L627.3727220582174,709.2989388855995L625.5608532514401,709.2540028629656L606.563086130593,709.7765547762976L601.1588421630685,709.7872658706683L600.1188413384109,709.819555526107L596.5726704182981,709.8991429349813L591.4602250985964,710.0087258576891L591.3944470919638,710.0100961022933L577.9933670909421,710.2682380969887L569.3452784136377,710.4126162402899L560.4286971281894,710.5432384933868L560.058601254455,710.5482599469838L558.4197595394224,710.5674392871346L558.3403035458354,710.5683532629187L556.6403737558576,709.8488231189365L549.0853603023286,709.9566762832865L543.3930078975402,710.0291568385672L542.9075508842653,710.0398514874792L534.0954230128018,710.1714509420499L533.2076089667503,710.1433213723491L517.6484650269131,710.4533715169609L510.2485518719205,710.4665078289775L503.03845404257083,710.5652481016666L499.06690129539163,710.4861157762039L494.40287785315513,710.3756204606304L492.68656018695975,710.3336831876534L485.5419369680861,710.3028631776629L482.8054934075078,710.2879109051685L482.2712384635265,710.2735414199715L482.2707054319002,710.2735270501561L482.21257729111636,710.27195959735L480.2805565330443,710.2194136058214L480.21411417167207,710.2115311681688L473.27841029608356,710.1252226443615L465.86537703838974,710.9545676137154L458.63847151132825,710.7919989442267L455.5220880127789,710.4814572777408L454.0569083216913,710.4737382256085L452.3561755480722,710.2697520887672L449.0129630381282,711.0159924308053L441.95821221034,711.0752082998254L437.06382679263515,710.9802342070547L436.6270467093325,710.9985199635837L423.96882429520093,710.7452310096687L420.2152206992755,710.0070829548342L419.32707509191073,709.755181960904L417.3929631014481,709.3590934752702L395.92433600020814,709.016734452984L395.0199470148432,708.9948357628532L394.7261687421385,716.6539789049821L394.7666321679134,716.9274354325145L394.4467163198278,724.7669420692181L394.109588539396,738.4600309575258L394.1057155275732,741.3478515745693L393.9298997039141,748.2858472590151L393.80680619336357,753.1425111667359L393.84229054991073,770.8970863219563L392.6937041431084,770.6297933554802L389.91620667863106,769.3954057386495L389.9102057598792,769.3927362454883L387.7214395186043,768.4183387214828L387.0105402918889,767.6599532246735L386.55131673959386,766.145059699275L386.43041593362807,765.6323508137925L386.5134061669273,765.1779892828843L386.73867651025313,764.6299581777369L386.89516718883976,764.0472217747528L386.7874850808947,763.7505216742941L386.35083261474813,763.5746635349674L385.97997953627095,763.5312260251663L385.61304341010657,763.3573339382133L385.37085849578096,762.8935274135041L384.8046394670173,762.1271023464351L384.195631335126,762.0097404167309L383.41102310759595,761.5633994588422L383.12568849910366,761.0003231765677L383.07557604026806,760.3465090388285L383.13758721848217,759.8265868060555L382.96165115095005,759.4952472926765L382.37560185807166,759.149580933374L381.4003817216068,758.5748464348088L380.9522626857869,758.69477842392L380.254040442381,758.5640415700533L379.7890044949528,758.4721283174073L379.4999131608539,758.453592930066L379.30221170919106,758.3470196933457L379.1774604269005,758.2151563134215L379.06734788581184,758.0111462332835L378.9985722128255,757.7118170381096L378.9860617522852,757.3952905977601L378.87760502115236,756.9382734969698L378.9148546805278,756.4543671077079L378.7828029818992,755.6837346385919L378.65942634002533,754.9916392782188L378.5080231000478,754.4864385599664L378.2570558942975,754.3222040933163L378.1743670037249,754.1162628095665L378.2409609183112,753.9295518913482L378.9007382632752,753.669611905121L379.39355866685435,753.5381640796015L379.6309562444625,753.4574997913187L379.8582345851038,753.3080618872444L379.983470778409,753.2180529835214L380.00034537099634,753.0309821727292L379.79017816927524,752.8585813894606L379.5693888647656,752.5641231894913L379.33392480420156,752.154898195018L379.0177250812232,751.6869656498063L378.6523470722909,751.2691247407668L378.3711118897287,750.9029158474292L378.1715600715344,750.6287251375005L378.01836241631673,750.5457588717177L377.77486195852094,750.5068865292402L377.62216425450976,750.4082833650398L377.5289611371177,750.1864267633125L377.46288282128114,749.8091559867717L377.38882160004033,749.583085108638L377.2055266521829,749.5039737415199L376.534602237939,749.7248631437621L376.19354657274994,749.847323104536L375.9919312118266,749.9747590126426L375.70854770271046,749.9524989756412L375.4948157953339,749.8259022790753L375.37372057892503,749.7432763699528L375.2463125300295,749.5515675189903L375.14362890684015,749.2824557199467L375.0805116936009,749.160635730774L375.09376474549106,749.0412485878554L375.23605850625336,749.0324915904986L375.35488813585584,748.9804224223745L375.49772616506255,748.8411682932955L375.6101769310686,748.5786744273535L375.740004128025,748.4402981980342L375.870054752284,748.2444371335539L376.0567202271289,748.1564098809806L376.2781949662618,748.0223317419376L376.33637913558266,747.7657670557003L376.10980241104403,747.5221966504214L375.8326848461283,747.1937877676401L375.59533267383756,746.8964894881505L375.48992344826394,746.4911179761391L375.3254687675807,745.9247242676429L374.9666704029656,745.6549381017874L374.4886721783428,745.4084649015072L374.19293729967177,745.3013149185833L373.93736507722394,744.9407343902432L373.8970873227116,744.6340872640586L373.95697306304436,744.3305497540891L374.01600985528466,744.0506149702799L374.0432514739232,743.7226558836078L373.6921927489448,743.2181315087889L373.13887658085383,742.7775708688317L372.45914329204066,742.1214457587167L371.91298697651496,741.4694847770545L371.73847187428544,740.7772377377839L371.48387311913405,740.3048113298271L371.16136587359375,739.9655055914845L370.69788026234977,739.8564020088152L370.28264263372495,740.162405082337L369.6794027691083,740.3863665906665L369.07392860527625,740.3218413203356L368.3696148423213,739.1451823020653L368.255752546389,738.575466291361L367.57995289485507,737.6058262119043L367.3435175332623,737.3937108617633L367.02085202609817,737.1041863389688L366.23424653532237,737.1948893110414L365.78053425717405,737.7899457062284L365.8470169592614,738.2852532750294L365.8294533734804,738.8010980365243L365.5643606206306,739.2382722464065L365.5888027386138,739.8480580427145L365.4338575138046,740.6191937230114L364.9479434726435,741.1662500672744L364.44130268378234,741.805052743037L364.1277860166024,742.1356545993739L363.6987771828384,742.0626944165823L363.3117128706096,741.7216804437298L362.8870984035826,740.9872071907694L362.1224141575774,740.9139411217908L361.34359085813776,741.1038507552332L360.23471369918826,741.6663693830735L359.2518129854979,742.0576606854409L358.88468459230535,742.1330165582262L358.1299880137741,742.2878186682171L357.8416342807461,742.5957463150316L357.7475622031261,743.147706913024L358.1391519385213,744.6478201699297L358.4856059426064,744.9880543832271L358.6385280448991,745.1035415665897L358.69485347204915,745.2771786978226L358.73275868466476,745.3768060746083L358.84450536530875,745.4098247963332L359.0321385940133,745.396168293569L359.1857036825978,745.5766705155653L359.3053011963295,745.5865627945092L359.44567836136247,745.6633737680776L359.45697453941364,745.7337214045376L359.30557925919754,745.8917537993925L359.1851916325719,746.1625695448992L358.96833017440184,746.2308020462428L358.9108946298842,746.2965917301393L358.818395074803,746.2647292075534L358.7574494757327,746.2858351770826L358.7630569593058,746.7431334891655L358.80683455869575,746.8684938420608L359.01961040958025,746.9724764799207L359.074772318417,747.1165823656437L359.0250679288298,747.277417857838L358.8081082061928,747.680152162631L358.03217445185936,748.3067860276327L357.5641287594445,749.0402248169414L357.1971789671134,749.3363096561244L356.7602072680892,749.2574150638035L356.2218061715812,749.3322662973897L355.5961753682582,749.4653858689525L355.30662413186894,749.7036932618071L355.24363187920926,750.0134006940505L355.3186147568211,750.3901212288654L355.81332041648113,750.8132726881879L356.2416679926411,751.233977674215L356.24917622373744,751.6394432916458L356.05385901255545,751.8526754087952L355.40231066612625,752.3568051763862L354.78251506367167,753.3125699020932L354.3729489808454,754.236269518957L354.6619075203753,754.4338981421047L354.91982906970543,754.5507282056417L354.62573858543055,754.8116491106698L354.4381027258232,755.0631579694705L354.4627309870182,755.3334939697886L354.55032368982586,755.6074322394502L354.7994749801363,756.0284710223345L354.8854333608884,756.796336803251L355.6717584448352,757.5209927215458L356.15944508118736,757.9264173429052L356.29442259106446,758.2741106475287L356.12781133074157,758.5066385666137L355.8984852109238,758.5141076042469L355.6765263992653,758.6050381239467L355.5253749917207,758.842348933566L355.5855132103681,759.1860796209778L355.7228326570457,759.2726243619294L356.27792390707873,759.4013503737781L356.39631688622933,759.4830712336053L357.00907821598696,759.5180974280504L357.94554550254793,760.1513524743395L358.09780792424726,760.4298646855452L358.3066489337636,760.3149037205385L358.4118622921224,760.0361685725143L358.89715896503037,759.9690438001576L358.9773811851506,760.2110608688349L358.885295337491,760.6170477430215L359.0000303800517,761.1302114512082L358.9752906602021,761.5057794929395L359.31831013329383,761.8856877408798L358.9849024546773,761.9772249093028L358.94663899651914,762.1522119869281L358.62919661518015,761.9285639495336L357.9657414496229,761.7505823212651L357.4672175749669,761.7897188492144L357.07969112614785,761.8661031220308L356.646356886272,761.8487455565005L356.2960756126099,761.7016736997105L356.1866126271591,761.9306891311581L355.5685294405463,762.3845070815692L354.9603479890188,762.2447922754932L354.7543067288751,761.3942724122734L354.2771373720683,760.88149328482L353.251213775536,760.5838105395055L352.62475678913324,760.1390586095549L352.4191066569417,759.7873938986326L351.0558994499638,759.9591797506489L349.1676255355717,758.9897090722538L348.6587949864911,759.1282959275159L347.8321982553276,759.9552196575474L347.3416570252525,760.2256180676641L346.680508960109,760.384192037595L346.46833680708215,760.3157613543085L346.0334446649897,760.1754602268975L345.5014317167147,760.158127649992L344.8605034410254,759.9619357340645L344.4358148048759,759.8319746047233L343.9994650689629,759.6983395771524L343.6700198309025,759.7468195060693L343.29322315459115,759.8668773000804L342.81743637091824,759.7747800541076L342.32337439057505,759.5485400987191L341.7830120726413,759.427655131852L341.3337317454451,759.1953036989219L341.06343733270137,758.9089168065981L340.84329272495063,758.900182842129L340.37315539205713,759.2491078160253L339.8959967346954,759.1688767799824L339.51704869991636,758.8166061346769L339.2363073373966,758.9136601006057L339.0203978418332,759.225772888276L338.87460989642364,759.6688966499402L338.6129369175535,760.1286838626597L338.5096590240512,760.522917679637L338.21486902493393,760.834101955553L337.8226223565042,760.7709511378644L336.39326115175743,760.8171865616055L335.61068812801375,761.0553416573272L334.5241818221516,761.8349738949019L334.25899330035764,762.286222346278L334.06049525297885,762.4870516858502L333.64979185610827,762.3781292101637L333.171210091718,762.3275866805584L332.79642842502915,762.8077903241276L332.4246129323618,762.9403569386503L331.87915698961103,762.9176238535224L331.38633570842796,762.6824662616923L330.9911310014849,762.7271417133088L330.5483868453176,762.8618725387043L330.44183217652267,763.3171428303599L330.453744085804,763.7266544455952L330.313711457585,764.2563956391127L329.71629795608254,764.4515703865989L329.1635957831643,764.4940343342123L328.7817558856094,764.3200199849111L328.4970632926056,763.8173876306354L328.36776018064546,763.2601291182483L327.92396824938965,762.9039378555412L327.4827532627352,762.4459542206395L327.18837110373784,761.7077292345132L326.98640496632515,760.8034629078263L326.7900898343809,760.4519315859834L326.4343732814681,760.0711754969132L326.4391037821191,759.8500306075887L326.36956002235235,759.6917436498765L325.84749987865274,759.4002200714356L325.77189753748746,759.2099967131829L325.7468185072373,758.6154418352314L325.5730041859549,758.4234560715508L325.692952027499,758.0429812186403L325.4468931828434,757.7399287024215L325.33265381422314,757.8835456381983L324.4331649325152,758.2143962995101L324.2572094733074,758.0578196988528L323.877214243813,757.8932826591L323.7237763766393,757.6865789567028L323.55846607263686,757.7442216597276L323.31206232076454,757.9433443314155L323.22839743399624,758.310279581186L322.90426245896504,758.4100393088255L322.5298255919689,758.5621933306344L319.2419264012748,758.3568098780581L318.81214757849216,758.4507221305257L318.6518545772728,758.6541672373125L318.47694148849746,759.226187583718L318.291794204216,759.3935498922365L317.8516863020825,759.3468014803664L317.5781110053251,759.4423344591874L317.2997438877601,759.6456094286605L317.03443870598613,759.9845217272497L316.8728571344886,760.380405013008L316.6237761754342,760.5595460338916L316.2313340080264,760.7306438126946L315.9061999317447,760.6889134241799L315.21635657005686,760.6305415158114L314.7383695649818,760.7781757078196L314.40765584211306,760.6475202144129L313.93641752553174,760.4370271784103L313.72224523940724,760.0763880050673L313.53895066122567,759.8790801495645L313.34327823203205,759.9509734415733L312.99780326142934,759.9350531161247L312.6994779646525,759.7324029264812L312.11701119451084,759.435683075837L311.6602496197544,759.3177044685694L311.4445636496397,759.7729326693184L311.4921030958368,760.3609980224671L311.65279714559233,760.7363584036939L311.7851013665506,761.2013249678821L311.63947053128175,761.4375303144659L311.300141492855,761.28679616309L311.0414156497083,761.0588815943165L310.51265471411676,760.8452066111278L309.8610242228758,760.5942707633342L308.56741583232247,760.2961810742938L306.49299149183685,761.0343104535876L306.2040568585031,761.8202758851091L305.74964444992554,762.077153304356L305.3145846830761,762.0584651238528L303.8210095333794,761.0799827269161L303.5319733462886,760.1505528620293L302.9347667048969,759.6963921923667L300.58808677177336,759.3753755801376L299.27309462563096,760.3289177402559L298.91874002814745,760.3060195868709L295.81764633864327,758.9207899417798L295.20160010472733,758.1862137844062L295.27391421235836,757.7557719164313L295.4561434865164,757.522455367713L295.43998689271035,757.2776514433289L295.1770684166317,757.1415078075821L295.136911838219,756.9438996499318L295.226331698017,756.6254019572445L295.33601004902965,756.4845505250782L295.21277448357364,756.424429761098L294.908379585326,756.366848353432L294.3749388470385,756.1187193467894L294.19786455054896,755.94576153354L293.8263184996787,755.8716425358357L293.4694478707371,755.9550716182644L293.2491819128468,755.6967589679593L293.0321654707078,755.508778375181L292.87770134078414,755.7111049519957L292.78398701301865,755.8517579785052L292.21829166206373,756.1081537420066L291.7058234952847,756.0453899609909L291.2801752615403,755.9878331508683L290.5688145171714,755.7161086416681L290.15558646796603,756.0082064375379L289.9724009441496,756.4851056022928L289.59411559244313,756.5854953892793L289.50566347522306,756.7843044023502L288.9908812420116,756.7373503752807L288.70803713135837,756.8944159251139L288.53102220798,757.0697347747977L288.24303070258645,757.3549274598868L288.04199397395564,757.7551610846247L287.995574033564,758.7125165079153L287.627741342611,759.022024210429L285.14719119019446,758.9417008449393L284.67484607549693,759.2764622653468L284.23862983972447,760.0534249311659L284.2113886764862,764.2605883014209L283.97393657893423,765.0549597307122L283.557016403533,765.7766017204505L283.03000248886315,767.2594087061063L282.4008560498174,768.1780313928175L281.7508295603709,769.1267802989228L281.3479123530368,769.4210331370344L280.9477277105876,769.223645048392L280.5341007476221,768.8755387406424L280.1587551895514,768.4362003621239L279.56957746390935,768.2648634896868L278.85347116315063,768.5989617666268L277.90225929029396,768.3611695471318L277.55019533859945,768.1092526336847L277.277139414727,767.6287704937788L276.4565813118064,767.0610767439929L276.09145795320546,766.8190732631319L275.88491165597213,766.3420531693421L275.4029877941816,765.8399525062654L274.8985612344345,765.5430860416943L274.3525025603176,765.2734598669723L273.90485412182375,765.4884486135884L273.4128957476097,765.9734816913272L272.5384152672434,766.7633799369585L271.9693078260991,767.1428942186747L271.0350587171715,766.6907942253947L271.0340136046972,766.2221374234273L270.4960408969566,765.5597931506195L268.6118196124289,764.4890345395195L267.8999320967073,764.3360726227133L265.9492694770731,764.6904468208511L265.0562013550251,764.5941179577266L263.6404411808958,763.375842961555L262.14722985568983,763.7546325185915L261.98290041367886,763.95683210705L261.7065546257206,764.1731715611204L261.3504393742521,764.1837665772864L261.35118026596535,763.9462823423975L261.3228813626207,763.4716041151983L261.0577058988181,763.2016047068151L260.3968740420939,763.2190403119903L260.14709021599566,763.284757809006L259.6511738155307,763.4856769424547L258.9602181912447,763.5725725846132L258.8107274238622,763.6983155356897L258.67387158382763,763.707386272662L258.3610990387846,763.6072273358155L257.83420097019075,763.0086804918117L257.01824146903357,762.8514452776521L256.60434902682744,762.7166651735611L256.55710037523863,762.4520747832939L256.5244087493073,762.0935836273685L256.06995605763603,761.8331847356745L255.73265856672828,761.9099553019732L254.84567928675017,761.4458834555603L253.90881980852788,761.2343015412184L252.53424543565524,761.7630949347198L251.879156218505,763.0042218107028L251.5905742828864,763.0271544753482L251.3113970886177,762.6237724398915L250.75330116712604,762.8791143599569L250.01664705957626,762.9072436313653L249.47948926631926,763.333589072977L248.56109768444998,763.204950325163L247.03746627425528,765.3256060383347L244.3229538401597,767.9463411268123L243.52049541990795,770.2344786467556L244.596642510251,772.0964450405565L245.26674454079097,773.9267645192401L245.1109626324622,775.5896741891788L245.02741686783367,775.6912776403478L244.44979561554334,776.3936026355686L242.308327972413,777.7628711550519L241.43537126887816,777.5013743690595L239.36866885801265,774.9708541142243L239.24464190047286,773.6445025379405L239.26198082003486,773.3813616659861L239.12503205898196,773.1192417907673L239.30329596097147,772.5864620210813L239.28658891298033,772.3940071939473L238.99388422513084,772.1800234977599L238.82996324204038,772.0069569250666L238.58069185354736,772.0602455246319L238.28064197140395,772.4511037488463L237.87044275780733,772.7084771908072L237.0849297050553,772.2773716570807L236.69336812281404,772.1598466717978L236.48567730996257,771.7526150324429L236.40707849703955,771.3295366094942L235.7555498765775,771.0817328595795L235.51625002920997,770.832463360605L235.3222789299681,770.8619526630955L234.96556089101614,770.8793647198402L234.6114303248857,770.791896767266L234.18016987206897,770.4632224045472L233.81467730615844,770.3237505160123L233.65152016964316,769.8324445548321L233.71310981715374,769.4370231857972L233.16577383627413,769.3959967213118L232.77280399255062,769.4203210130178L231.38582375127464,768.0927076232747L231.05564173628784,767.3581281399418L230.4658127666417,766.5868447406428L229.6787414387503,766.0310056403123L229.33788810218482,764.4162762806774L229.56231790953348,763.5582017967537L228.97398364747136,762.5173047961395L228.63905382447552,762.2359192999984L228.158643853203,760.8531743035695L228.1400916582462,760.4814865670548L228.39964163939612,760.0944779260922L228.95579491390373,759.7139504017857L229.11761338939232,759.1883681530234L229.25838071050305,758.6615454013668L229.5334316134411,758.3519464086654L229.77387234436333,758.2484910520625L230.04405694530806,757.9776924630928L230.02596331376054,757.639619707003L229.94933443331308,757.1878762595659L229.39791375070268,756.8539548823953L228.91590381272982,756.4352952646858L228.7048161007283,756.0939020546464L228.43780543071642,755.9572090038558L227.8996348723885,755.736067088938L227.5544996636279,755.5120287724701L226.9498648785364,755.0254543278916L226.76995929628356,754.5372043592924L226.8877233721082,754.0388300030237L227.02474045800471,753.5715607605132L227.24766974725128,753.4076362733274L227.58015869421808,753.1914214753178L227.74554250984357,752.934367349781L227.70952940976548,752.5152259971749L227.23602167946854,751.9779237623056L226.40364244264947,751.416833930265L225.84132279650407,750.8638640401844L225.60844424210023,750.6199591062344L225.595699020601,750.1726041426199L225.5599393282286,749.7535415433877L225.16545826726724,749.3106397215299L224.66361156956464,748.890242397458L224.1961091840385,748.5912981621724L223.93374931335921,748.3951926465732L223.85007090210155,748.0622487383368L224.13569079728802,747.818071437965L224.62462501256272,747.250933499781L225.009424868378,746.5623640260776L225.299308487776,746.3436404348126L225.77565633101915,746.140474715452L226.24619445437713,746.0860898613923L226.61120309005724,746.0439799503298L226.8120133453026,745.7621563308492L227.22436446408614,744.824634796576L227.10326706948717,743.9252608172819L226.5337182756653,743.1151702562513L226.025027249588,742.3913544688105L225.9811691398421,742.1782571560898L225.85301826120752,741.5554722717193L225.766170473734,740.199471663049L225.7417479154774,739.7284229728402L226.0784373722908,738.8513256301744L224.86950258813312,738.3362875213414L225.12137758311275,737.7340306693256L223.69492170976378,736.5735047911119L223.52483748878348,735.25580303364L223.60362498640683,732.8551483617298L222.80303977746183,732.3379666504501L222.42148129582182,732.4293302106298L222.33706367902323,732.2682377726096L222.44930151578586,731.7087866735337L222.17168892962496,730.6896274887259L221.89242458862765,730.3640176354611L221.41630624553045,730.2498609447159L221.07229071625164,729.8924182120846L220.89111408411264,729.0161391756935L221.45290567927634,728.5097649237881L221.51155239659738,727.561282248809L220.7805798638874,727.0577421738253L219.3522790792601,726.4727508702135L218.87164312740515,726.666447665386L217.6448478512799,725.6158182160065L217.36178311540937,724.841172659779L216.5203434858875,723.7738409540217L215.30900673031533,722.8768251400675L212.93444980426978,722.1154726538417L212.3062044095331,721.0364325300484L209.6317389012471,722.0530568067607L208.0232693265034,723.038497087995L207.5986625661945,723.5225932176272L207.3590149898602,723.7061936842547L204.58319721340246,724.8533695585368L204.1431626058952,724.9380318965983L203.97523181867928,724.8994068347653L203.2971274920477,724.2977165922209L203.17723648748114,724.0581223106033L203.11609748558232,723.8662684695482L203.1480520655444,723.6182018183231L203.84692262113975,723.265088304128L203.91045304982254,723.0682165330588L203.24506319390144,720.764396303682L201.62275962222918,718.8768369896374L201.07783524163227,718.5385435874525L200.54296565233483,718.4691654851389L200.2754719571994,718.5173217126176L199.8054476474689,718.3816798971307L199.19962618954094,718.1345169593181L198.8226504270856,718.0392906233985L198.43338548900607,718.1122902833192L198.23253472328724,718.1881146921503L198.1399859187345,718.2510518179868L198.02779628490333,718.2816322203073L197.9602322564403,718.3038401952265L197.90720376928346,718.2766802011037L197.91586666535778,718.1959661213724L197.93187757105756,718.0149293929542L197.9059935889021,717.8812565518615L197.9256980564391,717.7237702359828L197.85264346458325,717.5206994161482L197.69595082005594,717.0432597817457L197.54949465993013,716.4234181701548L197.30678302994772,716.1349173439369L196.98924819673613,716.2131462913928L196.6388263696362,716.0858272357736L196.46779075672788,715.8025537350245L196.3758005223661,715.4236694994636L196.18993670674723,715.3422799776355L195.86842814516717,715.1494501814883L195.62318626024256,715.0274567898025L195.44453744193976,714.8149358644963L195.3472360723556,714.45881159036L195.29490463082686,713.7323060484068L195.10135863525034,713.3945904083114L195.00713083752856,713.0879602392774L194.98371441105053,712.6876329441218L194.99550423166858,712.2898064782661L194.76811535056402,712.0237479027252L194.57209432002054,711.8099433221668L194.2048023632243,711.6183249633674L194.01849661191602,711.4200241846512L193.8373976441465,711.1765154075457L193.88372684687914,710.8755283760036L194.06901477360282,710.5019201678674L194.20011146150807,710.1629493062267L194.36436499094475,709.8512341914162L194.43169233100514,709.6569804563496L194.3236060652709,709.4496001690843L194.10467760921023,709.3088239632499L193.5376288897437,708.3947907224099L193.11470692211316,707.9150478544616L192.98023063335955,707.350246924471L192.66255897234015,706.4118019734968L192.54636349682704,705.6061220277887L192.58149589113611,705.1355690297137L192.88864382370042,704.871235719452L193.12308671772786,704.727712526494L194.0284626222146,704.7549408943727L194.51579960698496,704.9690474828042L195.1140105562892,705.0995961288468L196.3608332746429,704.7935605464678L196.69119591828263,704.5722665284006L197.17355049448844,703.8626391225642L197.21858380344577,702.1633023627353L197.2240177282451,701.9583545498598L197.11941385530474,700.9532718126889L197.2706575771881,699.8566593772501L197.2721131705032,699.3589754175246L197.41647978373726,699.0710105218271L197.93756339516733,698.6862267405669L198.07788350664782,698.4027756689551L198.0898319352264,698.0503979147043L197.68696553934745,697.5479487853809L197.49773535905342,697.0114515568779L197.35017253442436,696.6272995748647L197.47406892098428,696.1387672204136L197.54002127567685,695.7206139146016L197.55533423229008,695.2738722310568L197.31495950746142,695.0374590896864L197.06350307207993,694.7897753524234L197.00529296712313,694.3875061357605L197.2002507533764,694.1281661821185L197.36926210345473,693.7425544208282L197.4432538603075,692.9768954728897L197.3521363363817,692.2151883452916L197.08480185681321,691.880866569998L196.769237952607,691.6336442434615L196.30256679383018,691.7261869994038L195.57678843226273,691.7961953022221L195.13694982881054,691.664911218734L194.69550512688284,691.4596783085065L194.51539185152757,691.0152026150538L194.56641062879248,690.3294183203909L194.26856938305826,689.8330461320695L193.77640901555117,689.4947039033812L193.1632761332766,689.1471515639087L192.5456072632163,688.4544873007892L192.0406081352964,687.8694243948385L192.06982098837517,687.8399795616783L192.37098000099792,687.5363990232464L192.8573817435011,687.1131374814006L193.26591684025357,686.2776087355455L193.15005738126501,685.708827540005L193.00317114475718,685.5414663128246L192.816801761261,685.3290948628814L192.31885371334977,685.2917845624302L191.62134363596823,685.3182153362052L190.7499647333134,685.1810016224118L190.03049364447577,685.4485858837247L189.35662980842437,685.3254122524784L189.04841540380033,685.1240819686675L187.85472453274315,683.3929476494882L187.71357877398714,682.9477240139573L187.80399970363442,682.6810946351309L188.1441707640721,682.3054443339133L188.695284969763,681.6735358045581L188.6983935269447,681.6699709186219L188.79640647917506,681.3893971909533L188.70255542953868,681.0094082048073L188.47276887031552,680.9807103836768L188.1412013452089,680.9555162266006L187.68408243170722,681.1179000905727L187.19180651622588,680.646807457044L187.16868393065369,680.6127403126751L186.86010075595453,680.1580385847126L186.68530824871408,679.5236028516002L186.6470292847169,678.831527943157L186.77688999498582,678.324611211403L187.03511265825432,677.6368492607739L186.99243561359248,677.0922004710019L186.76004539602405,676.5576904844997L186.3713804052843,675.9306187895714L184.98750722652005,674.7425788824141L183.49920223823182,673.1476403964591L183.22964412973283,672.7559182048143L182.77488227789968,671.2994550802L182.61431662274077,670.5340948934524L181.44243249503376,669.089784619203L180.3947164927522,668.6562468374309L179.92719641032596,668.1002303553298L179.45060057713528,666.7180045086027L179.4448262593845,666.0915542349649L179.57348946031885,665.9549240990987L179.70895431116662,665.8110596307224L180.01327975180686,665.7917618111954L180.46812124697277,665.7843078447187L180.56168457632162,665.3613170726215L180.24063178928907,664.8199255211885L179.92300488804744,664.2358282400758L179.54196723821264,664.0768866118311L179.03730565367044,663.5641462862571L178.61642796774794,662.7567277633548L178.03196050108158,662.1085174282667L177.77863333057508,661.0992395887317L177.49505390558357,660.4746950332658L176.90771566941078,659.8692543458819L176.43508009904275,659.4480232747916L176.2204829427905,658.9072008577205L176.1808287907665,657.5019774007673L176.24610240459344,657.0545231872577L176.6336727713241,656.6721298132195L176.8537693504681,656.3354601246723L177.1227360040263,656.0812763460615L177.2085068378575,655.6946901044264L177.0655873478907,655.0539642443529L176.70843414948007,654.8001764855092L176.6378751684888,654.4316927768771L176.94280726527512,653.9604835824222L177.2468790553349,652.5162245258988L177.2365325470484,651.9171270536457L177.14961840800225,651.6552837828067L175.92745043431154,650.346044822969L175.115554254272,649.8393763430502L174.6513272216513,649.790857331001L174.14753010438318,649.7381959927558L173.98567472140058,649.420517199409L173.89507585782735,648.8800196474145L174.00506420873245,648.507806989174L174.3539906608671,648.1547773799293L174.87382110873972,648.0057058253861L175.29636636492052,647.7347204106561L175.34401286739217,647.4719163554059L175.0466493521775,646.9219946590239L174.5127449343878,646.8344588736821L174.156061013007,646.6155502270472L174.20671376396984,646.314902707704L174.36969093070394,645.947111584248L174.39744017687934,645.2638838068642L174.13260696892405,644.8999878363347L173.71330380960256,644.4264774695666L173.66979654633974,644.0597967167598L174.01995581198742,643.6344612929287L174.50433601693447,643.2543072797629L174.45794553110915,642.8318082845025L174.50019474175969,642.3022043529944L174.76303805755668,642.0185856882249L175.27610392597848,641.9452690779608L175.51618261913,641.6564075746621L175.87754384587697,641.2215372789167L175.67972810652816,640.2264117451284L175.65489398003558,639.1967389925018L175.43742503972942,638.9130293182302L175.27655250391734,638.2532756019378L175.18920281508503,637.67546312359L175.35787675977838,637.2322128000675L175.67342220994618,636.952885560936L175.73002386850118,636.5768999774795L175.53010585242043,636.4087723882931L175.06229830478736,636.2573691692897L174.08817912079013,636.103424934977L173.29570204177446,636.0231610671967L172.78297869966195,636.0174325056325L172.2407103257342,636.3536668571365L171.81055491405846,636.1685903839033L171.31206917043977,636.0273789842995L170.7016343971627,636.2206576083582L170.3059826957712,636.2088979823071L170.1817853498734,636.0917215599063L170.2259074863507,635.7981972365968L170.46939894148983,635.4135555921782L170.74753963501485,634.9509939165393L170.88276771399404,634.6788701071467L170.74914176473766,634.4053667173196L170.87243439036246,633.9303319419087L171.11253797261082,633.5858671919206L171.30717805011392,633.278264652551L171.51704461782248,633.1335379685925L171.69161804293884,632.7231724519445L171.8050746784533,632.3686241871025L171.93419724943152,631.9950256787957L171.96975995410867,631.5534106082305L171.83184615438154,631.1583298228828L171.71993017132672,630.9674891284053L171.80264402986853,630.8967321007586L172.16946457911297,630.4783321193604L172.53124760880848,630.0444533749213L172.90419270916902,629.6080765002168L173.1354028223842,629.5458464915615L173.36982585796545,629.4434642488409L173.63080328779932,629.3633987174449L173.80580030824274,629.2966288579602L173.79378904790855,629.0936808472886L173.75852369889424,628.8281616459125L173.73086537650255,628.6441644423164L173.50051798908459,628.3429297949317L173.42130876012516,627.955517792071L173.20360732809644,626.8272738573569L171.9744299893324,625.5213973457958L171.81538680263878,625.3997863237169L171.52473694239853,625.4966771604778L171.24205143363395,625.6767196189494L170.9705280765113,625.7153575669829L170.77233800991758,625.7195234150737L170.56077519134521,625.5408508528061L170.375672424098,625.3845057307757L170.30285753072695,625.237135062769L170.1473880982026,625.0629891805163L170.01255189266595,624.8097399546714L170.01804166404105,624.5678718839491L169.833013006976,624.4113991647429L169.5043512098099,624.2837572362398L169.25181376691035,624.2632390742297L168.97004588611924,623.9738602016855L168.4040138402171,624.0932831347665L167.86684920271938,624.2716010054444L167.3809115916929,624.5147416738564L166.9120816595938,624.5809917099492L166.63713773567213,624.4538965066768L166.3622322030772,624.1890494970282L166.10547512724912,624.0467191424917L165.86118824572452,623.9257070366718L165.56156635811362,623.9616818955805L165.42757766935426,623.7444191121047L165.5309799491414,623.4745340867179L165.72823718558215,623.3090057057863L165.9344948473401,623.2046700186779L165.89485561754992,622.9994967854988L165.8115002488476,622.8109282260996L165.79494165699475,622.3248649919556L165.90128397963645,621.9490463790052L166.11240052290134,621.7250311429871L166.37959239444604,621.5651272644691L166.41590592007896,621.3670312420351L166.02679639243394,620.8624855417363L165.811862033921,620.5057236895392L164.57217230293384,619.5435783044396L163.83720331598846,617.9261659598823L163.62738019539466,616.7008446642465L163.7144109202302,615.614274481549L163.64238210889613,615.2538178282879L163.44334289388303,615.1407874340407L163.43655352599257,615.1369316358L163.0748635368749,615.192240627053L162.59176014194531,615.3339148328596L162.5916306463384,615.3339528000367L162.47826353451887,615.3671894707863L161.65933662615743,615.5936780593177L161.25955248808043,615.5525779620183L160.90658593866016,615.247151747846L160.86341565787905,614.9519179115937L160.85492974820568,614.6951614904364L160.88550191424133,614.3286376697818L160.8956222608661,614.1272191444366L160.86963163268052,614.0432838346426L160.75632883024332,614.0060696097979L160.6380377254577,613.9671528194037L160.27883646659745,613.9939590176882L159.8699313568128,613.9029651376413L159.58630641302813,613.7372717352125L159.35474824932197,613.6610719049322L159.10419927117204,613.8104907898397L158.92378422882365,614.3065145332739L158.56052259583765,614.61677376755L158.06880723459113,614.8027090267842L157.76382527906537,614.89068343073L157.49520433495456,614.7827942796225L157.34946611981513,614.6285457917429L157.17319213485206,614.5408973166693L157.02244352140417,614.7429574340244L156.9371362420136,615.0481831518152L157.00952637680103,615.3668316215679L157.09915177005337,615.7151726831294L157.0927503135129,616.0270765831858L156.84674275144113,616.1199742047697L156.4658876162187,616.4002923859671L156.17097074783572,616.6026730679798L156.03364402945147,616.8182455862714L156.06889621612595,617.1053492439007L156.2840090358245,617.379181203587L156.56205792120772,617.4989212955093L156.85532709509232,618.1375633487827L156.9527416213752,618.9431596083806L156.81528619515177,619.4252250553354L156.4581706087755,620.0243975614055L155.74363516423364,620.0241560530193L155.26542576620062,619.9220747021961L154.46991668755516,620.6636311514396L154.16851531199273,621.2195794682432L153.52359024732675,621.6339232862381L152.7146079203643,621.8470827295707L152.29113431844127,622.1115745891318L151.8101124099358,622.819663826851L151.81398425686933,623.1423455326528L151.63049807553472,623.5388133136481L150.9801001569948,623.911571921961L150.7971121567811,624.7521537528519L150.81232726745407,625.5753180641038L150.39119167318648,626.2140073628548L149.22970554769188,626.6779212753449L147.4226396917909,626.766729676664L146.58194446513767,627.8405684433998L146.49050458142898,628.0561120209587L146.7600406706635,628.4923894772872L146.68444350149997,628.8952978743382L146.10454209790265,629.7827172784245L144.66791347289802,630.1245828696254L144.46821765549106,630.1720607840182L142.4064482899214,630.1654623785705L141.82466941484728,630.8030818480308L141.39026318385595,631.622939202272L141.21938576007534,631.7950360032366L140.32651073078426,631.8364518647122L139.99146559765592,631.3819146498197L139.13000563238705,630.8334622006188L138.46584621222922,630.4039644087643L137.92154828733993,630.3132373232406L137.3300248524435,630.3001666781199L137.09497870684515,630.279885707711L136.82165325452075,630.3219827821533L136.6370629672353,630.6519579493851L136.54487311523542,630.9265776725214L136.46269968063922,631.2274544434666L136.47215027750985,631.3706442883016L136.58514939267633,631.5941015356415L136.68625722846383,631.7884517475906L136.7039680253742,632.1262809177978L136.69118392496802,632.4572016114937L136.62325707334674,632.8281151236683L136.20968390412673,633.6725779874364L135.66334875191905,634.2114756369915L135.48717829560746,634.9327494100988L135.20836111310672,636.0300412481758L134.96901748492718,636.324385016194L134.37190925228094,636.4932362195558L134.367849574675,637.0892130086406L133.61944632846553,637.6654398154383L133.09574997989756,637.6536177087075L132.9145335940791,637.7543140505559L132.78249576392193,637.6723071264063L132.37393420675568,637.650140435826L131.88579641046704,637.9776984449416L131.76476374891502,638.2995356171211L131.57306309310673,638.523330353717L131.0459005513863,638.7441641625342L130.6401470640564,638.6958934688232L130.29443986699619,639.0673943440923L129.83973037261916,639.0212960824521L129.58909287489683,639.1740841876231L129.21983192503234,639.6438731128811L129.00346326188065,639.7410218091096L128.04944509950792,639.5843346099552L127.69427467176092,638.8863938398648L127.70801677471934,638.4409514427704L127.5650736727057,638.2160211037677L127.079722923762,638.0676499222611L126.9219188824415,637.8208792289377L126.95375185315578,637.110345471208L126.66081931940931,636.5456790982769L126.69563833365731,635.8939605115179L126.48419094509256,635.6057133921437L124.77053118190508,634.115608816994L122.82228517037566,633.2778053320918L122.38866835835029,633.1487355466147L121.89345621071789,632.8359689487792L121.92970837111625,632.0380459852279L121.62984192361591,630.8767412251348L121.22080622871556,630.052364237232L120.32634412916082,629.2150034375745L119.86289641835839,629.002242334752L119.39955742243296,628.9665374053147L119.29307995536027,628.6168173416072L119.50127424157785,628.4476349307649L119.48477966281001,627.948152180156L119.84668530951302,627.2236947575929L120.10517574096258,627.0882876710203L120.1078197419821,626.9038687586924L119.31813455147926,627.0105597972579L118.870398669123,626.4390652737017L118.69198587071037,626.6378396475288L117.89933206282922,626.839946362897L117.76091532173973,626.7448485265452L117.19097220899727,627.2238477892943L116.62652734912507,627.3570860435593L116.00476023256942,626.8612696672928L115.17544863215198,625.7415752883164L114.87730567557406,625.6709760120996L114.5299925814017,625.3720183364845L114.3069433377396,625.4329270822975L114.04763465127513,625.7662431578699L113.67274574496025,625.97900711749L113.11643995022615,626.0890354197946L112.51802403557508,626.3719815657374L112.26388185227057,626.5942061016666L111.96934827420142,626.9400125441438L111.59182851556864,626.5837867785528L111.25826846324975,626.5521188737953L111.27146437612396,626.0193958949425L111.80122797522813,625.7060382294025L112.08086688251353,624.9747990799051L112.18816040026013,624.2374283969046L112.07800403062322,623.4651116229013L112.49060050364648,622.7825999444003L113.79654416137646,621.4534723172309L113.88354880866689,620.9278517008366L113.5057513677229,619.9115721117671L112.8030446687489,619.5382740140992L112.1796931279062,618.0407555764989L112.21533098232993,617.3666329451479L112.45365549460257,617.0979311888385L113.1767593884747,616.8991014495381L113.78836854892415,616.8819851684068L114.05829513548076,617.1018506777201L114.25445335159759,616.5129181884932L114.15652671743811,616.2608559919148L114.28152464628693,616.061154661635L114.61645673549822,616.0520138170144L115.12803789980183,615.9009022179946L115.70536270441892,616.3032948297887L116.33929833035626,615.8470650115609L116.67972728363048,615.6301793066822L116.95259680504802,615.4666085005696L116.9828900069237,615.3011770011869L117.16308208217032,614.928875031169L117.41152360390811,614.6534715395353L117.70772920570226,614.3129456860435L117.73634703109781,614.1563619030687L117.69003014924118,613.9827203699328L117.64873830735132,613.8295168826669L117.5872574758506,613.5949112739974L117.6126324818394,613.3981033340034L117.6729252467133,613.2743885255915L117.74921708195149,613.2019096574725L117.86505539911775,613.1530980701284L117.90053847188904,612.9971721557979L117.82722601097839,612.7696504316525L117.70451026036591,612.640356623068L117.4954343613195,612.5710288764429L117.27580175940261,612.5403945861103L116.9875415931433,612.5231550252619L116.81075497539553,612.4297374742965L116.66747332519537,612.3539367690039L116.65697388434029,612.2434414672712L116.72442957861506,612.1834660600204L116.84870939131156,612.0524751711191L117.05016097338483,611.8325309812685L117.52000057379195,611.6130046105L118.21209345200589,610.9845493680398L118.45237665544647,610.2584653268524L118.3597499928452,609.3912135015087L118.07361029540431,608.5411478407513L117.89336744540424,608.0054954872985L117.70418085496385,607.8239092134098L117.45045440408427,607.6409279676L117.29633221254352,607.5070781555264L117.155947890265,607.374513308049L117.05552715966593,607.3352066193879L116.87186843364333,607.3676651063051L116.72483541166798,607.4160464212188L116.5492175505251,607.3274114792224L116.30102590359263,607.2343902374563L116.14557431397702,607.040739118844L116.01659502416692,606.640573230202L115.83480469885734,606.2851482146218L115.72990575415298,606.1459655733256L115.55824869280781,605.8312845315569L115.2399476441094,605.6719596691926L114.88381238823507,605.3995826818018L114.74290676620006,605.1275730153345L114.81407438825659,604.3737684310638L115.01649861837205,603.8064881399966L114.9607949063668,603.2149607726541L114.46980719620984,602.9020661757602L114.01493867499056,602.593470358572L113.50973336903127,601.561200178819L113.87157347163696,600.8882573303619L114.50693215602502,600.2110232063387L115.43393761316622,599.6924033604798L115.54911459645422,598.9541753067942L115.91041417410139,598.6684996613419L116.27123891865898,598.2864344517277L116.54725240316031,597.8229019210917L116.62876726615303,597.3510847204537L116.95413992033025,596.5902266935767L118.3961244557035,595.6126379694747L118.13809993962394,594.7527633834678L118.39512891188656,594.2182610901187L118.87263371704614,593.7098070783954L119.7729337006117,593.194389650414L120.47076240778313,593.1844190471821L121.04433906893797,593.3976123703318L121.48794726644445,593.81169516262L121.87037808000792,593.6876009299747L122.07497639462582,593.331319904374L122.40238694952302,593.1512563624299L123.30259452919813,593.0176620443187L123.89554038025796,592.6205072286104L124.21878403205181,592.2188690788313L124.78439966118174,592.3904753835226L125.31163351110575,592.6776823675475L125.92779267018602,593.2171628695834L126.65319148138519,593.7037819891333L126.97354896658788,593.749287305887L127.28863789944234,592.8595281442241L127.37183728859605,591.9526343736933L127.52995329446622,591.5308740078435L127.87825539459743,591.5617529143376L128.2233593413801,591.5930090830352L129.00704562817373,590.3582253278713L129.1656965985984,589.577709906273L128.8595110951576,589.3062481910551L128.7619836058479,588.8601257444892L128.66247659992166,588.1111125796269L128.66092213828915,588.0994090098302L127.93852334680003,587.7957345714636L127.31149807702724,586.8084476308808L127.23805490537757,586.1770480609673L127.27230201142646,585.526455483237L126.25727076310972,584.2191974571706L126.1601985129077,583.773199213065L126.44171015775095,583.4504836079717L126.8133491050441,582.9636034014219L127.47212274637195,582.5827514702751L127.84413173604867,582.0968000391766L128.4615948416137,581.7410416550536L128.71711731118882,581.1137626949239L128.65948147808535,580.4612023337116L128.13028968661553,579.3060861708777L126.96368130085722,578.1565943959539L125.35338262685917,577.7932665267997L124.63577679865983,576.5413752090933L124.1409322087435,576.5231979272364L123.29768111179504,577.112874701739L122.76220476773364,576.7770709009385L122.46101500459366,576.3202200487312L122.32057506847872,575.528250601797L122.68045026741663,575.1493201917543L123.15587303328408,575.0671868754227L123.55556445384468,574.6351211055639L123.56670639727423,574.2222197577295L123.43448248747285,573.6844081908076L123.26151775613926,572.9944620057325L123.19874169232753,572.5925372227757L122.75082815636682,572.5860848121763L122.47527589049531,572.7991714269991L122.02456618511121,572.7625947574442L121.47777054215896,572.5931797936269L121.28031401631887,572.5232859545638L121.01888111487125,572.2401578900607L121.20742163793363,571.9242025743483L121.18418139447579,571.4189153802712L121.42770989193536,571.1130076363522L121.87681925030108,571.108674973534L122.14220947858786,570.7382348537622L122.3761557744752,570.1262533243749L122.3764577554424,569.9473583341647L123.08393471743801,569.7393493819734L123.47136230497586,569.7010821598349L123.94650632708823,569.4024530996695L124.02722289177609,569.1575326959481L124.481097460412,568.9704170746853L124.67208539651551,568.5464859846169L124.44463042058271,568.3269445900931L124.21727965853216,568.1074020142278L124.23744067403231,567.5933268798697L124.38317383377188,567.2100312772963L124.72159038865823,567.1224705002944L124.98721154856992,567.2264270607882L125.18638697464849,567.1647602763452L125.3585008513673,566.7847137100529L125.52085839760781,565.3116031375321L125.52952355501765,565.0413554587279L125.46624204550153,564.8758420361269L125.19640821641582,564.4867691939767L125.07862270160535,564.1744292404999L125.06168983376187,564.129523161468L124.7576885675278,563.9662035847246L124.64445232936072,563.660362252023L124.56027464135349,563.0827208423659L124.09800225761427,563.0545151674169L123.77018429164349,562.9499500742867L123.44265530385405,562.9868808953711L123.16015575339884,562.7145323486843L123.00260684277652,562.4741708824237L122.72123431199986,562.2914240353762L122.45586453577903,562.2274614700848L122.20654306091745,562.2824073225596L121.7227136664115,561.9435873660902L121.11027821316458,561.5711495206771L120.93776409048468,561.3365210044345L121.02731469289455,561.0346310325323L121.31908804764481,560.4351553599573L121.28124920599674,560.140990170954L121.10395529830413,560.0069588808955L120.9789228219621,559.7881993921752L120.77902812059455,559.1349969472102L120.70130790746924,558.8811610308637L120.83795308800666,558.6514077915465L120.95953487248488,558.5305460607618L121.24880345552504,558.3181308949759L121.48952477251709,558.249691227549L121.68994686268508,558.1369011532851L121.72593535034264,557.8541264367248L121.7495479535591,557.602043635698L121.81354838624628,557.3536327046342L121.79859439643121,557.0784237757143L121.8331136585989,556.7098870819369L121.92244741213858,556.4959410192454L122.11808969811403,556.5605094025224L122.3685746202674,556.7796460687944L122.5519121679364,556.9923758348872L122.83144184003498,556.901124676853L123.08950146858001,556.7491665619791L123.27320825389734,556.6684662034984L123.62596106775095,556.6623244283841L123.95266022191902,556.6904473585869L124.75111168455106,557.5558986629925L125.21937876417854,557.4453025722643L125.96810031485091,557.0177330232774L126.59299045553269,556.6256651290672L127.02099231214657,556.8652208840066L127.29023266497154,557.0527739106606L127.5024507617266,557.0963039276385L127.57484928855757,556.866404794333L127.47611501444817,556.2910724478858L127.67946710565519,555.0040502678461L128.0008675809961,552.9692185650498L127.64249153643715,552.3107477354026L127.44787158137899,551.5218694265269L128.00266252535164,550.9618296091767L127.83794758986159,548.9849076535671L127.71523864760553,548.4935248781181L127.53966025699697,548.3513521768638L126.4944347435412,547.5046709081932L126.78056403263611,547.1211965340888L126.56310436748333,546.1222749009252L126.51505894194776,545.3558715887599L127.01103451613483,544.7277022723522L127.92394749230732,545.0661593675622L128.90361500650772,544.8244510550602L129.40169355625096,544.5441451007368L130.12276453348937,543.7963240217073L130.3049359491414,543.3168753585935L129.86372875467384,541.2333903874917L130.05990636316886,540.643135601606L131.31905606981314,538.5835616861182L131.75227833551668,537.8745162404657L131.896770831877,537.0667557944774L132.2569886061716,535.0523730159617L132.24808992494576,534.3539420918665L131.7173506354722,532.4749849471066L131.60107396439435,531.9278976214487L132.24733982014146,531.2267308767235L132.7051124268363,530.9335558821148L132.81092445586455,530.4918767719192L133.4379352783488,530.4180601569218L133.59061121517436,530.0523148400788L134.10765161800782,529.6238264032822L134.58836084946813,529.5650337574472L134.84993278156827,529.3625613080725L134.95771821904873,529.1371637108723L135.02086931368348,528.3086571173178L135.05077010583744,527.4417145325865L135.2743843902594,527.0006481735741L135.55155648934021,526.7774750162863L135.66278993779065,526.7681512600086L135.9582536933504,526.7433703636983L136.1221956505912,526.7393588416342L136.3090452109356,526.6509614803299L136.4490511398875,526.5646844814604L136.36839570596493,526.2660198244295L136.2135965164838,525.9503189929085L135.98958833794813,525.8589489669492L135.61908825744456,525.6301412587637L135.38493611954146,525.2818261294445L135.59132432703507,524.5099424937022L135.6954420872891,524.1496955315317L135.78485633702553,523.8402905607518L135.78049215972698,523.8261124549373L135.55609137210615,523.0969517902535L135.51416781799554,523.0755504958385L134.6870758602061,522.6532106821347L134.3222472158031,521.7358231925523L134.3142429146942,519.2450508271575L134.56900312014778,518.8666085102684L134.9790624846562,518.7876007557295L135.72977545724814,518.7144250676241L136.53557420146961,519.078944055882L137.88470904033227,518.8014928512313L138.47409983360825,518.5289740490813L139.00171374505135,517.9021179919204L139.3514538848055,517.2694062900322L139.33840007583467,516.6813731105613L138.8893842330795,516.0888956979688L138.97125685220095,515.6009464480003L139.39106215714241,513.9424539013535L140.01094189594875,512.1930375789541L140.7066471509017,511.3441310838127L140.78526554402947,511.11715446454025L140.8602828890967,510.9005580220593L140.91163955544016,510.7522675220685L139.93901755142087,509.2124587396103L140.44304909037675,508.8838383332057L141.1128340283081,508.1758350797833L141.1860438060511,507.7043042342167L141.8384092277853,506.9151167734036L141.52321185348023,505.99170960836847L141.97290390289174,505.2578942552089L142.05503877234503,504.245567003877L142.29314235604681,503.7787887226245L142.13547750625952,503.25479998162984L142.35388076639538,502.8088477034743L142.11518658597276,502.0222686641205L141.53342972783275,501.1400239153087L141.2119403443071,500.92782292902865L140.6502258652131,500.91056603355077L139.95825650960205,500.65238376233975L139.68087345355883,500.1278742988538L139.42906465960658,499.99017286282253L138.11464833975867,500.1078699436653L137.55807112933235,500.58771081509025L136.7243444690606,500.2320143573761L135.97169056533437,500.76632740515623L135.53672194647356,500.4721806492681L135.3566640408364,500.9608138295548L134.8964374147298,500.84136156816857L134.32595631311932,500.4984784934262L133.29700803655248,500.97129204552004L133.01733516602565,501.23788578642785L132.26566032103818,501.60607949903635L131.93741299276383,501.5954986305092L131.77010834822636,502.53930164590514L130.6752870656926,503.5117178366258L129.16578516812262,503.2406737636703L128.92727195444047,503.0808442966874L128.62570281470738,502.7697082865054L128.2887024001924,502.6008015585582L128.1673160382138,502.28765640659344L128.07676047966214,502.1528890031281L127.31340670300915,502.33187603248905L126.43482745918897,502.12544316807674L125.96748489608171,501.8660569526518L125.58554689144648,501.3349911467066L125.2168759545686,501.16216741101755L124.95695726673023,500.8649738242948L124.56187673722263,501.4048242961384L124.4787537938659,501.4542817681851L124.00297954297315,501.37656060900343L123.67918755329595,501.42926280994726L123.32956174402335,501.6286441320703L123.17847381139751,501.7541671414078L122.69449942959852,501.4205135703876L122.63194294020002,501.4243250358858L122.43895190120531,501.6467569193943L122.02152386466571,502.0589007467283L121.78586922542979,502.2504397215594L121.74350576751203,502.36225868969524L121.5171920821827,502.4774922802193L120.7328885027926,502.4470054637435L120.58820757749089,502.36287738967843L119.09582629210627,501.49463987036074L119.0348292789522,501.0360499412066L119.44740783747267,500.60582233348777L119.2906234371253,499.7171225926306L119.06711668337283,499.61008943374554L118.7896612727273,499.3353460716206L118.09208349730471,499.123301891392L117.68343173033577,499.087113424016L117.56711182415017,498.74937837457867L117.54313430742468,498.57435575729045L117.42661433129649,498.38827643913885L117.43503045129358,498.2838054381749L117.58514704738536,498.1180524588489L117.88431125680597,497.97245724781254L118.00192637235756,497.8897709318475L118.01473029076419,497.69445119322984L117.94960012996495,497.54963673821817L117.84690481938571,497.5378464286744L117.61392691370105,497.5843807295786L117.3952978640981,497.55396018603L117.2838869097319,497.45583223239385L117.42745181526976,496.7592072725075L118.25315987823791,496.2964164266449L119.01974667008523,495.4974171014184L119.0674563536511,495.1229629470625L118.95605671941627,494.996908571496L119.10216634556917,494.6527930535617L119.13908285176132,494.27421235552214L119.33264198468646,493.9186813372745L119.37747215939623,493.69225115230694L118.97875811911638,493.02119958670426L118.51553856094529,492.6755996955999L118.15202224474018,492.0999037317973L118.11187416489605,491.95534047947433L118.04000130301256,491.87145237695574L117.80221907733255,491.7818500425501L117.6603498670882,491.7287135813766L117.62793258777327,491.50949996257174L117.57406222349755,491.33968621076684L117.65108826570611,491.1049526786361L117.60648599314015,490.8186776916237L117.41559723636715,490.5589632347088L117.11816568564012,490.395732835759L116.7151330788144,490.30419338230473L116.53400526278,490.1539423664896L116.34816585687662,489.78587391757503L116.17334233854825,489.69564129393126L115.85256696411136,489.88119634937505L115.58357442168369,489.9509008594141L115.45045204719452,489.892221050906L115.29253731388434,489.8226055940574L114.92182229958712,489.62844371952457L114.70138568393457,489.79584946086175L114.37779247335544,489.8546537599018L114.09498565798583,489.63584218402497L113.7893759956338,489.32138511757523L113.6008785796958,489.3434839205394L113.41253008797952,489.60688856299356L113.3995629133675,489.8593081962311L113.45830856830122,490.0610989318651L113.15849164471598,490.47987154598013L112.94074440652389,490.60190928354467L112.67267318422654,490.7972231328272L112.72789578956719,491.1912351840673L112.4542573471187,491.8362054145556L112.18291806396218,492.1066026019983L111.0828544076029,492.06134610359686L110.05596311471504,492.2888334002597L109.89742313513244,492.4091287369643L109.88941102186988,492.6689250071666L109.71496763388524,492.76754036515536L109.35337526249862,493.2752300781849L109.27348055924045,493.50973976127165L109.28929411631697,493.71463502818165L108.96524945327718,493.8667286463922L108.31169527093493,493.8641208379L108.05619626151724,493.73425837901516L107.7855323025019,493.78646798513824L107.67540055237737,493.5652394973892L107.63156935415589,493.2797321232524L107.7401259904413,492.92961815374144L107.73231243778531,492.84522254900344L107.26972414744841,492.6926554468038L106.95624684078587,492.57263972966564L106.71208740344412,492.51644993584637L106.68927955117573,492.3461393466285L106.3622954362142,491.986129530774L106.26870372177302,491.6555918847243L107.15923630952346,489.84915829137736L107.6383470977101,489.7350748742899L108.23425116161081,488.9814994121052L108.46904911493294,488.24660303392346L108.47740183720902,487.57369946373524L108.61417473697975,486.78441102405674L108.0225862894689,485.93834323264286L107.37442197266506,485.438770367237L107.17650518919953,484.6433844350204L107.27313704731768,484.09146877917635L106.89046828942003,484.23628229892824L106.08192080171705,484.4518446941441L105.47746121311002,483.6781836398181L104.71325558187453,483.7424927985977L103.86995973990139,483.5011493143154L103.43494982828076,482.462907595025L102.77574782811541,482.0281123936839L101.91297925881065,481.09508012640674L101.70121065554332,480.68616624185694L101.67840317374754,479.87811551351103L101.46784231880656,479.6377205538469L100.17195157598712,479.74683386080346L99.54310865948577,480.0556367262176L99.28739381938203,480.6763863813223L98.95934139833179,480.77262983305474L98.84503067085762,480.5026847644797L98.8110349379001,480.1376090125703L98.71422026226588,479.86943124254424L98.83568713094178,479.4515972301968L99.11937511744117,479.005945729596L98.95048657080264,478.57557283017326L98.89135168290636,478.28544950015464L98.42655968520899,478.2931947348885L97.23370414039846,477.6128144320756L96.75224102488778,476.6058023185089L96.77794419722909,476.0096753360778L96.78821674480389,475.7714681152387L97.13609709324783,475.40760653544385L97.22657597637033,475.3129582394847L96.90925080878105,474.446561886799L96.45738174834719,474.2166487711878L96.00206849518918,474.21197426580727L95.49150234657833,473.78190088764785L95.91493302380843,472.82591065101997L96.28421577313588,472.74206544411834L96.9296901872408,471.90896896144574L97.03412205418232,471.30630413353583L96.76190094466176,469.5150768853674L96.9507727227325,469.02941166138714L97.59910221316102,468.1482063075253L97.84810680618983,468.0143758402022L98.01602671566957,467.8873523307189L98.08400301458647,467.5971148829311L97.99665476324043,467.37501833988006L97.81043707998202,467.12387517697607L97.55101515613774,467.0259316555747L95.28303458251878,465.5967217387701L95.4238410834675,465.2833045193702L95.46894535332194,465.18290041420335L95.15128442253473,464.84080932022715L95.01251295499947,464.64599514384986L94.64360042789372,464.63426862760605L93.51668504507256,462.8663667321828L92.57870247215476,460.96910849988944L92.59948618612196,460.4866862027186L90.53066092648425,459.84030833591396L90.45385906013735,460.1209564063992L90.22782380456982,460.28361179352424L88.94102942013586,460.38333879506365L88.82467939685057,460.2280532589283L88.42457975226523,458.34169646388085L87.82769768846612,457.16990385104725L87.80547444166803,456.41008254374697L87.50727138965135,455.1304253709894L87.76471744187751,455.01730451664764L87.74065475037025,454.19430250569656L87.77390302166094,453.7286219716781L87.44203949282894,453.8001850266023L87.05048586962397,453.28320210955144L87.1705751243926,452.7341717392543L87.01640505174203,452.1814431550243L86.61600150572838,451.9585245792235L86.73117379859235,451.38551572060186L85.96808937855508,450.91630064924556L85.59493707603241,451.0686208366924L85.27032484738032,450.82683510300586L84.34429029094866,449.32309023258534L83.32404465969006,447.2507679210532L83.17844590838843,446.5107326294739L83.21299282909655,445.5395375097461L83.43400183810184,445.1905192532034L83.14830360975986,444.60837504130416L82.91745021703906,444.3293765490633L82.52815291127138,444.45825482840803L82.13674619888837,444.3320374981273L81.8045550444906,444.4668686532652L81.03848649494944,443.78221857872916L80.92404685665997,443.0072528173947L79.86203836002869,440.8020892441292L79.09979630279071,439.7848572292364L77.99232823075619,438.902991826841L77.4591272024561,438.47818794822723L75.88987024957646,438.1522289136595L75.15641847339441,436.62940003085396L75.25166772437649,435.2739073320698L74.88556088897451,434.4686554721351L74.86513207081975,434.42371221290387L72.9892203016978,434.0457361861884L71.95350355741289,433.3727501257635L72.00152567534838,432.71056212590435L72.51884310012753,431.4149957234859L72.87044152391212,430.96866878254775L72.79941416218611,429.6875028219027L72.54262999689382,429.1607901593881L71.94679530342842,428.56099302487854L71.58561729778705,428.5471204526552L71.22457630939772,428.089576906988L70.94553339208511,426.94338832622606L70.97212126416451,426.46914996469366L71.13803363165357,426.2739354689779L71.34227672944672,426.03369133305995L71.35407372387652,425.82176613382615L71.2598651076247,425.6638875627012L71.2040072004441,425.4609860063729L71.012758267984,425.39140110530843L69.86854232186266,424.68034807435845L68.289050056272,424.75719511797115L67.77502823914142,424.46790061003855L67.39313986235777,423.99673390546025L64.37952645010984,423.7792701133206L63.97763408957246,423.14233597876466L63.62740364077911,422.8315144924462L63.78394534644184,422.3018055349811L63.34791430073108,421.8306203829879L62.5747047405398,421.71379646208544L62.00513686820523,422.0101949312965L60.968283450559966,421.8393104891296L60.98748256688543,421.4673360017084L60.87510762939411,421.1340830900708L60.35932169993691,420.61880732566306L59.986375093315985,420.91476974583793L59.54779931268445,420.9409031678297L59.06842024398213,421.1898087835141L58.74510141283537,420.5869234030156L58.46492218289444,420.22818363721245L58.09597290883124,420.1503235035848L57.418232153049985,419.9222248080795L56.96195270112469,419.3852903855696L55.66831442744973,418.7734856840575L55.85858693741608,418.1946058743341L55.65234820274185,417.0613591077689L55.14449893746894,416.0010881582214L55.10148862349149,415.5686951726797L55.209185220143354,415.28812469279814L54.92863063470725,415.0705599486387L54.81772078899837,414.8657705792966L54.40055205931992,414.6504990107381L54.611941352062786,414.13929624545534L54.637584206755946,412.83246389159103L54.2479485034014,412.39614476754963L53.59110459094893,412.4883883934971L53.26667805048163,412.0551995788203L52.8344358219685,411.96654066486064L52.72705574956484,411.26721987825556L52.91444571461005,410.8568840093866L52.7375015337978,410.64321488316045L52.307323837507056,410.4036968837262L52.20582179245821,410.19890945194027L51.807186290723735,410.1655109001846L51.5253591010827,410.0343943003062L51.302725904235444,409.9307984442575L51.32439033539208,409.69912842462884L50.792899509785855,409.11779799520156L49.96529188571833,408.54223542495015L48.801215103606125,408.75679699760764L47.85622646116673,408.874825248296L47.76437638440069,408.49755211928846L47.60331432774882,408.1198326297445L47.66378431290309,407.3844559282042L47.20346752587517,406.9310996076975L47.08471474880639,406.6895725206217L47.09116218574434,406.12657853380233L46.77022713445501,405.869426974432L46.25098563231472,405.96728834450533L45.582695347922424,405.8201449599097L45.74036826538122,405.0782443526482L45.06394666077449,404.69839693556116L44.751406894420825,404.1991097855732L44.31596805889757,404.13673120623395L44.014743827821974,403.94343920211014L43.53282334996925,404.01842004502885L43.10750557892362,403.9689349185137L42.78990285093141,403.3800572086897L42.50497938006828,403.24654134421337L42.500053366664986,402.85549753972896L41.15155275451286,402.52916422978745L40.79451951296767,402.757585366393L39.78903377029883,402.8437225172284L39.586620913035006,402.63123287716877L40.011985739824866,401.94928582222155L40.15986150564743,401.83684070200707L40.341574697607484,401.1904746271844L40.60326698718802,400.72894043721595L40.96576721289364,400.6207823318863L43.12617913004095,399.6268034153935L45.12310964846364,399.388828533905L46.75488427926308,399.90441931191543L48.122152133923635,399.97509775656164L49.030391746709824,399.6348163921057L49.56318763415743,398.969981773716L50.172447345271905,398.2094383011094L50.275794464314345,397.73958407371896L50.251043641174476,397.44017564433176L50.240323631255194,397.31047179987866L49.89248846334027,397.11074806140425L49.195281795320625,397.2976712506496L48.81919037949905,397.38144447680696L48.28359846467367,397.3707524468824L47.95747102917454,397.1740327550018L47.87223836355878,396.7391730508915L47.75613611858097,396.4257870132433L47.48427989896271,396.14452776901777L47.1309192997993,396.27892991097144L46.58018584207389,396.3655073191747L46.174259221031434,396.36876475099757L45.980562636706054,396.15252621505897L45.94295673015938,395.480695170574L45.94485188041642,394.7913743599232L45.88225990051666,394.3245178868598L45.510113759460864,394.2463383943036L45.27595413165989,394.19712818468224L44.636761784014425,392.9605527145303L44.51769611993217,392.57686735305896L44.52653324390337,392.50053177397393L44.56909247573748,392.13289832042744L44.7259180553047,391.9170716315289L45.40089277313746,391.5285720092345L45.64449927994497,391.14559365265626L45.47672324289391,390.71727931699706L45.11531482501334,390.49592233876854L44.35856119575163,390.5835268342262L43.997005282272085,390.4890841087688L43.391431739464,390.1585417426122L43.28338860852307,390.1411678592119L43.21267024910179,389.8779629479475L43.10299394759028,389.71772447118207L42.95750450520592,389.6647202279366L42.842561216846434,389.6734328813641L42.60442418127707,389.7590977961632L42.4798622456517,389.72035110403016L42.22486513167178,389.53800408578843L41.726053278807456,389.2483707728127L41.510336846704035,388.61117198863604L41.7568306282584,388.0401831413356L41.88141647991057,387.9779845950213L42.27296770447674,387.78247021379616L43.371740697034,386.5185592298151L43.65544725441441,386.3439449125785L43.732907128524005,386.33064228715955L43.89113253710087,386.3817646554664L44.10961280935271,386.3827507086271L44.33350438042913,386.25747142014677L44.388432127248734,386.11811246956205L44.41510518137795,385.7750508791543L44.51948404835599,385.6263751711841L44.87047915735252,385.58660370892585L45.659443100612236,385.646199303396L45.87797536710906,385.21904261298727L45.810899868898105,384.9256164992836L46.48581785731085,384.3015151587658L47.21494251494596,383.9191458110307L47.20195561224216,383.7441547959478L47.171597829153825,383.250862710746L46.735993679422734,382.8164103809322L46.72695312584085,382.3049233863849L46.96473271842274,381.586215806652L47.195846012383925,380.52010022486337L46.262815457823535,379.04592112246144L45.767376013059504,378.8755773690247L44.72215576304984,378.05357622166605L44.40023648267453,376.6012586051077L44.90883501152297,375.77225828501776L45.04911604388309,374.90124206576365L45.365075610650024,374.72305456370015L45.411937664189,374.5262856363693L45.395730639527414,373.5647603908131L45.54270467073036,373.26182313154277L45.65362732459329,373.0963840582776L45.68176635711092,372.9963187898336L45.70032236666509,372.86024229332736L45.82159748595609,372.47799423394247L45.9685766905705,372.1751910519372L45.90467963084575,371.9637898925566L45.47336479030213,371.0235477113156L44.17099176055365,369.6305031945837L43.99053802403512,369.4373863561498L43.54283722361902,369.1214689232171L43.1542453255546,369.2745094797003L42.51968680120581,369.1890849181908L42.21257494717912,368.87703096512297L41.783296557203585,367.73791153501236L42.20994567000861,366.2819359776786L42.203820776002885,366.16404853654365L41.86083162360114,365.5590799325608L41.57187868492389,365.33360698246304L41.30487425493794,365.0837180534248L41.29400424369311,364.917083778615L41.24854114598554,364.85736249515566L41.10725141560164,364.4206947940145L40.616404276212734,364.2529507570873L38.958511927455504,364.7839583138839L38.46223778239482,364.30878223487963L38.25660623170103,363.69101054742436L38.40066268129277,362.66344549674795L38.28438905110079,362.1005711267085L38.12724103352002,361.47093065902044L37.659004198876346,360.8356426906642L37.90366156800019,358.0993768532753L38.20956860473876,357.4890565314745L37.86594596667078,355.9546650860818L36.5490725287446,355.001863999183L36.326814482775376,354.0198576146488L35.93767748051397,353.23973374669254L35.45657779128078,353.28873726677944L34.37563415053029,353.81165451308317L34.00324356642801,353.4006182912175L33.963612606212564,353.2708897841413L34.03906111837108,353.0887206900348L34.0546102697262,352.9222298279975L33.81576327786246,352.6034898366081L33.55843041624598,352.5062587277714L33.475129349344286,352.5214244569893L33.165021468279974,352.45249562848187L33.1841249970617,352.2411403997575L33.176319537409825,352.0238205551342L31.954912852721122,348.92544582221564L30.951838422372532,347.48803437909316L30.646262970409055,347.0499050408912L30.10731561360342,346.9477924332352L30.01997187074801,346.8006252608936L30.035894624000036,346.6594750115481L30.19484555658329,346.3293210590249L30.267702523958064,346.1192588309171L30.281480127237444,346.00353529356363L30.34450782438398,345.8086867306883L30.41482341628131,345.64773053051033L30.17383985507223,345.1458883463349L29.15896064589623,344.8243161394925L29.208505343564752,344.41444465748265L29.176406838537048,344.2068907581014L29.078189766434605,344.00499680506596L28.90626701814648,343.93460684350725L28.702063963030355,343.7957791380075L28.595911132644517,343.68334872822686L28.473762385752025,343.5736812049064L28.468942374901303,342.6969997615896L28.30086614159046,342.1091399941131L28.10704520622619,341.95274731340817L27.963222603801967,341.8749424410837L27.84426504408941,341.6127678905414L27.7340457418548,341.5194269602268L27.7147893207769,341.3501210379158L27.684325198017916,341.24420763212396L27.73378613431123,341.1292977736072L27.77381300560495,340.74944629974243L26.92435244539479,339.09455758995165L26.315231831069354,337.9069613371225L25.713684854030532,338.06649478670226L25.027385230221853,337.3524897230794L25.0019433139459,337.31042919599446L24.999999999999943,337.3072164722812L25.290007558832315,334.73772689335306L26.148778807630663,327.9516127782483L26.195029027463704,327.2072384829113L26.33324165393634,326.0133478186895L26.495485035393074,324.7557775293577L26.506282451562527,324.672081150473L27.02669983679681,320.63744124084064L28.200158364579522,310.46730031027334L28.492899120854872,307.92964767042383L28.70879750435938,306.5463179693204L28.851622505402702,305.26304576884024L29.01917473218043,303.7575631120293L29.56012183734657,299.8039715021704L30.899897586158886,288.1320894019947Z"></path></svg>