<svg id="NE" width="1000" height="1000"><path class="state" d="M26.872500025220802,535.9762296823814L27.17146953610228,532.429699027908L27.223256563581003,531.8153020833315L28.120594419952624,521.1659607467714L28.161220416986055,520.7752571933503L28.176120143050753,520.7503894683788L28.587245918471297,515.3761586778692L28.650015645799158,514.704129225508L28.66819182264851,514.6795296309241L28.73461066410647,513.3441327679244L29.474197422510372,504.4946104384791L29.475294753235573,504.4814771318581L29.648417902529786,502.4546350385421L29.7428139591255,501.0119388439598L30.815968166425705,487.1905991720183L30.88934135665238,486.26080964994907L31.053317571006062,483.8931019456644L31.075362691495286,483.60480985747125L31.214365230733165,481.98386236283864L31.22077063697452,481.9740043183995L31.34800523582129,480.3444974593224L31.62477180637785,476.39558626229314L31.87542958389338,473.37596244076946L31.95275523375824,472.06913525784165L32.12483019024552,469.9215403945894L32.20604811874051,468.93186190831716L32.79940269333815,461.4970615321635L33.19774645522449,456.50439127665715L34.02395727361642,445.8207482265472L34.54194789983785,439.1205284245963L34.85267671207521,435.10045412443185L35.090983163263104,432.1930708531181L35.18219411150079,430.95094729593563L35.84947323610578,422.79505761215364L35.86927609358611,422.3793406591488L36.024029765547425,420.43339244999663L36.024187073677695,420.43141429635017L36.069269229564554,419.86449801601725L36.07758145198204,419.75996877567513L36.088833679728396,419.708967571945L36.13617070629141,419.1887601446096L36.16920178061838,418.7609038331693L36.183160686481074,418.5800900882541L36.32756399768715,416.70952231199664L36.37180178013335,415.9436638229259L36.94937659395043,408.46544873531053L36.95026541446293,408.4542168783848L37.08229928653344,406.7856701113916L37.105716841451226,406.4897239155372L37.189138290921335,405.51749912514646L37.18987327096886,405.5089331336234L37.53763194005785,401.4553911576256L37.62017545095313,400.2184364244886L37.63115594391331,399.7272346236434L38.0034353907356,395.5851702832858L38.01942480131913,395.0956365376154L38.857529846402485,383.9179320358964L38.89198151184041,383.9206318771172L38.98445877615222,382.7631362637636L39.0136777232247,382.38533249296705L41.60103960678646,348.90955715821144L42.84763894661245,333.41445365606927L42.856130198407016,333.3058747660375L42.85823494284443,333.28124300203547L43.08673808625622,330.606854932244L43.10428957088459,330.17738234466924L43.296170338652246,327.9322219268978L44.363342361029424,313.980584247897L44.40800987113806,313.33771866483784L47.06956696287807,279.0375987352853L53.39157610748765,279.3726785392063L55.918659266092675,279.56405200974564L60.12247716410366,279.99448665340964L66.7072948858006,280.45905856367887L71.26689048313534,280.77616846372246L71.43439696897747,280.7746391467715L81.50372798968584,281.5623700805853L87.84339487832716,281.95445016949077L91.36118839711838,282.30422991613807L95.57840936150325,282.5886647092991L95.64392876387541,282.5846615203177L99.00533909420284,282.81890282958443L102.75603116416823,283.07786819028956L102.79731785874668,283.08067545027296L102.89231884897163,283.08727384489157L102.9044499162701,283.08810388667325L113.15229712541719,283.77982080294225L119.03976585673172,284.14800780587694L119.65371369984615,284.1860433667241L121.30644528108633,284.2941880356444L140.85236620659742,285.53586015219156L140.9762844753372,285.5435750950636L154.32061527604424,286.3864318807456L175.6191781560937,287.66531666226183L179.00461241069758,287.85651692817237L180.65107753624528,287.9487601860002L183.70722577439784,288.11868925948204L185.61083471093775,288.2236858908915L197.66233251275054,288.8732932872548L199.67380130528096,288.97917524783423L199.87061382030436,288.98949624308307L200.02893019355884,288.9977934212736L206.72317231452809,289.3445103032227L211.4992138401243,289.57091843271746L211.96750847856225,289.594036961136L215.07174047866891,289.7462893052772L219.84858935355055,289.977197871102L220.28296060345218,289.9979917609162L248.05162437445446,291.2570186700011L248.05774782345875,291.2572760901523L271.80438674928774,292.20495477325017L285.69162293420555,293.08803676924356L285.6998812019249,293.088551580259L285.7254212756166,293.09014364171446L294.72955701058595,293.4525360078403L306.09313187627737,293.7126367188001L307.505397609914,293.7433462968926L308.002031298959,293.7568552764605L315.0682613345973,293.94427744033976L335.1090339928968,294.4271754937258L335.2235308213445,294.4364744890124L335.33587716009794,294.43667713983814L335.4638415119799,294.4369052102138L335.5005476045804,294.43716797873356L344.25758728672224,294.65589507522213L354.2387333681557,294.8884467112125L358.60342665897156,295.0465739804144L362.30843234428596,295.07731720753213L362.3104773856527,295.0774042129471L362.9035309326988,295.1026037564719L368.15340361062454,295.19607570248974L368.1624896718588,295.1962331984114L368.18312623611973,295.1965908534731L370.10626231291695,295.23944632812504L372.19501424031876,295.22701248283863L374.247814001566,295.26900371005615L378.31436126060555,295.3499591865482L384.418669272254,295.4659228398077L392.24877825173894,295.60490310879356L396.2918211879048,295.67236742633827L396.93829738563704,295.6134497749083L404.32749572261145,295.7017225855429L405.25919799362686,295.70422891981264L406.2494466376854,295.6866827257704L412.54619087847306,295.7304615291692L418.61601875690667,295.839817068832L424.5401808444667,295.9401868577173L425.1390071588468,295.9490935561L431.8693119011187,296.0095853563471L432.4743990261973,296.02796643881925L440.5872226143641,296.112229879023L440.58940140934544,296.11223893311234L440.58946800599506,296.1122392098414L447.89935868509906,296.13783240728054L447.9008922078573,296.1378367730233L447.94883856492214,296.1382677189872L448.6777417261249,296.14557891061975L457.3580245058216,296.22728164710895L458.030114914968,296.23032756036L460.0075033208041,296.24216121324184L460.3874290565252,296.24435472302594L464.6580654163724,296.26677231504874L464.8400553918859,296.26765510569805L465.8913261550678,296.2769079597214L465.94346437970535,296.2777556024317L468.27090582127556,296.3080814181026L469.2159607935235,296.31812694851095L472.15496185144644,296.3203486318811L473.37740704320703,296.3208174777192L474.1760793354045,296.3219719822063L475.1922893815141,296.3417277720507L476.1282162531274,296.3157723929917L476.2052829998579,296.31362816179626L476.2145574544294,296.3137167601411L479.0851705916578,296.3403996585711L480.3626283692163,296.31530555584004L480.98064557921214,296.3313719560431L481.2896038995191,296.3442720628515L482.5224796148201,296.33810982286195L484.3043607294837,296.32414775065223L484.53889107030966,296.32226774528795L487.1342979188724,296.35019208842255L488.80587826603335,296.3511578833394L489.58400375343666,296.3491569486239L491.39674666840995,296.33307501733657L491.6229223257418,296.3486198541516L494.61017420647687,296.3389836985217L496.4088207270184,296.3324113614279L504.90923164613565,296.2935159465634L508.3751994974743,296.27212779656656L508.51073364961417,296.27112197069414L512.5757791087974,296.2394262747855L512.9324567351287,296.23395893180964L514.5955571944744,296.2331273015613L514.9205530490747,296.24714923714004L522.6681731913967,296.1675471763639L524.8458688341841,296.16840870680613L525.1675466267084,296.1594938457042L525.422362155306,296.15094246588217L526.7636012854736,296.1337062931716L527.6044293041118,296.1227366423146L533.6605119529657,296.0789496757101L536.2504212019546,296.0428711651824L537.0945397702143,296.0477580507511L537.1106179188325,296.0478498947494L539.1381506275811,296.007438984018L543.1343314287681,295.98925172090037L543.152243201872,295.9891637671143L546.6081194494992,295.9001319503474L546.9085691769059,295.901493138365L547.6556368954825,295.9048076924322L548.8921073001558,295.86718163724504L549.2077230654872,295.8923229893428L553.0452766006421,295.84600196979295L554.7362506202969,295.8247543758491L554.9271840891715,295.8126144043779L556.9198707470334,295.7918615648358L560.8268988290508,295.74910873830123L560.8666153446884,295.7306531100947L561.269103176725,295.727297137715L563.068587761521,295.7119382772652L566.9825548644335,295.65185199269484L568.9731573168458,295.6240240024316L571.3625182512408,295.58968470866364L571.372533603916,295.5893844335718L573.0060681812631,295.55402293521274L573.334613918948,295.574376060222L574.8126753665039,295.5449734535968L577.3571715463884,295.4934401370306L581.0798570783986,295.41595605868747L581.0981503401246,295.4155691743766L583.4170959778336,295.38353788598926L587.1912690881835,295.30218280271214L587.3979385405502,295.2980248120117L589.4382763370386,295.2565646692327L593.2284494681214,295.16925292215694L597.2855984039026,295.0729397327284L597.4190920717274,295.0790047520388L597.4801636598744,295.08177835059496L599.3442977081136,295.0403798318797L607.1666233805981,294.8598768430348L607.5619708395863,294.8701483126763L609.6031279921683,294.817123873186L614.3601626122621,294.69065259335537L614.6816066922337,296.1550766327661L615.2533723599432,297.55156248051384L616.4843249414685,299.5371654354612L617.5794562632102,301.48983422902984L617.7213770519678,301.74279021819194L617.7495150922203,301.76290396775545L618.3135878330269,302.1660618578154L618.6403683799472,302.30537701130044L619.3017225169394,302.98650950750687L619.7087779527703,303.25082227951305L619.842474299998,303.4309289084822L619.9794001918185,304.056678109159L620.1598333858205,304.2450062307884L620.614117902307,304.3802352067383L620.865072653614,304.3463024973607L621.1469797584757,304.2226080778804L621.5044036126023,303.8951349158989L621.9068023255727,303.81422956460995L621.9780200611194,303.79990748313986L622.5464643979001,303.81025951022707L623.8905448181908,304.64007017427184L624.7751829580998,305.0771502255136L626.1058206165064,305.6107818026624L627.2602852164059,306.3189947263296L627.5202457587357,306.4261491456842L629.0537882767537,307.0579523897764L630.0505872884178,307.5733501927525L630.2818322886878,307.6928795001156L630.6804114128981,307.9481852241474L631.1445130517496,308.3678380607514L631.3720319878469,308.6564983384847L631.6281229117409,309.2265401081193L631.7420312901721,309.3677864454978L632.0325706022206,309.64831401543057L632.4291651147029,309.909324859927L633.0874018961503,310.16590977337637L634.0935045417679,310.41582035754834L635.3640891521014,310.7311415650402L637.1730268198037,311.3899461611187L638.369875348595,311.4747589725228L639.4029040923405,311.41246929327394L640.0718822136072,311.6128171844772L640.279754392132,311.74426383921764L640.5999236041596,312.2175917230758L642.157318117982,313.18916368302337L642.3112324105141,313.3135874293846L642.7256908159534,313.6485906352553L642.9685320435799,313.9525613926289L643.4298038904228,314.2702526082943L643.6544036407711,314.38808402688085L645.0266708965607,315.1077299761248L646.5601184551788,315.79334816628415L646.8577235485415,315.88195673501286L647.3085125330123,316.01613948614835L648.4922721499634,316.36830133829585L648.8613705758568,316.38377712720353L649.2976102778138,316.34022902136934L650.3342158656085,316.0399471788361L650.8451070037684,315.89187320359645L650.9615220598187,315.9149660553075L651.9170659678324,316.87959132113946L652.7750095298401,318.29345802261474L652.876659134657,318.4609275880946L653.0403406592574,318.6101308787492L655.11364523754,319.8761741224996L655.4297347169597,320.16866650833697L656.5092475242743,321.41908914559826L657.2182905966946,321.89005898669393L657.7419096194135,322.076366792449L659.3652695792734,323.36775988358823L659.8411108187834,323.86266252931125L660.0256114601788,324.30025245352033L660.1941487690113,325.0209734358855L660.5331630642718,325.2891632924319L661.056038718624,325.5544104422596L661.4856601595029,325.6028826674245L661.5837664236712,325.613946830709L661.772103581959,325.6351820774606L662.0504019172806,325.72615915762924L662.5608107107877,325.93282382113273L662.781423233217,326.1385701418392L664.619526201025,326.33038751325125L665.0498379045038,326.33204765394896L665.7922308534457,326.0459865377256L666.1259610501679,326.16157480875665L666.3504486766933,326.1553177265107L667.1476926598029,325.8690947793351L668.658404966541,325.14468510234053L670.2612790883377,325.2613325759944L671.136035369545,325.1854881061525L671.1384564287603,325.185278000416L671.479421800836,325.09262659416584L672.8302142510223,324.1871217048305L673.2041804548097,323.8312173586022L674.1451690877399,322.6206167139625L674.339650885759,322.37033715565497L674.89570147828,322.1341939127767L675.58665451116,321.4087202671989L675.9763313398324,320.8400287869621L676.1296146036666,320.56695057394256L677.0033637947016,319.0098256304964L677.4124575040667,318.51495263561526L677.5743243620328,318.20981863244344L677.9098637342559,316.9402633344806L678.3764534944414,315.64041714619304L678.4283380415527,314.47927750901033L678.7291038284793,313.9012679715353L678.7367115412626,313.539425530803L678.5983979568487,313.2143671014429L678.5779992380857,312.97268982305127L678.7266971530378,312.36114476984176L679.0434786637713,312.1606495933286L679.695534795117,311.7478610749887L680.4776354916003,311.40750592268387L681.764838128747,310.99190435417734L682.8969508082993,310.80294519248116L683.4786506046798,310.7816042868167L683.7609238884189,310.9485517349477L684.6846862409293,311.7204233894802L685.9539656677757,312.08581013982104L686.3164516504513,312.1900985549846L687.660790061042,312.7889271016961L688.6082755064397,313.082516833642L689.1153528237944,313.23956431052443L690.1160677721189,313.2968266367135L691.2370905170134,313.26734749236505L691.5891223521612,313.186811897108L694.6419055667159,313.35714967213886L694.6649094266462,313.3584268761605L696.6756017305593,313.79173074578387L698.1722352801479,313.92488018184366L700.0364653095291,313.76908693906023L701.0990520265648,313.50419373003814L702.2235607663423,313.04324481168317L703.3615571717676,312.4595864359109L704.8844867704129,311.67798535729185L705.7422511070664,311.3960073743428L706.5674383020914,311.3682676742245L706.6453232245126,311.413545182381L707.040674120481,311.64335190705515L707.8069194239806,311.947480760503L709.6106857128252,312.4603897075323L710.9167201409201,312.70138034709055L712.3958586361282,312.5740049892246L713.9836527621004,312.21749345571595L714.5141236017993,312.0272390263193L715.5941763961251,311.6396885738359L716.7042768418098,310.93146398732864L717.1734560629004,311.08780979736866L717.313767675392,311.36524512338934L717.6182642393055,311.62778718811774L718.1135724254898,311.8318467284476L718.7943320355749,311.97913877543294L719.0610949268017,311.9656386649585L720.2690246428864,311.90434926067314L721.1851329301776,312.04440952449534L721.4868883118389,312.15112165621724L721.7400701580732,312.33427819276494L722.1765563367875,312.44008498797973L723.1901415333434,312.37183528428767L723.5092362534326,312.23396682703134L724.2166639208556,311.5825936305819L724.8424006375863,310.83889309841175L724.879645379077,310.6183597949022L725.0561434272009,310.1979400493609L725.6547377270213,309.5066385048265L726.0193489572332,309.2900501675176L726.5365642178099,309.12979201561444L726.9369245147425,309.1940631295386L727.4812983029013,309.57845223069165L728.0317086203369,309.63620196173747L728.0319133053023,309.6361775989803L729.7953991803265,309.4259941197348L729.9481880333152,309.7279108967311L730.6624588887644,310.336570443441L730.8376446678874,310.4405895007834L731.3858415190817,310.7660332899886L731.6147457453319,310.7988263261101L733.492412411312,310.56541672941023L734.0015514259267,310.41363995972085L734.5454907601244,310.16443865955887L734.7523661740802,310.01242959187226L734.7678948510929,310.001018759751L734.9186853889047,309.81465547133223L734.9782205274404,309.74107146841095L735.1674848255636,309.63320225469135L735.814363172041,309.4289460183813L736.5125995389612,309.03669604433424L736.7324132687506,308.8185588783133L736.9432654116665,308.76926766559643L736.9534340143726,308.7668903187197L737.4372743674804,309.01709284154236L737.577643693495,309.1624401749697L738.753920912488,310.3800573868625L738.9998363589932,310.4131297004803L739.4617363438973,310.4752188775814L739.9134437214248,310.5358999004292L739.9163818241635,310.53629447323664L740.1065617933098,310.5618313250767L741.0181914690613,310.68414988594714L741.1629028781929,310.6537667016128L742.0348664991834,310.4706072337449L742.1566458005283,310.44501546079664L742.657874246679,310.20890124392616L742.8810778576828,310.2028680174634L742.8812123004532,310.20286438077807L742.986884942785,310.20000492631846L744.0967487641637,310.4628804150851L744.7171603864724,310.6864935836726L746.0961784250793,311.39024538855483L746.2564705438538,311.708961072457L746.2601793197055,313.4393436450637L746.2606591164181,313.66436555773623L746.2862330196688,313.77627847649114L746.3175201508409,313.9131885477622L746.6332926751277,314.5693030957164L746.7650380161706,314.9601873515263L746.9017742759056,315.9536950826557L746.9845587973446,316.11608187142923L747.0638272492731,316.2715638256955L747.2297573024869,316.45821962090986L747.802211553065,316.8222109102044L748.2496000654196,316.9439034581172L749.5702450528222,316.9720467965486L750.5157895461123,317.1517241421102L751.1749371845763,317.1628232863202L751.7043104751326,317.25479897997354L752.0301003508555,317.3554259691216L752.4000335335038,317.55111393152004L753.4120375429958,318.08626340398746L754.081965316501,318.8180869926431L754.4391542890506,319.27881281668556L754.7821099828413,319.7211022773288L754.9208388011909,320.05989086288616L754.9264362019023,320.31077978772737L754.9271839052434,320.3442948858547L755.206884786493,320.90828920208156L755.2284470982943,320.95176372753303L755.5672894906645,321.2948225088151L757.608190007114,321.5507607035164L758.6694255475788,321.4554168148265L758.687783400803,321.456244339405L759.1993042607522,321.47927810723957L760.2892563224275,321.3241623145726L760.9068722259235,321.1048814190841L761.6712765002807,320.94073617708284L762.3144223023455,320.92485729625685L763.70534405829,321.1357775227133L765.6811964793453,321.6365955601051L766.0088532529617,321.92734379870615L766.5661441693943,322.0788257020931L767.498739124468,322.1478985499035L768.8343395867248,322.246547123606L769.8760695017397,322.3232670364298L770.9591202341373,322.1170620495667L771.2784112577378,322.1656515535269L771.6794298481896,322.39299374140535L772.3719563210193,322.92410019206886L773.256783170151,324.7931825733017L773.3053258346396,325.0058051685389L773.2883602874251,325.2432710667606L773.2799799037223,325.36056095841917L773.2009396767079,325.6286565477369L772.8820886048661,326.70990790673613L772.9165228628153,327.06776825243L773.0244026215223,327.35351276080246L773.1655178834628,327.600362609979L773.3722790572826,327.702123975367L773.9643923254764,327.7643308046987L774.6776513651389,327.68689083906895L775.4630002941451,327.35070457525376L775.8951995318637,327.0672980787802L776.5437201036632,326.61062818199923L777.1410106187377,326.0341341556094L777.5091291189703,325.85974905416805L778.8988825824201,325.45417423995195L779.1121618200998,325.56429744782076L779.6641566337955,325.84925664230104L779.7732739789205,325.90557761008847L781.0126693575216,326.54507773481896L782.4654553070345,326.6253672280095L783.7596556639103,327.01865824763865L784.8801697663188,327.76673546558476L785.5748249367416,328.15146510130074L787.0271975565815,328.5753590242382L787.4160754089644,328.5890711464871L788.0707005290117,328.61209269995334L788.7292439607351,328.769318744765L789.4583060648789,329.0441157853031L789.4587748827396,329.0447824317762L789.9695298525617,329.77096645313577L790.1379849666334,330.6468722720499L790.2304181116161,331.78128954569274L790.1192743855879,333.48682234884086L790.2609624767733,333.8269778147344L790.5031882689489,334.02630821657283L791.086913354324,334.3056500246249L791.1555915769733,334.3204473159478L792.370813148568,334.5821267632172L792.6595946318283,334.6442696754334L794.1206234833664,334.70471017901593L795.4213865743568,334.2988557411552L795.6027589987476,334.0960019721495L795.8482330395407,334.013502081035L796.3431049359552,333.930166229802L797.0229473737581,333.81560750357164L797.7902314967703,333.8120719565411L800.9779182407497,334.7181703216783L801.6568549403814,335.0926927877937L802.0518505977578,335.50173386508754L802.1205052975316,335.64284114451783L802.1492304448427,335.96550638088615L802.144282891999,336.0157486321659L802.0965174407461,336.5007485098215L801.9784568234827,336.77577883341337L801.6327779015901,337.0820244264875L801.23030373322,337.7288745507691L800.2529959992075,339.5084774000558L800.0537583359569,339.9950924256285L799.9016739956907,340.64362796864543L799.8982980552728,341.01132849250484L800.0075888055972,341.9362434441647L800.2169168173657,342.53883681002003L800.5485416616445,343.12960130959567L801.5583077632477,344.33654990993637L802.8502371003249,346.014383332633L803.3292180606813,346.4728232059442L803.910940340941,346.84499839216505L805.7261599221885,347.46770636492465L806.6482472204458,348.04514171619473L806.8662323603564,348.1816135822973L806.8742381415861,348.18858306335767L807.3616579954282,348.6128619717159L807.9805979091433,349.3700952371342L808.2945596747561,349.95894933617035L808.560910832821,350.9822937576394L808.5622442353917,350.9874161550024L808.6181602480799,351.9846569112945L808.6268643998872,352.1398893523515L808.6988217954506,352.5569320335628L808.8800827137043,353.20250322017876L808.880137244187,353.2026402700171L809.1502513394973,353.88144475414174L809.2822404565583,354.2130897151003L809.5391867992644,354.6742434633128L810.9892867276797,355.5710047240135L811.0946578574657,355.6361440458558L811.3709457177795,355.7422911950089L811.6463202557289,355.77806303457544L811.9364582880953,355.815737679127L812.3730226490827,355.77731616229835L812.7073004050982,355.7478736790265L813.2038976390818,355.6077584201579L813.883405241306,355.2269664174114L815.0404569684058,354.04764444049226L815.4991032837954,353.7196621409937L816.5232214321843,353.307034791229L817.4493255362407,353.22843306233807L817.4495256641469,353.228481254238L818.241933086151,353.41923594537343L818.5798800150643,353.50055193961913L819.2675489849496,353.8756296215929L819.5790889251402,354.12363171157676L819.9774988093905,354.526954232633L820.484038118999,355.26596044250107L820.7165179735287,355.8033914930415L820.8731400698682,356.34750960189774L821.0674338327232,356.7058831867514L821.8860283789127,357.72222436445367L822.1115568028088,357.90704094012074L822.1736938645063,357.95795788188985L822.2005545053747,357.9799678439711L822.6701524486971,358.229164894477L823.9143271850614,358.52459147921076L824.7974441849067,358.5242626139168L825.0245735084404,358.5241556715281L825.35460315987,358.4476515783741L826.3504341183783,357.9514631756208L826.9415069388956,357.5067714942483L828.3690696504443,356.77326089419057L828.9101729488622,356.795816613589L830.1384327094567,356.84682268206325L830.6162834486458,356.86659383216374L830.8468818397901,356.88208934178203L831.6900428898612,356.938666140162L831.7707371475858,356.94407411674496L832.1245487463175,356.96777213793985L833.5205822154979,357.36998715824996L833.529174854479,357.3724615842484L834.6557003298828,358.650845699864L834.655844302459,358.651009037078L834.656809714085,358.65210429850583L834.7311024824851,358.844499479307L835.2549388560066,360.41515165114174L835.4686374444432,361.8365829954016L835.4530479593113,362.4875911524798L835.4526935706001,362.5023855792962L835.4514301007,362.55512912658867L835.1590837697217,363.85372212705636L834.859780411238,364.5478127413942L833.7883412594424,366.0217876842047L832.5446716369315,367.73161082922957L832.3843984620057,368.16374788469307L832.2547736672424,369.23419034725026L832.2538985257581,369.24141564234435L832.3683336990479,370.1986638322597L832.791241543809,371.1777892280028L832.8113683485697,371.22438035961L833.0759553871937,371.8368094042389L833.1300837903,372.172357461332L833.1973377977265,372.5892416006724L832.7101230055932,374.04980345062893L832.6119358483922,374.27594428879354L832.4281025250707,374.69929324648865L832.3664882866872,375.0892962046603L832.3755916171472,375.6549921936308L832.4432977237201,376.1054180589736L832.7160711527325,376.74191067297187L832.9168396525333,377.2103119199863L833.1450246713689,377.4859235969699L833.5804707845166,378.0117908447967L834.131606870521,378.4353924854524L834.8540365163709,378.8548765206413L836.1526694243939,379.4753468819793L837.1382388927173,380.4746880214642L837.5398584218174,381.03633534462847L837.7578754632692,381.4865779439098L837.85880804204,381.83715099243216L837.9736963288274,382.49505896637L837.9971293020847,382.8482532736074L838.0832845188895,384.1467741002352L838.4124512018317,384.9675184761021L838.9839363122021,385.77792653414394L839.4700946484777,386.22257706146246L839.4719832381437,386.2243042157932L841.0888416705445,387.15960515032754L841.6930045462501,387.72840058096335L842.2263232075499,388.45204008203535L842.5203478921521,389.09509891593314L842.6873581766699,389.7527580799871L842.6301339023712,390.8990228118694L842.5359798054698,391.1391390468707L842.9340876783328,391.5754240574403L843.3366560943159,392.01651570992743L843.3604287037301,392.3217253083091L843.2814007600148,392.54864612531463L842.4906554402661,393.7693910589814L842.0695333106869,394.1716144087775L841.9660513109852,394.22172595715756L841.7896819529294,394.307127489778L841.1743109309375,394.4303783950858L839.9951972420906,394.8304598056985L839.988932115545,394.8372350701525L839.843716532434,394.9942690471131L839.6953423791842,395.503141800035L839.8011541815947,395.88359759814807L840.6538169670787,396.8608510631436L840.9269633303162,397.2992482923076L841.0637266704864,397.64392884006986L841.1306372707303,398.1216288249124L841.2208606852496,398.7657031275784L840.9829537427684,400.0895965556906L841.0971110029964,400.8434953312229L841.3453230662967,401.5663616092195L841.7799793419379,402.1691978693174L841.9594464581583,402.418067348072L842.4486361135214,402.85158769409713L843.3556445046447,403.3505810173526L843.7607890438751,403.57340246707224L844.4650366875401,404.2111559414463L844.761816202569,404.68252984629135L845.1525180717441,405.62149603096213L845.5759520542524,406.1325920519892L846.0380372701972,406.4834550962139L846.5248818761902,406.68662661179627L846.5513369647158,406.6976653895746L846.5607102496999,406.7015764935014L846.7909738511338,406.73530100352457L848.1826455068017,406.9389192373718L848.8760546529531,407.1959043248899L849.3384726103498,407.54708722790195L849.6419089821668,407.86368227685557L850.0400278689881,408.5160485745319L850.2352838243926,408.97259466499736L850.3613984276786,409.8585163943163L850.3746858037189,409.9518485704946L850.330695435716,410.9546487129587L849.9799659803053,411.9956107096352L849.9670259404462,412.0340093524689L849.7462396329794,412.43832381059167L849.7110940777546,412.53701905264927L849.513753424193,413.0911247455325L849.3388535667902,414.1456362465931L849.345497661106,414.6740243567442L849.5290523377608,416.05711565681145L849.6361864994847,416.38625266300784L849.9081958887398,417.2217933824734L850.2273264160921,417.86399383246L850.2302663664308,417.86990944989475L850.4021973891189,418.17646236582755L850.7179494015609,418.5335518046729L851.2365419211768,418.84666409814724L851.4152437940847,418.9104819036529L851.5322409246605,418.9522600890299L852.0673084745509,419.0436594270919L852.2160662599827,418.83993391656736L853.0013771863373,418.4833742892577L853.887593101781,418.49995912517215L854.5599565818331,418.73026348666116L855.2718207572827,419.23822434995526L855.4806660433136,419.48872282228797L855.7163551872682,420.008189180773L855.7652467555574,420.4785250149587L855.601618175006,420.9911058234397L855.1939522929008,421.5830120621896L854.2526006732277,422.41760321470116L854.1038346872082,422.54946443400934L853.8319480545799,423.32297194660975L853.822549449925,423.89794751709485L853.8769112933126,424.17522126734417L854.0294670862543,424.3856096786867L854.4981800073427,424.76783330492407L855.0812485763583,424.9591527481956L855.2222650145421,425.00541317947943L855.6663040806516,424.9304607748809L855.8234437384979,424.8181261123008L856.0233727049633,424.532879309112L856.3998558215781,423.59266993494464L856.6256264266723,423.17674442466756L857.4586485719083,422.7976332924655L857.5572080702518,422.75276780594527L858.7674536735536,422.7580971324537L859.4674285881906,423.04204724004205L859.8596737994224,423.53725042919115L859.9968919183088,423.90192823859456L859.9933743164908,424.2167812499333L859.9121358035114,424.5471231724501L859.4748886555794,425.44450636569314L859.2457472862457,426.14539675599235L859.3303331125328,426.48298451339804L859.4416086680853,426.660835901204L859.8479872212824,427.025466300973L859.9260498397991,427.0955018446042L860.1442631320926,427.1828692739651L860.8840115110954,427.1860360122124L861.1978297802605,427.08894779538224L861.813960541564,426.7465544600519L862.576346078585,426.53758516554234L863.0092641326995,426.50533269139373L864.629867188146,426.6895378041996L865.5713466799642,427.1119094746091L865.9164813962541,427.50577227750307L865.998248451669,427.7752548734277L866.0119572480685,428.4231398675717L865.6689894038407,429.7753690789115L865.4851729028451,430.28372576058393L865.3258366432251,430.4994134111171L864.7911443978224,431.2230712268163L864.6990758499425,431.42658986626304L864.6246011533628,431.85113164834826L864.7780514671995,432.42842534397187L865.5952043405903,433.8181461363909L865.6799765851672,434.3266122470204L865.6417579776237,434.7114788308451L865.3748307966653,435.2933049314893L865.3538249981298,435.31140335578226L865.1150945313857,435.51707941764363L863.8824147771395,436.0181535266609L863.4022455658053,436.3845985769155L863.2463923229582,436.6796642058161L863.1419612877962,437.0388746337439L863.2014555991043,437.562735572715L863.4596005822906,437.9532124513498L863.6174630800381,438.1919738800765L864.2968887163977,438.8658969445832L864.6856778643889,439.39880679050106L864.8718107413597,439.8559620183035L865.0028301004409,440.87577584948235L865.0976392363564,441.23006329901966L865.2950807384341,441.6600546132423L865.5790442902018,442.06371745112625L865.9216678392422,442.4033085534849L866.3457285603295,442.8235439090736L866.8536507018523,443.11729173085024L867.6514965727247,443.3786537629486L868.4224595856056,443.8513929069649L868.6742967534753,444.0842839365673L869.1047562651945,444.6566026014474L869.3799566352625,445.2679111272309L869.4311892155494,445.83857720977625L869.3314931345608,446.4470073094996L869.207926481527,447.200916290366L869.2267727124222,447.39841334445276L869.2434252974963,447.57291869026255L869.4394520177334,448.18746335286255L869.65288357089,448.6045645162518L870.090189188054,449.0749313955463L870.6936759380579,449.45060077742323L871.1729716248325,449.6190127663769L872.5433056068399,449.8990945336766L873.141028934399,450.18832041724346L873.8007154054322,450.7519287069849L874.0736153269229,451.1409584412952L874.3735417280241,451.74285984019036L874.4407530764202,452.1951691844485L874.2833159446363,452.7848284716629L873.6277498605176,453.6656633806662L873.2212209084844,454.4275950697429L873.1370300317283,455.34951240960487L873.2924168305917,456.6685184285882L873.2984390753751,456.7196333979745L873.1644295331516,457.25314992447585L872.7083935153661,457.93305836960536L871.9987692014338,458.3915312262296L871.4088553826095,458.6189351850301L871.3992556045457,458.62263515157946L870.8722874843705,459.0461383578346L870.6981490825187,459.3593461185671L870.5691559661146,460.26328519074616L870.6112186861802,460.7276362347065L870.717736505727,461.13733594936946L871.0652801631209,461.62793268865335L872.1139273527358,462.08640535569594L872.7008176104974,462.34288569487626L873.5747709159901,462.8805040782951L874.0970531825226,463.5100235270333L874.3089563537364,463.86251241706714L874.419999061588,464.1212097058541L874.4569605482245,464.39293258398084L874.396808260509,464.6597141384912L874.1247174694836,465.1519962920779L873.7707890530148,465.4473751893727L873.4769700707502,465.6925525968349L872.62593467193,465.8547829424669L871.0710398303241,465.6078176010713L870.3704658108179,465.9592178658641L869.7955341539619,466.50148710968995L869.5715403112208,466.9517734503036L869.5083053450272,467.1784313259144L869.4656566365193,467.331290066508L869.4857980947303,468.11375167906044L869.4867076751106,468.14909249797904L869.6116317680649,468.83194369790925L869.9463786392986,469.299798183447L870.3078629212823,469.72573268883826L870.701733149854,470.0776115856592L872.0011948382405,471.05454247067865L872.2244558523962,471.3720762297077L872.5471167968956,472.19276706747917L872.5886228786426,472.5385206274616L872.6377624852348,472.94784013591305L872.42946924176,474.0580274955754L872.1556862715242,474.6615728262238L870.8484074672114,476.3853485904632L870.6512673292815,476.73912740726325L870.510543277835,477.34667942546974L870.5311788800012,477.8926824114813L870.622394195284,478.3821616211654L870.8453783756304,478.96805649836364L870.9895750725217,479.2499308406613L871.0895418810301,479.4453311117661L871.6107092548156,480.1764534724084L871.8194075992265,480.35960500757545L872.1658630889322,480.6636137646052L872.4945818845385,480.86654013706175L873.8864419756169,481.34721671889383L874.2110336331191,481.57658093738394L874.4828585784838,481.8993234584809L874.6612153813817,482.2682756666553L874.6774318364085,482.3018193652355L874.7805840797237,482.7369725535673L874.8070287767048,483.1627893901745L874.7068114788331,483.6015586936908L874.4883085513522,484.09851429533404L874.1400277868502,484.6139828281417L873.8104464345761,485.101682172482L873.6481916742734,485.51209441253985L873.5858537903612,485.91215637516916L873.4830357461915,486.57186876755344L873.458593158222,487.34071830151566L873.4582526616684,487.35142539025105L874.0530409043552,488.9405402909844L874.3069341328977,489.245399188212L875.1187677292369,489.99361721877403L875.4083362870847,489.98396971750765L876.0369848236953,490.2182117774214L876.6036295518886,490.79525987329697L876.6679817029528,490.86078428873844L877.2249396669428,491.24120190314545L877.8736353158149,491.8594925660679L878.3483121578818,492.2001033115541L878.9532196581301,492.38364198813L879.7396892760232,492.35682371870286L880.005752069648,492.2086404764836L880.153837351751,492.0483424533861L880.3103312726378,491.66037713055135L880.3341929964784,491.26956808308523L880.3843178126677,490.8867359433845L880.2647338965978,490.33703562155125L880.5429461649094,490.1573414784982L880.7392087499766,489.3206305259966L880.8820061315769,487.6801624497232L880.8979512462408,487.55220424538595L881.2024511796026,487.0951262407166L881.6443446834382,486.8228391847157L882.1999510459257,486.75923318975754L883.1464863174265,486.9860430502141L883.7276197165346,487.4802592934195L884.5289817664861,489.7041461807171L884.7188048750779,490.5596413171932L884.7572256071608,490.99918038413495L884.7540269688666,491.30767339370396L884.6588620568987,491.63242476431253L884.450622731862,492.0447112042088L884.2893003895492,492.36406662395814L883.362461918882,493.4450307396929L882.4961352211343,494.21135895289234L882.1866586240719,494.710348485204L882.1363817689507,494.893572578886L882.17940835752,495.09115812410846L882.5358569917505,495.73391585147687L882.5630026464255,495.78286042513946L883.1060340790091,496.50361014530205L883.4370289517899,496.7889747352642L883.8904885361355,496.99816965919445L885.3592782473661,497.17453057662453L886.2180571060188,497.19872286153895L887.249694586083,497.47525138928347L888.1313403617736,497.9536360878473L888.4720753325246,498.0289107237188L889.0344691342357,497.9884816256867L890.1180171593413,497.43554788461114L890.5930361925443,497.38811266131444L891.1509575779701,497.50058108544266L891.575767291242,497.6679406201443L892.3835071323974,498.23732759405357L892.7572013170461,498.7241044285799L893.0377416361151,499.30048808020183L893.1186733841837,499.81221810729755L893.079892938767,500.3291300974733L892.9695146198949,500.6551798949622L892.7734892822211,500.9987247865601L892.1121624836053,501.8766359541928L891.9744870879687,502.1677105977108L891.8961329925448,502.52614312931786L892.0622670245925,503.5522490830313L892.206704668625,503.9811200337013L892.3878343213316,504.5188734186245L892.4442630425174,505.05810889426374L892.3842342619531,505.794361105232L891.8349529941866,507.2248458347022L891.8045141754214,507.6947804731604L891.8851643281596,507.9896389343673L892.1362209966164,508.907377805836L892.8580839684367,510.20573973898865L892.9596550675419,510.88066183955493L892.7807570654196,511.66093846878744L892.7223071262686,511.743206032942L892.3445467075273,512.2748359423772L891.7920070986881,512.754868660054L890.6431994993218,513.4051873835521L890.3736315767535,513.6659812554149L890.198012091488,514.0480300783944L890.2443262643831,514.554746551359L890.2448646825641,514.560637160676L890.2457750042404,514.570596604004L890.6843158657041,515.335531669948L891.4011303906741,516.1091170503157L891.8153043968625,516.4357632244668L892.2517705755339,516.7799267693223L892.2607858006257,516.7870347903724L893.6345871014073,517.5541392974582L893.7733644227685,517.6316025303346L894.1669748534517,517.7598282216899L895.0579210936514,517.8239105950577L895.1677527475302,517.8058201832001L896.5882389197852,517.5716554972598L897.7358179938956,517.787462783996L898.3554414667112,518.0839391342911L898.9190957600711,518.6403870029261L899.3463923161933,519.3773563838458L899.8024904271308,520.9513852025096L899.7258368489388,521.7732805998422L899.7186429458092,521.8503989480474L899.7183471759349,521.8535695297242L899.3381028437332,522.5070072980448L898.7911918736214,523.0729331586956L897.914298142116,523.6217160072006L896.7352607311143,524.3592450831866L896.5818832160946,524.2520764446493L895.6095028148674,523.5724818849694L895.888147914869,522.7921380755947L895.8930349783429,522.7784499996419L896.339085671751,521.5288417697988L896.2973999583619,520.9496603887773L896.2769656733205,520.665741366084L896.0936602155342,520.494045647134L895.305289742047,520.5360781650132L895.2917342778499,520.5367999384773L894.560898083748,520.5756666827996L894.3474100305782,520.7020502387958L893.8229055890768,521.0125009832185L893.661388359116,521.8916130114629L893.6800871808178,522.1531132535023L893.7342438375811,522.910470215537L893.8673889059341,523.4270891510412L895.0525383456421,524.3548437331041L895.4702791648058,524.6817441203517L895.5322870424754,524.730262921034L895.0389603431881,525.0075012397989L894.8819481442911,525.2036956282195L894.7609191804437,525.7529656856717L894.858261376851,526.4179693682014L894.886635086442,526.6117935733051L895.4223563411776,527.8118922359437L895.514221516436,528.0176443389702L895.82689154488,528.7178490893575L896.1485776017463,529.4381027575125L896.2425088414809,530.0005664858551L896.2648962979979,530.3120345008027L896.2609146982716,530.3329001662878L896.2602347452525,530.3364634595457L896.1327177576205,531.0046322814541L895.907166886753,531.5901038902733L895.0050534395803,533.2944837094971L894.9831614681502,533.335831765162L894.9726454534573,533.4091296999577L894.797414656444,534.6301939626047L894.798335709474,534.6339016702805L895.0232737318302,535.5393005589639L895.3658272293764,536.1769846988581L895.3693753320631,536.1835890702523L895.6433512683622,536.4603072718719L895.935329045391,536.7551707186574L896.345998094303,536.9534777933993L896.8754473960385,537.0150839447344L900.6956438663422,536.2921247111873L901.6213999635632,536.1165284979344L902.4865217495714,536.2243748501206L903.2137366062991,536.4987854318147L903.9074097515598,537.0461011489988L904.1835255639136,537.6434730818208L904.2093750505827,537.6993928979176L904.2639278544934,537.8174033062819L904.2633062894246,537.8321152595857L904.2403877495135,538.3744746088234L903.8274827334924,539.0312461026496L903.1371467725448,539.2667984263929L901.8024332246507,539.0217215203882L901.5505642181993,538.9073243204489L901.3047518991557,538.911522411915L901.0697703477638,539.0294119089141L900.6336197605933,539.4848558500091L900.1881652370489,540.2116688552436L900.1542770004294,540.2669536722926L899.9721009508012,540.9876609776826L899.9709297067052,540.9922939428606L900.022637662352,541.5582196494798L900.2321049602921,542.5250841189011L900.2322531394937,542.52576801954L900.5963209526153,543.2603622109458L900.6343007540842,543.3369866134747L901.0985212405619,544.0258711489523L901.8608070550354,545.1567283300601L902.2298087813613,546.098630145286L902.235947718925,546.164829071131L902.448111197776,548.4524327666863L902.4484833335695,548.4536869614045L902.7585838015443,549.4986773872164L902.7589945142811,549.5010983935196L902.8867319330931,550.2540137169875L902.8034625706874,550.9572336696687L902.6623325216958,551.4150034089987L902.1629993504081,552.183304128772L901.8845446223727,552.506043018162L901.4224776406008,553.0414983272556L901.1177893887046,553.6884546349688L901.0558556968155,554.3759834035158L901.148621167385,554.8253960396511L901.4420555743426,555.3617646510235L902.5606993424917,556.4352282240202L903.478646886704,557.1913033550011L903.6357645302068,557.3994139199397L903.7448635324963,557.7039851228374L903.8462769860088,558.2805960385925L903.8230477610607,559.1657549825509L903.2679124840671,560.346963426829L903.0492833898414,561.0331105372459L902.9643490066079,561.5104671362949L903.0307619029386,561.9973645388457L903.2803907100426,562.5998738098274L903.3370433977569,562.6721881204459L903.441683435628,562.8057508537437L903.7306259965578,563.1745238419167L904.1138257516047,563.4458284967646L904.9606539746549,563.8838049921459L905.8613631750268,564.1337293767745L906.3330445767417,564.4320103787849L906.4759029437951,564.5223384912031L907.090980766859,565.0226981291905L907.4831444559181,565.6113017722229L907.6417310836689,565.9768381384737L907.7560727806917,566.4406488061923L907.6842346808311,567.6616323981303L907.399367873273,568.4172885883303L906.9516908585124,569.6044282649092L906.8669398476803,570.5461595558709L906.8136562226427,571.1380202937054L906.9452439940267,572.1504771939269L907.1420196926224,572.9036723730308L907.2404309729066,573.2803121880513L907.4157218984888,573.7056314412662L907.8259980405062,574.3034010409773L908.1006178972473,574.6028180714106L909.4726756263233,575.6703535244046L909.9862607875344,576.1866521922153L910.0898921963551,576.3564408564215L910.4056063156372,576.8736477460371L910.5506623208016,577.2141432912031L910.6272466895373,577.8108482207297L910.542380575112,578.4663405948834L910.4204835036815,578.8240255031916L910.053161392334,579.4784146402735L909.6856823969034,579.8492213671205L909.1314139745997,580.2383348670717L907.6844594616464,580.7458010884218L907.5090634613005,580.8833897659804L907.2978767574931,581.0490402142427L907.141774870496,581.2058517752411L906.8704754489418,581.7259646883904L906.7942251513616,581.9339042512637L906.7417149259343,582.4043071363516L906.7571407034304,582.5522801280084L906.7779736025273,582.7521174470829L906.8358361712441,582.9336875634982L906.9751437255312,583.3707958004344L907.6849492488086,584.542813286291L908.235037624949,585.9675687686821L908.2660934104226,586.5628336832813L908.1785734119976,587.2819708418735L907.694967729162,588.5302256311608L907.6196171290135,588.8756411532264L907.6177586463858,588.9700212386549L907.6083919038568,589.4455405365497L907.6804406915005,589.7503886853872L907.8587331732917,590.5046830844385L908.8491814640491,592.3115493093987L909.0180105771001,592.7067251901758L909.0928609587233,593.2720177041385L909.1072563347009,593.3807304627582L909.0318099267113,593.9386655704437L908.8798530931631,594.3320113269708L908.6872933266139,594.6222882106856L908.2985712428363,595.1442100669225L907.9156329039974,595.5259018683159L907.2838587623735,595.9992538134505L906.3520594375816,596.4618594621785L905.4930114090857,596.9856318153528L905.1528786931362,597.3004335602241L904.5866600190867,597.9898891354854L904.1436063954076,598.7725858736293L903.8744387238582,599.6112925681346L903.7180757026808,600.4531440992529L903.741194957362,601.0858556777483L904.2357552088233,602.5888121288132L904.5060985324951,603.0716804624354L905.2046217691507,603.4916840408357L905.3934238306672,603.5018319880386L905.9278627086915,603.6974544128418L906.7467440562164,604.0545975207992L907.1710432755194,604.2395901160565L907.9606510386284,605.0103707530893L908.3041058076581,605.5737854891041L908.3821476289663,605.7474669359972L908.5498964085853,606.1207625968194L908.8754455045308,607.755072860431L909.0185630144418,608.097561704948L909.0342545524877,608.1351106095169L909.2776324733153,608.4564472281772L909.8552784728904,608.8432145673538L909.9001711656538,608.8732687219481L910.4900204719871,609.2680982405927L910.6415064441364,609.3393695136474L911.5314254404855,609.7579515331839L912.4948409740737,609.9257579006911L913.5645011787122,609.9444604304535L914.5427531626931,610.22988830967L915.2225640726826,610.6080595666723L915.5600743591037,610.8884518363172L916.1052640757389,611.4175221541884L916.7778339284321,612.1986665181796L917.0338849524444,612.6108879595383L917.1998230431586,612.8780062461685L917.3955706577175,613.307482424327L917.5346380338258,613.8850462377884L917.5886107335103,614.4246573780626L917.6889701372827,615.4279574697721L917.8476207352237,615.8685760489238L918.1013028637182,616.2051823901737L918.3798333261855,616.4262632995923L919.103396661483,616.8489027583151L919.6955377562888,617.3139942412737L919.8857125910954,617.4633402230969L920.0808188444478,617.7657987792219L920.2325932125252,618.2536325376062L920.2437922645117,618.7381594859794L920.1457758287145,619.1626112665339L919.8562076521549,619.7874583278084L919.2761211687748,620.3847003308305L918.5863590249294,620.9755030979388L918.2950568812616,621.2710948565539L917.806097562534,622.0366880062737L917.7304298093268,622.7055357146257L918.1263819346848,623.7416202958065L918.9545026906109,624.9990812867712L919.1165582878797,625.4235310746286L919.1999230016453,625.8578966371082L919.1986647316965,626.2159605117618L919.1101234855822,626.5917437320403L918.7651587009643,627.3874117630119L918.7104161175146,627.9202777588118L918.80126175235,628.2788031331261L919.0203590635554,628.6267345165732L919.4943952780168,629.0485542700634L920.1422043034515,629.3411167915744L921.0735199935017,629.5168805826918L922.3150883883634,629.4728149997806L922.9563643332923,629.2086335355311L923.5771523810821,628.8268646495349L923.87338601198,628.7550193948932L924.7660621743323,628.8177736130725L925.2704147276261,629.2681070850347L925.4444985950051,629.5768604947931L926.6019036699622,628.496425745417L926.7853463257791,627.8166254588483L926.5019184066348,627.2850301425373L926.4793015941093,626.1188416107874L926.6126722188671,625.3088746288116L926.6245783499364,624.4166670785969L927.3456525501254,623.8285204679654L928.2328402905437,623.4891464441034L928.9855248830086,623.4220733715707L929.7285333882701,624.2159828521635L930.1687967810221,625.1458622186834L930.8817358197025,625.5709953598641L931.1972821426032,626.222372511089L931.3629764599093,626.751053851711L931.2072835646528,628.3110163188038L931.1531612803839,628.8530355108255L930.5704214132404,629.7931793251539L929.9144335405105,630.1801622588055L927.3780766074663,631.352530652526L927.0146599430182,631.6181337509701L926.5547587224892,631.8248492308705L927.0582962667761,632.6785232570898L927.2495655277502,633.4449411726132L927.2692925312872,634.4489431063986L927.2139307961745,635.0944839082142L927.1897516575426,635.5642184950494L927.264198721608,635.9817259646244L927.4983225273489,636.6011122991816L927.6852663767681,636.8816139674661L928.3806601792519,637.4198966581254L928.7019189511935,637.6685191382919L929.5165630201175,638.0661580147628L930.1435373969512,638.5146581375732L930.8903459534913,639.2478675088977L931.7758783133636,640.513726390141L931.8334214055152,640.6748457971772L931.8447129218198,640.7064610478978L932.1320377495954,641.5108625370913L932.1261543641863,642.3676888453981L931.953062052828,642.9872817970307L931.7538144793734,643.8197566790141L931.7049859512472,644.2386287676253L932.0374475765011,645.2540651201967L932.9447226399423,646.5526056443528L933.2303909740998,646.9613529929545L933.9284779075128,648.2418380098529L934.2174532263062,649.4544063751848L934.1953656735095,649.9213383913941L934.2811602969139,650.6569206771956L934.4697242170273,651.1345952590343L934.7198898270138,651.481271557186L934.9640322214062,651.8195616001743L935.6077744428717,652.3510046215135L936.0956896739121,652.9164231906626L936.1313568091662,652.957751106853L936.414078547225,653.4363258912088L936.4221116039065,653.4499227616049L936.5696227044311,653.8184310501802L936.7442394512493,654.6246779673165L936.7198213104416,654.9838778960601L936.5450550508293,655.5830128441623L936.0667442939196,656.0929978249794L935.6643760138041,656.3677977403377L934.1689597064733,657.0204787527769L933.5708086562663,657.4935838139379L933.2913541915578,657.9626316163607L933.206395013089,658.4971105627862L933.2119225557949,658.940068533511L933.3080526934866,659.1974400303137L933.6707408596742,659.5930921247785L933.9875666108301,659.7441404252087L934.6710033152401,659.8337032844728L935.0012073313944,659.760519234485L935.6308897382941,659.4748871167021L937.0033700357919,658.6801146215826L937.5642693734089,658.455760871526L938.0431761073532,658.3460006356202L938.3769391561509,658.3577827638643L938.9725905753155,658.5139752009682L939.7055315980969,658.8516680968941L939.8006342982928,658.9346963590169L940.302992925351,659.3732189555681L940.7036073764909,659.7228593669075L941.0250694826673,659.9202891327458L941.6560836636888,660.1679759567086L943.1467658622073,660.1156635718737L943.8179768577918,660.3170271249564L944.2086721871788,660.5138755407651L944.8529261745684,661.1260274589342L945.0630661900107,661.4673658963907L945.1649375437976,661.849866644576L945.1631895736052,662.5518383139677L944.7578841939055,664.0634496197697L944.7867634801561,664.4989046028642L944.9876834055917,664.9505565300244L945.0534353135552,665.0983497763016L945.2719189476147,665.2953096726013L946.2374999544977,665.3938178482247L947.2724863293327,665.8483073916294L948.4777184025568,666.5894189620525L948.8314677144865,666.7115816364521L949.3787141137866,666.7967592964891L950.3424640317703,666.7628664967892L951.1006803806108,666.5958085438882L951.8485065405173,666.5458780178033L952.1900787759178,666.603868430874L952.6760002976248,666.7288649471511L953.0442696143454,666.9223342062464L953.6601529304954,667.3834443074219L954.2763172282698,668.2884340272709L954.5764999542303,669.0201086316039L954.6787738424252,669.430267934149L954.7149987301068,670.347403001694L954.6177462569581,670.9552175436521L954.4356072193718,671.523453685034L954.0026570259356,672.253903736633L953.6173657800748,673.4315094066061L953.6076787979558,673.9097448335505L953.6894485577664,674.6311097754437L953.8284791570061,674.979447421366L953.8984681367015,675.1547914137147L954.1308408613304,675.5490693573197L954.4885889808389,676.0471511702206L955.1197389717702,676.7265525807157L955.3147354880789,676.8895044577608L956.3342436881962,677.7412541251344L957.0004362853998,678.0607764184462L958.3601236972436,678.4276046565144L958.6033997793676,678.5486811647149L959.1192949634965,679.0191324911916L959.3178618915248,679.39179001161L959.4623104767953,679.8233653151904L959.5904482126217,680.7941234212228L959.7816334779594,681.5106572344176L959.9368830141163,681.8740841284291L960.2181763656072,682.2589150560267L960.6845735309382,682.6255107738758L961.3212286302333,682.8871321792019L962.3879829361831,682.8768871047955L962.9558472273833,682.9792254718327L963.6122148532397,683.299437667664L964.0149063414156,683.7855768275747L964.2780873127181,684.2818601801143L964.322806643447,684.5048449790463L964.3724901348828,684.7525719535793L964.3808215266779,684.934208435114L964.3935134014321,685.2109186485163L964.403474355511,685.4280963918046L964.3114541783068,685.8547017736671L964.0272005318911,686.3212523613016L963.7227205568544,686.6261116032666L962.9687547796088,687.4373382756127L962.710910096946,688.3937851546968L962.9501168277125,689.4343147457953L963.0948683820363,690.1433502187617L962.9981294463413,690.8476900828202L962.9686617801858,690.8897700242187L962.5168989710812,691.5348060697073L962.160350879019,692.0405604766888L961.9544390817143,692.6202600418083L961.8878322344976,693.1507509968807L962.0564666474495,693.8146875336685L962.264413345248,694.6332756846241L962.5985015740929,695.3557799871935L963.0090805983907,696.0150348665813L963.7642784861282,696.7182662280695L964.2973926277762,697.0411452258185L965.0726888280942,697.3418252549361L965.5586304353621,697.4430886007783L966.0365644940737,697.4453079976663L966.4967900502031,697.3582105716511L968.5233928889636,696.5594574277682L969.3015169367299,696.4916636813234L970.2149470929998,696.7364619214334L970.4685125519673,696.8630634231374L971.7091160362378,698.080555908418L972.5982425448086,698.5030925676443L973.776253645681,698.7564911170474L974.0905987379208,698.8953265153897L974.4578692113646,699.2499898962818L974.5917120676916,699.4677131023922L974.9540939607211,700.2459038892723L975,700.55844544675L973.0097396560361,700.7245574140591L971.5358783877941,700.8471335512311L968.3848213615656,701.1079662573949L967.6599483575454,701.167728694735L963.3342237366126,701.5162312091495L963.326353708597,701.516862348917L962.611409203195,701.5741534942671L962.610193069321,701.5742508732641L962.0839490821097,701.6163649138883L962.053016494258,701.6188389041081L961.0014706745515,701.7028444918705L960.9993090469409,701.703016985042L960.725725997989,701.7248418792817L960.7155121432406,701.7256564350357L959.2411504557131,701.8430501780088L958.8907735360424,701.8708938519119L958.8862627958551,701.8712521738427L958.0404351799923,701.9383812523254L958.0325028407658,701.9390102244506L957.9590036503834,701.9448376217687L947.6059232811423,702.7564767295418L946.8163228128396,702.817627869651L946.8141461796948,702.8177962935407L936.5794345543748,703.6008070748936L935.1894736747457,703.7057692395017L935.0102435380494,703.7192797377676L922.7795578162772,704.6283031390992L922.7711457289332,704.628919579629L922.3929270658081,704.658768612624L922.3833384942898,704.6594824721317L918.6527011462787,704.9360356940157L912.0257339239462,705.4214465725639L912.0195229645398,705.4218940573644L910.3935161519469,705.5388179224962L909.9354916276134,705.5716725249272L903.7287708728265,706.0133646088319L902.1032486920427,706.1246482133621L897.9624290193794,706.4060974318257L897.9622008143838,706.4061117218529L897.5196897792588,706.4338047585422L896.4898251580719,706.498126379613L893.4608081319204,706.7090949834446L890.2021668520065,706.9534016190694L889.2826439137172,707.0290678641412L885.5388472585585,707.2935131148538L885.331277652667,707.3081050780405L885.315266895378,707.3142381558686L885.2953689102922,707.3155410713263L882.984641836143,707.466388829527L882.2079288165157,707.5233188163917L882.1944297240696,707.5177573193837L882.1907289182561,707.5179918407233L880.1895220255221,707.6444678294504L874.9689681322609,707.9712003798398L874.5662381753745,707.9967225880395L873.1038811558506,708.0986212216244L872.8834389129597,708.1139502967869L872.8795003312952,708.1142162240396L866.0892485906443,708.5687583409252L865.7062335919434,708.5941168392326L861.6070191893391,708.8479173081556L860.6382533061912,708.9074805001262L860.5137949416726,708.9151210793391L860.1865767353081,708.9351966522147L848.2358271107962,709.6559303552558L848.2279566630621,709.6562391599903L848.2278044953896,709.6562451303333L847.8073977451255,709.6727249301257L847.5434743298892,709.6990125374801L844.0903694625754,709.9068055185618L842.0087943047575,710.0310866261608L841.2651363850434,710.0753084113626L840.9815915149989,710.0982096148028L839.9635575959333,710.1803205719121L838.3094342698594,710.2670245321099L837.8883990743634,710.289019709262L837.8794251559505,710.2894497506554L837.8793464820085,710.2894535207574L837.2335678593893,710.3203641598504L836.4605809633879,710.3572706709647L835.8130140533499,710.4067551147523L835.3635925770169,710.4410560554726L835.2608173975667,710.4476305181953L834.8253391158435,710.4754678520392L833.7633138908163,710.5432210624855L833.1156792843209,710.5844435511166L832.7247717437406,710.6092906217616L832.1246167661977,710.6463720006988L831.671932841117,710.6596102332543L830.7985394334241,710.6850535615179L829.5703413897521,710.755659121746L826.4980959466492,710.9311512784575L826.2663130973674,710.9443260757112L825.4527528923819,710.9904975102759L823.3814750038305,711.1075397985901L822.9984607062297,711.1291030511544L822.751345059062,711.1430021442484L810.9376916411854,711.7953639149539L810.6542384865315,711.8107252980035L803.1778959397939,712.2109704188526L803.041122544061,712.2186998415605L802.689834555342,712.2352091835209L802.4475985991664,712.2509561309903L798.5319030936478,712.4539202571059L798.4974033156866,712.455791308988L798.272519384517,712.4679826519736L798.1907488349174,712.4724134443339L796.9298348756803,712.540593164964L791.1614444335498,712.8490569784484L788.305233525316,712.999701097385L788.1911878930249,713.0064535304159L787.8738478968528,713.0252310173917L786.0750486698203,713.1313452255188L785.9283204430183,713.13997671486L785.9125380183841,713.1408101714098L783.8558720457696,713.2490591338862L774.158851054766,713.6663659913513L773.7183608270789,713.7284644456861L773.6575282610086,713.7370377095133L773.4697684143721,713.7459681913153L769.3347729899075,713.9411260243457L767.3107516423112,714.0394429812624L767.0784770800192,714.0660534643132L762.3771890910477,714.287621249785L762.3670928327799,714.2814852510496L761.1843601518021,714.330723697176L761.1168825177683,714.3335257130666L750.8106260492723,714.7524316157131L750.7423302754032,714.7621559871408L748.73997093609,714.8342725025387L748.7294721048625,714.8347641951208L748.7294052345419,714.8347673268102L744.590700601525,715.0271389736646L743.6031056673378,715.0726140867392L743.3838541746114,715.0790178866278L742.5463049028058,715.1125887513589L741.4809444993715,715.1660359381455L740.4339453697058,715.2183742908982L738.3859457543065,715.294869014089L736.3986877935565,715.3925651845009L734.7280463658567,715.4741775626766L734.2877150208451,715.4956092892264L733.2221289554745,715.5473371512173L733.0989260174595,715.5433755960007L732.6671464187525,715.5614356426222L724.0448182506068,715.9170527056989L722.0608899465266,715.9970937439468L721.812061707863,716.0070855616351L720.7850198055064,716.0482158624999L715.5845790171575,716.2537349592523L711.5866132703654,716.4086162297453L705.2166961700234,716.6497905828267L704.908109002673,716.6612995161285L704.7477610983633,716.6672068666314L704.6108102180243,716.674422781L704.574978727463,716.6763102094421L703.8724242148724,716.6754347459049L699.2427673080937,716.877511280639L699.2247048344591,716.8782925584335L698.9968211494704,716.8803689880058L698.9855870699304,716.8804711234045L697.7502424522329,716.9347855868699L697.1405030832814,716.961498636262L696.9331052001012,716.9668489092857L695.0422335064533,717.0152921564688L693.6189990005769,717.0628109586626L692.9731473405735,717.0842614019293L686.8636509140081,717.3068592485529L686.8620508947333,717.3069114440508L682.4224525834693,717.4500692391166L680.6346122489851,717.5080802133283L678.247313203618,717.5846980074527L678.2456759626992,717.5847502217005L677.7773100778916,717.5902345401978L674.6583803510059,717.6973793493635L674.1413021728532,717.7149833184562L674.1172975911848,717.714650864238L673.8561958180794,717.7110284049977L671.8050093349938,717.7662470642788L670.9986247126126,717.7998739034675L669.7663523287315,717.8442303236504L668.4001678957532,717.8931062439655L663.7380570096791,718.0060881005811L662.1085534194989,718.0569997748767L660.4117292768207,718.1095368336258L659.6364158475673,718.1264423819945L658.0772463663535,718.1543095991474L655.9246211006407,718.2333835706387L651.8601209633747,718.3805469147658L649.8560011601297,718.4115519508014L649.218136376146,718.4259122471024L649.2179306696839,718.4259183118543L636.2539241680645,718.7939001498123L633.6902142718224,718.8633006126485L625.3968589092242,719.0801824145043L624.394018102824,719.103927540777L623.864989917172,719.1163852103845L621.8185883738759,719.1641282732819L619.6034622466296,719.223495242484L617.6897806864165,719.2693631424961L616.0780812348271,719.2765743308274L614.0839162821269,719.3220954116885L611.837974012718,719.3828330821566L611.5453548928227,719.387942031287L608.8716022217972,719.4339530826882L607.5756579196976,719.4972998864541L607.4282408155856,719.496984182887L605.679160897452,719.5136180230252L605.3387227838289,719.527350510028L603.415975504894,719.5407602365796L603.2888945094415,719.5495519874696L603.1073846770695,719.572248356665L601.2033294561907,719.6387351342388L599.4545027839586,719.6677492620252L599.4458729603617,719.6678945286106L599.1268184853466,719.6732563560419L594.100925739008,719.7554457102394L593.8519384114198,719.7568629156361L589.0774192909879,719.85114098494L587.5513699779743,719.8723004197934L586.6656142879033,719.8898927857066L582.5862065296524,719.96920179144L576.5096376707357,720.0821166404371L574.5448363654218,720.1067689943519L574.4081924032758,720.1084591766999L573.6341025635787,720.1179744498587L573.6240950559333,720.1115193571363L572.4452968981379,720.1367423191409L572.3830563358238,720.1410009816134L570.1987881883053,720.1816623218058L567.2747333214397,720.2043734303836L567.0947134540475,720.2168873808594L562.0578081103514,720.300569320121L561.956963129949,720.3022009021558L559.9126819601339,720.334904570741L556.8404671097062,720.3660484433967L555.7924114950015,720.3832725793618L550.6438085862283,720.4799098176022L549.6367572179047,720.4840692247502L549.6181565837903,720.484282455367L549.6155150735533,720.4843127318934L548.7565831037391,720.4940950654125L548.5426557866808,720.4899018727342L547.5865206916236,720.4991728724774L547.5631337981946,720.4994604850581L545.5191128402676,720.5242404649102L545.494795119362,720.5245573890422L543.4390334810721,720.5509876864464L541.7776716502052,720.5718249455684L541.3766456957067,720.5590633339959L538.1899779315743,720.6183086296594L537.7837568108616,720.6023351973063L537.3384124469587,720.6163028847737L537.3156287803465,720.6165113817423L537.2126020269537,720.6174530997321L528.9655044567539,720.6870115858285L526.9534011097014,720.7022364244267L524.9353563801102,720.7168183806303L524.796198608233,720.7198133462175L523.9166664712369,720.7386668915785L523.760315954032,720.7322655443137L522.7143153274159,720.6893332311568L516.4227532673877,720.7765994389994L515.0207984635839,720.7853488589794L514.5590750225408,720.7915133831808L514.4116556509144,720.7858607731707L514.104176242162,720.7776310862881L512.6130667495953,720.7881004099152L512.3365685831573,720.7900004145552L505.42174304947275,720.833311326997L502.2650373884563,720.8503945462596L500.50701771842114,720.8591777601828L500.43481213711567,720.8595273291969L500.1844492816363,720.8601707209983L500.17438234851187,720.8601963696603L490.12560225038493,720.8911294175457L488.7695085537076,720.8901410566986L487.75669580015426,720.8918699829983L487.1548593254654,720.8928151718399L486.0313997090822,720.9624012647146L485.21914942123146,720.9328874694158L484.3487863514805,720.8969644660858L483.9614496373719,720.9196750937728L479.80497749068326,720.9551883565593L477.7340045970996,720.950861279567L475.7675007172099,720.9460810417928L475.269940189252,720.9447678753208L469.53989896572324,720.926627354338L466.92291909751555,720.9200232355823L465.3836897991275,720.9061647647242L464.9710120782881,720.8720949563489L463.921779552393,720.8783760818546L460.7392818539795,720.8962888121621L460.2642956953792,720.9013271307348L455.7160134945535,720.8801106063777L454.5351660913267,720.8740301376131L450.3810881003254,720.850765572068L448.3476427005378,720.8383133660617L445.263363129771,720.8180912537159L444.7885806002752,720.8148354291966L444.15826285439977,720.8104541108823L443.2072603131141,720.8037165396739L439.69551564834876,720.7775114411876L439.6924208646305,720.7774874275462L438.552267458311,720.7767192775176L438.31654640135696,720.7685218595016L437.9569363384739,720.7677309118036L437.9561782519933,720.7677484853606L437.5860281863274,720.7763174818934L435.5557334074454,720.7413684512467L434.0068135106583,720.7198398220467L433.7675535406511,720.7279575030832L427.33276424421064,720.662257273073L425.4534792625421,720.6417479559391L416.33023360408254,720.5336924052373L414.9686280788062,720.5197149348464L413.03591664352734,720.4993362993704L410.9369639984549,720.47648906355L410.05749129746965,720.4628565018309L408.90426669674014,720.4536652974266L408.25334935926196,720.448378163552L407.6689085239684,720.443569928312L406.8896417874623,720.4274174399185L406.76150106182405,720.428090477486L405.64539712295664,720.4116533666295L403.01442582504336,720.3666634630952L402.64562901478666,720.3611558681221L400.6095555046397,720.3303350261205L400.52525415976976,720.3290438024294L398.52179044193184,720.2980033835769L396.8321759569774,720.2739459174555L393.80369265590787,720.2169703189456L393.2988623957415,720.2169915077875L393.1225092981238,720.2169887502271L392.24762426494476,720.204383298685L390.28029829456284,720.1755648231963L390.2415496881979,720.1749906366653L388.22497364890694,720.1447578937576L388.1730470281085,720.142655274451L386.59846105848476,720.0786798346521L386.06299300835815,720.0678580179288L384.04484885132433,720.0266352221482L383.1413125523991,720.016781448526L381.92216124126446,720.0032667561329L379.8962626630225,719.9802529452057L378.9305593353889,719.9574829202102L378.5576664710551,719.9281292453893L377.9490015495326,719.9234372414222L376.7606476234596,719.9140959865529L376.47879256220995,719.9118453702469L375.7477416490681,719.8737635410262L363.3983643900532,719.6533795663767L356.0936228404918,719.5108738782696L353.3602396976285,719.4476989736345L350.87607140788225,719.3891870809917L346.1620760257529,719.2752822039535L342.57172661886545,719.1844422021588L338.4224168957712,719.0759988165696L334.80508088474363,718.979080516015L330.646828685023,718.8569196958576L329.535171782042,718.8397309601927L328.6454529546076,718.8147426016822L328.0593873403839,718.7982093266116L326.07430864328217,718.7389481363062L325.54955742610935,718.7231710525562L321.84839487918373,718.6258583834983L317.68072508017286,718.5092619932423L316.86263718737064,718.4864809601403L313.5577710609284,718.3736060324104L313.39514280855985,718.3702819816824L311.486502611879,718.3309356808857L308.0245003709103,718.2386049157461L304.1044596141087,718.1460104985349L303.98464490260676,718.1408948320054L303.30654079222256,718.1118962985134L290.7556769737752,717.6951157516003L289.5499646039998,717.653672392925L289.5495160414994,717.6536570802662L285.4402494852271,717.5119477190243L283.4419171484441,717.4420007161874L280.36199576046374,717.3328702161064L280.22274227473343,717.3412020223082L266.8699293371667,716.8575228749884L263.02816031797784,716.7127655528914L260.6695706436783,716.6226550238937L260.3591425904277,716.6044128226262L259.7963278865876,716.5792280291831L257.66841743092266,716.4835228775629L256.69282581933555,716.4678468870208L254.41542200665762,716.3627917474042L249.75042320503135,716.1448513449105L248.3735809946711,716.0934764178127L233.5240148602361,715.4971521445412L233.88273234174923,706.6775179731264L234.3714284934374,694.6578798980199L234.46767979247878,692.6066334725731L234.86949141232603,683.0766859234666L234.90341283943386,682.1956249666481L235.106677042872,677.8267023497482L235.58925237916156,667.4493962106585L235.62762600744594,665.8984536480294L235.6660808290308,664.3445185709434L235.8887197994913,659.6242951705879L235.87941866775452,659.1488965473678L235.88052937696472,659.1259957791314L236.18166802144071,652.9156591733043L236.6553846598444,641.4727149469255L236.73921324871142,638.9375462659775L237.41237895506194,623.4417993643185L237.72895278409223,616.1503799762332L238.0509247643509,608.7319127334321L238.05095725167183,608.7311640646866L238.08787635726108,607.8279260367106L238.1733654082411,605.7362964477182L239.2727226297422,578.8248058149625L239.52089451287156,572.7461642232457L239.50978777733638,572.7456643850908L237.48419707807125,572.6541500098932L231.64958884565948,572.4174628233449L224.5428816511058,572.1081914759269L222.6259920543638,572.0065455955362L222.59629242793739,572.0049657294578L222.29184226341516,571.988497228728L220.1741940578524,571.9125503782922L219.28942303522325,571.8707217065528L217.18050844616903,571.7704745266022L216.32526940026662,571.7296016975778L216.30377090079827,571.7295341073709L215.86436612258154,571.728135186282L213.7986252117645,571.6384199613907L213.67000261336744,571.632472451494L213.66275186549296,571.6288607564118L213.63996566645915,571.6310831310909L208.05747866064024,571.373599452513L205.99852813590797,571.2772741080341L204.33387664968575,571.1797436636679L204.2667147455843,571.1764061744227L194.72110148228978,570.6941218364066L194.57987475891235,570.6931092395089L192.71219966240193,570.5912874452001L189.5249998351349,570.4453496986068L185.32832524811272,570.2505120696509L184.33522741487468,570.2023366895014L183.3220099617883,570.1502476721388L183.2965553233925,570.1392483312356L182.9795064801279,570.1196341423305L178.4416665497492,569.8402994301957L174.96214134357035,569.6948874533L166.1431145942941,569.2351280919047L165.7227482694285,569.2128774180217L164.1162426214516,569.1063664991893L162.81761004928438,569.0472853619627L162.08717013449888,568.9872257629243L160.02051489264085,568.8866864581973L156.32414691056152,568.7050231612043L156.00171976907785,568.6572633604758L154.2693709779694,568.5731435269896L153.96870208515355,568.5497282138937L152.1950698744131,568.4937180057135L151.9781674652882,568.4535868962748L150.0730028644253,568.3521781286877L150.05627805723879,568.3512851149021L149.87860206674856,568.3344120596327L148.0147722205591,568.2232132843236L148.0063380353091,568.2222842360487L147.82763580918464,568.2025967723571L145.95254798035864,568.1133135840897L145.78871295905822,568.0841478634264L143.90655475771405,568.0073300764459L143.72416645416263,567.9607764760777L142.1366693914826,567.897574935362L142.02039087393968,567.8958879192139L141.82584391039416,567.8826231017714L141.70384876623234,567.8592162646685L139.79379684936845,567.757331386606L139.66480081552584,567.7433020171782L137.80055375082281,567.5982826601972L137.59506037015854,567.5738210048416L133.66192939945125,567.3723111031766L133.1547054056084,567.3285544264663L131.59508225496927,567.231067965613L131.4300342401164,567.2210887575555L129.60732059740877,567.1269606646381L129.47181564447885,567.1123074075662L104.99005362672773,565.6233682672517L98.91119595329945,565.2375739793229L98.6610708421199,565.220747657707L96.82444860071513,565.0439067189801L95.27440987946778,564.8942016103349L92.5978928801668,564.798924969437L92.59289944898222,564.7931714097224L85.65944423588002,564.336298662006L84.50533051983768,564.2970154473791L80.49560232078994,564.0145675845654L76.33154956451676,563.7182966006486L76.25145158321811,563.7125681646609L74.30821856895545,563.5712413432343L57.41177641854637,562.3147735240544L56.036546764192565,562.220121775769L45.85145704060653,561.5089104836946L43.76214536703037,561.3523164692567L41.81061150500574,561.1933144979812L40.72381861253922,561.1623790457882L39.812264415773484,561.0874602616396L35.674168444780264,560.7455415272796L33.76322117830159,560.6081956334824L33.62840961287759,560.5847757747018L29.52772161028264,560.2655274732703L28.750477852586357,560.204687840217L28.201294596538503,560.1231487540624L26.500361061859564,560.0445042004151L25,559.9399627398127L25.182108560526785,557.7569215299673L25.202463329145473,557.5822121536687L25.995519268956798,547.423090861855L26.017885214693763,547.3465933354724L26.17609635370013,545.2621145569509L26.275636242275993,543.9199451418335L26.714027354405744,537.8558250303915Z"></path></svg>