<svg id="NV" width="1000" height="1000"><path class="state" d="M181.65748903017146,390.3513973086568L181.80102252329073,388.2669652161634L181.81968183059877,387.99596799541405L182.06429219229625,384.4429230369574L182.11645856573642,383.6850783114388L182.1372304181877,383.3833052421039L182.23322571827487,381.98860684035014L182.3861883440988,379.03577303391035L182.39041514309395,378.96857904565064L182.42053754457658,378.6349085681155L182.42183526943273,378.6212385859736L182.59944366796793,376.75012095864923L182.99219976166012,370.8195379090973L183.1310683203788,368.98872360642434L183.24657970574287,367.4656199355186L183.70143724369944,361.4659919165217L183.702137240007,361.4567564271933L183.87834344240684,359.03142793643633L184.10864163356393,355.86086090946276L184.19299374694526,354.6993654726489L184.19877616326954,354.6197399278931L184.27587252902657,353.55805227729843L184.28610981556352,353.41706868281756L184.56690375527143,349.5494738050467L184.58940964652902,349.2394308048353L184.60952626809274,348.9622960802665L184.6924304879148,347.64614440975254L185.1800699776553,339.90288652954877L185.42300238120686,336.04426105131137L185.5445603411922,334.11321957498865L185.74025512704668,331.00407757337535L185.74550105498486,330.92072533716447L186.1488185257677,324.5114290834654L186.1488493390421,324.5109393394411L186.26175053141515,322.9453000072739L186.70045964410804,316.85973478652113L186.69641579468868,316.74959089945924L187.3595421173552,307.3621948504215L188.09139571248312,297.7885582085403L188.42598503576528,293.40889102652284L189.3942282106541,278.104415919032L189.4500190210182,277.38306013643574L189.5600382868194,275.4793589263331L189.56169176491898,275.45326957092175L189.85227836505055,270.8677202344462L190.13744321996336,266.5622939772193L191.0461827479594,252.83455193416057L191.05491963000878,252.69268979016286L191.52284725280373,245.04932334027743L191.52758447010063,244.97147522291982L192.18608924728716,234.31973232935283L192.98333979313998,221.41684440959216L194.59645212754293,192.21009805316797L194.7335462262683,188.39111445702687L194.95169211368062,184.48332937748896L195.58738342003187,173.09419486263053L195.5997265971099,172.88929688975574L195.6323573514701,172.1444905000598L196.71946112321933,153.86449642399563L198.06413465067573,131.23709442828118L200.61463129443803,89.78273854022768L201.13078127886968,82.19745232079157L201.67334291264376,74.21973651608363L201.6655858769256,73.41409492868775L202.7098017892485,57.06243484846692L203.60054937387923,40.71880283334178L204.5544392869504,25.096922804535723L205.77609736348575,24.999999999999943L216.51663600684407,25.45756868464423L216.82311677799737,25.417498049541393L219.1505863722167,25.599367689422706L224.85852570483962,25.89108012825858L231.093051544849,26.403858725111377L258.3679089927219,27.954746555589622L266.5547185773987,28.504488124748605L270.04763737201563,28.697514924237282L277.14618420186054,29.082842524807347L279.00817524410627,29.121620093828767L281.29264148645785,29.363070343532343L301.41952221391125,30.174349454377932L318.0572802332707,31.007931215720475L321.35997360532406,31.167315328013558L323.14688449553216,31.200053056654497L323.278981041371,31.202381379496217L330.99234265467635,31.610746303247765L336.0205882708942,31.64414687126964L340.1913717142066,31.66831668968007L346.01101466396676,31.750076663258994L349.99007485193255,31.8023855844163L379.5106759872633,32.508017730758866L386.6278660512535,32.663292192970346L410.96844332001507,33.12375101651759L424.15183140917907,33.417716357061636L431.88320695514676,33.575206593823054L435.01782883461385,33.635920302150396L435.23655334587346,33.59206810137863L435.8724901100338,33.59768632695858L436.2593414347645,33.60106753716917L444.3274766702871,33.66530093795592L446.6130606860438,33.68131712169799L452.79655676373415,33.71982318948926L456.62964507363296,33.822452525051574L474.7131856513705,33.964328973376496L476.6335870467674,33.919668014299134L489.18846255176993,34.07762044108108L490.4722965402147,34.10648577363048L491.10237073394114,34.22986067043615L491.88117191090475,34.11700132261802L493.31075221648797,34.12729756552119L494.0783707955644,34.20225098605829L494.95580337078,34.36926320195721L498.8539341318978,34.28123997177124L509.24201338167757,34.38480474489552L532.1322624585871,34.54283116741419L532.2122618860094,34.5913469541415L536.0040264939363,34.59083181048106L536.4627560459785,34.52976107244916L541.9932314415511,34.55817401931654L543.4384218500394,34.61566221004057L544.2850602416916,34.58263488784178L544.4761432922251,34.65987753117213L545.8324438699973,34.64068634422057L546.0976959869872,34.63684955127269L547.9996535245996,34.67567361896789L556.2957903459204,34.67563855305991L557.2387587370199,34.674832027518846L560.709587315682,34.52632893482041L577.1192875973107,34.37819840798073L577.4204501941417,34.381816358967L589.3006515981364,34.27498525633166L589.3038270256284,34.281098938801335L590.063507036782,34.27481220316287L590.063140771568,34.27690887499415L591.2092781286934,34.214888572649784L591.2107933782071,34.220103779406884L591.8640328164737,34.17026077395593L591.8647320042579,34.171953362033776L594.3260137253667,34.078837610093274L603.9745143308987,34.022468748842584L604.7538469159925,34.032567828608194L605.6708752518957,34.167293684944525L618.9810396389215,33.92192948277847L621.1304015727953,33.87924495901683L629.4087693259357,33.706886838573894L633.2063978896499,33.70663337656151L634.8463289271167,33.68202307409467L659.7347064431011,33.24768204525702L665.5185097003282,33.02727078004904L665.8641072558797,33.092650694876625L686.5150889803043,32.561484603231634L687.1439877307237,32.54407466440773L692.8779716782516,32.120257265802934L698.5528630764553,31.694794281503505L700.0076924361877,31.649851525729275L702.2683788374931,31.394759090278228L706.6160932359716,31.140120195671614L709.0160779645249,31.112569790162638L717.3077669105122,31.30251921168565L717.3526010096546,31.303511805689084L721.8146332446863,31.331325106593226L722.3506634303728,31.334419446367008L724.1252250461976,31.344285571623402L729.2629685114207,31.36957730574221L738.9757414076691,30.99560344374794L738.9771105620583,30.99070901379372L741.950632526157,30.76423731825463L759.9930990553496,30.202057230036928L776.9305207532361,29.495187316447925L776.9477201521189,29.511949897752856L781.364065054682,29.296278058831433L781.3638511613924,29.314876054835167L782.6760133493177,29.252077507624847L782.6776435127468,29.26417610168795L783.3109138852178,29.234959457360105L784.1734504519666,43.45744072935469L784.2393917721877,47.941686912270825L784.2348744085733,47.93901336541012L784.9454828233419,60.59980936197525L785.7237528461069,77.47542999973979L785.7359815416316,78.72802674342739L785.7390754586427,78.79957978242396L786.3906851033896,93.86705104917348L786.5107913295303,94.94348219162299L788.057970277932,130.6352821049278L787.9988759530324,131.82860501239236L788.1277119762291,132.24047728897307L789.3336101180321,159.59655461788265L789.663450224213,167.22741464388506L790.5854444927785,188.55147096782673L790.6350815567966,189.699221604774L790.6492200592288,191.34820408275715L790.6497407788329,191.41948753282594L790.6721400187514,191.83188558747096L790.7264528928229,192.83179961407814L790.7816673402239,193.84823348227152L790.8406885373444,194.93465784676536L790.8818476472825,195.69223495201345L790.8832274210281,195.7262670398797L791.0800798536554,200.58159875996523L792.0595808250652,224.7399292785347L792.0964436445979,226.16825953986464L792.1105803074679,226.34356410734839L792.537670491404,234.8381601659964L792.5101614208995,235.56376038931583L792.638655077903,239.07567372225037L793.6714728617733,261.12013064552184L794.3316900878053,276.38746833091284L794.4046296161707,278.07387447770725L794.4800370962123,278.91333767682823L794.8555631394382,287.916168842167L795.0907445610098,292.33077671212794L795.1816454286552,294.49919476114314L795.5973177897099,304.4142031188894L796.1189327511303,315.7265277514157L796.2282682987145,319.30561533985116L796.3424647683507,321.2692946071286L796.4972438858509,323.9302688974482L796.7058826506411,328.5415793268892L797.8048083093071,352.8183885163203L798.139656323059,358.5278112379552L801.0376818907389,424.69439983370586L801.9479224934604,441.70627482540084L801.9148844730356,442.04370384622683L801.8240935563639,442.21591626672785L802.645668289364,459.0077794574852L802.7160445480083,461.7990708552375L803.0302851319025,468.77215349244653L803.6640175317991,482.8301464384705L803.8544136523548,486.2163587584705L803.8826285645712,486.7522642590274L804.0923131503077,492.65991681282514L804.7395201317556,505.50227370834364L804.7373267263624,505.520894615104L805.7023126719407,524.3886857791576L805.7198364107792,526.3829614109155L806.3915825120039,540.0780684783094L807.2864671315936,560.1898233075226L807.6978033426676,568.042732385698L808.1279589187632,576.2506266215108L808.2841848305385,580.1641494804187L808.4962837527025,584.076525454836L808.7137868645318,585.939827016045L808.8431721938589,591.9534962093982L808.7753122948427,593.2228576906015L808.7749560960757,594.4902252732352L808.7671680409308,594.5870302495457L808.7749031343615,594.6209408443277L808.9034940141178,597.6014513196656L809.4176346788659,609.5164564861043L809.6026576609609,613.803555928097L809.627055115774,615.435998345281L810.040301848052,623.6610759167369L810.0488337055131,623.8308501242243L810.1388348175292,625.6216706756187L810.1395392066388,625.7027478695525L810.2381372845405,627.7090883540438L810.3040665511335,629.1374750004691L810.4402053819232,631.8229047802192L810.440280127754,631.8243790779238L810.7219732450292,637.3796363687409L810.8820056827468,639.1945308669078L811.1701897750488,645.6432637842153L811.1719659307416,645.6807214959499L811.6827874507985,656.1600557637134L811.6860467676689,656.2287574109914L811.7223598393707,657.392861282117L811.7266477180367,657.4832447448276L812.1118957050223,664.2974343212475L812.481000518907,672.6875540968524L812.5896355255574,676.137668717957L812.7066737831475,677.8859318255345L812.798793773781,682.0324729513945L812.9924870898815,683.8007025771255L813.0169324016892,684.1475251789775L813.7139584272114,696.1716479842701L814.0572381602984,701.9970847580265L814.6923373219103,716.69236293882L814.7137995517004,717.188887233867L814.7352919530751,717.6861042382485L814.7353701780216,717.6879139282788L814.9218741680545,721.1443983621971L814.9223200205499,721.1526603643242L814.9960290900112,722.5184826810696L815.0564347901895,723.6376978978578L815.0565046205363,723.6389916858121L815.0575301110212,723.6579915312514L815.256114641501,727.336806129912L815.8763205566197,738.8201676144005L816.3331047708416,745.5724352002253L816.5089210450487,748.2564494430945L817.6350334648594,765.2576266266939L818.0031353477345,768.8707352942104L818.244596600045,773.190386483764L818.5902997928056,781.2880550442865L818.7308223119182,787.8613311243773L818.9107437740804,790.0998731918676L818.9175696389802,793.3677507420605L819.038314435755,795.9052482941181L819.2084034984555,797.7966286442338L819.3775661527053,799.5186471618617L819.7338372093617,806.9086649099625L817.9406573771773,807.5450178218869L817.1383002330504,808.7849605903143L815.0455280926699,813.8969372945651L813.9769696089875,817.0882213782048L813.6130727133016,817.3095689019815L812.7472139311474,817.3916550233855L811.6835216113094,818.1709243266154L811.4485924894991,818.5993122564987L811.3884106573224,819.3017420581718L811.4837807205602,819.5418678095987L812.1507291408233,820.0435222930221L812.5430464975061,820.5659581559639L812.5135993723502,820.8113589020543L810.2483357587009,825.8601912585292L810.1427153626207,826.7372759813492L810.2966478181606,827.6121071154325L810.2185598405993,828.3766726950892L809.187899982687,830.2601495679364L808.8152034859675,830.7546112471714L808.5510977624983,830.8637298492752L807.149261686124,830.3916599556353L805.9931550684153,830.456392499005L804.2977428893596,831.4544290505961L801.9511734788684,832.3044115630332L799.7702096468379,832.5849259489165L799.1530840688813,832.574684865114L797.5715441952377,831.8653644420212L796.5621635123821,831.1819128735333L796.1398133775901,830.7309072074308L795.6205997186465,829.6526398715215L795.6317949136094,829.0804446330983L795.3846489379886,828.4573344990657L795.0382437554724,828.3333283877178L794.5675699378523,828.4520726613785L794.3370395883142,828.3870138579643L793.1217476912448,827.865976745398L792.8112741580353,827.3277304378689L792.5216349569769,827.1095821285728L792.0888950158828,826.9635758498844L791.1178834406049,827.0571652504993L790.7313149672239,826.980299724009L790.534829902409,826.7969234118203L790.4327982379816,826.5973204863105L790.4349991548263,826.3907565899059L790.6235861596231,825.8155400597526L791.1530836885411,825.3011743485105L791.4876577079526,824.4698244271972L791.1378424151306,823.5298832844823L788.566721438277,820.4584830679564L787.9064950900704,820.3092577563821L787.5917338683462,819.8189535030227L786.6799950210458,818.745826169386L785.0716467187864,817.5252634106076L784.2211749349433,816.2869043414614L783.5193613749859,815.4735653000329L783.1601565967566,815.5041198179068L783.0146925926483,815.5164870576743L782.4854850438967,815.760600744329L780.578256026979,815.2249003808927L779.3721921995916,815.1087094627628L778.7019517751362,815.3955840880618L777.4243272588747,816.6662643504334L775.6384712323952,818.2191082588645L775.2573002729843,818.1752537366973L774.6797658696566,817.5164983740924L774.1484126380572,816.5604501603657L773.3426404058489,816.3630671424639L772.7859509396994,816.49675043713L771.1480991225183,817.8290470303782L769.4910994597055,818.3241842206219L768.8342566617449,818.2704917149179L768.4013544184451,817.910977930469L768.300484684667,817.4542581363241L768.5104507438725,817.0186341414555L768.936107731556,816.6009099486008L769.2483604892783,816.3871510103577L769.246085376635,816.0382393892941L769.148499363785,815.8638616302621L768.334420675585,815.1779206079664L767.6406686043624,815.0556735323129L766.0341871035355,815.5389600362568L765.6474509222918,815.5140760188528L765.5721786638712,815.3454162853322L764.8561783058758,815.0303061317707L764.4101954419874,815.0327826220273L763.8027297226079,815.2184211082736L763.0552623819727,815.0159388842728L762.4169183368376,815.2407507961225L761.3113711699982,815.2584323386747L758.4484616109173,816.6097520640024L757.2592799308482,817.7809896261926L756.3397018390573,818.3470411990247L755.7510027710437,818.0886258983943L755.0400279006191,816.8878819486891L754.6032369169113,816.7252965570251L751.7518467214649,819.341883285759L751.3366742242455,820.239328407755L751.0987788037323,820.4472641501857L750.2616569701707,820.5241283756504L749.909820156341,820.7929487844619L749.4104046068478,821.3965434706772L749.0912335999678,821.5086766441518L748.8195125080592,821.4321031799068L748.4771896318864,821.2114353699081L748.0752462979661,821.0769147860419L747.8498413456813,821.0923310852098L747.5394747636564,821.3787393306086L746.7461005877634,821.7031266561453L746.0762390116032,821.8107477875628L745.2377351644691,821.8482658415451L743.1493714819536,822.3806032671488L741.9676901511936,823.4394208480359L741.2663373857774,824.3346000103347L741.0624264239757,824.8308498220522L741.103287783486,825.5986628986534L741.2689813773843,825.891624277576L742.5123018800527,827.0793026969451L742.8463139607193,827.7234220653211L743.3619681839052,828.7175907820122L743.3277966084178,829.2885908394858L742.9463590098134,830.0059176469289L742.7284096842724,830.5251839091059L742.798940802068,831.320075937288L743.0432817750219,831.6330490350822L743.5184652812062,831.5381061010924L743.8849557225234,831.6088925499489L744.4513210180788,832.1876341196803L744.8993216046542,832.4303041665669L745.0866130026418,832.7387420902513L745.0101049599289,832.9886051531378L744.3450729924641,833.8282712938372L743.4848341429328,834.6185362597723L743.103767859672,834.9685143442528L742.867846943039,835.4433633366123L742.832583437136,835.9195016722771L742.8788493541916,838.8834725820798L743.2780422011522,840.1756141675776L744.5353135787227,841.9959770675587L744.5870630492221,842.3486031298003L745.7042182677361,844.3756721865543L746.6308373717907,846.1190500461452L747.2113937456008,846.6246130923141L747.178171989676,848.8061604650784L748.153882765319,850.2310288015071L750.7362915883036,852.5015562312042L751.4395720048782,853.4025986591073L751.9955833872325,853.829951272782L752.4472758394795,853.9651722565964L752.6374416536945,854.3218778318661L752.5361537115552,854.5824231027386L751.7649516382218,855.1825629513187L750.3922118368774,855.4817265505189L749.3560189360271,856.1596029384347L749.0500960799536,856.7522488595253L748.676346391552,856.8740156441686L748.0242446712886,857.0478402542026L747.7129007027014,857.5533488210122L748.2291712275645,858.6760147796068L748.9240067790112,859.6222861250578L749.0617329867033,859.8250828975281L748.9752077057309,860.3193537933103L748.1999057204166,862.3091911913L747.5256089746142,862.9431737281429L747.2983300078567,863.505755298838L748.8598672315202,865.6681319969916L748.6838112292656,868.600081643693L749.3895289589093,870.3915694383603L749.3205643545241,873.4873336554215L748.5303060110158,876.5817453960221L748.5354040572802,877.0394768742556L749.0434100870553,878.0065563900469L749.8724231845515,878.8094704138718L751.1284534079548,879.569140175141L751.4408449995792,880.0989973675898L751.2973243101643,881.1174595507684L751.195844814429,881.3556846904866L750.4863344146064,883.0207969294805L750.6204139041496,884.8591640121874L751.9975889828706,886.1476219358003L752.5088490100529,886.9962684946042L753.0844055799844,888.0132724367049L753.3243812088954,888.6964459842407L753.4778475509494,888.9015400854282L753.6782302251424,889.0029720189377L753.8622607859486,889.0059657812168L754.1564187495113,889.1550654002592L754.4194833346799,889.4934989777553L754.8838149274927,890.3455707683347L754.8495617908973,892.180392529169L754.3035780782204,893.6568598937885L754.1246770962665,893.7577516621712L753.7914268230669,893.8371875644013L753.3661972404151,894.1026719621036L753.128899181974,894.2049715073013L752.6012088514362,894.6158669469437L752.5282634961272,894.7045276002564L752.5216772293364,894.7845244757444L752.625313878269,894.9308261168738L753.0102678434166,895.2172405590337L753.1877906462254,895.2970661601998L753.3780587713984,895.4659115953236L753.6357158316733,895.8301750986334L753.8549849405055,896.2690776095257L754.0402279122839,896.9204719746814L754.2455650405664,899.442394985701L754.4803962167822,900.2956296912523L754.8114605975362,900.6866286732143L754.8781336661114,900.9622137895665L754.7737171185555,901.5082214516708L754.2279616225171,902.3623710506172L753.0521807041454,903.3228975602268L752.6901042078348,903.9478474697783L752.5524946647349,905.5873325211214L752.5320615406011,905.8306945140481L752.6444218554508,906.5282120200823L752.7603709135311,907.2479004551877L753.3372816329372,908.3443395615607L754.15059658072,910.3806345900344L754.451178972745,912.7847440639307L754.7467593464287,913.5052631034405L755.9695363096504,915.5583197915013L758.8875716889595,918.1867364601006L760.8778031972454,923.7438005241003L761.7664491929902,925.8651444893711L762.8667398299285,929.7728027451728L762.8372430852212,933.7145820107936L764.1986756847698,938.4827565565763L764.7843445703303,941.8467380914082L764.7767174634811,942.9850038956893L765.2937226723982,945.795293069754L765.8972840781336,946.2942032366527L766.2347571755502,947.0216144388845L766.2607259877218,947.1684407709951L766.2618637560563,947.1748735507114L766.6542488964893,949.3928404278345L766.6937873614731,950.9650136486313L766.725864692084,952.2406254525429L766.5303648354467,955.1095297519103L766.5293943677206,955.1237635436472L766.4938367386352,955.6452338143026L765.8884965817689,957.0609762062466L765.4881923717248,957.3502949714181L764.8643697544784,957.8010666440524L763.5808401086385,958.2238451422587L763.3994594358545,958.2245001928153L763.0225061530771,958.2258443720526L761.9984386122917,958.2293790129182L761.2074871744018,958.2319918817557L760.7829983485675,958.4247120493042L760.081253654584,958.7432230363529L759.5364639705715,959.3588762536224L758.5007376730048,960.5289221794746L758.2469341763663,961.1013566590287L758.6280836749171,961.6877620277243L758.7228359232565,961.8335235746612L759.5670895281562,962.1921333282522L761.0815002450502,962.8350300714158L762.181965599096,963.5767370957103L762.7489529056261,964.208944107542L763.183821114259,964.6937330577797L763.4254219113022,965.5565718703122L763.3672411627324,966.1681495063882L763.04394143066,966.9187189606088L761.8763775763053,967.9896952748766L761.8646373764454,968.0004616449627L760.7849259507329,968.9903905056833L760.4280069156057,969.6292153672583L760.2159834884287,970.0086409627339L759.753767457488,971.3141872848709L759.6651400005893,972.4091536824495L759.870037988221,973.9652705739388L759.8803236011252,974.0433731731728L760.280845296051,975L757.8746088798468,972.7982898821227L757.850700098533,972.7764026090836L755.30971339081,970.4490569764631L750.8003922846245,966.3130002357933L740.0976959712295,956.4660534929046L740.0058318407047,956.386129401588L734.7965979269529,951.5970355364299L734.7941254708143,951.5947600941475L725.8557639087397,943.3537252501349L725.8444344837841,943.351993594109L723.8837220139243,941.609847772182L711.9907877751223,930.5434023874147L705.6659754830512,924.7421831456361L705.0970622461612,924.1484724623658L702.4274602279368,921.7781793283284L700.0979734567045,919.5824882980555L699.9856338884741,919.5187926964157L698.4408007159088,918.1047232841588L698.3799371999148,918.0807851888819L690.8646306419331,911.1046331029097L685.5216198098004,906.1318808254973L681.7700658873825,902.6746942451417L674.4785902127126,895.9554353557544L671.6670706866456,893.3591882640553L671.626854917871,893.322030011769L671.342528938602,893.040693978593L670.1269489109569,891.9213712784701L669.9497970498702,891.7854390851733L669.1593679617763,890.9191814447178L659.0420004472358,881.6461641063512L653.4159235533544,876.3992141191625L645.2437154933715,868.7559874558272L644.7069819773899,868.2530929218071L644.528282554879,868.002376747143L642.2630601958471,865.9447402392584L642.2081067164603,865.895441374163L642.1695273156789,865.8585337019608L639.7703633031945,863.5621694097483L637.4535871421863,861.4574423159133L637.4260994297555,861.4322859960896L630.438029005624,855.0276402450004L629.5943130816628,854.2337655269042L619.6179872286606,844.8256556786782L618.8319489134466,844.0827277076066L614.2895762783253,839.9546052833093L614.1118504190327,839.789134551715L612.0371021251722,837.8565462872148L606.4192089317105,832.595406304441L604.5715347519435,830.862372443306L591.6321931007242,818.6883378550538L591.2257642985694,818.3415371380901L589.9498534321598,817.1450212018985L580.8347838805012,808.5785347357828L573.9836903531781,802.1181879879302L560.0252577106145,789.0259890919128L559.528462963571,788.698650468571L547.530742385239,777.155889179031L546.1274378945692,775.9033677624514L541.5711902721896,771.5464626520397L522.9825353306468,754.0129013942119L503.32376304357757,735.3186891441208L499.09771866517485,731.2794834118803L491.1419067529484,723.6555621113587L484.2175940274727,717.1623085530582L483.9725987212149,716.9322127671556L476.8846242145758,710.0995855983132L473.1943694682813,706.5791501586361L464.65229758580335,698.4087011775301L462.36743760299333,696.3753134848523L460.20742497534576,694.3082493841359L450.52335522296784,685.0171744891127L439.4478051479765,674.2397058608851L437.18861411216346,672.0349420892663L437.1022608520175,672.0469502241317L432.8221452085103,667.9269769139169L428.4859841427442,663.8919630344451L417.90877667886207,653.5340332042977L414.52501100675073,650.5301968250785L401.7524609451798,637.9904685226729L398.21606376772553,634.5021024260841L397.1817270759939,633.4807881222875L394.14005362740653,630.8804920088917L386.67086383815683,623.4545665617616L386.6353599804566,623.4192098384683L385.84127017577697,622.6641132132576L379.88592290426755,616.9928253304422L379.89151633651613,616.9891587838204L378.5906943666928,615.6410298294628L376.46306813580986,613.5939293195524L373.4703039047084,610.711192262745L357.7618054965836,595.5177345002195L339.34819284026776,577.6061442172637L331.76434999685364,570.186396197761L324.4211878987487,563.0232298151998L319.2932174918602,558.1655062047665L309.75387717414105,548.6198480043503L306.43512798847155,545.4109545766738L303.83572294065004,543.0140943537548L301.19080418207625,540.3879547105362L301.18621597902785,540.3833963694528L294.90451309308435,534.1337386594773L288.4228180187927,527.7594459265897L285.6507055303375,525.0685583697011L285.646927651238,525.0650105381576L280.41360606458284,520.1446224798619L277.45730518088794,517.1068119265246L272.13914256701173,511.9912229124745L270.64335217943415,510.3575749262932L267.71977096977815,507.47855785504504L264.57658312810776,504.41913698713483L256.6846308880348,496.7183509975997L255.06991863515594,495.0497158938293L252.21192813471254,492.3280184124422L247.26089206112317,487.37939755264534L247.10008582176602,487.2184824806816L246.75651299176155,486.87463758533363L243.05917409291402,483.32258681468795L242.46415704673166,482.81877510271175L234.9767757438106,475.263433920817L234.97792523059877,475.2636279817491L234.646917825868,474.94148098040694L230.6236676863088,471.02205226759816L230.6075838911666,471.00529643126987L228.8442283732998,469.2639126600062L225.93264273449472,466.3855380580466L225.7486357053296,466.20350135945785L225.39216281355925,465.8508020273231L225.25586196851128,465.715928864949L225.16967074829995,465.63063612119805L225.1689390608799,465.6299120466592L224.86426117936213,465.32838318193967L224.76431961300233,465.22946542796194L221.48111349948925,461.9773798987072L221.31847130293062,461.8158772479634L221.25699991931197,461.7601230919269L218.097362482096,458.64332349407914L217.44591693550325,458.00015039760603L216.95800610745698,457.51830988369466L216.54149160538736,457.1068923613002L216.53002813277067,457.0955680616621L214.37748463319275,454.96810486054466L213.90832166323383,454.5041301424352L212.34213780511152,452.9545442174098L212.33155674530332,452.9440715128509L211.82939512621596,452.44699391505446L211.80678225446167,452.4246072920549L210.95542502501274,451.58159941833753L210.94430380749793,451.5705850921766L204.68918451848361,445.36667909397806L202.1957993240179,442.8887394955219L195.78251652227596,436.50212067595334L190.17350465435453,430.90094668490104L189.80627048572433,430.5337201207398L189.6820785460754,430.41045152946987L188.78775377150913,429.52256770157646L186.94628111255213,427.6932048537231L186.40477743194566,427.1549667263143L186.29420159584004,427.0450412002789L186.27532844315243,427.02627848306344L186.07797847174368,426.830073517129L185.3354710256467,426.0917140517326L185.1677010743216,425.92484631951754L185.16012916369982,425.9173148238961L183.59773987419896,424.36270191671696L180.2661627906382,421.0439605338748L180.67406265511494,411.93790443318017L180.94772075631033,405.88105446352216L181.26802819515694,398.7937502048434L181.5853584686509,391.7744848217407L181.60790101603232,391.2759314424166L181.60806025400012,391.2724097565649L181.61320326811187,391.1586678521546L181.62882447625367,390.81319571533885Z"></path></svg>