<svg id="NH" width="1000" height="1000"><path class="state" d="M760.3587067064004,869.7676763388206L760.8175559007253,869.3290049876114L761.0102559710526,869.2351038591173L761.3084699140921,869.4439607149482L761.6877430204931,869.4223731228471L762.0852964704,870.0211923528815L761.7052107643586,870.6944374934477L761.3558565290358,871.1366788387543L761.2011358862068,871.1611703140336L761.0981282960886,870.9528068306972L761.150551378026,870.3884276734868L760.9469003721418,870.0271626416398L760.7886572986536,869.7525468487287L760.5112519480213,869.8318073804929ZM757.7865513282356,872.6399351135879L757.8987820375323,872.6294726133278L758.0740641885293,872.6406678908603L758.2815494812255,872.7979366043436L758.3750177392615,872.8359560653344L758.9516650870833,873.0917104855428L758.996320460985,873.1221498686009L758.9694640543196,873.3038378942564L758.9621199213059,873.3591035112053L758.9042732689077,873.4626919694749L758.6729839791805,873.583363157944L758.5022151955353,873.5096086768622L758.427431450327,873.4639029546215L757.9733483475306,873.2941439840813L757.820540121989,872.7959035199351L757.7402640374642,872.6833992057009ZM757.4493699626333,870.1463371366374L757.5209877133117,869.8506691643047L757.582482391834,869.620602859296L757.7107838624925,869.457701076899L758.0323787553093,869.488327668263L758.0794646465542,869.6701422344869L758.4125145022888,869.9942071825844L758.364737473969,870.1189206262073L758.3598729591947,870.1925133096124L758.2456427393545,870.2853412631778L758.077108409175,870.3490042366068L757.9429507360367,870.3503048351992L757.7519813489146,870.3474755405364L757.6211492721254,870.3843638975001L757.4851912388933,870.4805149545989L757.4277524162916,870.3360001472624ZM237.91470352960005,915.3398673356287L238.18808062585515,914.5242882500406L238.54539300029109,913.4581843047847L238.77499793043546,912.7730480471448L238.5707250941593,910.6747285804995L238.31006161293493,910.478267357708L238.29546029591774,910.3134401577247L238.28727590941992,910.2210489845289L238.60690028460243,908.7155751631399L238.5598142830433,907.1070518396837L239.31954204905202,903.6115622595985L239.5419705982643,903.371746743657L241.04309385849228,902.8440195041848L242.61603513259,902.0489257896842L243.55415991394318,901.149583090845L244.79154733284486,899.631322388073L244.79680712755209,899.6248678984448L245.1614538463756,898.9421329510853L245.18997559310634,895.5539021888596L245.58785907506572,893.9384627992358L245.87187979436206,893.5231946885326L246.93806998819713,892.9376007093026L247.1724054859656,892.4960623152141L247.24210397304498,891.4213184740008L246.53946507187942,887.7012299307564L246.73226271886907,885.6718882477967L246.78820286406201,885.0830014712126L246.74074379399102,883.5438717004814L246.54485165250145,882.3466388932166L246.25802161024345,881.543023087145L245.93694164047062,881.2431924202847L245.42029940310812,881.0905894228604L244.8400187013848,880.3151733234098L244.67294798392743,879.8331692250393L244.80524491636686,879.0124527436924L245.3431216272353,877.9883770388998L248.42890100934332,875.5588969207367L249.09833359333774,875.0316665301052L251.93386548067443,874.7134323751736L252.9325460313082,874.1265302528982L256.07096256426263,873.506939611665L257.6361838327574,872.0116799502475L259.0387075213739,871.2283972299479L259.697893188649,871.3821480734458L260.3647066049605,872.0737006792151L261.14486362833793,871.9769262152477L263.29243569766527,869.6514772135212L264.490862125709,868.041117465018L264.50587842133086,867.6213188890933L263.8656050817087,866.8544085513213L263.5348931679922,865.5807381184521L263.726334048435,864.1052299799953L264.2234770756664,862.8784659651274L265.0455892632041,861.7394046456841L265.8629962806409,861.3024131727487L267.2391811625257,861.5928702209369L268.0709796870288,861.3889432569848L269.0942885461085,860.2125647704385L269.43156557675684,859.546031170592L269.43084997482276,858.5466628905343L269.22283717892276,857.9550746329089L267.0115432902055,856.0214190902017L265.93306327891366,855.4327890409348L265.4186776995293,854.6517192294458L265.25726948533844,854.2309183313539L265.24995003454956,854.2118355448526L264.5435348881804,852.3698966724465L264.4024174807871,851.2761754271968L265.00727945232165,848.556951059955L265.21113274532973,846.8303097209654L264.69700862604316,845.5204880309869L263.73817068367725,844.295853408252L263.49736131594557,843.6704218867073L263.3759950976584,842.4009752126419L263.62265995533676,841.6408274637704L264.35766709275777,840.670659981348L264.98145763228985,840.1187973761695L266.8360263931503,838.4777098636039L267.9371262809059,837.2714019955017L269.4331319243042,835.6320561584419L270.8967018995205,833.5661258740272L271.9110526296041,831.8615711641586L272.1560087581313,831.2024304735954L272.17231749179655,830.8452461423797L272.2077012228516,830.0702572490326L271.1780125523354,827.0322628262331L270.1852915554655,824.8176590946939L270.36906621810635,823.7968359114604L270.87698612795214,822.8818537941489L272.43761803656463,821.5224093932603L272.91331404637504,820.5316498420909L273.04713774332913,820.0052463061447L272.9965936426478,817.9571247162089L272.2246990244878,816.5772399234722L271.69412705100603,815.9462612207983L271.6100511233938,815.8462685136585L270.90242387853755,815.0046117128878L270.3913269352137,814.048035198565L270.44709999742895,813.6966307982766L270.97539746007516,813.5877387761905L271.02149770291373,813.3202189673195L270.9756920523595,812.2011292792271L270.9675384366983,812.0019060405978L270.70496301953847,811.6960143152811L270.09103396569566,811.4090131776159L268.9952776089415,811.458356513311L268.01972842444275,810.8050148906328L266.76151453612914,808.0018942107965L266.7530180520455,807.9829617314007L266.6977889128133,807.2720427874004L266.86541481228164,806.8950330044263L267.8799716731267,806.0130983609552L268.1563661098178,805.4639517261979L268.23300888777163,804.8528381985273L268.1242031050656,802.5546754879782L268.23882686368813,799.3427938202683L268.06646352448814,798.6271860243368L268.2927197037111,798.3975673942306L270.14796521793437,796.5143891700532L270.55929705871944,795.8754509516307L270.48211288778293,794.9600988809544L269.00323338519104,792.3871746616585L268.79716437407376,791.1679323208322L271.8714474905069,788.081989384108L272.21565381840526,787.4585678525955L272.018780096315,785.1585768379741L271.52955971762333,782.8620682262093L271.5688445743061,781.4711122309976L272.36527209717985,779.2043371191018L272.9678397788671,777.9206254779479L273.2476844988357,777.3243722984041L273.44176383425037,776.3862678454614L273.4741090383476,776.2299141924938L273.3410281167006,775.6664700436926L272.70977696949126,774.4241224529585L272.13513445844353,772.2441947810266L272.2514101162824,769.0696269320681L272.89608938654806,767.4125109097882L273.2109218036259,767.0403825028512L275.23106500867084,766.0717005252221L275.2374960389819,766.0686161413518L276.8792835615136,765.2810681245617L278.56137375835254,762.400302289554L280.6566228959562,758.2118197224712L282.4195403110566,750.7262055445458L284.12710385038304,747.2355622867027L284.04478227973414,746.6397066677853L283.57509425087153,745.7360580890874L282.2846081891481,744.5014366974107L280.6836683998979,741.8047042396057L280.29929966425254,740.8020100780859L280.26503851313237,740.3326138354952L280.63106866931605,739.3419903494805L281.21995766632506,738.2406086632375L281.30124760354164,738.0885618432441L282.84097828347956,735.208029426266L283.30168067344175,734.5536715509772L284.3522561723421,733.5322140605133L285.5712863058021,731.8771460927551L285.73341230980736,731.374560472072L285.79958190719924,731.169428180829L285.2545660307903,730.8172743238463L283.0518182761883,730.849495590954L282.1203234143537,730.6838998840171L279.63716873192016,728.9450772028558L279.2959354312543,728.3787423310393L279.1969089223807,727.7828766808569L279.0239550171638,723.8860245437056L279.2038837040533,722.5414512617041L279.81974082115295,721.0532588191453L280.3591789272559,720.5351298620783L281.95374226678166,719.0032561527707L282.3482594684857,718.2980280325546L282.992172001742,714.1710464863055L283.01788088720775,714.0062343980251L283.43419982251623,711.3369297890372L283.50036829039436,709.781631280471L284.5109936766554,704.8093108891223L284.51208251374135,704.8039522824557L284.6664173841606,704.0443758085285L284.77699883545216,701.2769534769715L285.2539948028942,699.042957709886L286.0224096331257,697.3572233857024L286.2001178343836,696.6574079254358L285.7299173139709,691.5819157449761L285.7766192535416,690.746318445635L286.0430378734535,690.2323507237801L286.3283690189488,689.9387913950857L287.8779069873347,688.3442960362918L287.9402460487551,688.2801386596583L288.3588934442986,687.626155773253L288.57976322813795,686.6807004543008L288.707255825988,686.1349094569622L289.0815922930197,683.1785250294504L289.09712976676354,683.0557953778527L289.1316781002057,681.9191736106359L289.00019816178536,681.2734840759352L288.00903316582344,678.7478156571199L286.7606369377153,677.3977376457942L284.9940700818879,675.848421279213L284.4604027336202,674.8283814812664L284.4254207545448,673.8748722674177L285.0398417019723,671.7937530051186L285.1190718561697,671.5253538391887L285.1911413122791,671.2812048496521L285.1768103921091,670.0670280366263L285.65524711067644,668.7872815099804L286.58688150554434,668.8522744115355L287.01730474361506,668.4913414928944L288.58911280527695,665.9835309303176L289.3958883532439,663.915402564998L289.2597979322834,658.7826982789882L288.87852021712007,656.019448051816L288.92951531254505,655.4105429191276L289.8272233636209,651.7902933523769L291.5276874540216,649.8603995693155L293.94102118443084,648.3786955899573L293.98812664737676,648.349767822755L297.7121268523823,646.9151396656373L298.7119901915781,646.0254892803736L302.4146710540931,642.7295360118876L303.1496529054682,642.4340390433945L303.44533186875344,642.2174935471762L303.6795062849702,641.5360557758116L303.5672041850419,640.2083528575942L303.55079462702065,640.0143295408096L303.2175495739956,639.4418949905107L302.3868772409021,638.7287456097386L301.86771837591573,637.1847986427256L301.983080546241,635.4580689803803L302.5526766296415,633.3400030986626L303.4598018331352,632.6510115370293L303.9352410157862,631.3634584735604L303.9052024852276,631.1292600944746L303.3562669315361,630.511929795878L303.31555516802416,629.8520479808279L303.34778625598693,629.7786306867107L303.4613805882185,629.5198754022266L303.92507639388964,629.0840357417385L305.22510735456814,628.3252569471072L307.1578120338919,627.52541893085L307.47367466156777,626.9285745555379L307.5506012553371,625.5607439470748L307.33529610811695,624.8131007167145L307.2489267299974,624.5131646890709L307.55725078523244,622.0548299838301L307.8679935600147,621.2242717153346L308.41483402599374,620.7643243165882L308.880251771241,619.9276363561553L309.78779266872755,618.2958633758055L310.1851679145582,617.2160200723047L310.4489996371817,615.5589374166202L310.55230111651076,614.0914362692106L310.2350530112839,612.968799638782L309.8039615689287,612.2619506188327L309.81244575859944,612.1021659987775L309.9869076884072,608.8159704356068L309.9894123181989,608.7687856281165L310.0500970439308,607.6254820004041L310.73330029496793,605.0983837332132L311.1634436864947,604.3953114814534L311.58381512104256,603.7081441510522L312.86763527114203,602.8328957620016L313.5856986571124,601.9920039547176L315.0031147244363,599.8504005283853L315.58380861855125,598.723705553205L316.1951318027781,598.0127357911049L316.9096781006243,597.181609834305L317.9187583646727,596.311219804849L319.2421123326184,593.7431457879487L321.0705297351708,593.7593591401662L321.66029149925856,593.3896404853L326.16685672246365,590.5631570437779L329.4464886674111,588.7086992736721L331.87825524685803,585.2515456332617L332.3022079368543,584.5309691092972L332.8333232010832,583.1527942729161L333.3738326245203,582.3920300251632L333.80079791116543,582.113288723089L335.3010878203618,581.6972972612501L336.1718344825615,581.1318700080468L336.79582411078604,580.5268546538528L336.7964389564644,580.526258469835L336.91124938551127,580.4149315468022L336.75779427158386,576.3947042015401L336.82534412577456,575.5948467343932L337.1561068244731,575.0067148713867L339.024517726588,573.6026056169527L339.42143359339366,573.0651829107848L340.0582102138387,571.9035475208354L340.72329555144984,569.6827727926374L342.29399164707013,568.2815934710268L342.70672512649764,567.0175275078984L342.5297915851059,565.6542218416931L342.50069306055616,565.4299897604277L341.92510275454725,564.2080811345671L341.3824819507644,562.2707801773497L341.4725334988092,561.6391718224593L342.01978185085693,560.1712243185746L342.7982653722735,558.8061851802356L343.11016508100033,557.5945043119262L342.981837210026,553.5547092138613L341.8300778311801,550.442016520047L341.6993470849802,549.5241286164105L342.5513529758574,546.8849330061888L343.04070785372346,546.1826182823761L343.98217718708986,545.8848404930139L345.1947837606219,545.8236499171483L347.1233405357044,544.8375384477869L346.83510899409197,544.0708458491096L346.7400606802388,543.8180016748042L346.53519045698874,543.2729848741191L345.98820327774763,542.2741770763408L345.5632368943336,540.9862685805132L345.7873230808425,539.5142682127873L346.092553449262,538.9181736515297L346.37085159022854,538.5469918993247L346.70923598783935,538.5889736530995L347.25736479242653,538.656959701884L348.9437670511602,538.2708617161218L349.36901604194713,537.8782639291203L349.5522354136407,536.2590308813772L350.32051057951287,534.679324617936L351.49349053986396,533.0216201513649L353.15658804624053,531.7334202453571L355.7793364391295,530.0353380078984L356.73407033938815,529.2140396266542L359.5166872516694,526.8195072412974L359.99945863697116,526.0972351318424L360.3168403101687,525.2479834134542L360.68256273577634,521.3790888301755L360.6877727871911,520.8855807769278L360.13491425065195,517.9854450961395L360.2179953317512,517.2086734423118L360.44860335739264,516.6763269333152L361.12563441544233,516.3913798190844L362.2783306887661,516.3937507302262L363.5946535974209,515.7817653859323L363.98002634555894,515.3608883192373L365.4464632442699,512.8851292666088L365.46602452444677,512.8520984701789L365.50794475863944,512.7813122618792L365.4425210099042,512.3367530322118L364.941258366747,511.61374958398244L365.03901643296496,511.02221099927306L365.562740835284,510.53386172698197L367.71888144739455,509.98067572264597L367.75776321920614,509.83356673073894L367.52670516307614,509.60231588941014L366.20735749212264,508.974625742842L363.9048744273854,508.29024333681986L363.36087948315253,508.44402641724275L362.32889467740387,509.36384342179446L361.45876185691327,509.1534539081363L361.3430268354343,508.854067612862L361.35348249765866,508.4368706769218L361.791048842261,507.23523501173827L361.95548696326784,506.19403252686436L362.0117128696453,505.3528634095106L362.18137703540003,502.8141575070217L361.9156499448711,501.6912455053089L360.910348081523,500.24896615119656L360.84649930360075,499.32871841453374L362.95437297403913,497.14541797614794L364.3382488788911,496.321025602071L364.39269283143824,495.81411113084636L364.05374309779546,493.9310393318923L363.9735248056894,492.74070950492455L364.7187605002059,491.94030845890245L365.65735704559415,491.73286225972345L366.6060455730757,492.4325006132235L367.0827618333243,493.5763779198578L367.1122606440063,493.9675971145299L367.64200848301107,494.0640280641868L367.9512467531954,493.78378298906836L368.0219628935101,493.2854149089894L367.84458550719904,492.7515671636075L366.6309827230779,491.309487948682L366.5169715655344,490.21028359130514L366.6733994017123,489.42999249000536L366.951312885155,488.9420456685124L367.4859335869702,488.48130439500756L367.89149605445976,488.5434076052932L369.3484475192636,489.6458130211169L369.9896104554289,489.3439306821798L370.19329098360754,488.8057275723247L370.1546094026033,487.59923816547246L370.2926408194387,487.02659585892724L370.6529366165423,486.58050215765036L370.74598312346404,486.5254265889713L370.92031613428605,486.42223374381047L371.7969036736197,485.90330390974736L371.96920713126855,485.49184133178824L371.84924991799954,484.82657663002794L370.8427906885605,483.02788583454696L370.7974400690081,482.3367831723061L370.9608828549583,481.80811409513757L371.38956757711287,481.1916716561244L372.0454308879315,480.72433393075005L374.2689617174422,479.5049768521634L375.38818662057594,479.28512985299926L375.2464912899983,478.6700154347574L373.7660569949219,477.7822486691773L373.57390290152136,477.4908692478475L373.98271014973386,476.3354020943338L373.98669406540864,476.32414099945663L374.56211498263104,476.2165760037302L376.2737280664234,476.3858833305467L376.71792479740225,476.1260633693575L376.9384732833691,475.7874753552727L377.702473147132,473.9212712870565L379.0739450961998,472.3303777676607L379.2577718561238,471.8433992837173L379.03596275479634,471.11387181714565L378.48122451192614,470.4123552969669L378.05634011495255,470.0175493692119L377.99918900578774,469.5634119620521L378.35448351915613,469.3701010201328L379.6045776189958,469.0263575276832L380.4430885513291,468.58437435537724L380.9458252519309,468.7113012507648L381.25043105607534,469.1184336440558L381.6539643678356,469.541688909386L382.26659363082797,469.62804031873725L382.84000537412675,469.50122325947524L383.16627387900576,469.36356656472094L383.4776303828685,469.10957215860867L383.61072258943113,469.0009954850435L383.8388635253741,468.53437939733476L383.39095204470567,467.6368429827012L382.0061960817815,467.06745593430134L380.9976423447401,466.48590407622964L380.26359444712386,465.95468095312674L380.2190202616272,465.6109215155534L380.41780615935994,465.40385489047105L381.2445452245141,465.422255761985L382.3059779189658,465.3087518077988L382.95610770549814,464.92507330717183L383.4709491444279,464.315807419864L383.5838862751317,463.9650347220324L383.9085645354234,461.76146615912296L383.9005205753076,461.38205534274476L383.824064625467,461.0628109153417L383.4364796151803,460.53545984506474L382.4721984754609,459.9868465792912L381.5450121616742,459.689435232934L380.9967528375836,460.0338676005183L380.4312793186486,460.88585290981644L380.4177959558874,461.84082023815165L380.2768240171182,462.19421639665933L380.04343385347346,462.420604344709L379.15046460466664,462.2298815291573L378.4611419261435,461.51715538211397L378.10425079770204,460.69932330628797L377.9278566158502,459.7432215701168L377.49618813252175,457.4029848860548L377.54339262804604,456.6724373638863L378.1128181869627,454.1479186555216L378.17731120880313,453.8619448956101L379.7332313355997,452.41378367109814L380.9084984054734,451.7905380606569L381.2269526634555,451.78782498669773L381.7167248059869,452.17018906501994L382.0648817904697,452.1440758309245L383.07848150816767,449.6681603818402L382.9408582917177,449.3095810020243L382.00093326245974,448.8441856599584L380.9354398623042,447.60503899700575L380.8590532772971,445.4997221795917L380.74912862422633,442.468943162376L380.7936796022692,442.11234106272786L381.17667616742506,441.46890284560817L381.22638708885063,441.3853836652595L381.679622072851,440.9463746502863L381.7105794105593,440.91638762718213L381.8896578748803,440.742918708402L381.4712270379657,440.3903591794142L380.89248092844025,440.5460521406634L380.7292916945951,440.4761936917332L380.60042345580104,440.4210257074435L380.4741873559841,439.9702700233256L380.9041971513402,439.00633538674964L380.9142694705048,438.68508906103193L380.19685008789804,438.66143506237677L379.81585043146686,438.7838946131624L379.5498465372223,438.6369046463906L379.2013580487476,437.45687254427514L378.5392457310646,437.02215220729147L378.15409640421,436.40665809033067L377.0248096688969,432.2019678909813L376.0414584470361,430.191759699143L374.79923470379464,428.42816770502475L375.2368202478749,425.82440814348377L375.50643512452154,425.278864476109L376.4230758564835,424.56434906951444L376.7098100908345,423.9608146818633L376.96250854463744,422.5267107809766L376.82909485554154,421.7450465550389L378.25589063689034,418.6108964999137L378.3542988452524,418.1584090899938L378.41085450780935,417.89835153856126L378.1009299201073,416.4925351195649L378.1944203505877,415.28105389125085L378.98012443881373,412.548516900145L379.71582409418477,410.7706502375786L379.5758619087507,409.78177470344883L379.15502328772163,408.7486914748532L378.15526176698523,407.69380919615094L376.70993069915306,404.45030046541797L376.6779091564728,404.378423976141L376.3398152881275,401.7027748128801L376.55193847047076,401.1330582185419L376.6940303474359,401.1223457265353L376.92145496854914,400.7877305551848L377.0563112664099,400.0717059146358L376.99427168230665,399.30164429791074L376.446581044631,399.3087292891218L375.4785819745641,400.017233827872L374.98043518063344,399.89143316891807L374.64853977163193,398.92790102607125L375.2775151098676,396.66077390736825L377.010491958981,393.4065877497336L377.3921514036558,393.0026886950196L378.4600968524538,391.8723554626961L378.51088240793024,391.85793287028855L380.2976569948647,391.35037315329646L382.2080541648028,389.74032378427535L382.72520480387493,389.2469922479562L383.32783690123586,388.30958973624604L383.6638859535408,387.78680467780936L383.90967633368916,387.10855255541105L383.97681947950866,386.0472645707506L383.9983567092172,382.75315330198976L383.6227944203636,382.1702868117229L383.8060330029225,381.07707999699136L384.870371498681,380.3481014504457L385.7204942959668,380.48005244829375L387.443054790859,381.100787207018L388.63608024531,380.87492895089326L389.82439880449493,380.5509300857396L391.8225333263287,379.506937477483L395.4731394654381,377.7578115384405L395.950136260701,377.2351663458966L396.4485623507528,375.4152000655818L397.3596777282345,374.9658482275425L402.0259162416936,375.3425461923275L403.3299053840866,374.9932311897684L406.6932508858144,374.9439434504952L408.2755769545694,375.64417107677457L409.22387320887435,375.6773410738711L410.859551183443,375.03228253239706L411.9138816003308,373.4252420636699L413.91062144706797,371.8009213073943L416.64572756461314,371.1831685821264L417.831695669884,371.4752071032382L423.1200957251637,374.15148193638265L424.6799836710119,375.19047900921646L425.5586951620387,375.46458217965085L426.2243647694781,375.34698076533675L428.2988519323974,374.2159524353594L430.7174076005981,373.95119364797034L432.550362386261,372.93578608058715L432.8798859830634,372.7532003230024L434.6177455349592,371.46273835045577L435.7598022004428,370.6144690864347L437.5831585411911,369.94439044004594L439.506790241997,369.6145343072515L440.67352631809854,369.03837628240194L441.05105300588156,368.6749862327648L441.2344663006594,368.01938111708876L441.16696120135566,367.6123363724473L440.5220145486829,365.7195057101793L440.22575488717314,364.31299223175677L440.4007825295379,363.850447696529L441.09267985924225,363.26861867168645L441.2491465150124,362.8905281991356L441.20176696206926,362.51300907218445L440.47192832429226,361.7617407466365L440.33795373259437,361.4455234673414L440.7073462741146,359.1006800318874L441.03487032301706,358.78686154402186L442.15184106450425,358.40677683676074L443.5424461030981,358.60381529690187L444.35920460661305,358.26583325210146L444.4698018499279,357.6586657937004L443.54583889435105,356.0467812030796L443.54837370331853,355.5005062091274L443.8448023496303,354.9612634461101L446.0380110072313,352.8333831484517L446.87802102005224,352.4779860063004L450.00652941433094,352.65712973681514L450.8411722488093,352.1788806448098L451.51697526156426,351.46643803213425L452.79302511145147,350.61935556097836L453.5487119972332,350.2077895908408L453.61176201746093,350.1951187396909L454.32939957271606,350.0508771834208L455.850842267216,350.28299767192107L456.3035552527086,350.58333318156826L457.5449243709195,351.90100220578523L458.7160465448011,352.12082630231185L459.21054453305857,352.0142529723825L459.41759215881314,351.7577247534943L460.0409013719012,350.1593889235781L460.399546735714,349.6466420985982L460.5834078229643,349.38376455678997L461.08023756234354,348.9714017114459L462.2219248467793,348.6290448584586L463.6007992336645,348.4986833923765L466.47873490540184,348.83082453432917L468.3054530598572,348.29601299451554L470.538517447684,346.8171488592594L473.2939128744664,344.76607960520226L474.55680464175487,343.957373063624L474.8807972160907,342.73885159758163L475.4947860606249,342.6043950546478L476.08210725838944,343.026847117263L476.36535051051686,342.9200264826511L476.6187915685423,342.24456230462016L476.2492837195264,341.2387384229276L475.77088141697584,340.2033579342569L475.77625811368966,339.95644007936306L476.26319712835175,339.70931938374525L478.44883718678483,339.4154320675001L479.680421352731,338.7546133831797L480.2927262862605,338.0514305347956L480.50131423819386,337.57095582205096L481.0223810648613,336.3705639619259L481.4692292550527,333.08254581966884L482.49851810049086,330.72904783503037L482.7648016518311,330.50537826782187L484.64087590458405,330.71514136029884L485.2150000526656,330.2848032746864L485.8491110268912,329.3966740551783L485.73522258129464,328.7625378014544L484.26092103806405,327.69723949754086L483.92178283376967,327.29554524076974L483.8415044376116,326.55345124011143L483.9674588943044,326.15416615813257L484.4347064088642,325.42401432283094L485.15410490765777,324.8782885382245L486.13710767670847,324.4491756439547L487.82469687161546,322.2566970764899L488.2871853203791,322.1002113817647L489.15389404740944,322.1430533053523L489.66530566135805,322.5081107889125L489.8347624234893,323.0218325863335L489.38160402381834,323.43535521092736L487.72593730108133,324.06012044459845L487.1438259946935,325.0341749438568L488.5395225018128,326.00623194015594L490.0786781117029,325.45518667211337L491.17176138243525,322.5781796056905L491.7506471894107,321.59857705905785L492.1879390021958,321.5158818435047L493.83079857939464,322.09533131542753L494.6335661020495,321.86077587898995L496.43959113067564,321.3328915875569L496.8439579658166,320.63717931715115L497.0822886429174,319.80759188500497L497.473648165109,318.44515096923186L497.52436873090295,317.7871631824118L497.59222323965014,316.90681935897584L497.77956614439734,316.15311150017993L498.3962826011019,316.07136662588806L498.82552578387913,316.40412367328463L498.98909158435663,316.6527504209348L498.98929380593324,316.9593298466896L499.67426635236785,316.9590762530777L499.95633141042066,316.4042984704634L499.7582157946587,315.383815711793L500.4762018461136,315.2592326030623L501.48311534599884,315.78073140814695L501.7968827446274,315.7310833761393L502.0855684873036,315.44950875817904L502.23415394313975,314.96066137444944L502.0524571763587,314.654467386775L500.640951809276,313.42893872133874L500.19499402620005,312.7502141439576L499.93905508900536,311.55770828480445L499.6913284404791,311.11055234877085L498.34598921348476,309.9845456321897L497.8671957883635,309.27246288206845L497.7929844776004,308.56882433798927L498.1557885067743,308.08849273617193L499.64133063386623,308.2952918703483L499.99601180920786,308.21236667226157L500.82937600862124,307.58274397425663L502.28119766980365,305.4379557470563L502.90814775933126,304.2289795534987L503.27912291375196,303.2681970100211L503.2625214122236,302.6639437872642L502.71760078850815,301.62106572604324L499.3916687346533,299.0885295928456L497.1391957549125,297.06898540208795L496.8008011202594,296.3488053827214L496.88334784561465,295.71135868733194L497.312179818673,294.3619661829702L497.8838022731828,293.30636828064786L498.35664020820866,292.8338462908769L498.85235882582936,292.62534002386633L502.63274567154264,292.9583934392L504.16044176819906,293.68181903586805L505.76028530610097,293.5217030687306L506.6769952592137,293.19507169756616L507.0073345461574,292.6687067581484L506.8985138252491,291.5072817619272L507.1596291748687,290.90164943485325L507.2713194572758,290.8669476012555L507.5401213130456,290.7834273991332L508.5382645607678,291.2298609714848L508.7856664366255,291.18844783763853L509.3053247797472,290.8075399327551L509.544241363627,290.3854957439519L509.4862012270247,289.9469663844454L508.3638299684856,288.55694238308877L508.24620231062073,288.0203194236566L508.07448103595686,287.61735262136926L508.11033801551076,287.0817541027825L508.5707623748663,287.13946777307484L509.1467077661749,288.0756226934751L509.7458464916897,288.40554551094635L510.3496449855771,288.31065827988886L510.8433645905253,287.93878932406363L512.0655202566223,286.9641610644336L512.5264204734021,286.3043869616313L512.6174244236652,285.61087045937967L513.1760872436045,284.7576557569754L513.1987837826933,284.45455918285467L513.162802243539,284.45547666190464L512.9344667662828,284.46129671918294L512.3654890999973,284.65873473483975L511.86755467206865,284.3538652846558L511.87286649980757,283.86901568007295L512.3996507087725,283.1679687630646L512.4773411895384,282.61210803574994L512.3319186445863,282.28091835131977L511.8845575119626,282.25808637572055L510.73708430844124,283.2604175334518L510.301204528277,283.49823011629974L509.9459829532684,283.2486088629724L510.0267645906265,282.94766595408447L510.3838627984012,282.5111327219518L510.533787966747,281.9020205021031L510.4860031415744,281.3683554694014L510.2197979108771,281.1498345216607L509.7522371647914,281.34237848794004L509.29210336592456,281.9299262634598L508.3229821872382,282.5723999462994L507.955504676723,282.4541744181809L508.2357883717807,281.94821853998747L508.30200833161194,280.8051285557893L509.0470832504031,280.34890669051947L509.1249377931597,279.87637645110584L508.80753501997384,279.75670566274846L507.4425169756146,280.2924772676077L506.622943752022,280.20264897488937L506.25007400102436,279.9200125275776L506.15935537531726,279.2183809112659L506.88881755907204,279.08886628958373L507.7012961676826,279.0201013620531L508.11766304279774,278.60572699637584L508.39316116253275,277.97418977924696L508.19647807351447,276.33137862503986L507.5166480929967,274.0513509710025L507.71042706425635,272.32055377357665L507.90145924646055,271.44590829933475L508.1797990844195,271.107687443426L509.04199248191617,271.9014380414999L510.00426521194726,272.2892969231261L510.24204525059076,271.83087281969824L509.92162221043725,271.1150685221352L509.36273672207375,270.953228901359L508.5667527007414,270.5945748707884L507.53900805425354,270.3471060823353L507.3113505587378,269.90306475209155L507.74854575731075,269.4167545553515L508.76131130443184,270.2100592664015L509.9953133248989,269.86476554233866L509.91892484825377,269.2114641819299L509.3304730598264,269.0134526368137L508.65316829502024,269.31098798644405L507.7123759888909,268.6001871968656L506.0805794851771,266.960099747349L505.9486347333452,266.71185056292364L505.94837670538766,265.9014743149182L506.9209826049877,265.677818359163L507.13525793868126,265.0736748323539L507.12042319679847,264.97516815408056L506.99454404348546,264.1392493718841L506.1695855733744,262.02202588416634L505.48988408798846,261.080225324295L505.0436441533551,260.7054289194249L504.6572605716042,260.81517322528833L504.3917375478883,261.54733625284325L503.9906987029211,261.92885155890895L503.4943279167763,261.9687393484875L502.72658256849473,261.88233295936595L502.48608418624127,261.3756983617767L502.42607210225907,260.9533755700967L502.58101206172796,260.44853260431285L502.5029828697175,260.0443151577403L500.71340789091226,259.7077762622876L500.2287356787627,259.27529696828293L499.78349724829064,258.67381725605514L499.783572133932,258.08288974387824L499.84579336867944,257.92454053545526L500.1264981391593,257.21012334692193L500.29950923331717,256.54867283058013L500.0239710420008,255.71893196144129L500.0240356703843,255.12804733281945L500.3243696626217,254.79012226711876L500.82644664199523,254.0512982085578L500.96644251735887,253.58816780720292L500.7024795495642,253.11670091614576L499.58171661140415,253.08402414077602L498.8976191975413,252.8606687286088L497.28224403405557,251.57945358296087L497.25761313565897,251.3645339013944L497.70261324745127,250.65336412140886L497.81781392479775,249.86757880099498L497.2489223497037,248.693782353858L496.83680725184996,246.6102096647187L497.1415405140077,245.8495321352916L497.7840260794749,245.4608366931103L497.84171826082445,245.1222542564812L496.6795626938351,244.7337406836474L496.292439737589,244.40296570013783L496.13572863711767,244.04767620194758L496.13585774970034,243.7170481999509L496.53916222483303,242.60921749309495L496.3992375882001,242.0882838618855L495.0726290534966,241.06334482730438L492.9717084336594,237.162044018803L491.6206048991894,235.83127309235806L491.5795718758717,235.3599953840129L491.85942385678027,233.86402616213428L491.8018345412954,233.5500759018817L491.439403933859,233.41781539618006L490.533045801827,233.96321085525028L490.3601337546742,233.9551158552532L489.93502206968384,233.50740765270905L489.75839284284325,233.04435462846737L489.75292134158974,231.32550444205015L489.9022785096457,230.5900899185462L489.8732960954589,228.10255961633675L489.430268898908,226.92844960542226L488.35218874246704,226.397741222817L488.1647445762803,225.8905261663458L488.13243419684375,225.80309241788217L488.1547500087216,225.03296169078385L488.31627541088716,224.74747751161607L490.19918229533306,224.06868564836856L491.7355272060377,223.79941353451005L492.6869090369111,222.79457128289067L492.67991773339963,222.08665701389526L493.3225085066235,220.74104700598815L494.22964945444284,220.2668674828381L495.1589300817345,219.51535629745257L495.6974760237718,218.47200912171837L495.96652669372725,217.95070932313564L497.3619846990481,216.73836181419523L497.3933841491773,216.43110012768614L497.1966934351736,216.01749254581256L497.1278484568435,215.44957319778166L498.1501937608975,214.08021655635014L500.35009470005645,213.01171850527345L501.4755684305213,213.10321991058356L501.74930322827936,212.88995486481002L503.2090482898289,210.78908797388436L503.60416501035087,209.7235110517014L503.23904596129324,208.59698436987787L503.9379670161398,205.94808441285255L504.2722073731543,205.3090697132372L504.24182642213304,204.66977175209882L503.30643352070075,204.10254489023657L502.723065595562,202.9526964163412L502.6304480756409,202.05180653920308L502.93439813965466,201.32146322954895L504.5762493538354,199.24234586907124L505.28378800885037,198.93647773175798L505.38279267239096,199.2172121304883L505.6542051848739,199.21713384126798L506.0244602675307,198.95287841392218L506.0798906183535,198.78580473814554L507.19782612550347,195.41544772106226L508.21217277972033,194.8210078669544L508.5946340000196,194.2029940737612L508.6489373378382,193.68523008691392L508.4821542370924,192.6588946091922L507.87134730587303,191.32824036071446L507.4321408010794,190.92056082974875L507.4177535506085,190.21754445085548L507.72610131803094,189.58917919644102L508.2237080429535,189.01961023068577L509.58314737259656,187.78811795213994L509.57464000169944,187.25132245705305L509.08069374710163,186.33551684357042L509.11306021302994,185.59245971486325L509.2774935293464,185.23728919796673L510.2065962259035,183.95732086786268L511.68693968974975,183.05655363204005L513.1017338977734,182.66787465423914L514.491440353454,181.27208573565912L514.558119882246,180.0552138164208L514.6978093503824,179.73327750044518L515.1334575598031,179.2709209666885L516.0467962981367,178.74955043536846L516.2191827426986,178.65113484151937L518.7998548204984,175.2407371336567L518.947641008824,174.76205620116576L518.3385654233066,174.19295907042994L518.2716930954047,173.89872774897367L518.3941850841397,173.65157409331744L519.7301373365027,172.54667923583315L520.6696409749995,171.46507590473396L521.3055435309502,170.73287663525025L521.6588709867412,170.11382130038834L522.0576589176858,169.99010317529667L522.4893439515527,170.14544213093865L522.8048416366175,170.41180188046468L523.0134684839767,170.36634227214415L523.119667556373,170.40481271123315L523.2389758440705,170.1598083861329L523.2572349886699,169.5748247797361L522.9710186680971,169.05495914933795L522.9532770809087,168.49965553145933L523.0058041606983,168.43079665143551L523.2852836158849,168.0644080035891L523.7029486763336,167.95831074848758L523.6546743241743,167.66580680962875L523.6303885920117,167.51865077073143L523.3643290830662,167.4378359327443L523.128341232958,167.45373350701317L522.208291054906,167.7717974121711L521.9475877420434,167.67939263139112L521.7929820340929,167.39726985637458L521.7913577224568,166.9881917275078L521.7302488332406,166.46619521206094L520.783215588369,164.83309595495842L519.5734466580906,163.25810754381092L518.042623720088,161.85638693758057L517.5875586131739,157.38530792922944L517.7927611240342,156.97283802260927L517.9399085733455,156.10613792805066L517.9566673517583,156.00742264370956L517.618728296014,154.5394588584836L518.1173934968241,150.5134117499726L517.7624791654048,148.4104902535081L517.392046493409,148.47804840754412L517.0884895743304,148.75159297099611L516.7433058874553,148.80214346306417L515.9362044371915,148.63230753316617L515.8882100602148,148.39885865347338L516.3594227020504,148.01328715209848L516.0078306453736,147.78233122507157L514.9657660782862,145.12986063400393L513.8310209681022,144.28109291365064L513.4726028953625,143.6039900396462L512.2513728131472,141.29642584027653L511.466461063819,141.48103922118304L511.3995626396255,141.08200804826703L511.72576853980115,140.66383691925137L512.0889784273684,140.19819546772908L512.0440876507217,139.8951407364625L512.204110817269,139.5904874353505L512.9261604329148,139.44233486065195L513.5342552889509,138.85333270550802L513.2879941889328,138.52990011803826L512.4921583710184,138.23902602202617L512.6277544189614,137.738123781277L514.2096427182859,135.7534868023776L514.338381605151,135.67350065741016L515.5035267255075,134.94949982114747L516.7773234607579,134.8002292037961L518.157428722563,134.1975844595429L518.3734930253764,134.00895691230448L519.9006851959758,132.6754742423019L520.6064347862903,132.68136779570364L521.6133735529645,133.18824248144875L522.5441559844687,134.22008263782533L524.8598085914585,135.19415333827095L525.0577902136691,135.27741014223454L527.0855695187909,134.5634241742094L527.5171439885457,132.92185371099816L527.9595842353688,132.3434404091147L528.697881744922,131.78933121077534L530.4877261161604,131.29037362430148L530.9179435275836,130.6841365165971L530.7945269226839,130.68577604694826L521.6014773953934,130.80478505155293L521.8608838542789,130.4930869874442L521.8360367697238,130.0728675519539L521.6304059093891,129.83400436572526L521.7779588756332,127.69218408423978L522.6395945618617,127.1007672697238L521.8860369005764,126.12439942026305L523.3947251855027,123.22866175163477L524.1195347814781,120.54813683087963L524.134463778212,119.86396578457146L523.6070465235666,119.10711814273992L522.5810972307644,119.53788818974004L521.9827495671195,119.5063341006018L521.6392869999282,119.34888083541199L520.5295427198723,118.02296962530795L520.5615838457588,117.0586193652814L520.7009906995468,116.72882132792694L521.152806066058,116.63766902459213L521.71949829014,116.88459136941265L522.4330777311347,115.87092335679722L522.029500695912,114.80558672806677L522.6913420434889,113.52519752975797L522.8432948828682,112.14501591849512L522.2565959043891,110.50640834339885L522.3788092836744,110.16008588628966L522.5349274243366,110.17607315048417L523.1559482897903,109.98617713125702L523.6960809792572,109.85948186934604L524.6197213212446,110.06131411379579L524.6104389044682,109.08350910028668L525.11818434847,108.36263623410287L525.3205405394805,107.30194459066547L526.2068459687299,107.06927914490853L526.8782580081976,106.28498919153611L526.9515329472309,105.98814301937466L526.7045289579742,105.66737423722918L526.7367638663164,105.47768242767393L527.6143661069766,105.69595954459811L528.2105118690333,105.42082012916785L529.125772527164,105.24127647619986L529.9106209550849,105.27825174374368L530.1254239327257,104.28315443009001L530.7850035015293,102.05677378331552L531.4905575176522,101.87392698080612L532.014587288046,101.32051192067911L532.4380430135147,99.96814208355124L533.1663641193901,99.01088862351696L533.9292119158812,98.7120898838267L534.7398945347311,97.90273235307882L534.9664222038382,96.69108231735822L534.8832743671576,96.28795303226514L534.4512709328036,95.94405896784019L535.0285874590892,95.16665340094698L535.8830589867273,94.99153570372971L536.658914412856,94.81692739540381L536.9389329860811,94.31377842724282L537.441410123454,93.10544192969337L539.0016195632063,92.14979778724557L539.9177263111605,90.9118262464691L540.3261116440165,89.65545475987153L540.4389310025211,88.82338660651044L540.0205837482755,88.0577010833058L540.2361163485252,87.49781030827978L539.8951309489636,86.65264930931653L538.8220215557151,85.86319937944086L538.1309717227234,85.23085597266504L537.7672413075288,84.26828119682887L538.6244618809266,83.4941636374441L538.7865870640911,81.80346967189087L539.4732609761347,81.45677010444967L540.1787846185072,80.68807055238926L540.4160945438617,80.32493771068641L541.1075359013315,78.14933584483458L541.2042219093579,77.4983968015049L540.9452409393749,75.7785124870071L541.6001232582214,75.19191767380664L542.3520231537492,74.11147347761357L543.1618671064166,71.99769925951227L543.5007502920955,70.96463115197867L543.2497104500322,69.4903361333221L543.4040887628817,68.91390298287558L544.4732458170193,68.45530427818801L544.9431283503421,67.80619759707918L545.8247183239741,65.98517885489605L545.8047051957075,64.89789370169626L545.7286603825713,64.14108124423217L547.1670628760451,63.13117611865266L547.7082059761586,62.18470241917112L547.6565747930824,61.320547929439385L547.3747509901846,60.35814958101412L546.3096060231372,57.94170787342057L545.2582352690807,57.417918163317154L544.8236959204451,57.49347960109071L543.1901070194936,56.996212379645044L543.0586179986933,56.88102154702324L543.0326919292256,56.44502869958171L542.7604004165737,55.812097702312144L541.7077240463562,54.827527588060434L540.4930999717906,54.44863987964982L539.9749690904605,53.72240477036803L539.0703242877402,53.14017247552408L537.34421116913,51.69665810963738L536.8254086356192,50.89978656505093L536.2431950255477,50.96716324699321L535.9885459821652,50.72909971412753L535.9868430014675,50.15340446805237L536.11756613258,49.91437238373828L536.3873188000387,49.617382158119426L537.3380799887636,49.45039403405394L538.7418323848656,49.931970638088046L539.407584859912,50.48135845986326L539.6802607600555,51.163598536754535L541.9614841697049,51.700359385578736L542.4113530196892,51.295770436334465L542.7705204113793,50.669659093707764L543.7292897343318,50.46943497446091L544.0872990745128,49.497314917393965L545.3393373171174,48.52273514463184L546.4369725972052,48.13287585395585L548.5213294419711,48.620184399782374L549.165408896339,50.05807251095166L549.7992172806919,50.84613620721609L550.760693747466,51.493312357090986L550.9410436285887,51.44333590333008L551.3819579250892,50.882587187441914L552.1403541748716,49.456579942167764L552.220399863715,48.82299551605149L552.7740260965201,47.52954518250749L553.0110820112973,47.27376659437448L554.2133353027334,46.751497206656836L555.1150843071981,46.66519374798679L556.4733118591424,46.074440806033635L557.4296519759976,45.09605495140522L557.9255688450144,44.221406323276824L558.0544428081008,43.70249900472777L558.0257888819089,42.839032759224324L557.5606926593629,42.00617656207862L557.3277205625762,40.859573797297344L556.6439776358247,40.12228365610986L556.3950362649497,39.51461476410543L556.4913559059382,39.0866167336784L557.0370611324068,38.28607276056243L558.4738496545002,38.715327325473254L558.8671416084677,38.688848360571114L559.3172724389344,38.50554575763738L560.3371278231668,37.44803979701237L561.2487049579854,37.788900266827795L563.1800476513822,37.09682852473179L563.7910958282125,36.287838326694555L563.8623965750685,35.760958461301584L564.348680295071,34.607029544348165L565.1745598834817,34.183565910253606L567.0823649027232,33.74663398642599L567.717687425396,32.90466559666004L568.7463058660028,32.04384179472959L570.0903737408313,31.96339133295328L570.6282315809278,31.376601769167337L571.121936189444,30.08288534873759L572.0734933521435,28.59755336548608L573.2324066706136,27.646204010206475L574.3804829174317,27.7308128405424L575.2210872179124,27.02713498306855L575.8296935425989,27.10012534924067L576.2919195817641,26.46249395797713L576.4730188484066,26.625946104379068L576.7648604294654,27.595187934221826L576.7190322435765,28.23668560092824L577.231644448114,29.064754982119894L577.6170746940663,29.136745125970947L579.3599498822333,28.510860954316513L580.8230986850322,29.259945145102165L581.2350745766595,29.668868967359003L580.7802387396403,30.46897540672694L581.3894319966926,32.08415160895561L581.5421881249705,33.524974692963156L581.7491688546295,35.440249919969574L581.9813749653346,35.90785386195216L582.6605816438739,37.22043569775258L583.4296638397389,36.89551620605812L585.4825679347559,38.793234272663426L586.2099725358561,38.483879384087004L586.4659287260473,38.7454086270651L587.7853592449771,40.97388993844106L588.5662555645041,41.25655299488267L588.7978377018511,41.53477035370122L589.7745676784383,44.00406826837741L589.4102970973439,44.69795645591262L589.8973457274518,45.35685363431503L590.676459538759,45.359718685844314L591.2386720764185,44.63568914707594L592.2015668912047,43.962636880943705L592.5520058757771,44.83221054002081L594.7924014302755,45.05615797412213L596.4285966574888,44.021144270326545L597.0045627120071,43.65672572969811L598.2101212309296,43.6644573712681L598.6218235970622,43.90021333571758L599.080795028739,45.00536931679892L599.8771669090037,45.295227288575916L600.3325235050457,45.87947278563445L600.9729213237014,46.00623535660759L600.9638172562586,46.98553468485943L601.906829008623,46.9948491657093L602.1669260358364,47.791103293394485L602.220715645873,48.383310857421634L602.650310779701,48.81613999663125L602.9199413317018,48.69893430837158L603.2366144352577,48.26058775480669L603.5013307505179,47.45216235150531L604.5435976959384,46.46546824715904L605.0771744901632,46.53524276905512L606.0411674762936,46.0426170434024L607.1993824231718,45.01094536790379L608.3830472021635,45.572715996353054L609.0124667598487,46.390766822503906L610.4092130014237,47.36184978577535L610.9425173268635,47.83282690840497L611.0171914588788,48.95984661384398L611.7956952993752,47.88394169378341L613.1550710564146,47.61838020444077L614.5293778837308,47.17183053923145L615.0429562455247,46.71539476945122L616.0296590985465,43.73749467999869L616.897788161164,43.154937320229806L617.1017463315053,41.68089570873212L618.0426434753925,40.619281671219255L617.981902982358,39.37757860087709L618.3198832021391,38.51981388777642L618.8497814746756,37.95160491115962L618.919123763909,36.99969411945415L619.0264250828372,36.19252883640797L619.7141232909886,36.07898372502598L620.3269324168215,35.85951745700481L621.1770598305561,34.71619890888701L621.5821141356481,33.314044039089595L620.656729965172,33.42147257932834L620.4491941058014,33.14363588146182L620.2963893268603,32.577405129526255L620.806220464087,30.99341418992242L621.1364886162967,30.485256937865415L621.870490629943,29.971749497824362L621.6804500829977,28.94527631702431L623.5249446262142,26.312442860319265L625.6139909358568,25.329986193453124L626.6028102784652,25.000000000000114L627.0179075966499,25.005189798377614L628.9880980873826,46.056513789161386L630.3047611561356,69.80375312887895L631.2462626634202,83.08851321817326L634.1457463244305,129.6387023482585L634.3693568715015,133.21922575668714L634.6779037140645,134.9729121389857L634.8898039980832,138.36957460430017L635.2740566028958,144.52587592542693L636.2369591556325,159.93557562482948L637.1970823392564,172.50306678406264L638.0934383515428,184.22055180094878L638.6048555000259,190.8993705326983L639.0006957514194,196.8512644578879L640.2199315603226,215.16045728916652L640.7561285175794,223.2013700808128L641.0345733979971,230.1084764991228L641.6092087239765,239.71549949638785L642.7836808916271,259.32145189372505L642.7889477060606,259.40928430507716L643.4794745140011,275.73500068528654L644.2797526039396,294.62397115031325L645.4430238476886,315.65858702418086L646.1157579649372,325.1914180694823L646.7292807554629,337.2625520748262L647.1948882815627,346.4139007530598L647.8792549026905,359.8500004156541L648.0261329502191,362.27375066980824L648.6970492001204,373.3375102333066L648.7000154250295,373.3863973394098L649.2335092515547,387.51448058082474L649.5605152229002,393.70960842884847L649.7809059516901,397.882786234142L650.0580014283848,403.1272654269006L650.0521951561818,403.2660639825082L650.1534990411604,407.9692442289453L652.347683777587,456.9648293891333L652.6319217751497,463.2953484549023L652.6246383459886,463.3950888893703L653.0663453993724,471.99952295724006L653.5926145913743,482.2418980826323L653.8967191835818,489.29199869001957L653.8995250864385,489.35702699939975L654.17577895582,495.75745124456546L654.2337071795525,497.0990902152158L654.8660261802831,511.73306137489726L654.9082624998249,512.7098488869232L655.4119316218519,524.3513084443805L655.5557030665174,527.672058917616L655.6852901968905,534.9681645705431L655.8503784172862,538.6024887464257L655.9943593692335,541.7711465815964L656.6292915538016,555.7332938998228L657.0442407097596,572.793932000387L657.0533536220113,572.8982862365716L657.056362367711,572.9327398853445L658.2080978508992,586.1123402239269L658.3009129694171,587.1736566943981L659.1981537527797,601.0088275030859L659.1702238889015,602.1690831131527L659.2791896387578,605.7815002388894L659.2917328858483,606.1482170859185L659.7262843207657,612.2941413891417L660.0075188954605,616.2696510964993L661.2514976459156,633.8353425506117L661.4493549907005,637.7304637209782L662.2691968925503,653.8550919440692L662.9625919063603,654.4725295272182L663.3791007771134,654.3537431480852L665.1774318443307,656.486522126224L666.4061064764376,657.0592587168769L666.7766740129166,657.6291488776682L667.0236304599533,659.65416320172L667.4791018047014,660.2048040650325L667.8641803340452,660.3757415288644L668.1443428073903,660.8154784613336L667.4864684725136,663.2519228313544L667.4827857866937,664.633447707034L667.1702657053349,664.6714707902247L667.0184162370978,664.5350592204657L666.9954972742103,664.5013287383308L666.8348728782244,664.1577397314942L666.0778546535513,664.6418002284609L665.1843491995298,664.5038199377537L665.1816172705853,664.5033979675192L664.8992929245254,665.2754641461532L664.8422088431653,666.0705347373688L664.8986550707708,666.621558034635L665.1109019003508,666.961669194051L666.2715548483543,667.9441100035275L666.5948064033531,668.9797739981635L666.5662466489828,670.3508182787942L666.6827478327118,670.6339192055032L667.4108942456414,671.2126166689452L667.4327856368982,672.6065516019901L666.7134601844155,674.8374270748818L666.9783273846512,675.1677992263732L667.1090566605101,675.3308530357464L667.2830258502354,675.8974446746621L667.2582386962331,675.916695771125L666.4411656222428,676.5512322471004L666.152689965934,679.7325083819344L665.4265845750177,680.3264353064936L664.3984064564121,682.3039744384156L664.1884645021978,682.707699020236L663.4524995143588,684.5730311711175L663.6202719975649,685.3904185312812L664.0426991840706,685.870589595293L663.9007926081408,686.5496262392259L663.5944165722518,686.7813069142188L662.2489813640977,687.7985690215216L662.6010498140156,688.6724716248708L663.1392000134556,689.0760406237815L664.4515871119631,689.4202383036645L664.8416436329353,689.2899154341061L664.8705159869404,689.2844616533428L665.6832754258184,690.5846665965231L665.9560484638973,691.7170080571221L665.0577780102544,695.3272654112619L664.4665438232712,696.4773891428687L664.3114815352279,697.6386208086232L664.6131650967067,698.6965832999946L665.7398517341202,700.3367055080414L665.908504530295,701.2729410488383L665.8900054653548,702.0613387057513L664.4402220749271,702.9819426257918L664.4082776431607,703.0022243802546L663.8768116902812,703.3396384867718L663.7317456758433,704.1317160590545L664.0126897254383,705.3902774894744L663.3158786918317,706.743858499224L662.374935180923,707.7002103923592L661.4672159003796,708.1013262745856L660.1899815963849,709.0752559015388L659.400239995928,710.5205997552699L659.1702502802799,710.9414605812372L659.0638321145738,711.8214171331401L659.2497258213951,714.8653888941124L659.4995201713623,715.565773971255L660.2934202967496,716.4017559673557L660.3667070646559,716.9617302034018L660.2961594046648,718.0504524216664L659.1010841581902,718.5583202782793L659.0177454175275,719.2708918511304L659.0190989883833,719.303315951326L659.048174669839,719.9997864381428L659.7095954117456,721.0086975705066L659.5194815188196,721.9278876945746L659.5347887082601,723.471598728093L659.6431799726741,723.7504314958813L659.9895599032379,724.6414175542062L659.9843782288777,724.8926393184684L660.6525126866333,725.71482999801L660.7540168665564,725.8794455475615L662.1303308123133,728.1111222288503L662.7477608070201,729.6958604499556L662.5801325075839,731.5125653844699L663.010947798226,732.5782750103855L663.0906796237526,732.7754924974765L663.6807053571838,734.2347770552592L664.6720566964289,736.6860471661923L664.9592577795306,736.9136758226741L665.5325032880355,737.3679812468947L666.4919141608759,737.6645299485505L667.192742948836,738.8547697654366L667.3717936998007,739.4025075873523L667.5607177640618,739.9804102295672L668.4975959198872,740.4946771801499L668.8934693769152,739.9717443018792L672.7213602807467,738.9390775212557L673.8893553695484,739.147289122457L674.0421649699524,739.9512302636741L674.2062827546426,741.2462355706459L674.4413092589482,741.7744979444304L676.2835433287024,743.5105818487576L676.3767285426244,743.5850691170749L678.3097371585802,745.1299313389202L678.5821239577076,745.2807656127503L679.4888343153145,745.2830033755668L679.6350854401526,748.8966044555424L679.4201413397725,749.5085537428185L680.1352275379579,750.0883464919714L680.7837479573702,750.7762998341053L681.0025790067803,750.7210591323843L681.5597943264961,750.5803815003226L682.1415325020967,750.7261533067729L682.6708110972531,752.0068943851298L682.4152264936074,752.9605706969234L681.7534177762959,753.6585353640135L680.8354463659495,754.879284126109L681.2175495603002,755.5706593431958L682.7398744489395,755.6297699055782L683.5253902370598,755.1543910284531L683.7949478833809,755.3773884132744L683.2861861497032,755.8873609731902L683.046219898714,757.0644681612754L683.1611537441663,757.1837536244655L683.8345043583162,757.8825472946847L685.4666355860631,758.2646383189418L686.460144041438,758.7644287162175L687.1725503285131,760.5471093138767L687.2323085287416,760.6966266624502L687.4929759309003,762.2690834401621L687.7898018474892,762.5217441664861L687.8063776292797,762.5216349837893L689.0870721208914,762.5131408454235L689.7686482300173,762.7196410540286L690.2340292382066,763.3438503002378L690.197891114233,763.8992102589525L690.6020875192692,764.2728136407467L690.8653294031876,764.74211121674L691.3676039127866,764.9421355271697L692.0419094441465,764.8931787623236L692.393020814877,765.023851763931L692.4110738093166,765.0305702533069L692.7548606102798,765.1585064310043L692.7546479045118,765.1625409562225L693.2571570306152,765.872327208825L693.6824314256045,767.105458947415L693.760061140192,767.9917994832476L694.1389523832871,768.3737500599348L694.9784811745922,768.7637399648644L695.7890162979899,768.1599994440926L698.1271023820743,769.0395199206854L698.1456544332697,769.0582870930573L699.2342823155401,770.1594255403235L699.1039705898928,770.465850150105L698.7492540614467,770.7251650768615L698.6974341940279,771.109316120693L699.2419671806178,772.684064816391L699.4193201021844,773.1968922044749L699.7972930668186,773.4152583245423L700.7620928634549,773.2012691772366L702.2713045163692,773.6460229705347L702.6228773238929,773.7495771891453L703.0626895759693,773.8793699613409L703.078953095523,773.8865310571416L703.5362079196542,774.087857871405L703.630473166287,774.1437108303226L705.0025493836397,774.958576742943L705.0144122578356,775.0388327321343L705.0297496991358,775.1425942137776L705.4533576379362,776.0193320909902L705.4538946635826,776.0204435058208L705.5801196883685,777.173482128089L705.647387437567,777.7879027583026L705.6933032150615,778.2072731218495L706.0761502111156,778.1907826685933L706.6588724592218,778.4562875970794L706.7363013551626,778.5909546561484L706.8426046074838,778.7758369962085L706.8464217819441,778.7824757296726L707.2650263300939,779.5104658495337L707.2614906710575,779.8207081278242L706.5322853370501,782.0450445536858L706.378712194046,782.5134176100678L705.6084333515167,783.1008978014976L705.3816289126081,783.4987016087655L704.4276353318861,788.9485180654831L704.544980731421,789.7357167947414L704.630415404084,789.9629659911359L704.8840210064366,790.6374991651112L704.8421816407065,791.4159964614427L704.4863054866153,791.9246379691169L703.6734225473612,792.1518465743633L702.7600946139553,792.7479359460832L702.5770779590322,793.0439398318443L702.4804666766424,793.7788667338502L703.4485320942808,796.3219214335107L703.4526437297369,796.3327207993485L703.8268288366514,798.1981949860251L703.6998550139517,798.6768742587017L703.4327060662924,798.8826454916642L703.1176354327197,799.1253156645321L702.571949549723,800.2702252996914L702.7191499419159,801.2219627358793L702.4152646376266,804.3442735103581L701.2143705906433,808.3970652072858L701.4737621019642,809.714374807986L702.2753154588679,811.5011434391533L702.493188169557,813.6631507812042L702.8320828180815,814.9060996628737L703.1905583234128,815.6350142926944L705.0350664399461,817.2603344786834L705.0352947215688,817.260482727462L708.0886000937124,819.2427837664641L710.7286811242117,821.6996187434653L712.1094384164188,822.9840710316519L714.8277103830112,825.0892788213728L715.1514852672735,825.5366946145829L716.1365861115977,826.8977949522648L719.1242437971696,827.6965749345301L719.1666897515099,827.728252561285L719.55811031148,828.0203603341599L719.5740744530858,828.0402938899715L720.487652384285,829.1809244763313L721.0897998817076,830.442571449605L721.9837862756672,832.3153185006997L722.3106132557609,832.6407130162191L723.320420103005,832.8720974490215L723.3324382768717,832.8748507939172L726.2131800682815,833.5345072180146L726.5143467218948,833.9073704065886L727.2578298854062,834.827754772173L727.2857744181607,834.8254839635765L732.0195791787608,834.440012236198L735.7155149564271,834.1379525393729L735.8319569717416,834.9514103954612L736.528753349436,839.8177472341322L736.5356331352784,839.9098093667725L734.4700623265095,840.5308259756839L734.436632392943,843.3389257379282L734.4077277998906,845.7653220138232L734.0244279599906,846.3768516049435L732.6367253338148,849.9721530145152L731.5160535231423,851.1113080798359L730.1126227241159,851.7586463698755L729.5931640122413,852.5769319531847L729.151718880694,853.6772056156756L729.0364322806803,855.6995608157526L728.606589598224,857.0322751491516L728.313846086643,857.4432527539536L727.0083626562117,857.8423011314189L726.1044473413746,859.011626413378L725.6794539466318,860.4894136352484L726.3501256607307,861.3449130158699L725.7588523728384,862.2073075427181L724.7713423973487,863.6473815611589L724.7416481512952,864.6730425723866L724.5390531994351,865.039251805277L723.7797177608879,865.2105408700883L723.1494887609493,865.0240871318673L722.7320514957133,865.196637113364L722.0777788302513,865.8909550614089L721.4757335852238,866.9269408696789L720.6809244560508,869.320464930263L720.5321286781111,871.1058974431123L720.7830664865724,871.6893551792175L719.724285715898,872.4589574715449L719.1781480179701,873.2608882688066L718.8043719543521,873.8096739182922L718.7829463177025,874.4006441333956L719.3966573806979,875.1403913711572L718.8610603008351,876.2872311133851L717.8436445207664,877.8126211741219L716.9123669358701,877.9777300962376L716.56422374809,878.3520134658825L715.6887776129169,879.6546343980744L715.3148920835024,880.2108815668269L714.9478344279444,881.471364474126L715.0753493786291,882.6969429249316L713.8650744521167,883.1807126909437L713.7372908148831,883.3371635004446L712.9890494533149,884.2531869465063L712.0170526614089,887.8900019187801L711.9033911776389,889.1405788829516L711.8246674350189,890.0066289794916L711.9728290107134,891.2406538572404L712.9046690621483,892.256894741115L711.7953224527498,892.3677933803529L710.8129438520236,892.4659265520079L709.8915374437734,892.88052712034L709.2401922360439,894.1450211420965L709.1735819961646,894.2743232924481L708.8253998253901,895.470092237593L708.6747348751359,896.4512110234136L708.6731550701287,897.4363214339443L708.67282583805,897.6414978636253L708.6711720025777,898.6715329868982L708.6686922563463,900.2139945865831L708.6661570885115,901.7885039655298L708.3038088422936,902.882292113173L708.022617808924,903.7309948198205L707.4292318572724,904.692188457026L707.3669917358925,907.135537575343L707.1202114579986,908.882880214049L707.0755073152834,909.199369797468L705.8719714336215,909.3673880135277L705.3316130463667,909.6186305506881L705.3151650040569,909.6262777250986L703.4543405443528,910.4912647812224L701.700412649404,911.9586947541538L698.6881897787214,913.4929691621576L698.6036073134376,913.4281681203971L692.1544320288166,908.4844005052123L689.2179598085211,906.2314996304495L689.2136545489421,906.2281957138464L688.470240283757,905.6576512488875L683.969879701925,904.2737296121625L680.8076342135383,904.3014899179504L680.8028281473714,904.3015315781973L680.7044547847734,904.3023839508096L680.700837014,904.2932337868403L677.2763446130704,904.8001501909891L676.4874723152736,905.061114410553L676.4254420353604,905.0816322753395L676.1847089880766,905.2316935474498L671.5041939316811,908.2673736596626L669.854591974381,909.2168427090255L666.8711116207754,910.9333165107292L664.6336362300467,911.4272209868232L658.6034747744017,912.7564568712264L658.5526808850786,912.7676418272267L656.6123656742097,913.1947595336894L649.4663000006872,914.7653702001087L648.4953340885093,915.8204442963154L645.9449732485436,918.5908063427482L645.126115639101,920.3283647581711L643.5206017495691,924.3920309117414L640.7559038228032,934.2825117446775L640.4178193822095,934.1841933306039L633.4433780003868,932.1539324285656L631.131800497364,931.4801806487642L630.4857622355037,931.2918051234617L626.7193192093516,930.1929048207942L622.2660368986324,928.8921592160323L618.1242678208176,930.8709090365447L617.640936700841,931.1017160524697L613.3680034897222,933.6384216385895L613.1199179501053,933.8510840589157L612.8046868001188,934.1212910350141L611.0200754984688,936.2600669974377L611.0118188073944,936.2699605396704L608.8859877804856,939.0111204527809L608.2807721507023,939.7913033469425L607.8815304545562,940.3059134394175L608.496561635505,949.4989849596545L608.8595944375821,954.9212736903252L609.1896637892553,959.8485938758936L605.9368494720434,958.918806554602L604.8665306321311,958.6126832931252L604.1473315202659,958.4069335004004L602.0515851333643,957.8071459783207L602.0271892298125,957.7995821786915L602.0068528993515,957.7923582834212L601.5106719183159,957.6499566838584L599.6991336543404,957.1298888143949L597.7787361311331,956.5782861512241L595.2124102688688,957.0371724641552L591.9466623717199,958.1261206495733L589.3429702844805,960.3296474272092L589.2285447715687,960.426463258309L585.9238854914624,964.3134051144278L583.9193974064028,967.9848603976543L583.9149562464073,967.9929928857216L582.9714129165184,969.7205723874112L580.309276164849,973.1433061267387L578.8645813992541,975L573.6602480456442,974.9876719359133L573.6539330441564,974.9876558341509L569.1155312329993,974.9753676954476L569.0819621035273,974.973493664229L563.2673217591309,974.6476982808977L563.264230940218,974.6475244740107L563.2465462844525,974.6465299949152L559.6294012392267,974.5449578333919L559.0220915578557,974.5278149024072L558.388148124946,974.5098927987722L553.8565129436267,974.3809656840112L553.4103300720135,974.3681943363368L541.4648238950048,974.0211233038833L541.4536276437155,974.0207933462368L536.897114525001,973.8857873604254L536.2093334558441,973.8652834841505L534.5887662876105,973.8168416210016L531.9202285795387,973.7366758087351L526.3730854190192,973.5684483550322L526.3528289280645,973.5678301164751L524.3053499285998,973.5051927389454L511.6179038670393,973.1105497692673L511.4883664303759,973.106462752354L504.9094991265272,972.8973585283751L490.6624261995541,972.4342037553781L487.8058359643195,972.3396396389594L487.4453419873458,972.3276655507772L486.25412572020934,972.2896076250287L482.00472846849266,972.1578932589254L476.4654309717808,971.9843108934735L468.6562988066462,971.7359734403656L461.720403886462,971.51184771351L456.5831287738706,971.3436844651828L449.35573607829383,971.0533722567757L440.44952009948634,970.6906205824573L435.47445033629157,970.4855799739947L435.463659450802,970.4851333687112L415.19959798205133,969.6321486146229L407.0552083453049,969.2812631886254L399.7408132206156,969.0307007149643L392.8228214485372,968.7902909321974L392.77599984667154,968.7880032699047L383.53071629192976,968.3332913419581L366.7010796810316,967.490254189289L366.5661689309474,967.4834163635489L365.77128950803836,967.4431028625011L363.62246950817575,967.3339016114676L357.74049250265244,967.0333367917681L354.100158429345,966.8461091732688L348.4529607908855,966.5968373202937L332.6945074615114,965.8894919530733L311.2369823108106,964.8985023353798L310.4328085455547,964.86073853558L299.56156435614673,964.264119945274L276.34426265224215,962.9623167606114L271.71455302828633,962.6982259333026L269.3780456662287,962.5643770493655L265.73415213898886,962.3548724231105L263.7709157631206,962.2416122873394L263.79294091490397,961.4164313376016L263.1382231203072,959.8897485952091L261.3410086690643,956.9130457744886L259.951931299553,955.1560563271175L259.53504026754024,953.3763581237818L259.2497968216296,950.8034527025785L258.81848072818707,949.4913831488618L258.36009621222456,948.793509341554L256.88219333238555,947.8768840772325L256.47987771809176,947.3397502109767L256.1255145260004,946.4499180718703L255.23830545121734,945.2987384172977L254.10290048214407,944.9769233591794L253.39637905164096,945.1002524426813L253.16424650672784,945.44127569648L253.0205053788387,946.5166229017209L252.62217786883826,947.0241700468877L250.62983849083426,948.1837834029171L249.8455553760511,948.4138635152376L249.24220139187202,948.3775099356485L248.45136411257,947.5803237890966L248.29360850222926,946.5755364061409L248.8236253312808,945.566309745185L250.10032241142818,944.9314028674436L250.59077232693963,944.4285066337001L250.69293407398814,943.5925888816378L250.4935876459188,942.4719562728812L249.74039501168406,940.9141871086988L248.66378235990592,939.2583375927245L247.9977696332973,938.4767527344836L245.98469183590356,936.5794431686952L242.35355409212548,933.1553699534409L241.8787476755178,931.631634691355L241.6183073013085,928.7727208720037L241.31001279071364,927.9209292084513L241.0612442655654,927.3764599501121L240.92512963354386,926.0845709483917L240.85490341569613,925.4179555241346L240.76960838497854,924.7002788169971L240.4861749998089,922.314977537365L240.46626180415302,921.0652058542959L240.1862689494357,919.4283944593855L238.9025980006199,917.6798490317194L238.1613919622003,915.9242539282468L238.09253653134675,915.7611449876158Z"></path></svg>