<svg id="NM" width="1000" height="1000"><path class="state" d="M66.72472567252106,944.4562482134554L66.94626047669698,941.1275495991023L66.9507428938947,941.1255576680641L67.46103039568027,932.0836643166219L68.26972982435905,917.7466600131652L69.67454450117373,890.4985031324877L69.8628562482375,888.0806670652737L69.86974486823317,887.9208225290095L70.08958036175,882.8197112009711L70.10451279399916,882.47321458953L70.30936747430985,879.470127579598L70.41717378560531,877.8885360624474L70.4183533301038,877.8712303868084L70.86029229845752,869.3532955318271L71.6776926957238,853.5924893697941L71.67782479184723,853.5899416892423L71.78683339852824,851.1224752486642L72.31954381181225,842.016778953634L72.34204018630521,841.6321536671392L72.38768627541867,840.7800513527525L75.4456076569665,783.6401428154707L77.36971097291956,746.3519002718735L77.66848191190286,740.5578720353351L77.71164241386475,739.7229742756701L77.74471056370538,739.1053221516958L77.7758032687911,738.5231154724779L78.58292291213132,724.3383986256492L78.58293249833645,724.3382300958167L79.02223197891954,715.6566461883907L80.27727351109064,690.842093723163L81.05923743707467,675.3722057498758L81.07177374177695,675.2031150745458L81.34405483090285,671.4243698637931L81.33739338767845,671.2578662081353L81.45797205981057,668.8274106272085L81.70956530727813,663.7556579798027L81.7134825829657,663.682417404797L82.3108956798427,651.7626688562218L82.55762839789219,646.4888876115637L82.63371115760071,644.8625713756259L83.7192664007705,625.5434221502918L83.7103581792939,625.492875374891L83.7233427348956,624.8699761084708L83.77696358642476,624.3056624350968L83.84056272051265,623.904567048765L84.03746860244371,618.0799322325561L85.98033909123785,582.0488846051853L86.90082722559919,562.8323197694841L87.25713395242417,556.4499200496685L88.15863717692014,540.2934577733197L88.4198444847799,534.7921290071646L88.80561591373589,526.6663301439929L89.1482872840046,519.4473773289802L89.91297994055424,504.91476260948116L90.57157898776086,492.3923713192249L90.61009985682858,491.65977499490884L91.41892534097445,476.2729853745413L92.53475818037919,455.0319819607763L93.32736114060214,439.9342511309777L93.71126665350266,432.6186014520975L93.71262436599085,432.59206666644405L94.19743878267155,423.18512169042015L95.20969738526367,403.5054972402752L95.83032162764664,391.4335979245159L96.05022457969375,389.0576823050744L96.07273782658297,386.6413096032804L96.25830748321675,384.2883116775555L96.318633836603,381.91346787437413L96.57323282001522,377.0609163676826L96.6830676573976,374.96725121024554L96.97422080246156,369.4165532707653L97.45556272844192,360.23759440280236L99.17753447338652,326.04591046766376L99.24897509965388,324.62665311623687L99.37015816057374,322.2190684491405L99.5053583584126,319.5328051239488L99.57197074262638,318.2092223498403L99.61495221811253,317.3551572947273L99.73943747809176,314.8814506600557L99.8573433503617,312.5383251347813L99.86715315525134,312.3433693093707L99.96934399902375,310.1142346191201L100.0740350493524,307.8305030704844L100.18676817224423,305.37127529469944L100.297270866362,302.9606367074831L100.3736778420265,301.29376452709903L100.44844586433112,299.66261676890986L100.47472300955747,299.08934439215716L100.51902425404177,298.1228428592132L100.66158504098894,295.0125826776365L100.70980719579461,293.9604912919482L100.71699855972224,293.80359196478184L100.72005938680098,293.7368115418732L100.72260683853449,293.68123178555265L100.72474827246162,293.6345104141641L100.86205367625217,291.01244295458054L100.86205898084717,291.0123416493455L101.0966827565615,286.53125999770447L101.2420561101186,283.754416344182L101.28530819964385,282.9281855116144L101.36098085050463,281.48257696747413L101.47548291395958,279.2950521935118L101.60434314233544,276.8330168964633L101.72284170641365,274.5687648982991L101.84797453706227,272.1775495838501L101.9714207064194,269.81836730575793L102.2118566651701,265.2228260393081L102.29744962732337,263.58667603003926L102.29465956312771,263.5677522361113L102.34994150659395,262.5338219990823L102.35222666737917,262.49108206736975L102.4129906336558,261.35457234135515L102.4809994904387,260.0824967503591L102.60419380752467,257.7780408055153L102.73175110176578,255.39175335345297L102.85277631703173,253.12745994885557L102.89008563369981,252.42938956427184L102.9091553033831,252.0572586156119L103.10406276510673,248.28876290949154L103.27322892536256,245.01758532599007L103.28344353563546,244.8200532649092L103.2975402326797,244.5474465420583L103.32419321385379,244.03201533837338L103.5769804020328,239.14302524749078L103.69629347859961,236.83519260963618L103.69640198716138,236.83309368240953L103.83107731360445,234.22790048393375L104.09702511513103,229.08267457177945L104.27522713176512,225.63455048033137L104.51814140600061,220.93363661832402L104.64785148796506,218.42316583307414L104.7089799849013,217.23998295924633L104.72317322891587,216.96525657298017L105.14127607115489,208.8712727504182L105.19423155465074,207.76780113458136L105.21142899225032,207.409440485297L105.2467860957928,206.71387906293137L105.38408623171375,204.01270698229877L105.49690205889618,201.7930601664262L105.52065074859672,201.32578653974218L105.52665321293455,201.3201801267179L105.92288599497283,193.58099691650511L105.92327252354653,193.57344634513584L106.1673694213411,188.8048194386177L107.15209550665514,170.04416648516622L107.32788164455792,166.14368974363123L107.32796638100604,166.14180951888056L107.3314598018174,166.06429364317694L107.6290341538944,159.46121511829875L108.277229728301,147.14746315337266L108.29228533931496,146.86138600930644L108.47456481954646,143.39758897066054L108.47496704312414,143.38994516022888L108.74043205048281,138.34461206625315L108.74045694776692,138.34413883390198L108.77362129431447,137.7137634911482L108.89393101290517,135.42683958458724L109.1897983924112,129.80198791429655L109.70280646052345,120.04623983063334L110.06631094057957,113.13145394377693L110.13059926657849,111.90834319434879L110.13210078175086,111.87977562414352L110.3607484430297,107.5292154673017L110.58655192457763,103.0701797831498L112.57789178174954,63.720557946262204L112.6164850434904,62.957483277560584L112.6171972871121,62.94340047401022L113.00363307067738,55.30174408519986L113.29919073478055,49.45600133291259L113.29993435997801,49.44129211662215L113.38057659746983,47.84611699737934L113.41484431061366,47.16824823862311L113.44466893009877,46.578259658197794L113.45140691827385,46.511985627646936L113.45347446874268,46.47200039885939L113.64616415832069,42.74525559513387L114.15440706974363,32.913247962879495L114.23940677077616,31.268601227161298L114.24810718477124,31.168465963582094L114.4935252547229,26.365112299310795L119.65187976305884,26.63677046191873L119.71862387514648,26.640262242051108L125.68514815680282,26.9500105622447L126.26372755920482,26.979495783830316L166.24787808052025,28.7733574437234L169.5799109701996,28.913250787055972L169.66003613373886,28.922892242092416L180.4601216717337,29.36968896396138L200.847044831243,30.1708354623878L208.4320877655797,30.45480751924464L208.4653518165989,30.457861392803352L212.624119771915,30.61143296821757L212.6650584437014,30.607274914003938L217.52254662118855,30.78672542292759L217.68491484046575,30.881495952853015L225.7955851628485,31.135290714482835L243.8903130980724,31.67001773370731L245.88732225482087,31.72636865465296L249.95530100584057,31.839519640449623L267.01591409410025,32.374735362364504L267.3318243296861,32.38428141656408L267.3864437699568,32.385930542110316L278.5030311132947,32.7133287207422L280.28403822458233,32.76425670048383L287.3501581362066,32.962162630079945L301.864191428749,33.347876272507335L313.91643458724593,33.646915642004274L317.27910888437214,33.726909892357014L317.6859264235325,33.73648585598829L322.37985593373435,33.845386049540366L325.1718316186565,33.908773515913595L325.17209116212825,33.9087793603548L326.44955206425493,33.9370536704385L336.48113457723935,34.15155686398907L346.7093784596906,34.35651552807201L354.1989798685617,34.49779156427883L381.6791180850003,34.95239601133733L385.50734311251125,35.00777565659433L393.3276306812897,35.11486259617743L395.7256079479511,35.14607395251386L396.6822143934222,36.412395584827095L408.0956866225453,36.54835479555567L412.15740392046064,36.59257024302627L421.89057804568927,36.58558742126826L423.74487590460825,36.583827319739214L427.97838166950623,36.63596416172828L427.9889175178918,36.63378202379431L429.48514239892825,36.67472358416302L429.48067616383764,36.680699277061706L444.6152112602048,36.666776186193374L444.7222957488573,36.667097296189525L447.77116468350283,36.675601801402706L447.77776191656915,36.67561886710388L456.10536310670653,36.692558688289864L465.05643583405936,36.70051150077313L471.5293325576878,36.77868913877535L477.3202536716519,36.72978327419804L477.446175883301,36.733653229341144L483.4487510626085,36.768631136315264L496.64518684097493,36.673726631417594L508.74305867348664,36.56642990437473L509.93246838281493,36.55213731399925L510.1029246638893,36.55163491270753L546.152322970012,36.32362115902259L546.1531883935862,36.32361361628074L546.4117828029571,36.32135534650547L553.129918951501,36.26847790710434L557.965835456071,36.26133220538503L568.2769245422587,36.141102729369265L570.1094655790608,36.11825900335219L571.6152509218615,36.11172503869375L572.8924335603565,36.10594734299502L573.3659219035369,36.08185897960254L579.0325612302246,36.00521718066983L581.3596312112986,35.97469164971426L581.9822449443311,35.971272165421L584.9775794829678,35.958474514120496L584.9874844435574,35.9584302210323L606.7974914612786,35.707339574973844L610.7813540345555,35.71808275255421L619.2921827402307,35.554906439754006L621.705657963898,35.506884224142254L623.7365970763217,35.465874682511355L635.6305655389305,35.69215064056448L639.3508350148838,35.53485742974135L671.1023562474837,34.8273943752464L674.1905385981598,34.75144666654546L674.2022322212543,34.757184293098305L677.6081849902674,34.6788294848252L685.4936628497891,34.49151385341543L687.2596364964793,34.421573959918476L688.02131626652,34.391280336612226L688.146425141892,34.26158137385232L701.8137552939075,33.998319447026006L701.821802480082,33.998111554266586L706.8504343883146,33.866519846417816L706.8979350668042,33.86526082246445L708.4023546171544,33.825230640636846L712.8792450618641,33.704330518284394L721.6535765719657,33.45965894013534L725.2267922684281,33.357091441530656L736.6775533219004,32.818272254171575L739.0477047269255,32.722365477081496L741.2836271475151,32.63120574785472L768.1516607945701,31.48380460911403L803.6119749923099,29.821772800438623L803.7569962424409,29.819897190494032L837.5829797486703,28.194672083879027L843.6294080683715,27.8881217662439L845.9015023167724,27.771670143219296L878.587242702813,26.020368287309452L887.6357815758095,25.56347807054999L898.5097246843259,25L899.2735945047008,39.36793781792801L899.3278698107515,39.692993782656345L900.577164377291,63.42327147766116L900.9548690583754,70.59482316576242L901.2993339553991,77.79368828530238L901.8407707384392,87.23167272615666L901.9755502964758,89.58580658765328L902.5919732268547,101.98604511321844L902.6309820624136,102.66166297237322L902.8383135417894,106.25223659583287L897.6737111868853,106.52103802381367L897.6654110930239,106.52146718377992L897.6657751938948,106.52823187695725L899.2651010511886,136.2279387837882L899.2807876941957,136.34707083181536L900.0851983176899,150.78429042392912L901.6696698334121,179.19816815097022L903.5004260048534,214.8182666520864L903.4921725628076,216.86936586276116L903.6518403322683,218.6927980197784L903.778924199893,221.58444675340135L903.9238414009437,222.37543336354796L904.36371462575,230.95430682948128L905.1059522071295,245.42624633691466L905.3468349592192,250.12183905142433L907.2735790220879,287.5228440633747L907.2740720890826,287.53241082888184L908.5034374265231,311.37821724664207L908.5259237547918,312.8339925679935L908.8215921977862,317.6720483272496L909.0902381358518,322.4022342876482L909.0903035205911,322.4033854367889L909.0949789810741,322.463140251269L909.1062177345127,322.60536147542734L909.128137473358,323.15779894807275L909.2742498823268,326.3332753566889L909.3833128022175,328.7387097622592L909.4156096187755,329.06257824374677L909.489511166643,330.2443080324427L909.4823346317914,331.9874567885779L909.6991796320045,334.4808371952946L910.0754844296641,341.4667013280658L911.0848779502294,360.1976493822141L911.5707904995753,369.2104907786737L911.9711291657859,377.36155699042786L912.2291988154598,382.1747409099115L912.4855929809071,386.95595199143463L912.8826717717968,394.37829034428586L913.5493228878199,406.9880405051858L913.6470800561871,409.98703659626113L913.6600093187792,410.2069098482436L913.6600336915865,410.2073243263256L913.6728521352644,410.42531078701563L913.9715511076208,415.5042673071596L914.7688420062103,431.204264290031L915.2947410664505,441.55711910276193L915.3210657888037,442.0358978086411L915.3221976768584,442.0544726214836L915.3586029323844,442.7189185279686L915.4248646812081,443.93970016986157L915.6882903543108,448.79246186127835L915.8107764558096,451.04860108982683L915.8471615266533,451.84323140768373L915.8743184792943,452.41999343867195L915.8750990029073,452.43657023542437L915.9087986319718,452.9989859713335L915.9278152288423,453.4079918704176L915.9335585167075,453.5315173910856L915.934079540374,453.54272346244534L915.9497589635172,453.8354140709363L915.9826185150514,454.45136547244624L915.982907753837,454.4978040815884L915.9841659917788,454.68288826282384L915.981483890874,454.8460946729425L915.9768747100646,455.1265180740602L915.9846197055681,455.3352386023611L915.9852795065742,455.3526868214435L916.0114132970879,455.84430806638983L916.013761189912,455.88847558640583L916.1483211330924,458.4196597259606L916.5750701014351,466.4458886049037L916.5752115398311,466.4483662902349L916.6712917570094,468.1314188752449L916.6715958295342,468.1367451759301L916.8184305627631,470.3191701469146L917.1185894718815,475.7263020886949L917.5000140071949,482.7922572342106L917.8840918194593,489.9057225916521L918.412465967853,499.6889918007992L918.6362522806378,503.8316333693004L918.7200727399777,505.25720002139366L918.7300104256868,505.47803043284205L918.8422952358342,507.9731703069648L918.9512854238044,510.15379189420605L919.0056767668045,511.2266699012669L919.0229739009739,511.43035244341195L919.0230629439855,511.56096572958796L919.0644473111586,512.2676399744898L919.1317521352216,513.0290780669518L919.2664938977407,515.4775770189307L919.32192006643,516.6155447899536L919.3832195284647,517.8740764853634L919.5966439906974,522.709561067874L919.725836916774,527.5522127788629L919.9663067927363,534.1137133470763L920.0164024147873,534.9074476651891L920.3001713858762,543.4636137125436L920.4687898021616,547.7428885332389L920.6358776189786,552.5057286600875L920.9283482154981,560.8456293940458L920.9334424461268,562.2697656651452L921.0920818791242,566.1320550901651L921.1792108757286,568.2534444462536L921.3908535064816,573.1964046531947L921.4411719542675,575.577588946195L921.4478711406161,576.8678644076305L921.5483607433449,578.2936975659154L921.618219188393,580.3792367965443L922.0147647453754,590.2351361434697L923.0856758579152,620.7649581702092L923.08582728946,620.7685795713917L923.4991830156999,630.6544301760148L923.5755538641315,633.0454887016069L923.874654241281,642.2584406985818L923.844551279737,642.9514595791572L924.1240033001948,649.1697675564793L924.4192741136915,657.4596984442485L924.5929233907357,662.3365996328363L924.9018637314632,671.0160075685561L925.0398903130966,674.8949372365431L925.184546436511,678.9609661905063L925.2042717794515,679.5267987455377L925.2116308087338,679.712466058342L925.3937113372681,684.3065991098506L925.4629781287138,686.0555774849463L925.7757002481784,692.0324484725946L925.8263947964601,692.9200258517867L926.3720129428295,702.8637833058816L926.3728709535733,702.8815668864303L926.5398941799147,706.3432909157476L926.6165498585478,708.1984606355468L926.7205292502911,709.9917222604012L926.7090459896044,710.0659846658357L926.7842428991149,711.3965951317975L927.0037136344056,714.9139013865727L927.0083778222,715.0723066775874L927.2709455950799,719.9880759021833L927.3948751818523,722.3080093842229L927.4056797791166,722.474942322475L927.4472026796468,723.5374969576272L927.7710846275821,729.6106911179602L927.8998832724064,732.0255073424527L927.899968852709,732.0271118049804L927.9028702794225,732.0815078863019L928.0216475332056,734.2414331774523L928.0691932299599,735.1059888706237L928.2317207171534,738.1310316422305L928.2958363235464,739.5004275210126L928.6568713832942,745.611744965419L928.8293524370258,749.30679339164L929.0426174974516,753.1343816517157L929.0520716595739,753.3821184216076L929.1685038605207,755.4781267241926L929.4059835173332,759.8313438768619L929.7748164834247,766.5910797929994L929.7772959894628,766.636702154924L931.4995702187877,798.308984937182L932.0873320116875,809.1099528816565L933.2488387558783,830.4425498609452L933.4601144724561,834.1676953719968L933.7896029490121,840.2740560958978L934.5697991874633,854.965530992268L931.4802490430377,855.1404792823259L931.0738784343785,855.1642596107952L920.0639639634513,855.7392901408446L912.7871425788902,856.1111709981376L905.2972248154106,856.4978044673885L905.287709789355,856.524000531529L904.9023046138063,856.5430347282999L903.7290616830808,856.5860637149779L896.8167333600966,856.9378061782043L839.6998700761765,859.5782607511804L836.0295630322121,859.7342392418087L817.6971787549523,860.419126223317L802.6055320133576,861.0749289622131L796.2132744275416,861.3329198433224L752.2166956259507,862.8269574577188L723.0668978091938,863.6861143305231L723.0398705397098,863.6538494107253L707.320697030401,864.0633238989342L706.9443146310799,864.0651042581999L677.4844637299364,864.7700120529457L667.31212701325,864.9887145561095L644.4063903587614,865.4258581435436L644.1816173551772,865.4377961316839L638.4924448907295,865.5479267279554L636.5681691637078,865.5748797296667L636.3461511827129,865.5797471082728L634.1354048744525,865.6233333241032L633.8367235114852,865.6263752939449L633.3052185895767,865.6353953905646L606.496302800298,866.0307654560288L599.1969235017532,866.1231686395952L593.9083555496139,866.1836675286955L593.6872426786704,866.192809205774L593.5864336402263,866.1979407790245L587.2398180710411,866.2476474931432L549.9975413375786,866.4399414831275L547.2314667022608,866.3488651422556L532.2921997250182,866.4062730902995L527.6609442463888,866.4907754985647L525.577106361091,866.4767272635244L511.522303884199,866.4784877682001L503.953484706885,866.4759611319823L496.8399162283496,866.4671922013156L493.12028301657597,866.4601400150455L484.99556483011895,866.536429372389L482.2742291211197,866.5777388316521L481.52157439703427,866.5804464624948L472.26487380954563,866.5853531453611L466.0252170834948,866.5827409995841L464.56059405433444,866.5866559385022L464.5587990021842,866.5866605755278L464.1558488120479,866.587691501432L456.85438638105956,866.6029279642767L456.81048807063496,866.601796567113L454.3385609390058,866.537706147619L452.22211785263244,866.5492120268223L452.1698179609813,866.5494894067728L451.9175924256346,866.5508224183626L447.17866873884105,866.5461486161363L444.4553875872374,866.5422186448584L443.2824582367717,866.5402462100942L436.6238460412747,866.5258563750859L430.1609550466694,866.5066977861493L429.68590022457045,866.5050877546003L429.5540472251204,866.5001188036533L428.92030625880557,866.4953580411084L427.23443579337874,866.4824540907036L427.16121762605854,866.4818857802944L427.1555932269321,866.4818420972395L426.39170245156055,866.47587319371L425.82626387054086,866.4684775785971L425.32960472071017,866.4619492579393L424.8552799616432,866.4619504809613L424.8525381995263,866.4619504079471L424.78656281901,866.4652972987553L423.64535952658645,866.4717865846237L421.98837338435106,866.4809249225215L421.9872478822565,866.4883926956174L421.84078400338126,867.4601035165967L421.24049011424245,868.0901375177809L420.7572332506437,868.174672085873L420.39804752717447,868.2374838954612L420.3484904009583,868.2461487901926L420.1397733330711,868.2826388039338L419.3669674080017,868.97157148729L418.9201067413754,869.8815212873603L419.10839658249455,870.4837342492976L420.2650431769007,871.4410829041913L420.7908654327876,871.5425547099587L421.2635171001657,871.1689663302925L421.4574488945405,871.166799045789L421.78802453756623,871.4004008469105L421.89995604715136,872.1883037619511L421.80624580520964,872.558204488223L421.64776151833337,872.7906702836453L421.0889115441001,873.1854975385668L420.9048985874597,873.7929195045874L420.91445684557647,873.8801984439338L420.9598599621777,874.2947652488259L421.2901116260282,874.5769446393736L422.03306020678355,874.0529736559071L422.4671948505892,874.0581992317219L422.24863329010816,875.3434654100797L421.15743699438525,875.8323507520101L421.3355046621899,876.6251486604126L421.36656385011526,877.3476971609466L421.3043385255475,877.6464732962679L421.0785233511102,878.0944686984885L420.8933561415754,878.4617903344117L420.43036470955053,878.8834209175745L420.2485030483016,879.0490199801931L420.40056607511013,879.5537837954992L421.0868126315667,879.2669450370133L422.1746232129038,879.8447820198585L422.8256014569613,880.1904779336L422.4612431521159,880.5278533008461L422.3982881109287,880.55950302148L421.8042100049237,880.8581340045325L421.1399615478384,881.1919674451385L420.77549818301367,881.4964176686866L419.655542738486,881.9012319170604L418.6104646729989,882.7758402783832L417.9302445053304,883.7791732495232L417.90124796493427,884.2934882717595L417.9505934631984,884.4285219328574L418.29400345009145,884.7598283508944L418.9783403898281,884.9825535855591L419.5857566077427,885.4104677987522L420.0492997997651,885.8871146859424L420.0948814396321,885.9861932881713L420.09826548630406,885.9935489423722L420.26133916016306,886.3479964702275L420.1038707643177,886.7997037027862L420.0233458586421,887.0306785459582L419.93095115349576,887.1673288069237L419.42580802447196,887.9143480538794L419.27545203465127,888.4179582928147L419.2604749487988,889.3172814090974L419.75401643421174,889.7288165110213L420.1544153546888,890.0626404456959L420.4263643448132,890.2893490051622L420.7156295340227,891.0276061281211L421.2756816142913,891.6158079314582L422.3110573482901,892.709599993455L422.57536471908355,892.7184911287161L423.5834825713235,892.7523251112154L423.5977154677598,892.763697133945L423.669743156288,892.8212461965816L423.7766533514691,892.8814605511052L424.13075825356333,893.0808860365587L424.13815623754965,893.899013369881L423.9161810828712,894.7849657744027L423.7009517212797,895.6438532277762L423.6398428149091,895.8876871975435L423.65159756993586,895.9037069231226L424.0034006556839,896.3831244591775L425.29227973863,896.415161241255L425.98152229936807,896.7951589386332L426.12549128430237,896.8986485110694L426.9707956332877,898.0308075459877L427.08441519590906,898.3045117480237L427.6734204721913,898.9060541603876L428.58580225476624,898.9475977676232L428.86805970326975,898.7005223874381L429.18400293857894,898.4239350730038L429.67556821663936,898.5472044258295L429.74581401207064,898.8038258581112L430.3969114096172,898.9279824804692L431.4975681724631,899.2929396239733L432.0298448024099,899.4693706774491L432.1111105719826,899.5935097678225L432.28762393940565,899.8631334468546L432.3779623629606,899.9865789087926L432.74749479836873,900.3610735159957L432.75435524157473,900.354476264923L432.97311338588105,900.5025395551502L433.6559941647082,900.9646737559129L433.72704333136187,901.1527591369096L433.7538979722292,901.2242308793047L433.8122048427119,901.392103286797L434.05322727499185,902.110042757263L434.0593600783925,902.1233884530764L434.1348279037393,902.1094555988414L434.4198402318445,902.0793402862957L434.79058221125274,902.3542141384239L434.8193583378209,902.4816310585784L434.83522167037995,902.5912200981147L434.7782934844199,902.9615133997941L434.6959731288858,903.3936991786055L434.6953458375834,903.478958083642L428.785964272146,903.4396433530833L424.32144624845984,903.4071150061543L402.5167429766964,903.2132927233794L402.51711242107024,903.1805547072988L367.2976140181123,902.7430458581863L366.6176963347667,902.7354915712259L366.28075432599906,902.7288414782793L366.2803097460162,902.7571441374621L344.7596118204852,902.3695400621702L323.3458284327925,901.9277340940896L305.1705649386524,901.5545922862824L305.13448383870906,901.5537562251463L275.3654832232588,900.809774504506L240.89379103150605,899.8130068871394L191.28247211868927,898.1235878163841L190.25083329916185,927.1325807163546L189.46681070675783,946.544549479979L189.4590254038223,946.553841726954L188.40168045450662,975L115.45661194065337,971.9995326719547L103.60680552201995,971.5869915924336L94.49019926392629,971.1600166110877L93.04057141144216,971.0870473344206L65.43020081253667,969.662100396919Z"></path></svg>