<svg id="NJ" width="1000" height="1000"><path class="state" d="M251.83621492064702,696.7343644753125L251.73697563286868,696.4355695023577L252.73826267133478,694.4473399194574L254.45240866079416,693.2961370451735L254.96790125263743,692.8045005698409L255.51241865617413,692.2851396753689L256.39998131701327,691.0990995440657L257.1060057401159,690.1555165130662L257.95375757694603,690.1298380862636L259.19433407293417,689.7198268087607L259.20138824470945,689.7174950868633L261.08314556272416,687.4919043982063L261.7917804228712,686.6536091379163L261.7652606753956,686.4174025575091L261.92084518618304,686.1447791415276L262.28136251721475,685.6467336359341L263.15822474140776,684.4352386325739L264.38705121769635,683.236373109979L265.5347808451911,681.4074980466003L266.44648269198507,679.1820519991678L267.2393467280571,674.8725885551122L267.1233113833076,674.5564977615988L267.1396114031014,674.3519994921177L267.3859827283173,671.2606351454939L267.96896931418587,670.3080074687925L268.79905576230317,669.8572324208155L268.9199455220363,669.7915785907434L271.29574936206586,668.6102597087871L272.501159222554,665.6431224723029L272.83402979761195,664.8235934912847L273.69829885254853,663.3755899476954L274.70449106747344,663.0058608468112L275.3370214669069,663.1331929063648L275.75420102204635,663.5192442950058L276.59596309785934,663.8197276905813L276.9956684183388,663.3543816328034L277.2422527846154,662.0525558516629L277.09096387843454,661.1768489449124L277.0944711333375,661.1073972323268L277.1732415520808,659.547468708106L277.7401607181813,657.9850547469828L277.770750872481,657.0650178301872L277.96408541421283,656.2145986919351L278.163641581023,655.336740168425L278.8799758956945,653.8561030729282L279.35696565305875,652.8700493776487L279.698881903078,652.1631599219003L279.6991227139306,652.1624465336126L280.63828404577555,649.3798436307711L280.64269381633017,649.367344467593L280.6463721032478,649.3567952225364L281.4931490267606,646.9279566513824L281.40276114480014,645.4547969954417L282.7839766635826,643.4924604249854L284.9441122678479,642.2675940584932L285.8930024419968,640.1524912952461L285.61824567866427,640.0209628710664L285.47638501381545,639.8999814189063L285.5779845189394,639.803165598123L289.26488249475426,636.2888208957223L289.87568444515784,636.0094578982556L299.2458833165422,631.7200008626394L296.3670628203599,629.5131963371697L299.8105414529613,627.3653818904866L301.39207980752843,626.1825371303155L301.4054280773711,626.1725526287365L303.8299827860829,624.3586456121299L304.06512602073576,624.1626547721288L309.52790687424294,619.6074518125579L314.84129269805925,614.8480506671651L317.4957927015919,613.2076021803045L318.676548375145,612.4776873193132L318.76714917479876,612.4484220760364L322.1029087918791,611.3705216870962L324.2749451578986,611.0830755268698L325.68775540947934,611.0502658492126L326.2936097167521,611.0361588728539L328.3589479065654,610.9879007022035L333.2599245985614,611.5930763099773L339.9525360685552,611.4107242745432L340.8532185787717,611.203074312222L344.17124348065704,610.4376499338455L348.32306636399187,609.4788544499324L350.8618295759901,608.7148598864853L352.7780457776478,607.9058759367751L353.5184394007999,607.5932211286054L354.9924879072569,606.8239119224171L357.98073304299606,604.6937142135125L360.2328147478229,603.0876449815516L361.51361110979707,602.3088709562529L362.9255975296255,600.7062308713369L362.98624211823477,600.6373894219989L364.7119538989381,599.4023680832966L364.7284648836745,599.3980980434395L366.6123823831324,598.9107620630223L369.16676767983125,598.8627042583801L376.33380981302867,598.7257433014673L377.9336279463648,598.1517365996547L377.9630815617061,598.124080656986L378.8437729985244,597.2970824772718L379.5117904814535,596.5971282885173L379.57718616175237,596.4987576278083L380.80304651123856,594.6545498978081L381.58471889736404,593.4783667422371L382.3801394560028,591.9169197975348L382.9504022378603,589.0746154287053L383.2909164815205,587.3770500230103L382.64683280400595,585.3331379172917L381.85059551123504,583.5235726896575L381.2085361898106,581.283824191625L381.20770289515013,581.2768252998546L381.11711306120077,580.5159251580346L380.9653897128726,579.241403985337L380.90026804808804,578.6943103121105L381.06511258927355,573.5224990933681L381.60260578324767,571.2840939503735L381.7505913474879,570.667717092277L382.7566166641289,569.0394727881486L382.7861859222265,568.9916103363563L383.7552069003391,568.0594259338386L384.2095467974058,567.73424540083L384.6788990719392,567.3982960942004L386.08165159795203,566.394098825347L386.16152241855787,566.3489809627213L388.02730231389273,565.2948615269048L389.4306934755323,564.5017684695596L389.60477950650943,564.4387003983368L393.7672047328714,562.9300655428715L394.1739127511043,562.8868652159102L396.1371274513885,562.6781890725149L399.2158015823148,561.550216369584L401.270207187211,559.9205315673743L401.330018523932,559.8575848352614L401.61445957401133,559.5582246886581L402.5274636445826,558.5972404406652L402.6699290491658,558.4472754597414L404.00097725118985,556.2984041229594L404.23639357269917,555.9182851219945L404.5286881176484,554.0041438276462L405.8571071221884,551.3986336142594L405.9541360997114,551.2082945849426L406.29461220473286,550.8354714906867L407.86341523337524,549.1173568613677L409.0299627513057,548.3707809914317L409.105917666236,548.3221660138998L409.12925349268403,548.3072297903364L411.7391959501158,547.0769386235905L412.86564393437243,546.7476290648164L415.652218278487,545.9326139497781L417.3590070567453,545.4331473066243L417.8740419854722,545.1622526764404L417.8763672355811,545.1610296038328L418.68304355399573,544.7366921705225L419.7842669977613,543.4963721906956L424.9857762546102,538.8775814552555L425.38702071320074,538.5211322581246L425.95738561832815,537.7187133844853L426.8896140161597,536.407027744474L427.00175203008143,536.3126241887082L429.6605258398712,534.0738499957791L429.7787669977124,534.0008643902507L433.43535326751606,531.743117519824L437.98109161830234,528.9345281767233L438.77063509577954,528.4465000780035L442.38495398054897,526.4573848186403L442.4359169694039,526.4293292004606L443.6868885548263,525.8918932906374L444.50713462778174,525.5394360901207L445.8557878690771,525.3892475083986L448.51951983926364,525.8712506425018L448.5256540134493,525.8704496972621L449.3704892329828,525.760116159438L449.38872189911524,525.75773452135L451.1474006810178,525.1593884453423L452.52004625587216,524.6922246091409L452.7457088788064,524.61540990343L455.7482699428797,523.5929979816023L458.02942332154373,522.4279426893065L458.03540519792125,522.4263472562262L461.27923778033846,521.5608219499401L462.94576764162986,521.1158767073662L463.73719542252513,520.5850168055682L463.816304042531,520.5319500974452L464.12913486496836,520.0892890718117L464.14737457485256,520.0634787884151L464.63188908645964,518.538849631232L465.13426264112,517.5814348732521L465.1443257731877,517.5622556553519L465.775498492773,516.8600261240305L466.766155949937,516.1590164832887L467.7668837256042,515.6874597181293L468.96572130743357,515.1224414255462L469.0748665626667,515.0709947818453L470.6953162909509,513.823974863983L470.7029888709543,513.8136669680833L471.5670227237785,512.6527718575937L471.9157283594875,511.12876851912023L472.2648254103771,509.60282009045943L473.0521667890974,507.6085608517569L473.57314527307136,506.28873764190763L473.5916103192162,506.24195569331727L474.3440353141176,504.83571331754115L475.42417466422046,503.74341560760655L476.41222008724696,503.43325938143823L477.219989755233,503.39640260020064L477.41054892796126,503.44681258277916L478.2662114016364,503.67313666027997L478.97812202231745,503.98832562819405L480.49837630363857,504.6612615005931L481.91169755835074,505.2866970331047L484.5891010243645,505.9997044087979L485.4699553686145,506.2341740756009L486.54693483893175,506.27571466362747L487.44491365658894,506.082049258663L487.48703707651043,506.0458196487239L489.3282422863437,504.46199905693356L491.2262705811716,502.82882277647985L493.2100554062236,501.5039597537478L494.402077800839,500.9212151282117L495.4723542146539,500.6593628890153L498.2834438734999,500.85940139911844L499.1808167889216,500.78247644347226L499.8691501092649,500.47049290100034L504.3425172314869,496.4528537412241L504.74951739178516,495.8607021448242L504.80050210463855,495.74334958531256L505.2590615452686,494.6878057439673L505.5595940421698,493.20180273123873L505.5913715205333,491.4030660760836L505.3531535739888,490.54237354164314L501.92273661015844,485.1023485475803L500.9081388089425,483.88877090530735L498.84852154520615,482.55636271247334L496.57944296600346,481.65352733194476L496.50839708940435,481.58535202673943L495.8039532252771,480.90932924015016L495.41659396199395,480.3221645768755L495.0300572066943,479.2657944821992L493.9314384154548,475.54953407333375L493.8611190529589,475.42039580651516L492.92190889209127,473.6953920375769L492.05656183127064,472.10574010061043L491.98807217357876,471.93061384014055L491.9879458110915,471.93029073145124L491.0164560224701,469.44585759243915L490.8046826101262,469.1858151151423L490.73235690079946,469.0970021955504L488.6625956931761,467.4082800987855L488.6620935710981,467.4078703503089L487.79837034919314,466.7029957625566L487.5758969718273,466.53901276011095L483.5974481702432,463.60557454501253L476.3858273421744,460.03003443497977L475.0765508124397,458.85380165160564L475.02601617438995,458.82852441284945L474.40002759741077,458.5153890301423L471.3831742491953,457.00580960435224L469.5986337348504,455.3196946163878L469.5667436839424,455.23826924354563L468.32694789453586,452.0721179192416L468.2943876984383,451.9999389084648L468.2806006108252,451.969375699445L466.4033767055199,447.80696808181494L466.40038212668657,447.7979773993096L465.400346459872,444.79506795200876L464.22292059155365,441.98700924212096L462.98000248753306,439.59952756336713L461.938636141439,437.8288468867205L461.9222847083247,437.8107312546835L458.2603054754829,433.75241596842505L456.53849833554,432.10665885177855L456.3316890600887,431.9089537281151L454.9958505071903,430.84893054186324L453.56985579812044,430.0227735213648L452.08685863695564,429.87544129432956L451.51564836897774,429.81865636536816L450.0289721358853,429.30438088956953L447.32911859069293,427.1445482147338L444.54348153038745,424.3978115844703L444.5144865888869,424.3752551040827L442.6748394329449,422.94390121684467L440.7198949222604,421.02081885302397L439.76183528623096,419.5959885770426L439.51912633725476,419.2349896880328L439.13823017833374,417.3713779066394L439.0769120121845,416.4278903249336L438.94448488132593,414.3899436085638L438.88510534371795,413.47599700739204L438.0922567386847,410.55879204026775L438.0738054378503,410.50276020297576L436.9503684340686,407.09053690525866L436.6358526737156,406.13503190164545L436.55781640206686,405.9415198480639L433.6140327924145,398.6385882386859L433.1694242797733,397.82010057768866L432.83501985371976,397.5558498176656L431.9594533916155,396.8639002204892L429.07041279071177,395.4977171946809L428.0656078071837,395.0223966517405L427.25722786087226,394.43115161686916L427.040869719681,394.1935481473236L426.24340851550755,393.3177065446743L424.0259888076685,392.6195764342931L423.3496260049758,392.7852064174841L421.9477860928246,393.6518588330671L417.81856363102645,394.8792023585688L415.57086153816147,395.32621884391233L414.52003510822743,395.1522445879225L412.06108795354794,393.998954411907L410.57335290269793,392.77985044659283L410.5411583302105,392.72817857937014L410.15606748476125,392.11008711209655L409.8967372511786,391.8878371882583L409.1512987459994,391.24893467795187L406.2970389374251,390.3414449203198L405.4869141901771,389.55562710634734L404.9572871293676,388.2698153691363L404.7159332424914,387.6838029949086L404.3199886961073,383.5612567880032L403.0259741674951,377.73287581475336L402.1128105585524,375.05724669945585L402.11623226691114,374.595831810594L402.78110263821566,372.3555576033922L403.11020119959704,371.2464718994632L402.89867201643335,369.8314813255462L402.99216818165974,368.17503356069324L404.0266510180734,366.63513224896695L404.66259710632926,364.8474319649239L404.76267819117106,362.9096709482618L404.64846539913117,360.8316258393526L403.8250113910998,355.7595394255877L403.62704312778106,353.40558393322806L403.6809213478633,350.7313687429186L403.69598495906155,349.98360688769355L403.941049328773,347.39191880876353L403.58202090677116,343.34169640321466L403.5750164937993,343.3075701457209L403.33750794690206,342.15033011109324L402.94287355019975,341.1188538467026L400.0322548483163,338.7302163487784L398.440153186402,336.737134830113L397.50314480880235,335.5638758131298L394.98920761476813,332.41514084170166L393.63073628166944,331.07561944145544L393.34689221756446,330.97203883558745L390.50889667518504,329.9360634671093L388.6261657218689,328.9309056003305L382.8767333296512,327.9004817424492L381.34879370008196,328.0656967758613L379.7251495033095,328.8779039550013L378.7699626650068,329.7551085025999L376.4190637772057,331.9135123025601L375.10505235103426,332.36533096593723L373.90306123191374,332.35021785939097L373.40661866860046,332.3439499099044L371.42718232343407,331.9807536305972L369.1140569073335,331.04017664483956L368.0602829472516,330.2305745568872L366.4166297124317,328.32461614770557L365.9228449561807,327.54095822972397L365.68781197471407,326.62888927342226L365.6197536297308,326.200418623686L365.7637566336091,325.3247723391572L366.6629535028537,323.85474336585344L366.72441896716236,323.754248507318L366.92417124358246,323.4276488548096L367.12962509039494,322.05785785461563L367.06832450996865,321.5574294700408L366.5412960227311,317.25391051140866L365.4827296608559,315.6419023936933L365.22929045869046,314.94140971735237L364.7388515364471,313.80235893349817L363.90845558921865,312.5727479271409L363.7810491240175,311.5743824799453L363.99374152919466,311.2839865755532L364.1118715629601,311.1226949556285L364.9483298265336,310.7507150442905L366.2045322468475,310.61960461158185L367.07907408256915,310.5282697607669L367.50101772074714,309.93407144527816L367.72079465269496,308.7147867716099L367.6421305654661,308.1157985089819L367.2379488024287,305.03754573421605L367.1247831907226,304.17549275073185L367.0376761032854,303.5118893956593L366.6886923683657,302.4057085889949L366.3349430705357,301.8290904226908L365.78747112473457,301.3414305169267L365.2468357586048,300.85981865868195L364.2914875222082,300.0086687849209L364.30504450667354,299.1054269250135L365.4427879149537,296.8176638104833L367.18843125477053,294.1807169955798L368.0553330106315,293.46018522797056L369.5941034996598,292.6338597347136L370.2250884456612,291.60924088073864L371.1728910902483,290.0699189092769L371.3873604706753,288.8573316337907L371.16325600584946,288.07044082569007L370.2904267431452,287.4269496040763L369.1260906303986,287.17927133869944L367.6049650512547,287.3603686494424L367.4584371804142,287.37780577479793L367.3338917852017,287.39262587241393L365.46966541939236,286.62723130014547L364.3049628806898,284.9813729683465L363.95892958110403,284.04102259544385L363.735713052184,283.4343765219572L363.44622531952336,282.6475613133422L363.44607060952717,282.64714079987755L363.44250631169143,282.63745276348567L363.7921395372196,281.45770148389784L363.89470051001354,281.11160753188574L365.0293437336411,277.2819089976582L365.21486231926156,276.7999847322132L366.33064145978113,273.9009829061351L366.7976750466147,273.28106342934143L366.8708487154047,273.18393129120994L367.8224235108167,272.37742290572436L368.74117335645303,270.0514194475441L368.8854519900002,269.7656584440095L369.0598101695315,269.4203088233818L369.9047840793951,267.74648309357804L370.03330704189705,267.12514602512283L369.8288617777939,266.29523737338917L368.96489972840834,264.88014593661416L366.17508386258623,261.66039904244616L365.89371508428997,261.0103110300147L365.74692713368313,259.8573526193471L365.8493710784163,259.2615835666786L366.1427735434813,258.9249230960994L367.2609425524875,257.64174354259376L367.6643242117142,257.43303662784865L369.8546566299826,256.2995214179609L370.29161097448406,255.93805726822177L371.04156798570875,255.31760816337513L371.5104984812767,254.41645345050117L371.71006222707047,252.66951664748026L372.08906225718016,251.0386711018825L372.2774445488028,250.6952148341903L372.5000693001682,250.2893102157856L372.76949193767007,249.79805453447221L373.01314396988323,249.50846999050574L373.294213110181,249.17439962224375L373.90464785665995,248.8968912070716L375.6338545256565,248.94655286115233L379.8243978657615,250.3842894625544L382.20565259155336,250.76688891211305L382.84566666362423,250.86965857271716L384.23221652072937,250.81975283880556L384.55649913410525,250.68289774425804L385.10386886660615,249.97736863023587L385.54120012329383,249.1611366261232L386.77892447213526,246.85063365542766L387.60603909322333,245.79976147183336L388.81861289118484,245.14516401285076L389.4533962937123,244.80242821298089L389.69927231440323,244.7722411483149L391.07409521164055,244.60337864681568L391.26974612508224,244.49637078412462L391.91339522266514,244.14431326415337L394.2086569608748,240.77844823634413L394.3668546302414,240.2434873259053L394.405450827937,239.53454959914677L394.2442049057504,238.56585311257618L394.38662449239644,237.75434163676476L394.9829262423609,236.70615285179258L395.6161853182994,235.962691776756L397.28369791499034,234.53639452628684L398.8114337761023,232.19256300731723L399.212909771089,231.30174873282624L399.2477771160309,231.22437919757215L399.2872928191638,229.9869554825639L399.28915670305867,229.92858542689814L399.2066531778888,229.77926007965718L398.79738798238986,229.03848022203664L397.8293563805688,228.07083477768552L396.0472510954671,226.28904091080017L395.4465338173865,225.41632037444924L395.285099455034,224.7810663397628L395.28734752437674,223.97453074273096L395.3996647513827,223.3418456401174L395.8295338709293,222.40849423771226L397.25357851112653,221.60145390043306L401.4531697588965,221.36613468329853L402.3735744915434,221.73643115270824L403.16701379237276,222.3439988404212L404.5834982469573,222.27707740122673L405.08130050966025,221.99036928757357L406.2224958412308,220.1788971485293L408.1433992102692,217.78646210673998L408.35709531113014,217.52025960643965L409.03858386895183,215.28581025369334L409.1009988374081,214.35163851324597L408.9103185654066,213.51207672869072L408.28626181499135,212.17245473062195L406.83096243423245,210.6100762021997L405.8396430624489,208.84125739895296L405.8175100363158,208.80176093768188L404.8609750223002,207.47644378672612L402.3883585219852,204.93504224564174L402.2897018403083,204.74921245300163L401.9770993225492,204.16036689287074L401.8003650367886,203.5638383803131L402.0391530220252,201.83289683916735L401.7937740069649,199.1551767610864L401.54840303869395,198.05086366619946L400.87823049433734,196.4881062606898L398.5487992222223,194.5106716519811L398.1883823829018,194.20465139377217L397.28530590087234,193.43779637035664L396.14051390253815,192.4655282619027L395.50440982052214,191.47901076892947L395.076608093516,190.76885754432504L394.67300472317424,190.0988161630787L393.24439372784855,187.72666109956543L393.07041100215116,186.4137498437749L391.474885904226,183.12319750938207L389.70714302517223,181.20126191452704L389.3835590117367,179.9024132097884L389.1105711754038,177.8480193075195L388.9897218292224,177.46494631762715L388.8963063132329,176.92135692647844L389.16228936252776,175.9598728919766L388.9731152363944,175.26253331596718L388.95023092968404,175.23623456453737L388.6916579591079,174.93907415991094L388.34356732946503,174.5390164319058L386.44284811368004,174.97964038534468L385.77255079314114,174.85709021214996L385.069956105282,174.19262036354286L384.56759465483765,173.0880251017942L384.57924147944516,171.9008938806296L385.3038773515017,170.62050928092452L385.59896590872995,169.6963510491127L385.7755095118334,168.78633979858733L385.7625889727921,167.23887501872855L385.81005276613956,167.11023898299385L386.0757034119496,166.39024158344125L387.0750508124188,165.28811411145483L388.1874570958096,164.45317933610198L391.9644617674524,162.13790297198864L392.4043135224922,161.39313511938445L394.8820461735532,160.39842362963833L396.3898970060236,159.5727564993802L397.93897760714475,157.86627977757723L398.09645967914423,157.38353679487352L400.6466360536176,156.51472874981147L402.43417751926336,156.4148640442749L403.7464024226192,155.84636682354375L411.69283629394243,151.28940914927642L412.52528495473916,150.81168472614604L414.34490510178773,148.88389642985578L415.45986991870916,148.2468704855122L416.9044488221354,147.71709895287114L417.0083011934437,147.36702230854036L416.74099839074523,145.918023391563L416.94342823401007,145.12707985318974L418.86624373082253,142.62320123199817L419.4421280764411,141.6480873849282L419.8502320673232,140.59586566746918L420.03201436303965,139.43126639172334L420.8344924597201,137.47113524294338L421.2577905597509,136.9927964273245L422.6490364149689,136.99181632380157L424.64084314013536,134.52268049492972L426.04171074169255,133.51761831105875L427.6582686551746,132.84342786467693L429.6313758246723,132.52411668132743L433.03698007371923,130.16937623005725L433.8018155402511,129.20245815599793L434.2902867921001,127.02243417928531L434.1823719948378,126.62774637119219L434.0883044874263,126.28368996661789L433.5141687519912,125.99081636384227L432.75262222813757,126.18513254594501L431.7960240630343,126.7572102011004L430.02834212830226,128.38103195648102L429.0116949521838,128.8851437060428L427.9934508891748,129.00444811848246L427.1904328682817,128.86162490956866L426.95728635522784,128.64537497378518L426.9929193162389,127.42313938543703L429.8070877506576,121.249990954314L430.49530659642164,120.40939743466492L432.5338142434317,119.29491664633167L433.58810354277875,119.09063767959128L434.4681419730939,119.1730458001922L435.0547648378768,118.95601437036663L439.8589635850729,115.36666605714765L440.02952685842433,115.0267424112028L439.92225029801295,114.30776057955899L440.7007385878055,113.2416928023232L444.7755485691175,111.58134222092457L447.11196718087143,109.74756526110002L452.37152640385375,102.97930497957861L453.3955190910859,100.76438479577382L453.577061847524,99.80551526854515L454.0100959909474,98.91169221188011L457.0202673247919,96.04901257143291L459.10215298752775,93.32451669685355L459.15645534104965,93.25343929433245L460.23018573422354,90.67375876819403L460.29796444063413,89.51736350066761L461.5464872500964,86.40147730089836L462.3129593081071,84.87432090168335L463.5280468915866,82.45276220100135L465.5479257900838,79.08964590840912L465.77336934131654,78.4617148957741L465.8372290010487,78.07743671621273L465.86537172765003,77.9080819109613L465.426732239979,77.20536549672539L463.68445192283366,75.43729731282832L463.5208523035923,75.08613472634443L463.8833435206975,73.39785069125452L465.0948902531063,71.28083091596153L465.2084571343771,69.74514254006442L466.53689427123754,66.88385819817944L466.87267481997026,66.4516630833387L467.2616512078346,66.29190544767044L468.9169417926255,66.03342410045832L469.51801074809674,65.2120891487694L469.82550248167377,64.58302504315435L470.0775052922452,63.379482707016166L469.65262903441334,62.01458640222745L469.708985265887,61.43352880264092L471.22718394613145,58.37826600296921L471.9344294192,56.259491197205705L472.0413297441521,55.93919562903619L472.6700400178572,55.19957515925984L473.29681199801433,54.46215492888132L474.4706262304404,52.10829897657521L476.8555780583254,49.545464192921884L478.6558575009262,48.655097111355985L479.7253451358254,47.8814451591968L481.23540990394196,45.95067242890042L485.40054124764214,43.06823878001404L485.5663011243226,42.677296627825854L485.4562827796969,41.72912138969241L484.52629358806246,40.12896019924466L484.45884935608365,40.01290177071229L484.68790647941785,39.281552269110705L485.53969084337155,38.48703590014793L485.97701001362066,38.33088699586432L486.4184933907724,38.17323657093135L488.6023863989434,37.81113856018885L490.5489356357768,37.7776271687153L491.5083515590329,37.48809790989935L491.7903254903705,37.22112542850971L492.9274501253996,36.144373341059804L493.863887970699,34.98120432853767L494.7921567852019,31.5940264223168L496.0601325205562,29.8053299047628L496.8545184389173,29.354286821785763L501.9723697816642,29.20850742171467L503.4969160503903,29.41742866586111L506.2426637239041,28.878376678625273L509.8489747031332,26.811574214314646L511.0358282061794,26.30599991358929L512.149504509994,26.109443793308742L513.8000909483126,25L514.1228318079205,25.197980957099617L516.5791384019634,26.704423889689792L519.8944897485312,28.736749612802384L527.1282653383619,33.16723828493696L529.2874492459098,34.48865673957323L529.3035135825914,34.49848633742994L539.2138846996758,40.31809572088673L539.246518957289,40.337243496045346L549.0295984204316,46.415014935103216L550.319187148234,47.2154492047801L552.704570239394,48.69558554202911L554.138642658389,49.58515252871757L554.1409899773629,49.58660841861257L559.7949144138843,53.09174561609137L559.8163280081361,53.10501474703614L563.0804661050175,55.12712319345917L570.6257345929258,59.79721826217565L577.2293427920861,63.76563125509756L579.7386558099056,65.2724589750045L582.8830556808908,67.15977134823737L588.07383762953,70.57247557308483L592.4259972817101,73.43161439699162L604.5994873419578,81.41826651306383L605.8736713949033,82.25331011488612L609.4286112232832,84.3982276069072L609.689568860918,84.55563017839637L614.8267566209981,87.65286499322605L616.737543791467,88.80421889653513L619.3105341821592,90.35401392548994L620.3402303834863,90.97404906982291L622.5828843389824,92.3241069291517L622.814046839698,92.46323635207688L628.380507172905,96.22537538120338L634.7529840891536,99.89252036364076L634.811197845783,99.92600244816339L645.6108991032482,106.13191053273414L645.7075945447377,106.18742482341776L648.1668386198919,107.59901240835057L654.401333082908,110.91823720683175L656.3121794780827,111.93485690870716L659.6407064964401,113.70492562970941L663.4428728466397,115.72563630446444L669.2239358082943,119.04490248641116L670.5151445524316,119.78582836927137L672.9377042651234,121.17551964998165L672.9955164130719,121.20867648990503L673.9588801778781,121.76114478418873L675.1515012010802,122.44496422724762L678.9997499697349,124.65052786840624L679.641179530095,125.01801559202102L681.5338970521389,126.10216190698065L681.5350983101368,126.1028498774615L686.535991111144,128.96570854455723L688.5667028949254,130.12754760890732L688.595588674399,130.1440713041983L689.8143509340616,130.84165988005753L689.8602409235291,130.86792337535394L690.2191181725424,131.07405909424244L690.2260925825466,131.0780650077349L693.0256772746991,132.68569531075383L693.0272307972891,132.68658719567878L695.9002168549437,134.33558766517513L697.0958726713242,135.02162263293405L700.2309337476318,136.8197870895799L700.2315269015512,136.8201272136822L702.1084833460816,137.89623611639638L704.9958705862196,139.55099488100313L704.9973418490433,139.55175411420788L706.1062884856831,140.19278403679982L709.4743952842875,142.13900415836235L709.8515175911234,142.35685195404585L713.1005270567272,144.23310353952974L713.3818370768165,144.39550797616187L718.8709456989491,147.56293249009406L723.7605886325559,150.38200989837298L726.7970739174359,152.13151388998347L726.9230996925608,152.2041059255332L729.145481291549,153.48396885751833L730.9292899456893,154.51091691540176L731.2672635310952,154.70545577891926L733.2239606330787,155.8315231685283L733.2435815377683,155.84281302607474L735.2455626593468,156.99455827601946L740.0696796239865,159.76831169767564L740.5877707887918,160.06606961702175L743.0847013405952,161.50074861805484L744.513276591343,162.5761552306853L745.1167305459114,162.9113656416231L745.8008069843219,163.01602482318475L748.350030270484,163.01931410138502L747.7017863701942,169.0455953167728L747.0212849502002,171.71309678343L745.3560909586124,178.23720846235165L744.7046699479915,180.78815952904472L744.6982964535681,180.8131144750081L743.8378626421471,184.70266891713493L743.3193543039157,187.04576530667288L742.4051429086318,191.17555009848013L741.8175308643831,193.28079286222226L741.8174394769117,193.2811202390302L741.7615456408009,194.028095784701L741.6153314722131,194.06892724029058L741.3792432419532,195.089573141607L741.2600124062309,195.60498322576183L741.254854601587,195.62727868684163L739.2793271302656,202.69458000971838L738.649165635833,204.94778240962728L738.6483425436521,204.9497074176212L737.3957369241989,207.87874809537766L737.3951877808938,207.87993479750878L736.0604303548403,210.76386964079342L736.0397205221319,210.80917786454268L733.8764942828743,215.54049427149147L733.147252092569,217.13487648090165L733.1463626898126,217.13682085084912L732.0604190733371,219.85505791469905L732.0590202567212,219.8585587676926L731.5230846231436,221.19975599205804L731.0842168838445,222.59047738554642L730.4943113344331,224.45948416666693L730.2151608382399,225.3437866783534L729.8458374176158,226.5136095669908L729.4125155434748,227.8859536360164L729.1584514936045,228.6904859613786L728.9231915980148,229.43540845939563L728.7863244980705,229.67104819695564L728.3733317138093,230.38204327653438L728.1965366625061,230.68638890240084L728.1159834403484,230.82505427468584L727.5411484150851,231.8145140392417L727.5125206075959,231.86378774314096L726.6086314603875,233.57418456331615L725.4964547600989,235.6782355837257L724.90068052073,236.80512202293383L724.4161023882098,237.7215727038162L723.9095340806709,238.6795044237394L723.3725989674501,239.6947404761175L722.8475425436632,240.68739697479694L722.6998868318509,240.96652934093828L722.3087234526363,241.70595012130693L721.7699942071242,242.72420925972648L721.2406051061917,243.72469355988684L720.8527819545211,244.45755851455755L720.7591027363042,244.6345734167338L720.3879881433901,245.33578934951814L719.8651434352174,246.32359739517554L719.6022716765216,246.82019565442397L719.126958047879,247.71804875926833L719.0203022309352,247.91950512723758L718.2675007254293,249.34129281792292L717.9300762379423,249.97849516410102L717.0706355461308,251.60126886890723L715.9464102639552,253.72352649796252L715.6863078954127,254.21445831825895L715.4943200315906,254.61200320654208L714.3635044304921,256.95318254043946L713.8586764715517,259.78759841420697L713.4958852946985,261.82399599964765L713.2563182362869,263.1684737852196L712.9572705113657,264.8464899111992L712.7068219989368,266.2515722430222L712.5376141973218,267.2007520532679L712.4471336525144,267.7082673777227L712.3395677732724,268.3115800412884L712.3360234326466,268.33145877661536L712.2342361996609,269.09993972259554L712.2222739987326,269.19024862263245L712.1371769129441,269.832665286625L711.9706078263935,271.09000182348484L711.7343881294748,272.8727962724183L711.5930193337744,273.9395674690453L711.407472908114,275.3395155967395L708.7283484241746,275.041288495079L708.6823066337056,276.6825985813891L706.7215342365628,276.9151698503389L703.6085522378935,280.73488846818356L702.975018996971,282.5221795646005L699.8752841811506,291.2619001805517L699.4412925342024,292.0519370681923L699.077507059046,292.71411299707756L698.1456028729325,294.4101590931349L697.8183539939632,294.59190777859095L693.0792522982224,297.22281586920485L691.3853559561974,299.1157738463811L683.314730874117,300.69069219119274L681.8485624869359,300.97634559126664L681.2578389598003,301.0913964126661L681.0918710281684,301.10062778012514L680.0214708888418,301.1601238997659L678.8520219948259,301.2250442505216L677.193331804156,301.31697873957387L676.169670162312,301.3736310453608L672.1021174653729,300.973178093252L671.5019910550882,300.671459151143L671.1757208568405,300.5074107205551L665.4129069852588,299.99729900289265L664.0041143774142,300.4824583210418L663.9893211956792,300.48755201554866L663.4343500572547,301.0299815718872L663.0872731057332,301.36919035402667L659.7481070349854,305.7327035408192L659.2538714169308,306.37833286448165L658.620061191655,310.592171940714L658.2348586151751,316.14661898870986L659.7344735964348,317.75137638222606L659.5384374759374,319.51069348195335L658.7049129681934,320.71289246106875L658.4396236119553,320.91839946533867L657.9824652212405,321.2725181383337L657.335667157173,324.0779075800483L656.6481356484653,327.05905512357367L655.8457468274072,332.13073595528965L654.106259937954,334.537188281511L652.9048529193706,333.9136196422637L651.6042618668503,333.50542946066776L650.71810809887,333.22724103076587L649.86812469074,333.9718144317055L648.6912728502618,335.0025547188543L645.5350687916775,336.36382168746616L644.6954048584095,337.0034375696134L644.003688212084,338.6275315274067L644.2615860805155,339.86845874560424L644.3998122736946,340.53349866585506L644.5149169688093,341.0872618379335L644.5443729376733,341.9420481991285L644.6046615938433,343.6913868040234L645.6969258689405,348.4718256617489L645.4228873862829,349.4597653192819L644.2333625025001,350.5251588747252L643.6894233671321,351.4967915689309L642.7223277246447,353.22402423822786L642.4209150618019,354.28144564154707L641.8799815333927,356.1788587207897L641.8640286900993,356.2010289247117L640.554534038445,358.02065596134344L639.8846847750517,359.6112817044252L638.8253756909314,362.1261412675961L639.2987767221434,362.89894216556434L639.5407847678418,363.2939787317481L640.3855807332436,365.34818231783146L640.541614759481,365.7275440515953L641.0043548434065,368.2540326313574L641.1109830616084,368.55588650622815L642.0962791815258,371.34470631874444L643.2646120662887,371.7555011877239L643.6100497521107,371.87694043284085L645.598160981463,372.57569320164896L646.5746284649905,373.41989925318484L647.1465047982517,373.91425547514444L647.51660883043,373.9240972431823L649.5380289740262,373.9777018090499L649.5945859619355,373.9791979844346L651.5464118854047,375.98554406638493L652.9920268441263,375.7691263203745L653.1425870603724,375.7465788460149L653.6857817719333,376.01704941702445L657.6115396213652,377.97102865075783L657.8660140155092,378.5789103760908L658.6946181715773,380.5579796263279L658.7020123134467,380.5756381542217L659.6963332330084,381.13321463295415L659.8073313008765,381.19545233714683L659.9131875854562,381.25480592798675L662.346817228108,380.43240332155403L663.1117017236498,379.64754706888294L664.1422941246942,377.91554655510356L664.1708945135542,377.8196869151697L664.7851695262243,375.760588944346L666.2175100469163,373.7744313812182L666.2176137193823,373.7742876046884L667.043721211468,373.75800444027L667.7555008817113,373.7345083750855L667.9725022215436,374.68265026057026L667.9726153991392,374.6831447429914L669.1486404947979,376.0776295072129L671.402161724738,377.4534415902523L671.4031745509267,377.45405982490223L671.8860403782664,377.52378994997946L673.1533925502195,377.70673635353626L673.9341011889891,377.63816152156323L674.7770693934083,377.5640754299228L675.4040132938767,377.10029127107885L677.0168709365184,375.9069638654778L678.2027537326766,374.4847817691722L678.9041194980878,374.05445191909126L680.174373083419,374.11280171640396L681.0269380222444,374.7395484792834L682.3168470246338,375.7647562102089L683.6577610817412,376.83028318351523L685.4002704548908,377.79837007944354L687.7526990620352,379.10486589025356L689.3160030994509,379.63396365328174L692.5246945970936,380.7193816981719L693.163316038182,380.93532135097416L693.7742818358681,381.1418818501526L697.1228445443884,382.8346009009715L697.3270196931784,382.9377811586035L698.0229822608176,383.50979151646345L699.8079166090492,384.9765413639164L700.0164187380251,385.14784896730373L700.2384268460469,385.3302470925769L700.8757142791904,385.85379656541215L702.0558016604974,386.8231337300324L702.4818868669267,387.1730810309128L705.7499554972535,388.5990807127467L705.7953267207262,388.61887209151894L709.1084844187276,389.39697863086184L718.1589314330215,391.5187592397308L719.635301336602,391.3473758494152L719.8169482374253,391.326280044307L721.3564136886624,388.2162667130275L721.3564822156453,388.2156504454906L722.3740506734235,379.0599993695008L720.6868872359166,376.9728628816721L719.954010093955,377.1994442288763L718.7878933737613,376.9264319288978L719.203970550051,375.6633598970443L718.3751047981452,373.7561185770212L717.9990424292614,370.641756199632L716.3051965332677,368.97044031466663L714.0352603150835,368.10728586327247L713.5940103232433,366.5610143633551L714.2866326465731,365.4951913216264L715.2717843158885,365.3427626686392L717.1709224825217,366.3836753863028L718.1939649316744,365.62083116843L718.2361960572853,365.589338374533L719.643421888818,365.36058231967195L720.3553168255978,365.9162662977266L720.3428463550083,366.95154942219256L720.3246027883166,368.46574927218603L721.0635480781397,369.0125352430438L723.9876599155094,374.5465574124137L724.9669390738554,376.81955017682606L725.2554497704217,380.03479434499684L725.2796831915605,387.65790466770073L726.1435341084798,388.98865150187123L727.3290915046887,393.42281647289525L727.5963726774212,395.93051355668234L728.7519253632956,406.76567280038324L728.7519438812756,406.76713646865085L728.8023313876495,410.74966996169655L728.8386056707326,413.61657926409305L728.6049952763966,416.87964845200986L728.2160237855506,422.3100956404828L727.9506871082342,426.01253557415544L727.7031457547146,429.4652502202992L727.5272541995121,431.9177627434721L727.37744005113,434.00612735183086L727.3038816093681,435.0313276556235L727.0075778315093,437.01829608844207L726.1384024670184,442.8444058171185L725.8867190407451,444.10771574284206L724.6521805959355,450.301941449085L722.8780174216505,459.1965412807273L722.8515151532702,459.31066636412214L722.4411848033699,461.0774693447326L722.1955276052246,462.1350623024506L721.669663097171,464.3985909602565L721.3583423084226,465.7383812366117L721.0963572569859,466.8657035250417L721.0004875544267,467.2781972221367L720.2284670848068,470.59926958511596L720.2083129030298,470.6859529652433L719.2805618184136,474.6753552932891L719.0321163835812,475.7434024144667L718.3077265468332,478.8568033816408L717.7978738224617,481.04751313624973L717.5147607109319,482.26375891482644L717.3459212923556,482.98901327759603L717.099607610113,484.04696010424414L716.4263809258607,486.9379422242089L715.0923094014368,492.6641119794621L713.8044769746314,498.18850826747484L712.3937480567337,504.2363742469278L712.1144458556766,506.2381811855663L711.3161997672503,511.956990112538L711.9898013552538,512.7586379004309L712.1544826623583,512.9546100154143L711.4922518325807,513.362606358671L710.8657575956852,516.0131257514203L710.8542341812204,516.0618710720056L710.1781502122041,518.9213403074476L710.1726577891235,518.9445667348974L709.8146552315694,520.4583691102665L709.4148583850737,522.7679120903722L708.2269769153398,529.6267263086402L706.7705516624183,538.0293242598592L706.7314123705048,538.2550288042427L706.0986868079278,541.903020519389L704.6801354298761,550.0766027620872L704.6372225182214,550.3237537556226L704.5316329822363,550.9318546807766L704.360103137057,551.9196294241656L703.496351488659,556.8920813952069L702.911157956617,560.2594471558721L702.8539420855797,560.5886190074667L702.7742056624536,561.4394532482457L702.4912188123801,564.4584538853214L702.1194388765452,568.4232263026263L701.9666149772086,570.0524914715925L701.7160410820148,572.7232524882133L701.5268461935881,574.7392882538252L701.2723772558682,576.1214224922015L701.2628180928164,576.1733386539499L701.0694246678987,577.2236045159202L700.9982987343973,577.6098404991939L700.8180923974269,578.5883468751639L699.9549645864881,583.2736690333103L699.5811219511197,585.3022858259255L699.3427685143539,586.5954594873342L699.205037612568,587.3426309914095L699.175362920844,587.696677120247L699.0642990171044,589.0216492654575L698.9937419024257,589.8632832223841L698.9212406158204,590.7280274903499L697.5697552775629,606.8326754692149L697.4515005775617,608.2404847193488L696.1665315476716,623.524007987191L695.8511347252581,627.2714831119215L695.5437452089725,630.9223496699342L695.5436246975336,630.9237807008082L695.4218247774782,632.1093069664046L694.2613573515373,643.3970645644179L693.8645223154429,644.5517566786085L693.697977778822,645.3587701708691L693.4815383574311,646.4074543029772L694.27467827496,647.0069046950998L694.8050335379526,647.407703183388L694.0572235862433,647.8861943340613L693.6648682261003,648.1372229754415L692.4656394845096,650.086308019245L690.8295301891973,651.4662377962367L688.9320145695515,654.2531502803554L688.6676836294114,654.8991449058406L687.8551004070302,656.8847188000958L685.2212812228669,663.3175718385658L684.0995654853557,666.0558787281701L681.0975035212714,673.3804037452678L680.6483605950382,674.4757314679956L679.6511540215997,676.205879857771L677.0338281617485,680.7452355610874L676.6226879518597,681.4580735813531L676.0756290067064,682.4064749383085L672.0581533045598,689.368045907467L671.2093426833887,690.838147560324L669.0596008380733,694.5602558109159L668.2362173107069,695.9854438720347L668.191916494572,696.0621169710843L667.8977874586218,696.5711595293675L667.7877808335028,696.761537637851L667.5829349265858,697.116033698536L665.9838831029789,699.882760137694L661.5672939042495,708.1771778087304L659.4170274258024,712.2125311214979L658.6148851576485,713.717410204667L658.4882857809667,713.9548962188292L658.4867391508669,713.9577974805082L658.4053720078812,714.1104294826416L654.3241311894068,721.7627452889562L651.5182283402211,727.0198842350763L651.2036021116512,727.6091689037016L650.2568047829361,728.6196699807545L648.6355852156643,730.3496134067094L648.391320299053,730.7354664391446L647.3554191019344,732.3716254102505L646.1211771673426,734.320627592163L644.334724318935,737.1408089951562L640.5670366288648,743.0854805392173L640.1390772115769,743.7604435768167L638.0777753657003,745.9193036506017L636.8504308618825,747.2043988507241L635.7194462208333,748.3883771244148L632.5381266475355,749.2794702276933L631.697442985564,747.5921410441662L631.2836963096124,747.2492190662513L629.8836074256272,746.08863467757L629.6619667871628,746.095599858497L626.9979524726991,746.1790853277083L626.8280736100103,746.8934545354357L626.7033093474282,747.4180759231735L626.2244096130937,749.4315398984184L628.1883403039694,751.8007903249863L629.6578602487161,755.8340269044313L629.7394912360552,757.2775727382336L629.3944202601593,759.7351149554705L628.471740581292,762.2689233079764L625.5238505393506,769.6295392547862L625.2805943695627,771.8550189684922L625.2315183379035,772.3039399088159L624.7879751096624,773.9970179898246L622.9011279317828,776.1754043020867L618.588980218022,781.4389699345927L617.0787823139444,783.2814709125454L614.5904328774541,786.3163356705057L613.1768391627643,788.0398315835931L612.9490076286479,788.2567305888804L611.2632322070538,789.8613747779933L609.3113537392454,791.7187892948989L608.5181299608564,792.4734626271586L606.9678225502537,793.948156601656L606.6351697299158,794.2645385271658L604.727622005781,796.2453040584763L603.3789267975494,797.6454045873209L601.4891342415963,799.606722185186L601.3078887362345,800.3004366822423L601.2541159469142,800.5062417787312L601.2507034422773,800.519302343497L601.0764519398821,801.186186107217L600.691809202298,802.6581043445221L599.3424890113234,804.340970790508L598.9603342337302,804.5881323976068L596.0205963471846,806.488939306789L593.4317982727539,807.1075944218827L591.3901972039828,807.5951728956093L590.87536750573,807.8390393869611L588.762113619156,808.8398260462552L587.0985761627124,809.6273804196371L587.0601828942928,809.6455539421621L585.9836092815144,810.1551028473377L584.9858692790149,810.6272545891195L583.6772146117174,811.4348077945324L582.0392888729302,812.4453155954476L580.3307275806402,813.4991242105904L579.7578312133828,813.852412577751L578.2114206562661,814.8058796552652L575.6657536908835,816.3749511760717L575.1826599027693,816.672644551621L572.2949838631174,818.8798621974904L572.2729021827569,818.8967367533759L570.5951957611584,820.1786536094353L570.5678365430633,820.1995557640945L569.8337140795586,820.7603850059816L568.9922897623785,821.4031096860822L568.1869315746524,822.0182078325142L566.3732669664823,823.4031305021813L562.3955181555385,827.2556550173791L560.4672759446632,828.6499010247223L558.3447915591142,830.184121242842L557.216189741449,830.9997187650544L556.8255566560715,833.7952840738174L555.7799046590161,835.2470336484455L554.365823159113,837.2098704794003L553.6965082219953,837.5297284687394L551.4098824307304,838.6222031421748L548.4447254060464,840.0382179523402L548.4208468351917,840.0496182648358L548.3954015825465,840.0726994000363L546.6542629570547,841.6518543376533L546.6064421865258,841.6952202223309L543.9951276247463,844.062785884793L543.9369864825874,844.1154891180448L543.1297113547255,844.8472115637396L540.7253773910978,847.5052284271317L540.6764740493852,847.559280918079L538.1987342154958,850.2973510956454L536.8548567103709,852.2170843189435L533.0487457134951,857.6516102453747L531.3788078833136,860.0348454893699L528.508566345378,863.9248216210624L527.8928783294436,864.7589960534144L527.7803255149645,865.089796444025L526.6221098112879,868.4932153315006L523.9129668455837,870.9068972293476L521.0086502636829,875.1700466475033L520.5085747809043,875.9038633420834L516.7800479320945,882.4485699043917L514.8632173149608,885.8112693628984L513.3294062544195,888.5010964006228L510.37269919269664,894.9056134023205L509.2401856461209,897.3575682641374L508.8705426361984,898.1577245669057L507.3575869372677,899.5852344399774L507.321859920832,899.7216464410012L507.21739022978676,900.1205193496098L507.2144600324618,900.1317068280912L507.07836483348234,900.6513038420312L507.05654323776133,900.7346138704659L507.4188305921766,901.6283180165223L508.7952818611894,902.8658768377754L510.2634732041652,904.1856312924076L510.3972499280606,904.3058682010205L509.94614816393516,906.2492495238923L507.4962023149336,909.0508398239124L500.2792450625924,917.2971986296473L497.3799963723256,922.3066751378626L495.8931715103669,924.8745643858047L487.5340053774157,937.774877681491L484.6318175987539,939.9608760358749L483.3872045455498,941.947270796159L483.57918181323043,942.1551694978266L485.0560262221582,943.7542821875152L485.23586814777474,944.4808624424859L485.4177306219277,945.2155522209773L485.24104123584186,946.4598243672125L485.1860936416724,946.8467430878903L485.0662013863999,947.0425456468502L484.01334787611916,948.7618239491509L483.2221282061679,950.0536328440415L482.9421739481098,950.2811104776952L480.9172394180724,951.9261899203866L478.67714975131514,953.745476684536L476.97167499646355,954.9111458098926L474.6223674124186,956.5163683691084L473.99169241569444,956.9471945112246L472.91905814893306,957.9229170107484L466.62987491501696,963.640664643669L465.33869027850096,964.8138535809045L463.7151092594532,966.9497375171045L461.1009255572775,970.3875541436596L460.87473311027077,969.9796391920945L459.7985323765866,969.4251680828081L459.79740457016675,969.4245869721415L459.2474284207283,969.1411947365762L457.57194357448617,969.3161702246239L455.1079700710616,969.5731792597101L453.0756931303358,970.7399725823907L452.7240008320151,970.9418517832571L447.9804857090322,973.6636320468028L446.9617835003877,973.9387669711452L443.862242767509,974.7754762269922L442.2852414797427,974.8630045116413L439.8115605593759,975L439.4346671249391,974.6370431923488L438.6800518771715,973.9102683966933L438.19374137891947,973.8607695108421L435.6128751920456,973.5978366201782L432.52712771623067,974.1239051809466L431.75645573104254,974.0309716356745L431.74866190230125,974.0300316103142L431.3499039085051,973.9819318519586L430.6170963274063,973.8935123466323L429.44910405464464,973.0091069211483L428.01181917533756,970.2486627229171L428.03243818027636,970.1848653653612L430.7959777133244,961.6304856407417L430.57185985771736,959.7764092271116L430.47392331909145,958.9660943223979L431.72676099346654,953.2220426600179L431.7303991300681,953.2053577770045L431.93761414756807,952.2550032530575L432.08341361445673,951.5862679215124L432.8186448565557,948.2133408069889L432.8817605085118,947.9237419658014L433.25848799165504,946.1950032841614L433.7086563667132,944.8076172602448L435.0989699517542,940.5215485118265L436.2315800968509,938.001347040197L437.6889136302173,934.7575953621841L438.5103353305015,932.9287683950142L438.5198635680413,932.9075524690641L438.56266633247617,932.8122456571889L439.37235117700317,931.2597465683502L441.733286580851,926.7313289938934L442.2125188683426,925.8118534603232L444.4853479741453,921.4498236097702L449.2933156947761,912.2153452939876L451.1155998092481,907.7301576144935L452.74482454551173,902.0603492753909L453.1036943838171,896.5553159523396L453.7510249550623,896.2547215835593L453.7043620965265,891.3248537644401L454.8264694513732,890.0465980085853L454.6751904222331,887.5186351207L454.4673674811114,884.0447285608965L453.2188799214381,882.3585912484612L452.37026604235973,881.2122908982759L450.6091093836357,878.3103709743398L449.25361175110373,877.3780167267095L449.25315766401627,877.3779046734733L446.05011952991254,876.5871658303379L446.0061052029219,876.576295236786L445.0616912282573,876.9378203085515L442.3079092615161,874.8884319301542L435.6292705049317,872.6733668353284L434.03551821465743,871.5744603516086L431.2770922185773,870.8325541323127L427.26896263889694,870.7090130305605L424.3656521678417,870.867496505827L420.6182014797924,871.0713065902121L420.473354817805,871.0547000133098L416.6934681391321,870.6208833874283L412.720945091621,870.1640132356024L412.0058645349683,870.0816707397103L411.18070729402757,869.7055756323502L411.5181929543867,867.7653780961144L412.82233449243967,866.5459464549637L412.87362115005396,865.6792992210324L412.70811417864286,864.3961097539604L411.994889537834,862.3568368178746L411.6194340963459,861.5932271696429L410.63290154222676,859.5864846055074L408.60271480942725,858.9914942080486L406.784515267318,859.2697084116337L405.24308520219824,861.5110964392054L404.82551052437555,861.5081420536426L404.0077664081427,861.5023260562132L400.59176821399,861.6231964840518L397.53810471354905,861.8909095460177L394.7691720868992,862.887095891763L392.2963595964165,863.158709823643L389.3970878824778,862.1910661274018L387.30912628991706,862.3597816915611L386.1251521660182,862.4553337856751L383.7107472607829,864.397298471605L382.0855722585279,867.5090879349912L381.13524772135446,871.3690976911266L379.1368865187833,872.2818500737903L378.1727311714694,874.4550030535893L376.15595751124386,872.2558635600426L373.69256733535053,871.213332361011L372.12071780623853,868.2214300655036L368.55516923036134,866.2100371497943L368.965734408402,864.2124688659896L368.98616582236974,864.113051728746L369.9253444835074,862.7638632936896L370.1956143035035,861.7179926773986L370.23123956295274,861.5801246764609L369.69262172480165,860.6759195770289L368.96793641817965,860.2636095432485L369.14306104808253,858.3148806997324L368.5630651054994,855.8225916819288L368.0329585474022,853.5441232898577L365.9053263001739,850.3275720866307L365.8863169200681,850.3100339911293L364.2323685880453,848.7839005097362L361.5307196586891,849.1204428410483L360.33756600661314,846.6071565394291L360.0767516861822,844.9487399524962L357.32243592657323,842.4055377518087L355.33096141412864,842.3329999138311L355.29152775234087,842.3315611603626L351.81492143922674,840.5385488041317L350.99906476307433,840.1176316214987L347.9213810024713,838.5292773332876L346.44470438622034,837.7668942854834L345.7219906228454,836.3422639981973L346.09272805705587,835.2089010588102L345.6637799063924,833.1829676372813L345.6499404327115,833.1477751728714L344.533901381224,830.3093544289782L343.39482902313875,828.9458510873947L343.4510350579682,827.555041407526L338.51687517946186,826.1691339579208L337.4218067841468,825.8613272872728L337.3131511814533,825.9234084136492L334.5293072707068,827.5136076147846L334.046802554511,827.7891537729913L333.1883535586877,830.4775196562332L332.2784653344364,830.7076386891861L329.5253391141857,828.6266762066535L327.5464852866735,826.0115643074639L324.16162897046905,823.1249393627038L323.7441676933072,822.0670824786255L322.8586795767748,819.8228334673822L322.07901475304106,817.8463397673744L320.7430648183465,814.4586489606286L320.73653252268804,814.3632110514322L320.5595726330435,811.7774121622683L320.548952604584,811.763814536496L319.9333644818315,810.975588054024L318.6749519489292,809.3640008215891L316.1846989043356,808.0082128576682L313.7121112705461,807.5074877079672L312.08306152404873,808.2799544164293L312.03963659039664,808.30054277656L311.6729619284704,809.9564927410806L311.4883230708886,810.7902471069988L310.55564487268583,811.4069848174606L309.12501159011975,810.7994086436768L307.8248581686871,807.115035757774L306.26277046591224,805.9854430345379L305.74273007010703,805.6093260862184L303.8144008886962,805.569019411266L301.5903792841284,804.0518994580398L300.78751518935053,802.6845865594812L300.30916407049267,801.8698277455867L300.090687204206,798.8545245813609L299.7206906205222,797.8768277497252L299.30435386209183,796.7765559104894L298.8780972853152,795.6499329949169L296.5735197346791,795.4081173773754L296.53806684666586,795.4043948187356L295.4454128851885,795.2896281859946L294.60824275322557,795.0248009866805L294.26843824641105,793.4962226182233L293.34305762886714,792.5722058961578L291.9760072822288,792.7852812992205L290.239566200985,792.2603002956425L289.05017204919136,790.7335616399168L285.88670191900843,786.4870570369796L283.3385443382789,780.9195773379902L281.639946596094,778.398772916983L279.15477153698623,771.9595960560271L276.843234862231,772.6346372903952L275.78518900976076,772.226302418647L273.5837303295348,771.1309428077041L272.1893678984519,770.110149226829L272.1483862840673,768.2967081644217L270.5491643760293,767.6731661566971L268.9648349887881,767.9108020047099L266.93828724786295,766.264148027421L266.15214476666404,763.8093951341134L257.6375408843334,763.1130704205632L255.7363203305478,759.1898127357056L255.34670532994448,755.5797027749261L255.96310453553258,748.9118857474225L256.67897403624573,746.5101385447688L259.85305517354857,745.7277522386842L259.91271613372066,743.367563904253L260.99146693724447,740.9260795643341L261.020102827423,737.1598391147531L261.00964288156905,735.2703554264124L260.76386124452307,733.7564866770215L259.59081000910834,733.1292433085864L258.8753181490495,731.5925963388701L259.3985898777715,730.5867615600255L261.353497434126,728.5690489120827L263.5118935008073,725.8837425678171L264.8507968599832,723.0683641134875L266.0152106510078,720.9181801537061L265.91745784831477,717.3566744202009L264.81904998102846,715.9336661969405L263.5011752096771,714.9314953429696L262.9038861680636,714.9850322268012L261.53606160305304,714.0680568479936L259.9009614858366,712.6457656800377L259.1813594449422,711.8226954136535L258.23400606484046,711.0352844496869L257.5373456255651,710.5101935265889L257.41429253583726,710.4559213721192L256.2080347013641,709.8010891595553L255.7768346829319,709.4858593986066L253.35771678980092,707.3957225683091L252.66512630888906,705.8809280972512L252.40903886578178,705.5370464652608L252.19254125396543,704.5521842629391L252.40053825809582,703.3918788592657L251.9589762889001,701.3592334706418L251.64996972951604,698.6369944466887Z"></path></svg>