<svg width="500" height="500"><path class="state" d="M473.4750501789823,246.32651606897915L473.9186969679484,246.07317173469156L474.50526130659773,245.9489712956851L475.3497824645122,245.5635952217435L475.816470525403,245.23495185216288L476.3201254815083,244.72483356543054L476.5553424537643,244.5901931663085L476.89262700833933,244.0290799823836L477.07179097999426,243.90277917320273L477.18370827524575,243.8955171515712L477.5521007898326,244.16731997200412L478.13874392619636,244.18883327589552L479.3741005069506,243.69007569461257L479.92042980001975,243.3496814892518L480.67716126184246,242.6117748769338L481.5217022182271,242.07432535469508L481.53784747716134,241.75637955280826L481.5321614961248,241.38572784331157L481.57594616144576,241.19938682952292L482.2046600202686,241.36391730602034L482.40171807782997,241.51132247054193L483.51088456224585,241.2995424891142L484.83373520139,240.75983669664993L485.1050328042986,239.7269266425044L485.2633183597709,237.7470757435081L485.4735881658072,236.5396725851914L485.67097911930654,234.78212055404194L485.87737829172386,233.1724905134812L486.05050803349513,230.71651997645952L486.20719052044586,228.7391266361671L486.45609535953537,226.6964418003307L486.3511600902259,225.8696206544926L486.24837246399113,225.17259355642886L486.2818912360499,224.02641456357932L486.5067599527775,223.1790289155216L486.6347998101024,222.21767034211885L486.4281807162582,219.1961077784175L486.1785091384453,217.66605644402432L485.728454437463,216.03107741551955L485.06511567961115,214.8960504412917L484.5399208972401,213.9950671702132L483.9151022274941,211.34238610695698L483.89508023836447,210.77290251103264L482.7458497905275,208.01979552694692L482.97310275041195,207.82680473255357L483.3400858472313,207.94034471205254L484.5264924507735,209.90868903989278L484.92612411077744,210.82518957158317L486.04668941719143,214.01903794236583L487.5,219.301201478314L487.49412623912923,220.30465067470627L487.4895587182671,222.12711906935724L487.3495589756619,226.99277357451084L486.9216274946623,232.8032375729494L486.418242617827,237.5493509420445L485.5320676381503,243.28116380647236L485.15494030689604,243.8343409433101L484.54473144558017,243.70455359446973L483.70335370774797,243.52227828563971L482.6391148352338,243.65311211467963L481.05254378051416,243.9974032950859L479.724047868253,244.5626529492341L477.7829401875555,245.46588587126112L474.84676913409186,246.84990469231042L473.76886812939256,247.2564491995028L473.32152647513226,247.42507402561785L472.70079376668707,247.64361626520207L471.6648779779605,248.24665865673433L469.0264541601498,249.7856134543348L465.26051894765385,252.10831412260018L463.6135741067121,253.1641416384247L462.6406334606485,254.05933114556672L461.6599586840605,254.83518083991942L460.71063376118303,255.8330919974554L460.1059515602584,256.2232084361289L459.9951231374188,255.99943089431795L460.05650169229114,255.76621229418282L460.67455613881793,254.71443950632482L461.13008824745,254.14952953191047L461.24227200005043,253.5835532101147L461.1374459708455,253.08476130336786L461.18646411288614,252.6457070960763L461.4480023946768,252.30879453323485L462.0051319572528,252.2066888820535L462.394542909729,252.40081664342785L463.0204864519933,252.2437972477739L464.6147969778032,251.13177786525264L465.31595166816453,250.61127838117088L466.1592339793059,250.02213372582045L468.9900788632972,248.41404003138695L470.06295418937793,248.04230878773782L470.39202039167344,247.90699639011012L470.98782439385116,247.57254480870486L471.40290975942855,247.18811840327777L471.78418217896,246.78714535949567L473.4478440061931,246.34207615009976ZM474.58843360856446,198.3822284792019L475.45693630337325,198.94470322679499L475.2920540363379,199.17773395571427L475.3813987150977,199.80290145190526L475.83992926437026,199.89318073950756L476.0918752448295,199.72651962234568L476.2763277088011,199.79260014594874L477.2940236638709,201.20741764209887L477.9812515877796,202.91758042620216L477.86340789540554,203.4965155754963L478.2865489152317,205.56044237917357L477.9918701345625,205.99936343612183L477.7913504852094,206.00377389884827L476.9721090609023,205.45163048305358L475.42273525704087,205.23173751450335L475.01586877069985,204.82180174603081L475.7714233855148,204.22236629591302L475.6428547621577,202.66413582880296L475.46625799264666,202.19820250606188L474.91268269425655,201.41029337321697L474.4528134949463,201.33818362589898L473.52031493707904,200.24283200641867L473.52936590736897,199.72425340853013L473.22538140293307,199.3596485203608L472.04247983912296,198.77208943130762L471.8259703741709,198.25928831084588L471.84013614303717,198.11291322259802L472.2744847656626,197.83200952450719L472.9583876171497,197.80848790309312L473.7162306477577,197.92132609785665L473.98561937550807,198.16290194585554ZM448.70138406669344,159.41417473435013L453.26295017029275,159.1498655750512L453.679905146476,159.1320492752055L457.2775705740237,158.91977204796717L457.3764859951067,158.91387390505312L457.4962774514215,158.90672654017942L457.527513757026,158.90486202763316L459.1306026368495,158.80216159610185L459.6824167431639,158.76887044928526L459.80735472541517,158.76131862002597L460.0312530196639,158.74777198533042L460.098927215262,158.7436741268868L460.5826611156133,158.7078337101495L460.6299053617679,158.7114682724859L460.69718476755975,158.7008767466744L460.97828687228093,158.68378187158797L461.00952031616424,158.68188080138214L461.2854667202722,158.66507059906212L461.3323165125031,158.66221403308384L461.9934131992528,158.6218260492028L462.72272237245386,161.86888496086374L464.1758791517212,166.8244692256485L465.2857790081433,170.99418478805464L466.7255694935991,175.28610035608241L468.1742418137827,179.03122331579152L468.22571313209176,179.16425312605725L469.00200267490914,180.72900705817432L470.32244311595696,183.93608062308334L471.5475845615932,186.5093012910983L472.83219645411975,188.78979335343823L475.0824967648246,192.37320817320324L480.43582532319704,202.29868751328897L481.5393960576374,204.91772853303354L482.36480608585913,206.48507563123695L482.711696087477,207.11802681218518L482.56284258979144,207.60358544953118L482.20329415310323,207.65573039159668L481.98891899612056,207.1666147931402L481.5526977579001,206.41276304215864L480.8421582858814,205.56036425022538L480.4116320660277,204.5547238395689L479.5073219756196,203.56336699676274L478.7571764968049,202.14823349415002L477.71694004007554,200.76955421369678L477.75698688439303,199.68163861049848L477.6951359629235,199.1500980223672L477.51240246029613,198.43577785202805L476.8575532375048,197.4174675368522L475.8220289244208,195.89942660396608L474.7419359479312,195.14341998715543L474.5327362966492,194.7094959552931L474.121662983439,194.16816447525713L471.7259031607266,193.719870806343L471.5150382648626,193.25152169344986L471.4989697866385,192.56429267416286L471.6875165247867,191.81242817082315L471.63897104264674,191.48864886798378L471.4041752343501,191.29721298452563L470.8627812344715,191.31453936042058L470.6576358976778,190.9319332737764L470.56628833772237,190.37013606999244L470.63022874785486,189.62649191085245L470.5815362777254,189.07926588352834L469.8388701863456,186.13475583879304L469.7850690675648,185.47659811905842L469.6537210550024,184.85755931036522L469.4163095710819,184.01706905918783L468.16842360765537,181.0169934964748L467.6954991062353,180.07769878668677L467.14900417308945,179.42807965825207L467.0884544523284,179.37289881264763L466.85648652044586,179.16144454946365L466.56543470025696,178.85002188642946L466.11849270889445,178.34558661564506L466.08980298361314,178.1070326399232L466.2349590889985,177.32542987281218L465.79975250277187,175.6702869927675L465.33326833019225,175.287365001687L464.75236487349184,175.28906922536814L464.5361388718825,175.1479335160949L464.10603822160044,174.4537654497165L464.2208943227105,172.9539072958439L464.67427581067835,172.23965887874928L464.65841331118236,171.7603192362621L464.3505255707629,170.69014011269323L463.9611529736834,170.19969966000812L463.73683647095004,170.14492894211165L463.48729896253593,169.68012051054197L463.411265079414,169.34183797840797L463.34226846014764,167.3229122737762L462.6239618921175,166.4070891486151L461.75126188291154,166.11765582234338L461.3162856894336,165.76713763495968L461.0767003445191,164.54785324093666L460.55241275392433,163.17469001947262L460.15366743116317,162.9590354107512L459.849659963474,162.94312236692923L459.6321469316573,162.9905503892154L459.28974642851966,163.25099902176822L459.119901676995,163.2162540594434L458.66521382358155,162.73690570858224L457.36597704927567,162.52673266685338L456.71703577853964,162.58836343232917L455.04852462874635,161.93455959030263L454.24834355758935,162.15906229627126L454.0311361012884,162.34925670068822L453.76383843224,162.78212415709027L453.66652036388973,163.56010163428033L454.36895404866823,165.07288698894817L454.82246538413517,165.77257887734726L455.28345597247994,166.10989520912443L456.03569290401606,166.39468614327947L456.5533299254828,166.4515555651555L457.5509564094724,167.57880645312179L458.67293726209107,167.4069234130356L458.8773124319479,167.1193029198256L459.0554520705303,166.81248371982116L459.27745974363364,166.73656578111067L459.5372794828178,166.9032296452695L460.05679023807687,169.26692616850377L460.0514748994303,169.64782446043301L459.76874499531624,170.66614482145522L459.8013644750837,171.05068951432875L460.1250897304263,171.5699533786308L460.25691132650377,171.6439546547316L461.4340691789438,173.70477615292467L461.90780828722046,175.38377347582758L462.2595195879642,175.9321097562805L462.7609741481868,176.02560062785489L463.1611617412642,175.8769528849635L463.4084309003125,176.1269357431794L463.3970548929725,177.0529879481282L463.1624643735098,177.9758907485652L463.3978399795234,179.06764469680945L463.7350300134507,179.8879956417428L464.27647972671,180.2498636374892L464.89155690847974,181.284534644682L464.7671727570828,181.70439560878793L464.9023599682091,182.7859347722062L465.81825756981993,183.95476615016162L465.94089661744147,184.7549364057248L466.4548642947592,185.31612323068754L467.2392624184607,186.8435379611294L467.8227814802828,188.79639655117205L467.74292626999153,189.4910002468091L467.4338308860835,189.44959584832804L465.44392034457906,188.26863464017015L464.7911336562327,187.69678347491038L463.6386587710603,186.1175097108148L463.6593827257684,185.19260366336255L463.71478294375675,184.0262737397197L462.60398415705924,182.2943111117887L461.05230676159726,180.73470518853586L460.31412806828666,178.69436489759556L458.8196708964452,177.88762646909686L458.32833831483913,178.06168139504177L458.0586020517256,178.15718797791158L458.4801697589081,178.5578657456888L459.19161939812955,180.17418010828527L458.72771363424613,181.79386403108256L459.82261528890746,182.84952647892894L460.86514776347883,183.32498732142403L461.53821575995005,183.83523562292623L460.7466256135705,183.83974675831598L460.50872390308325,183.93646700094467L459.74557868439194,183.856635874086L456.7498375905284,183.2158370232636L455.57432428360494,182.7438068322569L455.46444596079334,182.62295995521268L454.8796591640396,181.7622405504685L454.0751245133387,181.28143561204476L453.454145669809,180.07590852571846L451.9966172789468,179.58797528753271L449.1643746763358,176.500388147433L447.61387631735045,176.3756259015963L446.3668871808661,175.98011890832788L446.320523460244,176.32570653275653L446.2178197054111,177.0914618620385L447.1821687516277,178.04388188604744L448.33622930117474,178.10322989491294L450.2824630955611,181.23278378113147L452.2126856668433,182.08630814635734L453.11031640745665,184.266936593686L453.43866972509863,184.90599669083727L453.49487353233957,185.28485666949945L453.2554065940602,185.6583408231759L452.8776461784108,185.91461918204584L451.7969180384277,186.26328366119358L447.3025038707242,187.32511165846097L445.78382655750164,186.48944356911036L444.58905130376195,185.18714851817407L444.08707421971985,184.438125475262L443.4954259888775,184.16000939594716L443.1385091149691,183.58960359014634L442.34834206474324,183.2689609957281L442.11066711109515,183.32763654154476L442.0724832383538,183.3370756684143L441.93227240798274,183.60539845446965L442.6825764774925,184.4216112740657L443.5677700220973,185.02544029892988L444.6705466465721,186.99949160971332L446.6900820135237,188.41852321254453L445.4239897148641,189.2582670448302L444.249657988958,189.11660698845083L442.84276848916875,188.78091647171001L439.3318307040262,187.10878451369396L437.021144608555,186.91676278024764L435.8888975954069,185.34188703022988L432.9385706811159,183.58519828945975L432.6006372623731,183.77286947266344L432.5351273138168,184.1886860119298L436.95979686566625,188.08084974961315L438.507346367698,187.9600333824201L439.1444541910315,188.58680902790078L441.0836266089609,189.11660541823488L440.83613827806084,189.67984709058823L439.8388062047441,190.2487672192455L439.3992256155401,190.34091994630904L439.1130545972833,190.18427870730173L438.1712131173523,190.23411378351304L435.2631583402714,190.93609545217848L435.2212784248228,191.11180652074154L435.1718350343167,191.31892659914672L434.7951052200174,192.09472367130465L433.69060724450196,193.320590777231L433.2591752369488,193.5833248590617L432.9076055292094,194.32343838400863L432.89206757953855,194.5649286811817L431.19275398416767,195.06369391550658L430.0537950361563,195.92909916493846L428.29161048620983,195.74148851982414L427.45899682906526,195.78249248152235L426.80463556464815,196.05527506470108L426.5515026969901,195.99885220849862L426.0529157962401,195.47287435283098L425.2488679307685,194.37712400165069L424.62367868519414,194.09782392031315L423.76210236917507,194.10486349061324L422.63454843724674,194.36495136842953L421.3885956165494,193.86961667450203L418.7056161347795,187.1923562212256L418.657499630325,183.8290030233645L420.7579982797081,179.3346709507468L419.9177843397083,178.72480420670678L419.79037964200006,178.63230542239722L418.4828718629102,180.94345246554994L417.30334702666744,183.02528622000005L417.095727709258,187.29971398925926L418.86892536720114,192.4873365229537L421.1319178260442,196.70556829959406L421.3798651547802,197.24422101474596L421.1295874088646,197.8407088631422L420.6030178122137,198.48459392712945L420.38028454155767,199.07988400453434L420.55770913498446,199.89733577067432L420.85140409721726,200.31460135313284L420.8859806162143,200.36369797041692L421.86023205649985,200.9373051436518L422.19873184161816,201.02459080286815L422.7498984016768,200.89519900645377L425.33045166983794,200.6683606723995L425.54287373621025,200.45159921433907L426.42569439281743,200.2710746944685L429.5040602247585,199.98189363143405L430.59683105118347,199.54875886311908L431.1353354167023,199.17760495409507L432.3387181118794,198.7382893077726L433.00179868999345,198.08523709455784L436.2456679974931,197.00651491332087L436.70421648960064,197.2578693045268L437.14946090879744,197.78513006816593L437.20773233722383,198.36709085957818L438.1233975312223,199.49777756236256L438.2504109801824,199.65452159091637L439.44163794913464,199.52272210982278L440.6236610320959,199.2188784848592L442.92183682895137,197.4087695555426L445.9489408994797,196.24517076488797L447.90037428851497,195.79260035947593L452.2701598750291,195.56241125297217L452.83887076563235,195.73598736889562L453.9369561979861,195.46609973307676L456.0192470617776,196.79014688923323L456.55925271193087,197.44684925253162L456.5990943391645,197.65104121570982L456.38228534200226,199.17854228934593L456.7285563695608,200.0273383902908L455.6444717333353,202.1078849852069L454.4044290602409,204.56671745578004L455.25418786563114,207.57694003991486L455.7861396846969,213.35888081793942L456.44395284659845,215.12850659799014L456.1585030495562,216.57419455822696L456.1152127848105,216.7933055448735L456.0343234537455,217.20256407965618L456.39364358913076,217.69013038749216L456.94695594287595,217.7801526211472L457.7237261873417,216.4456453131405L457.7617907342817,216.38034213371844L458.76770118469636,209.89114973762406L458.4883819986064,205.4048809362184L458.74759318466334,201.4493383356818L459.35105684869893,201.27562621199485L459.53743771522994,201.12673234760152L460.24171745794456,199.8447758956032L460.93319805022054,199.2867233175942L461.15338582488266,199.23898885517156L461.2799005233328,199.02475627161235L461.2745291635848,198.4741706552486L460.65001295028395,197.82322022401237L460.33834676313654,197.73863741003424L460.1593912508532,197.5428229860152L460.1151928273496,197.2700775645569L460.5665232241114,196.89874081007255L462.57276492527836,195.98575995181335L463.6210703995614,195.81852906387292L464.6221662442402,195.7915790756371L465.18561464890865,195.89455712073L467.3907935093864,196.8593187657192L467.6342943082011,197.18840102242726L467.8950121742247,197.79186232880295L468.90356399344444,198.31401734762247L468.93376619044375,198.79423959361975L469.1692102540583,199.43375161308282L469.76642168370927,200.49831751450222L470.7515548417601,201.9518096483425L470.7242442417661,202.40150297914545L471.05298853710946,203.6211985945779L471.83104855096644,204.43328095457605L472.289657625295,205.48839768079407L472.3647966944883,206.226261894444L472.1376836796303,207.59605617505952L471.89166788901684,208.42163102187604L471.8625479744417,208.90212373389446L472.0848740545123,209.10884250057234L472.75341538234665,210.6863498583765L473.17095783512815,212.53810241785558L473.4053912878172,212.928258417018L473.56458716351153,213.54435313832022L473.5536369475782,213.83984465778204L472.1547360968837,215.3663590305514L472.1950566891874,216.46937019729756L472.53372212306397,217.55360028876223L472.96151775301627,218.15298287900916L472.97325197143914,218.33654817056444L472.113492111753,219.42368960453757L471.30541081520676,219.9174860331505L470.54552016730327,220.70302282284644L470.7481869490015,221.53843889627592L469.60372172546306,221.9424461563877L467.4957693066321,222.295251413184L466.6869923857772,221.82897940242756L466.236947703503,221.34051342192845L465.70867404064495,221.62878213271523L464.4085601778279,222.3377096235946L463.8368270250529,223.29456909565684L463.76278946751023,223.55730624703702L463.79853249833275,224.14527029341474L463.4110756720982,224.68527214232773L461.87123318738503,225.0365561607711L461.64519793545185,225.27147217282223L461.42348359623696,225.57989773041956L460.97424427356367,226.60304556902523L460.97070616078065,227.04601382885136L461.15122754053596,227.55186189095951L461.1023597147721,227.73929057188047L459.8520421369,228.44125928496513L459.43776083351327,229.05639420194905L459.54346411741375,229.82527290958896L459.40289097646246,230.49809117474322L458.81701859456365,231.2711188717914L458.7040559175299,231.9054739541179L458.8009288597628,232.52750179826964L458.64488373013626,232.94287973308593L458.33877761735715,233.3671710918377L458.10748395313374,233.52848580976612L457.45598761402624,233.19743248192796L456.75968151235963,233.12728519969755L456.27118883863193,233.52506467510275L456.0804135465937,233.86850350155706L456.1060764367423,234.31023403729105L456.2775493890981,234.66965116081187L456.37182136276533,235.25511775979137L455.9106823020648,236.13160936195547L454.6857329885588,236.8304129503963L453.10186162900237,237.58626488008093L452.5974898910521,237.72590287648714L452.0964553154158,238.456425473242L452.13405663779326,239.11940416984385L451.7817342225852,239.2872423767336L450.9319024772182,239.1874138308707L450.7391545169677,238.97649108741655L450.0013431236427,238.72231490154954L448.7392350279929,238.79275369934786L447.1278500319373,237.99517877314452L446.166493455332,238.0479783863165L445.9462526951847,238.42946025073687L445.5296410516692,238.52610165382285L444.62015612388814,238.42780126131163L443.38252700573673,237.8296923726381L442.17689665112005,237.82049592781024L441.7602179666783,237.91661396900602L441.49117861208083,238.52203980742618L441.01428968191817,238.6212609647681L440.16118285583633,238.44476224528265L439.657186592753,238.0279966879646L439.2326815122499,237.9764292741479L438.93221465047236,237.99218158753703L438.3582415112694,238.53937698668926L437.87360192661697,238.49075029892444L437.80201200374097,238.27278370058033L437.181985910397,237.93560602276136L436.5696988346289,237.7455922387662L436.27624893411996,236.72660491074691L435.5966519313678,236.3922092300385L435.23628503287614,236.410673198525L434.88720149627136,236.65013782664022L434.3766176074529,237.26707069936637L433.6557229058876,237.3036655923537L432.901396307437,236.6770281093163L430.6134800688282,234.87557133476375L427.8394457941778,228.55855280309328L433.672912940757,228.0875910520276L434.6234578441971,225.49080167351673L434.0024171534234,225.17663669560582L433.8137632255008,225.08114746354335L433.21894105480163,226.3740601875376L429.35024384718,227.17632558389403L426.9944751551102,226.66026252680496L425.2707654711552,228.5926638792581L427.1865626606184,231.74869004903945L428.5585361677789,236.52351655686334L427.17711449841715,236.59085101482225L421.49512492521075,234.23128623276634L418.8955478950047,234.8931656015009L414.9835618289905,233.16291579467733L408.98067942789237,231.74526408911126L404.50049607539023,229.2245537157792L404.4632709376541,229.20358251384087L404.4283020471958,230.51958409571338L404.4203520695439,230.81773369343463L407.73389097877146,234.11072086754416L407.76475890998086,234.14132613835872L411.7661536801686,234.2432729725807L424.20764733426654,239.45475512749186L427.2979907893367,239.86883725221736L427.51838743967744,239.8982292191806L428.3108931998366,240.08125210124572L430.1184714964937,240.0662994454755L430.4300586607918,240.27259060203457L433.03814150593774,240.58558443561702L434.02658109463243,241.0529311822044L434.63167187418696,242.27867823065307L434.93254577144774,243.4460821984607L434.9851896579157,244.47852579524528L434.50318572017784,245.6861617543265L434.20943373070963,245.84903317059386L433.87411993349156,246.38366559421158L433.8549216218154,247.1982853740823L433.70016083478095,247.72384994733596L433.17618762279574,248.12018051438258L432.3198669005518,249.12489181873946L431.5946499284838,250.3449758787208L431.43931138055825,250.8707201800826L431.6755374374435,251.9690409809948L431.70128169995985,252.48589102043394L431.220185460169,253.76826013773933L430.63805750601557,254.2412595467742L430.48231351795044,254.76724230350328L430.09576326793535,255.52675009583487L429.7476267786741,255.84004599564432L428.4969929091272,257.5305670041585L427.792688636592,258.0091547964214L427.3088258244187,258.032564158873L426.83913731415,258.3515401635319L426.4333916303446,258.7413875759415L417.9888275046344,264.8460561720098L409.28642410011065,259.73750822940434L407.93476724529637,258.94062549750595L407.6063210486337,259.9507385764787L408.3847935595578,262.59091394473205L412.0843289859034,264.9185525651779L413.04032599141226,265.51883481844874L415.54608016153156,266.2662219691932L420.1977134426553,267.6474309294721L424.23774053542064,264.7204463474655L426.88169175696055,262.7994991093233L429.40816234777367,262.52446847820755L430.5372428143071,262.02426573693L431.98344595362266,261.804385431478L433.9596205251116,261.26062926118L434.3079429267054,260.9466150423848L434.53143474267483,260.56472773077166L434.5358046545838,259.45301798746215L435.02033687742426,258.2429708103061L435.26255704895704,257.04537947288725L435.5529769967742,256.6860231620781L435.8359617182273,256.6013310391882L437.3887148366041,257.7386893218717L437.5908836674797,258.31349473858194L437.6906477967394,259.5024456922407L438.1352908580519,261.42309696863L439.217201858182,262.30377840087175L439.67495115301915,262.9826526302522L439.83296025992706,263.06810815175464L443.2746353422371,263.1671208397385L443.5621607850977,262.8002951985923L443.35241942609787,262.1087058433201L442.13812426354144,260.20600823238476L441.53218780708846,259.6292256634535L441.32243885582426,259.2890784077295L441.31009013719347,259.055577018334L441.96633628523534,259.13787819417547L443.8265199348714,259.85815040657394L445.204354212474,260.5099384264083L445.5052005292447,260.75126648145346L445.5164820056684,261.3128348980649L445.40724059932006,261.5110629719997L445.258212681225,261.6732608331252L445.15102379972825,262.0258385837233L445.17008377879273,262.71372686730433L445.5100381981309,263.16932255670406L446.3541531515998,263.65699686095087L446.4179433423657,264.1221914581083L446.31433594788786,265.0418441988853L445.9809334696657,265.2709297337084L444.60021018068164,267.1036653668046L444.1840836189498,267.946606591937L443.49126996443533,269.0154366427503L442.7780346333837,269.71004850810067L441.66281904421714,269.7223288274783L441.20166115645463,270.09843626165974L441.0845549000462,270.43294857277783L440.26472461788296,270.9450761788775L439.99600347300236,270.9591420642481L439.43051885309796,271.92687433064987L436.8412501363511,275.77236182231735L433.8428196079663,282.7401793768094L430.4507928813062,281.79477439152606L430.43442342501714,277.2379971986683L429.15950691797576,275.99710493830014L428.3136105685116,276.24251125444175L428.7571154945481,280.86888107577306L425.66134340624455,280.9612131714211L425.68878283361096,281.445141569574L434.0175359309354,284.69536489751204L441.0477928512081,274.04574198035374L441.58804216303383,273.4089472968763L442.1395160907241,272.91054258152536L443.2269481140853,271.63286417741284L444.15996581148113,270.3631993988005L446.66776420609665,267.8417012072795L448.73978930867383,265.838484376707L450.6938777596407,263.30031018640443L452.4643760113105,261.32631671770525L454.90286475357345,258.3298048195433L455.8429146580369,257.33901155038114L457.0009089175809,255.49247044180282L457.2628245961147,255.38365345277026L458.4357989175729,255.78343264586806L458.72231825539086,256.09437932846134L458.89165914733985,256.483787710292L457.00690957091786,258.4713481375069L453.7079273530215,261.47378001459333L448.845626185201,267.1822830726252L444.87197194793896,270.90936440331114L440.96753702075387,275.59111862770607L437.76060615959494,280.3930719055169L435.5719600868394,283.9753955846097L434.09091253795185,287.13010799998267L433.54129676672085,288.9338935313377L432.405127193018,287.1760350036487L432.44047058564183,286.36311950470423L432.6158802263193,286.1865487146937L432.6259857687562,285.20716101158484L430.94318825600817,284.3253193569352L428.7731692744283,283.6127357764576L427.4428497605403,283.3417797766177L426.3487532850122,282.8713516037268L425.5834392861341,282.40344861863645L424.63950548826915,282.4905401479191L422.824774177707,282.2991177771128L420.487682940068,282.39319965555L417.92545472655354,282.71947985911765L413.13892790827754,283.65163816220337L408.6165868619231,284.71700423560367L406.4222717964422,285.36614370296667L402.04349348077295,286.9870053570058L400.753961038729,287.4629556833964L398.9964392842126,288.252659770073L396.89440837322326,289.45726142596544L395.2070935436961,290.6803827951982L390.8956754752058,294.2756787187317L383.39186952548835,298.78885278018066L381.8504255687048,299.85064790012575L380.4566021432155,300.9307695843803L378.3780638336871,302.5391883805493L377.0269174783722,303.6894217335282L374.2301443265564,306.49044801292024L372.8087793771964,307.70615620281984L371.4530455353344,309.16727248904846L370.0742812985418,310.90341487347786L369.9364081377165,311.0507136631466L368.64846516894175,312.42622942274966L367.39027703917617,314.24735701910527L363.9661363599185,319.8540555655244L363.31452727216094,321.3243827899005L361.85411187365906,325.45163614897314L361.63711737633,325.69332032382454L361.4427432993599,326.2108040315838L359.54965411029417,332.660426003885L358.91106266322106,334.437349569827L358.420997184032,335.5559505389251L357.93746227947474,336.65877033465335L357.42506597424904,338.9668231706446L357.2836384415037,340.60047591269006L356.7212166999774,341.20045691024603L354.6991018490238,340.3045719349361L354.5174595190096,340.1289515515599L354.5374722956354,339.7010761529116L353.99313415882614,338.3511254531967L349.72706192649497,337.26830604978227L347.42500038725063,336.9097966224076L345.1708298008831,336.81840867991383L339.73808837682407,337.0544007841049L333.79585784629666,337.85623750257224L326.92305231636703,340.3929984209144L325.16534477293015,341.3781739507972L322.9614478507953,339.1576217061849L320.96986611050784,337.14748425417315L320.66564712828387,336.84862168176795L319.0462170182012,335.25642168839755L318.9735603615874,335.18493371406777L318.36443778697407,334.5854621026827L316.1170683979548,332.3007473123836L315.7065471323614,331.94499097821307L315.59114088195355,331.8103684966854L312.39974224109096,328.61968226132274L310.0511005497679,326.2662036966055L307.62566305831024,323.8310299488088L306.5516344692523,322.7510994008618L304.60476859884034,320.80897587448123L301.62768685361243,317.833164895729L299.8562493472382,316.05898890417916L295.6986486110326,311.8848190064383L291.7354328246282,307.88644239851396L291.2828108474456,307.4284540182884L289.129227202743,305.24908801421435L289.05781070659276,305.163902361655L288.6773761987977,304.79009707054246L287.745305660141,303.8367096622885L286.1635143379754,302.2171258061643L285.89667943637045,301.94369397131044L283.87699659050884,299.7692964706415L282.7874219888297,298.59476186791113L281.88168147637435,297.65512513973664L281.7941068646576,297.546117397029L281.4409545453789,297.176581047461L279.9696373016589,295.6227395719043L274.9802882049179,290.61365304308725L274.45182293071326,290.08446579413715L274.36754155668206,290.01166101934683L274.3438649498534,289.9913889520989L273.96578810446766,289.66735096614445L273.809304576931,289.5429642849657L273.39130718622374,289.0503183143259L272.8002914285257,288.442312753575L271.2368351342024,286.88514362008885L271.17041310745816,286.8184805240593L269.31950317161767,284.9603346681941L268.92787839180585,284.58684721497445L265.15174952511956,280.81737977587284L265.0093493744419,280.6729626780926L262.79418896890587,278.434735475351L262.1012561570941,278.42063469373153L261.986776030084,278.4173183779226L261.8379404780214,278.41405661620405L259.0656565837687,278.3514878638448L259.0218368042684,278.3488761681915L257.50999230077315,278.3203900632861L257.4678255579832,278.3215960277266L252.20698358437153,278.3146219132412L251.0829332494696,278.275850249242L249.12335527603642,278.207264523998L245.1734605109583,278.06004032827593L243.71525443248476,278.0044346847649L242.88662629370154,277.9699816006808L241.25382146411025,277.9075106643475L241.02025016051763,277.9058554267247L239.89381263428155,277.862813343197L239.8411539970571,277.8621207604198L238.09866567131726,277.79487151273554L236.57784025554628,277.73540151872726L232.76270945557405,277.58285533062553L232.5323058911231,277.5734739545897L229.84258240330382,277.4870453745057L228.70195011925608,277.44968229536244L227.85110708092185,277.4215425776144L226.24465593632883,277.3677492621522L223.54786323041432,277.27559756838997L222.61980359810502,277.23322367807975L222.54308752884313,277.2242578550563L222.48058662231847,277.22578722711864L222.1387794190658,277.20421770666553L221.6547112253117,277.18458136669966L220.90107697575692,277.1460691508871L220.7444155661719,277.1388100637939L218.92645811642143,277.08082551145924L218.90209263254133,277.0800082473941L218.57017216900027,277.06932510755706L218.13892006466517,277.03006533103604L214.7885004195114,276.94585792950903L214.78757974336264,276.94583827546364L211.56368381444236,276.8295810627515L211.30540678203766,276.8194945457888L211.30082514097825,276.8208434773817L210.2952147360647,276.7748994457444L210.18992151632432,276.7709113075793L208.16112129475403,276.703090159103L203.41230765458522,276.53896904698956L203.09183045319725,276.52755317622257L202.01816104870784,276.49446566424933L202.05460466111492,276.22559008938333L202.18056073257063,275.2966400996167L203.05051398615353,268.8690419818949L201.77740335535424,267.0494143408157L201.76056761247744,267.0255834804992L200.99103489994548,265.9218247707472L200.01326627597683,264.45049849976834L197.705300031599,260.9718748927418L196.5871496394087,259.4198744162259L196.58003791992473,259.4100003292904L195.10727379361592,257.3516698579983L193.84646968327525,258.28854896788704L192.40287428822978,259.23962034575936L189.25178007742247,261.3116909132443L188.81303588265376,260.6041736285771L188.516881598777,260.2742214851406L188.41627053167636,260.11893307821106L188.41704886014233,259.41056770883534L188.48534916339,258.5606350236704L188.78301515724746,257.9015023102994L188.89560244852328,257.73758844610774L189.0904530999694,257.6249164424601L189.58687419096,257.51304921869865L189.71966596532073,257.4140328943716L189.8431526989437,257.1580634084095L189.86504421326526,257.02810990765465L189.84355432992055,256.7829951225116L189.65879864823148,256.1979476208859L189.5473108739593,255.94801162736024L188.9407370001668,255.61734687235028L188.90875003678724,255.57650513875927L188.90288798366936,255.4721461093366L189.10519502703534,254.78679980583914L189.147489273079,254.69501380266905L189.2980614339151,254.51782232978735L189.35188492085868,254.48836834366165L189.38243444895352,254.4328196768154L189.34308149975845,254.3902560335576L187.5397361002573,254.19314432575436L185.82163803518523,254.00431684684239L185.73873909501208,253.99714098628743L184.2703676503694,253.87018105947737L178.8440606881748,253.3945704973869L178.71919559932627,253.38337133582579L177.24310586728575,253.26414009739938L176.09113497710734,253.1705558192455L174.08765084181576,253.00684035296948L172.01832386456334,252.8363052825934L172.01339040933465,252.83586678123265L167.78020257123973,252.47647325968637L167.41712694064125,252.44534338363627L166.93401574832993,252.4034551604291L165.21866296250835,252.25400054885566L165.17208217943855,252.25678130790124L162.44360002131538,252.02993004135917L160.48499369472103,251.86561478489025L158.70589560852773,251.70141438409902L157.0001571829521,251.54302296644397L155.17325841163253,251.3723135862321L153.27345459049934,251.19358068157527L152.08151314608557,251.10026657645727L150.49631453779472,250.9754671743989L150.26639682733745,250.95730103585248L148.6727417274548,250.83085787134763L145.68581865052062,250.56247478193245L144.79648604785686,250.48196215454172L142.05343138421023,250.26703918117366L139.71234169919586,250.04643894542258L137.9936274265699,249.88332899829982L135.94497799122576,249.72395043472264L133.2692688038643,249.51367666845977L130.6284387098991,249.22542204619506L129.08889997393047,249.1113429415136L128.59570618604718,249.08080832559386L128.1340662673088,249.0205746839L127.60113692515728,248.95465390866718L126.49241320338342,248.82687999081705L125.72767193286452,248.7407419931016L125.70638791050203,248.7383444161222L124.28568573349332,248.54394059399547L123.35692767859157,248.40172977712115L122.94876799823624,248.39466743942893L122.62605608804225,248.4604296932173L122.24348048719597,248.68016108815695L121.60316505582549,248.77538122659325L121.18366252232894,248.88005053492566L121.12817560708041,248.90420204205293L121.0111918935965,249.08370605994426L120.70667868020624,249.26977314424218L120.51621822486601,249.2422027876868L120.32725663630882,249.11964469705487L120.32273396464976,248.97031080617612L120.21049407198211,248.85823212576548L120.15910297556863,248.85447471431263L119.93457068398536,248.95132702846522L119.85409090087376,248.95235062486873L119.8214544356247,248.93364653085803L119.77257623979304,248.77822250094783L119.5978959010541,248.66335426156863L119.3002550057214,248.66453617477455L119.11457392434986,248.694792366919L118.682582116529,248.76521722955687L118.5825621065176,248.8383677315167L118.56086074636627,248.94503900251325L118.55864929427,249.062556285175L118.50946027630386,249.15796095298415L118.24737511715534,249.34005907688055L118.1224994897184,249.3530245658632L118.02211614196733,249.29816771381851L117.83730323651358,249.14176678739568L117.6901219299902,248.9721616363894L117.63563615251456,248.79276394814042L117.62539863147808,248.68439212862643L117.66573045883456,248.52968563944677L117.74967062461832,248.38224922197983L117.7812162988399,248.24182310578658L117.70056193436426,247.95955182941253L117.5450168695395,247.59779066439424L117.54162021876846,247.4070069132453L117.2149969347235,247.0701187671795L117.08147019750001,247.06249523807216L116.92540933150906,247.19811492276935L116.48430492861871,247.74969251776733L116.05077194312565,247.8572969245839L115.7047841176065,247.99340906281924L115.58424726960723,248.0868045410261L115.31161932063955,248.43545418697096L115.08663089556515,249.07286022657635L114.7135538267735,249.87160109108098L114.61871215287857,250.0685099772453L114.4024666482581,250.17867408216128L113.89642267232668,250.20543794735264L113.7774364255327,250.18424684422607L113.69802790154435,249.9337084921205L113.72002241435672,249.6961024243936L113.71547312856657,249.5599584935535L113.58462117434846,249.37272258448212L113.34667937847794,249.31240551500227L112.91020883502347,249.51952432727347L112.67825829506373,249.50767866836057L112.4762721271106,249.43946214599572L112.05159078691611,249.52715185063516L111.86335080243936,249.60259726589257L111.67032646022216,249.7748877825419L111.39629586918838,250.1154610299634L111.16122325837023,250.14435209211084L110.82424852020083,250.11118588169003L110.29092751334835,250.1112057210798L110.24293824917447,250.1357207624486L110.22145116193627,250.1599383182088L110.11222028761355,250.25912813082948L109.9864705721501,250.39650814322187L109.73577195079196,250.52089453283105L109.51460401376653,250.58304090758435L109.3757501689889,250.5752468955674L109.26770172339783,250.4839610224314L109.20412886086348,250.3649455451262L109.19285356128327,250.3251288078082L108.96782429009451,250.2435214375317L108.75090017381243,250.2313024179649L108.59467469630741,250.22249285108862L108.42681417276444,250.26622802904234L108.29121447678611,250.3544518426296L108.21762234961528,250.4247744385732L108.17462425583813,250.57196907314156L108.16788866777716,250.68822219533524L108.09422871757954,250.75860786621445L107.96106017244674,250.8042855829952L107.84488184589952,250.75055036871717L107.6857433493638,250.74607448289086L107.55010058746367,250.83427172944334L107.4716568580983,250.98953265341197L107.33237894422265,251.14140546723547L107.09533012263816,251.23462779546705L106.86939514044187,251.32346123979625L106.7407504504531,251.33997346603417L106.68134872138322,251.2964079860672L106.45888492147438,251.23167851685085L106.34411013227586,251.23921752107313L106.10002216404942,251.4838555742625L105.7886694060193,251.5498759926877L105.56713091104854,251.4510778108719L105.17264377931832,251.42821313579933L105.0226045933075,251.47260371340266L104.94359385492251,251.5144923998223L104.91168488714075,251.5671954145875L104.71346621424715,251.65003235800762L104.53967683101911,251.68183358547643L104.32710912147368,251.94642418463198L104.23218396155036,252.10753782888196L104.08619253668175,252.21424689971107L103.89470474098201,252.22437223190397L103.78409649663487,252.18607699789018L103.60063725507302,252.0587659777165L103.38869391106184,251.97221500162564L103.22136202739321,252.0155192249436L103.03262964864695,252.1125777476085L102.87918062460929,252.22900933346392L102.7556325909282,252.41279782364703L102.51225180769782,252.56831271018945L102.26446413048524,252.63744348221945L101.87591745588347,252.61602040138635L101.72518224689335,252.52225888823665L101.68814950707429,252.4140132914172L101.60172868249634,252.26037636793188L101.51463880759749,252.1173731868285L101.30155490891218,252.05181945952324L101.15328718049633,252.06431309356768L101.01862805843396,252.14124293341348L100.98361306439597,252.31858075592274L100.96275976253355,252.45123012595994L100.91231897159267,252.48139938081283L100.83802832691532,252.5550309778068L100.74408151595165,252.6767866134071L100.70382474007286,252.76995043599803L100.68956609560166,252.86458266858594L100.71729941449547,252.9829093308623L100.80991005593796,253.17938781124937L100.81848122303705,253.32848134137157L100.74656663313144,253.47118691184545L100.4418223844645,253.82624963288745L100.2378118258764,253.8990751356367L100.10930503525776,253.870256430808L99.95416970949364,253.85046565920572L99.77598693490799,253.9129943072645L99.32431670630692,254.12337474260192L99.04911601584331,254.08579203719452L98.89105092016021,254.00547136759934L98.6996329587769,254.00718051360232L98.58632600760316,254.14303937219051L98.55101178980254,254.2324086903844L98.53126535925279,254.41332943118164L98.45637010591147,254.50435995569586L98.17683545820466,254.73001102111493L98.03105807343371,254.93537451573567L97.84485143518077,254.9985137334154L97.59701592963526,254.9306022715557L97.43001040584201,254.96303163520815L97.33262423552577,255.13765971747682L97.31484644303268,255.28727687787733L97.14398678063552,255.52974262142044L96.94721395751691,255.62404084184908L96.58442668616021,255.59177546669L96.27363253333638,255.75107812484424L95.87426317527223,255.81481130643527L95.63776033929707,255.62420988105697L95.7233308754295,255.48265177609736L95.76208943642297,255.39323742045713L95.76913369001323,255.27691994436876L95.8186187748255,255.18314754062325L95.92324196064106,254.9778197759942L95.99741259250237,254.68806325359384L95.88297615122423,254.53441616478668L95.75705707541701,254.4663497693886L95.75377280764826,254.46002102121378L95.64211392419665,254.38635469900024L95.39348672228067,254.40923901003953L94.19152600767436,254.74972810862502L89.38324038825604,255.95055588166576L83.76960931972226,257.3130424449614L83.28780648263825,257.4372740072307L77.79800683770432,258.8471823043974L77.7883615572922,258.84673970488L73.38662438870827,258.6377950302216L66.24914786531843,258.38144201970033L57.62332076206084,257.9213160983459L54.04318708262704,257.7231521972746L50.23330102643766,257.4644163223516L50.21680699298122,257.82621760061505L43.23613858095868,257.2186571465329L38.867895160942595,256.9022351539374L33.20721223043381,256.4354752947391L33.19468751258381,256.43445945133186L29.495796593675834,256.1351571910305L28.641168868155148,256.0653342784839L28.178526318592077,256.0342776757003L22.832319902189568,255.57497747232756L22.826946380493382,255.57452322055798L12.5,254.62415821121613L13.656513906664657,248.750501935711L13.813738206209848,247.8481984659267L13.82355381528214,247.82186460309669L14.181665531008548,245.9704250008631L14.808108357916183,243.005907479551L15.041880843846684,242.0387411809618L15.336431134278826,240.46636266311467L15.555604570397293,239.23977213996307L15.583576654321348,239.30121467165526L15.669981215239602,239.32253191726494L15.936518218943093,239.20674255066402L15.98134072125896,239.12495097495542L16.400066028514402,238.70657435747512L17.247297191824828,238.31219395315543L17.41059915639363,238.04294514690116L17.691074346824905,237.8497560380461L18.2355281134669,237.6529499453687L18.39639842156987,237.53504624907927L18.89929218892854,236.94582810042306L19.130383251148146,236.76147590585788L19.356089355425752,236.70184263357388L19.7450773311985,236.80778154571075L19.974721292970116,236.9527045339937L20.27533699399396,237.40015737954147L20.27816601098573,237.49265453344168L20.39433609423844,237.6678188474595L20.411597661615247,238.19603913225353L20.479707352467074,238.4061761505344L20.52753516988014,238.4761779423393L20.892867091832784,238.54699088496227L21.07858356724995,238.76717698117426L21.611586958972225,238.76654979193722L21.701228497019144,238.6621561306033L22.07285345498508,238.46975025261023L22.169039266515824,238.47787247901985L22.546318035909223,238.66153353288541L22.596635079831174,238.63944840978166L22.68790521298513,238.5153995622822L22.88360173665893,238.49247557647215L23.5372875681864,238.52159313423343L23.71557826296123,238.58274511145345L23.884173204822048,238.6892622923269L24.04459970913115,238.77537630600645L24.18869603828233,238.80830554815958L24.280215371038537,238.79527343789474L24.368441523849157,238.7542831004664L24.406572242559577,238.62128811320932L24.486701769562245,238.4369465878474L24.526582994063688,238.41072298120918L24.73224799206858,238.3744220481314L25.044818500556858,238.4143197402695L25.053455637243616,238.45939386564305L25.08356688189272,238.50700017454182L25.141795115695317,238.5184889927194L25.409177647663853,238.45208009739656L25.68462015726911,238.57728662725012L25.727185098874287,238.62474559901588L25.97763359146785,238.69405732494678L26.274837083395596,238.5477046593394L26.81063727567536,238.12464562867748L26.825824319261756,238.00731731997863L26.928813553916086,237.86675734808782L27.28206140585627,237.7621107308999L27.50442187729223,237.74112589346325L27.888834207113547,237.58209084568927L28.32435175740892,237.5194927539907L28.499730861231342,237.41547995434996L29.07416513287842,236.909714119686L29.48775874115765,236.26551143517125L29.875133723596292,236.06747557588324L29.942486127344893,236.03306067620852L30.19361122962465,235.85620849781932L30.335943687701274,235.49914304330358L30.10634989731247,234.95994703021495L29.994869201259746,234.87830355251205L29.667276932105466,234.74586344937993L29.634787008672987,234.6839100915829L29.671969991996406,234.3643249347643L29.87445072860774,233.88492396714628L29.88254970795333,233.8057923275688L29.90650504615286,233.67259983820404L30.012804074904665,233.55628788461797L30.082521165664758,233.38336116299485L29.99894248785793,233.1630784587935L29.939371369443876,233.1313599429199L29.700258133595156,232.35332522700438L29.739606078022064,232.25869370898388L29.859627324697783,232.20391309349085L30.440717527232607,232.05028935162963L30.511769145645275,232.03502140655564L30.70373855132098,231.83455504613872L30.76792299035307,231.70385747428958L31.013556104046188,231.37531475620443L31.451766263154326,230.96428289771612L31.452145161567444,230.48902918225406L31.392627309708843,230.23406726998314L31.327159501823076,230.11681279835045L31.36880995039064,230.00178998483807L31.51550583226188,229.78354121038763L31.5192667907518,229.737789150795L31.24470525707318,229.2282892082796L31.18987012937464,229.17771741681926L31.03860884498556,229.12578297980886L31.005087396110383,229.07696372107785L30.884958974748002,228.77756445520845L30.887738335695076,228.5649527738154L30.961996726138864,228.41152943380854L31.13037216998009,228.3372427421507L31.289124254828806,228.29768213541496L31.467225578744973,228.08865822039257L31.8375728960649,227.75728344052337L32.00923021718393,227.66185099778863L32.148262349770874,227.49874408045272L32.18864904994544,227.44029024258904L32.27147177693837,227.14147983419292L32.36912627403083,226.95380520768276L32.60781108222179,226.6902768177276L33.12759774133545,226.4509826875274L33.420084414980266,226.1151346637393L33.704238621165956,226.06591576881576L33.7176769418422,225.82625562763283L33.823494929787785,225.6663399062759L33.90990167043486,225.65378650980597L34.07692441501035,225.7004044809736L34.155295054091994,225.67666815477008L34.38081697219934,225.42561170354807L34.41698353358146,225.20879949944256L34.42165881676925,225.15000122710984L34.423970166189974,225.1235590388247L34.5962831429149,225.13309799531072L34.720230314905365,225.1928132771607L34.84008812132328,225.38803996926472L34.84375927581863,225.3876804858157L35.02874643703001,225.36856742971804L35.39012733914234,225.14011375088998L35.4449698411336,225.00187698098975L35.74182668144746,224.7460160787305L36.138272647977146,224.65847255445857L36.39908411227219,224.6431058963741L36.67994638295053,224.69974570380666L36.82821668736659,224.69558464536902L37.108385281150134,224.5593021946389L37.261156101093974,224.32926691342277L37.35090275633462,224.02862738327826L37.50450452493456,223.7344450445668L37.732050259289736,223.62348589579443L37.8061222921132,223.49343072846997L37.819204436394784,223.4224390514367L37.76093432960468,223.34631338798397L37.76878770045377,223.26313802795985L38.10032839485015,222.94038864967598L38.24259402595155,222.92648503679266L38.2978463844384,222.87596472661573L38.763636480450344,222.2780387818978L38.87705532303414,221.99610957105673L39.017496693268384,221.90461791499527L39.42562838967106,221.7794785125415L39.75481487915849,221.82115374193683L40.13980666427244,221.78995312181908L40.4207235699557,221.8643183104616L40.69818575880015,222.0046205351281L41.15117754361515,221.8893161213387L41.60927971700906,221.71488735009365L41.846098117283645,221.7410167845955L41.939534289350576,221.80253448853088L42.83265642022485,221.18423975357172L42.90111385067618,221.05132371640394L43.26125735891796,220.73976093997902L44.120436276563794,220.43841018276495L44.4911829615813,220.25803213609788L44.901025687515926,219.82508502457742L44.99672411185105,219.52692461606745L45.372439431567614,219.59427966750525L45.63916329376946,219.5523640735672L45.79127640867418,219.49114808296616L46.15180749826192,219.68057184903643L46.9290679301684,219.457745921869L47.06199568741616,219.619469844649L47.55949269499877,219.74160126051012L47.708818785360535,219.65636603535248L48.456503651217076,219.3732867839324L48.63428424609569,219.39067778268293L48.72284506846012,219.4527688242593L48.79904296040641,219.4594664866253L48.953314917850776,219.42328569683704L49.68193467720505,219.4464589858735L50.10792135696806,219.38433866486275L50.26999517834051,219.48304800460394L50.634314274980284,219.48353146174966L50.80912544463385,219.51330760244252L50.91242585778903,219.58229644057982L51.07631109655554,219.52881153466626L51.32539248946483,219.60694602918568L51.720905716265065,219.80003898839047L51.98681296704035,219.80374035311198L52.16798040890987,219.7503859025138L52.2449767892885,219.6857402355133L52.43404572443171,219.63933837136915L52.5674831179785,219.7284700359558L53.363623926729815,219.38542679979162L53.731324851235115,219.05683120772483L53.94759974265892,219.0803435858113L54.098919947166706,219.16469930531494L54.475704831820394,219.54196185815843L54.78889044924637,219.95600611923356L54.811017271587446,220.15111260309376L54.88811146619338,220.22752706350659L55.077573587766864,220.2585404904383L55.38448531066939,220.1937495432522L55.60006587120674,220.11136530657402L55.93884504702672,220.10536477488884L56.29565688217443,220.2104558046147L56.670501161317276,220.26778768995416L57.27953493188096,220.22378756117195L57.62820519235831,220.31741388833547L58.36052166273407,220.30999410652822L58.50175367029064,220.49969588738907L59.52392028488208,220.5673703341097L59.89778564863619,220.3395197654452L60.22928830548196,220.27590969012203L60.53020641877205,219.74441279807513L60.65363803606871,219.58473372482632L60.62839056090189,219.3490503318303L60.64349400314296,219.31391088736441L60.84772095264836,219.23298155556446L60.9986390669269,219.1272927921571L61.01169365597758,218.95933434865614L61.08663698772992,218.88738221787563L61.55864079095693,218.7709034992745L61.95372554943589,218.44209463029418L62.15145679990391,218.13654244183132L62.45959154180244,217.7816678291043L62.5452453363763,217.58183450808193L62.78937543028567,217.60364010111144L63.25329326463134,217.75504226433395L63.82828046683457,217.7146305528105L63.86268654681879,217.69019055834798L63.902976650684366,217.57029037287592L64.37124311325624,217.37722584301244L64.69384043035947,217.18603169388143L64.83135736883159,217.12183277095687L65.20638594602292,217.0562601343879L65.42833226559623,216.9162272360669L65.67696366403675,216.4577472424118L65.67631792216523,216.37686559591128L66.13097958924425,216.3356234389512L66.25029543739672,216.3578038436894L66.32383111232812,216.22248113755188L66.4975015760186,216.0840885686863L66.58083329830404,216.065389891684L66.67148306200886,216.1443737332255L66.78856710164644,216.1527935468656L66.8557773848126,216.12303922077692L67.35845416194311,215.5977006796787L67.4775464257767,215.42622481195036L67.53251542142763,215.27797541563012L67.534061671453,215.12760033964435L67.64055981980249,214.94842104759203L67.76903206384895,214.8013593067334L67.89584971155813,214.74496143199337L67.99979480506462,214.7772062471062L68.51970635526487,214.64321849483204L68.6748198757621,214.49688492823503L69.3978699085481,214.72174650850997L69.55002586658509,214.98163371977574L69.80389492945665,215.2752522419185L69.92251361277454,215.30694553034593L70.36536465651017,215.23206165051658L70.64484783231197,215.14091050467334L70.84821680296068,214.88158914159456L71.00976987435129,214.5509571855356L71.05555251427441,214.1929563995726L71.1444578992855,214.07641861268846L71.58281090115804,213.89083405808495L71.89239701511045,213.8033208968485L72.11893944264915,213.68696280255296L72.24800783240272,213.43835554545623L72.4636480675689,213.31342529680455L72.69031840707419,213.2221599013781L72.86888109234079,213.05354113024185L73.02032390075001,212.79270028359832L73.07034616419577,212.4399864328213L73.02922405706903,212.2753484108591L73.09643621914785,212.07443378447994L73.15364077062421,211.92220209660945L73.15327695195725,211.7331065974112L73.11159102558153,211.55900652740124L73.12453590133094,211.47755856611198L73.35846316854867,211.25200006190855L73.78048363127809,211.10940450207292L73.85793757720776,211.04227885851807L73.94937949460308,210.84389835962872L74.40335362013167,210.9183477832877L74.90220702976575,210.94977325235803L75.04441419323788,210.92911555626017L75.20001896520236,210.9953609502956L75.32505163497862,211.09026079117433L75.90379844973896,210.99068087373968L76.09045531982613,211.08343429272472L76.18964539672123,211.07947078724408L76.73285683723535,210.83411422991142L76.87547309858576,210.83771626593216L77.09016476855962,210.4850421890123L77.17185848936035,210.26837631781217L77.37068067513093,209.95206576993075L77.67795549159254,209.8374234956591L77.76821471119308,209.83503968533714L78.09156779981492,209.29904127397282L78.0746669320493,209.03043039075123L78.1076263874015,208.94975526519096L78.30098139451749,208.7400845884358L78.43093767898395,208.64861716296767L78.6996757048253,208.70671819284067L79.01731074529181,208.72698223533664L79.0796745705835,208.67683386232838L80.11210807329377,208.55111922724151L80.50227823868991,208.69882688913486L80.86460698586228,208.46228698030424L81.03546054668661,208.42760636430927L81.34744943302326,208.28006317735984L81.36237703330684,208.23191544183476L81.48581104011657,208.1849726648084L81.59485133494309,208.21352677914686L81.59002495638282,208.2093431276673L81.59536078196635,208.21225017363375L81.76141466835543,208.13790850569708L82.38329830826356,207.68361271987982L82.43750860551486,207.54522783670416L82.79572570686244,207.32783121213475L83.0468103345313,207.3086605661666L83.1352281780531,207.42619715565576L83.5643953276273,207.5634635288149L83.69553368675281,207.56344913882728L83.86934079857409,207.4787037237337L84.17451283113726,207.41299057205396L84.3861002859735,207.54741771888712L84.4958577410905,207.6759310147564L84.6100653108956,207.7164998739544L84.68661917147861,207.71754438644436L84.85941147311874,207.63902928398218L85.03672763649064,207.60940004600337L86.26582360848764,208.18581557682975L86.5938232409064,208.2995542291568L86.81745590341109,208.61865934268394L87.1149518885561,208.6786331915937L87.31686744487536,208.63786371797178L87.76163944783826,208.4002548454416L88.0748489896371,208.11895930380953L88.30132480110728,207.85962592448502L88.56804934797017,207.6884523860882L88.86356081081317,207.6864938115578L88.9385255077886,207.56858936330536L88.97464584742235,207.51181027083118L88.95082468733631,207.3550150371795L89.03220859476747,207.00883489188925L89.1906831262232,206.83344028215808L89.35884354312674,206.54609078774584L89.3867069088003,206.42160756147345L89.61009334027239,206.01794016455727L89.98939125396464,205.48678393093837L90.08250815188927,205.4287703330268L90.42745123857603,205.34043216689952L90.67335418899341,204.98964039164593L90.75947225705187,204.7701253521257L90.99542126163058,204.63866776757766L91.22083023252765,204.6078688799323L91.39908262675351,204.46254656600135L91.46831309707511,204.25827116911069L91.39516537476578,203.84640281437498L91.5183914160339,203.23561104772438L91.58863193218187,203.0139589645291L91.69558655232788,202.88159330053796L92.5224340180896,202.50853975842224L92.61422686549153,202.38279933508522L92.65421419787137,202.19408064097294L92.63583897454484,202.0365371013516L92.57543221431325,201.87630725736662L92.43409720483427,201.6589376109253L92.45679831334485,201.5213098040751L92.56577867078178,201.35426431315736L92.5765889691815,201.18115615332138L92.45065245178819,200.90627502961758L92.36764441229334,200.22158860281107L92.14655947398944,199.72927789626286L92.16075593325351,199.27834397684302L92.20611135167948,199.00318319983583L92.25249304346119,198.93662090923033L92.47780736969844,198.9333161720873L92.63737730510573,198.85642448149238L92.69881018168684,198.77339918856515L92.74734147592923,198.67217019936322L92.7656577322586,198.26342110717286L92.9648386614356,197.79273470408887L92.96489546479182,197.7926728485193L93.04512737063465,197.82887109858254L93.2735441010073,197.80661065893827L93.7499863044844,197.57400032949988L94.27958313244653,197.37757821707095L94.46092666583894,197.43510317468002L94.52642867787313,197.5323410319715L94.96688397278356,197.76456375930331L95.404426906987,197.6830413749257L95.5418080131364,197.77761919497692L95.9706613348146,198.19967744780777L96.03117306601203,198.30508363742254L96.36533539602547,198.66387439099563L96.5237797336116,198.80574714355916L96.58582310735662,198.81215774734716L96.72540791562474,199.0306982432015L96.88016133791777,199.51041635608235L96.91482423420933,199.55779429076213L97.2257869235842,199.43632614231655L97.50412259053348,199.2691546105434L97.61293075062684,199.2469941112206L97.82587346531474,199.26470790467567L97.94424539071707,199.151224749106L97.95514887682344,199.078897204201L97.81728106587241,198.73129285175526L97.80232100775555,198.62626914753943L97.82343764315024,198.5601918111162L98.1339353458165,198.1724707584198L98.8493937468948,197.69212355791467L98.99712320160012,197.2388952319585L99.00139720361545,197.02345445299372L99.05004066540806,196.93649092924196L99.13077990426973,196.8709477614355L99.41959216622706,196.76217511968386L99.58950542247857,196.44120290607833L99.51638282038223,196.31206480398134L99.40443821536647,196.24609297510546L99.31346314756806,196.26852548623913L99.23569171002728,196.25095768533174L99.05077805648784,196.0284465569896L99.10595193774506,195.3694475306898L99.43328703576174,195.0895530328974L99.49347973551028,194.79970103198303L99.56939012459816,194.68597002439103L99.64200001807168,194.60589669795L100.2137036359824,194.4507171925467L100.54502216924325,194.39215215968304L100.79302341972758,194.40039525905678L101.03144058959336,194.30354270655022L102.03512472053688,193.6052678502992L102.2492785534331,193.55917159616817L102.39559140190812,193.5874540032638L102.8925907398316,193.31629688423482L102.92976706027625,193.2238137481969L102.92943982173247,193.0505749545048L102.95704689701518,192.9411291987863L103.36827165731592,192.86740186885422L103.60351504632769,192.73099101724398L103.72175366168608,192.6072813717883L104.38014830247147,192.37156373158967L104.56685581560379,192.16038246708587L104.62041142321786,191.96753265183284L104.6877735500903,191.89961693706246L105.26209965733625,191.6522236084196L105.51370886381326,191.5035892162498L105.82167124308387,191.38434607583207L106.11288820775763,191.29473736803848L106.23943525620524,191.32893150011915L106.49012695175747,191.2402669644615L106.85630359965873,190.9348826880249L107.20436724085238,190.7590517943725L107.4618317942836,190.78043475564544L107.65356036077941,191.02661087211453L108.14165624007055,191.44657115390464L108.20824401096445,191.57449841026002L108.154926045048,191.76739917569404L108.1339667015815,192.0405499786513L108.373942108003,192.09344328475288L108.57366262939823,192.20286997396647L108.74340141539042,192.46735148485072L108.91204795908291,192.55361959378519L109.01554972818036,192.71703593359024L109.1064302405336,192.9351965875639L109.23529229206332,193.0916314943929L109.29549375147269,193.2441509619598L109.24784433697423,193.47572186088587L108.991710757091,193.73800520075852L108.75512983512755,193.95886053433335L108.31350165567375,194.71646766404143L108.2025201934357,194.80812829558135L108.17169233089663,194.88477909304498L108.12285213666885,195.09109820664142L108.20649084760251,195.50800898878336L108.22692567239986,195.54264195652345L108.52032153745301,195.64558183850653L108.64482601177721,195.9697484665415L108.50228471567635,196.14937266638358L108.24644175861718,196.78861655694314L108.19734663065987,196.98347333685246L108.2199775648603,197.24683478918405L108.37976197471949,197.34658872838764L108.76433852157547,197.45990008892198L109.05760581420827,197.4295015738306L109.21350173919146,197.37053113379363L109.78917671700717,197.4573927120404L109.9573409870753,197.55590300227664L109.99399044841562,197.88098392718166L110.07031513948118,197.94225043634208L110.46429574542898,198.14969019327438L110.96617195992579,198.28595487000584L111.23783190604314,197.8615526968972L111.43633422568124,197.63424724025808L111.83067263119332,197.41328714955804L112.00300063462592,197.34967231864258L112.24366026794209,197.3126850735685L112.43508893210918,197.17298665842583L112.89260990024081,197.1169496351767L113.00463580520054,197.04495342498893L113.2317570681765,196.9709925355316L113.43349565798721,197.0014237684012L113.73164551338346,196.89960736076944L113.82118269465658,196.89117324217233L114.11181666923218,196.58826040225063L114.81662260750406,196.03926871524945L114.81900767110932,196.0343682162597L114.96743578114453,195.96314499601556L115.02442897942782,195.89982301685558L115.04195539302634,195.74277707931014L115.11103964944655,195.64601055919564L115.54625022747129,195.52061048223888L116.07672400651805,195.1314853581988L116.28688143763492,195.05796777946784L118.83275266934564,190.9536596777248L119.24959566441422,190.28061570266578L119.5273317961759,190.02130019580352L120.32249439926747,189.45667418971595L120.8305120368631,189.32706417252234L120.93204223188434,189.10398289655302L121.11002424619267,188.93066120927313L121.332282876553,188.89160597381724L121.58996267050642,188.82288233672364L121.89713332716482,188.64565713447138L121.93010913571689,188.582452659791L122.2172873231701,188.33652628309L122.49585097942983,188.25330172544193L122.57251889087428,188.33435584794336L122.65234342841015,188.38555026696983L123.18245466801011,188.43296818308866L123.42424653492836,188.3133981566784L123.5895534322384,188.28993423066294L123.80687724035928,188.17493194158055L124.00316102484098,188.17290474899806L124.18085834222208,188.09347004297473L124.69932452972566,187.75495741595486L124.77968054912205,187.62860613378533L125.0204298123175,187.45836396761237L125.30118244916437,187.32933207846372L125.73959640139498,187.20841466679138L125.79115171686587,187.23065038224217L126.19487235584711,187.68214058197702L126.2832387711444,187.70626139514695L126.52807182143891,187.66010169587102L126.68503417275869,187.7856184493235L126.79900362846357,187.8286564532677L126.96178968655892,187.79953124743795L127.09290584846184,187.6433519507569L127.26263582440885,187.41710089548053L127.47540165281578,187.41392987758397L127.63585663807646,187.43613885154636L127.70447819715969,187.5375176200243L127.9277533506737,187.6366488587275L128.0949392582205,187.5203756903726L128.15825412554165,187.42348991832918L128.26212082290886,187.24605175492815L128.4695562086096,187.1209763608619L128.54147162074682,187.07652960866653L128.59337697454708,187.0255221555688L128.63189929570774,186.96404937410833L128.99064179601686,186.66234187531703L129.18234063728463,186.45090066638417L129.28309099621603,186.14535944259862L129.35210766320233,186.0092877761633L129.54432758075308,185.95888208300747L129.79014958805817,185.88773793239898L129.92647909914595,185.90110885364317L130.25529335738145,186.0444872579663L130.40922306189296,186.18945832936416L130.53647145551398,186.34261506509438L130.73268898079843,186.5285722519779L130.90746923307026,186.61558487701703L131.11993216219344,186.6866526627829L131.27484789777827,186.85564708179018L131.32942476299166,186.92360678721684L131.3850271566195,186.97204304843567L131.5775153542997,187.00887650454376L131.7502399367285,186.97999355124927L131.84745369511975,186.8905973112478L131.94034716216055,186.82342941842865L132.09340562991974,186.81795562060006L132.53288430375957,186.84396840736886L132.79727556133844,186.75476024205966L133.22219871437403,186.68424567649595L133.40504763583047,187.03900286820317L133.55299999013258,187.56822490154823L133.75550273239278,188.06092562772966L133.73932189255672,188.3929327139454L133.65104262724822,188.65884557738872L133.99461354255516,189.53441837508785L134.17238385737977,189.67362048914782L134.79910085622882,189.69097945297338L135.1282051234452,189.53724142020297L135.3257331466436,189.48799572473325L135.51965570211235,189.62136824791065L135.68116595181365,189.6617950054125L136.34501552681178,189.67409516192956L136.64081244564028,189.70733877219263L136.6492048128732,189.70826295662064L136.67274334849674,189.65717932971683L137.35272808708172,189.3307345682515L137.66122999495354,189.27357651323177L137.96351039035446,188.7919915404783L137.97340230921213,188.58365001179152L138.08227899678295,188.39958767686062L138.61439930286636,188.51613770575867L138.91672665040363,188.81093129419534L139.1670279840389,188.8684027206264L139.4104289686067,188.62536722737835L139.55162444327587,188.31227655989417L139.53890644890862,188.2464314263328L143.3295467626121,182.0367922563437L144.52471336201467,180.27042497110045L144.86024793562203,179.7112483450461L145.70559931393558,178.30101280156615L146.27188572505165,177.35556960409957L146.83443609571077,177.02683116519972L146.99775207110275,177.05125022715882L147.38735920104787,176.93767220937409L147.81234926291927,176.65860903436658L147.98661200240787,176.51600027291883L148.09226111241662,176.31778973412185L148.70978367242648,175.62740518918358L149.02735117322308,175.3432421720233L149.372477664927,175.18171404199757L149.6555267621036,175.0078654533962L149.89270906813852,174.8254174875282L150.32632406553688,174.58268459464452L150.89106084565074,174.51083528479958L151.39929368271115,174.38650424291916L151.65118371325482,174.19845468553083L152.05177099304325,173.95837851627095L152.34123993237137,173.98537661783013L152.51027676577053,174.19131719485972L152.59056161319074,174.39352510119363L152.7240968062763,174.59794523695956L152.89878141327995,174.67168236609137L153.04315840823875,174.679007672936L153.21461473431776,174.77342467584035L153.67096591393738,175.13633618841692L153.81454166886635,175.30683253646254L154.010823836592,175.29306061062962L154.0977627461134,175.34088201638446L154.2379548105036,175.39094815260447L154.42216674066896,175.4284067147733L154.76745041566136,175.4226157417653L154.94563380546606,175.4026171261529L155.21088529571028,175.28487105950538L155.45471045094854,175.2212295736855L155.66096437868876,175.21056659158515L155.92251487182557,175.275052836434L156.17563540890245,175.39750786938728L156.36945054263555,175.5667756472671L156.5729404186505,175.70941098637354L156.8772154957254,175.65277483493287L156.96321815643296,175.43982014472886L157.0071443721912,175.22311551336753L156.88813803878529,174.94766942310474L156.5784655283908,174.7159032924968L156.3504048027148,174.6401713946116L156.19796523143873,174.4572099004796L156.1315155939614,174.34403068967535L156.0883635187078,174.09940081139044L156.07703711388223,173.9443783382092L156.0862042399109,173.72394020169656L155.9921517480579,173.4205776502708L155.7395086134283,173.07357509560856L155.65786257106882,172.91134173911092L155.70253011801682,172.69241616763492L155.7866455546615,172.49746732355112L155.84876494746527,172.16876449216505L155.81973371823716,172.01304297731244L155.7710871026589,171.90063248078164L155.65393432296617,171.7351850668341L155.44794562940197,171.55606482405318L155.3712441206328,171.2659217213648L155.38507443556432,170.93545659533768L155.4670277158246,170.6740351125815L155.6821079482349,170.51474791098036L155.91712247040402,170.38920582088326L156.41669897299994,169.94703238976763L156.57954573916442,169.54877022682567L156.6443206303119,169.2666224155886L156.7420661011709,169.0499960517402L156.74753961195904,168.9178334134363L156.7370734811879,168.74090623979052L156.7630448009322,168.54343971881394L156.823466726216,168.36945688999063L156.83064384978317,168.1139143220309L156.79501474221297,167.95717038854883L156.815407645084,167.7072629238161L157.17574257850092,167.39714047898516L157.5555498587339,167.28304098784477L157.65163557132541,167.3034495693365L157.71889220978284,167.2553536609038L157.86645547215875,167.0551777970627L157.92139170347758,166.70812307739L157.90908275770397,166.63087726400144L157.8360404759902,166.56050304653465L157.80816775809032,165.9585380071306L157.89843701771076,165.517336855425L157.8548414576204,165.39765837929832L157.83993951292297,165.21836466959084L157.79042985654402,165.14610704070122L157.70578044282138,165.0908047751602L157.69616549676815,164.9306553831878L157.71364266944366,164.90601687944263L157.8240755781437,164.70262982483504L157.86175099221077,164.65060414570007L157.84071699476948,164.4769929573082L157.84756250628237,164.41850093261712L157.76692819095555,164.21650460136897L157.7625233046125,164.1266713822357L157.74026266032456,164.04286600655155L157.71902370241807,163.97490097524368L157.62892445599618,163.6378903243845L157.3820743707865,163.25171969089592L157.36224640375372,162.86010397061187L157.38880480176698,162.59496004418023L157.8076050225699,162.57191390928594L157.81530373991924,162.3847132332168L157.95400377279708,162.08851199455182L158.1591878586912,161.7899109390394L158.36614251415307,161.59880834030128L158.4238114271561,161.35694493222258L158.3807224064692,161.1127192398548L158.28279193952568,160.91037688640577L158.273245826903,160.71159535436595L158.3994107535795,160.52377265224354L158.5952709225532,160.58376994115577L158.93578271798708,160.55218564411777L159.09242249364658,160.42211272616692L159.0917443522313,160.18245096039192L159.009900970187,159.88595266161593L158.97000350945103,159.45551630067268L159.112385016459,159.2924642628596L163.09901205941236,159.52345963397204L167.2447282812032,160.10601912875853L168.3474857812798,160.193169788226L168.88965322067628,160.2650916930341L169.56805084934965,160.19977371729195L171.3413353463206,160.49901011645255L174.84837504135726,160.7648877908418L175.9689069367895,160.80110898284087L175.97688173407437,160.8013234061853L178.35673617166609,160.86425333384364L180.71015235181432,161.01534039967436L181.35937629860885,161.08238729010117L185.16650176678934,161.29080337839412L185.4512907739928,161.35835039960205L186.98066374170457,161.50403066323034L187.86618784846627,161.55112668749217L190.0309470425881,161.74086572577886L191.14273315956655,161.79435058891073L191.30017712321944,161.80191600673024L193.768451211529,162.04007441811314L194.1631548814001,162.10347898133693L197.17645485184164,162.2171810439867L197.2622289954639,162.22853672073234L199.47583649538194,162.3740973938382L199.48156645863992,162.37444765138304L202.80218803683704,162.6328274825991L202.81848701140507,162.63409565278133L202.84733094857,162.63250666368674L204.57962948109898,162.569244524138L206.1565027382576,162.64174832577822L208.41818523060726,162.56449476028388L209.74883373318113,162.5982276750871L212.42874694711728,162.86166483927127L213.9169944977064,162.9479741396809L214.580777078668,162.9975567567033L223.53929505276838,163.6518137822589L223.928657223852,163.6805005297656L223.98191908520016,163.6868976541367L231.08859934567656,164.21825261891937L234.58313233698,164.28068351103548L234.73197432081295,164.29068821345743L237.53707479536519,164.36652782069214L237.64667130555415,164.36997843201965L240.1168908801336,164.43955976119116L243.70278478624368,164.49270211135L245.06928119407087,164.51184639626445L248.18746427601923,164.54650195417497L248.2152054736456,164.5485534602737L250.65416911673165,164.5755348089365L251.4669372868859,164.58406067243317L252.37513519575168,164.5666897752181L261.37208332450274,164.69132610338102L263.85234158664485,164.7208731430068L263.87749429675347,164.72101069507755L272.01109242903146,164.82137625000928L272.02747846161776,164.8215508787698L274.14626782210587,164.80793177114208L275.4032315103398,164.79915659967904L275.4175327325811,164.7976854027857L280.79270407638353,164.80409404883852L285.64315568977787,164.80148757427952L287.2662814227749,164.7751824957212L287.744071416614,164.76731064422194L287.7855101431154,164.76869848067315L291.47755078588455,164.7460180654622L292.09640895903266,164.7569778464392L292.16643172393526,164.75442246019492L300.146315483483,164.67544531461334L300.2108524654925,164.67299734693364L301.6888668106779,164.66753772010225L301.7016356445564,164.6652368177473L303.0891942255035,164.66389271257572L303.1349595974061,164.6636694809805L309.30531567586,164.62643720368445L310.91615870702566,164.60931035269667L311.2833276913204,164.59737229427668L312.54973114986575,164.58060633441733L315.8928927243332,164.53369171770552L316.24429184456744,164.53100944535447L319.2721708208541,164.55244139273825L323.0443728969738,164.50617840130508L323.21611612964836,164.50519210826747L324.2469357337034,164.4846399599807L326.27766914036766,164.3731772328218L326.28966070866767,164.37240670604808L327.01068298962053,164.3508769176326L327.83333024669685,164.3239730111327L328.0872389173882,164.32125792233393L333.9514134215518,164.14676686396012L337.97998726374345,164.03664503855862L338.04349393528764,164.03086289744215L343.89440538836215,163.94791810563174L343.91594863629547,163.94979522153568L348.4387489268258,163.82624535819804L348.7924915103251,163.81628705566135L348.81766954877696,163.8172003279764L356.0762587335348,163.60900263144615L356.9844573338712,163.58088116768812L357.3535653216687,163.57022227882428L362.99397008926957,163.37563939895102L363.901857676746,163.34333432842783L387.51761797065325,162.6355034323778L392.300029416112,162.4693036265905L393.0771743479521,162.33702596968303L394.14382335682075,162.2215373956495L394.41527635885444,162.27513339661118L395.03654809516996,162.397554717734L396.4902179915109,162.34703019787088L398.03951579499545,162.2444323750983L407.373241396657,161.91252405587062L407.30085549361536,161.77061172021635L407.3049758274451,161.4652195700982L407.3581369721976,161.37514009866743L413.03319022184155,161.22359056677695L414.37653577572075,161.15980725130595L416.02492655251444,161.1030064849751L416.6144988833796,161.03674534923294L425.09925687581784,160.65085532265698L426.86200003111776,160.5924701915872L426.87725803105855,160.59158714699296L429.4760362256027,160.43501021141623L430.84093175339865,160.35189717857696L438.76237409275893,159.9657682977026L438.7633636781643,159.96571548992506Z"></path></svg>
