<svg id="OK" width="1000" height="1000"><path class="state" d="M25.328540300102986,321.5473618518913L26.36499675903781,311.270563822093L26.547090060420146,309.3173682084208L27.27600307924513,301.48672549839034L27.88810530602086,295.52246618679214L28.469262825402325,289.5766026549544L30.39123929364996,269.90258196281695L30.386984217197323,269.6284759678779L31.543437165288196,257.71589777391256L33.158588352643164,258.08628227259885L33.28480695234623,258.092060227641L33.95007403094121,258.1590968405609L43.94834641781563,258.98225810044846L44.89783141636724,259.0595801629463L48.76038149179806,259.4127593282081L49.77009824620586,259.50468171576233L51.92783379530579,259.7027991906864L59.47109723342146,260.6781257052918L64.16152036460085,261.4528021036965L101.02247198221244,264.7836036095797L101.03017953326957,264.79362306520886L101.24081921677305,264.81190415961464L104.27174075976404,265.0741495819956L110.17911131983794,265.5809566895481L111.19708192755297,265.667714287841L112.12040499795808,265.75942174333363L116.8366885916331,266.22567587999276L119.42301086723899,266.4574632432625L124.56802545084639,266.90253260807447L133.3859883783564,267.65526141905957L134.7214075423259,267.7744851474775L136.21706675953885,267.8787553790464L136.21737677544417,267.8787779513466L139.2072835193449,268.0957444231101L139.20703862456253,268.09884473604046L146.23349726917257,268.608944012512L149.1325723545899,268.81706174378326L149.76431949598117,268.86223152012667L150.13757368225504,268.8888847036798L152.08648432004992,269.0276827827664L154.04780888286012,269.1667397796852L157.93998076949458,269.44083589145373L169.60870017770696,270.24777731944175L171.1788413619346,270.35466546134427L178.84932400264955,270.8710630439489L182.1807515336551,271.0923581859861L182.3102650568573,271.09381557509096L182.87068991358677,271.13004316795514L187.17532140749609,271.4066027163526L187.17761776605198,271.4067494452089L191.07607859506402,271.66505224955733L194.71195280122646,271.9116023681271L202.292444995734,272.3889590759541L202.4153533427475,272.3917086475174L204.22929518175135,272.50605610075047L206.26250096042799,272.6335888244064L208.10068417830155,272.7499193715596L208.2573891335221,272.75981109245606L208.4600197086133,272.7682457215356L216.50210161702444,273.25347209047357L223.86571601606124,273.68853314947114L224.082263632317,273.70119380489564L224.23634537232243,273.7003885503256L237.33212624885425,274.4487241595063L239.8459144555464,274.58917930081134L239.87729425185415,274.5910053055594L241.26427146591277,274.67155413458363L245.1318242696998,274.8867043621631L245.680598256846,274.9170353628987L247.41950229783197,275.0418589717975L251.54693195746364,275.2827154896685L252.9122157311508,275.36177676899536L252.922693385488,275.3622789326614L257.33394628464157,275.57211333712536L257.36928774875406,275.5492940097148L257.37554742661615,275.54975593693655L258.72828269955585,275.64942984063055L261.2537817218466,275.7972792995462L262.61316061724244,275.8764313948901L263.2212120951825,275.903733287911L267.07652918847157,276.07544237857417L267.95664249069165,276.1257517945761L272.3391159893997,276.36678548057205L272.982474179707,276.3867071582047L273.2668884418657,276.39549269106146L275.677874767978,276.573181215335L276.2339414080519,276.59727206090275L282.042105203408,276.8459025034733L282.0671118382789,276.84711152565114L286.5982145098493,277.0645047352895L286.598665695985,277.06451538910505L286.9825308594024,277.07356760418327L291.12253165889456,277.2488857105012L291.1315315444458,277.2524894628963L295.3026097520447,277.42871438291L295.3524084218302,277.4380573414809L295.41881434179237,277.45051540517693L308.0785383990347,278.04906915878655L325.80816231739755,278.8435769218597L331.62676314766435,279.09319894210785L333.18087089747206,279.1589411804672L334.03603430521537,279.19238724671254L334.18464952889866,279.2125469980326L334.70548580718395,279.2309060259803L341.51022029240613,279.5333638005842L342.4569630561281,279.57484895026005L345.2877875082127,279.719657366786L354.32707757683556,280.1733360945417L354.6661745834496,280.1909483689779L354.803956653996,280.1979467403803L355.46029628250557,280.2359342637651L365.2071878605793,280.6522399970439L368.3901449516449,280.78484884168546L373.4359100389016,281.04473803931387L378.03569024013893,281.27805077645485L379.2442567223354,281.3386180162772L379.3047961281121,281.3415768933661L379.31371038447764,281.3419941702957L384.88106502664925,281.60008123673447L391.88900612946225,281.91779374056455L392.85830887411805,282.0347171599788L395.36920748516786,282.1198584344959L402.6382986208318,282.4061944344794L404.46891427970434,282.4660498884067L407.9830916497842,282.5794296296773L408.4668939563634,282.5978285971597L408.62107280529256,282.6036587397869L408.86614607090434,282.61335547369913L408.86585635725817,282.62160287481424L410.60045768884424,282.6755232547024L413.63724634058076,282.80157887945734L418.9492797566313,282.96716020199136L420.06687191868764,282.9780195610813L422.3669385418883,282.9997321052801L432.9351078527849,283.41971844626687L436.1086510046499,283.5198887689385L439.6386594994458,283.6326156634011L448.92483639938087,283.91951026772597L449.4179878409061,283.93388108129733L457.53826878601876,284.1873193927411L459.7385565831287,284.1962342501896L461.43086114120126,284.2476758570185L462.8743374485076,284.29118678623047L463.5150054057052,284.31039029416695L464.41372056344915,284.3357521553969L475.8059377164793,284.6458931381402L475.86746747006237,284.65361194694015L477.00826216566657,284.6780747446677L483.2321651853871,284.83097949130604L484.7855572978151,284.86816323844187L485.1896805788824,284.8776425289538L485.38151503564444,284.8782152017527L488.6594881318576,284.92882306001076L493.3183075085702,285.0636077429034L493.7450083957725,285.08897970542546L503.7107212562523,285.2985126343861L512.0720291232271,285.4618982054648L512.0949223355389,285.46243000479524L519.468797720495,285.62930259428094L525.5398452464199,285.76007856642036L525.7496104777074,285.7604995511866L526.7518994702044,285.78002053655996L532.6845156115754,285.946906324696L533.4326561212745,285.9580082585625L533.5364896080142,285.95954191750104L539.414015189194,286.0437629080353L545.2575182457298,286.12194947834826L547.2252445978476,286.1672870710211L548.4444991833635,286.1592458603508L550.3732803887791,286.1821196351192L551.7396900377659,286.1979595208437L551.7533669256965,286.19811653945817L555.0108266871301,286.2155465850756L555.1340923713831,286.2170820589664L557.0934991966556,286.2411591745228L558.8432042603375,286.26213392423045L566.0447186501505,286.3096182349956L566.6338774482375,286.31230199129055L566.7638857655155,286.313077237593L567.2752218310849,286.3160998075621L567.6804472742075,286.31915842022124L574.6949649127479,286.367889272057L584.2952303562096,286.4216684427346L592.3066976570898,286.4551230862586L592.308317774706,286.4551288004824L594.3409302420002,286.4476441339515L594.3471679505266,286.43225064041843L595.9385480867427,286.46866763940943L603.6757969414416,286.49078905555405L604.2079037953869,286.4901184754773L608.7156564780795,286.4825982024945L610.1560406171934,286.4747484929114L610.1877007503313,286.4753567493402L612.5708544578451,286.5206758306396L613.4613214579264,286.5373731844983L616.0734514922457,286.53972748002514L618.001368129164,286.5407564161483L619.9506096669695,286.5379984802155L620.0152264830124,286.543199664509L622.0260634275169,286.53916618842084L627.9079148137608,286.54376018243494L627.9080307803869,286.54376021777216L629.0442795513251,286.5480845349201L629.0514465098428,286.54811114729165L637.4106071406745,286.5164986915338L638.7618131040839,286.5113465728602L639.578215191707,286.50842458254044L641.9673490131992,286.49925352881394L641.9694478256727,286.499245065854L646.5023587303092,286.47930271563064L651.3671423095664,286.4541985883686L655.2451766912834,286.4314411838237L657.2354508204241,286.4188159917711L662.1225385390014,286.3850935525151L663.0429914359008,286.3783092965266L665.7579398020476,286.37142995631257L666.0077923468051,286.37277975968266L666.9671225886643,286.3659886373225L667.7377067210505,286.36042571389135L668.129333156986,286.36072226362404L674.0844011801755,286.3166610188583L674.7066390027791,286.3117257197124L675.7550948545943,286.31291818592376L681.6462772844598,286.2501491292952L682.5313091454293,286.23556827262587L686.0678715314544,286.2015849466112L687.0778945846483,286.18357324695944L687.4429846068969,286.1770219446373L687.9639841459574,286.1675934996881L689.4060278935596,286.15952497950866L689.431762915314,286.1593779284453L689.5859248786146,286.1546720173151L692.372857866392,286.11464246485764L693.3208373793892,286.1064947139611L693.3260209656252,286.10644300299316L698.1418965988307,286.0565201580747L698.1536768287912,286.05639343525127L701.1355861722946,286.06424249240973L701.474231657676,286.0167939361329L706.0367047457947,285.9850799202939L706.9620372087481,285.93900323340415L707.4676271354057,285.92596668746137L707.9654167958076,285.9197106916893L710.2775162026813,285.89012713348933L710.2886098082264,285.88998310243085L710.834492119487,285.8916798921518L719.580652568025,285.794756727362L721.4314800896648,285.7726579384447L730.2680419972168,285.6595017603519L733.0005838377608,285.6219501270195L742.1304274815851,285.39316653638207L742.1694870521438,285.392158724973L744.4531246576391,285.33403321332264L745.8267984599589,285.3066916706545L745.9625909486831,285.3039722578428L749.7455327393684,285.2270132109368L756.2740153516677,285.08874595295754L756.8977827243671,285.0751736872507L757.1906588246673,285.069077145053L757.1917240813414,285.06905901437517L761.6254879784711,284.9920036056774L763.5430992809696,284.9576904458679L765.4383701092579,284.92075977382234L767.0863048403477,284.8584672252527L767.0922447884483,284.8583432644775L770.4083699979253,284.7882465445773L770.5851244044691,284.79898710933435L770.874127218212,284.79368546287435L771.1513773447873,284.78959458530886L771.5762061194835,284.76441166548557L771.792446802763,284.78108653032973L777.1862892436607,284.65650665403325L783.1823582028833,284.5124835765388L786.9589938082395,284.4187796372256L790.905060175813,284.2828056330778L793.8508018406303,284.1796544445193L794.8089527440787,284.15658986202175L796.7465470476219,284.0908818281615L800.3141068967595,283.9953147926697L800.5186820505882,283.9897944668111L800.6605043255054,283.98604653966726L800.6671455767905,283.98590433789127L801.4215694919792,283.96970417452866L806.5558563928495,283.8363514440713L807.7857033626454,283.80377434157964L810.0765656100226,283.7105878852783L812.0256649661817,283.6662653075457L812.9679927971031,283.628898897309L812.9773130642584,283.6285285982266L813.5297209351894,283.61278021270726L814.4283579220246,283.5870556179142L814.921095261074,283.5728948306804L817.497239281852,283.4918855813111L817.83916553575,283.47800155679136L818.3118639625296,283.4511640596104L818.3255193428915,283.45038823392173L819.8079963983022,283.4250559917806L820.9097336170904,283.3721682720112L822.2500172540858,283.3316767034154L823.302025994243,283.29969023765466L823.7211482796006,283.2862871837518L825.670451396354,283.22357635510343L826.1440650084626,283.2082467369718L826.9977362227708,283.1805237883794L827.1412571366257,283.17458442655425L827.6162366775432,283.15490438710935L827.9767277698057,283.1428309233492L828.5250569409675,283.1244260302908L828.5458995088842,283.12404384272986L828.9349645008903,283.11689668759857L830.0821376322278,283.079422116587L831.4349273661684,283.03495646634724L833.0970815070882,282.97991578046015L837.3296603965296,282.8332423028038L838.6241803627082,282.79560919177044L839.7945953743263,282.76135008677545L851.0128717302708,282.3611368792239L851.0248610588185,282.36067178063456L854.297645907773,282.23283934325787L859.2689272980691,282.0353395760848L859.5802647702101,282.0254422491329L859.6093126978316,282.02447656768527L860.2024034744747,282.00291318272815L864.1411700980133,281.84393254359986L866.106331393519,281.7636711269073L873.9400001291987,281.4374976094285L875.8840380036191,281.3650691053357L877.8629055358513,281.28224759910586L878.2511769272445,281.26592268847446L878.2711531258633,281.2652403701783L879.8608360894783,281.2006924933796L881.8385758587591,281.119815307757L887.0881058560678,280.90206335496987L887.0886591982453,280.9020378586349L889.6793468648549,280.7821216607188L890.9364499550891,280.7394431592106L891.2498067699347,280.724919632577L891.7494288935561,280.70173005839433L893.7883503397811,280.6110293692818L894.2000309512051,280.59596961182933L895.530450592016,280.535892837538L901.4337678372083,280.30899757425755L905.3449466988518,280.1555561679173L909.3923401707252,279.99415723016034L910.870459522886,279.93455115660873L911.2369444150565,279.91732752804955L911.8234575876525,279.89371609872865L912.195001192943,279.87872987640054L913.2077401090708,279.83437811025954L913.2080654489805,279.83436383559945L913.2361177689436,279.833132944059L913.3375704037055,279.82851628335743L915.6438804183144,279.72311542665807L919.0663363758973,279.5651134573441L919.0895195788123,279.5640698904931L922.0251921185534,279.43121850970897L922.4407007306012,279.41230196096967L923.1602023467663,279.37947944303096L923.3913775183614,279.3713063087148L923.5078831180106,279.36490958278637L923.8621094290551,279.3454472730815L924.9543064302052,279.2853100877871L926.0248595350286,279.2261763840685L926.1867182984261,279.21792311901436L927.2087643500365,279.16571012426465L927.4313214439575,279.1560459691532L935.4719174347865,278.77547699329085L936.2536501763581,278.7046081263901L936.2628247748368,279.0694281494124L936.2653180622256,279.1110257034383L936.2653323377565,279.11126387332956L936.2749446242667,279.27163232719863L936.2749978837733,279.2725208872806L936.578656869696,285.2918731022091L936.594155422873,285.7780742495802L936.6491267789922,286.9921495386073L936.6892221571748,288.06572103267L936.7219546936957,288.52634071244506L936.7226036357703,288.54035809141726L936.7612105530508,289.37427474063907L936.8143790634792,290.5227037488436L936.9166004553201,292.4684709328059L936.9169734310444,292.4755701388402L936.9310742791398,292.93373652098853L936.9876334186076,294.77167953339955L936.9882202211361,294.7819417902025L937.0738932736044,296.2801567907431L937.0739128122318,296.2804984578978L937.0752894964211,296.30457216781815L937.0776630599383,296.3460779538724L937.2408256924821,299.19898877357275L937.2655350048979,299.68245269409493L937.3344571045859,301.0309361862394L937.3982219030387,302.27844913226215L937.3987072643697,302.28794463744066L937.4167080232279,302.6401050229728L937.7664573839389,309.4814686247481L937.7994798614172,310.1273144014706L937.8690839664268,311.45085012502216L938.037619281673,314.65524136552233L938.1546552950209,316.8801835811182L938.2123576866192,317.97706360778375L938.2633619973809,318.9465709582147L938.4933356364061,323.2800345435286L938.5040719207054,323.48105938101344L938.5042517844627,323.4844271100924L938.8117054756133,329.2402908884728L938.8167468449135,329.334656903912L938.8169484570581,329.3384307372052L938.9046521827988,330.98002627632457L938.938559086356,331.7601715525626L938.938662773109,331.7621769565918L938.9927459180396,332.80817463091415L939.0006154578914,332.95973185506L939.1022062930422,334.9161497358362L939.1433189854711,335.70784247555457L939.203070065101,336.93164679736674L939.3438182874095,339.81422979722436L939.4131829891746,341.234754474032L939.4220066313778,341.34984633949085L939.4224575309898,341.3557276435944L939.4207895473589,341.6019611561611L939.4234317228315,341.6491053109212L939.5460673984921,343.83713910693393L939.5658970343602,344.216985331994L939.6081948987085,345.0925816701127L939.614894384466,345.2312638787477L939.6680613865263,346.3318242201026L939.6930217692116,346.45833516933357L940.0514237665478,348.27452155505387L940.273014092662,349.4530344054075L940.4504425359837,350.4788501922135L940.6164908802906,351.43868394268384L941.5659424500182,356.7776125023932L941.7755928195859,357.9018665105034L941.985136899923,359.0252963364437L942.0045577496317,359.11556308669367L942.0767947338843,359.4513004425284L942.2566345647422,360.4664799259604L942.3028234715396,360.727179257543L942.42426344856,361.41254650570926L943.4055688879298,367.0619262281075L943.4507582563259,367.3147274734903L943.6681765096896,368.5308459514817L943.72470125989,368.8469665368144L944.5109889963373,373.2423169896607L944.5516260598761,373.45993709623724L944.7331613456167,374.43198122218905L945.0573386576962,376.1673418818424L945.2850812474369,377.3861150925154L945.7696805371593,379.9784775857608L945.7716336647776,380.05091316317737L946.0456682500271,381.3292029734962L946.1924720183711,382.1927487031755L946.2199923685446,382.31965700750413L946.2923597913004,382.69027420855275L946.689930870022,384.8857632497829L946.7684716363815,385.26015756055057L946.7705218997656,385.2699305275994L947.065668481637,386.81095632204097L947.288718025537,387.9752303229143L947.3862760036872,388.484377687483L947.472482646036,388.9342399099886L947.5339969675506,389.25126456355326L947.6123224291475,389.654898929046L947.6641336212592,389.9264779072814L947.9010110930285,391.1679310484568L948.0388589489799,391.8902366034955L948.0426288470784,391.9099889273283L948.2902578566657,393.2125673838429L948.5086463096279,394.31289406952806L948.5367919343888,394.45468485760307L948.8804092699065,396.18541563505994L949.6284892633316,399.95123886951774L949.9736926753828,401.6880168616001L950.2720710188878,403.1887166940708L950.2963717662451,403.32538245316505L950.9698379634776,406.8183346269436L951.8695824453073,411.4810714972772L952.1088466781625,412.7202752853624L952.186516358465,413.12699882874534L952.2413758186334,413.41425493558074L952.4121417751066,414.19013900495884L952.4160472033535,414.20788205064025L952.6533187356579,415.41895688299945L952.6539198822663,415.4220662882415L952.6547799745769,415.42651507571316L953.2203656884778,418.3511236567147L953.2237619484793,418.3686803389009L953.2423089193154,418.420888401719L953.7730109793432,421.1189432392662L953.8176395597159,421.34590027347946L954.0324481394972,422.4179978754436L954.0717308619177,422.58481463621433L954.0697443329752,422.59763526975075L954.0736604789755,422.6725003011233L954.1374682485128,423.025600541099L954.7586065303615,426.46159505682255L954.7639216630862,426.4909872335886L954.8667905298853,427.05980912820075L954.8959475348693,427.2072371763227L956.3666468034883,434.6379504604545L956.4014415427821,434.8257765671159L956.674845127057,436.3014009566429L956.8602473697108,437.28518681316956L957.0840456611754,438.5270954291151L957.3663044084824,439.98793634906474L957.4291598449929,440.34193764201274L957.4571004430973,440.46982418923915L957.4639936948456,440.50137468144726L957.6026065414869,441.27882747131775L957.6941271576495,441.74635590767105L957.7198750074474,441.8755765985441L958.373599703741,445.15530240424454L958.5514236834146,446.0239090693641L958.6187840740339,446.3937190389719L958.8300834390903,447.55358498316286L959.3586384984237,450.4537915581653L959.4503417424564,450.872675949285L959.9546148113999,453.486846413923L959.9566063363272,453.49716787650374L960.1859920380452,454.68586276478663L960.2353635849906,454.9416735314527L961.7447021313129,462.7558420435906L961.9849568315661,464.02509559048707L962.7455247514248,468.04106190464853L962.8893652655493,468.8002172095589L963.0174918643404,469.49680006716227L963.0529000588203,469.64828774211946L963.0695544921782,469.719539115448L963.1898829768288,470.3448322272549L963.2569687515182,470.71015502610584L963.711907964849,473.18689618916716L964.2106207497596,475.90058702924983L964.245367898978,476.08960693175516L964.544716605042,477.71773924438793L964.9401480836794,479.86767506440486L965.3036000088573,481.842955383757L965.3369791655484,482.02432602058065L965.3487172451244,482.08186263051397L966.5871857416505,488.14876022730243L966.62272844719,488.32276526008854L966.6282494609649,488.34979372940137L966.6360295486254,488.38788138936883L967.4793924670515,492.5148768190817L968.0837593793556,495.4702597665376L968.2304076925635,496.1871148833298L968.1681740722476,496.2984708407841L968.1493128105606,496.33221893241154L968.1217904334601,496.38146354794964L967.7269522451004,497.0878467261509L968.0641088313125,498.145251370623L968.042754585035,498.4219889327169L968.2960669940496,499.33652029622056L968.1528652713544,499.841318954112L968.1569294954154,499.85254897069336L968.2677807378541,500.1588348307881L968.3042678516779,501.4951259487479L968.3106253338229,501.72799042196317L968.3318373085426,502.5050164375215L968.3582849483985,503.47397289685296L968.3992719761752,504.9759134755731L968.4311933952099,506.1459104424247L968.440779627887,506.4973133086856L968.4527018596395,506.93437554734004L968.4534701613527,506.9625421378292L968.4816316949807,507.9950585746753L968.4794109735817,508.6590261175187L968.4749924594782,509.97540257750654L968.4747128004162,510.0585103358433L968.4921101189111,510.6090473471134L968.5404146096314,511.54711801071335L968.5546744633926,511.82403880421896L968.5730193030361,512.1802852006779L968.5740000370295,512.1993303971237L968.5610011575429,512.2919868889331L968.5423762215021,512.4247411985864L968.5506848270288,512.7594387080354L968.5524958926003,512.8323973519884L968.5957864272781,514.648199705198L968.6219627690423,515.7465141765688L968.576625659304,516.7020684363064L968.5702997774371,516.8353617981522L968.5700543169698,517.2387445337663L968.5827228614789,517.4116059440285L968.6537972895801,518.3813594850387L968.6833119814305,519.4922402712023L968.6884349014668,519.6850800114348L968.7266197185468,521.1226596091662L968.7194375693302,521.4541229508242L968.728179255862,522.37092419154L968.7342444357323,523.0074806321835L968.7648852230117,523.5166176273868L968.8343566399428,524.3947459266525L968.8384799303485,524.6065503504485L968.8755184298066,526.5097993882656L968.8914529408789,526.890400316591L968.9141386049721,527.6596976634087L968.9699218441312,529.5517082760746L969.0545503136666,532.4229800620938L969.0681904939463,533.6734778436618L969.0970663647388,534.8459715805737L969.0971123162799,534.8478376531062L969.2020627761228,539.1117191699142L969.2619681397468,541.5472221427057L969.3765202527363,546.2078682675003L969.4685011975366,549.9534570625466L969.4807151109947,550.4510434580963L969.5470698807517,553.1551901265573L969.6697415707245,558.1584165623786L969.6966914944812,559.2582799186837L969.8252119229917,564.5068353593L969.8568096080539,564.7421914427371L969.8866575391569,565.2370801625103L969.8909521085222,565.4221309948356L969.9352598616751,567.3317946182027L969.9356242782051,567.3475044817185L969.9897753134044,569.2666698516718L970.0009021626413,569.6308221558905L970.0147448998583,570.0832319351855L970.024023005423,570.4446610984984L970.0688207838305,572.1901038108838L970.1022400740629,573.4925795968907L970.1132370447685,573.9212421471598L970.3307349377628,582.4063643921841L970.4620178140133,587.5345280964711L970.4795868568276,588.2211808082656L970.540614591367,590.6070167168002L970.5873397730602,592.4344214777278L970.6102808862397,593.3318677603917L970.6294382583733,594.0814107239173L970.6356275829899,594.3235939010729L970.7640791026618,599.3522639545536L970.7656915645699,599.415419185852L970.8286436513372,600.5214382279272L970.8432246789623,601.0127619967749L970.9964388844708,606.1773274575218L971.1856193154503,612.5588968591775L971.2042981462646,612.918737137697L971.2482009889375,614.3820965342657L971.3516381387665,617.8308693441137L971.3611576392407,618.1483385581048L971.5466490386932,624.3102939110604L971.611022443868,626.4498192527669L971.6134419995653,626.5302467155147L971.6725872183783,628.4965099430998L971.7262606081326,630.2812651471145L971.7271340836588,630.3103132365443L971.7486735683796,631.0192524652505L971.7950090187896,632.6467875628291L971.8976511794381,636.0840946574954L971.9735228197115,638.6258312290381L971.9737409838156,638.6563505522324L971.9809303951214,639.6627529220257L972.0728723552675,642.6193317538548L972.4241750408441,653.9248178711103L972.6796033815144,662.1535182972528L972.8115549612676,666.4072178556883L973.0535998502501,674.2150078433581L973.2408477260113,680.2596475082148L973.4025404251565,685.4824673788208L973.4028311597375,685.487881239854L973.4038084166879,685.5059509198096L973.419220175944,685.7909157053168L973.4329153488793,686.3131280132872L973.6462394292533,694.4533623289979L973.6632077464337,694.943784933452L973.727134998639,696.7373163165649L973.7271709187983,696.7383241409723L973.7428992818885,697.1796262210504L973.9948674172842,705.0089163995109L973.9794750023887,705.0498916234727L974.0713205979187,708.4591128445295L974.091493165495,709.2081431807288L974.1778079183593,712.1550725519747L974.2069902786681,713.1331926492427L974.2911382012142,715.9542537959005L974.2922209695271,715.9873997561347L974.3214943276905,716.9082324005386L974.3229050646635,716.9526110743726L974.3383946536495,717.8863184256435L974.3384249273211,717.8881436549699L974.4465324280718,721.2381594759778L974.4855257497155,722.4467277074773L974.4943020126308,722.8158586275458L974.5046245663407,723.173355463782L974.5058029037259,723.2141653972016L974.5064897238428,723.2442785925646L974.5652312634629,725.2752308737278L974.5652456752093,725.275729215955L974.6020967778434,726.5501039290417L974.6428596122001,727.9599961865939L974.6871298012871,728.7117813136408L974.7446524840491,731.4653954679164L974.7832834974736,731.9777149314488L974.8495940624024,735.3993886190336L974.9191924971469,736.8036453547097L975,738.957109524611L974.4050132792122,739.2173172222983L974.6667074408724,739.6198721923656L974.8765391781666,740.2113544756098L974.4422252990822,740.769025843887L973.7043547911506,741.0811390692229L972.9536486807026,741.4680670235531L972.1350593542081,741.1730092432183L971.785830238319,740.1259791527124L971.4563475198169,739.9511867082681L971.2038645511316,740.2210095352036L971.3841383693043,741.1889923328812L971.1144545169433,742.1409320245299L970.3479268968765,742.2841022260874L969.8054928228967,741.9193402303429L969.428948246403,741.4683739314713L969.3339349701714,741.1849360473915L969.4717031034231,740.7612165615885L970.5495031756552,739.9289603952905L971.0285476011788,739.4291738135771L971.0347939424162,739.0444333587582L970.7552511063702,738.8029794827564L970.3263652910988,738.761547591034L969.5866839342495,738.8967709427318L968.8492674431766,739.2719875297103L968.2612649633049,739.8374156445354L967.8451340409185,740.2699731458856L967.3310163083447,740.7587984568788L966.7363035359343,741.000967927225L965.9896331736019,741.0080037185044L965.3688021531414,740.8686520219455L965.2395655675357,740.4384195003586L965.3209787752321,739.9534843274271L965.4326389471426,739.5558545129622L965.7133276488335,739.2923538127994L966.5427812517171,738.8324851315945L967.3596724369337,738.4257127001514L968.0291315871634,738.1589074135992L968.2643482182699,737.5889295307329L968.2657061918012,737.1083875989684L968.1341576818384,736.6347116336854L967.8265925359892,736.3626678580448L967.5771851702448,736.1835370556844L967.1535238768743,736.2377555314974L965.7284098831187,736.9387435264816L964.6933975784689,737.8738381035832L964.3284071426117,738.307216175141L963.8085155702707,738.6951130000318L963.4789382851134,738.8959427193697L963.0982838971355,738.7555501964187L962.768407575984,738.5261656120974L962.8508032274096,738.0956329367615L963.2060814001936,737.7359202085306L963.6570788667647,737.188913165992L964.1330608352234,736.7930062105277L965.9211503454381,735.8847001543656L966.1595389495446,735.5851707620518L966.0930791030303,735.3324518900778L965.9230271990436,735.0928333775475L965.6012444643411,735.101955641419L965.1260888632476,735.1907179568509L964.579468797026,735.4433871384277L964.2545999314873,735.6103118011763L963.9281384336629,735.7334409701125L963.7087376386439,735.6167371172276L963.8999408878603,735.1905410504849L963.8235022573233,734.7461276816437L963.7737348369099,734.3003430023562L963.7521735376588,733.8850926866986L963.4197004108313,733.518812369321L963.1791819785363,733.1142410872912L962.7690111159509,732.9113324144906L962.390388891061,732.9157025351698L962.2291067503413,733.2914951834932L962.3850597303801,733.7317628758619L962.5822176047766,734.0739542256802L962.6223379572539,734.7122924466503L962.5299249471109,735.2763592793193L962.2515683908791,735.7883157163153L961.8120195709266,736.086346426559L961.2311792825972,736.1612794346926L960.6700384838875,735.8395467598355L960.169957850467,735.2229840324326L960.0128800309772,734.6955095131452L959.9445150870379,734.4659180924623L959.5110217127055,733.9456780385574L958.8457867877823,733.5783540943671L958.1817343439682,733.8015444175095L957.95864595153,734.8844768558668L957.661647114916,735.4794251344922L957.2438339784217,736.1732844656738L956.670294088181,736.4266554463029L955.5017783674218,736.8316643149114L954.5825984511525,736.7887441760961L953.9428981278331,736.6318793941537L953.4118972492402,736.3032635364135L953.2750221828169,735.7015663345542L953.5332514467135,735.3215058199844L954.2151332699436,734.7896318045034L954.784512229355,734.9360265312746L955.222975758632,735.2190372322702L955.6265612918137,735.2946977172105L955.9640873922792,735.1173803577035L956.2516125906127,734.8369927321205L956.1659899797021,734.3706523717477L955.7929917746205,733.8451615473805L955.9829014582624,733.3872227728309L956.2106745822555,733.1515145364891L956.4885043520387,732.8492967336974L956.8827515733751,732.2207956901178L956.9929207494354,731.7669285435707L956.701222658494,731.2695679099813L956.1662013693924,731.0283738142133L955.8146882414176,731.1224526877354L955.6917337094108,731.5660315843799L955.8199205987423,732.2747827229904L955.7579985407044,732.6301152312896L955.4521115686659,732.9018763886206L955.0830874182069,732.955191967718L954.2124558515798,732.3184001182168L953.6530924290342,732.0962249891398L953.0439854966523,732.3533844345884L952.3742146712586,733.1529931540814L951.5975963509662,733.676370510598L949.1775653602683,733.2824478656873L948.2580656600278,733.4223322175733L948.1296258268017,732.9804320918081L948.3275828443443,732.1382333666937L948.8574640377265,732.0798329851247L949.4904331833288,731.9523091789542L949.603588405563,731.5834928377387L949.5022024157327,731.119382608232L948.9846062814242,730.742992885595L948.3483512660562,730.4083412268831L946.3900889726805,729.5768443689882L946.0479007315919,729.6577784357937L945.7698658816109,729.9594739522648L945.8221439787932,730.3612220583045L946.0498553417465,730.7780840458771L946.5671622554603,731.0086662261671L947.2095299441646,731.0730272446792L947.5956877578476,731.3419878708131L947.8663551271268,731.968940205646L947.5585950780455,733.206843727722L947.2136805545629,733.3139578471176L945.6284585068712,732.9569261349897L945.2701692465166,732.2569330927638L944.8650301667769,731.6542020950932L944.3666344646962,731.4843936456218L944.2448452638904,731.4428919832679L943.4587709261633,731.1611626377157L943.4619192796563,730.6808642646009L943.9026321955168,730.4352510048919L944.6167926515768,730.3362119689698L944.9479502627195,730.0318163924723L945.4041132880967,729.56127845775L945.77434810037,728.9669322881546L945.8105232231267,728.5363035279266L945.4944637508441,728.1485546512662L945.1078177112556,728.020137534397L944.5868317009824,728.0970620706998L944.4228379366557,728.5531926787239L944.4182090225534,729.001528608288L944.3338772651487,729.4537815790866L943.9479819641906,729.7287013165878L943.502640611215,729.8784842275992L943.1453140916988,729.8046213478422L943.0557857075073,729.4522984736684L943.2449793250574,728.9628432680246L943.7323884623775,728.5869762519321L943.9801332113927,728.3301540068543L943.9856133300357,727.8061426029985L943.7746032577254,727.2727778473264L943.4870049973258,727.1003516459133L943.1727657723325,727.3246337022972L943.0623200319213,727.4034557103769L942.7109197378938,727.8366892091893L942.4133748026027,728.1656714417638L941.7944723005951,728.2588621231437L941.1504259294713,728.3557253236231L940.3344487248947,728.2081853075584L939.562593744088,727.6844756877664L939.2609501531515,727.0256972692102L939.9429314855556,726.5440649470111L940.4009777272252,725.8376226360706L940.8578138627615,725.5274464309653L941.4198145694011,725.574997846057L942.2538121286999,725.4596579592929L942.6864745685648,724.9365869978076L942.7249002637714,724.2775485887096L942.3711159755103,723.8101292929337L941.8511554958183,723.5721052120157L941.1447291508103,723.4997989329939L940.6870317566794,723.9277786372058L940.5116023728142,724.1808330340418L940.3383665807949,724.4307029559682L940.3286392677969,725.1027064838431L940.0418635594197,725.8053018118839L939.4017507815399,726.3807888083358L938.3675729722829,726.8931119274154L937.9052677220759,727.5023649615786L937.2806141780333,727.5644127525859L936.6843409147565,727.3364012966272L936.0151641245371,726.778666302989L935.980565907081,726.4012547869196L936.4507255711051,725.7020793442501L936.3899713737324,725.1249897955319L936.1373258813763,725.0025251830011L935.8393450475362,724.5471600296827L935.8437663333061,723.4113674008587L935.5356130531388,722.8259294594416L935.1572996970592,722.6977188051349L934.7524893756272,722.7486439011413L934.2295906773176,723.4521502685386L934.1791842924346,724.2334387898546L935.1521900451708,725.6600146224234L935.578303399577,727.4120657118772L935.3624328864297,727.661295772245L935.0192395914812,727.6402147682379L934.6241587482577,727.440552723548L934.5493937319094,726.914573135359L934.2301984042122,726.7426997359644L933.0528709443911,726.8891460506892L932.1645949770214,726.909558056292L929.8071670774482,726.1429167055525L929.164224212276,725.7133981546685L928.8651283004328,725.3008887484636L929.0272079745139,724.8380037004071L929.7036710862224,724.3756635343789L930.0000680334202,723.9069180562632L929.9704572259941,723.1625197183464L929.7234810532317,722.8044729000131L929.4047312801581,722.6324101145574L929.0653129643786,722.6856453065832L929.0152461053899,723.171285840222L929.0865088136047,723.8063008269545L929.1739397405158,724.1213321956805L929.0170149917963,724.4502819184638L928.743392421375,724.3765243910103L928.3075364476374,724.0770062820939L927.9303233065295,723.6731656223445L927.615385331244,723.0083093832548L926.5675004266683,723.1362639227666L925.7231762444492,722.3173859427781L925.5681642705929,721.9686451785518L925.1736122672705,721.8566687078442L924.7210664268674,721.8423410154868L924.3418566501487,721.3342589866149L923.9638793051662,720.7431197916337L923.4393017179722,720.0845397859988L923.4185808292948,720.0585228899208L923.4243550321845,719.4556840962892L923.7308083521194,718.4618122058018L923.8816314761473,717.704969326279L924.3890830882425,717.6318774395074L924.643985910227,717.0970314136566L924.5438574303735,716.6154862025948L924.3756427673308,715.9882931637956L924.0402475366427,715.4432664830409L923.5820415334629,715.13897259963L923.1765676585464,714.8849481425414L922.7073125279989,714.9401612312805L922.6327155823982,715.2087830256305L922.7201236372921,715.7652072333647L922.960883051449,716.2774056612775L923.134250297288,716.7441699951706L923.163598544914,717.3144650651644L922.932735070155,717.698648253646L922.4765130789594,717.8483631646733L921.2429048485888,718.1939697350056L920.3144724444538,717.8627753573654L919.6106769622588,716.7623919128476L920.6496863516493,714.9269534921912L919.9699132487304,714.3674263580535L919.0134931237698,714.2057214172997L918.223592817784,713.9601197984366L917.9803497580524,712.3816019463433L917.6145234101629,710.9009398170222L917.5547824314308,710.6590974868135L917.2538355172285,710.504374091196L917.0280295732464,710.5691486571857L916.7166830781864,710.8457188477305L916.135080105264,711.9260036655294L915.9498782372751,712.063925940114L915.3531126149898,712.1399159276989L914.860672573119,711.959031443708L914.5002114391989,711.2804614437567L914.254729263027,710.8644217373267L913.9260632307289,710.5996872530314L913.7182456719413,710.5330828292222L913.4097324765206,710.737995330579L913.0607419755822,711.0539665218369L912.5524710830869,711.2867758099092L911.9836295391246,711.3201008961298L911.2053582707799,711.1631216866255L910.3360443576299,711.1283991458131L909.6675109117558,711.1016169237151L908.572053243651,710.8267544173L908.2286374035564,710.5283793574833L908.0391594206824,709.8917336626353L908.0191828288864,708.7697292566826L907.07270792646,707.4101777166806L906.7714360787777,705.4272323588337L906.481794848067,705.2784304972249L906.129240698243,705.2201108475979L905.6030365671113,705.3983136944463L905.3458385835213,705.3737341224163L905.3580121688258,704.9719594669497L905.5326743530536,704.571132129761L906.0588613883588,704.5064857314037L906.2422732406271,704.3043834760581L906.3441516478362,704.1921166907914L906.340158051892,703.8591921708291L906.0421147671572,703.4953834572832L905.6816342165093,703.2831829224699L905.0809149290246,703.6227945771325L905.0119796275246,704.3042064043025L904.9987449392468,704.5232223132248L904.7866102867215,704.8600244495169L904.6041035880154,705.3593971841898L904.5911911184578,706.5310172113179L904.580213337962,707.5273522772925L904.5245869689755,708.2575582948297L904.328363479972,708.5968077750334L903.491210507909,708.4968119978264L902.9794936990219,707.9140487027727L902.758896859169,707.5293200639779L902.7272802959976,707.4741763361026L902.3573663607242,707.1485681377109L902.1813064619973,706.4286007580993L902.5539664608094,705.9114085639734L903.1305714045326,705.5517082689064L903.6833153481803,705.2896739982613L904.3837153026022,704.7135006024562L904.5946937906808,704.3494599548848L904.8130310027873,703.6302835283916L904.6111086514393,703.1767521237648L904.0808784509402,702.7729857434117L903.9198077642511,702.8768467710111L903.6955702018557,703.459824812952L903.3500281819669,703.8567370640222L902.947712482564,704.0650709546092L901.5680635543954,704.574681464977L900.6988948092721,705.3070371246829L900.1780055488478,705.4661786214755L899.605514003081,705.3265265148323L899.0838003681195,705.0301868899705L898.4987978832702,704.335542494316L898.4313259863568,703.8112493196923L898.9040260955381,703.1992007791794L899.4013842317236,702.5628375437119L899.604314321917,702.0776262343795L899.5484490226684,701.6358062289778L899.1231115276347,701.1846530218595L898.3767938737609,700.9026979078582L897.8210160822795,701.1426095705397L897.349659548348,701.2442601619703L896.4407507557725,701.1730671707094L895.6190413567281,701.0557816204719L895.5128698760204,701.0269468193951L895.2312768143494,700.9504603919318L894.6242677810516,700.511750906217L894.1250097138943,699.9919501089587L893.6965511830331,699.7634577081599L893.2713097944736,699.64858154686L892.7000984761605,699.5006988795844L892.4050434150658,699.4776078224887L892.0861670397928,699.4088321788313L891.5233444544496,699.1768167592041L890.6749738537084,698.9686854420231L890.402408411943,698.8589504417367L890.0092952985826,698.46644344314L889.5049601177504,698.1832975100897L888.9133194763731,697.9075631841058L888.6512503964566,697.7927456103421L888.2453528994473,697.7390193283602L887.9198450126257,697.8425530593271L887.5128625160535,697.8361639733668L887.3101084867315,697.8657068832856L887.2392800475509,697.876025623111L887.1095962785686,698.0422091985572L886.8870565899297,698.0994910396091L886.7620332222389,698.1953069462559L886.8145733193926,698.7544615737928L886.6823167988873,699.1042718751601L886.559796789193,699.6046408856322L886.2419076293934,699.8230909634399L885.7798564988329,699.9413392874288L885.0975593511193,700.4972697668949L884.627961772021,701.2471446691459L884.9486059241353,703.7840545837428L884.8757904573977,706.2156507047365L884.5823864495455,707.4144788082162L883.7065025105995,708.366675788064L883.2994654786523,708.0892724597894L883.0522950040954,707.3159359699475L883.0727657141717,705.8958013163137L882.9457943305871,705.3147855505493L882.411276824394,705.0939881042001L881.5063182926551,705.3134562543335L881.0132370439065,705.7213824395938L880.7340600553368,706.2958479969864L880.9058551947148,706.862916393992L881.3751789067826,707.1909248618294L881.7042527902433,708.4657232676404L881.6925825756805,709.2786386447526L881.6614050646689,709.8053197998855L881.4262021039916,710.1633659776383L880.4707534997798,710.5214209210726L878.5568308446805,710.3590603959668L878.0097878216133,710.0231287724866L877.9514342524683,709.9872903533391L877.5221512801174,709.4479946159605L876.6051530699658,709.048637633831L876.1113931201858,708.8842032415134L875.7187736244363,708.9727603292637L875.5093633474019,709.7770053349104L875.5064413120705,709.7882262131093L875.1885691600842,710.2070365159467L874.2215550679268,710.8417580728772L872.7227949748283,711.3392766655016L872.0471363173159,711.755261058567L871.6857332406653,711.7528655506932L871.2241235141839,711.7497766008163L870.5691628550085,711.5795528572797L869.4814367186331,711.5951114134882L868.544896315386,711.8137196776662L867.4911145383978,712.2599398674298L864.5404236304232,711.4970816081379L862.9877629878745,712.1137416734341L861.5201091197677,711.6213862467138L860.9234345020789,711.4574236486294L860.4872715545202,711.4732062420474L860.2624663783947,711.2452921946353L860.2597511769086,710.8626392572894L860.5607664418529,709.9547652471284L860.7582004385898,709.7309741710035L860.7470187020499,709.4220878328915L860.4871343931368,709.3387044866796L860.2420177442993,709.314963047097L859.9765332703502,709.4190049514564L859.8133666875531,709.6922438592607L859.6327314489778,709.9946738811564L859.2639170596234,710.3108419604484L858.6316463050722,710.5809971485106L857.901036689557,710.9783362593074L857.0413773419949,711.1587980095437L856.4210103492812,711.2476072677401L855.8545292798653,711.2121140220167L855.8213259094922,711.1843008638814L855.8150158508982,711.1790151361998L855.4576647567728,710.8796532566114L855.5541868694984,709.9791316463862L855.4785953969017,709.2190533937511L855.421507054416,708.4063999763233L855.1372103419131,708.1065053002246L854.7663888850632,708.0275224836475L854.5435203095258,708.242244006549L854.29491738548,708.4818268703777L853.7227573904303,709.2550417825978L853.5889348935584,709.3832340621922L853.1427202006529,709.8106267904869L852.2441238972456,710.4445904891787L851.4985000263237,710.6458259993765L850.8719636281825,710.6132453352088L850.4987946981665,710.2848410554412L850.248497158382,709.5152931143845L850.149144736667,708.8692789074981L850.4130043623663,708.3342889255154L850.4428941075398,707.7147803135218L850.3563428350037,706.6972132419723L850.0936228512745,705.7785674442191L849.8404594990652,705.1380356579718L849.8255285675184,704.7057145625827L849.736926156449,704.368557940076L849.5704089813346,704.0033212294647L849.2256377939771,703.6751473369952L848.8002594409834,703.545243404917L848.4708936235845,703.3610525899608L847.8293778906358,703.3521327585594L847.3184787287644,703.3212837541237L846.8301462585338,703.3862634969176L846.4939539413024,703.3049735230054L846.0817557306311,702.9754696870276L845.827188823079,702.5546920156122L845.4581171927432,702.2580968640759L844.9587942542306,702.0778349966581L844.6362663653256,702.2240628139057L844.5956019761165,702.339555449235L844.4399812638658,702.7815064144212L844.4432171501197,703.3435199637269L844.2214878220375,703.740604683873L843.8767182147826,704.0426821831983L843.3663660755415,704.1216490034763L842.9308004373885,704.1362446534421L842.4244410222013,704.3386599715052L842.1155188205803,704.9983217052828L841.7773313390794,705.6279147073487L841.4934210478268,706.3486048487734L841.40412636071,706.7535172510725L841.3128831823378,707.0966640798425L841.06577227963,707.3831492240263L840.71098191399,707.5185925869886L840.2740503695883,707.5021288920143L839.7880047094848,707.5490969874197L839.1912851290405,707.35230635783L838.6744280998673,707.2456043700595L838.4356244394819,707.0060789289469L837.8931759347844,706.9001576023542L837.4574207033676,706.9143875317862L836.847258057545,707.0888583191305L836.3404238168843,707.5418188795175L835.5769358143018,708.7653698351351L834.6951962827691,709.7695718381472L833.205948194799,710.3915345140401L831.7488731848107,710.5925587257802L831.3346009394945,710.4819880300356L830.830600748302,709.9722071066587L829.6414620094856,709.4466334223566L829.5677523338389,709.406867925679L829.1108037080209,709.160322506568L828.5616899483371,709.0847361036566L827.6137948734918,709.1452046925567L826.4212979345183,709.6972717282008L825.8198619743204,711.0005804503478L825.7843072891644,712.2603440974117L825.917646845747,712.4209614139318L826.47668489776,713.0942690880747L826.9108442834962,713.7178442134629L827.1028806368978,714.0680290328108L827.1533780957752,714.3756509252055L827.1150105645916,714.8400072936578L826.8959008904031,715.1781560363098L826.4776000642672,715.6286466230353L825.7836753134243,716.0980665453956L824.9843879645913,716.339324437519L824.3575263712618,716.0739584552416L823.8800271661225,715.5283549278827L823.5909021089448,715.5763233445821L822.9331209476034,714.8597566631724L822.6989848136375,714.6787534067832L821.4154517832146,714.2262522906383L820.9171987349467,714.2284248525247L819.4853089697517,714.5891112038679L819.0272528807012,714.9357693699922L819.0321823769907,715.1014347622765L819.165970138687,715.7512446957146L819.3087575966191,716.0691613603028L819.388765637377,716.6218121176516L819.3515248407123,716.8557839028927L819.1958264512441,717.1699344428202L818.9716704598333,717.4285674787159L818.3515912603693,717.8235363654953L817.926981664902,717.9605616555011L817.281009120456,717.9128790578363L816.9888516183174,717.8035824837921L816.3732811148818,717.4615612836375L816.2380353545957,717.3303851584135L815.8819711577164,716.9850025016592L815.143236866921,716.0778133494794L814.7574530544113,715.8925738768746L814.5172029325331,716.0037885452791L813.8177508180592,715.8075370161512L812.8757529979077,715.2159395661565L812.117925719321,714.5811960586557L811.8494910500763,714.2979781801745L811.4774648107127,714.0161862572154L810.5576965704305,713.6807477921358L809.2286704354574,712.7929711802944L807.7280856045478,711.8900199677055L807.2395966679946,711.4969449499768L806.8794626821989,711.333998394404L806.4433936297387,711.3461489515807L806.169591033419,711.5612054072856L806.1166835291998,711.6027586489408L806.0030049013803,712.1316251877308L805.8156005981764,712.7427934641839L805.6819590364657,713.3711596239996L805.1807166712632,714.6383321547559L804.8388777986204,714.8996663722304L803.8770092538623,715.1286970669996L801.6295599241168,715.4666464172958L800.3091612994392,715.9947496316622L800.2447680008687,716.0204956658436L800.0879870051228,715.602668898992L800.2568687996776,715.1960336850167L800.2709086702826,714.7626377930917L800.2007521965625,714.3861295370492L799.6144262738121,713.8185396550261L798.5113860180851,713.340890010677L798.214033661637,713.3329126843931L797.9574412410092,713.3397219777612L797.8475279211266,713.7051154266599L798.0292544364911,714.1109888348749L798.229406118564,714.5651414736438L798.6128619867618,714.8069768292237L799.0243266483983,714.8269424001799L798.9596940483291,715.292614535403L798.8917555705274,715.6346639887089L798.6906356962934,716.1292148940363L798.6205980327046,716.2889452971642L798.2538135345113,716.7653369628061L797.8379609807303,717.0822196022029L796.2018708742105,717.8135766997372L795.9929941897864,717.7531412927787L795.7736580960423,717.5582251649164L795.9260625857999,716.9344377219072L796.1612274496922,716.0128387162029L795.9660108144101,715.7429200494017L795.6435010071915,715.5289968828376L795.2937801570629,715.5749164820231L795.0066060513861,715.6457992068503L794.8213731290601,716.1750584851836L794.8159589067852,716.9185538966767L794.1646826783252,717.7720840323668L792.8351362405544,718.4720836872159L792.0740813632776,718.2416127352166L791.624094777652,718.0491289829969L791.071693327138,717.8127821465529L788.6593072590264,717.158480324751L787.4424404200196,717.0645675367549L786.8657485133672,717.0199804856388L786.8556163233767,717.0317257935238L786.7107379624879,717.1996644558114L786.7284877825825,717.3368897963561L786.798863661476,717.5428999176838L786.9939112550214,717.7918024480591L787.1846196503639,718.4104986625374L787.2246273051331,719.1355289878518L787.0112277309122,719.4550784564819L786.4648420830069,719.4323811035722L785.7744618291497,719.2172503321472L784.8098825673845,718.4761717084139L784.2496569628862,718.2000217513464L782.4069475319599,718.356883904858L781.3513345427317,718.5717590796472L781.1175428158449,718.848106113614L780.9589923257773,719.3967599819972L781.3298294493038,721.1646313964459L781.1088649537005,721.477931316442L780.4230072720252,721.322022832974L779.4810079150818,721.4037439289514L778.208865033907,721.8755251639557L777.8663713014661,722.4513806234609L778.0720869905265,723.2042648861295L778.3359530855804,723.6393913939969L778.8974055450684,723.9842979899238L779.0655712737976,723.5310630163508L778.9516413827225,723.2135660062356L779.0489709336089,722.8271174784309L779.2503926463135,722.3421860228023L779.8283083187141,722.0404137193201L780.4740012446804,722.0001275721437L780.157281074542,722.4488004864064L779.9482537159339,723.0694316425719L779.9658408402964,724.4702246845127L779.8141693233182,725.4421456650298L779.1001146719168,728.0576218047678L778.5209645263585,728.9681375103347L778.1344033515874,729.4207877574952L777.1635179889596,730.0212084212783L776.8697625682213,730.1418404982938L776.0355411041476,730.4843265800091L776.0349191543323,730.4845818686705L775.6306296259211,730.6505127654312L773.2557268350902,731.3640273163483L772.2683130225236,731.2983331893113L770.0079970890108,729.8196945045079L769.1487547340809,729.4073814271928L768.9175359588273,729.1518543986261L768.2020920291104,728.6768730623385L767.7049480482257,728.6454917708381L767.4689866884523,728.5620949998402L766.5415592595368,728.2933277021688L765.333661137884,728.2156233984888L764.7072061175913,728.4816874009831L764.3910148311141,728.9931911297741L763.826891764347,730.6831434740398L763.6843854868677,731.087520796444L763.3552432567342,732.4718427992573L763.2234737330466,733.3110616490349L763.33963722441,734.4550348397378L763.311652106875,735.3152888952875L763.3087619550579,735.4041159026501L763.169829188571,735.9975483266569L762.9969785107061,736.7357273543124L762.2230704399648,738.3553626721459L762.016701518378,738.6727887379398L761.7496410827817,738.9090181261508L760.504521811982,739.1652720253988L760.1535935007552,739.3635485579944L759.8056677436998,739.8384543763822L759.2707777545949,740.0940596934131L758.6177634592115,740.1905819279671L757.7288363928683,740.1003695429905L756.9901031830284,739.4646248913659L756.8746311272952,739.1324865472482L756.8417459426337,738.1794731218922L756.3849026844756,736.7694922448704L756.0624769688013,735.9965354594337L754.8992287294815,734.7632386878968L754.3408719016302,734.1710585931852L752.0486278579209,731.9637568493503L751.4602333597678,731.2913931145674L751.0536083712122,730.6723886681956L750.8702845944878,730.3932778497801L750.5305552287274,729.2306080115321L750.3586357036554,728.8241155876362L750.16089020917,728.4461577906468L750.0700351916505,728.2724903997153L749.7513269093575,727.8593340376107L748.8673638260991,727.5118298911095L748.1126356016943,727.431968627315L747.5896840695636,727.3026521191925L746.7956546248795,727.2193334852892L746.723472899278,727.2363522634629L746.5112687465154,727.2863800564804L745.8576254732833,727.9332421338718L745.7586813758425,727.9682442478079L745.5237290075432,728.0513529829556L744.5123187124241,727.9914076530902L743.9084752001759,728.0512025233047L742.412221005334,728.4177008744465L740.7671832008789,728.5065327326306L740.5312245456751,728.3884290778209L739.396232670493,727.2905351194667L738.9177963586927,726.4182596063782L738.9156530383744,726.3157669232254L738.8926635962441,725.2163731294519L738.8853400103924,724.8661283880799L738.8027092329702,724.2774210857383L738.3977492200227,723.1445127362875L737.9239821713868,722.2096331167351L737.5941607576729,721.8283230036501L737.2927133856957,721.6612620342491L736.9602777806358,721.5706510726268L736.9447426553396,721.5664162470115L736.8703827238193,721.5461453932498L736.3371366117013,721.6913922587055L735.2921293355537,721.9758927012357L734.7547799681561,722.122111863121L733.0113429974507,722.2372421106169L732.2415577199645,722.1680988785284L730.586036044389,720.9532707309435L729.9015153242215,720.5592128428923L728.9298110324978,720.0994374109054L726.3806749230715,719.1423795846192L725.6623211413672,718.5954850025796L725.5732470661596,718.3108360324451L725.5979395154328,717.8472386825642L725.6846281445584,717.6312282634608L725.6926647431286,717.6196474524629L726.0886570022003,717.0489665926754L726.993156651213,716.0050327084665L727.6145358011178,715.2876391347794L728.7951953187306,714.7387530564578L729.2916697246317,714.4135731041425L730.1157548850546,713.6254482005135L730.410330678926,713.1212846136013L730.4269888356961,713.0748657494087L730.6464219472552,712.463349802835L730.6305413870418,712.138713816588L730.3358450158034,711.6556562287103L730.268035205705,711.6432327761951L729.7545761487507,711.5491376276925L728.0677540193121,711.6986272993709L725.9124308369503,711.7645722299684L725.6725113522122,711.7718685956125L725.4598219922174,711.6435463600733L723.827558360517,710.2007878359186L723.6052077416921,710.0253271338117L721.9747126002756,708.7382199014226L721.4520769402441,708.6622776463419L721.1319848557889,708.7125161630838L720.7398076580332,709.0003337342054L720.4181449909141,709.372032717839L720.2100371034921,709.8155867608368L719.8781325606457,710.7740357768608L719.5843306285808,711.6222521594592L719.3175220112836,713.2953738884901L719.4900605754784,714.3474368151004L719.483372463549,714.7331912154309L719.2142431598998,716.2651794312592L718.8302100648564,717.4257634713478L718.5483485373877,718.0781353700634L718.4117937753771,718.286829680183L718.2771620270488,718.4925719737871L717.5442535382871,719.6123639615729L717.244538450984,719.9185350188021L716.9871630353636,720.1814254298055L716.5655099587515,720.4605634187258L716.0720807167795,720.6662719229431L712.1930076889877,721.5458756383802L711.2686792536454,721.7031633005394L710.3956535934756,721.7497098263897L709.8559128773519,721.6101300526773L709.6570814885188,721.4604470534744L709.4885246963562,721.3335462727152L709.3344610996218,721.0367895071753L709.2222727896738,720.7725388144244L708.6077262378428,719.3247011548385L708.5462978703534,718.463679200124L708.2529805209776,717.1054310094678L708.1357057180452,716.8061788240086L707.7924179757715,716.3319156663778L707.3992627589132,716.1037596161193L706.5352317720998,715.6022176439412L706.058199221141,715.4917159525012L704.3894844810592,715.1048697552001L702.1452531694327,714.8267928892113L701.9465670065409,714.9893715817301L701.5432365044712,715.3193662440973L701.2745649339552,715.7337925566751L701.1618754525055,716.3968485826732L701.0898531638231,717.8952572786869L700.5982926703554,718.4468816336284L700.0577470303411,718.6988314162766L699.4213789497622,718.6672138078976L698.2154661353312,717.8924470828802L697.1813064773041,716.8792340146612L696.2760476245849,715.8425266384819L695.1249534583682,712.8461943426827L694.7633369428914,711.9044222631898L694.5842577674366,710.9957015403601L694.6527060276153,709.5520204886732L694.5538848774331,708.8014613001251L694.2792314000027,706.714767219328L693.9216050040791,705.564673763775L693.5885701403848,704.8443010632889L693.3381502778421,704.4563978006864L693.022928071306,704.0856466893235L692.8766346791444,703.9135663024242L692.2981893808522,703.3854234609796L692.0290544873928,703.2312090954731L691.6246526600472,703.1444612141627L691.376651384583,703.2054231523384L690.460030625374,703.6976643306377L690.1688556934996,703.885542498519L689.042346862467,704.6122103926986L688.1594663221454,705.2658424931013L685.8354007885931,706.5107990468537L685.6894572984914,706.5257903817744L685.3237111278047,706.2847476138431L684.9878734645137,705.7123001997858L684.8382199683963,704.6598269446654L684.8758313189091,704.2901297716476L685.0250186584312,703.8272964838218L685.0158365064285,703.681538734683L684.7937462306307,703.6557334617733L684.0393084870535,703.9001117028174L683.7020675276486,704.1772896503783L683.3078110268378,704.6671949287236L683.1854863790008,704.9332627991129L683.0982631126489,705.7098058905143L683.244153959851,707.0576532618301L683.3664157767619,707.4819497795862L683.9860927015532,708.939596197877L684.442868295743,710.8291652303951L684.5708521870444,712.607898628552L684.4692722103988,713.0520851880798L684.3933868623413,713.3838821918454L680.7037835371322,718.4831599794951L680.0117278145937,719.3149373401171L679.445928244788,719.5916566219923L678.2877044831644,720.1579063837357L678.0120613123,720.2302089418495L677.4452635579972,719.9841117517994L676.879157370203,719.012289480137L676.3039298179227,717.7389780400506L675.8397744904386,717.3716371773182L674.8839540165409,717.0918659530033L674.0125991664355,717.3496842772922L672.7339243685094,718.0522656943921L672.673146351767,718.0856516348359L672.4202985306257,718.5890970350615L672.3078797174062,719.2872733789648L672.6287196807809,719.6868792095771L673.1255772822133,719.8922444745103L674.7424272175945,720.0256902169554L676.0346493701893,720.3847280120898L676.6532945242107,720.7811585083768L677.0869048831127,721.3475968706014L677.2359413867364,723.0655856669982L676.7101402423369,723.1673323948902L676.4521906947463,723.2172312640669L675.5604407907323,723.270535168341L674.9433493160408,723.4986174699976L673.7164230576307,723.74748157545L672.631107683395,724.3140861668019L672.1595047479518,724.9655069298609L671.8571005515065,725.7432489626983L671.807591551098,726.3562958134582L671.9654036811353,727.063793849883L672.6830031891909,729.1430352758281L672.9969153644897,730.337890099408L673.0726334458591,731.1068061896644L673.070308958128,732.06135988054L672.9309018911795,733.149231073071L672.9055076515236,733.347364549144L672.3488410274197,734.5810744794625L672.0035130921207,735.15854083536L671.6507027102343,735.6049632327863L671.2707414393294,735.9319397129084L670.8007774898578,736.3363023691063L670.2913058546287,736.6625624053133L669.790518003526,736.8737981393961L668.8828475648859,737.1072372871688L668.3029843355966,737.1435570999256L666.9756310400993,736.911780281428L665.5964435488332,736.4596814170814L664.9363896335556,736.1184941807046L664.03422496896,735.4717759929651L663.9947758628006,735.4434917277499L662.939354903012,734.3028340213161L661.8059907908571,731.753944029377L661.4026380148052,731.8073408405456L660.529927873048,731.0220828311183L661.1136670071211,729.8113053304876L660.7471890186536,728.1486852970686L659.6170477031848,726.5620475351213L659.0063041291127,725.2119015350368L659.0861894078665,723.4944717125477L659.2464214669523,722.5745310771747L659.6839117197235,721.8063267659305L660.3765638905245,721.2474379464635L661.2374690760807,721.3003288531772L661.8023412350352,721.2301984882465L662.9267633376305,720.6721286342453L663.4784806040751,719.9639924901246L663.4954389262303,719.000422877276L662.7943636568284,716.1500777347292L661.9587813561909,712.7502925644344L661.8136339664193,712.3397783806898L661.2762942912773,711.577498685119L660.7662151678369,711.1784860453225L660.2169334402228,710.748719798874L659.4783058390385,710.1706640357938L658.876477348421,709.6995474713985L658.3230065637601,709.4539966682088L656.9017935376816,709.6171738665817L656.7478401441373,709.6348310468329L656.5216669360693,709.6607644899483L654.7281198055598,710.8336088079755L654.4003072666937,711.2785063074276L654.259395154069,711.6617359261035L653.9246367050787,715.1782960479624L653.3493032516934,716.5425925454424L653.074097071981,716.8274759270332L652.0959222057559,716.9531209975694L651.4937033662591,717.5394333420517L650.8815051142469,717.5492188115721L650.9087280683254,716.8447405113807L650.4731587266205,716.6611716495011L649.6760107424712,716.1110889031629L648.7187636765094,715.0162659224659L647.4031677706407,713.6250114417469L646.8730086718517,713.3347553482115L646.9098561496795,714.1045622148774L646.9021871450032,715.295834819918L646.3889911912174,716.3364666054433L646.3171261909399,716.3789873706318L645.9468788281306,716.5980342795553L645.2897866836666,717.4545613957091L644.7381237096781,717.950964774431L644.6118019514855,717.9049510400615L644.0564388114059,717.7026203709989L644.1964299341707,716.7387794809058L645.3390632750705,714.7421614133528L645.0637185465185,713.9870930231068L644.2953831393768,713.9385127388164L643.8976130467133,714.6477669297925L643.5241262985661,717.031065961927L642.4740182662391,719.5672543229816L641.301375209257,721.5008526789748L640.4938904569885,722.3742645796831L639.6346681516404,722.9765780910226L636.1169835408348,723.0520424310516L635.2998851461948,723.0692990648068L633.4352678049547,722.9947358488186L631.3856993209473,722.3872518514116L630.3591796535875,721.724431198043L629.6629377110577,720.8826740235295L629.2239007364507,719.8811045363389L629.3819186486469,718.79609916879L629.829026667436,718.0205002642612L630.5385541286016,715.8187829235324L630.5959462216782,712.9684022570366L630.2902033131505,712.4393496695022L629.772650638909,711.5436002827889L629.5058617244068,711.2217266323063L626.7714057359387,709.5780454794906L626.4862945680219,709.4065618471611L625.5213398997159,709.0914438669288L624.8164610588418,709.0377949230203L623.7804018089604,709.4492329214587L622.9118961197219,709.7939739352665L622.7124142566084,709.8731350315387L622.0068332526475,710.1354751856965L621.146052315752,710.8552588517668L619.9294842994323,711.5905323467384L618.970420735607,712.054931673048L618.5703321664732,712.1470986753633L618.1926150998509,712.1721551758417L618.002350898858,712.1017582434372L617.9294833257735,711.8594031443283L617.8893388711144,711.8251314456404L617.6711169552373,711.6388241068987L617.1895721698559,711.5465991947203L616.9862626913844,711.5747336707859L616.5620026701482,711.8603652886878L616.5481012936145,711.8697235457455L615.9033470185828,711.8743555103644L615.5572096820447,711.8093607118298L615.3610271933851,711.7061592942816L614.9967056142451,711.5114375025045L614.8225175147276,711.4183274210008L614.6133518729231,711.2170679399774L614.6230551687013,711.0831481355592L614.5662653045488,710.8440017554349L614.4209358617593,710.4259466228967L614.293509193321,710.3512422072495L614.1039025945602,710.3543878041105L613.8029278997243,709.8447290924927L613.7085507203981,709.2739278316291L613.7248658073594,708.9454289062188L613.8205268355176,708.6841784504957L613.9444510900165,708.5663597010042L614.3580861740586,707.8368588755999L614.3935862428605,707.413078680514L614.1529947711028,707.039769300769L613.909781159602,706.3443889278262L613.9103007917324,705.9937988098086L614.0697320738691,705.5540148507885L614.3365748549189,705.2739168221741L614.3750225560825,705.0731629746019L614.6738896848515,704.5413683574747L614.4904169812379,704.2318383763941L613.823564309956,704.1726259143321L613.4470433458944,703.9211648156333L613.2826666288045,703.5639201184599L613.2748263686701,703.3178839486885L612.8870329231886,703.024639087297L612.880858769159,702.8781045620491L612.6908847103045,702.7120044570426L612.3394408892472,702.2812005101105L611.5941935832685,702.076064727099L610.7356971275209,701.4627811742374L610.5553948622535,701.1980129226819L609.8528580428602,700.6978561085771L609.4952278783611,700.4431964088261L606.9107117030184,699.2911575719032L606.3023697038018,699.1043513330868L605.1165778909376,699.0239135288668L604.9781654179116,699.0723469416357L603.239930204824,699.6802925815441L602.6517112977891,700.0827887687037L602.09351062882,700.9667309753833L601.3665250854464,702.9112927660368L600.7244414207097,704.0692587003507L599.9022407550539,705.0862597725231L599.4170699818958,705.5372769689993L598.9151924394916,706.0037357880465L598.8249712075682,706.0710106766375L598.1069260701056,706.6063492826931L597.9386200460903,706.6472486763142L597.6118248472745,706.6203738248716L597.3901677964167,706.5016626305486L595.7180277913326,706.5459398198416L594.5833685570726,706.9098655684309L594.5933597879746,707.4040374463066L594.9161257410777,708.1900831752846L594.9621626656914,709.0798156212934L594.8657878048283,709.305713965701L594.4541757733936,709.7148436415569L593.4258440572121,709.6901903773602L593.0988491951363,709.1691583899451L592.6174690831099,708.9428789272099L592.3308874682616,709.0296718032835L591.9917105280189,709.3442065461023L591.8777818230051,709.6148011502315L591.8766062154732,709.8407412191618L592.5331981861156,711.0151195637536L592.6051538897163,711.7937893255122L592.5578115644959,712.3300310594732L592.293020500136,712.7580996581871L592.018926998231,712.9892259859598L591.6360447647387,712.8223643177753L591.4317567676794,712.414561414346L591.3219303771679,711.9167596666048L590.9866309566166,711.727567075469L590.5160067079971,711.7768327306242L590.1240382223563,712.150082904499L590.0245960314026,712.4748037898162L590.0588223377944,713.0626049862705L590.0810614980692,713.5818518646455L589.9385352384311,714.4632632970058L589.6134635745677,714.8519619746398L589.3728423118862,714.9572999862584L589.1111682021415,714.7750666680865L588.7974516692569,714.2922825058588L588.6264826946701,714.2071973801874L588.3452371309174,714.1604680963417L588.0179693459132,714.5749695275433L588.0159877164253,715.535624562508L588.0351898609176,715.8539759819198L587.677095985237,716.1230638570848L587.203611072828,716.5973134233948L586.6583406536051,716.9761206905596L586.2544552917975,717.5478337438851L585.7371391283887,717.6474742192548L585.4148940024951,717.7375596151218L585.2216365972058,717.6575198742437L584.4969434287036,718.0042719125013L584.0099847200404,718.1917267468729L583.171966817918,718.5142168831994L582.6111789019802,718.6778293046136L581.953478002364,718.7280470891238L581.2674668149097,718.5513584236464L580.5985134359721,717.9720044155305L579.8861331508573,717.6795200998515L579.0365972372678,717.4563230387423L578.0326175505131,716.6765485722283L574.4327273901838,714.4663162084325L574.195440416132,714.3687667897804L573.7412727889688,714.3715593489823L573.3085051278836,714.502058484494L572.7587100707009,714.561527703516L571.9245038423004,714.4495367003381L570.8486286323192,713.9878072756885L570.1136690627504,713.3948734647662L569.6979677268043,712.9400756896958L569.6921149072953,712.9336718727873L569.4820519202549,712.6164665792884L569.0178401335809,711.9153743907L568.9432679332085,711.6977486102195L568.928016502946,711.6532384846898L568.9329983893766,711.4268829245152L569.0511728025695,710.9685827649536L569.4722519867545,709.941965610318L569.6100714006103,709.7836100731762L569.8227604002283,709.7853032254143L570.2586932662181,710.4204116440688L570.6341314698407,710.7041460704584L571.261091772882,710.5146490850701L571.7088833756364,710.1068376213875L572.1133387058247,709.5393854002164L572.5243531839538,708.1619380726395L572.6475080655886,707.4517730031898L572.5727455661995,706.4819703853377L572.4504782502875,706.2959909342079L572.3304023858778,706.2376612977189L571.4143428307558,706.5013439282498L571.1223807486813,706.5053000708181L570.5205049602707,706.3696578787603L570.3691254205596,706.2600836055229L570.1909082599922,705.9270274482809L570.181117401026,705.5730080096329L570.278869731048,705.4431614949885L570.3575776829102,705.3386080679746L571.1604132100186,704.9466648021378L571.7874266453001,704.3206281268598L572.1913560489586,703.4091196478407L573.4905726429855,699.2603343474523L573.5175616037305,699.0598071677223L573.4328659604625,698.9348965866087L573.3064726053633,698.8892220676457L572.7153537985132,699.0150513582557L572.3506834612383,699.0090035784383L572.0660409141813,698.9078865371795L571.5275553625962,698.4319652828308L570.9223322647946,697.5512185131631L570.5441451174488,696.8658803531099L570.2570761069543,696.6851159489522L569.78623085945,696.865930957023L569.2559638100608,697.3395548821629L568.7250307092173,697.6306428726634L567.3015475033122,697.9796858615794L566.6123549241138,698.1485555015665L565.0160371999219,698.4343001747735L564.0712705733754,698.4875794476211L562.5208316909354,698.4588980039528L560.9003471705757,698.1111409443356L557.7222454415984,697.1645684558763L557.4443351662549,697.0438332683198L557.1082708599641,696.7312138304042L557.7532530263964,695.9987234874658L556.9727104909391,694.8119079525025L555.9553321765883,694.1546286386794L555.0696969211389,692.7215755538308L555.3900502572475,692.1165516907142L555.5042000545711,692.1250089566668L556.0275552028019,692.1637579673443L556.6704088883207,692.7701003932818L557.6602558305392,692.4013553537385L557.664300749306,691.6973831102365L555.9169572501773,690.7166347389701L554.1535034960791,688.8009104916268L553.7644084842801,688.1314059426904L553.5214639137457,687.4250323449745L553.453275419931,686.3615648619283L553.439955509434,686.1537913314664L553.6316187947939,685.7100363830247L554.4848558175164,684.7945618480879L555.3912500908428,683.8217113114557L555.9735116636133,682.9809949613889L556.4681182475755,682.0281768309602L556.7868328512388,681.2358054208676L556.9968461817241,680.5345663771031L557.1100976789871,679.670057897305L556.8557284690163,679.1487357982126L556.6733292592806,679.1617188182332L556.2063926924545,679.194931351222L555.8794653706955,679.2181650135275L555.5777518475477,678.6835159130478L555.8886934640451,677.7226473218503L555.7372147404152,677.0688290915199L554.8833095657145,676.0481964119143L554.3045565107377,675.9562775862296L553.2847550177213,675.9709215740527L552.4235151979857,676.5179390995783L551.7303927949245,677.2795967703887L551.4714162754011,677.7192900594076L551.0287038355999,678.4708025727593L549.6728224889536,680.3479590821194L549.3174250709404,680.6587578521498L547.9603943771733,681.5174245782368L545.3940474642992,681.2662883834812L544.4043704677558,681.1108215884869L543.9877327413993,680.9814965518904L542.5284591485663,680.3869885655683L541.7135690933363,679.9218556903197L540.8740225526584,678.670240463353L539.725922724692,678.7829088086796L538.9234342258557,679.1036893201257L537.9422711560536,679.2621847773465L537.7718236719228,679.2120790251515L537.3445157650561,678.9641027900317L536.8260775770835,678.8899029402777L536.7024160612267,678.9009857415341L536.659317439187,678.9150964383973L536.5814665170496,678.9405843569701L536.5084821839173,678.9459700922489L536.2120817334063,678.849351950359L536.047187339217,678.8566567178194L535.59836135264,679.0125584158899L535.4121655531407,679.0292786134204L535.2019119700117,679.0481526532546L533.6449674443563,678.7108270646154L532.9228148106685,678.4839276087957L530.81527450812,676.8082830259378L530.3818019697624,676.3436480163359L530.0552007702347,676.1575553092405L527.4527984726786,675.6210938254881L525.6345814582556,675.2456233948437L525.4507025124014,675.258889671387L525.2337428167037,675.3669229061169L524.8801105769811,675.9248161379842L524.4213294211766,676.1089279050705L524.1393087253969,676.1331233425458L523.5915938693593,676.3120327719964L523.2518235850109,676.7518787066701L523.2121474126556,677.0503376122176L522.9488983845179,677.4534768462604L523.0398230748519,677.8972535363696L523.1831070096799,678.0491485868541L523.6284900095573,678.3173729388129L523.7527102412963,678.6662425491311L523.76927496259,678.8193307328067L523.641055649002,678.9062290467604L523.3981319710359,679.0392469484682L523.1371437268701,678.7293202599483L522.7477493051242,678.5193241749048L522.0148456286591,678.7714615061379L521.3112137881386,680.0220170867526L521.3645819202181,680.086515317126L521.6321338038658,680.1438995235719L521.5682066143156,682.4815614693921L521.3982541249356,683.1171340088558L521.3118364936563,683.2451299822707L521.1213551121547,683.2961198295246L520.6003574586698,682.9420498560324L520.3035334964335,682.9159630044328L520.0647991797402,683.0467415449106L520.0451638348691,683.2839347815265L520.0854136595997,683.405641094455L520.2552128841928,683.9190319874529L520.0124856899101,684.7508189487602L519.4854765254261,685.2862301441187L518.9842166498998,685.5322235461794L518.6257621205581,685.4527774411295L518.4349501753557,685.1777379584023L517.9867240809539,685.0639674753511L517.4668402932514,685.0853257880739L516.4080605565968,685.3739043299034L516.1377167519283,685.7978842479882L515.9789164054848,686.4389440220116L515.6686544418399,686.7072595272847L513.9373903336982,686.6341161496683L512.6497085859062,687.9333086584109L511.84186631776555,688.1970834901964L511.3489460752247,688.142802316755L509.3176399115164,686.7479588460318L506.6105387473652,683.5586896826939L506.3456342108657,682.8752904199052L505.7153918414941,681.8213206821928L504.0603940360032,680.1241263819832L503.72135240682957,680.0888446034595L503.3861470023887,679.8689467487416L503.2520198616934,679.6194923786245L503.0775669299327,679.5380997967237L502.96101805214016,679.5151874708347L502.91748174083807,679.3665191795075L503.0202240647433,679.0495822127982L503.20112552406795,678.86848886373L503.46889914320684,678.9467744290755L503.68763573322144,679.10679794401L503.97404243888957,679.0391043277148L504.06770262774364,678.9454095957782L504.16882217869124,678.625794686186L504.1393646743493,678.3387470721125L503.9734900082225,678.2305924752901L503.87692677492885,678.142912492402L503.03042061320355,678.1777760599213L502.2359162849009,677.4814732873403L501.6526365247181,676.4997769622346L501.12452746543767,675.951873819406L500.1677872993873,675.4657958064536L498.55287817801945,674.2892458008157L498.0707103344074,674.3244787096678L497.5031001096983,674.6921895976895L497.3519937210532,674.7478515684409L497.1585015761633,674.8191206301092L496.5946340342,674.8273409200884L496.37907821116414,674.7818334109602L496.0299840373184,674.7081174109376L494.4264955735026,674.0614035387013L493.57389826566396,673.6394293127131L493.0164702733721,673.6405213408245L492.7243295668055,673.8189822265072L492.12772176549163,674.4810724575443L489.5858266047893,676.6120397907872L489.43362878128517,676.6646865601012L488.80005526582624,677.11604390237L488.6203016000197,677.420955501614L488.03862074189544,677.9082387249216L487.7178975627336,677.7933119994634L487.359365875615,677.8174762087742L486.94553913536333,677.4648780434851L486.6159381696634,677.4705856220635L486.2585792340077,677.5903040916351L485.8082329697955,678.0581333485845L485.5188617628153,678.1059224326555L485.3317976444108,677.9651458475817L485.3229477536811,677.7898844419353L485.24487494446566,677.5876969675733L485.11519594579636,677.4320467387424L484.95199547366326,677.3586129762969L484.75832951922735,677.3641240290974L484.3530297227377,677.5079801962002L484.24826211547247,677.5184738079962L484.0908101316154,677.4769607554819L483.6880462247809,677.4937006749317L483.4683730110984,677.4002324140208L483.0245371588945,677.4125545931277L482.8867546199807,677.4859333225374L482.7260631313877,677.737206682862L482.67139237165907,678.0669674776406L482.40408762784114,678.5609964260858L482.1103520736551,678.8134963771196L481.2641820206748,678.9742013705807L481.0955162127042,678.9600262792437L480.7568566807754,678.9315510863777L480.3748232949709,678.8994074421306L480.08117494277053,678.576129027034L480.1065288848747,678.3029631808662L479.99425100128667,677.8132822406567L479.85619534816743,677.6160658293863L479.4306211679152,677.2464602717014L477.8503176465715,676.6748001754204L476.83878014291895,675.7574389218712L476.41453810356086,676.15500938483L475.93014888895505,676.2773311009453L475.53827800585645,675.5585911127603L475.0226857518051,674.7063957077197L474.7536572022585,674.4264556547546L474.0560320103989,674.0568790557004L473.7889520168485,674.0982605182505L471.98183065370904,673.4925616526689L471.8634453754827,673.5407273064865L471.7154730114478,673.9094907585409L471.3237982851781,674.2630035462845L470.8673610690619,674.1408230756376L470.6958181394032,674.0318335310476L470.54091416834444,674.0153398837213L470.407904688485,673.8817072466187L470.14984936922053,673.7859799308666L470.06075292508,673.7529261228005L469.84325214101216,673.7824179169025L469.6142196749863,673.6942423377377L469.33008527437266,673.498737582926L469.16904001412973,673.4991488750186L468.96772796404434,673.567480929895L468.8963922923581,673.7695377822599L468.81355605154124,674.7253744333624L468.60803754234576,675.1120180401851L468.3266857902105,675.2166008110792L467.6888949568242,675.1282576705499L467.11004344575997,674.5638107829607L466.93311974012806,674.2731539539454L466.92826572598926,674.0821596982826L467.2530582666353,673.6157247773137L467.378722944264,673.2623535370054L467.3474338277444,672.9816862274002L467.1943297494762,672.7616587347134L466.97618503484864,672.626016456333L466.81079885514026,672.6120936357237L466.2316483530285,672.6315946374536L465.69248645694546,672.5396592451839L465.3621126268024,672.3245117458948L465.0060931505827,671.9074471840272L463.04838033451006,671.1426386929257L462.03193875063687,670.5153219981914L461.7653398679111,670.2857952333733L461.49586964987424,669.9257769321931L461.4624586062249,669.8747292789994L461.01738194590564,669.194633251999L460.9437110008931,668.9797233130432L459.596785599425,667.4181451758478L458.45762516278523,666.2787721006241L458.2357773350128,666.1482355141395L458.21819475448234,666.1378893177884L457.538442838341,665.9529281043336L457.26972067821896,666.060479430742L457.0895524777958,666.2943239302688L457.09719721522237,666.9785143659398L457.0467950878516,667.2157569593426L456.59488134584797,667.668440975444L456.2847980123344,667.6636545134618L455.7044125823403,667.3336167811414L455.43262571152763,666.9480722328401L455.2062851168476,666.3950180845991L454.92583173204076,665.3668079283192L454.2588832074455,664.8437703488205L453.85222080096753,664.7760452800065L452.70065210557914,665.2992931958763L452.382277031936,665.7318750557611L452.4204522802114,666.5221306936464L452.0827035011058,666.8095264294409L451.2338868495725,667.2622694844139L449.5374154521844,666.888019445582L448.5856623153222,666.6778486228093L448.44782329066754,666.7376678308897L448.2637226137383,666.9807618270329L448.0244385545303,667.5053482835843L447.7264255080942,667.862932759695L447.11572157965384,667.8459513634896L446.0583556649286,667.4889192672508L445.97883338954284,667.391306055444L445.9440887638781,667.1580153819455L445.81517216747295,666.9000287280217L445.1268747183724,666.3749642866837L444.0462798399718,665.9535216723602L443.63931472555015,665.9008300370626L443.0489637826307,666.1735509604235L442.55019379318037,666.2926021990793L442.178521690254,666.1652781961113L442.10841211769116,665.9652752364726L441.83508621024976,665.8047627553926L441.53294525805484,665.91043875299L441.25215143583233,666.2012549418529L441.0164783549059,666.6644354486068L440.5411576759395,666.7598456221378L440.2000209195459,666.6452204654145L439.7948015005186,666.582892087838L439.3135608660731,666.8591241975425L439.0486845719936,667.1267195555445L438.9613043074479,667.1060357500144L438.2087744709453,666.927851171577L437.84433027363264,666.7229921404414L437.69183617417485,666.5326154900619L437.61618349852705,666.3026760112704L437.6622311428407,666.0304568769849L437.8415489880844,665.641311648093L438.14219635062227,665.4307903141753L438.2529842263284,665.217670310324L438.2389480737197,664.9692739996915L438.1564145559654,664.8459408942189L438.04885363513455,664.7345161396911L437.81111242251404,664.6384673822727L437.4923263608156,664.5935064214559L436.93701130279,664.647565446097L436.8205836507831,664.8599354303421L436.5501201221359,664.9839330344829L436.4341183380441,665.1536859853732L436.2578034442473,665.2380805730454L436.1950657885576,665.4353599846607L435.79293640311994,665.9630237146915L435.3847501844558,666.2066637508478L434.75402473345594,666.2420785032294L434.5092319151564,666.003493578969L431.0330167309634,665.1454258065168L430.74551043597876,664.8060030026178L430.6880114403729,664.5083717587358L430.7717326012098,664.0433915156713L431.02660145615937,663.3576893157323L431.02432639799446,663.0141333831573L430.92165233359094,662.6389595657186L430.4478302883911,661.5528980039637L430.2821596224875,660.9595650078891L430.94610199546867,659.2936356923962L430.35848337674315,658.5290008995299L430.26044502032914,658.4014098942098L430.7065570202844,657.1438828387354L430.5403635420123,655.809119702245L430.085182417129,655.8384993185862L429.2322336747745,655.4419467143011L428.8480928610443,654.1915296191115L429.0200232858548,653.0601404236647L428.86958311266875,652.4368832883024L428.6918014472741,651.7002158621004L429.50732962717825,650.8527555797133L429.6074782220011,650.4227169975954L429.1815692068576,649.736574036159L429.0863740797172,648.8947697262572L429.1160582672768,648.1576515990446L429.1949739923763,647.965744053987L429.5604322671904,647.8975358502671L428.85646654869714,647.5859429609405L428.3808211422402,647.411774308393L427.8435934155854,647.6033510317919L426.9968681093177,648.0633050291393L426.44213433934624,647.4430069027417L427.1179615109897,646.396106862343L426.4965041151596,645.6981076314094L426.44707308008543,645.486072958059L426.44167538318595,645.2828901541184L426.37825214623365,645.1903777014809L426.25888303605143,644.9821488264284L426.1952390843052,644.4049942951127L426.2895827714682,644.2857517414386L426.32651535501907,644.0686421290493L426.1746991112328,643.8519358053215L425.7178523549829,644.1379767102903L425.5166022543988,644.2016156306813L425.3737259688736,644.2430743718662L425.0862106746904,644.0845176243165L425.04989802210906,643.9163021484655L424.97061384807705,643.713056608362L424.9955126474026,643.5676878128133L425.1972180490522,643.3786002474035L425.50805911871396,643.2752592264204L425.56925211211956,643.2174002600409L425.59517107826946,643.0055141600608L425.1643568795555,642.7133019606883L425.0669055346391,642.5904781000121L424.910438386295,642.5255717218537L424.70909547527936,642.5934719842596L424.2477231668536,642.9991747001095L424.03344780776246,643.0188178584528L423.79426868304665,642.9529579017408L423.71525274294106,642.8158526959528L423.75116688126195,642.3745534114104L423.6080523023179,642.1945432374451L423.0946464528713,642.0844236936978L422.3842946270256,641.6672016970084L422.2052178705726,641.3921746427103L421.98995292122527,641.1947482472176L421.9422059113931,640.9607484732827L422.11175215030875,640.8305243660727L422.36814178818327,640.8229541576367L423.1866939881339,640.7939713615665L423.57963391365314,640.6016907949431L423.83219021378363,640.3764362007955L423.85558347239703,640.261416445336L423.52388274402807,639.8409690023561L423.53936113856594,639.3367423783653L423.6484647043408,638.9140634291803L423.6178958342739,638.6708117901387L423.2999132465076,638.4321240336369L423.0567550626397,638.3784619695052L422.89028953410934,638.4461315107326L422.6689561445172,638.8612299389121L422.01048113144054,639.0907824525548L421.6035108524943,639.0555857568064L421.30230650649906,638.8808077598907L421.11919024091253,638.66860030263L421.17093823269806,638.3210832203252L421.1764835945871,638.0419649042985L421.0793798299122,637.7508600700901L420.7903284376416,637.2611405081273L420.62650296042636,637.1166352229993L420.3997779182356,637.0122558589247L419.862805468848,636.9061389698595L419.34944752475496,637.0484071388323L418.2825563969516,637.5982065353431L417.50792939688404,637.7813349222622L417.3492905586212,637.8188259749221L416.98294483743723,637.714931263702L416.48077747697914,636.9239874122017L416.00799639369393,635.8102513757262L415.4188369520318,635.0769066298126L414.6012706843007,634.5616598536036L413.59314263151987,633.6940315752064L412.8963924040431,632.9697469868202L412.90989330563895,632.3607978302341L413.03289492034367,632.0215913774464L413.1737582586227,631.6330924431822L412.72156394679143,631.0631174779735L411.50047103042846,630.629681586444L410.84445713603577,630.5875883727138L410.1913654910993,630.8302368555014L408.53082881409955,632.8301998334555L408.4487097078288,633.0659054304689L408.3652259728626,633.8124914498237L408.5247318056563,634.1324460107954L408.70102876919805,634.24634379815L408.6014721322897,634.646401669461L408.65158637750267,634.8416948472905L408.2362914239928,635.2309756252281L408.1661641999383,635.4287329871138L408.2380865577114,635.71611058646L408.17602526886003,635.9626562158583L408.2400133857368,636.2583693052875L408.5239955782072,636.5475105517163L409.22434216001875,637.0270965593423L408.7562262037463,637.8919426789379L408.20397686413696,639.2463720326032L408.02280172502304,641.5013252285354L407.29531407969193,642.2997647567689L406.81016092347306,642.4047712363717L406.15912132657695,641.7715638992004L405.29850454370535,641.2743738739304L405.18011648592926,640.7413813541637L404.98465109054456,640.5319905657952L404.84621474801787,640.5050641391795L404.54581713243715,640.5900094853502L404.34557051448644,640.900217608392L404.23902987458246,641.1502846623871L404.1971556168968,641.4563750089691L404.292765469414,641.8710503684275L404.1391785545112,642.0610025490432L404.0785709623647,642.1195127836214L404.0942283178067,642.3964024659729L404.0738092503012,642.5175849908817L403.7934699330624,642.6319046025072L403.62311940762226,642.5600328145035L403.4501923492431,642.5762582677492L403.3281115186701,642.472209127084L403.2479788358188,642.4826168635235L402.9810963148799,642.250152454443L402.9430416735097,642.0730150597475L402.84422149024283,642.0182944340232L402.7969692020513,641.872316150531L402.6560419040047,641.7282277669995L402.4813822163942,641.2630934162L401.6865086369652,640.0592232031028L401.5082660993255,639.9832868109743L401.4498150018855,640.028945488362L401.35341069549827,640.346410793863L401.3868828295149,640.946119470876L401.37433780598445,641.017226769495L401.2280684455601,641.1330378544418L400.87620546170274,641.158900907687L400.68936291945374,641.076258929551L400.6093573602311,640.8311018051521L400.5937127805702,640.5550594829011L400.6296211675026,640.1625594533492L400.57899256937884,639.6206434864393L400.41122955706555,639.2686019553919L400.15404834406604,638.9454580536143L399.92407636177484,638.8356463658121L399.70995180973836,638.8123345048638L399.6328575434971,638.8480307384937L399.480219687031,638.9631447915265L399.3052138579151,638.9919329013801L399.16078966837307,638.8969725982215L399.07466341693794,638.8403411718053L398.8807469675828,638.8376756392819L397.783550476337,638.577139759906L397.42569464617367,638.3233905085601L397.0303891133632,637.6077826753672L396.906885415384,637.4859302537224L396.7767951401485,637.3575728078049L396.7038354394663,637.183645016055L396.39509429950766,636.9124747220335L396.05551184310605,636.9393273758832L395.5919459192204,636.8960291806652L395.51175445703075,636.8422911561319L395.3485207926727,636.6451648292057L395.1281379529653,636.4379512991734L394.77178690064966,636.2408286902474L394.39216943283566,636.1635827023307L393.6925729343897,636.4555654486893L392.98802149620184,636.5346627093323L390.7723566308548,636.2791498047674L390.01191526044374,635.9845311764742L389.31543878826045,635.5876611445158L388.4655184877328,635.4040737008042L387.93144382672574,635.403365783125L387.2730261092755,635.6046813468644L386.7221746947722,636.8290627936345L386.5787518756946,638.1478087455746L386.6317481039175,639.1087647495206L386.5158862297578,639.4221078373769L386.35672371916087,639.6730516123099L386.2540919492988,639.8348563455693L386.0114251652416,639.9755806027255L385.62068635775415,640.2910375929953L385.23714168528977,640.7469363961795L385.21177437216613,641.0065413808295L384.7758893619697,641.3298572738037L384.2408114674289,641.0826898275928L383.9603887997915,640.9886978106053L383.6301283297703,641.0273291502002L383.4612379260903,641.1481415165093L382.8632174553891,641.1605774862743L382.54344287246244,641.2544632165311L382.3149263570305,641.3743851629918L382.00751867392046,641.379823977315L381.2536043705841,641.0142964214426L381.22759849645945,640.8671521263273L381.1553160943362,640.7753841442682L380.9304664124412,640.6206911888015L380.765220254725,640.5571424457021L380.27347055881376,640.436510867456L380.03951738105377,640.2632771796073L379.9286141297407,640.1945689954115L379.82082642840237,640.2032135941478L379.7209039277953,640.1706961916586L379.50462509573936,640.0416599199858L379.3170392567591,640.0662430418301L379.2643500775258,640.121357268938L379.1304893997958,640.395645989865L378.59471967927,640.8418804515481L377.99277151435797,641.1140027021262L377.6069214449269,641.1976177533252L377.23394836085424,641.1132159899173L376.6373971042341,640.6008082348372L376.24716519807794,640.4134838669092L375.8593841889903,640.281560940288L375.3796761933615,640.2597522870085L375.1632299248868,640.2958522736005L374.8299852566332,640.4099074617018L374.44290236909706,640.4455781430743L373.94459225831895,640.4103183343288L373.8795472928109,640.3292885218166L373.78872711447787,640.0294013723051L373.5755754588838,639.7384605165757L373.2714166418547,639.4313339961178L373.0962780781124,639.3831477588701L372.9536705927226,639.3108579442309L372.81041204903795,639.333939141691L372.6505460993874,639.2990972747523L372.51700441180066,639.077815994163L371.9892500172971,638.5871395217549L371.76256958242993,638.0796078676664L371.84978854850857,637.6257799380185L371.7678996712726,637.2160439387477L371.6275872227757,636.9247690490902L371.2077038490967,636.4257286029066L370.08267607583514,635.6956285803647L368.8963887931547,635.1600399150378L367.40934320000173,634.1959065030992L365.9782632956413,632.861286801763L365.93855909361423,632.6722881463726L366.27328961017633,632.2128709958175L366.2861944225856,632.0515055698362L366.203855285206,631.9021031205245L365.3761275875538,631.3005738085074L365.27723456133566,631.0921489285764L365.08394733257865,630.9231436621416L364.2582673550091,630.8703919152766L364.17355477863765,630.7781137599266L364.0096489151368,630.0729742971896L363.88544252884356,629.8647603853524L363.75466673904884,629.8181412224634L363.63615453229363,629.8576621471769L363.3233284764307,629.7020379093381L363.09139749977516,629.5021685790641L360.8651394717622,626.3195292299094L360.84232213636835,626.2576022737703L360.41052082347255,625.0854746062007L360.4898974701709,624.6919759034445L360.66771624474177,624.439138252796L360.3947556869828,623.7044793641572L360.0817060534396,623.2538179648745L359.73190416745086,623.309174670489L358.8823192349256,622.9315503352815L357.5815351050746,621.946751981382L356.65132651841384,621.2422021994482L354.9346258981341,618.9511132667174L354.5730752525982,618.3153212449637L354.4899150026727,617.8610609491615L354.45179327158854,617.7831519946408L354.3692555987885,617.6144645376769L352.9882645232872,615.9010302759226L352.26589002095756,615.1542234705198L352.01784830104674,614.9621484360678L351.68528881488055,614.9100356348988L349.8303321169647,613.4224969335205L349.16962067712643,612.8018456232664L349.0347811147471,612.200916240145L348.35106901387115,611.8721410122366L346.5023127505078,611.4377919948245L345.48941494866733,611.5428953112742L345.257889560753,611.7430866736499L345.2347518142651,611.7630920386357L345.1254305130169,612.0843227199684L345.1179819584408,612.2861110067636L344.95490869891535,612.4780551123562L344.15861284727725,613.194514978099L343.4596694714476,613.6712482671398L343.0894934345663,613.7741772263946L341.822085641549,613.8898297000316L340.4963569898013,613.783348769632L340.16919238933457,613.7570288566263L340.23010739171275,612.3867203540885L340.5117451419319,606.0501991372322L341.30924927934007,588.0987072487349L341.30988024100924,588.0844995422941L341.9637969721535,573.3531383944777L342.64701827605916,557.9525201307495L343.0452103453829,548.9725185222L343.70916446856495,533.9920635627285L343.97317850957296,528.0328185322152L344.6782382876862,512.1096245444023L344.6803583299252,512.0617302794509L345.42892002890153,495.1452674921518L345.4662029268974,494.3024352458224L346.21699573883393,477.32385451360875L346.62023012110956,468.20042795480117L346.6555813430409,467.4004315717179L347.3876369178953,450.8285000761381L348.2003706144821,432.41781963114636L349.1732166705823,410.36301883501335L349.2515516357565,408.5863232368218L349.9001561673513,393.870918629808L350.132232430764,388.6036095851537L350.4788177271555,380.7353789395787L350.55814196861616,378.9342161610558L351.4403494556901,358.89418431657646L351.9111420873512,348.19350905244505L351.54493987267927,348.1777315829828L349.1483159257756,348.07394234156834L342.1325361682704,347.76479793514784L332.1822740289783,347.30347969185823L324.3152624698637,346.92666779148016L323.7792076367173,346.90062916614556L318.06351756722256,346.6201136004937L318.03446175659224,346.6141981975471L318.02291986131996,346.61184837075143L317.9977752784908,346.6183585225815L316.59038217513285,346.5420562228096L315.4662063378984,346.51860706669163L315.46356211699043,346.52119588280186L313.5683210988998,346.4191797464481L313.56732562557596,346.41722529693084L310.65029729880445,346.2758878545958L310.64621090047376,346.2658861414175L306.8374491121703,346.0783450178617L306.82811317591194,346.0812674812491L305.9921680937357,346.0323729268508L305.9889372503326,346.03778460048704L305.6458157754379,346.01983458775544L304.6113326687586,345.9656019174265L303.836438642653,345.9247376372199L303.83652615407925,345.9209329323231L302.80633395219644,345.8706909179132L298.60001677044403,345.663776356045L294.9946145752125,345.484152696512L294.9832703987208,345.4835842162001L294.1017915579826,345.4276727740993L294.0830597795863,345.4425922701832L294.0030457406089,345.4315230535115L294.0034147267313,345.4246040351486L292.3752107752426,345.33728734010964L288.88957345773264,345.136445095358L288.8897497730619,345.1331892684479L288.31544807286895,345.1047832312055L288.2982943048473,345.09841036556173L287.31513527210245,345.052344068382L287.31488525507876,345.04688811654955L287.30856037493015,345.0465439911651L285.1769756873018,344.93048723747097L281.2313789052864,344.7137312330983L281.2317283752521,344.7093965331177L280.20459279895243,344.6517395379308L280.20446469132946,344.65404552952907L274.6585478424122,344.3382955288497L274.65901092195224,344.3339674180969L272.9434118071064,344.2362064622017L272.94347204235186,344.2332162966761L268.8604234448304,344.0002593783581L268.86071919644286,343.9951054699302L264.38257537216873,343.73610621315515L264.3800678811949,343.7359605115146L264.02934929957155,343.71382687615426L264.0244345110297,343.71351656573984L264.02278766958653,343.7079775627748L262.0569394693886,343.6009439829483L262.0549771378794,343.600829222477L259.1553557481358,343.4194167564124L258.1940758348151,343.3644441057279L255.53164454143155,343.2071900593653L255.52139760914127,343.20658000544177L251.77769196768725,342.990865198464L249.86506181489705,342.8781299248555L247.89266089452684,342.7590068524638L245.3927414784386,342.6071221167245L237.95434097681886,342.1551308650138L237.18214829250348,342.1037896115207L233.611517627384,341.9230299898251L220.5752045329274,341.0784965759965L202.92027097350166,339.89098823006606L179.37598560269942,338.2289585143228L174.92203015324299,337.90446389154323L172.08570964792085,337.6918920295201L171.67824287469358,337.66212733903524L169.6018009161171,337.51378255927796L167.65696365094732,337.3742075143803L166.7802315878111,337.31108710008516L165.6250797747333,337.1964996969815L161.86823644250154,336.91631990802057L158.66574154464053,336.6756793935298L158.13250832790027,336.6354502267525L157.99087410911352,336.62475706154146L157.86288361494036,336.6160719788623L157.7128817828086,336.60599833321476L157.56342456247347,336.5959620944583L157.1468643972657,336.5679523852442L157.04588373903397,336.56115817425484L154.17271025415596,336.35709916996535L152.86539258607883,336.2638087859067L152.85932577878702,336.2471385066036L143.25900647169823,335.4077176458874L141.58297932358585,335.2596376832961L141.43072741680578,335.24761036410916L130.47310868519014,334.37214086899894L120.71067044018184,333.5757750371346L120.33851967783693,333.59454431089756L118.34204313125724,333.43158545340395L116.31157877655676,333.2651898728212L107.33798290608092,332.47090469926167L106.73994155046387,332.46658749613897L92.36559733860679,331.24749943196394L71.91507187951174,329.4553239161041L47.8398716776195,327.2584862273859L25.000000000000114,325.0873125614004L25.276513225008443,322.1079662442305Z"></path></svg>