<svg id="OR" width="1000" height="1000"><path class="state" d="M173.95336568028085,150.77431173372736L174.01068072435726,150.74949991623544L174.3565130020989,150.6432569103918L174.79684107216855,150.67728770632L175.16480847149728,150.75830369828094L175.8795034026749,150.8821906478617L176.425550564243,151.02429952744495L176.75013304709336,151.13082910409105L176.82080650825134,151.2000089401334L176.79346367823393,151.27291263612193L176.60570005226538,151.29982717878966L176.4151988208443,151.29388060491698L176.25531083940723,151.238406787585L176.13366877582502,151.1663758348215L175.93839620934546,151.1601476954898L175.75918815419203,151.20136782973685L175.6160381013794,151.26312451490963L175.40597607431238,151.023266564381L175.30339800692002,151.0268726252113L175.05768909241624,150.92467998666098L174.93931578126677,150.8761667819689L174.77410019094702,150.91814054447462L174.69489151634508,150.91821260184355L174.42262035853622,150.79130712497835L174.35336573949866,150.7827504141946L174.2609194499305,150.85199002235265L174.15208657227873,150.96702721515618L174.06649336009184,150.9994356761557L173.9883203915224,150.98103031648202L173.93039162996314,150.85212007489565ZM166.4292396159471,151.38484407752264L166.52948163893865,151.2865189206742L166.60554293854415,151.28137864549086L166.59481422527637,151.38484264299643L166.67901983912907,151.48440998517583L166.77862787751678,151.48061823756183L166.93415115071298,151.4091404414312L167.07791235264415,151.3795190425874L167.2540112503578,151.3610912716074L167.31497264343398,151.28885973781462L167.4683239549168,151.2551064866293L167.6587082433512,151.15241839310016L167.75256142068463,151.16729281703743L167.93188272547735,151.09231956728343L168.21880181560238,150.9572730336107L168.32001301720288,150.92519314583183L168.47623539906937,150.92476791449548L168.59363804104862,150.94081218795952L168.73195183607356,150.92034780167722L168.83800307644293,150.8033103817587L169.00725384669272,150.82246381574856L169.2002584521897,150.9233573274115L169.21065307225535,151.06556226142317L169.19810472467077,151.19002842433957L169.01651347375076,151.32468121630546L168.8772751045194,151.35927809041658L168.7924275365162,151.35444043513326L168.59647623857046,151.47102479264072L168.49032752104995,151.50750118666434L168.1423497555694,151.63440558048433L167.98475020009266,151.65858956063062L167.52887029392332,151.684556630465L167.3481078007989,151.70256512928114L167.01672991901995,151.7024316938336L166.98662368167822,151.73389608858008L166.75213804165287,151.77732508234675L166.53522967074662,151.76487947031058L166.38732480101004,151.51519645743133ZM130.14485529435274,146.2890780732759L130.5918629819086,146.0509268918339L130.98950420855033,146.0867683272209L131.18437485553636,146.37642419855302L131.64606361329254,146.41095899231732L132.05360328159878,146.45798975300067L132.57016069682987,146.38393140609634L132.89846962314925,146.42074914426553L133.15557304599923,146.06360997501304L133.35092624053073,146.17726387661105L133.47370637088795,146.34499584351516L133.33019011427922,146.5065999350182L132.80310377763476,146.57989893982187L132.2892088342391,146.61160720550214L131.93197965321434,146.69555371556658L131.18297310628196,146.48300759836326L130.53508999290432,146.4419475959752L130.10295668816406,146.36118525678046ZM125.86376076127681,142.4526953614248L126.15191937312261,142.49762259430923L126.29312353820399,142.77139491125587L126.75305223269959,142.6156092326699L126.93037622123433,141.91245187275808L126.93437642765173,141.43648384262735L127.19958571772702,141.42704964823662L127.48990210457686,142.2658152012346L127.58117760045764,142.90675215262024L127.86049619605109,143.5068797866337L128.11451867505434,144.50240399008317L128.60591918407187,145.51342510197117L128.90936128787916,145.32087585963956L129.25170442041463,145.76629399552468L128.78657584190438,146.0014173468943L128.32708211988205,145.73379742821106L127.57370977166045,144.67973192934136L126.88386867724392,144.29141632149754L126.5130509509118,144.29407659488362L125.7210487447652,143.02579707088677ZM45.293519407372514,829.6621992425253L45.38498036948192,829.5565154834853L45.48524269981783,829.5400530524698L45.56356848572551,829.5714299730664L45.58598598335135,829.6632977484362L45.59637236663605,829.7896456757708L45.61717892903732,829.8587900398937L45.61996098194476,829.9557907652999L45.57279516316612,830.0296356700198L45.48764409268597,830.0816790556178L45.40801120315183,830.0964320702137L45.33798320356516,830.0880871232869L45.282584291417265,830.0315459783967L45.29471714258625,829.9068020499143L45.26334332746069,829.8045789560136ZM35.53058813895319,787.5014142910537L35.583415533502205,787.3975076447412L35.68735727332785,787.3346029058206L35.77366001698067,787.3793484077777L35.8183639319671,787.4691715883603L35.80677888708868,787.5836167606708L35.81024692465485,787.7118629860543L35.78181100398348,787.7931621082112L35.71628582494685,787.8139332772377L35.645293513532636,787.8216046079348L35.54951930652538,787.7728215453341L35.52050585532754,787.6273318783369ZM33.73896368298375,728.5337773655892L33.833770580601595,728.4655182279088L33.84749581077472,728.4107451992352L33.89691466816714,728.3319674555833L33.944075937426874,728.3184693460056L34.017169825152166,728.4113035840173L33.986882401999765,728.4963267353758L33.99429564205917,728.6229404664219L34.00908014709927,728.6846520594994L33.89758582580015,728.7831557033794L33.8679973307909,728.8222681171587L33.80765413822115,728.752356119296L33.74096951698556,728.7036240975041L33.710325111973475,728.6262496723713ZM25.255945657564553,698.9942705367804L25.728710787175885,699.5018641579965L26.18919372531809,699.4715938271158L26.725513578460777,699.1563599429915L27.12095693257021,698.6793523331796L27.353333938354297,697.9711064204713L27.81516629074332,697.4412379536233L27.788603421086577,696.9888678466704L28.374154312846542,696.5725337165904L28.930718036966653,695.700163874016L29.269347536878,694.5104349789502L29.088204292656883,694.0636803979646L29.321575765649015,693.5604289548963L29.83277644997196,693.4858807350649L30.134694894601978,692.9347377012998L30.460631412088162,692.8840043368174L34.01129735014928,686.9146223132178L36.75016847956243,681.4709882195594L36.98532878378944,680.9111913595809L39.45024257925098,675.038897186904L40.494804001113664,672.3070590591949L41.57254346265228,669.2674565645602L41.84020338455616,668.5122343692096L43.604679304190256,662.0868231126209L43.913009966119375,660.4245022350435L43.72437603431558,659.6897022132472L44.0519443789845,659.0901465718575L44.065799503614755,659.0647850660159L44.17782397588746,658.6426610615874L44.396041655860245,657.8202810911972L44.13202865204602,656.5912122770347L44.39556922298789,655.966189793781L44.39547746714686,655.496231994827L43.92020735679756,655.0272471079032L43.98089085697757,654.9858971979878L44.35318072303221,654.7321958987927L44.35734990446713,654.7270357295297L45.04469358912655,653.8761913048593L45.265211201405236,653.6031663892148L45.60829533214286,653.1783404393193L45.728408381024565,653.0295952768449L49.115431901817715,643.655660314554L50.19941518774573,639.392282252662L50.196826137543496,639.3674571026716L50.051058559723344,637.9693594681285L50.31515732441159,637.2791388784516L52.44204911730168,629.7717107084454L52.274361848357444,629.3245709835105L51.97481627428033,628.5256728207078L51.91229558460981,626.3635982546435L51.40510638947234,624.8807967007172L51.25500124493345,624.376711622622L50.67024396887712,624.3541849289405L50.4261033347409,623.715681320955L51.58120621212629,622.1806012337331L52.200774158724414,620.9733126442196L52.48227564110471,620.5381752369929L52.784107596879664,620.2683250803672L52.9277126367474,619.431759206671L53.85480727264098,619.2695457691623L54.3847188706921,618.5262556061138L56.787529797017555,618.0836404349769L58.09853244525351,616.7128868040203L58.13595197805398,616.6601681289319L59.77934357660325,614.3440038446215L61.90658254231005,610.8840406796091L65.82107374930666,603.2387289752867L66.88734591232372,600.7302363106479L67.06690395686013,600.3076567135528L70.31044959850459,592.6664661191244L73.80547313840418,582.9635055457906L73.81351613346897,582.9334396183904L75.88172653336204,575.195790793045L76.63006212231562,572.392963769953L77.38860872745988,568.2006866925079L77.4429276638902,567.978538838903L77.64939553310154,567.1340558094751L78.03531804180216,566.0544445203292L78.06320716366957,565.6469504744974L78.11837471170861,564.840867546366L79.01987544208077,562.3409058875754L79.98800332815546,559.67298317656L79.95118797240474,559.5819408632326L82.5589782073601,549.7790691240085L84.10289010546035,543.0097505444255L84.83313828706241,539.3383951924715L85.86495466341671,534.1465290647031L87.39124240349895,526.4571945023744L88.64536537504165,518.7129697709793L89.72779348943959,512.7195420750077L90.06345008997306,509.73658676504573L90.11654763121771,509.11361212047086L90.19441126727429,508.200006145219L90.72033399654379,505.09298473629644L91.40957490396693,501.2211974929265L92.27385707020835,496.8626937610284L92.27446902334697,496.859010058147L92.62426062720516,494.75302149202423L92.51136919167874,493.8592258707602L92.70521217308402,493.34873438117677L92.78740305224767,492.8943641266208L92.41271980707296,492.4490955650534L92.35689650892056,492.0756947416603L92.62865627908803,491.4200376322835L92.9441773198406,490.1323204063392L92.73155612354338,489.80056234886365L92.39448451897653,489.5292902214956L92.58531845342537,489.2691337596231L92.86538036500582,488.8476158919324L93.17768100283018,488.7654973723352L94.16166533234548,484.00541739562743L94.3483289018032,481.71187081209496L94.4975192385449,480.97733847560863L94.74959824425412,479.7359994710942L94.69471442287193,478.3555304746889L94.91642990101354,476.70543459001163L95.14761671925731,475.89352858050495L95.5448642336674,473.7331284721453L95.40691930661689,472.4642444376311L95.16537570535047,471.9188319675558L95.32148827570603,471.36640879502966L95.69227186171025,470.40475205235475L95.73730489323594,469.57649595153157L96.12125251377967,468.78423010443754L96.08334411026794,467.94168820226867L95.50720261707374,467.5550811508622L95.40131948263945,467.23316875035715L95.57625465702154,466.9738308877479L95.75195631899811,466.71333535686864L95.85887597302258,466.3250590559478L95.97621070431802,465.89892236850324L95.98622126745352,465.86256411606337L95.61791639409387,465.3051588919218L95.79394878799854,464.7665265502018L95.9638244231939,464.24666845959814L96.11624933016572,463.78015962865857L96.26711188712915,463.3183822441651L96.52087693306726,462.54151632165303L96.52598410115934,462.51325565496234L96.70021489379354,461.54905599752215L96.70293204857728,461.534017802192L96.58150630080212,460.7687335207188L96.68119875098756,460.144868994715L97.01532544519154,459.60034000743735L97.2815051947722,459.069358871972L97.81670620862934,458.00149366940235L99.16176940100371,451.75424564718446L99.19256913323642,451.58912308974294L99.64538125102086,449.1609276853297L100.14704815508975,446.4694508699548L100.20551839103666,446.15566518526566L100.62170216279219,443.7204144101248L100.78128208976432,442.54373507234726L100.8458540918162,442.0675453192656L100.94734201334859,440.50106864189695L100.97816067948679,440.0815905804659L101.2157634297186,436.84718566899755L101.38516764791257,434.5407614329266L101.40142469365418,434.3194063645175L101.36758149659886,432.8481380956778L101.58895290620472,430.79302983920104L101.61608469714423,430.541114362249L102.1088150576785,428.65082803380784L102.19889371232966,428.3051704804485L102.49081373401793,427.1848107620772L102.56123136478868,426.81719423829566L102.77643404603288,425.6935638200634L102.89536283871865,425.63723705749544L103.66148818483225,421.03832456919025L103.84352788003736,419.94501618016096L104.01288906464373,418.9276611384588L104.4688025060359,416.18806088208134L104.63442750504373,415.1924811636833L104.63701894565816,414.9650160465434L104.63786405170907,414.89084817873663L104.64174593408427,414.5502423169925L104.65655650912385,413.2518463325987L104.53065055050678,412.63218997807314L104.490281070197,412.433480375911L104.56201275066883,412.06248691435655L104.61418229504943,411.7926513203063L104.62358981286997,411.7439914849324L104.64672064650625,411.6243466523989L104.91203362368896,410.95037172216166L104.90248492117456,410.52177969994915L104.89150055751935,410.0285348984638L105.177001339887,409.2866292330971L105.44723534480909,408.2054250397483L105.63164422482993,407.4674616827268L106.23128178484791,405.06703249445707L106.23621231037589,405.04728978478295L106.14378311616446,403.32626350618773L106.1144907386722,403.2841741066452L105.77675653472357,402.7988471428082L105.43981834583025,402.6756707452969L104.55912548930235,402.5980597837206L104.13007275303318,402.1668124217757L104.00513782044385,401.90534826092096L104.21223249194014,401.8902257098166L104.8500168639178,401.84360931575895L105.31779994240969,401.028382353802L105.61761818530493,399.81305807732286L105.7935949746946,399.09958177727503L106.11418002320971,397.7995276175453L106.53034946846805,396.2291154481782L106.66092824197574,395.7362650877702L107.09001491070035,392.63896679532377L107.07871052364635,391.6778501532462L106.93312795892348,391.0099443666011L106.83582822090767,390.9732285058404L106.44053176414104,390.82404494071136L106.40726454338244,390.8114885936435L106.4946093646293,390.42791453182963L106.54872681545925,389.5802513998505L106.25779580701493,388.66415467370155L106.18125503075237,388.4230939603067L106.40936370592289,388.1028206321356L106.13697077728676,387.24664414745905L105.44645591707047,386.61418180099986L105.58117056471326,385.74704171031414L105.62421258010181,385.46995863416606L105.695040573764,385.01397435910445L105.89498679905694,383.7265444263925L105.93966906209948,383.4388014630759L105.96692752998621,382.90765816561105L105.89444630808322,382.2948861544287L105.89320491084698,382.28438981995885L106.64064834082325,381.3778829368858L106.65018464384673,381.36631529256147L106.72708576508722,381.2730315873338L107.16107629580875,381.19171945124265L107.22171608425185,380.5162724787732L107.223113313125,380.50070866367344L107.2617849356053,380.06993362105516L106.7758802988181,379.7370869770473L106.82847832474374,379.12921654579964L106.84742968980606,378.9124736219833L106.85571151541751,378.8177546638415L106.92578333971898,378.01631158510304L106.96487055015933,377.7987697835069L106.96978936405498,377.7713932515637L107.0808188867498,377.15340124412955L107.09642326420118,377.0665412875069L107.77978016449862,376.47890483284607L108.01615234138825,376.3190118966627L108.61457881592997,375.9141383836079L108.66919522792546,375.77580212887824L109.35380685238107,374.04135557108697L109.7834954985671,372.6089714874458L111.7900896048834,365.91359256368173L112.8521686229563,361.7146158635422L112.90046781425121,361.5235709728233L112.91362447387917,360.8175684988367L112.9258593908533,360.16126808300936L113.05838011846015,359.35250639156646L113.2560742932705,358.1457775634254L113.27687247155728,358.0188098108523L113.79357791362378,355.96223232647316L114.31075354978759,353.9028553956152L114.32268386088424,353.85533831054397L114.60921808552467,352.71395610806155L114.745885669426,352.0048749497296L114.983588676166,350.77134963077793L115.17366991406271,349.7847351550988L115.1862721931825,349.7193164000013L115.60856442923301,347.52669943880926L115.6575965979074,347.272054305761L115.61646751756496,346.1126035665015L115.41090149634078,345.7267294491351L115.51277374356437,344.83830131735067L115.54760646529394,344.5344997543956L116.21486689498994,343.80716666310036L116.35172873244181,343.0477584865625L116.00178744707432,342.7028453780328L115.96592781277553,342.6674980159678L115.90801418701551,342.3133312783252L115.31482488942868,342.1607279401626L114.99257804266324,341.8405219513632L115.39372685605014,339.431823040577L115.94281695146725,337.4869945703135L116.72317436685512,336.26482504874866L116.85461266181898,336.3553005102631L117.83502548306637,335.4519412663676L118.71147827628306,334.87668292541827L120.56313408711736,327.7666677054269L120.73943300463134,327.08912267947625L120.85538291968965,326.6434525422777L121.2941872968184,324.3763338005249L121.70287177218859,322.26391175152736L122.24401634331326,317.7580847401472L122.25513156621219,317.66550258038694L122.22568097899114,317.4547503180736L121.91303632952133,315.2163886113059L121.49199758137553,314.6717851951165L122.16000835357113,313.49169297611303L122.36673131435668,312.31749350098823L123.54121634482675,305.64134756764247L123.6693447851872,304.9125098437984L123.67020540663157,304.8902666433434L123.7519231915731,302.7784867925167L123.89465836583383,299.09109904353033L123.90025311841572,298.94659720968775L123.88111112828926,298.8671880370534L123.11081669662013,295.6698963454065L122.47462692155528,295.3105099643219L119.14626395123275,295.4296651413314L119.20639221828435,294.9580880027945L122.4470968470203,293.86811693908174L122.54223283452279,293.7360776142354L123.23774854771892,292.77059157906444L124.43142622935181,287.7392798735815L125.47354742687628,280.5759651066035L125.45769704460247,279.7903599425026L125.43282591588314,278.55639177720167L125.39145692491661,278.321843077401L125.26193931291505,277.5873923648254L124.24783946412873,274.5667732469487L124.29434834729159,274.48310821701676L124.5904622747484,273.95037870339894L124.60394699069906,273.9261167508829L124.73804484399523,273.7618767877421L124.81830346697933,273.6635731453041L124.90912281252326,272.2886188188878L124.5490741980505,272.1191629596294L124.47419013238238,272.0195513625492L124.20644091160744,271.66335764077826L123.99646292669331,271.38398480342715L124.01112694275207,271.3593685817618L124.26382189412567,270.93514481013835L124.26451143747317,270.9339871304838L124.95436697696772,270.36554552012467L125.457858635621,270.4120085026569L125.9769547057,269.8352717515629L126.6243428654787,267.7313734908064L127.59785064739685,263.4635201514376L127.90001526607045,262.1380318013098L127.93325798681076,261.60098983848667L128.0698431101755,259.3943386065395L128.09432620458477,258.9987768652169L127.91089577675888,258.8713342471663L127.8686101952755,258.7993583048008L127.76378611174471,258.6209252977079L127.70167017190579,258.51518541567384L127.34148348969308,257.9019627985172L127.99645450151735,255.51314992340963L128.69899995276876,251.47275252513748L129.645719662308,246.02312228155165L129.94285812569274,244.311517255063L130.11191788725267,243.3374315936063L130.45998856700322,239.03426060283573L130.4761327809327,235.3227324493052L130.4669466493342,234.29466833497844L130.45685342180172,233.16270100501316L130.45427162964978,232.8727468163275L130.41370649646473,232.71565526461956L130.19012910799154,231.84968387393212L129.5572784509297,231.10128560215253L129.25713083676868,230.7462571026008L128.963907534057,230.3993698295841L128.3959171610332,230.05814772445854L127.74732503505624,228.759487103793L127.89621165180506,227.85808093723153L128.17253346320996,227.5518746135515L128.1428234223166,227.4902640095777L127.95901085142026,227.10905763182882L127.58180818993054,226.7094535001844L127.05710209460545,226.94454704021433L126.36912448310585,226.98524453979576L126.3821216229938,225.97806996982888L126.77741178210357,225.85362133888657L126.90686065294602,225.22346762403401L127.41525011444207,224.9445063625356L127.54377893964971,224.52029336365217L128.05282813737568,224.04555861390475L128.05370205803786,223.76570251166305L128.07041870072317,223.63314743529878L128.37955115414832,221.18137595230093L128.31653078333744,220.45443759088738L128.68911729473456,219.91518523565475L129.49916016090214,215.00389306431242L129.52453367344486,213.37187000085714L129.35578643298618,211.80794477628478L129.44921117687556,211.46476975836083L129.66222796054063,210.68219759289713L129.69920312336177,209.70103886275103L129.6472199125215,207.762295766563L129.3457144777172,207.2848155595492L129.46637505784014,206.71715382552821L129.6020858153709,206.07860520950157L129.53499865396213,203.57504144205365L129.27178790197036,203.30949599341494L129.12417294880748,203.16055790396445L129.1411205025933,202.3318920853867L128.90209137644865,202.0241027987155L128.4291960487963,201.82885141958417L128.50465248083162,200.92120362099843L128.59246325875648,200.1609481146652L128.3371506408958,199.77327569752748L127.958660968723,199.71228133441127L127.99053494182272,199.37092173712364L127.86008951638337,199.07275888400676L127.45876568100414,198.92787422789053L127.00643667599525,198.39951133257182L127.24165443300575,197.8243713722166L127.00990131828985,197.17351712719045L127.63114564008958,196.78822380596063L127.95252358765094,196.4698157242404L128.51498076628275,196.23550114922608L129.20160220587672,195.74565495387327L129.36144039525556,195.24977389856087L129.2504017705959,194.85147802793188L129.37342339162842,194.66943812039898L129.53699978628163,194.11921854686966L129.89391627109546,193.68767709874976L131.3516827154487,192.91858384157968L131.9642280158438,192.77278519184273L133.10881844696422,192.83649056558647L133.10894792759706,192.8364303833643L133.61289618550808,192.6021679351207L133.68496813425304,192.33761561517804L134.14604127615706,190.6447810716678L135.0076331928392,187.47964017447032L135.01224615254586,187.3329856474843L135.015274174522,187.23672160130747L135.0290920179533,186.7974615351486L135.06130133028876,185.77370110067426L135.10609564265684,184.35028532252113L135.17200833109558,182.2565453689948L135.14724879862837,181.47760459184826L135.01958781025326,177.45410405483028L134.36028454356375,173.23661391796531L134.3348430808585,173.07373343927765L133.8876902735381,170.20935358153804L132.84703556245796,166.023398936702L132.62063614379304,165.29569507735698L132.45463719343167,164.76201883092125L132.42091447695663,164.65359056491718L131.45977535728144,161.56156769876668L131.14671680454876,160.71978255331283L129.30042723035223,155.75038797476583L127.99153996926657,152.51965734202207L126.82822526974212,151.38227101679934L127.87386791302919,150.36259175593347L128.7334933487345,150.17887195926937L129.24865283323135,150.52014957341203L129.31978880612445,150.95823735648082L129.62265623927635,151.6135066959655L130.41412732558018,152.08765557045814L130.43194533111296,152.57524827274887L130.02869544793066,153.1499506368187L129.5399563138747,153.33105077872085L129.5659970524444,153.75681998234728L130.1259716552537,154.9590093997113L130.51205485893024,155.14259925280976L131.15895576137848,155.39570591585453L132.03605477935406,154.5230532378764L133.23269675535863,155.36611171071047L134.08827470875968,155.54190573488523L134.4593439062458,155.7891012911108L134.76690811926215,156.38083688333757L136.92588490006847,158.22492126599843L137.2491099204649,158.3882946184787L137.29984187764836,158.41393473369124L139.23665491026793,160.13011567651415L139.44425465764687,160.76824056146592L139.71060402579434,161.18281153335442L139.4263579970596,162.07452519515448L140.58417649899286,162.74682294018606L141.55888325170872,162.19904928802987L142.05469486395532,162.33560683099114L142.45238641727207,163.20948623432975L143.95061021302917,163.98230718504357L144.13311817167806,164.0484771371619L144.15754697944232,164.05733351988926L144.31690121701274,164.1151026194479L144.62183503607986,164.22563300476133L145.4390168133977,164.06609317281743L145.48006151896806,164.05807681704783L145.69555275356322,163.94516853977467L145.98306505388052,163.79450671729074L146.3602099407778,163.5539062548437L146.53569887152753,162.84795692196263L146.55372341389034,162.55068962646976L146.55411934751157,162.5441597109908L146.56150729259917,162.4223141236588L146.57898767457408,162.13401709862336L146.00207764214707,162.01935680647398L145.1270288581353,161.24287693259805L144.27901981502032,160.49010632686594L144.08158612978593,160.16058407369394L143.9766206427065,159.98537795398892L143.6019449336194,159.27260148815196L143.8907867004666,158.991517243231L144.61991765805038,158.83772984307245L144.91092994815648,159.2249795530496L145.52396928838692,158.85073206697092L145.9230500457727,158.60704732474073L146.74215053257393,158.73237608000414L148.3262069044912,159.09042103355392L148.61011994549284,159.15454653455288L151.7698755531,158.37870038110935L152.4673932530186,158.21148039912293L152.98470576199708,158.0874045113057L154.30558679945727,157.3276992297071L154.39131828630627,157.27837515519076L154.48674855811413,157.22346882535027L154.87392577959866,156.954858196646L155.31557897712395,156.21221113363055L155.969899165436,155.9337416003492L156.70164185593802,156.79957081524594L156.95948802031268,157.10459246601175L157.36201342727776,157.472910074065L158.28821898629087,157.96320828673345L159.392366310024,159.02407776855563L160.12808827995786,160.0484449251718L162.88493181652962,160.0761417304875L162.9193675893627,160.05714898611302L164.58767098006666,159.13665447549278L165.1037247725008,158.85177773516813L165.10143860066023,156.56334959256787L165.501199029063,156.09112258089937L166.11433633145566,155.68255136803128L166.75036362027618,156.03039418793588L167.55416555239066,156.34135660638378L168.5708541466671,156.63792483348396L169.89182412144834,156.71310125873077L170.55780824910477,156.5922236905019L171.33795081908,156.45052676312946L171.91359141232647,156.11209794430818L173.37416960392426,155.04434890775394L174.0527181951399,154.82804002502115L175.5958799690465,154.2381998171365L178.24604107310302,152.30717784779642L179.56870205870553,151.4795073749023L179.71338566073365,149.8619709447476L180.78889990621934,149.67948351600148L182.11265322631402,149.3021574087095L183.26953493758805,148.92269198080538L184.97079201370622,148.2340870573853L187.3523667554747,148.66471911170333L187.87397690112437,148.90221438578777L188.5227991147243,149.4686265955707L188.96302334444852,149.9614021426985L190.74516285540676,151.95523862750656L191.90508574079035,153.89094837952877L192.7881358264076,155.3637107982811L192.6893705919756,156.33300441975143L192.00750375734526,163.02100202304683L192.8882798567942,163.96688909055462L196.29525550148514,167.62210004851443L197.47625346701807,168.23672255788262L198.34062117910617,169.02747632369523L199.2087092128486,169.08028810456176L199.55109891062216,169.1010835140665L201.13473752465484,169.3827833384475L201.76746947392883,169.23511633274484L202.69385278727407,169.2908973440097L205.9958526435064,169.6890517280478L206.16847710678036,169.70981597386663L208.49498497395115,169.79326475532406L211.81122142314354,168.0878683270205L212.8726593244158,167.4127010529678L214.14772510061835,166.9408566865747L215.10807773140914,166.44103535854407L216.19036914259448,165.71112897968112L221.5102927736221,163.32182796591036L226.6797432749239,164.12040253763024L227.10349621464422,164.1856599783714L228.25742255155387,165.46338361647616L231.7204993167744,167.93106035265174L234.0863138723313,169.61474193022173L235.12096313153745,170.83045163346458L235.93930609515763,171.1927008781975L237.12199655318943,172.03571970917687L237.2018538095561,172.0926262503541L238.5962095867901,172.650280293844L239.16002239115704,173.03361755479818L243.15693660126624,177.43702635653193L243.5846742310015,177.9077813155344L246.09252159300144,179.35394028586023L246.3390780436004,179.49603050637563L247.09739321946364,179.9329486904191L249.9711080269489,181.58735365121686L250.09137275003513,181.81672708203996L251.8508688555728,185.17045784358822L252.0014011641677,185.45720592011668L252.08291216334584,186.20420563945322L252.11405591373676,186.4895644521717L252.25443727573736,187.77544983515992L252.51457333759214,190.15664943016282L252.56041636658966,190.2118383874141L254.59064128736168,192.65474027433413L254.85161892891358,192.96859287293012L256.6009616247714,198.1965478049683L256.6945933476853,198.47611892024685L257.1427054231974,199.06604836873692L259.2077196409747,201.78287622240185L259.36357890580564,202.84259048280933L259.3962711234525,203.06482103327892L259.8905852863778,206.42291068984457L259.20423963667884,209.3907992415846L259.162345941141,209.57188647494252L259.3041022989827,210.0722504635629L259.47180500964544,210.6640939681846L260.39553495168104,213.92202283023005L260.4776898398611,214.2116112038413L260.6094648851189,214.47828004002156L260.83207341836595,214.9287116624833L261.833593507978,216.95437428042817L261.80066204056186,217.49351720086213L261.7390815984368,218.50160277341837L261.66464432980524,219.72000314585705L261.602306979868,220.7384993977053L260.3205727519284,223.78658388037047L260.2813398376551,225.3699306997438L260.26047720357917,226.2120261722523L262.8813279994839,230.87150533766805L262.99840934061217,231.07948506477027L263.7669553333619,234.57378621921748L263.7628217501209,235.99453453712533L263.7553593925214,238.57535648621575L263.48334331344745,239.50468270306527L262.127509004755,244.1335128741366L262.03541236950014,244.94068307481774L261.7746760526308,247.22520312571856L262.8285500436432,251.03833070470733L262.9815162465639,251.15883552878324L265.0503710601053,252.7878815355774L265.64592099868173,253.25655995421567L268.4041628506966,254.45163405193034L270.8163281847238,256.5805440769712L270.8233907012735,256.5867740088433L270.84276221534316,256.60386176011775L272.5734274337816,257.73482768148546L272.5737142217845,257.7350150237417L272.6086956662382,257.757866236288L276.0727330405798,259.2362447403875L277.08124444106795,259.34873855456414L280.1534799763085,259.6903828755562L280.7299886688555,259.7543172896571L282.2633809193254,260.1988056968418L282.589649487575,260.29332556224836L283.00189433142384,260.4127243946397L283.1049693900829,260.44257317213777L286.4734964623884,261.6196265676477L286.57945295939953,261.6566144422077L286.5953880470687,261.6621769592003L286.67927578248396,261.69145912329196L286.82353633518994,261.74181201525425L287.06497728558236,261.8529935525861L289.5508818893453,262.99698233975494L291.60153734259194,263.6708491629654L292.6468102157856,264.0140252132046L293.06790475591356,264.1522163421375L294.51248887583125,264.7736963123256L294.90643349336807,264.96677525928203L295.0310912292768,265.0278647353097L295.4359593131277,265.3572002200213L295.44519161214595,265.36470946959946L297.31928630098673,266.888425481102L298.75406686442966,267.44756479086544L299.021134544636,267.55159558842814L299.47658316262607,267.4738445053371L301.5003041181252,267.1279366277883L302.21046066648364,267.00638473377194L303.30327185205897,266.48268678318806L303.778276345758,266.25497013278334L304.38873960384535,265.96223942485614L305.3262176118153,265.8317251488788L305.6982049078896,265.7798963576263L306.60614213374333,266.1209291647567L308.77626015569115,266.9353799614278L309.96215052214654,268.7458557341858L310.25807332720285,269.1974547348012L311.0752586152214,270.4441626716181L315.1972299521053,271.3392666584581L315.20641218770646,271.33942243746674L318.39393845045316,271.3926656259191L318.858218352108,271.3296064503952L319.2127398228828,271.214938218988L320.42011831045716,270.82423564882987L325.85893365035906,268.3372759760117L326.3470595440342,267.8433440728728L327.96396894827905,266.2064551321328L329.88613920221025,265.8309317686579L332.85808753867366,265.2490485643259L334.1187164677997,265.5388598342428L334.12538542585605,265.5354925362559L334.49629560181864,265.61004906485863L334.4965021644255,265.60293249006725L336.0576730573797,265.8435933428149L337.27653998220916,265.53746613567404L337.44817315275975,265.43302580115125L343.8786690385326,261.51437804039546L346.36982188061575,260.67048251376116L348.5088084481715,260.60200882220914L350.87406009204255,259.55119872755444L351.24920090146577,259.23308988628537L353.1202022233007,257.99650477166483L353.392242757158,257.4928290802055L354.0485807696838,256.27731147054254L354.49474040828494,256.06363381273883L356.3777888700304,256.2383990946214L357.8573644660079,255.4809395112993L359.4575191254414,254.66116803288799L359.90307211692,254.0402847314059L360.3252776814053,253.4518111115649L360.32220830035646,253.39608928700352L360.247616113598,252.0415705617694L363.00794250501076,249.59605431775572L363.26936775095817,249.3642950382403L364.2539311350018,248.49122600801445L365.2759676960386,248.16540752931985L367.5605963176582,247.43635550489898L370.61058815093634,246.4614993380656L379.1650247402604,248.71065306950618L381.8080030469995,248.6626089975855L382.2999393861474,248.65353989504734L385.8680625180549,247.39240787223474L386.736276871039,247.08515944275905L390.1484315864844,247.21007629647687L390.93280303381863,247.23852092118426L393.4200192241375,246.49712667443993L398.70153487262115,244.9189227754435L401.89622603196597,243.96173434994017L402.0642621696169,243.9113341297424L402.14287428467134,243.9324356466791L403.2674724780958,244.23418249209277L404.44033815331505,244.5331638699751L405.87829696599545,244.89938036814607L406.3753797801785,245.29528701347323L406.37612493073846,245.29588043314794L407.6016245301744,246.27158355822814L409.9216103695118,248.1172868366151L412.37212803842266,248.82018020284085L414.33397832978983,249.38210010053206L416.79852896402775,249.59931926325925L418.8806770574671,248.59414019123858L420.11639179246146,247.99711739728457L420.9217920689639,247.94832347721268L422.52418774392737,247.850925996949L424.0493610212377,247.7578280718314L426.9245316668238,248.6107317316862L428.90701772747605,250.12607994727483L429.70465626788825,250.73540866559313L433.7681779010993,252.18397099009326L437.7533479930048,253.3901147946612L438.96322007643556,255.86872918222997L439.4536123035412,256.8728176606749L439.84771726474,259.2682573059457L439.99538274360236,260.1653575096937L439.8748439174307,261.6006955684481L439.82131746324666,262.23791186477837L441.24082649132725,263.91249448370337L442.753017165006,263.9761509279727L443.0497783407889,263.98859914616196L445.5788147017124,263.72721980939536L446.14838014570313,263.1904869840969L446.27069097593755,263.0752095875577L447.1190275910103,263.44018159748384L447.43157743723185,263.1573961225241L447.6022203686606,263.00298769064045L448.0525881859623,262.59541247172876L448.23335648292056,262.4317981395344L448.81926345457725,262.106209790345L448.48688220278433,261.2911444494311L452.50005165250184,257.3265025479727L454.0285853927588,256.8475275173657L454.8318143713924,256.5956519882091L458.3099353357548,256.87792862535855L461.2671488615666,256.54421339177696L463.97067736617174,257.35408020193086L464.59373186783523,257.1970268200027L467.4175434939725,256.0213914232704L468.44577989597155,256.07728515589304L471.60605043917684,258.54103656046294L471.87606464326615,258.7530719026846L473.90324390957795,258.29690870074194L475.02967997703774,257.15625128122986L476.80726819776953,255.35507329483852L478.4402054138848,253.69812303660524L480.6515275190162,253.01446226096851L485.9980704961535,251.35765562448887L493.315569171657,248.11848174615176L497.24767625317793,246.60945712258524L499.5659526709043,244.30324900704085L501.29513022524475,243.16054897571001L503.3939190620957,241.77245418082828L508.3334148556032,241.66405469000023L511.90823768340664,242.98991814930514L512.6030503641406,243.74632008996684L516.1413468129656,247.59458886272887L517.9603841141756,249.17716824171555L520.6150798135336,250.07899811928633L523.9193016749371,249.78358469114465L529.4660448566474,249.2835957037646L537.9148266685139,247.34540132145702L542.4674525280807,245.8531763636306L543.2000085254732,245.6716333813671L551.1711299904623,244.87296094269857L551.2519778931927,244.8648059820036L553.4497180070808,242.0130585445803L555.7567299368934,239.0162438873336L559.0227700431979,237.18197915443795L567.0282177460356,235.17575215099288L568.7116427113309,234.2193840849991L574.7559759651964,230.77962587113416L574.9402643390297,230.68413494578454L578.7189063280904,228.7244066795721L585.1057577396891,228.05698581430983L585.2697249507019,228.039761407512L588.779727810405,226.93316713604912L589.6780834643375,226.720815516718L597.0173782854558,224.75420304756472L600.3648686136622,225.02141809104774L605.1910865918318,224.1880229333825L611.6633035574629,223.064079627021L611.9230017220267,223.0188302685242L617.0118065949762,215.05964380454816L619.5364490920625,212.7652724728601L622.7696962618247,211.75883952056898L626.694235280615,213.69173840129707L628.0901931309855,214.37840782465514L632.2288708931786,214.66842733759808L635.7422705805849,213.09952563751165L636.410136246621,212.8009848399072L638.4682405664727,212.61154091160682L646.030441450123,211.90937800404083L646.8609800184606,211.5577901406748L650.035076672226,210.21275456887133L650.6876295189488,209.93596539963937L651.7749710506409,209.7489923173173L657.0280399189098,208.8428257453935L657.9926592203508,208.67590817658458L661.5433381227484,209.75114342360666L663.9580811521957,210.2459594600807L664.9522376640609,210.44937669481618L667.8738098872394,210.41787572218135L671.0122165727937,209.78656279203062L672.7170877555711,209.44289016882408L676.3636754175888,207.7495378515299L679.8540674878193,205.10709079986657L683.6616522089816,203.28880098944438L685.6872846174246,201.59568910658714L687.9909296781332,198.2084690759503L689.0360673694639,198.15431552842608L693.124457696434,197.94073625406594L701.3085349701413,197.67361261639923L710.2371952668784,197.36954607553827L710.5272126133951,197.35944830523914L717.3011414416051,197.11963566671596L722.6028929208022,196.92664382229594L724.7464177593923,196.84830432056555L726.9157642667327,196.76522068007364L727.095755781669,196.76268591230416L730.5584755082815,196.6515129751159L732.3820516641252,196.59216842821445L733.567547759962,196.55329379890236L734.0377311666098,196.55216228845245L734.0397641386359,196.5520620394875L734.7444760248726,196.5172703338177L736.3649309705484,196.45245066051433L738.3558036071383,196.37221874520293L742.8437846355082,196.23787353198543L745.783586121047,196.12287988226643L751.0128260873723,195.92297274580307L753.2743966605253,195.83511360989513L753.277648744719,195.83498666091464L755.1224843165824,195.76268909058024L755.1234548266751,195.76265090881418L756.1230681343443,195.7232413726748L757.3054836713477,195.66759651022448L757.3357647406096,195.6665064764527L760.3602840343756,195.55686769471419L763.2153848404865,195.45198117548125L766.7326551635197,195.25079229524073L769.7735816067816,195.1779437854575L770.202850789688,195.15638319378587L771.9713162015479,195.0870895857015L771.9872031144713,195.08646474381447L772.8422865217733,195.04911769465696L782.1162243486025,194.59635210109042L783.7983241737608,194.5888348648005L784.3377449857169,194.56421631399036L798.7960642631172,193.81354334150012L800.93785412867,193.72166502027642L830.0126225861495,192.39924219371824L840.5598059833028,191.96454833189352L842.8449728162416,191.86793895299866L853.8435886024961,191.34739746373953L856.6092913259902,191.26229432101934L856.6123682425257,191.26219893682628L857.1427432314529,191.23433126748336L857.166093878848,191.22686146716723L861.0947990342555,190.88154840609928L866.5953788069532,190.56669870246338L867.5690668039981,190.5949327866506L870.731354944119,190.6855459928678L872.5266584818264,190.20514107725472L879.1504312806437,189.83021659551423L886.0458254892862,189.43218287187028L886.2917061257112,189.4227585681806L886.5060382340564,189.40930616700274L900.1823885463368,188.65783202589915L902.4453555233476,188.53049679447207L904.546443798945,188.50100244260267L911.8544617355615,188.00118151752264L916.9117171432327,187.77714559270294L919.6794824370352,187.72993716672812L920.2618215566515,188.7407716276719L921.5476866910359,189.64093275557593L922.4712574546663,190.6167470757993L922.3441530701543,191.70581932092898L922.8683051226568,193.23367337481187L923.3383089764066,193.4267856865465L924.048090370228,193.39602729548483L924.5991888972702,194.02064136035204L924.7691112807522,194.68082241017873L924.7331286474911,195.5309276982867L924.9876692297446,196.3400505410989L925.4558916899114,197.5179764664005L925.6434207084708,198.89669219603218L926.0669764583588,199.9735420572876L926.9294647381726,201.48156817346728L927.2482749901474,201.96167532879798L928.9145795207216,203.76881253478842L930.4972529110034,204.60837290719059L931.7704798074797,205.40422225068465L932.3730138589447,205.9101191507487L934.5519124263982,208.7579429191237L934.6143834059682,208.8395503110945L934.830397955024,209.2217266710585L935.3728207564843,210.18119621535084L935.700222385184,211.0615854214364L935.7764985379066,211.71352440881094L935.6581501994706,212.2820372574231L935.6789395097877,212.80960680067193L935.7789930334704,213.05223994369186L936.4870526542966,214.0627094932745L938.7494648024524,215.32697349608048L939.1595982567094,215.36489750186024L939.6543094959563,215.18533545334014L940.1211628379147,214.91352754173357L940.7348238699003,214.40783851700587L941.2308893143304,213.8766105044176L941.6844767152021,213.56631018522341L944.0044517712519,213.30516773084258L944.4258924608876,213.35696642225184L944.81739403135,213.51508052786158L946.0300366208619,214.11843643126025L946.1378258237703,214.22673449311208L947.4403835586998,216.3690634518286L948.3587727948079,218.3631605139185L950.1547324549049,220.10995813643615L950.8196499983267,220.3827045606061L952.3142320903809,220.30687069023537L953.0497031925125,220.0172198035815L953.4517092314486,219.60462498035417L953.8607085925065,219.35839327775915L956.9383602517028,219.77448128817082L958.3193043999902,220.07396524294143L960.2002153594668,221.71790889254964L962.3672443288466,223.55562490138578L963.0513108728125,223.79643007467257L963.560639224663,223.86427382699236L963.8561974110263,224.12775873443883L964.2168696399071,224.7514861216962L965.0849568837423,226.2522303811278L965.2875518370103,226.7322177236656L965.2593503036562,229.86083269002575L965.6614661296526,232.79208111646784L965.8330823979634,233.57575351223448L966.7586606103741,235.16913348494688L967.2902885549603,235.75058244944967L968.6900643887625,236.84713156699837L970.8732556927366,239.03996443732268L971.6905756711762,239.93613228415637L971.7859588410805,240.26834123620165L971.7638717243735,240.81676682261622L971.8151514746238,240.91338996070698L972.1954859945521,241.10506548748384L972.3103011569208,241.22492030740472L972.4191293368959,241.47815479500264L972.4201462452057,241.98772894719536L972.4203678985884,242.09910277552387L972.461247921716,242.49967046150414L972.6804012560499,242.71700301600407L973.2737399205324,242.74529288057562L973.6914411048565,243.08500870263134L973.8373035050929,243.35602820762824L973.6864040795642,243.81901424318318L974.0848161097974,244.48268154647315L974.6404098261434,244.86491841548667L974.8552634675198,245.2054459495149L975,247.3024246011381L974.2082732985456,248.84451840431234L973.8861963789641,249.1701346187656L973.7068498829381,249.52707496504337L973.2465092159421,249.84271793471214L973.0190247964795,250.3111462725505L973.0154658375999,250.7241783160269L973.2888824792826,251.03075882296787L973.2389063483574,251.4723037733857L973.1338544394492,251.62461693387178L972.3394041855904,252.09170204447486L971.0268189758726,253.47075263482498L970.9353746320191,253.7219308572203L971.0285164006418,254.0957788912957L970.959957963526,254.3930927925544L970.650718650192,254.82615062814813L970.2891840576058,255.11583953283673L969.8902226925544,255.2315032993676L969.4845541675204,255.17942386343083L968.9604455404339,255.40759692100488L968.5704855189049,255.74376496526014L968.3863680031197,256.06838216429725L968.3009863780551,256.1948250814843L968.3467507799821,256.38411913157165L968.5865499417869,256.4323350946157L968.8562878706894,256.61456805320336L968.9108499914753,256.87393647744085L968.5600472253086,258.0371709661219L967.8325515590041,260.4480121131032L967.0191808904289,262.27522465514915L966.5178062336702,262.93057660343925L966.1102738170641,263.2975160670125L965.8743870247852,263.38892101988836L965.6730051352329,263.667455952353L965.5961018168148,264.1624654056076L965.7325426139425,264.44913687604173L965.9765539680611,264.63123864969424L966.1108609153,264.7911566101941L966.1831951580252,265.3010559245853L965.7229230804842,267.72837657763944L965.7363892841579,267.90787251854243L966.2565404248644,269.05006933008804L966.3923055576563,270.6423860125787L965.6298879619955,270.97785965551225L965.3886368540844,271.16527845986735L964.1252239615335,272.5005057550738L963.55208764755,273.1173540642848L962.8526140850929,274.15362502313275L962.5598193321114,276.7024744979297L962.1631764595936,279.1004538229745L959.8851062991334,281.632663557057L959.1459200387492,283.3392051622002L956.5593191175856,289.53126523201416L954.5717298996788,294.4811116020938L954.5583325527398,295.6472514099893L954.9827655252564,298.26914344243824L955.1380935744298,299.73480201999894L955.1405752989566,300.6702407034102L955.020226134244,301.79004228299215L954.9130408253604,302.03874987666586L954.3438733639975,302.75414283031955L953.6926536162778,303.2666376725076L953.2441435549504,303.96854179451736L952.8190932531008,305.47237313396965L952.1314236203032,307.9484863029958L951.7099009397209,311.2795388747486L951.692678944506,311.6418903835922L951.9446766466488,313.23218105450565L951.8821582611005,313.94287591439877L950.57362608179,319.1641160184437L950.6509229004246,320.2253263381665L950.6747673499713,320.5526783927861L950.6109688390887,321.18412878774603L950.3818867695385,321.69670849268664L950.3673962122054,323.5925924981217L950.2967650012234,323.97037457362774L950.1378812435447,324.33280812458656L949.8364330677327,324.62206274570883L948.8540371910544,325.24396840753275L948.5814660181333,325.56611254448353L948.5528602063921,326.89648910843096L948.3514348903226,327.2254747549558L947.8763621624348,327.4507957383066L947.759692970996,328.7282718698047L945.5463308452348,330.2582381273166L944.7832602138024,331.8988604116228L944.6886430456769,332.2613025781128L944.6702004934829,333.1544513674613L944.8238040242111,334.62579264883817L944.8584821058555,334.9579341201736L943.4897839423087,337.77475375088204L942.3110736857686,339.4233997966762L940.5595168640167,341.63261993562634L940.0172068976237,342.0813545279053L938.7836896922406,342.88540328233734L938.1171504657979,344.28459076564576L938.4038670516466,344.93796226922586L938.5597935414901,345.44170682185467L938.7352348908012,347.69073997874375L938.5832275188088,347.954986767616L937.5362138603045,350.5663922776115L937.4193306145359,351.4768868521546L937.6142988974935,352.04823070582154L938.1837722741498,352.440172222918L938.6689546984367,352.5078371728407L939.0682034333028,351.9956116235237L939.2720050868816,351.0232779247843L939.5729397799294,350.4753253837805L940.0252781776417,350.15643569001605L940.5444479970824,350.3120274420645L941.0537390025897,350.61674540686886L940.785478994902,351.82849708958327L940.0352761351921,352.8478587881308L938.7726178292663,353.6641710604802L938.5202605792299,354.7664721313276L939.0852153196847,355.8020158427643L940.4432749781841,357.4829745114963L940.952700381289,358.9574328719478L940.812460116167,359.3580335571394L940.3174993786134,360.26887816272097L939.9967804696518,361.70644667886825L939.6511883838928,363.30793575584346L939.2711686277135,365.24677376394715L939.1176926368229,366.227265692773L938.6636804707267,367.36918261269295L937.8226425695409,369.0862818940413L937.1237955150725,369.62154703196995L936.6393085615334,369.80642156151885L936.4102509954229,370.1448605521132L936.3055386392739,370.6273048204308L935.8587239550343,371.2330813490592L935.4084742112819,371.66677790552103L935.169789547677,371.7855880296245L934.8838779081827,371.7974879552696L934.4814658880257,371.7378811711907L934.227056458438,371.98907137080084L934.2004488436436,372.3717059959047L934.477011911176,372.7202557958185L934.5127352992678,372.9467375721956L934.3335631223706,373.9461728842621L934.2078280113293,374.2276738917002L934.164860144013,374.3238661339867L934.19330006018,374.8708683522593L934.1000611456637,375.039113574498L933.5662049217193,375.2201161580123L932.0950176081872,378.65178221251523L931.2850390667044,379.68587117585355L930.9788336065113,380.2942185708613L930.7450693750217,381.289422394399L930.755529917137,381.61518576186245L930.8615394442764,381.9834608469513L931.165162960589,382.53425585657317L931.1888017719002,382.7122263502822L931.0916496023942,383.1595789301923L930.7934583113747,383.71849778317414L930.5622201693914,383.8973940985623L929.2084963166643,384.7887464451803L927.1854667566449,385.38187912686567L926.72645382018,385.6248855133993L926.5098339279687,385.8516361606071L925.9944237357204,386.6371551478517L925.0511349231821,387.6144861336769L924.4508372291609,388.1768276779204L923.6846157343255,388.6849996837934L922.8639973799732,388.79794406894655L921.9597128904838,388.72445873724723L921.6946820086467,388.9492009667116L921.4794801232158,389.556160836824L921.1478410052935,389.766999966821L920.2182101593062,389.7765669836663L919.9638676992184,389.9961272311069L919.2276074085784,390.31906004109544L919.0980382168065,390.6045196629943L918.5733180415436,390.8582802523209L918.3600926455649,391.20323343498114L918.1955123392443,391.4694609457304L918.214207366796,392.3881251913067L917.9832030009063,392.96488668924496L917.075027088397,393.38556264648673L916.6792135191401,393.9212934718605L916.9475464860526,394.7979597075039L916.9515958420069,397.25004558103194L916.7496819608477,397.7583439651922L915.8117879808754,398.32686703811464L915.6341166511937,399.01522831091427L915.1022991446946,399.73578208974413L915.1718251566292,400.0728668615458L915.0973504311306,400.30837686930886L914.9940589948701,400.6349834425716L914.9959413528763,401.0519615592614L915.1215200752564,401.3105921362738L915.2907269600222,401.65904627891206L915.2659039187566,402.09396022854594L915.0777427330886,402.7582801434791L915.0481582322851,402.77639004943626L914.5130434684625,403.1039167957637L913.9488406095596,403.62855686039893L913.4541539272632,404.3256237096051L913.4247028702378,405.5289179595082L913.6923175724597,406.38982087901945L913.434836601882,408.256845077551L912.4180852938699,410.54195668717455L911.6857172177253,410.9531512314045L911.381421146232,411.7481940349445L911.1243812112987,412.66069509949705L910.7921836614446,416.0891379027969L910.9560044985411,417.7111241628512L910.8342747152847,418.09192519539783L909.9774798880077,419.17916973615905L909.5248463440518,419.5750892782406L909.0290197298168,419.8628617797079L908.6462668296585,420.34960496079896L908.4322613217905,421.0553563705158L908.4926480677259,421.4158864072648L909.1244120262821,422.1781263217108L909.1020258837535,424.0750947137115L908.6107032627629,425.6597758871609L908.2883776600925,426.3917559955264L907.3550520333388,427.53673470015315L906.658073243173,427.86481382178647L904.9904493332012,428.0473816409359L904.5866346848302,428.6780278756348L904.1388448181897,429.66761567613844L903.9573146142952,430.2515362537059L904.0241255160761,430.7548792352917L903.9247431190761,431.3357855405586L903.7475729176583,431.90131082643586L903.1397857764506,433.22521045432404L902.1932956297155,434.32634787446676L901.9391291057915,434.39168563616954L901.3234268954175,434.2991126494211L900.7457976639348,434.5974162134409L900.4488796576943,434.75072297826404L900.3499362299576,434.98404117391306L900.2804179612918,435.4723033600406L900.3226653951513,435.8241561095175L900.5093410310071,436.35899088563474L900.8843942073738,436.9473895210202L901.5249295786591,438.72489404461675L901.7467398195324,439.5779464144256L901.9139803018705,440.50320449112735L902.0761803933739,443.9095888446189L901.7681697999769,444.99283289830646L901.0637591749191,447.1549685849528L900.9085608438675,447.5160839811886L900.0531066832398,448.5378796760263L899.1708435767457,449.1038228747159L899.1862239845453,450.0157880554168L900.2821665077254,452.7521220431027L901.1793064570959,453.6591868589968L902.5453974470282,454.8537323185951L903.3084271827406,455.2090117098038L903.7569718709362,455.590006869704L904.9599758093508,456.7924765123677L905.1095889287271,456.95413110105926L905.9548594721775,458.5030119158535L905.962577067099,458.76112099521396L905.8190378884716,459.65283022821177L905.7525141096411,459.819432459857L904.6140142780796,462.448824117797L904.3723512698916,462.6664238581062L903.2652894589846,463.1739416948135L903.089094740883,463.3292088500834L902.9774315142035,463.509285346673L902.7765084405144,464.4722435440117L902.5228186763202,464.8846246797201L902.5140362482703,465.11221136895057L903.2712385969845,466.5765253073936L905.5698623117153,468.76226199416686L905.6213265993433,468.81117531340266L906.2376090247292,469.24214197537833L909.027533098721,471.0454953219254L910.5958090268209,471.1753935657357L912.1864033646114,470.94727198558576L912.7446076453793,470.7298400263876L913.2378215234215,470.10752441146747L913.3275062416019,469.89448741522995L913.3652098689013,469.4314249960398L913.5301285024926,469.0259673930876L914.5985029083145,467.6238335771467L914.9371607659675,467.37902568499595L915.6673496152343,467.049587894482L916.1274026219462,467.00413907769973L916.5411602790462,467.1123399934388L916.7830509691659,467.2837835476616L917.2514436329727,467.78900213564503L917.7627935942214,468.502796462857L917.8956869447468,468.75573603659586L918.3011763091549,470.2171884332728L918.4904665863946,470.5455321156835L919.8838647819825,471.8242151512658L920.3938542350471,472.15304785453736L921.2412187428134,472.69926042926227L922.2417384322423,473.74363908890615L922.6425729751003,474.76234007383886L923.0691736990183,475.02931392100925L923.4198043954541,475.046640840823L923.7212435734872,474.89447468372896L923.7605725382498,474.87461995761663L923.9175568107214,474.4930396096557L924.1797491390239,472.70902282681686L924.889027600247,472.00121550674635L925.335856459785,471.6715451236819L925.8367105865663,471.5980945142612L926.1076174346039,471.6418500874846L926.7243554702686,472.0015801723988L927.1188802098324,472.0856570171938L928.1624933596124,472.0168096229025L928.6677590837498,471.9834144054797L928.9815787210335,471.96265209349565L930.6336568123102,471.8374350158965L931.2370747121068,471.99575861331033L931.9452784044843,472.1814927145843L932.2531408320664,472.6306662539529L932.3578624916659,472.94155506866394L932.4856799681465,473.32097787187416L932.4490918810889,473.78953102154117L932.3119987679254,474.2933917505942L932.3600298178167,474.9282337798674L932.8307695058559,475.66957541584287L932.8887896742996,476.27737697584644L932.6571473942853,476.9973745827534L932.5850935075534,477.85272107245515L932.9404648021808,479.5948107282074L933.4871251113211,479.99707105742925L933.6984126983614,480.0575274521294L935.5987060927432,480.34854713112634L935.8276655428358,480.38357050794747L936.0966352883447,480.2975841006808L936.6272796282049,479.92796963438957L936.7715329011903,479.9081387054169L937.2208328641395,479.84635028590674L938.4250496976495,480.161363190846L938.6193618006894,480.6576070323498L939.6495026523953,481.455359942685L941.2122401395394,481.9534031774205L941.5519328851649,482.3595583693257L942.1238202867174,483.23701628217145L942.2632790946774,484.0188496165705L942.4442818733116,485.03342264596006L942.441092123569,485.3746543901633L942.2937650438221,486.01180772730646L942.0817455549352,486.30309090869747L941.7658874716368,486.73697588945794L941.6765619801024,486.9859477241121L941.6849817203355,487.42690932791356L941.537101266719,487.6848258327274L940.6611167694103,488.47220884984694L940.5029283748759,489.6428782201369L940.4925874197049,490.3904789535648L940.4487616516215,490.57034700829297L940.2141710577539,490.88871795836315L939.935720598327,491.2665648289013L939.2036378246894,492.0307269113956L938.856561182459,492.8685051788101L938.8278029685189,493.09236083554896L939.0691090309808,493.5987562197526L939.0200564998413,493.9490025655334L938.4672865052241,495.1835684411299L938.0165706660775,495.72275375328127L937.7448172852166,495.95930431421465L937.4264760383835,496.23637383091324L935.8222879426813,496.725510143335L934.633855613066,496.93820056431923L933.834802192906,497.4257969447288L933.5030715911271,497.92958248608034L933.5855057915253,498.5043032708804L934.1197264182866,502.22755094011677L934.2433085376188,503.0885425180449L934.3876179042504,503.7752895935453L934.4748867991088,503.876899219849L934.5306182696263,503.90041354857465L936.4515878901943,504.710521086397L936.5140603370944,504.75291569953646L936.5199037017283,504.75688102720846L937.1539508478677,505.18709135667194L938.0471943870386,505.79298105198995L938.8248017284819,506.77064375156414L939.0704390018848,507.523465043392L939.2512690375495,508.07758332607415L939.1790551331736,509.4957694260005L938.5844492679961,510.3941001692488L938.5841865806578,510.39449697527715L938.5572954466602,510.4808936250483L938.3624092878838,511.1069579740573L938.441038223136,511.3475132770963L938.5596820863659,511.710463831882L939.4287453478688,513.0592674060432L939.5042178619284,513.7120406492347L939.2221108473036,514.1067832669622L938.6908868891718,514.2327839602658L936.6875498967675,514.5521780217728L935.7026053956761,515.5144669635231L935.1541851000272,515.6158348018423L934.8568363562931,516.0249068510794L934.9519172236753,516.2862423279815L935.1642803101906,516.4206307542742L935.4523517360185,516.7424978603781L935.5519453466466,517.0334653602739L935.8153825895506,516.9976397164651L936.0835431808268,516.9019501935708L936.6371179682367,516.9823764214136L936.9489699641732,517.2586763488654L936.9061620751546,517.6801335613003L935.6919906741732,518.4282519620588L935.4905125919104,518.6732246699227L935.5950825898772,518.8953032480626L936.3872716038832,518.950994214812L936.820930750215,518.971251345326L936.936871867209,519.1996206655668L936.8038377139986,519.6058277533137L936.7919031313963,520.2731408519466L936.5933666121188,520.9134205630108L936.1574738175326,521.338417774757L936.0831091684001,521.665849430522L936.1155565899055,522.0206003387921L936.1266865414105,522.1422824290444L936.3032521319017,522.4947761741604L937.0134414685882,522.7750910854966L937.251005347605,523.1122719416076L937.3575066740389,523.5839997128455L937.4792806634797,524.3149917541314L937.0872942118352,525.2901572004587L935.948596746041,525.5358686609177L935.1101346248279,525.7896809217842L934.864649122554,526.2627617214073L935.1351925179729,526.83531612402L935.31801729137,527.0919522967513L935.4793171767606,527.3183557876371L935.6356568437716,528.0514790209857L935.614639731526,528.2062624838778L935.6731437318576,528.7343650469797L935.7448043098759,529.119409637349L935.7390246026291,529.1385396920276L935.2828349520908,530.6480956438802L934.9856154774903,531.460199509019L934.9950974583979,531.5912443426275L935.0318681439129,532.0994216116559L935.0361645444935,532.1587977264725L935.2834371976039,533.0233098930956L935.2939927236796,533.4156817444103L935.2363643686647,533.605558065914L935.1032470461494,533.7652739065214L934.6512945999896,534.0197809235377L934.2773042546064,534.3029474998264L933.3654191970047,534.2366924190371L932.2488143761955,534.6317966776417L932.0077804209654,534.7170541827014L931.3866248900417,535.0337878373376L930.8260598140431,535.3396892693426L930.7461020697397,535.7649866648933L930.6828879852626,536.1011803411012L931.0934108822089,536.4499256943768L931.5248417390115,536.5285871276518L932.1525351622269,536.7676742332798L932.5460167483006,537.3201515189276L932.4345206864687,537.9723181472937L932.0071726967965,538.3830865196462L931.3264183069043,538.2072443453287L930.5354508894898,538.2614062998543L930.0395754170568,538.6686798755832L929.817540691894,539.4908262475979L929.7448217654373,540.1758346834109L930.3708700583111,540.7500395300401L930.9127766671315,541.121649843567L931.2005405683813,541.828591794687L931.1568431152912,542.1740449059183L931.0837261692616,542.7519752163527L930.9856576770584,543.014367411238L930.7218952790881,543.7199819617364L931.042396046742,548.5645950585472L931.5269173132288,555.8869059836435L931.5156031884123,556.0574079339501L931.7263148167177,559.025052071905L931.8083429509305,560.4408774941945L931.9592142277909,562.483989522077L932.0893286022272,564.2458115076831L932.1081621068487,564.5968346776048L932.1552502020047,565.4744821856532L932.2832682254832,567.3026862262739L932.6347655370844,572.6770996706904L932.6849018445066,573.7920876579822L932.7154447606274,574.4248871549237L932.7603259014227,574.9858141668697L932.8536655920473,576.1254685369115L932.9526279687714,577.563815332652L932.9619756532976,577.8197841540663L933.0014087906441,578.5306856344545L933.0236735474291,578.9254178332169L933.2044815506865,581.381964707532L933.2203413377679,581.5703827691635L933.2620707832377,582.1976050281293L933.3603409479127,583.6746157511305L933.5679733920035,586.7950876959018L934.9356986858859,607.3413971413282L936.092905749359,624.7130444361999L939.2849959972609,672.5737101919875L939.2840261123536,672.615582423474L941.7331358645669,708.5617332261729L941.730123733382,708.6079845485312L941.7284355825775,708.6338654810197L943.7020155272121,738.8082183052541L944.5111770522549,750.8581270595168L945.8693454537922,771.0712716004855L946.4490960770054,779.6947287435702L946.7384864252463,783.2420767334559L948.8556262358902,814.9852266336582L949.176708578568,820.5091436440723L949.411764596319,823.1057821190691L950.7154973350341,842.7370003902241L948.8922182242067,842.8590180346672L947.9101316701342,843.0764935497467L947.0953006062803,842.9787726438781L945.4560329149815,843.0632953341037L929.4365974977568,844.0472005319837L926.9926726277278,844.2852506059012L903.9253404806368,845.8075025993714L899.0288157146011,846.0371119514282L891.1415809742489,846.5690916499705L888.2260307723784,846.7633247443994L877.9331639729155,847.4386082139285L877.4396041797829,847.4705810112239L876.6282442688404,847.523059734574L876.3534777514138,847.5994844829374L872.3510384721228,847.8159707111795L862.4783030308943,848.339491330292L845.6404492684201,849.1979456565418L814.5580245405004,850.8817717840193L805.4670358874737,851.3463152897532L767.7511624585783,853.1873680425155L762.671106343242,853.4892240739689L755.2405496280342,853.9236274250886L749.9183434927517,854.2785866584602L743.501439194216,854.7007792864915L733.6246409319144,854.8922186202203L733.4559225375538,854.9014410185164L731.173493340036,855.0245883099335L726.9457868994197,855.1259557351044L705.6446316806699,855.5952215649252L679.8929293995177,856.409307257557L676.9562165951654,856.3107931615089L674.5770785315747,856.432050330164L665.4850822126782,856.5908852336586L661.0108763806771,856.6644207888496L650.5150066918528,856.7119443703559L615.571139482243,857.2216175339131L607.568807458644,857.1347043244812L600.2584212237903,857.2814871212331L597.2717821633667,857.2609158396485L596.8843173405526,857.339897442636L583.1362862372265,857.7310558016825L581.5860269028134,857.9655567405581L581.3500166154429,857.8678667469503L575.6236108548972,857.9497060353083L561.7488025914139,858.1272679392694L561.5040558403781,858.1301366623225L558.9119536312362,858.1599586993168L547.644479650308,858.4526444043508L547.0578459653773,858.4673524320909L545.877409619616,858.4967891199699L540.9881531921345,858.50981758278L540.9565794264977,858.5098898778598L540.6414980319948,858.5096829629567L540.6355623985188,858.5096789198078L530.0171604625326,858.4938490429276L519.192011920735,858.4600212765325L518.2713051542931,858.4669553989988L501.0279840440325,858.5729503517636L495.42796522450595,858.462279493162L495.21388369115056,858.4619131810397L480.50243120199804,858.3237037361523L479.6028043841665,858.3266086991159L472.1476197030414,858.3459353225171L452.78904330461523,858.277365281644L445.3657959229507,857.9832220850943L443.33851256821697,857.8440076692914L441.49383902619013,857.716784837434L426.39038806796316,857.363190143979L426.064530652527,857.2938078827323L425.9585863233913,857.2712462504702L418.6399492918475,857.1645120481207L417.82980448295837,857.1956979771055L415.6043557149002,857.2808487617283L415.4363447919359,857.3013040378926L414.8411017301636,857.3423954866013L412.38915367037146,857.228793961214L410.4202341558645,857.1408191751068L403.1024503211702,857.0244566118806L402.52677719729513,857.0052009431366L401.5413570348537,856.9738752062143L392.64895817387736,856.6844886418371L392.5069807532003,856.6797703462678L384.9759095530461,856.4240373550152L382.69926074181177,856.3250525412786L382.6885551492378,856.3245852089472L373.2400463136843,855.9052975811962L372.27367164726763,855.8628712738819L371.52464607447007,855.8298889441048L369.55124807434146,855.7569777538936L369.1595012600692,855.7402800428009L354.6544855495243,855.0909599559741L351.9573424020908,854.9666751010608L338.63387588067525,854.5238674570986L332.87724539449306,854.3241596848379L320.26414511064434,853.6671289700623L313.62876927179946,853.1918356047479L313.4722888450475,853.1946361915143L313.005059853753,853.1381663002146L312.8945161413666,853.1348158575294L309.7968200252658,853.0515833450759L300.497825474333,852.7929308257752L297.5523319149971,852.6414709705074L296.97282700127937,852.6115160251618L296.9720705087459,852.6114710725014L287.2289562100548,852.0252372690117L285.971505824298,851.9485177470492L283.50946136754885,851.9904570979681L282.8292803057376,851.9693959233973L270.6988650357904,851.5819267894949L256.5038669232323,851.5597972285668L254.0865357118911,851.5529666898182L244.3718904389151,851.281334826277L239.31927016983292,851.0800636081595L233.55268915346386,850.8455856279566L224.88823998795522,850.5986564558073L224.18868229510718,850.5782197803736L224.1031993038302,850.5757173837544L221.88712527623278,850.5855692837587L221.85119454195222,850.5834920791408L215.97724569152768,850.2412527217409L213.51662216533606,850.130923738426L210.25408346617394,849.983211441149L203.1102612726889,849.6540903060622L200.59316000586733,849.217195024989L198.32580458752489,849.0254662819257L195.97126641461216,848.7170820082708L190.66210593474062,848.0185372550063L189.5417143150077,848.1662726125476L184.8727180466991,848.3686466802438L180.09402840526684,848.3965912648581L180.09382529004876,848.396592069257L166.19400756210098,848.4369022544217L165.55935994476732,848.4380392020437L161.31529805596955,848.1856757917226L154.76143939422616,847.4345610488247L146.80363951129823,847.1830530379032L146.7949772979752,847.1911109892271L146.41075926176626,847.1608238843348L144.44039557324686,846.9910723976441L143.53153491906727,846.9125703635898L142.94662543960976,846.9027755893378L140.1354624684128,846.8549722178874L131.2008891596612,846.4106072984093L130.31564348485534,846.5303340704907L127.13051591768539,846.96009148423L119.1549571615829,846.2034112680196L118.32246962004598,846.1238631237877L110.73040315729179,845.8135921019411L107.65696838195277,845.7947460127914L106.73316675014354,845.67454184397L105.16030940682754,845.4693928584383L88.67486917131225,844.4213056908171L84.45489666923135,844.1463173759732L73.86624524203165,843.3257325164925L73.721945570895,843.3123956240045L72.18559107757494,843.217656357494L72.09947304476162,843.1927738575853L68.967006674012,842.9756755028208L58.39725396693643,842.0063808787323L57.5975883069122,840.3664880077501L56.642275691534905,839.532078447349L56.231722996757526,839.3852294834019L56.1208083659518,839.0507932043465L55.45513487546185,838.4126553248009L55.267588207623476,837.7470480457756L55.2083126634588,837.5366495352746L54.60432010878384,837.2589324562243L54.51200137368909,837.2263296074309L54.14304905690159,837.0960166533112L53.49887206540825,836.5118282342343L53.401677418296686,836.1105010202339L52.84419770895744,835.5680235533371L52.41504436813159,834.4750331917811L52.19159835059037,834.231306763568L51.69784702928041,833.6926605489948L51.65515212429477,833.6460783199609L51.50721878910986,833.6241591664862L50.76400236198282,833.5139853005126L50.4747697405561,833.7701431003277L50.252170438986354,833.7621463416183L50.196444321945705,833.6589166043163L50.14622894103388,833.5658923544227L49.64570465190485,833.5390917226406L49.37569034928691,833.6258379491449L49.0614674846704,833.7267704079993L49.11872088228574,833.6183144533494L49.27917115076008,833.3143547147484L49.318718233580796,833.2394323221757L49.064327716665446,833.0536157933673L48.950058676878996,832.9701433189108L48.58432145576808,833.0797618271674L48.657696166857534,832.87792562752L48.463682248585826,832.4509653339602L48.115878224938626,832.3604909531678L48.01659271145434,831.671752589242L47.68677996921724,830.7975233929685L47.166496845002484,830.1048920052862L46.58477649365079,829.9838105050833L46.253720014571456,829.4698810672963L46.20579188600021,829.3799611402148L45.874079072749396,828.7575516235793L45.80278215415797,828.0836213212017L45.50044826745818,827.4458992276586L45.361239898224085,827.1522205919932L44.90211900955717,826.4931799618764L44.504530958208534,826.372167947208L44.14702051598374,826.0976055292537L43.48949730621564,825.132277968336L43.30073773473026,824.8900311326813L43.41957009716975,824.2912758990759L43.12165894944815,823.9154712929912L42.65375378680642,823.8524249400919L42.33153574738668,823.8296160399535L42.00752942310021,823.2494753625217L42.255015435607504,823.0742309329083L42.46406176427621,822.5330950182936L42.44298777655007,822.0882756519628L42.28779183043366,821.6366744944978L41.96881566634352,821.5564872657069L41.87216969945041,821.3290639253463L41.79856684436629,820.8108524798962L41.9356101647993,820.536974975887L42.290572371296264,820.2471319725499L42.22749583434722,819.824122592368L42.629681650645125,818.8987787593668L42.660773716541144,818.0358569803905L42.13592415564568,817.2071512605248L42.196024318971354,816.8029467544184L41.93807372322436,816.4972012126036L41.55885551081661,816.4834527633485L41.11062168669844,815.0159506077238L41.08471812488921,813.9921436331687L41.51124567694973,813.9998006435393L41.93436790975812,813.413834132074L41.776009921383036,812.7642575340526L41.48862060057695,812.2193416652585L41.874438189921705,811.7833462861499L41.84533332698658,810.992730518057L42.070598982985985,810.3317228051084L41.781621682455466,809.9617633659352L41.47629476722244,809.810439117648L41.22811881828602,808.9547564800882L41.049674556398486,808.4853641905336L40.73948868610523,807.7264439459049L40.38324806666071,807.5954873726621L40.54834440387543,806.8165673540423L40.564121017520335,805.9810627772281L40.33108016358051,805.4858641558361L40.32191651712185,805.1140694082295L40.54095143339441,804.7196463031125L40.46237302900664,803.8499941822604L39.96983742206186,802.9649795537226L39.83961715660212,802.4083824734837L39.522010086598186,802.2321979311087L39.2765502305752,801.9884877173101L39.21819827166195,801.5364409242668L38.82142809394662,801.3003069094586L38.84900733036193,801.0004850941361L38.25552221652981,800.1567797864677L37.881925669705424,800.1057072578199L37.82200269288148,799.6463835884321L37.52203828369761,799.235477687967L36.75446744886125,798.2736868929092L36.38422763219381,797.9763296788012L36.72979027689712,797.675356487608L36.781987624197825,797.0834887942556L37.179969821907434,796.6260136179511L37.44576409483858,793.4665134638433L37.45623147898118,793.342074069352L37.39566763764378,790.2795427394394L37.13786118609926,789.7316701142404L37.37635553203006,789.188084896027L37.34115584275287,788.8148869257245L36.46084360994843,787.3914935820667L36.62189906706783,787.1977411495991L36.42467836227826,786.5726442084531L35.86590053468973,786.2621221929841L35.69213036532898,786.6599244698641L35.51794418892814,786.7661380971537L35.06553219168654,786.3580669607909L34.93135606091562,785.8678801682277L35.19333824738743,785.0320035983806L35.20613461329572,784.7612903125632L35.489744341756136,784.6106573831894L35.78165821865656,784.1084600521559L35.642849432109756,783.4237301048213L35.90394475513892,783.0061745945534L36.09677231721702,781.2668777433992L36.59588927076993,777.1341478981533L36.596124304594355,777.1207471773237L36.650273349070915,774.0363999477847L36.65923397763402,773.9538269668476L36.70222578903736,773.5576434633638L36.84221478577979,772.2674826582534L36.898360778004076,771.7499820869094L36.603855514347345,770.3257153633766L36.503175340239125,769.8399097231294L36.38532223926114,769.2711424304247L35.9626442882477,767.0400339124951L36.11496756957348,766.2591357933845L36.59597990470127,765.3615037239271L37.68433493973157,763.8001292777539L37.951489371052446,763.1729089465827L37.60960714402586,762.9967610558394L37.538666571242004,762.7699966228662L38.00573937002366,762.4739313863938L38.06986901648162,761.6480716621678L38.08223065903917,760.7829359755482L37.67233509105324,760.6300316241649L37.79491597042107,760.2609591710911L38.038313417248844,760.2218558229613L38.3238086774889,759.2236011809208L38.55371233793943,758.4198402236469L38.40162542954528,758.115660798378L38.358860018754626,757.3302429792141L38.65744326777258,756.8097923083699L39.88884448245204,754.6146751119901L40.66531272825597,752.7862292765739L41.59892809994159,750.586658253841L41.745191955246526,749.7493258773536L41.962686810582795,749.2046098571617L42.75691800922692,746.7636861096414L42.96762191520446,745.6951803525357L43.24075291925732,744.6249238504461L42.98050054575128,744.2732531026786L42.72514945090808,744.2049231518861L42.695175785760284,743.9597583014695L42.878436508996685,743.3815684043539L42.740972979477476,742.9264788659722L42.400578367308015,742.0927289603534L42.21977301801695,741.6898374172935L41.986914078401014,741.6477742782386L41.61207367909998,741.7768609725625L41.24682427158069,741.1377461883025L41.7865287560287,741.1957981968098L42.08333013151184,740.7217803357803L41.80650311820074,740.1186455561121L42.20653095906863,740.0315525337883L42.25825301597513,738.68020319763L42.60867136261879,737.3604619450756L42.39331445146638,737.0101439460151L42.50411008513737,735.8347319139295L41.992650146687765,735.50207837296L42.10820148577676,735.1025181744493L41.99395218240528,734.2443587081216L41.8803183187141,734.1479354933311L41.63050072879264,733.9359391608541L41.4319090418245,733.5042470953812L41.1938383535512,732.6407958326637L41.71698615473446,732.0642781750657L41.41880887956171,730.6354612399107L41.0176959849947,729.9967397779287L40.31053054695934,729.6635820967297L39.56529782876703,729.0562932670831L38.93691081020495,728.4519851574996L38.43766067023529,728.2690573660415L37.05310643265926,727.3413746268611L36.986724774256174,727.0053009783984L37.502659133748466,725.9975320351534L37.557936319688565,725.8895439297144L37.3847648861676,725.031192533705L37.06614883978938,724.6524895152671L36.72861226946452,724.225434974808L36.795575343427004,723.7791889650229L36.29061863579466,722.8951511912238L36.336746799588525,722.0129260308474L36.16389132852089,721.3340088605601L36.08026298158916,720.8920598446855L35.89023030069592,720.3492297558467L35.514382962675995,719.9469970105598L35.59193289484182,719.2390032063935L34.933434217261265,717.717431561385L34.397810974984225,717.2696755023162L33.97862400531386,716.9191879148121L32.93183058831818,716.0893617227894L32.8795012812713,716.0478695626607L32.04493111692068,716.1043563963249L31.935629434391842,716.5074557623552L31.395641972807596,716.2755537246037L31.380274771604547,716.3112271761352L31.16584397933127,716.8089748795057L30.768212999992215,716.9645798328203L30.389316883960305,717.3046380485275L30.098175902524247,717.3120372300478L30.023538844707105,716.6645362449931L30.156416181857253,715.4708832277647L30.26468640825061,715.1812471129847L30.073186771880728,713.5318333009835L29.7409790682853,710.9759188751676L29.49204121007608,707.808411288584L28.738844076197722,704.9998942649765L28.38238236319779,703.6698425887307L27.508210332443753,702.1435352841825L26.546679801543974,700.8761847025823L25.816011655050318,700.1303389241169L25.18518344250458,700.1049832245976L25,699.7205105779252Z"></path></svg>