<svg id="PA" width="1000" height="1000"><path class="state" d="M37.56547827741434,509.0290791692295L37.84577747730316,505.9879274669301L38.19441017146687,499.1541851217415L38.19443526230555,499.1536932514915L38.25231644883229,498.01899549268586L38.56143609199023,491.95838233112596L38.63401814930245,490.53517455157225L38.6484165311133,490.2528400823068L38.86897157521372,486.03642861228946L38.95925843131323,484.2091686245084L39.02104790330071,482.9586011742039L39.05083848153305,482.3556506189742L39.25185750982331,478.28685886859193L39.35107844097894,476.2783914524913L39.455470683717465,474.29034654438607L39.45999705351858,474.097357677712L39.48700517236506,473.4317883496996L39.547329465109385,471.9391774262214L39.5556574581359,471.7712227179246L39.63726705484311,470.12532362760584L39.63745532818956,470.1213584007227L39.72495645314177,468.2784646712988L39.73921291717278,467.9781979982511L39.77642956622009,467.0187085436688L39.92006991124583,464.7809844092257L40.005843512989145,462.85842950789964L40.012844495151114,462.85877902348653L40.013223568334524,462.8511859248211L40.013466663849215,462.8463165523193L40.07555940550378,461.1073755409684L40.07606458450056,461.09787053986827L40.212218593119815,458.53599652590884L40.37189833082277,455.2815557039307L40.47832001648095,453.11242841082753L40.67535026135312,449.6030671267084L40.74296169118526,448.3986938834722L40.85484497124247,446.405556511723L40.91973945178597,445.2494165871468L40.928638397075076,445.0908710770586L40.9354798213252,444.9395554174671L41.019626283773505,443.07842140060086L41.025449869955764,442.9496152289588L41.02546040008798,442.94940418110957L41.11493448517297,441.1560964078454L41.164434118207225,440.1639499935807L41.16691129491318,440.12206760252303L41.16695511677068,440.12132669203555L41.29139338839383,438.0172927550417L41.29586848621432,437.94162236710287L41.36773777421786,436.7263283124564L41.50755699452725,433.28583731944366L41.52247977222248,432.68401803924644L41.5232694218692,432.6521737073307L41.5243195717336,432.62156157093915L41.57707373714271,431.64414382407955L41.947761206659095,424.7750744729677L41.96445672573299,423.5264300640736L41.96452502329629,423.52132346681765L41.96724997538979,423.3175880613872L42.158567724868476,419.0676416856841L42.16745051612605,418.8703146228536L42.167569669958084,418.8676656074911L42.19081307837962,418.3509193295038L42.203292623792095,418.1006707985563L42.203597513085185,418.0945569252608L42.218592856889586,417.69839752449593L42.22146303738589,417.69811796770296L42.227770916551435,417.57162654249055L42.22470215273347,417.4677044525824L42.23095748577737,417.342268361169L42.3446161249006,415.2149543699731L42.459073373856995,413.0725212430217L42.45942430481881,413.0659521837927L42.5798297504345,410.7528210990926L42.64739581472338,409.2958615945606L42.743031464307364,407.53610814754114L43.07689466150566,401.39184965679806L43.08193977812675,401.3923123074264L43.160864814444494,399.8087383502632L43.21945013306242,398.6332228311719L43.281592730288764,397.38629009573947L43.33161782323265,396.27364087190057L43.53846597298906,391.672841537031L43.538519164826994,391.67165839816613L43.80958299335748,386.10584124268416L43.921449867212516,383.808645422038L44.2346325298015,377.73766398987055L44.26052640326105,377.03493199512536L44.3163270632636,375.52061325478604L44.4493344420124,372.8448142222702L44.64812293852373,368.84530084631194L44.725989158966456,367.2785613182894L45.02294986333618,361.3028478402532L45.02459161454237,361.26980841888195L45.41376182756244,353.4371430310406L45.41701022243433,353.3717571674906L45.58785212998578,349.93277876380955L45.67987278185808,348.080311597981L45.68463929182053,347.772694688162L45.690240508149884,347.66295352945485L46.0090209591437,341.416677430572L46.14569874364628,338.6316054022202L46.14574023881397,338.6307598300591L46.39964126165182,333.4565398222471L46.54295960113507,330.699271692843L46.605333645012536,329.6133814006763L46.6955190737238,328.04321224291544L46.963771150065156,322.59774768344164L47.56852006980131,310.31875213284127L47.707142936718355,307.50358471850785L47.707187971727365,307.5026701106583L48.00835543336996,301.38585062503483L48.16402463080652,298.22378841020804L48.39072833460489,293.6183787742949L48.47769426052122,291.9384029735372L48.55162648325023,290.5101340838852L48.61275447553595,289.2193774310799L48.871019656266014,283.76560698311357L48.882121805768634,283.4793161762964L51.06887080413799,282.6227684421551L52.18728778169799,281.880987354581L52.46067183007057,281.91778772082466L52.78833313408626,281.629465706278L53.70474502583954,281.53502629338834L55.81418878798752,280.720655455583L55.955927024344135,280.67420709999413L57.56751118672645,280.1458872740007L58.75742443357399,279.7555718253535L61.49342789507409,278.5629652390429L61.9883881455126,278.16898315638383L62.78331770378139,278.18392810895375L64.12420818293441,277.79980106207626L64.7088067073413,277.443589812956L66.31064108147638,277.1728784142397L67.09799623848323,276.8558034911008L67.62394822215288,276.77704846474546L69.25228258865855,276.07289378212914L69.70903258172774,275.9081927603164L70.13783700601164,275.6905234693737L71.55930098159627,274.96874190063136L72.0019636283817,274.74390074693474L72.33573699314718,274.85599346344054L73.4653915137738,274.2205875031476L73.51986197249192,274.1899433255217L73.71673019412361,274.0791841248266L73.97043736069173,274.03643707816155L74.25240553390637,273.98891905341793L75.3552736092957,273.8029668652425L75.93101580791955,273.7058327822286L76.00481729314293,273.67911397396904L76.57722961499894,273.47185357753096L76.71166014712804,273.42317186730475L78.56064435483546,272.7533319585362L78.97604170386728,272.6027768626754L80.48927530631988,271.8978575203436L83.93346910313295,270.29206702866935L84.26960517522224,270.1352486958449L85.14613298266045,269.52321352643787L88.13449932009252,268.2298896562206L88.91810759725246,267.96710786264316L89.81808061407457,267.3526023479612L90.6049182024476,266.81520948231093L92.15314251708782,265.98875902780844L92.46849577248469,265.6690633571003L93.28989097286404,264.8362131701994L93.42739862151228,264.76547747026916L93.93730459570571,264.5031475061132L94.42281075132746,264.64648477058716L94.85035622885255,264.5479201730666L95.47571124467345,264.2583998429148L95.74366536548877,264.134326234841L96.35632873559274,263.94256061034537L96.71665933982399,263.8297520092583L97.27246677466172,263.62590867856863L97.80731325705068,263.35334620279093L98.38508363322148,263.05885551815055L98.71159125559308,262.6261349348304L99.39687817603658,262.34012489765075L99.99530423538175,262.2972979016064L101.34757916268995,261.557402037788L101.59268162801499,261.4232602247378L102.7763829295452,260.66454480068745L103.81487776499915,259.9986761440753L105.14866382090167,259.1431607843995L106.33852210079226,258.2159568157343L106.65636073691593,257.83934850728076L106.93475725166365,257.5094439606597L107.06253469871581,257.3580157293901L107.13652373352409,257.1925207956087L108.36173624545228,254.45122816362425L110.24388980064145,250.23715416662657L110.44740121215204,249.9648308699165L111.28048275436339,248.849871869789L111.37387194195838,248.76448080876878L112.78882887090509,247.47041143721106L113.1859242254713,247.10714312562692L113.64482647580945,246.83487663896364L114.62955429582462,246.2505064842448L115.9803961015096,245.7532219302891L117.76184729355964,245.55476012407814L118.04665426252404,245.59798210586752L118.8999914571574,245.72742457304702L119.84321852789992,245.76664275201614L120.11690988725024,245.77800289230316L121.21725738801297,245.97143726489986L120.95157701363831,247.03171139804692L120.52121940481578,246.71838325055876L120.10334683929892,246.9965623548091L120.04845396708924,247.0092248744133L119.7336534134455,247.0818346446972L119.63405462936964,247.1048047831714L119.18696982916646,247.1871005303928L119.02576986333355,247.54285177041464L118.99491102949031,247.61095102739404L119.13335502495778,247.82071300596408L120.13016057995588,249.33068499513632L120.15761690045326,249.3722679928838L120.17196709229364,249.3940013941185L120.10884887846692,249.53481310101705L120.01569341276644,249.74262822312966L119.72420437604796,249.87567957999858L119.75828492957254,249.9530284942304L119.93255050679738,250.34851859663547L119.74023226349857,250.48967485103526L119.88789556213106,250.72381402932314L119.61915118187164,250.90752669136145L119.79394763301906,251.19251264161767L119.88862493980315,251.2399138977632L120.09135980146164,251.34141040108454L120.54402944453045,251.4971498258828L120.96970219735618,251.55450227246155L120.97819992107185,251.55564697943078L121.69181664806058,251.6517454297994L121.7733500161396,251.66272112752455L121.7769863610007,251.6607245190716L123.56519324748461,250.6785922140129L124.34015008728693,250.25279024426368L124.85929949005543,249.96748330525787L124.90302390617467,249.9434516844408L126.27855458096741,249.1872670735761L128.10096647926514,248.18490171204434L128.13099564882032,248.16242337261133L129.06861485339238,247.46046667933683L129.52421605480606,247.48768403024053L132.3442371757543,245.86958869936802L133.02847788417688,245.47676244638257L133.20591445999054,245.3748813236886L133.73844927211798,245.0367198271565L133.82507286466512,244.66184620924088L133.84700427797594,244.5669316796173L134.59053867471408,244.192708446175L135.06076826138718,243.9559928613565L135.7054141920699,243.72493485626626L137.66005923832586,242.50103931155553L139.55895412408387,241.3113459809348L140.90905656351032,240.46505822906022L142.4254543645647,239.5141116013575L142.4802952845193,239.5081842714922L142.98863899003663,239.4532241619695L143.57939009081753,239.3893155281179L144.18780238661054,238.94802240340948L144.4900172256468,238.72879016838442L145.11075147666776,238.63683546132023L145.86850211840726,238.26418311458298L146.21072096171412,237.84343230690519L146.26297539379982,237.8441236271612L146.65124930025723,237.84925039462928L147.1994543963391,237.6097294471018L148.00602717432116,237.05334335097285L149.56905548643925,235.97475621962644L149.9983948488681,235.68398578952986L151.63490732451214,234.57530891950609L152.08248066684257,234.95669763293392L156.08753119649037,234.00862044869064L157.61363591463794,233.17159466903018L158.17008120920235,232.58345358639298L159.14128143041467,232.46494892084854L160.13660964269366,232.2506184301903L161.1372126449868,231.29540116577164L162.0060961078039,230.8731793766877L163.31507753841402,230.04888710795234L163.4046553071504,229.992466011612L164.38635353559658,229.41425547058822L165.07809332373074,229.00672072785494L165.81052757922623,228.38353022267847L166.6924574001216,228.1388322286325L167.27875286084384,228.45579700568243L167.59680161491002,228.18754130858736L168.4208450034837,227.80377719931477L169.1614749304345,227.2837131959663L169.15731185755902,227.39837197800864L169.02086860453045,231.15606475691993L168.9295696465956,232.8920202833396L168.91573003282474,233.3269767957832L168.8499475953792,235.39439768515933L168.5336673817775,245.3341796603599L168.48927717874125,246.1574148801438L168.44272669637388,247.49221737983993L168.4427112451038,247.4928476146453L168.38815904858217,249.7180769235954L168.38805775751973,249.7222089018626L168.32300063471536,251.26616376873545L168.2825027446205,252.22720982497827L168.09592918880162,256.30334008956413L168.0681404005229,258.8732856187496L168.06684127157672,258.90890305078005L167.81836433551564,265.7205598803698L167.47832529814116,275.04005850199746L167.3037977787967,279.8223680446705L167.21976284801298,284.0138058009095L167.2291533031006,284.0141051074652L167.25409550568799,284.0149000523035L181.4442676672826,284.4553440863024L185.3155985478399,284.625351502762L187.555444872382,284.722910162492L188.4316671387424,284.76091469884045L188.429939421779,284.7472077685128L190.683787546887,284.8385806031281L199.94969611214407,285.2079690224672L201.96601564055385,285.30142965486095L203.59508935230906,285.3620590665772L206.2451027191941,285.46002019584796L209.26309412735952,285.5705814200766L212.24927110784796,285.67892623604223L221.8067926176077,285.9336860073099L224.4762094173806,286.002929042839L226.40015992273854,286.05231762222553L226.6061371589408,286.05757944946174L241.346037312968,286.4212200872312L246.9741696291357,286.55335668669L249.3722510440112,286.5870206002245L257.9317629020328,286.70168873375917L258.07977847855057,286.7035962080571L263.31464060247026,286.84579114985775L265.6324351564989,286.90772434811254L276.3702610824124,287.1864372208333L277.7412014594104,287.22523587290925L279.3646513740883,287.27089600599834L288.56331196241945,287.5237812539391L289.420520892514,287.5570831820586L291.9450424785468,287.65465840578054L294.5718658191058,287.7553943216898L298.5730763653439,287.90728171620884L300.62701621570295,287.9845208896251L305.4476341388746,288.1638592845386L312.8323327067167,288.2619575611126L320.1427448465209,288.35278249745977L324.9455143267338,288.409047991324L330.41954743016834,288.41723956247984L333.1362505603631,288.42000301202415L345.4992955129584,288.4216707111084L348.8300895320288,288.4190615090721L351.47640245088604,288.4628866245773L358.7393891854847,288.5789552790044L360.8179045512517,288.6110353135231L369.6249851229417,288.7413538998469L369.68462138525615,288.74220539264235L372.6122397079483,288.7834944145698L381.69952198009787,288.90526528151526L387.2653880255399,288.9750758737295L387.49122882272786,288.97783196739096L387.769763341238,288.9812228984287L391.53821530266714,289.02620827362716L393.83019976426533,289.0527556805311L393.9947372696822,289.056964207556L397.5894919871988,289.1481191475855L399.58874966251096,289.19816090128415L399.96207610736303,289.19628135064505L409.6661615602003,289.1417031542113L412.0599595972297,289.12654532498834L422.438053653114,289.0530740473939L422.947349181987,289.0636847027879L428.01423346837055,289.16759395567806L430.29552390565857,289.21339617735356L430.57267187896656,289.21891905779773L433.2776187063217,289.2723497978266L437.02952107247233,289.34504283030776L437.06288135227135,289.35001185945237L442.2808775899447,289.50359129042886L447.7017093668038,289.5318314997389L448.575568320056,289.53606209623604L460.46789813028727,289.58475360718637L463.22528913674836,289.5936799722135L465.99373591841754,289.6017470938227L466.8173761104444,289.6039740454415L468.09349923928556,289.60726764555045L469.53344306598314,289.60318761592526L480.90005681687165,289.551246585285L484.2123362643556,289.52417252253247L498.7155904205594,289.39050628424184L502.7227901072182,289.3492344099846L519.056794518918,289.16156079233184L519.2644079736284,289.1609409128741L523.5778253822907,289.1469212000874L526.6578217138205,289.13557808535177L529.2912733506954,289.1249991939345L531.0803847376906,289.11734917010085L546.394237092666,289.0365446819178L548.54367556585,289.0230067943221L548.5456381384373,289.0229941863332L552.4577790041001,288.99696580096924L563.5825955517195,288.9131618376936L566.5995340346259,288.88793863924735L575.3335590539089,288.80891218574527L578.4253617576949,288.7787977497853L579.9716805899238,288.7232579988372L580.0007615125542,288.72221080211347L584.884047272037,288.5449586613522L587.9392202348484,288.43264102193575L589.6256085994327,288.3941650959191L596.6784162707883,288.2296422594467L596.6939443297806,288.23550542220624L603.212873594138,288.04342885873245L603.2194181738264,288.0432335245216L606.8211863407636,287.9247161656634L607.6787625967949,287.8902761043104L609.2383008053845,287.8655985640019L610.0492584841544,287.85265376180195L610.2204706252398,287.82891946131565L613.245422176211,287.77994171676494L623.5861979174072,287.604421832984L624.2914175122793,287.5969280386428L626.5809166055028,287.5721981637062L630.9646422818585,287.49098065090334L636.9048700985622,287.3773357992808L637.2795238162325,287.37418953603924L639.8556266812941,287.35211115271085L640.0401894526092,287.35049954978115L640.2287981313589,287.34884849938254L643.7626621697486,287.3171438389045L644.3949445361297,287.31131706530294L654.3071604248398,287.21385517602744L666.7827648563277,287.0748443391848L666.8481261568438,287.07444896954974L666.8598041434186,287.0743782769344L668.2441991855871,287.0658847573395L670.3822315591774,287.0523268560571L670.8353887736954,287.0493845420997L672.0548742715055,287.04134716298853L672.2026423606029,287.0403614316861L673.9847557762562,287.02827206231535L679.9943831032914,286.984764410494L680.0558925278266,286.98429725187736L681.0683667049702,286.9765439719488L681.7525909312667,286.9789787934391L694.3248134789658,286.7419168973551L699.2401813831879,286.64420100546704L699.2593336828505,286.64381473172216L700.2226715902398,286.63171347197454L707.8173485457747,286.3973075092794L710.8139451540779,286.30295968935377L712.6054535385895,286.24605150678224L721.8605518298107,285.94606847339156L731.121568566569,285.63584596619734L733.3535225576982,285.5595775372045L734.5235462659105,285.5238721397998L736.5177042969224,285.4770842330139L737.3078812087249,285.45841589668265L744.4400784611997,285.22111632664496L754.809743407482,284.8654660005761L755.5456258085356,284.8397483790385L756.4434573741585,284.8082849945208L756.8849172786893,284.79363744682416L760.2900571230216,284.688553162933L770.8576694018375,284.35378074514495L773.9662580898589,284.2528126133345L789.1427557320214,283.8583830370038L790.8271308893039,283.81294377036454L793.9959144417994,283.7265590575602L807.4912126208535,283.0578890914063L814.5433535764021,282.699959584377L814.6384601217842,282.6958704973982L814.9705857290105,282.68158250001056L823.4620581221936,282.3118854996264L825.6827720179675,282.21380579990443L834.2650701487505,281.82932203123903L834.3565456483732,281.822401642488L835.2910717974547,281.75164544973734L841.6686274474633,281.4902022026277L842.3315027280671,281.4594749496609L853.6080560012508,280.9473659592866L854.5763810393107,281.3946705739143L855.6738095627298,281.7207698546748L856.385594079022,282.12642376114843L856.5459001303789,282.2177714284327L857.152076957957,283.4661503426861L857.1444306544994,283.9526386519741L856.5116139561217,286.0994918739542L856.5649862679531,286.39776454845344L857.0080482691044,286.8161691467827L857.5919835526977,286.8888824379137L857.740046846993,286.9453989093885L858.617735705648,287.2803514999286L859.7608519311434,288.602742459889L860.134207560565,288.7594170202224L860.4891392998843,290.1367974164882L861.3623087020532,290.9491475822992L861.7570130785149,291.1770989698133L862.76165609812,291.2986571914762L863.1191620359909,291.2478888733036L863.1814147741769,291.1357644793814L863.1005935736066,290.4295288640933L863.0878430909665,290.3181062080601L863.2623609304378,290.087380448579L863.5413889503438,289.93804198006984L863.835559987645,289.91873154419613L864.2997492187774,289.8882398044592L864.6761274338717,290.31569355126385L864.6760710642269,291.4474140361143L864.8199631394587,291.8722977483127L865.0875551204197,292.3114837349236L866.7310216715621,293.0712331681523L867.0712022543568,294.1735581600643L867.0994694182095,294.3973421007553L867.2538623251324,295.6195139421611L867.2891241401273,296.55773979213507L867.4994945870333,297.1038566145729L868.458089175509,298.78368534648473L868.8393052553876,299.67198439889034L868.8556826754304,300.73992172399176L868.1211822795042,301.7955024032792L868.1901512364186,302.62160625693093L868.4477700184959,303.8309862401209L869.0083534629439,304.09484300675933L869.764180586238,304.24342756044484L870.1492005814493,304.5044169560718L870.6921414665857,305.8829348905203L870.5751144077065,306.31339201755645L870.1163012747029,306.7153362579119L869.7771762917939,307.26103724202346L869.8251551307484,307.8165692967939L869.9796833031419,308.2073319182174L870.3587402454384,308.6972646146054L870.7971069261725,309.0231155236215L871.8342144345914,308.998863507118L872.3145597169014,308.7114675075557L873.0141249692867,307.926909006737L873.3572882382315,307.8597655923491L873.7448981112802,308.14008678111287L874.4384976059207,308.9762659941066L874.9208435367158,309.39745425113625L875.8613564829221,309.7693239871571L875.9595536140706,309.7663670159694L876.1720521991535,309.75996427303306L876.7057565339794,309.08739918686683L877.4429764144961,307.59817521240325L877.6203869204767,307.5057210574523L878.2422710512318,307.18159601298555L879.1329672911181,307.0096314241287L880.1070857041082,307.18632092537234L880.6620280122149,307.47961864598153L881.1438773530294,307.92444396927965L881.363462818283,308.46274232540367L881.5809026577575,308.7026759032215L881.8886591652703,308.93093381136634L882.1622631638113,308.9555190708224L882.3622457354803,308.8229124014663L882.605749679868,308.4572659670963L882.8480434797357,307.7132819794922L883.0182989287698,306.8101792802949L883.384614171442,306.2802829408067L883.7034312742383,306.20421434073864L884.340449022339,306.3948964540302L884.5485428846235,306.62969701763865L884.5760933925874,306.6607822094729L884.7790236849257,307.33396687067795L884.7512965897752,308.9727968208277L885.1990473301651,310.08632268609676L885.5423567005867,310.54857472271806L885.9707439892551,310.8960703200645L886.7722595277003,311.17483823833936L887.3348735936103,311.0977873421833L888.3198203542343,310.55888189628376L888.7211834591492,310.36312621434683L889.2778243488649,310.2643586136303L890.7960353421877,311.64895544270695L891.2785093074656,311.67632396659593L892.6956258694777,311.41430698373483L893.2066812059351,311.6377142276848L893.405009807101,311.84993826362364L893.5957792578184,312.4475417241264L893.6298577212723,313.3716025071373L893.4481432860445,314.6425219732141L893.4558896301994,315.2765339737693L893.5210134028091,315.61316090585353L893.7858800828444,316.20785507420635L895.9139220763265,317.03636263427563L896.980419491159,318.0299764907378L897.6332809120446,318.37625191339896L898.2109215239166,318.3370949737246L899.1119236323641,317.62123975608995L899.383404732001,317.5452374367097L899.9553449168366,317.5218173144045L900.3195266392437,317.7890323822748L900.404562123801,318.1701233636164L900.3767213158962,318.9236715175086L900.1549560760504,319.93271961855226L900.089749575621,320.2293689927703L899.7405615839668,321.0217108449333L899.5352913285647,321.25124010965555L899.053289242061,321.4823135322761L897.9602700174254,321.31534569244775L897.2603180040014,321.59163372814294L896.0036467455357,323.43124700212644L895.8829511350934,323.7398865614731L895.7386146117135,324.6931871057115L895.7053822206931,325.3000084339609L895.701795060264,325.3655023204658L895.648375757849,326.3406533950721L895.7119267611961,326.6554030582896L895.858865347859,326.95446803761047L896.2726853150083,327.37973897203193L897.1481303675806,327.4954489965983L897.5618632880326,327.47603651786267L899.6204394060935,326.77517142745495L900.1709895543627,326.68187926782366L900.4494349805011,326.87853533265786L900.5801821153459,327.0508619689427L900.7127829619426,327.225624290033L901.3703289805705,327.51050922104446L901.9509876957798,327.61034305759483L902.621324367343,328.00798228890983L903.4511979931981,329.62409405813514L903.8968290695901,330.4917025047872L904.0768727451531,332.12785519775025L903.8626249053484,334.1511989952401L904.0443159714648,335.21128352099487L904.1495867223719,335.82541545608194L904.8771658247683,338.32833608381975L904.8704520227752,338.7044495577746L904.7548989976437,338.9925169177943L904.5198749290835,339.1250270469119L903.1001864305376,338.8720725489982L902.2480826607556,338.98779750078825L901.9581338279916,339.51666624476906L901.9494758531555,339.93522571902554L902.2215644153848,340.4960691622357L902.3148820453636,340.5828914167382L903.4503284997669,341.6391121859721L903.9764994007884,342.4581340605755L904.6827344806767,343.9627294515622L904.9813609140701,345.2021720646334L904.9995381619037,345.7233693177694L904.8009089509072,346.05467367297933L903.8838744727382,346.94858782127505L903.8169015142712,347.3927553062274L903.9843582491038,347.93883252967754L903.9843936738665,347.93894804448297L903.986625968002,347.94622721489407L904.1793334246045,348.08828005569967L904.6989968483671,348.217917532572L905.3978181464497,349.370876973538L905.6580753749316,350.67258812213583L905.6841131115434,352.01572194318464L905.7170655017682,353.71614759006786L905.9004665200825,355.4102364735962L905.9913324150016,355.7787608337977L906.8088136396577,357.50217729356086L906.7647874310876,358.6980240842182L906.5817455359572,359.0814574754092L906.3046967477972,359.18227437871155L906.1317390862438,359.14987331681505L905.5630903692595,358.72079403498583L905.244357427315,358.6318275715248L904.2744993467265,358.92779005554416L904.0557511627958,359.1607447413371L904.0477964445014,359.36374146143925L904.2076775217171,359.70680057668085L904.3513924731599,360.01515190823386L904.4035817346962,360.3298325581063L903.9455250463586,360.5977721053917L903.1415933209771,360.5317400517797L902.661323310214,360.6637021067679L902.5394961129884,360.6971713620029L902.090948576421,361.05603895819877L902.1160027203496,361.5173626635657L902.9289520955128,362.3245611790186L903.3863691523823,362.7786560411024L903.951318236846,363.73908627295907L904.3907030701089,364.3057642512264L904.5692216477505,364.5359780491772L905.72679387776,365.1191217780105L906.7339915525579,366.0203418473117L907.2739082344821,367.71484705421835L907.8646718114724,368.82518539061755L908.4437718589296,369.35252128868296L909.066991960731,369.73375183813164L909.6937625412083,369.79795958614204L909.9995025286836,370.0136217814139L911.5134516240671,372.4128507025158L911.9160547795022,373.51060831809747L911.9692082535448,373.983615887486L911.7520189326361,374.31365773631717L910.9464193864228,374.62426312678537L910.6538413747269,374.9882836725768L910.6607774160838,375.10923682055306L910.7105634053653,375.97740309862354L910.808916403498,376.20047527833503L911.0053740020326,376.374255909351L912.0249879039254,376.54115584185496L912.2999468061817,376.67715336952404L913.1770115518707,377.252284624992L914.1228207428139,378.13421202626796L914.5617538504171,378.8295768368642L914.6372222620802,379.11226281903896L914.651278132058,379.4605595021985L914.4233371137946,380.1217506418485L914.2875876683277,380.84074824858556L914.2848614462985,380.8551864472116L914.3063961221594,381.2387900832889L914.404850590651,381.4857214640941L914.6662629046884,381.5407315875078L914.6958271611477,381.5469523846593L914.970236612792,381.6046873579988L915.857041344538,381.27343404993246L916.8420039450837,381.226152027455L917.1647811981529,381.38088718236565L917.3809588184095,381.6472602119911L917.4655535655202,381.91143496827317L917.7552891156269,382.81613635589633L917.8165932255961,383.3395490970952L917.7920094048311,383.7669405792452L917.4328600824492,385.33763320495837L917.4132412019133,386.0246382240419L917.5298827943496,386.47455987329465L917.6337164377705,386.67950133981117L917.8226578744802,387.05240228457296L918.0993617436294,387.23845000928804L919.9823467235204,387.6702807404612L920.6080804649418,387.7124167803319L921.8277160948588,387.7944136986746L922.1156519787328,387.7078623756575L923.3869565055894,386.8204002817073L923.7442556995074,386.2554280700597L924.3455923896631,386.1545283391688L925.81199201506,386.33497657018734L926.763067163803,387.1285326442902L927.2088801191919,387.35606688045357L927.3286280791392,387.3520402282934L928.2840682839842,387.31985292757827L928.997489852029,387.5639373334166L929.0516115216376,387.5824512131426L929.6131149250218,388.22175782354816L929.8265821660345,389.1222808506168L929.8700952237984,389.85427678118447L930.1010780875415,390.58269880697196L930.5398394171058,390.839199274583L930.5407963122069,390.8393723345541L931.9987051191208,391.1029131859553L932.4787876479488,391.3372795986062L932.774225137794,391.66676984953443L933.0015357814727,392.243772932593L933.0224762160474,392.5148388830859L932.1559386388212,393.64763892960593L931.9681287641164,394.48542178629L932.0517188587335,394.94387636919794L932.396974950404,395.14872316198273L933.2288913594039,395.2461045007451L935.0951290758953,394.70733346056284L936.9532509776217,393.83577743351253L937.9127412130407,393.6924869142051L938.6180878785283,393.92075311550275L939.5356953863209,394.50199876780624L940.0436431926224,395.02403901629464L941.4782884336598,396.2033378571598L941.8477479126498,396.35836626045943L942.4769684603382,396.38604808271896L942.8029817462159,396.3271237002241L943.195421038379,396.08652097479114L943.6348458938278,394.99473422626744L944.1174289742953,394.4489245820204L944.3632944050714,394.17081387070226L944.7037140461427,393.95398637316794L945.2616236312952,393.5985822097938L945.9799138685784,393.58775131284085L946.2926783684304,393.7281493588156L947.0381757614244,394.532216795992L947.1967422481002,394.95435374356185L947.2794847343159,395.66769439542634L947.3820250090894,395.9516279703381L948.1219469795337,397.4549391519221L948.3803028700297,397.7172117273732L948.9350954536001,397.9001949739113L949.8863192181709,397.6920200430336L950.8511692531092,397.06686486187243L951.5929283327197,396.7621584827093L952.0031373679633,396.76517306772223L953.1309928692957,397.2555071736257L953.942310697294,397.27899119486403L954.5346630820759,396.88556550567455L954.5880632255435,396.8500950257744L955.1355808765993,396.2202739103774L956.1872358363263,395.60150700204827L956.6371274988735,395.46541597284875L957.0342941874271,395.5527742406403L957.2960873316978,395.8023690159631L957.329945036749,395.8346476959217L957.535340296321,396.1955132178922L957.6536472334014,396.53676809045095L957.7161061444318,397.192104355628L957.2010117473064,399.17208891774897L956.8458449657563,399.62507836038384L956.7878729055662,400.37471653943305L956.9395511854057,400.94931699541894L957.3665111816933,401.75547665717517L957.786749447374,402.3220047445548L958.1927244271758,402.5998649728636L958.7227423605914,402.8479159229175L960.234175817088,402.9677285338209L961.0353558231898,403.3674813643778L961.4741258163281,403.92798247514105L961.6359562457649,404.3822060267976L962.0433158069101,405.5254151969377L962.3870261557108,406.1823952558986L962.800926965665,406.5446226570807L963.2506757279201,406.9381728554722L964.2516397677381,407.6011316242873L964.2546383902477,407.6031173755756L964.6207958527838,407.8455812551401L965.2650020522572,408.46556019410076L965.5618264166816,409.18437096422656L965.5495788078044,409.6680280086253L965.3572130662529,409.93643180832345L964.6760010346857,410.5115888921382L964.5516030534627,410.61660725643236L964.7852800682155,410.5855573973399L963.9212176872013,411.2413220816737L963.3209474263174,411.3831997990645L962.6904994554257,411.695634598349L960.7914510067808,412.93390418838584L959.3131890456365,413.31334971768956L958.4764958294903,413.2472908933759L955.6942434619118,413.486809498918L955.2757897325448,413.75727166611665L954.6413062851126,414.77094571939483L954.2418216963097,416.64441680010253L953.7682981798762,417.30710262220646L953.1827895024795,417.92901254326887L953.0375992640757,418.08321156417986L952.5242245060581,418.2708920439748L951.4653093120139,418.3500508037712L950.2874317939347,418.61556274620386L950.0519610122915,418.7152236085774L949.8187106966047,418.81393655936404L949.3797436664938,419.27323345957114L949.277898279897,419.6786482591948L949.3182558443677,419.73973603035773L949.8747422182734,420.5819830139157L949.9643223075077,421.09485751133514L949.8862935049962,421.3129274848316L947.7084159858745,423.01286658295896L946.9465442397405,424.11150759830474L946.3883736541042,424.56626231679513L945.4359069624078,425.10744359431044L944.2173965542488,426.57765679192033L943.6518646978573,427.8961742247748L943.3336359757061,428.31734923383226L943.0144204623465,428.73978351122275L942.9662320832022,428.9175452355172L942.6474128679561,430.0934542298769L941.9163004290212,431.80471085128255L941.9037975668386,432.12288964601987L942.1778832116327,432.8528462560738L942.0783247571728,433.5161233029876L941.930569243654,433.8683050315305L941.6289639303013,434.33437728771196L940.7356626507548,434.52694386472615L940.5288449433365,434.6261150532832L940.359522264222,434.87197785678694L939.725675802063,436.4716805204703L939.7119010525143,437.3115011033206L939.1184133829308,438.5022585796236L938.9738639810282,439.43297059383394L939.073945576044,439.6190772477537L940.0780618322012,440.52734989511214L940.3389236966827,440.8962868804059L940.3289000121032,440.9893910368652L940.3061546150857,441.20065113293106L940.203045338078,441.5496523591538L939.2083904527949,443.4442952478332L938.6225148981803,444.8010163736858L938.2529363845485,445.65664030084304L937.6705927512417,447.39251839043743L937.6698887100815,448.0243688314547L937.165944932535,449.4627837124566L937.1385993420424,449.50319004591444L936.0901858145737,451.0520367974219L934.5405845343262,452.70520615893946L934.3327557272241,453.2055116590263L934.2639177965934,453.7333650800269L933.7756395793582,454.97160359097853L931.1233810443921,458.8220970351201L929.908454879387,459.89388860937464L927.7414083246393,460.92567831150194L927.3508459218622,461.53061268547276L927.4317816751084,461.9187943393174L927.3495418003776,462.10925038752305L924.8456809635325,464.21438333310834L924.5330141135576,464.35094541058237L924.051181111924,464.3336270532561L923.4834318197895,464.4778898285237L922.4081974233981,465.14865445399937L922.0597290524015,465.6279800418982L920.7205018081825,469.07791667063583L920.7393754886402,469.7446458080819L920.8731167532726,469.85511071265245L921.314902702714,469.9077403117771L921.8656877316935,469.8108778087317L922.4035504938795,469.5045047573035L923.3153456149296,468.56483340358363L923.8183763184456,468.22332919652723L924.2270159233894,468.09365670449847L924.5488531140643,468.2351689897307L924.6108564402459,468.4195900309447L924.68198661159,468.63115036732944L924.4842528875281,469.83365420508187L924.0980207238656,470.3841778247372L922.3171322390269,471.7732034024147L921.2526050194965,472.00889656641624L920.3933634809888,472.42668506127006L919.66194631366,473.0179076079042L918.654565352283,474.4249611567158L917.8969357686642,474.46907119575064L917.6813934968961,474.74282894944236L917.3057654959767,475.835436577112L917.2432465423597,476.4753630160949L917.0539547327207,477.0611790598822L916.770875668483,477.61025876006386L915.8021518285135,479.03408848414017L915.7166853436415,479.47117400344547L915.9076474038689,480.25191976311294L915.8620561345557,480.4458234057694L915.0919386446446,480.7795874539221L914.5046868320755,481.1614369894334L913.5741139539298,482.2683084739733L913.135728129987,482.5545541794274L908.9508354571662,485.28521361027146L908.2540001732862,485.63592697061165L907.2836232078184,485.7463102883736L905.9219955809269,486.29935502588194L905.8513518581645,486.5671937893986L905.0611665759891,487.5450816762366L904.2658418063056,488.0419829236715L902.9476028207253,488.6613309940829L902.7313852051477,489.08071897719736L900.7469090084867,490.4599680123995L900.1672320786033,490.949533304663L899.6574983299536,491.5810748697062L899.5353761479281,491.98151877330616L899.5135564093358,492.05306290313354L899.56907136413,492.89543234038587L899.5014317188208,493.3965701867837L899.3696739900236,493.90912692216165L899.0151377466068,494.62914851091614L899.045986720968,495.2760461491739L899.3541886882911,495.8618895776125L899.7576524925819,496.2017590721115L900.1265478397698,496.2475010553883L901.1479065698989,495.947978103408L901.3500168166929,496.1549499588639L901.5001504145862,496.308686872872L901.5134375681957,496.32229259802386L901.6383139026102,496.69614797698773L901.523580642006,497.22812203634794L901.5914884089086,497.5212430242373L901.6693077983543,497.72608449435745L901.8823530756911,498.8363889275499L902.0992812148145,499.5336252226948L903.1222492614185,500.52495162130685L904.0943159282747,502.26704375611445L904.2302144724695,502.9766256043624L905.0826029502375,504.22377055970225L905.3234117207008,504.57603760041195L905.5786567526989,504.94939165570554L905.9560088448281,505.4667297143023L906.6099550183106,505.96036336194106L907.1258209881319,506.349700592908L907.3317016362653,506.50506771308756L908.6623286092791,507.5089970088185L909.0763003253203,508.33909297454784L909.2445491062927,508.9328282852582L909.4621249418022,510.38346685122985L909.3863385138644,511.3336525913717L909.5012913733642,511.6529919845442L909.6899997866399,511.96388774681344L909.7495555296346,512.0620010736604L911.1758578811259,513.3685749608079L911.7383534658321,514.0603761034782L911.751645769624,514.0811926224505L912.346991607858,515.0134405100249L913.1885577430114,515.8187088166918L913.5704324190627,516.5287218741107L913.700604580758,516.9799822094217L913.6959038210348,517.4907047142024L913.3948173118974,518.7289931248919L913.28678186305,518.8806725236468L912.315642012984,520.2438709035029L911.7509280261895,521.2662197315427L911.488805325989,521.4379769071833L910.7194567380684,521.5188416057973L910.2682809526716,521.2128274564835L909.7553971918694,521.0400170841835L907.4755824045319,521.2998610321008L906.7253184528688,521.7840470163183L906.5204671917727,522.305852539993L906.479135084755,522.6539507395469L906.5032010134773,523.0932811227465L906.61104200726,523.4341946832385L906.9655744099059,523.8906637160785L907.9920285749246,524.8051899835115L908.5495877306296,525.301837101818L908.7957146588653,525.6924497905426L908.8453310273455,525.7711887767642L908.8461464142761,525.8030370217576L908.8634315699464,526.4782083909538L908.8468683110223,526.5214392760611L908.6561511433617,527.0191902723187L907.8976122064862,528.3436152609363L907.0341704346611,529.1727130301343L906.712596206276,529.5974836433624L906.4207069611814,530.1870592880383L906.368592511154,530.6334990272954L906.4867934781663,531.1560226233366L906.4880078606775,531.5433417781192L906.4186272442573,531.839659284487L905.274125873137,533.7448043631282L904.9346161957362,533.9567344783247L904.8314146792015,534.0211510861562L904.0879372664205,534.1562406984178L903.9549718070944,534.1803934820514L903.6199973462878,534.3869688810767L902.9801196850958,534.7815173804415L902.5626049937852,535.3798015665488L901.9609665708809,536.6770061913022L901.7483821038197,537.1352734059825L901.4723942667674,537.5366997034793L901.3000705381352,537.6214077216051L900.5464685515226,537.6920793365796L900.1946689561428,537.6561818190153L898.8857446312941,537.5224928698369L896.558312548165,536.8708775535391L895.6149574094525,536.8980633841373L895.2911925143778,537.0683512285899L895.1485878524542,537.2591152814214L895.0249668919646,537.4244770352268L894.8936352138955,537.7004858512391L894.7851147838189,537.9285412225921L894.6932856798458,538.1215106677143L894.5380155825228,539.0216270844493L894.4841165514244,539.9793451371967L894.2569810620146,540.4848622899842L893.8679813711489,540.8463095860068L893.6413337005713,541.0568847135555L892.4839307006189,541.7429506283821L892.270776284033,541.8692745408205L891.7020161159172,542.6032274342565L891.5527746913622,542.7957917883774L891.5156657449859,543.1234896940159L891.6317779415067,543.7468425985661L891.8054164215719,544.092086468681L893.4258834336757,545.7582046130972L893.94083005876,546.5018291020605L894.0782155196687,546.9474237517538L894.0277076360512,547.2898658293116L893.6200037908241,548.2280210606062L893.5358739396661,548.4215854186602L893.4662575046327,548.5817512890259L893.0388324953865,549.8774325517876L892.5458588901661,550.3465516839974L892.509052079787,550.401750498315L892.2741303060925,550.7540428217146L891.7573710108078,552.3679969203802L891.6714478039739,552.6362989512776L891.1736175266873,554.7577587631423L891.1286162705308,554.9494784156306L890.9752030811857,555.6030060524872L890.9774483721914,555.6081708565584L890.9775458300802,555.6083950371478L891.1599046032495,556.0278548665146L891.3005155348835,556.3512639523778L891.5184904181006,556.8525731055541L892.2044963567521,557.7124520193071L893.2438740039751,558.0708295786319L893.3112431628094,558.0588495304041L893.3905030436683,558.044754296925L894.213307362357,557.8983859513072L894.8552392039089,557.9967474461398L895.3508215859237,558.3198367533951L895.4975744141169,558.7413864363716L895.4188161639206,559.4085563741921L894.9508993559115,560.2766981623588L894.6393859184491,560.8545634504135L893.8272190158866,561.3529170501195L893.3776682060142,561.7725649628335L892.5096477770242,563.263580948053L891.9617661303399,564.5453374810179L891.9827303521508,565.0377217910595L892.5297830895075,565.4713242179796L892.8393607517389,565.7166700136073L893.1528519435262,565.9650950897977L893.3636226672241,566.2680521158111L893.5884195539974,566.8595894352671L893.6566921379097,567.2182927243538L893.7453869439829,567.684265502694L894.0621516920396,569.348177501735L894.1237990740985,569.6719529455382L894.0423692363404,570.3429472524167L893.8312056475199,570.6798285793444L893.3577442056189,570.7570276094297L892.6776551491553,570.8678712535301L892.2337449390802,571.0967312445936L892.1744670060073,571.1882888171687L892.0677371675359,571.3531329976145L892.168470144537,571.8929056782581L892.6593548450791,572.5365612347509L892.9622357451003,573.1415633984484L893.1222649119265,573.5151392970423L893.7494326480587,574.3599074878055L894.1715945500669,576.6873278939936L894.2206942988249,576.9579682148882L894.1517979917165,577.710493912019L894.0532544244791,577.8946525453133L894.0229316534657,577.9513183049504L893.5793262419303,578.7802230600652L893.528386234652,579.2616782045098L893.5789084032936,579.4929142877495L893.7355602407152,579.982306779043L894.0291136477338,580.3936336281402L894.9842008859243,581.3801319583775L895.5835765530803,581.7880042194241L896.8729886363224,582.2276666709851L897.9625201181166,582.3633269946138L898.2331106885761,582.3511511571787L898.8882645090766,582.3216363826187L899.5897674764703,582.0342837198164L900.8024282785888,580.7848608766113L901.2951328800732,580.2770876954731L902.1539587928767,579.7837252608396L902.9809743991868,579.6457578421218L906.1447961936396,580.0264287902188L907.2018012304284,580.5147642861199L908.7800617170701,580.9898801563307L908.9379113723928,581.0373808736929L909.7198777360203,581.7242881633532L911.1879989464474,583.3602926814929L911.735195392591,583.969878329947L912.6649427511846,585.0054027766678L914.3252501452914,586.21494443234L914.5725916209863,586.7643415222265L914.7383059288471,587.3871720114505L914.7431929873264,587.405538865299L915.0659827545037,589.6002189570728L915.0139342122443,591.0194872160362L915.0292237241152,591.4272310383539L915.0839021902456,592.8854436723267L915.265690134702,594.1613140096646L915.8735680469767,596.8979729886609L916.0010767915487,598.0262017246811L916.0074627077631,599.0847592114576L915.7172720142239,600.0784269050669L915.202228399433,600.9496558573923L915.2033635000794,601.8547912696569L915.3630456776002,602.6188292258865L915.2186569976743,603.2332453503634L914.9269407631082,604.4743277257501L914.9395795481964,604.7257492934352L915.5210413688369,606.1543547924246L916.4090464862295,609.2881666197335L916.7542991642047,611.5211100052002L916.9041780307766,611.8327008382918L917.2330687844467,612.5163826446856L917.6990175279609,612.9189181370579L919.2821519234935,613.3234558362466L919.708249819038,613.648003757971L919.8564842921663,613.760900896665L920.085661191562,614.0854429523822L920.1048209051278,614.1125743141288L920.9534608124907,614.7297943513297L922.329011130703,615.2806284495745L922.906822879999,615.3423434186474L924.1169948930574,615.028196337549L926.3274070876153,614.2298767476051L927.0636738041381,613.7137709711576L927.426849103552,613.6022922392633L928.656525852092,613.9128045316049L929.1184063509079,614.3647571671031L929.2437179790197,614.4873648588452L929.7025963218023,614.7839672102667L930.2648125151361,615.011253572969L931.881295088466,615.664493113085L932.3799336706008,616.0138284346101L932.5703775765352,616.1472360068723L932.8382746471541,616.5790428747237L934.6712976762235,620.4640007737024L934.7198868954918,620.5669426929416L934.9212428146243,621.0774663040686L935.6404568868323,622.9005985137665L935.6522689698543,622.9305358998635L936.1758622223861,624.4944542707699L936.2369545779163,624.9903686593827L936.3731930807369,626.0961739688015L936.4362720546771,626.6081174209571L936.7023582098902,627.6111547811817L936.8459076685692,627.8001378262355L937.4125447320711,628.5460328882938L938.5378150724922,629.5319356265239L939.5848181821193,630.2536419281098L939.6013200492422,630.2650150279032L941.2049481501217,631.6733757979149L942.7433888816236,632.7647714105984L943.569290111751,632.9980875099108L943.8821862889765,633.011039881164L944.6945352430429,633.0446151015586L945.4971997792109,633.4497038805835L946.2581209703986,633.9850031250579L946.3769811610518,634.086174161616L947.3665539294258,634.9283425188916L949.4887701704649,637.0234330420247L949.4982461152644,637.0327849841001L950.1211563559044,637.9644014377874L950.8732584596278,639.2256104819985L951.6029335195428,640.7179450420857L952.2421325551117,642.321987256729L952.2440465812517,642.3267897273989L953.3975137049913,644.5347309635199L953.4059850441602,644.5509430424114L953.4259913226974,644.5892299778178L954.2009278184937,646.2746292453061L954.220860374857,646.3179732345602L955.2458940637857,647.1801212661982L956.9365440356553,647.9073134153346L957.2873459232186,648.0581495497527L957.3156653156627,648.0703253964888L958.065794826598,648.669726385021L962.1061556875347,650.3900161402516L964.3653709946768,651.8623894078015L964.4917038464006,651.9446943020362L964.9843234317572,652.3013938523902L964.9846098133872,652.3016012030513L966.1650748031325,653.1561561174352L966.2072636764183,653.2022490956894L966.330794702151,653.3372082325889L966.9381630499903,654.6597294064557L966.9382420497656,654.6599014040653L966.981060627709,654.7531248078662L967.5024371956538,655.5916546385724L968.068307870527,656.501574810058L968.1106746584362,656.5696935163464L968.8260983628069,658.559109126029L969.0699016883896,659.1222735978447L969.2993714805089,659.4298637169735L969.7043380171815,659.7758596264684L969.7451803316417,659.8107523348624L971.0094552508345,660.2309836964074L972.1731829877107,660.8917734894748L972.7640091364415,661.5207670998556L974.8037600232415,664.3755214290439L974.960624597473,664.8367808047318L975,665.8174434221379L974.883147038457,666.636249335153L974.6666616107952,667.2255911041469L974.6425915552729,667.2911127023622L974.4395841307143,667.6264483489676L972.1298162641535,669.955598500661L971.76475219333,670.1472111381122L971.2784278025285,670.2173884860001L969.7410784132303,670.1970284825404L969.1664089532165,670.3733738576657L968.5355428458129,670.728328891865L967.4968313690035,671.5124290229217L966.5145410658986,672.4617512136924L965.5616420932448,673.3824038079102L965.5398413119415,673.4034637950924L965.0568596551541,673.5372433192716L964.4689721732732,673.5485585944081L963.9818241421208,673.4486136327279L962.5011001357798,673.1446466303987L961.7116207881306,672.8485385485158L960.8624027577764,672.5299275940415L960.4647254655287,672.3806918957688L959.9915531674887,672.2843863323056L959.886175714782,672.2629349889214L959.4473812043024,672.3084627117407L958.9190099549401,672.5085250321898L958.3651244155419,673.1374878727544L957.9996231703276,673.927117456367L957.991040211594,673.9531794505237L957.7488751133865,674.6884482271967L957.3828867371667,675.7994492672119L957.2408351063752,676.6415721126449L957.098936174372,677.4826242669326L956.6649159119127,678.1421470625382L956.6610618063334,678.1480031642901L955.8177648944836,678.8782741390414L955.7599389653185,678.9097348254274L955.124783796683,679.2552597548786L954.5945854757618,679.5436366753564L954.0771025936863,679.9566711646476L953.755456096602,680.3590415573645L953.7505794978679,680.3698049297233L953.5071273775534,680.9071070651662L953.2912786734616,681.7527889838174L953.2821575668273,681.7674217899947L953.1257202562406,682.0183831114006L953.0843049550746,682.0497799068785L952.6699717678407,682.3638638272351L951.7762913822314,682.6587328619477L950.036757139284,683.2323882038924L950.0335492780462,683.2334457080991L948.8277916198498,683.9399074452233L947.2246048899698,684.5914123842344L947.1041135940552,684.6403630085299L946.3711940030006,684.9380734068817L945.4321453180764,685.3194013615539L945.4222895176757,685.321273178813L944.9656067716061,685.4079938562993L944.9622908858556,685.4086234277206L943.4962328273216,685.2300341162709L942.7663869507114,685.3543393379601L942.3307254203964,685.572163392085L941.6662864028667,685.9043149904638L941.6394121436745,685.9212022778024L939.7334541660225,687.1185309303019L939.3187851947944,687.4092314523608L936.9313141447974,689.0822720174054L935.0107797423346,690.4272649406389L934.9486755766924,690.4707454053554L933.5710310025324,691.7739648277961L933.5129259253475,691.8289192348184L933.0464899340977,692.5727573972697L932.7611070651506,693.0278007960145L932.5537872788414,693.2346000148243L929.8661378013795,695.9143424482038L929.3053994888828,696.6246427494578L928.8793816317774,696.8812003737316L928.8781536291458,696.8819398579776L928.6061548035498,697.045726721669L927.6922173372027,697.3715756148795L926.2000676298201,697.903333550677L925.5968732128359,698.1182087315945L924.2140160753645,698.870601048581L924.2017758035341,698.8794722458244L924.1619353829878,698.9083465700649L923.5500467040508,699.3517709487816L922.7496676327951,700.3370715028395L922.575960011681,700.5508792919043L922.5291070459386,700.6576152347568L921.887632777888,702.118709791639L921.7887490417507,703.1705607343689L921.6724977711926,703.3850328034073L921.0152005846605,704.5974849479187L920.9423258052548,704.6836619887565L920.4752975536771,705.2358923871519L920.3297966591022,705.4079209872796L920.299201145564,705.444093661565L919.2315206711929,706.3965478535425L917.5900958766426,707.1080029238649L916.5272918371722,707.2835504243528L916.3071155718488,707.3199012343174L914.0873465178224,708.2728676851956L913.9945075193054,708.3127086674978L913.2550595985309,708.7889502502574L912.2719679488464,709.421951487502L912.229883216715,709.4490453014928L911.4974341291596,710.0402602978779L911.2523594183683,710.2380508002143L911.0151226384703,710.4295023241173L910.5166627707936,710.9678215721523L910.502064497342,710.994825068495L910.0053869659117,711.9134677615737L909.944204901514,712.2538838286515L909.7219787991522,713.4901266514286L909.7952133516059,716.3125096231378L909.8479329764723,716.6084697503219L909.9707582812721,717.2979445106009L910.0440917414545,717.7095666877563L910.0447662951304,717.713352859383L910.4651190995353,718.9131491415918L910.9558962394465,719.8737544055231L911.371182704274,720.9668098013004L911.2392197493521,721.9022462364956L911.0182026327569,723.4684931215379L910.634152394887,724.3441297286422L910.2454433972109,725.0094719540459L909.6358381529037,726.0527111448647L909.6033173079413,726.1083581976973L909.2615022190553,726.5107052315748L908.8078438195889,726.9889630890514L908.7926717169794,727.0049567595497L907.9393075185724,727.3680798706775L904.039529223968,727.668674411409L902.6495902231457,727.7753937714841L901.638724434373,728.1002614772276L901.6298649860606,728.103108098751L900.7287515839805,728.8302775618195L900.6978869634413,728.8696899937473L899.9792602415923,729.7872243921674L899.3061195945979,730.2518347372823L898.1299675940767,731.1977297995178L896.569321544453,732.4523532773445L895.7906051076479,732.91790529919L895.3971407250848,733.1115665652578L894.3788058738429,733.6126740900112L893.0199217464442,734.1089040977425L890.7884688211445,734.7621117219124L889.0051188409493,735.2836913081662L888.5210209354327,735.4252064012971L884.8809705788142,735.7355525274409L882.1920707077813,735.5603957155197L881.0684901542304,735.6517968964552L880.7388927240982,735.6785818543551L879.9702909134796,735.740994905382L878.796121995543,735.9660571617841L877.0129212550687,736.6584116213996L876.9644882437451,736.6772102952937L876.3442710396248,737.1120613276809L874.9499192071883,738.0893958489025L872.2054242031638,740.849649953774L869.3730903554072,743.5033964881528L869.2511705770651,743.6175795643476L867.9875331325904,744.6821806286694L867.9805761684177,744.6880407266117L867.1562913058333,745.3822822072449L865.3480923948313,746.6609175553276L864.4945915864089,746.0924093124819L863.1471487600518,745.1946071142344L862.1587987683538,744.6945310848185L861.626861196541,744.4253221546506L861.586533895993,744.4049110310314L859.4713851841741,743.3339949644586L858.8208406343557,743.0044764253792L858.6100643002515,742.9154046745904L857.8019347333586,742.5738383634323L857.7836778506248,742.5661207645205L857.2112704994206,742.3241266687423L855.6738725624205,741.8063069205987L855.6521438845734,741.798986102738L854.2221446571141,741.3170529086988L854.2216583652261,741.3169243562511L852.2524729902004,740.7961221263201L851.2929934027984,740.542186527141L851.2692868883023,740.5385024190175L848.046767004191,740.0370945808831L847.9851037177692,740.0324178840762L844.5971175361315,739.77480049822L844.4799840196454,739.775789348975L844.3437971972176,739.7769371097042L842.6277397382316,739.7912210634901L839.4797918393613,739.8165628032248L838.0172921632388,739.9747463305928L837.942773002804,739.9827997529101L837.9344891855576,739.9839807138707L835.7785422778312,740.2910674918646L835.682982222178,740.3046663276726L835.4906851816581,740.3486652680483L835.3423403682689,740.3826045550188L831.8393266249382,741.2009444863877L829.0051425811769,742.1364294992597L828.9878408310196,742.1431712116731L827.9015132941706,742.5663805923567L824.4626839919415,744.2482990225019L823.7686376683392,744.6790890143893L821.5753291754095,746.0398853010711L821.4527476046923,746.1159128832929L820.7401838854694,746.55780530441L818.3093491779051,748.4627377940521L817.5820980965372,749.1514083909254L815.805822886416,750.8328374645564L815.4320533307168,751.2431479963618L814.789754804789,751.9481306286971L814.5578856723554,752.2025947632985L814.212897941282,752.5811673150406L812.7286569338529,754.431276982979L812.2854833064505,755.0556775695667L812.2771764558313,755.0673804351519L811.4925783611429,756.1725886636858L810.4011629918305,757.9938912250424L810.1485769887427,758.4152868873684L809.9343801545247,758.8521276582733L809.2077584378768,760.3337172676662L809.0718502778395,760.6107825254671L809.0344391953406,760.687046623269L808.1970670854917,762.6751019974948L808.1699987486325,762.7393525650157L807.0227886788455,766.1299757879511L804.5833527760183,766.2212424707232L802.7794033177406,766.356125410884L801.0488245741701,766.4148159998037L800.7175134853902,766.427753830189L799.1724761925536,766.4879252260398L795.8120740088402,766.61786950383L790.3262969443795,766.8272733149297L780.1414688873216,767.2070813939234L775.9981014740639,767.3582582626402L772.890533036584,767.4703764788369L772.8864969833855,767.4705213903391L770.0334774927765,767.572498996605L769.9854852493382,767.5742065972831L767.6077075953143,767.579306594983L765.2110563589476,767.676808499717L765.1953629211473,767.6773751120916L758.5645870118742,767.9143035746071L749.3277603682038,768.2361165093698L747.4246725721105,768.301229544284L744.3356268119144,768.4060532029723L744.3325651249559,768.406156566447L731.3324506997963,768.8355495344482L731.3294469595606,768.8356465540847L730.2537849212415,768.8667406327661L714.9992528763855,769.2937160797231L714.2206406053627,769.3148086424051L713.2309362573062,769.34152142814L707.1381491622044,769.5035473852206L707.0557532882231,769.5057092519828L704.584421635866,769.5916361739207L704.5025108564395,769.593300593531L703.1104133477384,769.6214727435175L700.7769503656149,769.6682076653713L700.7610177209897,769.6900536844007L697.4489299340282,769.7680889532495L696.8619149671578,769.7817910048086L693.7808494353493,769.8530746727482L688.7131694938357,769.9680031289604L684.5601197036525,770.0674298026712L683.0768018171658,770.1061985163616L680.223739844472,770.1800730271445L678.9287315027402,770.213303219383L675.9408748591394,770.2892539546405L675.9267008306789,770.2895891992206L669.3426313754643,770.4428775822366L661.8374080363174,770.6116773964252L661.8330459073632,770.6117736665813L661.3543663786886,770.6223249243702L656.8141797762943,770.7211228839055L654.8006027167976,770.7641993070206L653.9713236536653,770.7818077634084L652.4542553691508,770.8138206068742L651.8444145887024,770.8260599379016L644.8895425188186,771.0007724062203L643.759236701118,771.0286537152961L640.0603294049133,771.1188922258718L640.0601659838513,771.1188961787645L637.8495602001669,771.1897892137493L636.8797510076593,771.220717285898L636.5852480309313,771.2124509084438L636.4178328787777,771.2077474039307L629.3107881124597,771.369392895868L624.5640836065198,771.4741961498178L623.0834244236056,771.506370411639L621.8527499527181,771.5269703836102L618.8189951815327,771.5467099993184L615.4172481226956,771.5676161853273L611.9096592576959,771.6985733064826L609.1305922804269,771.8013490265117L606.4689776018,771.8989674007901L605.0573080153883,771.9134186873373L604.0838329952462,771.9232539361899L597.7945256177882,771.9842342874633L597.2038173020866,771.9897337751954L595.3734174971485,771.9721241955796L595.2583175574568,771.9951359499856L593.9309593963873,772.0143180223556L587.2421040960733,772.1079729220157L577.4980609867748,772.2354233154306L571.9926154330421,772.3027242444917L569.2281359625532,772.3352360460768L569.1921974307102,772.3356228720957L569.1560051665641,772.3360122827539L565.4362805769215,772.3752510303866L564.8592823505766,772.3811986303581L564.8147584252802,772.381650896511L556.6653554357064,772.4606857455984L554.3687052683821,772.4816136040038L552.1730764375911,772.5010677119565L547.1747134452085,772.5433383344119L547.1586565675364,772.543469609876L545.1162098102691,772.5599321374511L544.051753715674,772.5683263803037L542.2841686980698,772.5819847017013L537.8036601497739,772.6150359879878L529.2296229858968,772.6720063559585L527.6274878614566,772.6817374015894L525.5710952198224,772.687923153065L523.1034295916813,772.694719948749L522.6685071251335,772.695847076474L521.4541355520277,772.6988818698364L521.4013573292332,772.6990100154113L518.0542880196344,772.7064985208606L517.0387560678068,772.7085221413421L516.8101215857047,772.7162868040336L515.3836876289992,772.7144555733812L511.4249763598431,772.7081778845376L510.2757473802999,772.7060262357174L494.57806795724196,772.661804784139L494.14226109875693,772.6601827627778L493.80221936736075,772.6475539785442L493.76749142886285,772.6462634886975L487.3343008571864,772.6508200874532L485.99361443872345,772.6511851851184L485.5983103173384,772.6512543490328L485.59138603242224,772.6512554043268L485.27804136807225,772.6420985332855L485.0145617889472,772.63439033437L484.1899910086675,772.6102168058019L484.1371471676263,772.6095613141352L482.44840516556866,772.5884486411528L482.4442314687023,772.5883960651896L482.1142507860093,772.5861388870459L478.30269603913155,772.5591812097997L478.2682410694994,772.5589300905565L474.802961648568,772.5236759304896L474.7237600075201,772.52285442276L465.2325915048311,772.4193134804831L465.2320613607566,772.4193074147742L460.76261749961935,772.3670490864922L460.54846697497993,772.3666136326771L450.42914259346026,772.3401724421084L450.427633913588,772.3401676436662L448.7772649392457,772.334765656153L440.8351068228453,772.3044965831785L430.27377049049915,772.2532851450569L430.1907598305018,772.2528330735074L427.9532670274033,772.2403566059179L427.6177714310341,772.2414320801297L423.7652780728826,772.2163491368694L415.6053850197273,772.1577237906861L411.0698277561498,772.1219081626633L406.66101746627504,772.084881611114L406.4048394166514,772.06067282934L403.0763675812835,772.0377473959139L400.4892786970065,772.0190700015763L400.0327770377108,772.0189763131302L395.7724223473118,771.9596048359222L395.76059603065056,771.954572142228L393.6653902121898,771.932758005148L385.5904366061599,771.8440794755064L384.53558998103705,771.8825154654576L384.1355350440734,771.8590199130475L383.97736507450065,771.8655825397499L383.64409781378095,771.8568803168997L383.59230803961094,771.856400156086L377.36686871894824,771.7964900286906L370.017790692796,771.7201709527156L367.7662301837341,771.6955763200173L364.04460349751923,771.5675949680485L358.76149908100035,771.5354403192615L351.46958105183455,771.4859163912337L350.0344677595705,771.384955988204L345.1744904860788,771.3824767302831L339.49864184733536,771.2750236388385L335.6295839908357,771.1997038303263L331.59851124723457,771.1194430347407L331.4399457141402,771.1162486318866L323.6562141577154,770.9559712810757L321.29556593771883,770.9060185346683L320.8411311520757,770.8963306276573L317.71545696775456,770.8475866528089L317.71034969222694,770.8475061092661L313.26604598748963,770.7763084400058L312.7625472410132,770.7681026311627L309.9627814151138,770.7219543571878L306.8562009663051,770.6697194322974L305.7025349207247,770.6500456077122L302.030433254471,770.5864298647059L300.762788181764,770.5641177570013L300.0064169552164,770.5507187995498L299.3573896975647,770.5391702391615L294.1043063652379,770.4439591197807L291.23647284693914,770.3906734222988L289.30657498186474,770.3542954716804L286.616081118442,770.3028829987896L286.61591651409236,770.3028798285296L281.75728874086565,770.1938542082192L267.7671601364319,769.8651214572242L267.23543034903054,769.8557425673262L265.94915233732155,769.8329234074631L260.87326415110954,769.7410628585427L260.8647916840397,769.7409071115882L240.93415113565163,769.3522287768856L234.21679927745447,769.2111851772363L225.85690434127625,769.0285797687083L222.92197472381122,768.962611631288L220.06075815652213,768.8973695907451L210.59236116122196,768.6749171737245L196.7159575475357,768.330719878747L188.81922454418503,768.1251044357991L184.8835999175592,768.0200143563408L175.04096411868017,767.6154402533735L174.64622216287017,767.5827079116398L170.9799866720091,767.4737081542934L166.37445021430136,767.3346431522276L156.77120366782066,767.0370090025765L149.41286667400232,766.8019423684126L142.10957420443236,766.5402282513476L134.73061150900122,766.2697155588863L134.69322081805205,766.2682948269849L134.6004996776722,766.2644258549684L133.99312047635073,766.2390578577947L133.88607073324727,766.2345824839504L125.55140279359148,765.8821837474728L124.31135320753566,765.8290855861302L124.29338616125506,765.8283149774161L103.63983963987505,764.9184751273015L100.4130604630455,764.7719941461502L100.36313770725195,764.7697186816326L100.27175093667125,764.7655525731986L98.00115797911076,764.6617399253114L96.53824437586769,764.6005441541035L81.7940249645626,763.9703374808204L80.01708306413678,763.8927356718173L76.58829310958129,763.741991402833L73.98188218201375,763.626517870478L70.77138414603729,763.4832308593391L70.40029082192217,763.4665939319416L66.09028633422236,763.2722323202701L65.30983860003113,763.2368142397382L62.131871116033324,763.0918850073641L59.68318894761319,762.9794394466974L59.5502990021007,762.9773436609349L44.08994469775223,762.2592836097438L41.122151879446335,762.1183672256125L36.025903233889096,761.8551138694863L35.10770938380449,761.8073725124812L25.000000000000114,761.2755497046118L25.624415968543133,748.6844949292893L25.745666487139545,746.2390706955114L25.899342090956566,743.1394686569375L26.263196051767466,736.5406624280407L26.40277720669735,734.0087642082037L26.48677186602606,732.4850371181725L26.89809481134415,725.0219527163642L27.3336421552994,715.1922020334173L27.379264694147935,714.7189718910801L27.55685774851713,710.9900025911924L27.581746491388287,710.4034367975333L27.609581297197963,709.8043244744246L27.611809954642354,709.7563549445078L27.623880436326772,709.5521128837435L27.6527670209677,708.9914572034493L28.206960438842657,698.2332951163368L28.84080061149149,685.9625774366214L28.874635653074222,685.3074199153032L28.894123994907716,685.0757611833117L29.07907666405316,681.2910437093512L29.079509344803682,681.2821893027387L29.158489107095875,679.665912068748L29.158550842764328,679.6646486586966L29.304821789965217,676.6711351167199L29.306323793007834,676.6403947445867L29.744040245942642,667.6810506920907L29.891702151555023,664.8957245702823L29.891990967968013,664.8899710677773L30.137590729696853,660.0045408660499L30.139702099560452,659.9625389901189L30.79348954067143,646.954284295389L31.05827697850492,641.6845447200034L31.191694249615125,639.0290147811454L31.582629870758353,631.2467365070845L31.70372937054924,628.8356946851059L31.835700266103288,627.2094116078036L32.13970720597217,623.4622428923578L32.149499677190875,623.3415211969128L32.15348693249257,623.2619697934407L32.478852060976294,616.7698925636978L32.4857923784848,616.6407142755718L32.48771573110014,616.6049153122525L32.54315660104328,615.5729850948295L32.7590971286412,611.5532644553024L32.759121766657984,611.552805785424L33.2049174126098,603.2524148020798L33.196713938635185,603.0368289565274L33.156504069844345,601.9798593892665L33.11398856189271,600.8618104477576L33.15248188264212,600.0763337885107L33.574727258238454,591.4592344207329L33.57424283812327,591.4592101522593L33.58090700506585,591.3262433193001L34.01793370382205,582.6054141373199L34.34298769484826,576.1176477196838L34.33786320426543,576.1199446817456L34.36029173676587,575.6720671599513L34.61656437460721,570.5541478065123L34.6241993178042,570.5532536044535L34.855154695423096,566.0856549852899L34.870003523071375,565.7983974880555L34.91476652670684,564.8982637940379L34.98127568528963,563.5608003758459L35.031290251482574,562.5550036404009L35.1861340972128,559.4409150151644L35.24159379868803,558.3254949133003L35.39482764801585,555.2434470129778L35.69730797034498,549.1588248751218L35.78760876946512,547.3421687569211L35.871053084578875,545.6633738937905L36.3035683944982,536.9605342379039L36.39842913550348,535.0515343268978L36.45773630743645,533.8579747108984L36.487142561106396,533.2661587512646L36.48778271733357,533.2532751770784L36.59292321833772,531.363354340836L36.71286857485603,528.8956007699866L36.945666037733986,524.1056403170012L37.086412356815686,521.2094430730021L37.105721909481304,521.0175555314136L37.105882509078754,521.0159595657639L37.10620279624834,521.0096170847565L37.1194243483086,520.7477965264652L37.399565985220306,515.1998149561294L37.51379800293654,510.4699889048402L37.51658444664315,510.3712049455117L37.51919519183906,510.27865063223305L37.53236753153118,509.92301334366897Z"></path></svg>