<svg id="PR" width="1000" height="1000"><path class="state" d="M969.0420929037708,452.2132124532901L969.7608291224872,452.20068204009516L971.1733003825868,452.4404431455324L971.1794985107183,452.43519617263416L972.3579193599332,451.43755704023386L972.3760437902272,451.44287912859426L974.7821612586486,452.1492827962886L974.7858342557415,452.20480519512216L974.9912407340572,455.3095901808666L975,455.4419798598325L974.402218905462,456.01085638892124L971.8983933313327,455.7575525674012L971.8967248633192,455.7573836877564L969.2636914986161,453.0601588732203L969.0530876457768,452.8443910179896ZM959.1059398378719,444.78515734655423L959.4193578665206,444.7680038198137L961.141539239941,444.67367636674317L962.6704447085231,444.58983351848207L964.2978332614529,445.79429134868997L965.635704480325,446.7843311634328L966.2637522504067,447.24904962761093L966.1179150337057,447.3980330464921L965.7656887519402,447.7578492347198L963.8736014620648,447.6617024597768L961.4385474411664,447.5377496678259L961.2054565700657,447.3284582096604L959.4209884178183,445.7260365831085L959.3335940934971,445.6475509857508ZM935.1743230158776,456.6558865951114L936.6248983214055,454.98484029513133L936.9501414728411,454.61013019229546L937.2097047884713,455.3789961685526L937.8169445552463,457.177596897647L937.817039923722,457.1814267636561L937.8183269589547,457.2331122701176L937.9325302963682,461.81907898435867L937.9369804928906,461.9977706649422L936.6458967475404,461.92050041958146L936.5737883157109,461.7736283216387L935.5450399244652,459.67809831737645L934.4634779314943,457.4746824893846ZM932.8760997458205,443.74836331692916L934.2117403014652,442.7779397783734L934.8308943709757,442.328044131358L937.0941763846869,445.0750083546627L939.7572096808019,446.3682279574767L940.001052463805,446.37165862356403L942.0423518353118,446.40028311852245L943.9135164750583,446.4263729336141L943.9248327160744,446.43895966360844L945.8394884752336,448.5683745810704L947.9680646281772,449.09326188188726L952.5529785350958,449.35236508087894L953.7853720560477,449.42186380903877L955.277384079156,448.2171445813625L961.5832673791886,451.9389100106467L963.7808545195443,453.2353755004593L966.6533312271033,456.43867776925424L966.9257677412633,458.6957223713681L966.926553880265,458.70223489765226L965.29013835162,460.939461803069L965.0760018091838,461.232189431644L965.0754083093942,461.2330007447041L963.3004603094647,462.3269951070104L962.9359130267583,462.55166061158195L961.4771647045393,463.45058448659586L961.4679743776884,463.45110750623127L960.2156007036276,463.5223475782402L960.2034475029674,463.5230385875739L958.4680585685237,462.745800975157L958.4583226990821,462.74144008015315L956.6140115250671,461.9152466751158L955.9505138555346,461.6179774093621L955.5621656823012,460.55513726718226L955.9203896116267,459.21376860592414L955.0470746070773,458.50411042548694L954.3466809398786,457.93492591074926L954.3309830201424,457.9221683456717L952.1904201787883,457.52088039394647L951.5486422843139,457.4005292311999L951.0630778769122,457.30946076104027L950.6824585255499,457.2380678940558L946.6229458557468,456.47623976798417L946.6379351072981,456.6495767579744L946.7850053427426,458.35023348938466L947.6306607204324,459.46932942429595L947.6606516716538,459.5090160683302L947.6617699165413,459.51049582518783L948.7719049259456,459.4487557770824L951.4269418682283,460.2575487962007L952.3046925997946,461.53386489344985L953.1585870191573,462.7753757431793L954.3369278640745,464.4884236812484L954.3503505154213,464.5079360003287L953.9899079144161,465.8095599109838L953.8735172266528,466.22984535517236L953.5264383701349,467.4830778326263L953.5227465715827,467.4855751872793L952.170504929343,468.40025167345334L952.1506754821578,468.4136637015575L947.5392658263052,462.3926068460332L947.5217722758936,462.3697602820276L946.9807360538048,460.2766568183361L946.6308328635955,460.1786442871827L945.5102567749419,459.864718910971L945.3610392895084,459.82291189750293L945.1246245404861,459.7566723336309L945.1107203346951,459.7527765231099L943.4444504382227,458.29462514080365L943.3101934162763,458.1771268638675L941.9948739141631,457.0259137770592L941.8046753579408,456.85943349548097L941.7991382830834,456.81609835985483L941.6034517306373,455.2845235617391L941.599217963055,455.25138592013224L941.4935487889227,455.12165780150553L939.95880376028,453.2373229045182L939.5000921634455,452.67406747540014L937.9051378164532,451.77838691779226L935.361595730362,447.98545793738174L932.6373169629501,443.9218401329268ZM852.652405450869,442.73712423142086L853.521561411042,442.30053981767117L854.6759028871809,443.48645542876096L854.9195588756111,444.2268706236504L853.9348541722113,445.72528475027104L853.6784989323643,446.1153500604138L852.9501179677034,443.7173568851394ZM852.2596186216601,431.6839288506762L853.3964193664647,431.5344122592463L854.2471594849748,432.83440055772104L854.3286198007193,432.95887094410267L852.7905200110829,433.7558869643436L852.4483810764227,433.93315929684655ZM851.9612095474672,533.8653864144582L852.2802063865997,530.1167620719706L852.3349771414256,529.4730456195507L862.590500286054,527.9945467219177L863.6185682105918,527.5549465043788L863.8139112461149,527.4714120519712L874.5785763239653,522.86512112872L874.581255641602,522.863973891837L876.961189050299,522.4792819008622L882.2152095480767,521.6291796741123L883.1930755932246,521.2448446410863L883.5486439143524,521.1050823602855L887.529188957787,519.5400348339886L889.8360796985514,518.6326674115818L889.9420314956728,518.5806087276925L894.1183905086507,516.5280987292145L895.114351165055,516.0384850450906L895.7192143646021,515.7411083880603L895.987753788743,515.6090765443167L897.0555977255538,515.0840147321849L898.1064927638924,514.5672263517814L899.0566931192624,514.0999040369231L900.5444600469004,513.368100295147L901.8202852407335,513.1962325036196L902.8350237531608,513.059487619391L905.6785905911859,512.6760638459273L910.0738563049799,512.0827484527798L913.6386895132999,511.60094234038513L920.601675668297,512.6422660792133L923.3866562391638,513.0581955720136L923.497633656298,513.074763032306L926.3011061005794,513.8040763000724L928.0832566205062,514.2675150118719L936.5134039853933,516.457819819904L943.8078677276701,517.614236699534L945.4658051964303,517.2647975770712L945.8537147839193,517.515201222601L947.6418898902759,518.6693811064575L947.7350113452823,518.7294808825932L950.3103688647537,518.0463138429111L952.4785596631835,516.2531590319355L952.7013910175813,516.0688500753809L953.9237329963271,517.397148978962L957.2585068854796,521.0201886937314L956.9073329456066,521.9437098907438L954.4420144576031,521.59412480719L952.1411409794299,522.5878360613431L950.702974782023,523.2088201391771L950.0025908260508,523.511199829867L949.9170903571517,523.5173357541635L945.7593553976584,523.8153542850653L941.9169764934802,524.0901405857331L940.6569895586001,524.1801167236407L939.1370759561333,525.118333747884L938.8197486282629,525.4737560474039L938.3967519802188,525.9475156764287L935.2476131374635,529.473946665669L934.019178094941,529.8832757676133L933.941609439194,529.8793636528357L933.8627662776535,529.8753870082865L932.5837091292519,529.8108393266727L931.9781045547752,529.7802542272597L931.0592852975617,529.7338222025605L930.9828933041093,529.6877208062531L930.2305259773532,529.2336596992752L926.0313812252946,526.6988018686117L923.4243006389902,527.5309017283104L923.3029441768957,527.9063056167251L923.1959279530506,528.2373421209063L922.265422703708,531.1154131628643L922.1694251873846,531.4123058951997L921.8867377123944,531.5021022527169L920.8250328275155,531.8393223610263L919.6570379798495,532.2102422080383L919.6159380109659,532.1955784105055L919.2265925761862,532.0566623244837L916.1828025880772,530.9704074418612L914.5104774143832,530.3734070871L913.8385797999405,531.1346529075504L913.8229827424866,531.1384937513525L909.6651769570958,532.1619900972157L905.9349915437206,535.011903373501L905.5154589929443,535.3323679910674L904.9102294626509,536.3708940804422L904.6468149284032,536.8228687079405L900.5116075525068,538.2181830435203L899.5442695541174,538.5444692820298L895.9190640800405,539.7668719102758L894.513163503129,539.3309974232365L894.5008627526151,539.3271833935872L894.010733873961,539.1752060286503L890.849215703695,539.2434915123218L890.798407190711,539.1561780748144L890.1422715250028,538.0285747284682L889.8024697003875,537.4445732723248L888.9191834540775,537.1458637482506L888.8532781553965,537.1235744422225L888.7449005112292,537.0869204591376L887.7445083671923,536.7485556700931L887.6669217150784,536.7223114062821L886.4761123316132,536.3194757905426L885.9281253515339,536.13407641938L882.5167412968489,536.7979892291863L880.2112150161653,537.2464021462855L876.3420802518151,537.998418910457L870.4629031532172,541.6365237429978L870.4555540858264,541.6369682355411L866.8414397468903,541.855293411983L864.4268133192934,542.0008619850362L864.3052002367681,542.008187285426L864.2123807950202,542.0137778103187L858.3980836464164,540.4393100751703L856.8223063331968,539.5400769095303L855.9599045401364,539.0478769403156L854.6414446733511,538.2953058043292L854.6259298233308,538.2289092098839L854.1519660136869,536.2004384242006L854.1261759408619,536.1754007202671L852.5794179968027,534.6736531115927L851.944859559974,534.0574959139334ZM844.8522098626752,428.2971264655898L845.035519354175,428.29485695186065L846.6856394009576,428.2743656036817L847.5469450420483,429.33332983011604L847.9558513908848,429.83604246797245L848.3069064175891,431.0018056281062L847.0040612435079,431.66299906956135L845.6445513875724,431.0195687371445L845.3987722211626,430.4256728070174L845.1231812438853,429.7597141708638L845.0294182121165,429.2536346530166ZM843.2930929968353,478.0936484495582L844.554107818356,478.01705881936044L844.7633369548016,478.00434469082904L847.871034245913,477.81529018629453L848.3952919884584,477.78335845959396L848.4315464409494,477.78114984203893L848.8805304827831,479.994082506669L849.1460892713445,481.30282996400007L849.1475659243629,481.31010705638784L848.1669738323494,481.1042007208161L846.3057885848448,480.7132719775372L846.0025892276865,480.64957295928593L844.960558113155,480.6624759104227L844.6434102459307,480.9828206920331L844.6105935983785,480.98619836304823L843.844097517026,481.06507775145747L843.2951589813092,478.1047906864247ZM519.8894691664915,613.4692767028184L520.8005743212658,612.2758402087119L524.319099618528,609.8153243878187L525.4663667894404,610.60166622425L525.6063868649567,610.6976305745849L525.696468578698,611.4033277663351L523.6517158243822,613.5595527183306L523.1432814635166,613.8777281572019L523.0866829504702,613.9131462005919L520.3112053961188,615.6497311983923L519.0096717589836,616.4639208721616ZM261.4744176736277,437.491757746971L264.06453495056036,436.3728803287425L264.13104151332044,436.3441463386231L264.824509382582,436.1790303938783L267.41444508906613,435.56217543963953L269.44471258340747,435.07841295856565L271.6692515822017,434.54815265206435L275.91790373690515,433.5348035949125L275.9812264177112,433.5196944632902L276.34457725048,433.37375455380345L276.9183496607607,433.14328540741235L279.34089040983747,432.1700344196966L279.3907731728898,432.1499910475991L280.0322478982021,431.8019881636351L280.63386661606984,431.4755859332729L284.19562036864284,429.54276745716606L284.5861792064866,429.3307829096224L285.6726576567937,428.6470102726395L285.7361412427476,428.6070547299842L288.4812879700166,426.87906099423293L288.4852378548363,426.8765743093419L288.4979853052496,426.86854903259893L293.5287016679984,423.70061524780215L295.20985273597853,422.64160827008897L299.0330391650836,420.23260633411525L299.31312456454464,420.05608740182134L299.5010091586232,419.9376736449093L299.74408742877597,419.6815404007448L299.90927717871443,419.5074753538092L299.9306370829165,419.48496762184755L300.47588031378154,418.9104084791535L300.55949381065045,418.82229665589716L300.9032072610363,417.4332770842792L301.0502227890248,416.8391221948616L301.03693032727824,416.66457929239675L300.9214565414791,415.1482160656987L300.8813638961283,414.6216990371422L300.818623872632,413.7977301519703L300.73706447572704,412.726541407882L300.6263742342257,411.2726372145119L300.24360184707257,410.1433776623062L298.89315451182256,406.1586341727593L298.89246127552974,406.1565883960327L298.0858959194808,404.6114569379316L296.4119000823997,401.4040723711588L296.4544657833236,396.9536146503286L298.1811800441776,393.7040465794952L298.55747018728675,393.37394898204116L304.04359087677574,388.5599405290683L305.6565225425861,387.14412988983474L307.2570983969093,386.31945545194674L307.4146386373104,386.2692693161961L307.9104537464646,386.11131455640384L310.25103515063984,385.3655073092084L310.4971772562809,385.28706132348543L311.64870650323076,384.92002920584855L314.009650087165,384.62618301186274L315.5036259558033,384.44012088204676L316.2483840074361,384.34733281843995L319.37080466263603,383.9580646588823L319.91511676586913,383.8901644163544L322.7519873489472,383.5360791278385L327.6257934022515,384.4692655822037L327.7710045937117,384.4970535228949L336.9296802342235,385.0092692559588L342.33356303344414,385.30988066447554L343.574899455375,385.3787658699016L347.12845509594945,385.5756138266332L348.2774616701071,385.6391520585535L348.304988379454,385.65134699750496L349.72048508156473,386.2783902164612L359.1295818166809,390.44383208296813L359.18236995382756,390.45910057736614L361.7937983432121,391.2142745033012L364.88184587790056,392.10687699436704L369.3380691513589,393.394187105788L369.96452300441683,393.67320350858586L370.03979742745906,393.6582103667166L370.0903223646933,393.64814668498633L372.0347661173937,393.26076418774073L374.52529294863456,392.76435063903335L377.3851507631472,393.434338301496L381.6325320436606,394.42872336556087L387.53269037203233,395.8087392412594L387.6384083110201,395.8334521892517L387.6675159079532,395.8280215476076L389.4778694850761,395.49019043781277L389.5333391837686,395.47983699528515L393.52534422241933,394.7343824598954L396.35469611629776,394.20562586752544L397.9895593360941,393.89994249154233L399.9605807337745,393.53125310811413L401.38571910815295,393.2645704603475L403.7562414029242,393.2835659798735L404.5739124902898,393.2900650414499L404.6222956179472,393.29044874928445L405.9585339605977,393.30100823859135L406.05322965990854,393.30175380086195L407.25390766056995,393.3111753396296L407.54513511506514,393.3134517044709L408.07455123633065,393.45180693243316L409.63777927645185,393.8602609343883L411.96696171255496,394.468647996413L412.07319515398535,394.4539834158304L415.97235661249584,393.91541227555473L418.20559501990664,393.6066601005745L420.438951217471,393.297682995861L420.96609985332196,393.2247233679841L420.982476919001,393.2224565258012L424.42694117788335,392.74543941623585L425.0583975349296,392.65793642398455L427.22961335025343,392.83242005843937L430.78740587171677,393.11791301192994L431.6661824908518,393.1883497763334L435.72492155998395,395.24063578786723L437.01625570778015,395.89340313166235L439.0419434950557,396.91719946805466L441.2719996247954,398.044022846183L442.4279308585883,398.6279943893634L444.3288668928074,399.19585963888966L444.94113316849337,399.37872626484693L445.1862146812841,399.4188456522678L446.2411944694661,399.59151490002967L447.750212388483,399.8384151227647L449.8937370353734,399.92871767039446L450.30042146666847,399.94582932051094L451.6098776352453,400.0008800972052L452.3600388540915,400.0323860351095L452.83689708380336,400.0524016031366L454.2191469062984,400.11036745360053L454.84213435170807,400.13646746587176L455.83381050483956,400.17798096766694L455.8416213272202,400.17534286461085L455.88467871181984,400.16080019343497L455.9095973986298,400.15238384413266L458.8782744291249,399.1494959673071L460.34163479848854,398.65498586639234L460.3719899762507,398.6447269387977L460.40730988641394,398.63279006048293L460.48708038892744,398.6058302400497L461.38100921994476,398.30369099199476L462.77474838569117,397.8325454521172L465.24365306543854,396.9977212462021L465.2843562914876,396.95802033393716L465.4412979166815,396.8049419183749L466.58418432570795,395.69011812075513L468.1656531570451,395.38704402902755L470.2241984257454,394.99238213071374L471.9817975333961,394.6552736462343L478.4249396485526,394.31754034629006L479.16352727860493,394.12055908862345L481.88066611906874,393.39568816768616L485.80909227776465,392.3470887487367L487.6946958227952,392.837603622005L489.22774161382233,393.23628841683313L498.96137869403213,395.7651795544737L499.90127223300163,396.0091492397794L506.4516203432773,395.56595119020756L506.47541819430495,395.53445331971477L507.26165684551455,394.4937751907255L507.06482190607784,393.73741208060034L507.09859030595925,393.7412112277664L508.79704337741634,393.93223637068866L508.99362644231627,394.0090387069026L509.6634088535253,394.27069927464527L509.68975968392954,394.2809931695921L511.07428803810234,394.8218079336541L517.0227322064187,397.14427034494423L517.5820510320262,396.96631251188785L518.2143906204819,396.76510423451083L518.8103602442391,396.5754517421743L518.888834063613,396.55047817325396L525.1013192320625,398.7661378518541L532.1425779487571,400.1673206294911L534.5403673994654,400.6439848983752L539.4719514956972,401.62357366333805L539.4818114582304,401.62368713201556L544.2744891948806,401.67837245710507L546.8143685420616,400.91835163427925L548.5710773207412,398.70418623818637L549.2897918032183,397.79819823308804L549.3636681187335,397.7050683332202L550.0205659049875,395.58749097707283L550.4197290253005,395.51849795228327L556.641418343635,394.4422409930305L556.8319802107114,394.4184257549514L557.5916676738473,394.32346970907224L557.8297553050259,394.2937053416749L557.9150793227002,394.28303804174925L559.008848793226,394.1462669664068L560.3192734171109,393.9823385300266L560.6426226323277,393.985009216367L563.6667365357309,394.0097804639491L564.1285461310935,394.01353045632095L565.8018642192408,394.02704535849426L565.9031440716507,394.02785970415687L571.4004723271462,394.6025293513036L571.8160392933361,394.6459203085131L573.3355091199252,394.7580219363818L573.3692867487418,394.7605128649045L581.428720048435,395.2584355083541L583.3582216328207,395.37724797018245L583.7538742334414,395.4015921356165L585.4394464697245,395.5052321051941L585.5743140669733,395.51351961605565L589.8730333033232,397.72262049127585L590.6561148919517,398.12493331890124L591.1757075816836,398.3918583120948L592.1966774035917,398.91630682146825L593.3211261012476,399.4938428751277L593.4765225394632,399.50956466944257L601.7047257187114,400.34060468336844L601.7588073912481,400.34605762299157L604.1099343027527,400.3873809728451L604.2453429810043,400.3897540510642L604.3851343828672,400.3922031539211L605.8706627513172,399.0735633776222L606.1736977458758,398.804549059522L606.2019983275975,398.77942528419527L606.7471900401638,398.2954192525527L606.8406039888673,398.21248639884084L609.2035084782035,397.4168429540742L610.0927035664907,397.6826391048988L613.3056186502407,398.6427344815603L613.5559897865822,398.8228986457414L613.9644096070389,399.11678338900316L614.09717064217,399.2123111118841L614.793815673628,399.7135592986457L615.5129614784231,400.2309615417675L615.5602519869758,400.2649842707808L618.9560261978806,401.6201585794978L626.4903015405414,402.599916945002L633.8356005516957,402.5134353425127L634.1205097866083,402.5100366090239L636.0508919585831,402.48692161345696L639.1128743158059,404.5676306416816L639.1170702498904,404.5725194833027L640.0600452032464,405.6711629160393L640.7446348120694,406.46870081933855L640.826733563558,406.516435872402L642.4655884195904,407.46923838434907L643.1522457899204,407.86840160742344L643.2486390495237,407.86601874128473L643.7010252374066,407.85483057834324L646.4720512849311,407.78611704940647L647.5077901554102,407.760353320588L649.5445976780255,406.8758079112181L649.8550625362504,406.7409603978067L653.0078738618049,404.78125922362113L654.5267090098348,403.8369705869305L654.5685537262755,403.8109528861516L654.5712234985398,403.8374752668585L654.7540842112804,405.6539808594405L654.7643958677438,405.75640961751134L654.9017785951132,407.12101830198355L654.9037467104479,407.140566649746L656.0730277643258,408.80397492714974L656.5604119782506,409.4972607161171L656.8118193029578,409.85486386046244L657.4658932944511,410.0188827664912L658.6050391309465,410.3044955158614L659.5468346574273,407.88737277361247L659.8557575666094,406.00968410426594L659.9798821811606,405.63278053108615L660.2315341188327,404.86861417230057L660.1760014199606,404.5267949664307L660.1367096856054,404.2849394412335L660.1104547488492,404.123328514255L660.0567468476363,403.7927276816868L659.6558015514865,401.3245006949443L659.5763813641556,400.83554778687045L661.8706658318823,401.1335202067009L661.9004941111567,401.1373927382292L662.3209619943278,401.18674405266916L662.5857918861454,401.2178239987769L663.1893870854748,401.28864993313L663.7565285086583,401.35518459364374L663.9587774446147,401.37890836297254L665.216291741204,401.52637649240904L665.9361040595026,401.61075901032194L667.6495639007308,401.8115387907172L670.105924237919,402.0991575514256L670.864861856488,402.18797199713737L670.8790354888246,402.1896304347187L670.9266490824227,402.19520157603563L671.0340024306,402.2077623635296L672.5688737626466,403.02297145719126L673.7256813737482,403.6372930901594L674.0425978490707,403.8055780642016L674.1195119024844,403.84641913280655L674.328903939418,403.93848528750516L677.346978440432,405.26523026796696L677.3513949534207,405.2671714215065L678.5234810294652,405.4392970532181L679.1114818795542,405.5256256724668L680.4164455737814,405.7171649295457L680.6352060769436,405.74926704878334L681.1936978924105,405.83121410387275L681.2195496043486,405.8350069879261L682.3642747835902,406.0029294561637L683.8931222889851,406.2271140115819L685.0689197812602,406.3994619162297L687.9620713354972,406.82329196257473L688.0471686343506,406.8357529115996L688.8613875493102,406.65455808866193L689.3786933305188,406.5394227898369L690.3906317198123,408.08297078193704L690.396671700035,408.09218326579423L690.4143938757927,408.11921399008617L691.0172091762464,408.41356017908004L691.8720277930965,408.8309222637532L692.8298509227996,409.2985288882037L694.3281703301716,410.02990461501736L694.5211135246079,410.1240772752175L694.527087081839,410.1269928461157L695.0133074386649,410.3643005591051L695.0460548642534,410.38028300971996L696.4354593689943,410.3301043374024L697.5947584664884,410.2881757000234L698.9150657725378,410.2403570546578L698.9364871582559,410.239580632557L698.937519972462,410.2395431975239L700.8518047519699,410.17008391474525L700.8555016306136,410.16994962989725L700.882535457623,410.15278097115777L704.0731933475765,408.1261294255762L704.0931174520108,408.1134719382518L704.1070226113461,408.0868219410433L705.1676122454056,406.0540010453713L705.2130217627154,405.9669588049475L705.551463000617,405.3182088176904L705.5906657552391,405.13350555184655L705.5935599817545,405.1198693603503L705.6311134365664,404.94293468713795L705.6439472069927,404.88246741069406L705.7490895502374,404.3870730852059L706.2904818365716,404.23854954016775L707.6405747353787,404.62811226805667L709.9243913700172,405.2869078773798L717.5506582725441,407.48508362048193L722.2126462898982,408.4188933188486L725.1252970952635,409.00183141554214L726.9799801636391,409.37283772518936L727.2475217225702,409.4263438863808L728.9888913971533,409.7745286318457L732.0611807417579,409.84689793829335L733.6864608785314,409.40452083266473L734.417527979852,409.2054965331684L735.2165968157567,408.98793210577014L735.2295229675494,408.96773036243235L736.1679771145295,407.5009790005642L736.2539232430756,407.54353632367554L736.396384403286,407.61407689870384L740.0107339970344,409.40337532861656L745.3590098918985,412.0497537229764L745.5186327096387,412.0756446916914L746.05855190181,412.1632121126631L747.3152700255615,412.36698674774254L748.4541859319174,412.55160237767393L754.004404989336,413.4504965416541L754.9032294415651,413.59594470261106L755.372616982196,413.67188764563286L755.7560435591336,413.73391593043425L756.3061837861217,413.82290323995545L758.5945338018664,414.19291565262523L759.221888951726,414.29431660679404L759.224493578775,414.2947375644596L759.2507487046928,414.2989808799998L761.8148875659306,416.1091235823671L761.8250162590707,416.1162729929153L762.8869420933992,417.31953288412166L766.0137596185177,420.8617674699056L767.0257792324429,422.0080042299131L770.6496690659419,421.928152710468L770.9687269850441,421.9210967229394L771.1460678390831,421.7541920841401L774.7670062385557,418.34571294775077L775.2248302605965,418.14258256717824L775.8822572551782,417.85087200246255L776.300924427592,417.665091189418L776.8644299476389,418.7421008378458L776.484431749609,419.27056315382896L775.8199678737999,420.1945785126006L774.602980677008,421.88676953909317L775.0497689974354,423.1731147672802L777.0276303669833,423.40407727184686L781.3767788471189,420.76856029932617L781.5502905913278,420.66339069573655L783.0881322544852,421.0192513465806L783.3725847554708,422.28867599459267L782.7650610507983,423.3646076396045L782.7066402940186,423.46806719800844L785.6448114379709,426.4793480559063L786.3340554412509,427.1856178612794L786.3793840705852,427.2320645475182L788.8535501796646,429.76694719696025L790.1801046724875,431.1258047762346L790.2766458080857,431.1826784226391L790.3715276597511,431.2385740163526L792.9955131685474,432.78416833510374L793.0886559872733,432.83902421070667L793.0890064396507,432.8392306064164L793.1797713706263,432.81873890539293L796.0034644855758,432.18106363601527L796.0731431123143,432.1653237022951L796.0857911474524,432.1462775335917L796.2248723309891,431.93683896049765L797.7590878970163,429.62628661202257L797.8444342944174,429.49774183395107L797.9262774725689,429.3744722750764L800.2720409525566,429.2636628345763L800.9245606545265,429.23279909729865L802.6268997594872,432.8461662940017L803.2917732891492,434.2571913586603L803.3181792643528,434.3132286792746L803.5256366776471,434.75347644741646L803.5391759354349,434.782207828185L803.5422261801159,434.7886806824114L803.5459001258457,434.79647707468945L803.6134970126873,434.93992211148566L803.8297792863547,435.3988784016477L807.099653213063,436.7610921842298L807.8278000605651,437.06436122261505L808.1444206134577,437.19622354527314L810.5682544503184,437.6938942217279L816.5535854261686,438.92174112661036L818.1671001262773,439.25247789786386L818.42269441008,439.30485909620353L818.6989534979439,439.3614721526094L818.7244177104595,439.3550112270413L823.0784390483258,438.24986136857865L823.2602222773577,438.2037023637944L823.2606197994551,438.20296385835775L825.5065362008704,434.0299599593588L826.7170504673762,433.374206114867L827.7791327843375,432.79879087716245L827.8965285802351,432.94278305808916L828.5308959983868,433.720838674939L828.8161139569706,434.07064394277074L830.635189969857,436.3014092954603L830.6541403983955,436.3246463738329L830.7076794804929,436.27158023090146L833.1281659659107,433.8721856026735L833.2134924215541,433.14200998029116L833.2929071477688,432.4623939872645L833.3536240803761,431.9427708638837L833.355472411976,431.92695234851715L833.874881096883,430.14973672634204L834.0812541583941,430.0267823632504L834.640574679561,429.6935334989485L834.7088743979054,429.7128965898024L835.6627217519585,429.98329195182265L836.2244702511405,430.1425164058745L837.4047741571906,431.60494159080883L837.2057097305482,432.38126278244346L836.5110849575301,435.0899048218767L836.0149175064394,437.0244004814084L835.6445131527721,437.6411988950284L834.2504531900686,439.962345871013L832.8957121213541,442.21765392093073L832.856018318813,442.32433264210187L831.9518100230064,444.75423358019555L831.5231982370295,445.90592135628987L831.1957442602575,446.7857394354936L830.9979645646265,447.31711899403393L830.9270566843438,447.50762456546823L830.8718159482914,447.6560362035701L831.673482244493,449.0883099664101L833.0594423327793,451.564165389692L833.063209364921,451.62346443677467L833.2729766272766,454.9252678061636L833.4949720328732,458.4189786277796L833.6270810836909,460.4978026302741L833.7420393773662,462.30658006916144L831.153027253903,464.64167305994636L831.0044484321343,464.7756622393726L831.7028327986582,465.5667387587L833.0381666410439,467.0791507656541L833.4917387623186,467.5928254421642L833.9894395844087,468.1564497475031L834.2283348311728,468.4269782514297L834.321747378416,469.99831594082576L834.398561484277,471.2903560907714L832.363706629532,474.8118163243178L833.0238341015154,475.7600269198078L833.201056403009,476.0145784579898L833.9655351024869,477.1125741938427L837.0059322806775,478.54534590176667L839.3053966480686,476.3836102040956L840.6174272770243,475.00326890573973L841.5965438681146,476.28588578174936L840.7898059780081,480.20694988085245L840.7811763556881,480.2488881953684L840.8977243315123,480.4497609131772L844.09105958843,485.9524541514168L844.1380527300568,485.99059626291137L844.3237063819529,486.1412808841674L845.5636906983522,487.1476379746446L846.7724042867305,488.1285015975844L846.7963078853386,488.1478980807355L845.8970587479693,489.1989259671497L845.4720066007224,489.69568674255885L845.1197169628795,489.56533969828587L842.6611326014428,488.65549744357156L841.6663640138295,488.87793526877766L841.4007573086785,489.62465380898993L841.2805378059937,489.96262368389705L843.8588947909747,493.35235317729797L843.9808271690923,493.98096631744625L843.6706689903033,494.172743298406L843.1885413029258,494.47084056360427L841.5859547751579,494.4017926260842L839.6874815521907,494.3198609833315L839.3950711010684,494.307228499132L838.9231474684894,492.8054736014428L838.108766044883,490.21363980928356L838.0611236171039,490.0620018258148L837.7120809349968,488.56646148337586L835.1343225325011,486.57272197272897L833.9239797696384,485.6364256665141L832.9212829225468,486.23922263636723L831.700183070682,486.9732352548196L829.9549027493881,488.0221787448335L829.9668164603922,488.10910910627166L830.0690278811059,488.85489516752375L830.189199604795,489.7316909422202L830.1895453518953,489.7342135201559L830.1901450601251,489.7385890028692L830.4235199463492,490.24078952933667L831.3397398586922,492.21225184482773L832.4552155722063,494.6121249812114L832.7995306295297,495.35282210336493L833.4690839530398,496.7930777638553L831.1108347444576,498.7094401388653L831.0935417571886,498.7234911774755L828.0997299046019,499.1523172056592L827.8363830603225,499.19002042782967L825.2178264804404,497.87473139826955L822.0969933084546,496.3066609284237L822.0058823497471,496.26087398804015L821.6681803748786,496.2432262111434L821.5808956599044,496.2386640923448L820.9896880952298,496.2077552111067L819.9100253945107,496.74147604577513L814.2811611260647,499.52302349086915L813.8661511079545,499.72803572486345L813.7613933112657,499.77978391036163L811.7705274827456,500.763117012911L811.742562234858,500.7769281383425L811.3382308578733,501.70589109076155L810.459378274702,503.72488649462883L810.4757929229852,503.76331499352466L810.6316877147444,504.12827727107845L811.004064709968,505.00000820268315L811.7122467349723,506.6577246172913L810.0218651714399,506.5563800164769L809.9004660286282,506.493172358235L808.301795703804,505.6607322506577L808.2211650191853,505.61874344869113L807.0901948787107,505.02974730433186L805.8983769257416,504.4089851200933L804.7380113921254,503.8045289032157L804.7348204023526,503.8001525836231L804.2484341915116,503.13307535971506L804.1572698299824,503.00803989424753L803.7825631447963,502.9378708667947L802.2440240075368,502.64969539546126L802.188216120471,502.67615422045185L800.0093967316459,503.7090147000832L799.9663386914837,503.72942364017973L798.7584376440245,504.3019124648398L798.6159645857376,504.3694329318743L798.6039599067874,504.3751221091927L796.4606053461672,506.3169911200611L796.2775679685556,506.61496290187404L795.0900894128484,508.54793733269474L795.0277863372107,508.6493466568489L794.9284597772499,508.87581590155537L794.1869376672539,510.56641585222076L794.1545349898377,510.64028663684104L793.3896255780688,512.3840041898861L792.4676148367961,512.8688270661897L788.3310066280865,515.0434007450555L788.1418747920301,515.1428024851313L787.9885281055269,515.3071815709676L786.1107073267801,517.3198990773624L786.0970138761194,517.3345748540626L785.3723256249066,518.1112217492908L785.3092667835753,518.1787991551398L784.9263307093427,518.9214525053548L782.6237442563039,523.38622287854L781.7567083954623,525.0670759990221L781.6507532511893,525.2724696362296L780.3996016023835,528.4944739247555L780.3671364551412,528.5780704148385L778.7167330591406,532.8272115345279L777.2574116261922,536.5834389548544L775.1228936298314,542.0759830701785L775.2842187788868,543.5139515792785L775.8493636515277,543.9605645700058L775.8454158198601,544.0325227525872L775.7474047133783,545.8188907969724L775.7413997982189,545.8332245951617L775.7044365001465,545.9214561020373L775.1563062453529,547.2297860691262L773.4192395549744,551.3752581706791L770.8552175679943,552.0284744677815L768.0565093985342,549.6394398546512L768.0287433088353,549.6595268448074L765.8386894249189,551.2437207262112L765.0172958640957,551.8377960758174L764.7088900696825,552.2678507421721L764.6531374836533,552.3455930830029L763.8303550825826,553.4928402456641L763.7918652397067,553.546506087216L763.2053086145038,554.3643060709604L762.2402673438904,558.2290812980929L762.1294146969785,558.6729639009116L762.8550905086317,567.5309609930468L762.7791906990584,567.5298500765425L761.9031706110553,567.5170112023337L760.3463735745811,567.4941181504975L760.2865300137486,567.5120542584589L757.2592985200791,568.4191528660962L756.3914578122368,568.6791210910725L749.606003035735,570.7105724461547L747.9409990566381,572.1135582632742L744.5465635013873,577.4111384462362L744.077642269078,577.3383133813845L743.6607607760241,577.2735625359977L743.6537913041648,577.272479962237L740.7095476285693,576.8149663015657L740.6297321891604,576.8025585210776L740.5793217099714,576.83932736483L740.2616094156781,577.0710590672642L737.5540162850172,579.0456240533613L737.4190930177142,579.1440059757465L735.5969205861161,579.9392310638373L730.6375304865387,582.102727269996L730.5605898931044,582.1164637062518L727.0137755299189,582.7494153919945L725.63270517255,582.9957323148278L719.0519600414525,584.1683148510704L718.3192472258032,584.2987591564805L718.2656205415531,584.3083053828453L716.2766718676041,584.6622774598408L712.5017458287689,585.3336389920365L712.4819349150825,585.3371607264245L712.4268336833525,585.32485327704L709.6952254473629,584.7145545962721L709.587677005862,584.3806987210373L709.4466510693308,583.9429107788621L709.4059113140795,583.8164399224513L709.3781124930998,583.7955199094799L707.6663527814247,582.5072272804139L706.0860657620347,581.3176953451256L705.9445439212525,581.2111586098689L703.0541171393148,580.8547202144331L701.544655378731,580.6684407591172L699.767622822357,580.8669715372007L699.0356529972,580.9487096540171L698.591518445771,580.9982948181049L698.3882398597942,581.0209870353449L698.3650112963347,581.0235799576283L698.1911631355763,581.0429853061023L697.4123314366058,581.5007573583788L695.8548099747554,582.416109100803L693.3070465719277,584.9429892633627L687.9867684285189,590.2176554638926L687.7941293666985,590.2429766350863L687.1293044798342,590.3303517906033L687.1031505746662,590.3165497464157L684.6995932856898,589.0479712478688L684.6153162331341,589.0034846143178L684.0648311283217,588.7128947880699L683.9000154426233,588.6258886564856L683.862757948514,588.5996420354069L683.6592513618934,588.4562769868699L682.0849336855291,587.3471161616175L681.3539304221501,586.8320418646744L680.6585202067074,586.3420130878393L680.2185680039128,586.031978705594L679.7624964685763,586.0263793481784L677.3701687589844,585.9968698272561L675.7559132735031,585.9768268640116L671.4342801866628,588.2806247486467L669.9159174042808,589.0897911104408L663.5969927401031,592.4558780770014L659.8095286756846,593.2807279656733L655.0335819567629,595.4897450615189L655.0206115842267,595.5031369884289L653.8343816961394,596.7278496316392L653.8188882367255,596.743844784834L652.5030938400146,598.1021581569677L649.8894466610183,599.7934011612724L648.3767683916112,600.0897875524677L648.3635590047129,600.0923753020645L647.8458547544494,598.960991732733L647.8360500204917,598.9395638167492L647.2493950533274,598.8642637931135L643.7590547993607,598.4159669836955L642.7859343450908,598.2908901540709L642.0706322366311,598.1741597480932L638.8251978502902,597.6442663611679L638.563902162511,597.7849717354071L637.8412706861099,598.1740821175974L635.794422387372,599.0939671517237L634.4722487534123,599.6880569538415L634.1838871955777,599.8176138905542L631.8001577138867,598.8118443446859L631.5821610539275,598.3747954102901L630.7818049114996,596.7701001473683L629.5471370726935,594.2942890099276L629.5350558273669,594.2700611712102L633.292838627411,594.2050449746848L639.2937825895974,595.5660253197597L640.4806730147026,594.9930912382492L641.3954373378916,594.5514660345791L641.6303801515428,594.3142255681887L643.0243496600758,592.9065127207693L643.0395367739467,592.8911748302561L642.3437893119169,592.0744889480909L632.0226601261494,587.4676874970072L631.8119832280781,587.373595303728L631.7173392493376,587.4197809644551L631.3574036851278,587.5954228310849L628.8211395118791,588.8328749419658L627.8683520576595,589.6048919473486L626.9495552197186,590.5731976538431L626.8769411842237,590.6497207598909L626.1997053397561,591.3633885282779L625.2639309240424,592.349425454169L624.9256034655949,592.7059030963394L624.7385491994958,592.9029871792494L623.1744568506759,594.5508052974925L623.1775965968899,594.5636884981237L623.229347639983,594.7760351972106L623.9642238184631,597.7911247062883L624.0056470057183,597.9610624004963L623.016918315793,599.2532331651609L623.0091136139275,599.2519061830349L621.8595602815939,599.0564271826861L621.0816194865588,598.9241085058945L617.3768154410757,598.2936148168246L615.7459896670107,598.0158932282637L615.5025217367651,597.9680684055825L612.9577998438008,597.4680530394056L612.057997224155,596.4547556171914L611.8245969536829,596.1919011786784L609.3626768034428,593.4189279874929L609.211309139704,593.3804193286223L607.6976716138486,592.9952871076425L602.3947867762719,593.6609840372867L602.3695153254564,593.6125315380663L601.8448304420705,592.6065272836827L600.7262397242582,590.4615728463144L600.370909342249,589.7801446410733L599.965643728189,589.0029162970665L599.94879322118,588.9868755830382L593.6919641662619,583.0289468806802L593.1971349095736,582.5576043729058L593.1734327030528,582.5507764534078L591.5612957524352,582.0863069399659L590.8447539014884,581.879827851187L590.0583080178338,581.9980788902632L589.5321347300472,582.0771805728954L589.4159294297452,582.0946486097727L587.2638015983886,582.4180555419223L585.7676091225837,582.6427790231817L585.6841870860434,582.6553060028007L585.061593003751,582.879823324763L580.4905140977111,584.5276599102609L577.8995982098799,585.46122070227L577.2360417711957,585.700262292748L576.4043154684731,586.8526061364128L576.3311817825729,586.9539268253563L576.278781853856,587.0608476069731L575.686897329475,588.2685214258721L575.1767694649858,589.3093030713533L575.0466210205641,589.5748253207059L575.0453789001183,589.5773594094542L574.0637037761985,591.8772638416262L574.0621072589825,591.8810039476133L572.2926326973762,593.6070086631216L571.2307597958078,594.6426542193623L569.3461216223776,596.4804834407786L568.9854576688632,596.0625953039563L568.4919721589284,595.4907873727112L567.1807998964574,593.9713789032039L564.4731684562108,592.0925283359163L564.0540588329486,591.8805023540751L563.0850521355578,591.3902486645754L560.7045422266316,590.1856486937689L560.1491563423405,589.9045643058549L559.8488770316804,589.752583964282L559.8086914666184,589.7246454659394L558.1043779322031,588.539643024312L554.8804929195599,586.2975523113798L550.8768449829092,583.5121888141114L549.1871132927025,582.3363067251394L548.4538018002592,581.8259361793632L548.1563829097024,581.6189280540973L548.1199741464166,581.5888146830281L546.4437396367293,580.2023026927598L544.9383509090272,578.9569186833702L544.8596150081971,578.89177682017L542.5982170352355,577.6068045599056L539.9138459745951,577.6078890588769L537.3788993261073,577.6086451595322L536.402860447611,577.6088668614675L536.3417479734212,577.6088794588296L534.979898363301,577.6091209244204L534.9054973382729,577.6091319514787L532.2116210065736,577.6093801408119L532.0780091572896,577.6093847973184L532.0686721400086,577.6093850956835L532.046091496611,577.6152577788005L530.8980361878935,577.9138096307952L527.3072842946303,578.8472080262568L525.5781171803914,579.2964928483144L525.4995235182851,579.3169104811813L514.846087879504,583.0443403931249L513.4442578472267,583.534413393601L509.2052876667906,585.0157709852466L508.2856339074864,585.3370424599304L505.94214723165516,586.1555342211736L503.15651951349304,587.1281112051196L500.7609768826802,587.964199880616L500.3565875233859,588.1053124644684L499.87549441663344,588.2731809197284L499.6355743798719,587.9518682456026L499.5336810047962,587.8154051896162L499.31625610829076,587.5242089844158L497.7764724337098,585.4617928692409L497.6287507361951,585.2639139969556L497.4733890966454,585.218905709623L495.9897507445223,584.7890405300695L495.9705270864611,584.7834700688386L494.1496118757376,585.0798418107556L492.23941802851675,585.3905949031887L489.99582392808566,583.8703096375854L488.0959160160209,582.5826495333139L486.60813026996794,581.5741378252917L485.6770583621078,580.942926058786L485.60154635786773,580.9262405615568L485.35154383893325,580.8709970378939L483.8304844010876,580.5348274459675L483.79623640180574,580.5272571383827L483.034162416179,580.3587922944307L482.89236414220414,580.3274434536161L482.8206529704851,580.3115891770639L480.77728297460044,580.6961640306722L479.904038052528,580.8604600079514L478.01549813348095,581.2156670561374L473.75382204562663,583.2878135698647L472.29343464169705,584.7572853920581L471.9468613330741,585.1059842230933L471.4384651795901,585.6174772869215L471.4364900306219,585.6194644187054L468.480799138727,586.2771304275908L468.39019199020225,586.2365427322756L468.0504163842664,586.084335630684L461.0295924700866,582.9379252858944L459.27814863564873,582.1526111828272L458.04643160755586,581.6002375990738L456.2877802573401,580.8114198840395L456.20105285549886,580.7725154151835L455.520127068271,580.4670499097382L455.51282719612675,580.4546880780849L454.2877313808517,578.3799203588885L453.0427622650959,577.4247637314174L451.0715657104714,577.2252975604897L449.5182696706048,577.0680064362082L448.0832613924026,576.9226053600412L448.076574642651,576.9243038147995L445.53943227351334,577.5686033152342L441.3517766265875,578.6314244120271L439.9069973234248,581.9355716291896L439.7174923475926,582.0837912153589L439.1891273342668,582.4970329366822L437.4405289618816,581.3989170368556L437.028026672109,579.5282740724865L436.9838884997051,579.3281011628648L436.9575788852367,578.392054034708L436.9134702478113,576.8226272241353L436.8859289906467,575.8426048641808L436.8820171747498,575.703402724532L436.86185428279305,574.9858860106771L436.8504482446798,574.5799763806338L436.8284863384897,573.7983831631543L436.414154436943,571.4769528605132L436.4140863463236,571.4765713346441L435.6901186197423,571.5208683323025L434.3763625736134,571.6011978469126L431.93265878146906,572.770444660981L425.50979478016933,575.8420955805656L425.0210827229937,576.0757257627055L424.0769009092134,576.5270585168466L424.0728332107607,576.5290028336224L422.9013834128384,577.9946871913929L421.9182009874828,579.2246816862882L421.5314785628519,579.7084507432619L421.1533106142357,581.2465177042554L421.5047368333194,582.5597564359673L421.92533718772637,582.9235595839127L421.93049038357685,582.9280168098813L424.5175482291314,582.3274676927158L425.6410767736612,582.0665656178144L427.6307120251139,580.8699773685322L427.6805582135846,580.8399962450738L429.20033625842115,581.7557639518197L428.38811383820075,583.7459504224943L421.0070993050901,586.3931073523838L416.0341193305272,590.471767145892L416.0203358387428,590.4757810891307L411.91682589857174,591.6703978173691L410.3521622629439,592.1257032676128L405.5581740576881,590.2306309803291L405.3783732159708,590.1595333604666L404.4513310909414,589.7929331208301L404.0941740628143,589.651683527923L403.03910691577937,590.4699999783031L401.9567574581697,591.309391190895L398.7500015166915,591.0387323949175L394.6331775229771,591.0814060783778L393.0734642932622,591.4993669453364L388.9451405189237,592.6051233337882L388.46589002485405,592.3744674290019L387.5375764441862,591.9276494251648L387.2163524374847,591.7730264254171L386.54494020702,589.9893709785031L386.6294266839244,587.6839969733205L386.6491824302233,587.1448870776705L386.65310561832916,587.0378264619188L386.02552516782595,586.6915204620587L386.0013574214439,586.6781839725468L385.7248628590638,586.5256035625289L381.36219499406684,584.1175318311032L380.6356337210152,583.7163836898459L380.2782976307959,583.5190805620175L378.9300714964802,584.4018549605604L378.82750567399376,584.4690069187293L378.45817994843935,585.983168263039L378.19249149915254,587.0723567210898L378.2219960896953,587.0813065720622L378.95601514291616,587.3039493397373L379.45801037788146,587.4562004460654L383.19043321393406,588.58785347084L385.5040499949088,591.0135226378103L385.5413108956237,592.0009755819087L384.42682053095973,592.8909005260664L378.18000148346937,594.3456533776176L377.3573112822429,595.5899274479016L377.71966385419734,596.734080951626L382.0149176703402,598.5451621291355L380.4148785420052,600.428943008186L379.5262479353899,600.4362076588873L379.21018967088474,600.438783760692L377.74624726758464,599.8003347418728L377.5645776739099,599.7210980439004L375.79506851403295,598.9492236973445L373.90979104898724,598.1266740977022L367.7645642537685,595.4442396720374L366.56496930953426,594.730326611432L360.60159543937334,591.1800643702431L360.4166009582093,590.8630230800725L359.8561938155047,589.9025610676988L359.9556912311026,588.6536492299988L360.0349209402536,587.6590839170109L359.9720395444855,587.5336070429115L359.1337622394692,585.8607636921022L358.27985589239677,584.156539491875L357.75439477667555,584.0217066649516L354.97400429344566,583.3080579841744L352.6700944678129,583.9921503155733L352.4330723814408,584.0625148221983L352.04872797100325,584.1468683652608L348.66615801405896,584.8889787997556L348.6514155607452,584.8922121016628L348.05601100808803,584.7430003805034L345.2312466794489,584.0348859386274L345.2218020383696,584.0340003648573L342.5421879537155,583.7825994915322L341.72968896895566,583.7063128291916L339.40487268444974,583.4878830633538L337.2584816960367,583.2860206261787L335.71984461457885,583.1411996064496L334.43319274985726,583.020021643985L334.34813487264887,583.0120084289706L333.99802720097364,582.9790220221504L331.93952945328874,582.7849730495253L330.58343725672626,583.3858007871873L330.38209597225807,583.4749986245938L327.15872514398166,584.902726415776L327.008892344856,584.9690788676727L326.9946316050147,584.9753940806743L326.1661534242147,586.027063421094L324.82721084982916,587.7265275655039L324.4467850390274,588.2093438295726L322.2827515249806,590.9554635678601L318.18618035861687,592.6866436691747L318.09375024303097,592.6950996876964L315.19767813455303,592.9598711292625L315.19735711465205,592.9598247820776L311.4308568738571,592.4157415923463L308.86031399322076,592.0440789827747L308.8023265345108,592.0356916756294L308.4214226486679,591.7551476498503L307.5254757545807,591.0952226168788L306.9267404792554,590.6541821379565L306.89372847202156,590.6298640875565L297.3964452121811,587.1820863256909L295.26250972966506,586.4068141421208L294.70416036166426,586.3136380612608L291.5102962842967,585.7804012006557L291.226187582046,585.7329465801129L289.48636623805305,586.4839240850357L289.45623780197445,586.5531927412889L287.6164742177654,590.7824482249794L288.0343250680714,592.5324115702757L289.2144812665172,595.3239899737918L289.32841773249083,595.5934723870546L289.38582572853556,598.1176459793809L288.2630245574261,597.9297258468101L287.9343430147444,597.8747052926112L286.82676623819094,597.6892659699837L286.07587652826317,597.5635166909794L285.4202125598089,597.4536951920196L285.2891129466288,597.2676824919531L284.68100871020715,596.4048297932995L284.5655718564314,595.7365792021263L284.4955173778444,594.2420651440569L284.45036341133533,593.4916136677517L284.0039709711243,591.9129790463686L283.3161005275906,591.1407677151975L280.1612802185416,589.7475865057743L280.1542319536833,589.7444733908436L279.4391888129652,588.8407217658261L278.724915457533,586.6025158895781L278.6829741887372,586.4710815654171L278.554875464352,582.4596230249988L278.43551975357616,578.7209225770571L278.7011063009857,577.9420929404401L278.98907887155826,577.0975759857484L279.62816732842816,575.2232153545503L281.14664489375053,573.3878519698544L284.76265869061814,572.0450751603839L291.5868811424283,569.5092390982992L291.6260537665264,569.494676326972L292.6875464787741,568.8059172829314L292.8931853967455,568.6724782999911L293.5731723105084,567.295595884967L293.6879071146756,564.8970140759106L293.16906497250625,563.8190350084437L293.1311369975506,563.7402304403396L292.6412418274936,563.541687023022L291.70061936292905,563.1604405675661L290.9333310961574,562.8494161035749L290.27598647630896,562.5829345948255L288.6811386319306,561.9363084665728L286.328095540731,560.9820432648914L283.4114940343447,560.2877104492891L281.0148086254688,559.7168717040328L280.52385630327007,559.5999064656258L280.60798518934877,559.3978264597525L282.3666443619903,555.1728983938463L282.5458554100824,554.7423074157897L283.57789741306374,552.2623935054993L285.2611113974625,548.2169493607315L285.317158809366,548.2393150031133L287.3550451674623,549.0524251310715L287.36560021690343,549.0566360268967L288.32522123028104,548.490841077812L289.5017719169228,547.7970685434277L289.62599597284463,547.378876818847L289.73768362156545,547.002879385091L288.8695458954455,545.4181890107636L287.72715120024463,544.9109900979167L286.59352324511246,544.4076168088548L286.17070122852425,544.4074348416964L284.7694200246782,544.4067799491659L284.63036151245893,542.192040359354L284.6151225181665,541.9493148180363L284.4718254882354,539.6667065238499L284.43860651204164,539.1375069887017L284.57761356230486,538.9591679786552L285.8298156437337,537.3525412711627L285.86529777509236,537.3070132275236L289.8701462636492,534.5755506766991L289.9597591329204,534.3224465873028L289.9985558379782,534.2128673348745L290.4963673775394,532.8067610841898L291.09865880276675,528.3801539298097L292.62220663349103,517.1779982889335L292.1868465515349,515.2556466764125L291.93665051823643,514.1507942376611L291.93158923295414,514.1284431101686L291.19396297017215,510.90760718283025L291.23654949979766,510.8614465197988L291.69997380941146,510.35911625678386L292.49676994332424,509.49537331829987L294.68237694953655,507.1257860707591L298.2778981241383,503.22649832272384L298.828527827838,502.62922769046895L300.0755037747508,501.276508027087L300.1030691191188,501.2466032729554L300.2484296808518,501.08890494758106L300.2840053972768,500.9672724736606L300.96619221030426,498.6347266522913L301.1589614936287,497.9755490160096L301.1269212100679,497.889450377577L300.6269040795717,496.54574394466954L300.5329522434756,496.2932525128734L300.4664791929596,496.11460668117235L300.1118213063727,495.16143221116005L300.03420606308896,494.9528267297545L299.69243743574646,494.03422697066185L299.3432082869226,493.09551996052136L299.2927513819553,493.04514780953616L299.2693798602879,493.0218154619917L298.03572973360184,491.79015779889306L294.54417942034013,488.303445174821L294.3465228777857,488.10602705780974L294.15766569341713,487.9173941365146L294.09167044220465,487.38018381005185L293.7226490394461,484.37597655868507L293.4390687642788,482.0669741392462L293.4308246457607,481.999843014915L293.3738868177736,481.53619587053817L293.3738341887182,481.53576730399567L292.59849119711487,480.2805771928027L292.4399595866472,480.0239188802198L289.2180766077877,474.80674301827486L289.111665643694,474.6343986769436L289.1019219538923,474.5597121291473L289.01567516367163,473.89860540895285L288.844927784991,472.5896988874823L288.431888151791,469.4230107741091L288.4232936579568,469.3571121301817L288.3883245841789,469.29871530880746L286.336589753711,465.87197980649876L286.0054663631658,465.7545118913804L285.12035158657983,465.4404866546226L282.98107600186415,464.6813497327669L281.5038731374406,464.1570263386754L278.845502072974,463.824805603539L276.7677558248936,463.5649420684813L276.1259265997394,463.48463229138576L275.8898050428346,463.45508294642906L272.7445719971956,462.24075257989L271.1165785447459,459.34720436208596L270.7019561928018,458.61017279740844L270.66965736189786,458.5527568833694L269.42612243678496,456.34201507845574L269.4240248304269,456.3382856887416L269.32485706207973,456.1619715819893L268.69210676056554,455.036929644109L268.3102540644793,454.3579453899183L267.04388050062346,452.1059352321213L266.4578667071227,451.06369806493404L266.44393336399065,451.0389164094608L265.1456820962219,448.729675112009L264.1164202835579,446.89862791413594L262.49543991227995,444.0144414822504L261.72585181741454,442.644920212111L261.68670851367204,442.57525918592984L260.37811654745434,439.1900311351568ZM184.56696227054533,428.9896612955048L186.4142482781371,427.9273284422906L187.07536369028924,427.5470866216664L188.56155815111816,427.9083166479316L190.45506983649773,430.7774743927394L188.48172117767086,432.1646857782263L185.878976700225,430.9235955716359ZM26.762745373511052,530.9590271400398L27.04504138608206,529.6265007010545L27.452801560460443,527.7015766463736L28.26949927834005,527.0138372646801L33.11585375968019,525.5805900760308L35.76674819466325,524.7961703438426L37.75152557104661,525.4627376805217L41.26324769949275,526.6416609868136L42.41548291810233,527.0283527928996L44.02771607548465,527.5746374609733L47.769546381830764,527.0672361678099L50.01125585914781,525.4649183792068L50.12051542041701,525.3868135343578L53.03076646017337,524.2328469019527L53.905235784899276,525.2277949251323L56.15681503610699,527.7891791986501L57.58154228203989,529.4096414017272L59.24809468403464,534.3967982127583L59.033486135753094,537.984679103045L58.423803530024884,539.1363212355203L55.66657598207257,540.460061282327L51.200749812369054,545.0674230951743L49.093013225986454,547.8383506381813L40.49372260784588,549.6750191674296L37.566719134044604,547.1161256895562L32.57689483985678,545.5462132051376L29.447567471831178,543.4727957541446L28.33441269890841,542.4229756722696L25,539.2776035090078Z"></path></svg>