<svg id="RI" width="1000" height="1000"><path class="state" d="M666.0160032098552,430.08184468255337L667.2625294444483,427.9041930501925L671.242808974527,427.19293793709L674.0117774490809,428.156342398386L675.2811893727542,432.1322312917641L675.5314574398277,435.523571032157L678.5144352026512,437.6804247780396L678.9803577583899,439.2786749223676L674.9774197447394,438.24656326376123L669.4929161038772,438.5281170937894L668.2333586534593,439.5613847228217L667.7702855289824,438.30575815821317L668.2164911872858,435.7248281945886L665.9149944744262,432.940614160991ZM655.3365711460473,495.3408730858672L657.744685255197,496.13114858367544L658.2112261449901,498.07550809107687L658.4468770870499,499.5626259471362L658.9153562314734,501.73673887143684L657.3118876256303,501.7440918179344L655.9339091932189,500.8336925939675L655.5783323185161,498.2018182978852ZM633.5065968670154,597.0729545199927L635.0292843540477,596.2147693524739L636.1038280027007,599.5466696616921L636.3530657100523,602.2184416845068L635.5251713811483,606.3754919575093L634.3679442663588,607.2562643595672L633.3865559528704,602.743668214427ZM621.8166107108805,591.7164747883355L623.3203688068282,588.2222282287837L624.5406456862593,590.0381241806442L625.4615315799821,592.9152686004595L625.4667721184063,594.2804317476589L621.8262935984656,594.29425662841ZM619.0902765836761,551.5565631179303L619.38233746194,548.5255259112355L620.1357355670543,547.4630249090603L621.6589132753539,549.7292262337253L622.2791620803025,553.363541201538L622.141779570311,557.1522174581429L620.6262357841563,557.0065008246941L619.4120811012245,556.5557329088394ZM612.5093197203823,428.247162178632L613.3023675866283,426.3011720484122L615.3608065743467,426.52224561923265L616.4950882801227,424.1180411937426L617.5171446852237,422.3996762452205L618.5441564964012,421.82472151482193L620.3744594218119,422.38909817940765L621.0566844846162,421.35843372926314L620.5954071937316,420.17213253356175L618.8783433271576,419.65196211783575L615.5573451146245,417.7211041524263L614.2941788898415,416.1253611642372L614.7472394050546,414.8672171733396L616.9122507921786,413.25908832863814L618.0465230559896,410.96933556584605L616.4392543900769,408.80498818952657L619.7455859785861,406.9641840086676L620.215022267183,410.16173116398227L620.4180652983443,412.95566903183555L625.6106570871189,416.76857933634057L625.724255745369,417.77227929128674L624.2517191510334,419.97444651265283L625.2975536247716,424.5420124752678L627.826227871816,428.19003799919255L629.8997308006169,432.18256646500834L629.108211317334,434.3585303292384L626.5928109416377,434.25410277890563L627.8400604802919,431.7336769442849L627.2618052038293,430.0211919736642L626.1147080032026,428.99746159987575L624.8042161171077,430.0850858819685L621.606993934401,431.72710159540645L619.9593335599848,433.59274255350607L620.7945187401472,436.44907037823464L623.2860651402787,436.66708305414033L624.5549593630165,439.5206767841563L626.9599156444789,440.4265091540382L628.1109060718819,442.3654228734958L631.358823975065,443.9249768788296L634.5257612222028,445.31379919856545L642.4179896717475,445.62386605691097L643.9496396843505,447.1810647681189L644.9497820961619,449.38690666721504L649.7617150458578,451.1963706850614L650.424755638483,453.611501306031L653.1143833534016,459.3020809342234L653.4048704771649,465.48246575136704L653.5820473916904,469.245257444096L652.9384513433138,471.0875295866869L654.3231636079397,473.71311008695193L652.4971276369181,474.8652373471953L651.5332070796392,478.28401054243875L650.3490499832272,480.71112277927705L650.1846870028023,482.5720970753553L648.7772381915588,485.3605424891006L645.5947615713856,492.86480205672945L643.7789263352748,496.651183397357L642.984005110062,498.14274240389955L638.9939490083964,500.505559857265L635.3473862981386,503.12904089554854L631.1889677622524,501.25689007958374L627.2980144840815,495.197506055686L626.3661717052754,485.632501302524L629.0023745816181,473.4628198024934L631.0886216991444,472.3237102242786L632.3998573281822,469.9250813432768L631.9858774574298,467.7434434087719L634.7694800015295,462.27852858337803L635.5889966723224,453.5439115933724L634.0922661482564,451.1482657078173L632.9093568924189,451.3075609544691L628.7046069912304,447.9671403651957L625.9511157598613,445.8047599569396L619.7721035442241,444.68451569706406L617.831697899859,445.8353497602614L615.0772119405488,442.9868034001296L613.8198423775013,437.5322458788995L612.9919102965079,435.44826448830713L613.2052935638967,431.21715267475287ZM606.92757058236,627.1418774603136L607.4163384162881,626.8105616299756L613.41812760097,622.7414224384129L614.0595301816356,622.3064750951213L618.0925687924955,620.4904387615891L622.9593802420777,614.8993064042488L627.335599916013,608.3737749819993L629.0350121044419,612.487257404009L627.4409844821489,619.5397282041031L627.7552296776825,621.8172420949047L637.7959477702956,615.1057086532185L637.9028142311187,615.034254533319L643.6197765725803,613.1294743737608L642.9896876754015,607.7809934105181L642.3106779446168,602.0160972147769L641.1653752182207,601.8448225337362L639.7877890961649,601.6387701539904L638.4159990649312,598.3462631966204L638.3321805051356,594.7628112192848L638.205217067448,589.3340434057826L638.1961272110234,588.9453393011197L638.1117653408666,585.337597492277L634.2890097480521,584.0785468148256L631.9161776694638,580.3393484718767L632.3065806499349,574.3233115150292L634.434695590848,572.8920696659861L635.1995893984425,570.628608272968L632.0194251948376,568.8667654406661L631.7581359679198,568.7219933159212L634.7959956655068,564.6271522628226L637.8828274715555,563.2518727056527L640.1155605359345,567.1994273156776L640.2793592184842,567.4890025142627L644.2952746073148,566.9077961007549L646.8857772822363,564.6670580872064L646.99857528342,564.569482187982L642.3255788218141,559.5506273863268L640.9608244511951,556.3138092704985L646.4635786968556,548.8917627983785L650.2042788038862,545.7631910608802L650.2113125778486,545.7573076547751L650.2112891773914,545.7519929848736L650.194251798176,541.8824540486268L647.7053581553798,540.6768719116585L648.177533908409,537.5514753015933L652.112027160863,527.4856464409124L652.2017652342948,527.2560165411675L653.722168569226,523.3651447851838L655.7153737697442,520.5911219211259L659.3721916307352,515.500807276221L661.2321867237995,510.81908568716995L666.0116187756662,508.8100167060067L666.0991018642871,508.77323633880087L668.7129072389184,504.5658059050593L669.5691132598402,502.09466212328374L668.1963068606377,498.42374630033544L665.4825963031917,498.5074912450341L668.2352955002249,488.76646160152046L668.5326965688482,487.97255205050385L672.1097464703552,487.45319167203127L672.2871914752038,487.4274201935846L672.7241561599059,486.263945055122L678.075153992022,472.0117683783867L678.8714785328032,463.2452269605308L677.3819589573482,460.17644206643314L676.5513753212326,458.4650591319946L679.269629124663,453.5084431304511L684.9876604790751,452.1068102486493L688.0689428323873,449.77058606926516L689.777432460435,443.3945817512612L692.5238555390472,440.75081153818917L696.0856278654977,437.3215261848418L699.9801490198878,436.17502524538656L700.8932385344681,436.6252296852376L703.0812147455717,437.7039173274639L707.9130861615624,437.67653503160835L710.5898743452776,435.6623040719068L711.3604487331177,432.24564828308087L716.940893304276,428.1545421527652L718.2698791484352,424.28206186822166L719.4059823585598,420.41082135652834L720.9812462810655,418.9087093741099L721.9212012447895,420.97557471046366L723.5165830518476,429.08123652656013L723.7315924840577,432.7509960796656L724.1433435252327,436.80812190273616L726.2944855927567,436.79496752504497L728.0082717818523,436.7844123802406L728.7600232513928,433.30006658954136L731.0053080121781,421.4985462287887L734.481261465667,413.1000454017355L740.913178134649,397.5517345287196L741.9307518688713,397.8584032064896L744.5444759404111,398.4787594343088L744.5463711240326,398.39607792287796L750.1139769605825,399.7068681007268L750.1166492310142,399.70749705301984L752.5905171975486,400.28967688740073L756.9048453632163,401.4569353600688L756.8467897279047,404.5259549172863L756.8451628474465,404.6119508106047L756.8481377741982,405.0470553175961L756.8765482069846,405.0537333540273L768.1961958655896,407.71289013707394L774.8382046897498,409.2717204580676L781.4465861084277,410.64518071616055L790.1464688194515,413.0744959655239L790.5528265637597,413.07140862325656L792.0190365979805,413.4953965176795L792.2074960611201,414.97133310823926L790.8827143572908,434.001845288699L790.8783654359078,434.0715159698867L790.7207578267007,436.5860089509284L790.0138858091607,447.86036125181715L790.0049945697474,448.0021402090641L786.1539136779659,452.93804695107207L785.3707236264521,461.4511478119041L785.9287518273802,470.8843318198096L785.96547618502,471.2118728623383L786.2095780262625,473.3888981571042L787.8412825633743,475.15306332942157L788.7500825670668,476.13556328600197L793.6028905719342,485.5067076598442L793.7102934994493,486.22287715357487L793.8654282194693,487.2572928086396L797.1636246127764,519.3377227166161L798.0187830090931,527.6497169304216L801.7189491907434,563.5870699280028L803.4231257964218,590.490777036775L796.3672141167922,591.8139670304506L791.9270355712908,593.6714983165735L790.1537797131361,594.4131727666886L786.7377717322225,598.8026866380546L787.4803939138037,603.2449712579635L788.4282162799279,605.8639234662666L785.7101955835565,608.3142937694856L783.010112550552,608.3768702488577L782.4495887891437,611.2916241032018L780.4651444881149,612.8852642446853L778.8797385723421,614.2448933466853L775.9867539565091,613.3146056423441L772.0081556065802,614.1137017562714L769.7276479683471,616.2833149516244L768.919729950461,618.7639258529392L765.4537077284308,619.1512468548125L763.118499838641,622.4631153355888L763.2351965103428,627.2652360902034L764.4655172884954,630.0053306529499L763.0049734751829,630.9212070716126L760.40580181835,630.0661900238545L758.8526700554733,631.7858240372543L756.9008719383107,630.7572178210032L754.7623535373782,631.9357463589388L750.0742885408224,631.3753869375109L743.812918422159,635.6553178740413L742.9871908778046,632.7821992629321L741.4288418816309,630.526392605499L741.6073750448651,626.5581059016403L745.0677413142503,624.5651566417457L744.9543389972077,620.3385026966321L745.3632018138824,616.0639012739377L746.8929406224242,611.7907988953324L746.7265462704488,605.2428733912486L739.1458060052305,597.137431593469L738.8732136629369,593.0620381751028L738.1069062517437,591.9339877699441L736.7560756533721,589.9453384967544L733.3885270193513,589.0612459995327L737.8475986830961,572.5216073056785L736.8126076898909,569.5935248166251L734.5646331112885,567.3866588136391L734.5167214898829,562.7683976469665L732.4490842271352,559.465733145596L731.656658717774,556.7563573742119L734.2883039411508,543.7572040226414L732.720509104252,540.8614199016519L728.1872415650741,538.7816275944095L727.2168486063576,538.3363451618691L725.5305831696987,537.4188280705141L725.2936531824148,530.252517163876L727.2163350135788,527.9169135589793L726.4259831083241,525.4041661529294L721.3800708779875,523.6914828222517L721.3625927668359,520.7875281365916L722.907472687232,520.002927805707L725.8145664057685,519.8202948607895L727.748658623542,519.6986821413152L729.835618752092,519.5673615625979L731.0498085886818,510.86119490140493L731.2235711796528,499.81601047903524L726.2526465249816,497.13925356697627L726.0434277680638,494.62359060558805L730.2696862948003,489.5659358811108L730.4405538970847,485.88877167308135L733.5339979702684,485.48296023645935L734.8755213716732,483.5390642373771L734.2792381509091,481.027263571356L731.556675231684,478.5996103580806L727.5248167126344,468.38026124992155L727.6641325306637,459.43534157249394L727.7672849903267,457.7016219424703L727.9685511812925,454.3185214733274L724.5711389316123,451.61874925073244L724.037395940213,451.9623181584459L721.7309946690211,453.446817817391L718.8379210901701,454.62426265028853L708.269382565504,456.38722479702443L708.0203895471583,456.42872794299916L707.0060160783972,457.066583280444L704.6407175556778,458.5537741627011L704.4337800780196,471.91998352093424L704.060571883738,474.4374518204244L702.8267618955582,489.01424869425966L702.4817865856912,493.08845645626843L705.0590611217667,498.87673565830426L707.2754113812991,503.8533186732993L709.6526735804571,504.9795920487652L708.6433241437908,506.92442444118717L708.5992288414004,517.5665311413326L707.0533484336388,524.356857528762L708.0456534149075,528.6121531257496L710.6370419789994,529.7537282908763L710.7731460112419,531.3079785156623L710.6764830914196,531.6636708903243L709.8242896354053,534.7992886545442L708.5094767304171,539.4569586584686L709.8711239278524,542.936309511572L708.4688248827034,549.3014616489357L710.0116500187464,552.9020497572034L714.7872856728375,555.3086082882157L715.5714571416815,557.4889375115567L714.4281500545412,564.8513167986929L711.5114140399133,572.2492049998242L711.203462847891,573.0301493013496L709.0445236868256,576.4398504479186L705.3168600880273,582.3258392806462L705.3380864006517,586.5168627793944L700.547822385213,594.6485559129848L699.9551391275377,599.0438981183671L701.0464510929161,602.7348980175962L704.3833647137219,604.3474342240893L707.7804857692038,603.2040174491412L708.3412311182195,603.0152497619741L708.7071230632491,606.474962263106L708.3209729909654,610.6125100149543L706.4909683023095,610.0987841959738L705.7152939770608,614.6515400942274L705.5277384068488,615.7522621299141L701.9348244785857,618.600294813643L701.1884175319037,619.1918828482364L700.5257198634889,618.5826903602243L699.6930752036933,617.8172387322107L700.2492953759956,614.4246850544647L701.1762755382164,608.7697711695398L695.6796269207512,603.7875205758472L691.5721031853461,601.9376491266884L685.7852626976351,600.5712650994335L683.5608368161493,601.3016125706338L683.4654520195868,601.3329273912456L682.4890228886113,605.9024136694043L677.953744484658,610.4693813862381L676.1640923220989,610.2789266116821L671.5338720323258,601.6444859253288L671.5315570981257,601.6440598255778L669.1502465038579,601.2056746144082L668.6908976457028,601.1210956068281L668.6562148883813,601.129151948252L664.4275994499717,602.1111808934611L661.7901637622997,604.048434599794L661.2383381492874,604.4537250563691L660.1739817067526,605.2354091893114L660.073830139488,607.5154284820264L659.9390963528322,610.5824064567738L659.938760513098,610.5858267557151L659.5103806064194,614.9482176043603L659.2551773154426,617.5467226880274L660.5109928709683,622.8405338215382L659.3267500034665,623.318959944051L656.8016371771007,624.338954378102L656.7997728663455,624.3397073805409L656.4737884932756,624.8650545526899L654.0163559264976,628.8249772678478L654.9386127195345,632.4915418802506L654.8054118392816,633.0747333984978L653.7492742758408,637.6983411592338L653.6312146952959,638.2151366098141L648.4161353656269,641.9275489586582L647.93057524397,642.2731432080391L646.8657091161579,641.6237673707125L648.0945985483638,638.2842447640905L646.7286035526533,636.7369981649441L643.4375785387589,638.8862813975165L642.4088787886493,637.480243689273L641.2914693197902,637.3128828999227L639.7262062137635,637.0783952476044L639.099654536416,637.7545749361941L635.681648693864,641.4428614882654L631.5996263624154,640.4881101304162L628.8438096207934,643.7536601107929L626.4518160998498,644.4322119501383L626.1704152809968,643.7505679504695L624.8008880481402,640.4328613413252L621.1351702745161,638.8651867807358L618.975352874038,640.2199354881873L615.4957858737337,642.4021350774101L615.1125256256266,642.5559888682876L611.4681037367751,644.0187751096605L609.296071812251,635.6478598032659L608.46630856475,632.6142565245234L605.4869240530202,631.7231030325172ZM601.7162077428832,413.8831607382642L603.5456270172117,414.1055188600996L605.7176183830393,414.44086451758767L606.8568139059576,413.40893324655224L611.7758144710862,414.8778353322738L612.8112769265637,416.9313632477616L612.1329829801853,418.8756961990008L611.1124018502014,421.2792807410271L610.4339687792974,423.2247468164791L608.9511535817693,424.1449022420038L607.4702419696405,425.636197112437L605.4080037080383,424.2713084832267L604.1339060690066,419.1318095925353L603.6701492676818,417.30567386339L602.2940189468502,415.8242012168452ZM597.7012794780587,480.1107760913517L599.9822754520414,477.7000366090976L601.2337970321545,475.636580038911L601.6848173067597,473.4604053147265L603.1698320062675,472.6543939867799L604.8861791188544,472.64862666043905L604.4326262973697,474.02374365370815L604.8977813371376,476.08149514488196L603.7611376823204,478.3743452716269L599.9961132391145,481.934176948175L598.1675885589221,482.85663463888994L596.7939866631593,482.7456636131788ZM575.0559442919746,631.4799171020125L576.2699097457985,628.2746122488443L578.8473238282811,627.357499836347L580.0540529945894,624.6219310810993L578.6751882690196,620.07371610375L577.4538918182504,617.4976292379047L578.196882283353,611.8813304006585L576.9658482414103,605.3608886447031L577.4714282120863,603.0974380368925L575.4369064747763,601.117726696817L574.9777905365868,599.4508056997838L575.8799876863686,596.5664580453338L578.0026702940404,596.2577471949642L578.7452117272768,597.3888283892693L581.6468139563209,597.7641923847905L584.522154424708,596.6707125237509L586.427094423709,596.4341400807127L588.4657579627295,595.6207131054907L587.9362571802247,593.2213596867061L587.6963836395355,592.1343376297594L588.89657920025,587.7335415901215L592.5870211698989,583.4755822661923L592.4737509187748,582.7750194753195L592.3666018940424,582.1122990927846L589.2459499114167,579.9430061755571L587.6516051514892,577.124094617112L582.6922332682765,573.0143060779549L581.4152837884766,569.714039293546L581.73818701003,562.2439788049074L584.3935482808372,551.3684136480674L585.9181695046848,548.3875708765979L586.9541605531795,546.36184901077L586.1741953878513,538.962921766926L587.0756203362121,536.2126774292566L587.8788039337683,527.08374112754L588.4801108309588,525.4431342249806L590.3727027376248,524.8439587011758L590.4308195308517,520.1213441696899L592.2881602162624,515.0536856880067L596.6705559979683,509.1147981093164L598.1612553045263,508.67371398561755L599.4567296398773,508.29034836514757L604.8713899628203,511.65080939905874L605.4894999041842,517.3768932615998L606.2419946728194,518.7386424421161L607.9332665966872,527.4852580825793L607.5275625405638,536.7602575597284L606.024936771515,541.1498104304454L604.0643348925973,543.7320562340045L603.9193231510137,545.7015961629828L604.6919353817957,550.2438473602L605.7633846887568,553.4227015829383L606.8469002892717,560.0859391026002L606.6754358165128,563.1254887999307L605.2088478664015,568.5790184074654L603.5488708762957,570.7065727328966L603.4067837229716,573.587239690129L603.418747250952,573.6682447362956L603.7231008976665,575.728942401876L605.2401138271125,577.8252413565092L607.0592669532818,577.8190522744737L608.1184877184593,577.2097180431537L609.9450174042825,579.325513272604L608.9041569598191,585.242533335527L605.4418240309922,587.5270116053567L603.1584399624652,590.1145844820967L602.7691877632762,594.0069907320249L602.7185469140898,594.513341741733L605.4613439817755,600.042393059724L607.381211449018,603.9104955646765L608.524842932495,607.2354119921537L611.4146985445183,609.3490943266575L612.934981792991,610.1021343574947L612.757323384322,611.799413984915L610.5119032053892,611.4760598214514L609.1548007369719,613.7571830236656L604.6643077125123,614.4590513854575L601.4141961502855,613.0249100526239L598.5324137593075,613.3372447712951L597.6294054543025,615.6165793243738L595.814458642672,617.443319522569L594.4446546013916,616.2336605208142L593.2162857385745,611.3817223236986L593.204499410464,607.5885987676528L592.43407808445,603.9504952766736L591.21230897472,601.0722330560731L588.9372166741242,601.2305960069559L586.6656202805443,602.2997406809944L587.4315591898487,604.8755091694172L587.9368001561302,607.5970250486976L587.9088783644557,612.460350324729L590.052964526943,618.9781238252231L590.5229137264446,623.6812955260837L588.9069556277211,627.2531779381636L588.1586264402571,627.9899772530028L586.2844549503674,627.4876777252726L584.4601633498954,626.430430442254L583.5539683687293,627.9512014594015L584.2667428304806,631.8192421227478L583.474822480209,637.8836096086328L578.7771596199931,641.1962000619654L575.9026750607841,644.9318420058368L574.8937535652716,637.9816517708341ZM571.9038848755627,584.1415577241924L573.4161631697117,582.7735902187524L575.6878911851996,581.7063911625971L577.5084558395317,582.1557045677852L578.4256913960567,584.8822026222119L576.763811924032,587.0101316443904L575.4044951051985,589.1361291138485L573.7358377942634,588.8377346401892L572.0787654307754,592.93647127675L572.3695405602738,588.0830800168576L572.9693647155796,585.6552565871215ZM401.02940537397916,959.7445436613027L403.1751277896903,957.1656845598875L403.1472005473747,950.9023994274908L404.1543094377673,947.2393405951088L405.2810422119269,946.0003099488356L405.44131035890746,943.2280987174568L407.2827994153036,935.8651094256907L410.79641795438704,934.6952683137847L413.9538832288608,932.5425095950068L415.98243318400654,929.0413320267626L417.28040601051487,925.7067045792755L417.6779929664632,917.5499261251784L420.46597218520736,920.1240921906729L420.67286566459023,919.849960859927L423.50821949236047,916.092778271176L427.8005264736889,912.6816446086068L429.54268721950336,906.4491595744594L430.85473222820997,904.3262623569287L431.02116974155007,899.176859507364L431.3603471981558,889.1583544528587L430.23722542977015,882.2526126559421L432.958229701275,885.9611010061257L436.3044900485282,888.6889663013458L438.2133994786653,889.4204979440244L440.01430042654886,889.1186252325051L442.67497493299254,889.9201374940765L444.83984019693924,892.7442950541201L445.8990858908355,895.4086976798615L448.16549798567115,898.2011700229017L449.6390369628648,902.2213241768638L448.40798574746555,907.2921051796905L446.4453122834532,911.4430535626077L443.632274841284,915.7183801749466L441.37231451326386,921.4305875174041L439.49003332960274,929.2584332496469L439.53777752280854,933.5526060119844L440.9159664899816,938.5828112477861L443.6847584768109,942.8552142652695L445.2166998398382,944.5057789844902L445.5373284150944,944.8512156378799L446.471630279063,945.8577694545161L449.17220960100957,945.4156854199146L449.2113250919752,945.5445039504866L450.60125762447177,950.1215350054983L452.79179933088005,952.6680804549578L457.5470790126142,954.7172974195364L456.60259706699395,956.3118400697279L458.0195093349103,958.6418689348407L456.7343031109944,960.1282821023799L456.70636968077844,962.8333118398912L455.40368126606245,966.9887975138172L451.3692798521127,969.1374035036752L447.60482227771837,969.2997108140792L443.5289538965372,970.4770291604793L439.897980627592,972.0957364736573L437.6116817573794,971.7024483681619L431.9475880270561,972.9316025199382L429.4582017947146,973.6089703742196L427.8690139451544,971.9990273048634L424.43700815822865,972.9476705254187L422.2137470767924,973.1209236730199L417.0061191065457,975L415.5296569357924,973.870639190478L411.82690770770495,974.3469659606217L402.3095385446317,966.7148118438738ZM196.66919673104434,794.5594924792666L197.16389633637255,788.2887255120082L198.49513340522884,784.3284098337908L201.00235195980594,783.7525176793428L205.56258606023064,779.5498067610761L209.0459896592066,774.1786404750573L211.54531268666793,773.1220306473451L218.54994828195973,767.2372363467339L223.11730483593243,761.5505080081896L224.13458413903555,760.2836880996537L223.73444504279848,755.6740336794919L222.61375379947813,750.5850885091131L219.02361997686467,748.0862103297154L218.16047835253656,746.4069516488837L217.28528362464604,740.9017688010383L217.41949375270096,737.464349595057L217.51326479409607,735.0624380053878L219.72428924758043,732.8250819749255L221.73907421060568,730.7860468478136L222.06305310645072,730.084995245867L222.4727444059229,729.1984432666582L221.63153325923966,724.0433715746788L222.75677683408256,721.7546002566676L223.3168235294863,720.6153706773747L222.500432229997,719.2471962210888L220.9692034828108,716.6808123202236L221.42004339276082,713.5211069766824L221.71371738430642,711.4627034591844L219.64203873042933,708.8320154201615L217.2214088587059,707.6880605777851L216.84644687662808,707.0796364007498L214.00909044436622,702.4751131634964L213.98325680729832,701.9613347027591L213.92572138589782,700.8170341557202L214.83463319298994,698.2581831929715L214.38736852576054,693.8817884403528L213.14327553306086,692.5446086337713L212.97481678509368,691.0508568912749L213.52821709404128,687.8892450647049L213.74229328204257,686.666116196766L216.1386800256847,684.2105358276349L218.40115757641308,684.1039002817697L220.667419546561,684.8204065729221L225.7571266754983,681.8465048728608L228.4842576427296,680.8782159262262L229.06742070688827,678.7779531842511L231.97653457390624,676.3744696509976L234.7805529041294,675.7943753565501L238.05130808516932,676.380848516153L243.0144214614211,679.3826933755479L245.57591886923396,678.5717622751722L247.40180174305652,680.6335105857902L250.47884637670185,679.3787705592774L250.48747734849024,679.1591983070875L250.89377505742254,668.8211648355045L251.35340923278594,657.1217496669965L251.57593961911292,651.4558884205011L252.50324716315168,627.8341994292844L254.28680227159725,582.3489074088917L255.18466876683166,559.424971537439L255.99320330999896,538.766869232358L257.10859963363146,510.24511662701553L258.16675535446564,483.16200426159037L258.1692136776476,483.0990559086553L259.5731681141948,442.24912296942585L259.7774200875414,436.3015655679199L260.37772448574646,418.8147266189898L260.3756403542835,418.7304311254116L259.23980763055624,372.74491513772927L258.53644994445256,344.22322467388045L258.53203315911014,344.0440104953249L257.63439204698136,294.63674310496583L257.6326104507548,294.5385725650158L257.49444292143824,289.94803253341746L256.5097842445057,257.20767523717063L256.43215133935524,254.62443103489065L256.4250110803465,252.81117906193546L255.4679041848919,218.62156028887804L255.47267127484042,217.57894020957187L255.25271612413167,208.8278289950772L255.10942538043435,203.1251066052944L253.74585188714246,148.78704849312484L253.42454407692932,135.96445413524685L253.09042818170172,122.62318544997771L252.98685071339744,118.48576841622042L252.90461378441842,115.20027525499125L252.6623365361754,87.87438045479547L252.4257573869439,61.15210630949804L252.2066210010062,36.365456885409344L278.99135636914696,34.660283368058515L287.7261476091819,34.42419934232822L347.5930239555932,32.75908383096731L349.88551500140113,32.693689323369256L363.2539185463944,32.30995073701877L376.2476752584915,31.933043007794538L407.7162008136579,31.00421462711097L417.4285013851063,30.712963939836413L419.92334000609725,30.637800317256563L423.27987628098117,30.536450787358206L431.3616324117526,30.29136582672737L442.4742984981692,30.08730608669805L445.4357546574932,30.032448434966682L450.3312839408266,29.89757328173704L469.8650177772448,29.353940576166565L471.0553267702568,29.320531218432563L471.08190138742134,29.31978495699053L471.32355570518854,29.211265676861217L473.4626512652894,28.992347795267676L483.893476144667,27.92331790540692L491.6648300688644,27.125204914735832L491.66894653936674,27.124781783442245L492.59141506196806,27.029951464170324L493.3969211357142,26.920836529875828L494.72356465520846,26.895571619735847L500.2746396095269,26.78941867388096L506.37733091145196,26.67190319560774L506.44276202215644,26.670638612753294L527.0604754283052,26.267280494049714L527.0710491647604,26.267071136424306L554.2337335493518,25.720807613103887L588.857892513964,25L588.8907582829974,45.37288404883304L588.9170138095715,61.65509270603593L588.921007624104,64.13236975218416L588.9490090639546,81.50504180355642L589.0359363203489,83.56597767952411L589.0295709897056,96.51245134714691L589.0295701466184,96.51416351164471L589.0269073897912,101.91828235396412L589.0134977063228,129.0299942529506L588.933408775303,129.24729074445457L588.9568670534825,136.97448735318875L588.9594340695644,137.82004765202305L588.9598965058335,137.97237109159778L588.9971611741811,150.2467026205558L589.0306197307921,161.2666889586582L593.149072418461,160.3855462396397L593.1526939014587,160.38483971412768L593.2351434660856,160.36875430542278L595.4110571151891,159.9441872352252L597.5225109188834,159.73474313955225L597.6728904944738,159.71982240561857L602.1928607019906,158.94552054467596L602.1954019086405,158.94508508113455L602.7606592139682,158.83464136372928L604.5375843385641,158.61154554194553L610.836714799709,157.6127572983516L610.9822274476568,157.5926843577028L612.4519498336072,157.3899135702287L615.4027140196443,156.89765097411896L617.9576760203295,156.47125046997874L622.9156824134548,155.64335883244425L623.7577001892868,155.50269981270947L623.3860207303135,159.67009528676058L623.292815346758,160.71503983333005L623.2936443289905,160.93214838136294L622.9684061292699,164.51450524537472L622.9672473213033,164.52726812046106L622.1301006770353,173.7457811154518L623.7853959578256,179.95827364433583L624.5652396560334,182.884593304418L624.5670313226443,182.89131605391898L624.9498484446702,184.3276951173835L627.7094363850877,194.6796812737075L627.3328074669755,195.77252740726863L621.5679852490273,212.49403897358783L621.1489408596846,213.70908544583793L621.4778734760212,214.90249665225414L622.2895063331133,216.24455357268172L626.8523691365833,223.78785072448974L624.9177561422356,225.75040030498926L623.3062747770114,227.60304806716798L620.3698220989734,230.59990019394405L619.0331510816261,231.96388907794665L617.2448920263136,237.13773055300823L617.1911396270973,237.2932318420708L623.7254762947729,252.58594248011633L623.8838414835307,253.07522966091022L623.971314129189,253.34548228217676L623.8527463159189,254.07868547367414L623.6548761481586,255.30223485347594L623.6635919141704,257.58370853137274L622.9453761771074,260.32341777257653L622.4661240132598,262.1514118921321L622.5549504602018,264.2154124283719L623.6972124235821,266.3840889759148L626.5385844547312,268.00293747966197L628.0797509480822,268.322884772389L629.4662770026589,270.7078420918001L631.1682343503279,274.98712584117936L631.8394769213571,276.67464811194054L631.776727594632,281.23878225266515L633.0013505864295,283.5147831837783L641.2066323498058,288.2624333453535L641.210734953878,288.2647318962355L642.2953808687282,288.8724021386639L657.544297700279,297.41128470693786L659.9251507140359,298.7437605650796L668.3429912053203,303.4533532111178L687.052372501883,313.91210924788396L692.4880296191625,322.1250979208779L694.674497365676,325.42784347395906L700.1614565717936,333.7138621859822L700.1853370441673,333.7499177640068L715.8168231637575,357.3378350373907L716.1818893400155,357.8884088466953L716.9956711523089,359.1917034888654L714.5299663244349,364.64332459779763L710.4119681438076,368.522364352673L703.9296174676737,373.13663965433614L701.7494984713621,372.43112111993554L701.7304611852237,372.4460971172157L700.020194115092,373.79143953521776L700.4198338080977,376.2981490143907L702.3446777162001,382.4302988559927L702.7788155731303,383.81316998695064L706.7544839924212,390.6406508365104L709.2142814107489,395.16768336055975L709.205073595841,395.2654527353066L708.6683170658206,400.96413346284226L707.5350948516666,405.4131543234898L706.1983371920455,408.12401091716794L704.6535340146569,408.1327673492077L701.3481698715386,404.2884892479204L696.5442458756077,408.75765988361474L694.059313986404,413.60018261914973L693.1427108110405,422.6849411729603L691.4152963332136,424.8201171139463L691.0489740141422,428.686659168124L689.1696172047363,433.2076708205318L689.1095873490774,433.1987162321747L686.2393116611738,432.77046130435485L683.0623152114646,430.68267967263915L680.5653235440498,422.5420197584586L681.2791587725335,419.860927355234L682.4876960939488,417.13817567004173L681.3130074756381,414.24712946612146L678.7956068404501,412.9077118221751L674.5620664669216,407.8062542569349L674.3256539661957,407.5213345943014L673.0802600830045,403.70629048821115L672.0922435699673,400.67927299378067L672.9053011142203,396.4327058630158L673.2954047850205,394.39496248330266L670.5852297828771,393.0562593354436L667.8676665821624,389.98043329417715L666.332837336553,392.1109320231281L664.9857055225599,393.08321646813044L666.1852098028335,400.8297175610143L663.873399984972,411.7927784581534L661.6088159296829,414.1499563970971L657.9482408468059,416.29264715049715L658.163863394574,421.1209508196728L656.9375365623096,425.8200580450911L655.1167573928271,425.3420022068115L653.182890172701,420.1176195064361L652.1479598116708,415.15918389112136L651.1876642680593,400.77697813631886L653.9604905977287,390.78809023053805L656.9606374127607,391.01703694607295L661.6503442765652,383.5744256985862L662.0035811179392,379.83520872324976L663.1217486931929,367.99517763786514L659.7484642828055,363.07425614267953L656.9237553788008,358.952706401992L656.7323028415174,361.4676182626682L654.7983973688844,363.92851218450244L652.8835319619438,363.80011324899925L651.5232422174308,361.6835608708565L649.4613664363924,357.08546126585264L651.2380334075215,350.6558511161625L650.1102272950502,347.4142183890478L646.862165709618,346.2079323041792L643.8605123186303,345.0928974361298L637.2812155567935,343.64076945171115L636.2516959797003,343.41344618617705L623.8649721211543,344.050690142203L622.4980056296284,339.4276238680212L622.4925406147993,337.9850071322262L622.4746298593022,333.2569726952051L619.7690542368019,331.7245040691762L616.6607283877374,325.3732316951107L613.3721430815981,322.10768608158196L610.447082419867,322.1180654799225L607.203369119178,322.1293478901413L607.5826280264157,320.3931513052859L606.993780236039,317.3113554882293L605.1931797265363,315.8000823870257L606.3944569253898,311.14600503192315L606.0488994770518,308.53919320917964L605.6030042378724,305.1750860234562L603.2759462348067,300.7507527443785L599.2306376587059,300.956501115751L601.7920485906302,294.5779529055899L602.0968902629965,293.8187103980009L601.889266926934,289.38871486181193L602.8445027702437,286.88172851906313L602.0510694555405,285.7002241076016L600.5218595164866,283.42288594624284L598.4095177550627,283.23527297201156L597.6237251499998,280.5428924311494L597.5074855762068,280.5121166005305L589.7211583924654,278.44981139583575L588.7620528834386,278.67419556009054L582.2152617873621,280.2052177453449L581.2609040312955,283.0962893644272L581.6904410176586,284.4787742962523L582.0794687742888,285.7308139849716L582.8157879322816,288.1004023448594L583.9933825703872,290.8996639431822L586.3653606999333,296.54171394166025L586.3605020276234,297.98322379530543L586.334750146505,305.6212401519569L589.8974086282972,310.4659104923521L590.0113201133372,310.6207935894066L590.7423343381197,317.02027808786045L590.8037089415966,317.5574988886866L590.4297090273474,321.2207645738572L594.0983511674276,323.13669237107854L590.6548193858637,328.3370678602646L590.2602461284879,328.9328656181434L590.4709997996682,334.7156939336101L590.1487189185415,340.66770431963084L590.1054292953118,341.4670891003619L592.5378063855511,345.53471090134497L593.7890455813829,347.62684605063976L598.7985691702396,351.00318304139245L599.201593460334,351.27477166042013L604.0272415698527,352.2232245819539L609.4253854603267,351.33704786344003L609.4314419668675,353.07236962778285L603.7682849340202,357.58037813592665L602.6035381005942,358.5073605971894L602.6170155668876,362.5491193497602L603.6880629265954,366.0187473774395L602.9421537900241,369.3759530182992L602.7010470219653,370.4610389981849L602.7626997008988,377.98748306396203L605.0860843618217,379.9100743322013L603.3619175360096,383.775702940119L599.7218189804602,386.0027133875708L597.9674593054425,387.0758565964631L596.4459989908573,394.41700841164084L596.8374682356039,400.9845223113504L592.8584171622922,407.44654820752737L589.49278405791,406.72696704188667L586.0436965386074,402.75272882825936L583.1148766321294,401.7572808781462L582.3604154950417,392.26804005862584L583.1531494696177,390.03803561595873L583.442572171185,389.2238238324111L582.5315318229634,388.4966462911586L581.756945304244,388.5927808399586L576.3506091292586,389.26337623972245L573.7953926712469,389.1326372055732L560.179279067626,388.43344771667586L550.5140491917218,386.19698618046533L547.3831307328142,385.47201995732195L541.2755691678905,386.04005362807686L539.8535801543742,384.0231075597131L540.8132191911889,382.1484449386283L538.1487538966494,381.1627181661292L537.5404364112828,380.9376416408695L534.7905561959047,385.0134824156487L534.9376935907709,385.16401498260916L536.7687428983178,387.037204184291L536.7744147220064,390.12608006178L536.5603786655951,396.11740136511554L541.2313268143741,398.42108434668125L541.6217493132104,400.7372066815918L537.5853666800119,402.5418495338734L537.1876901833518,404.99443120000967L538.7767785456847,410.01497671297085L540.5013481243852,408.7510479889239L542.2143001482895,407.4955082625062L550.4962017752229,406.5843254597644L554.214911247926,403.0474041343841L560.5668689535672,409.0015122558232L567.9117588609718,411.3005362704245L567.7338642628949,417.0960892156972L567.727060473632,421.4481591729644L567.72302029632,424.0316818080432L568.8213916960399,442.6749029308787L568.8856980247422,443.76602301697295L572.4574338211744,450.13124841640644L572.2694604510232,452.25920314118L568.0257959736325,456.1367239530108L568.6130740217577,458.64913117951653L573.0718261091337,463.08539834890234L571.5357391414941,467.15005808986086L569.5813326225981,467.86668680734454L569.4737853778869,467.9061184449772L567.2847109838247,468.7086616476245L565.3485109435883,467.93967882788746L561.3033466113965,474.71937289136366L563.4369081107315,477.22960906342337L572.1544015006996,476.80584930774637L572.3409524662485,479.3349408830831L572.0657174514265,491.65129003333897L566.4879414687543,494.48432918486515L566.1891219533807,494.63607598130295L559.1994231162998,495.5369553897557L558.9414137290023,495.6148509420359L551.041845851842,497.9989682966057L550.5210870152171,498.1560780383245L542.985584146946,504.7526341026682L543.5574176962496,500.29987054510946L541.8080242864027,496.4320853242796L537.3600353345496,498.37611809307265L539.1113887752024,503.0181944062849L536.8500715827452,503.58743128351415L536.9872947442226,504.6992078069509L537.3775449480565,507.8607507254019L539.4325609570639,509.11960538151953L539.8972086059485,509.40421625878173L544.1616508330029,512.1069071666503L539.8344453347261,515.376268301804L540.528868503202,518.1198462282L543.9840574886778,519.851957811414L545.9875713040766,521.0707076212238L547.4737328928684,521.9746546724243L548.3000455392552,522.7541572794111L549.7166121124391,524.0903882116445L551.1605858009278,525.4523574058834L552.5223759000744,528.5484373791713L549.95012185478,534.40384250304L551.9125973841819,537.7940142380726L555.0599464099716,535.1244567805395L555.6229302348814,535.7831181180142L556.2203020917167,536.4819863128139L553.5305139180969,541.5182072515692L556.4376506411262,546.7490158087935L560.9007455101944,549.4515903069124L560.5232506666393,553.9092430493001L562.3550188932477,556.0631326360572L562.6614091268713,556.4233783278173L562.3419251035616,558.5121316165078L563.240204349406,563.7545823511884L563.1669167466333,571.18695133363L559.5374473209794,584.5145555080593L557.9194854519951,590.4535781980642L558.3958373616255,596.3511593709385L560.2389596507128,597.5333734515887L558.4848162800813,599.8767938799376L558.9026215473048,606.8482761541853L560.7921734603559,608.4859439480343L561.0771923608363,612.9954710126528L560.45155266651,618.7529196500064L559.6062361292511,619.8911860022586L558.2106408862513,621.7702936867266L556.7060960707887,618.7289262835927L552.9145137890159,618.8921550096559L550.3803756542499,620.9725631871349L550.2433431549155,626.4011675112521L551.0003524381563,631.3191354476276L553.724091225775,633.8373698818178L554.4391124625621,636.9126038521243L553.5957295521764,638.9581043364617L550.817572146678,640.1532900304126L549.3326451448262,644.1315881929414L550.1136334772161,646.4058583655562L548.096717171548,648.9237067279942L544.4132576743815,652.573099736652L544.2535152856799,654.8287966043172L543.6590326588295,655.2557370579073L542.4010918133134,656.1591058027172L541.0719162072597,654.6867835448952L540.6067063748175,652.8596100522393L535.5787806530896,656.050915972997L530.9439739731454,660.9919631975222L530.9023440549844,661.0363375007225L530.8975324140031,661.041466334128L530.8745678604832,661.0659447339697L530.3211954152338,661.6557857657886L529.9524961958203,662.0487722062835L530.6017352034173,664.7754337851474L530.6447757555347,664.9561847359805L530.3351441994183,667.4783302746424L530.7701716015969,673.643185672846L530.8108492493292,674.2195661396532L532.5982820737368,678.6223701233524L532.6009825928245,679.6133074991142L532.607261702454,681.917321058417L532.342902919368,687.4590252771804L530.3858002004773,689.3313094166073L529.703985758337,692.4281666377126L527.2285002085672,694.6174831514447L524.7099625426887,696.6312012548912L524.5531649902852,699.9596296013558L523.5592931041466,702.655836406152L520.6408693461061,703.5348090911388L519.2750993263462,704.9872132076744L518.1265983245162,706.9328398001653L514.4312271832789,713.1918638150047L506.8514864955577,728.7568298372494L507.8928856238864,735.2055502189677L509.94506279261225,739.0352616020893L509.7314026013679,740.4625428470445L509.59095335718496,741.4007227417516L506.4919936202901,740.108393776659L504.00452298914615,740.0555269164709L502.75734189919996,739.0903466954264L502.96956345891607,736.9323994546239L498.1007338936287,732.6568792977516L496.15185422826187,729.3513985596608L491.5235997408025,726.1997718221237L482.94903389016775,725.0747222273221L477.4137410677306,723.6750640391125L475.25242049845554,723.4940346949055L472.2851002828547,723.2453219486172L468.09719885749195,723.7113142357769L466.65266758555435,724.4811066124853L464.9660993486298,725.3797935781183L463.4399091470297,727.1634546180089L460.44086340906387,727.5107193189369L456.84912003404384,726.3896355294034L451.7113605725124,725.970587887846L442.6636759848092,728.1801042526157L433.92073706753376,730.3132716338932L423.44496646047827,732.8667335399166L416.3511169184197,736.0548894784203L413.65342867781993,736.1592930111096L411.9532531870724,736.4586070996368L406.74557700217304,737.3749860506291L398.5415200739103,738.4057754956527L392.2737727537633,740.3378590646311L390.9632612672978,740.8789535429698L385.0384109919181,743.3246348239655L380.67172749863073,746.6207437005677L380.3826907812521,746.6008936685768L376.95770500419184,746.3655328246666L339.8920193435624,760.2912515947742L335.1166245949843,761.639161706466L332.82708492709264,762.2852042791153L330.4686944899483,764.8191414933101L328.7653293681846,766.6490723514336L325.85737851308124,769.568162427392L316.94380830879516,773.0284637287035L315.3447858339599,772.8069324397388L313.09115719947147,772.4946098326379L310.20067800772347,771.9155892248917L306.1186823242142,772.2804487608392L304.9166373328906,772.3878180541616L291.7589153651675,776.2092949093353L287.7341712820697,779.1328875002979L280.06652793891305,775.7300817225675L278.6383481917851,775.59496935721L278.4332867623486,775.5755657683668L275.6711251381781,775.3141070583936L269.67961294339966,776.2506705532003L259.62664146202354,778.6494256242024L250.89410941172815,780.7846514240855L237.54797154729147,784.0443176860431L235.52056309499554,784.5391067016317L235.5168392497446,784.5403263933604L232.16442161877487,785.6382131540652L220.39871314836762,789.4890191152758L218.45771098264908,790.319689946097L210.92513972965403,793.542282193418L200.9327407180391,799.5454608748997L200.90014213066354,799.4901027527287L198.92981177290318,796.1438815410486L196.57687420357826,795.7296144029359Z"></path></svg>