<svg id="SD" width="1000" height="1000"><path class="state" d="M48.60918813702011,366.36618399105225L49.5741091125775,366.4036590905892L50.802894116327366,366.34143413050907L50.76723014339012,365.8704282228109L51.79223148977508,351.0153310722136L51.83136361749757,350.95237887324777L52.24196301600119,345.493127236965L52.204728817934324,345.3321552715018L53.227404038328245,330.7470043986968L54.65693063520007,310.34834112583394L54.778950568622975,308.79029208499605L55.137411340753545,304.01185790027955L55.33041954320379,300.82009048602765L56.10035926929817,289.3565807272756L56.15621275947592,288.18153583405064L56.321610532466025,284.70255577577274L56.48698780804,283.1838301627378L56.54171589892229,282.6269340190968L56.896930064472144,276.7086320548857L56.90117567196893,276.65242489152354L57.009946955382475,275.21236095316397L57.04137963377315,274.7961932411612L57.09293082544042,273.5993593490035L59.27720897569708,241.86204037593436L60.52767737600527,222.32123111855483L60.547411988702095,221.72785891791975L60.662324878901074,220.07939760423986L60.662369858997124,220.07875233533503L61.24335809199624,209.62807178294503L95.92806078235986,212.00778178151927L104.4470944316136,212.56227584397408L105.32984950841262,212.61899287801936L105.32974400353345,212.62064163429125L110.19630105371954,212.92576105012256L114.92622928672898,213.21861833115196L117.0313318602764,213.37483544909134L124.45514635216426,213.8174113716105L131.2361114579188,214.21382476201836L131.51821592193613,214.22703891897697L133.16301537496383,214.34607682489218L133.93388843840182,214.37895327854403L138.04265553506463,214.69865752822363L138.7700237605389,214.6825292962352L138.7836721161379,214.6833283345709L148.52386466579577,215.24583455195398L148.52578645936,215.246440501522L152.1220844051627,215.4455679984033L152.99686305621242,215.49368651300313L156.06229057261294,215.6613226914227L156.95283486429963,215.70857342827537L162.6187782219563,216.00652091290254L164.94857596178588,216.14204477050907L167.34255090594786,216.27113940254128L169.88961486534436,216.40746602020766L172.1150867551397,216.52162147066053L175.63764450412668,216.7001249611725L178.12965392578582,216.83520516621917L181.6155116061733,217.03906686120553L181.65255061841526,217.04122237785418L182.277493606152,217.0659738184213L186.41869456418118,217.29260716722843L187.7652031648172,217.3656959421303L190.24204111939451,217.49936919409458L194.85901598400068,217.72416171426818L195.96336531729418,217.77861669716123L202.01168130793496,218.073341292596L210.22248686155854,218.46392830493915L214.98780935132027,218.6855909224015L216.26979179798457,218.7325109902817L218.523994999254,218.81436720456992L218.70777064313387,218.82770338254585L219.37285455564592,218.84754011206985L221.01968881364297,218.89963936373255L221.10307351392646,218.90226562140964L222.14328576054316,218.9567632300558L224.52078913598035,219.07449292840496L230.54446994014705,219.36866265502215L231.78122045165065,219.428330451265L232.65655670441004,219.48513678636888L238.80415045101188,219.72830033305942L241.25922246414513,219.82369481883615L242.23045302834277,219.868269531822L243.1457537488605,219.91929718145713L244.65748362963174,219.98163920678226L244.75073738623564,219.98576157240663L247.07079455650336,220.08786711125333L247.07492752926655,220.09647143184355L247.6707802274776,220.1076067640646L248.799128075561,220.15210309507214L249.27736025363293,220.18509285070877L250.14921994820898,220.24175099070513L250.40397582788646,220.2441100772194L250.81682057374513,220.2503563174905L250.8247861501899,220.25530855364434L253.0773223517185,220.34997334057633L255.23503119528576,220.4398803988268L255.33879889701205,220.43026341282555L258.2259074617675,220.57335753432034L259.0940436504002,220.6083447625188L267.46803712045994,220.93954815641195L270.8983503680738,221.07193571459482L273.2803752120053,221.16725982311934L275.591706009792,221.25887444641893L275.60682503727173,221.25942345584238L275.62558388373543,221.26010458457287L276.2517506349416,221.28181518494608L277.60773892377773,221.32861230067675L277.777015875069,221.33470167776835L277.9576781043569,221.3375573526814L279.2067143210717,221.3829602931898L279.2251717829978,221.38362933087123L280.3831701887942,221.43696093950987L281.51362730131984,221.4661152211965L281.6065577925143,221.44277581148586L281.7603760151633,221.4494943600559L282.7988500511211,221.49475280496046L285.8630208535905,221.62727377183873L286.14269909011796,221.6296814815612L288.9210304411215,221.72849788809043L295.8404962414848,221.97860795274372L295.843125895773,221.97870152710064L295.87001774755583,221.96867610073946L296.06766954482674,221.9791687007507L296.07739691575443,221.97967456419772L296.8156091756157,222.01801976217794L296.89256898432217,222.02050772552283L296.91325099690727,222.02117617163066L297.12412158397444,222.02798758438794L298.9332817374743,222.0897449209198L300.80679062787715,222.14576959253355L308.9166230351633,222.38935733121994L310.34081605253556,222.43932712316675L312.8441083396932,222.52636106156788L315.10144416130277,222.5931214390357L316.11185931686964,222.62579344866464L319.51047349334834,222.7344731898831L320.03359449546804,222.74228030436197L322.77588555125567,222.84132500140285L322.8776487240292,222.83680040948627L322.99457529656064,222.83270821146294L323.64577293081106,222.84040171571732L326.9240260728281,222.95319415776L327.69167100820806,223.00257270715719L327.9462510432179,223.0056207710773L329.36907668002135,223.02246280596273L330.34773620031626,223.0443737665444L332.4673837203153,223.09129780961518L332.6098970416063,223.11417005566923L335.245907616033,223.17536245114835L338.5810554861554,223.27884408634222L344.62530989703197,223.44095351267504L346.2140909457652,223.48258222609238L346.7741953642075,223.5191307099322L358.88723007262195,223.8500248037997L362.5579547590876,223.94560208020403L367.8591069241194,223.97807765762687L368.2126529853136,223.99669249394788L368.83355672545935,224.02740646039507L372.44315128165886,224.0906179313482L373.052141424473,224.10322344814549L374.8100618080211,224.139273575771L377.80305447204864,224.20850417685378L379.6073064721809,224.22699474606176L385.0669506483408,224.36117423007428L387.1960140277181,224.42002482757508L387.3899339237739,224.4253485532353L390.2264219019558,224.47611716139582L390.6185276026421,224.46867378753998L391.14923850932996,224.4819924823427L392.04922380713924,224.5050197337448L394.0215077740364,224.55115186262515L394.4242792149344,224.5581962245731L398.53230508597403,224.6032186968166L399.16303633573705,224.63715705118105L401.6409016113284,224.6702901161456L413.0274449048873,224.8097593341884L413.50136492303767,224.8501126298334L413.5172386009488,224.85041304644034L414.8980207806572,224.87638873068244L415.4080475552297,224.88261984559452L417.8196223901962,224.91151192864018L418.2109643390542,224.9317294213974L423.42938962419896,224.98117867532721L424.96116911962525,225.00164032502377L432.51954466572346,225.09704052562714L434.5094369637991,225.12061754788556L437.2691541021222,225.15225408646205L438.14731871752315,225.16090067839403L438.15174525313523,225.15499420932835L439.492131046046,225.1936576124662L442.88792994435624,225.16383252133332L444.34979639835785,225.1874282047737L450.93767487044767,225.28946573587237L453.55551586851846,225.31575247072232L453.59701484054983,225.31616023933492L466.898369912662,225.39908900335564L466.9162988094667,225.39918144382938L467.8643583548044,225.40658750550656L468.34594292562247,225.41029379325022L472.5428034147477,225.44100277438375L476.24844287008034,225.444265493196L476.95628067021056,225.4583138725491L477.4477190241933,225.46605184384094L478.57127488195334,225.48321486072297L491.933618910364,225.5448099464204L492.94284880027794,225.56896553944958L493.08200556628515,225.59870198690865L494.06126632656105,225.6044610765786L494.15919631052526,225.60074747577275L506.1053921620321,225.67107442392353L508.2595764898948,225.6730782478701L509.44964513007403,225.66800040968693L513.0577265586979,225.68420115314072L513.2724233989544,225.6797646309562L515.6388787962362,225.68669405561488L516.066390334075,225.68784916227705L517.7797351811055,225.70437318805085L517.8069713159206,225.70463202213048L517.9741781031355,225.7049709613264L525.1096437006939,225.7152153577637L527.5804187078104,225.71598995108485L529.6740874382396,225.7158724551784L539.4995363578382,225.68508796469706L539.5259644889627,225.6852635179286L544.2827872458125,225.71501882131557L554.4304854965109,225.69251900073388L554.5341287155879,225.6881275443982L554.553584080843,225.6914258338307L554.720821757641,225.6902673539777L555.748276207742,225.68230887793686L558.14565798299,225.6630742668017L558.1458832356851,225.66307159103133L561.0302778539292,225.62813418190976L563.4479993911007,225.58495129400453L568.2661271625391,225.52919026888566L570.4334388623153,225.5028814005487L573.0056384409617,225.47186967704815L583.99932193603,225.45066791878472L584.3310636247431,225.44959883460757L589.1050770909283,225.3818979102815L589.7859406539237,225.371941661459L594.5591742518748,225.30003405752402L596.3628725539515,225.2654343116945L597.1764572727619,225.25329890669906L601.0297828975397,225.20842656246595L601.0511592515792,225.20807555025354L604.1426557841165,225.16248300185447L606.5107383310244,225.13815382126901L608.0396089949872,225.10654523499457L608.9247748192219,225.09210029179167L611.0536547704182,225.07521651132691L615.130615950537,224.99849165344648L615.1308731491281,224.9984880823128L615.1992304081086,224.99753857982026L616.1216738921121,224.97243673792568L616.2450092601406,224.97143143396707L628.9087241681412,224.7110313230008L629.4047290068945,224.69867475570754L630.0007860421464,224.68377291368287L640.0121124894215,224.50390979041316L640.025023860654,224.5036673399539L643.7236809907463,224.44098377553743L651.5364510356571,224.30128992562186L651.6568720934536,224.29832604173237L654.427014287706,224.24794813609225L658.4166015943056,224.17320854044442L665.1132082129795,224.04195891633893L666.3054583830196,224.01782947818873L668.6790637335394,223.96910534245006L672.3489002691407,223.89197588529507L682.9816753021066,223.65618311396295L683.7249680525947,223.63901465478267L686.609383936928,223.58625572596947L697.329434205026,223.37835969016814L700.8579905428745,223.3058563313709L707.9585613660158,223.1538416069972L711.658003979037,223.03530035604632L715.1209608887052,222.9223256012065L723.6071685338911,222.63725026941435L725.9979518947387,222.55482825291676L734.2523008423218,222.26313361492075L734.3663667228411,222.25912717939653L735.5488287281885,222.21408584466934L743.7780251680886,221.89434222870986L747.4734740184551,221.74718065068998L754.6302234831127,221.46950240341715L754.6417513574166,221.46913119530942L757.078241364688,221.39019032638808L758.0103344365325,221.35518828604683L760.3143236689837,221.2680637882256L769.0785339133322,220.93153176085966L772.2508746019089,220.80664635218585L780.31441385147,220.48185723040473L781.1790560690349,220.4315443009286L783.2795326809347,220.3368822375157L786.6383741297243,220.18402056032068L790.4042967047749,220.01045369504084L797.5959154257639,219.67363456943247L800.9566481812968,219.51335447044187L808.0943816353342,219.1668546428584L809.2378264385036,219.10635346517543L810.7986841482805,219.0234233096726L810.8091294552904,219.02289640359166L811.8905799435146,218.97936399883793L813.915829937961,218.8973295426153L815.0547932616867,218.83472647899407L815.2330885108677,218.82573917627826L815.2331669114235,218.8257352232102L815.2694903554693,218.82390363875152L815.3132857128794,218.82169500312062L829.7313238596594,218.0776371527259L829.7316219362228,218.07762142088512L833.7705660158686,217.86312849270848L834.5409515536253,217.81753651626906L834.5717568194376,217.8158297270814L844.1634329053223,217.27689004185413L844.1656259025003,217.27676232353554L844.1671498629848,217.27667356888918L853.72393761659,216.71265956868712L856.8120808800873,216.5002920033836L858.5091773402668,216.3180002242715L858.5213458920692,216.31741975705938L861.7494056752206,216.16258442119369L868.1080114105395,215.85263907378402L868.1277478562349,215.85167999286273L870.3159464265711,215.74495327794847L870.507351329951,215.65613818149342L872.9248689817446,215.51508811081692L874.1764559981807,215.44169066468538L882.503616886263,214.94686689545887L887.2980581392433,214.65684813385462L888.2508180008514,214.59876945348054L888.273469621539,214.59738684954647L892.7028233749137,214.32542403568192L893.4053405451657,214.24884153352087L893.5053834410201,214.23792908730474L894.2636600330061,214.15516443674517L897.4440915914879,213.9532679661865L900.9601662876142,213.72814731601164L902.2103804495109,213.64761568271808L904.60620185574,213.49257919107254L906.9768153963726,213.35142382081642L909.357710594075,213.2194330035569L911.7404436301124,213.10050335669422L911.7484422404789,213.1001025672245L914.1288102760329,212.92572827033086L915.4086249336074,212.85707022324823L916.5228393510282,212.79703201633384L917.6871149777144,212.71406507894375L918.8764345497583,212.62908523959794L920.392747479145,212.5290530283533L920.3968477927237,214.01643310109012L920.4782161271346,214.86911357942586L920.5313820283023,215.1162375788495L920.3767309174721,215.2306417265271L920.2673601399306,215.56968987924523L920.0022696927194,215.56193383544434L919.9325039388622,216.1341380583085L919.9269518979963,216.19229290483975L919.9066860199956,216.40455526287064L920.0138504247068,216.5024276325322L920.1824282764098,216.3736615181794L920.3241271384438,216.48441145809187L920.4525161665016,216.55879929253672L920.5976323882123,216.79204974294765L920.4032748104144,216.92987723439364L920.403804204253,217.255160823717L920.3660792401613,217.35085259981196L920.3161598891983,217.47747153900036L920.2240508698618,217.89637949995893L920.3014045120789,218.5876660819738L920.2382671000414,219.1629903884779L920.3595266643053,219.82515411394812L920.3383856496691,220.34529997842978L920.0577402268832,220.59620639289494L920.023455050919,222.28829562524004L920.1650293237838,223.04545717802205L919.9004516108047,223.8969316039179L919.9494503798508,224.19284992708083L920.1523341795806,224.74375060053822L920.1781573608073,227.2310689171863L920.1841361289597,227.8080745492069L919.9865997900041,228.34409060035085L919.8954416754896,228.6842601771892L919.9553321333296,229.47940276621287L919.7777888061405,230.69948968001282L919.4581883953134,231.68197553633595L919.3431584064238,231.8519813803844L919.0373842153545,232.30384228580243L918.3619681167525,232.7760210273034L917.9839484786492,233.14511308238346L917.4514522220309,234.08596525478362L916.8700867269118,235.33101603604578L916.3588127817832,236.1328097391725L915.7423686175396,236.73457731746146L914.9540593702254,237.3080490760791L914.6929252441257,237.6049712139918L914.5256964809985,237.95245683031587L914.4345060701355,238.46496692583924L913.8107745307874,239.74296243470414L913.6102927214274,240.34192114677464L913.59711873929,240.52340211702418L913.5525701648546,241.13697237442165L913.353797165588,242.06720000372022L913.3353912787542,242.1067516644802L912.312917348902,244.30308526786638L911.7548586660696,245.0207694027056L911.2073362634967,245.7247129891319L910.1865303376062,246.7773109134438L910.1161918910873,246.84982245244012L908.5077056898809,248.0187569432923L907.1930224376388,248.78950714003392L905.8388676717316,249.5829409183365L902.0973057293429,252.47919685727658L901.5198644557722,252.98025273482068L900.8161262307933,254.32419726559303L900.4267522889875,254.92002498319337L897.2303657270302,257.47208705983354L896.0938725522983,258.37866340101976L893.2393307085664,260.91569906672953L893.1800435356187,260.9994191243287L893.1043265743887,261.1063361459331L892.5140404734694,261.3679907603438L892.1763083975042,261.7326109180343L891.646659001274,262.4887774209617L891.3058115576441,263.45824435451743L890.9408903351833,265.37210511511853L890.6633051348889,266.82706989513656L890.6594172895864,266.8474428257276L890.6178776333027,267.6091007952457L890.1848854194661,268.5991514958887L890.0903526147972,269.1163136697172L890.1925000795998,269.23072991785557L890.6033638919189,269.69089127901157L891.1246460930197,270.21644349350555L891.4584919396483,270.5917437718515L891.7636934236521,270.9347957274879L891.8112107672177,270.99356654137284L892.1667413790569,271.4068754618689L892.8781034594945,272.2336516415753L897.0766353450022,277.06795565364223L897.4234403342911,277.24327745964894L898.0701694636521,277.7834369715356L899.2104610459096,279.275864424283L899.7106956620239,280.1289069454167L901.6925834786018,282.4200216221112L901.8898990698835,282.75570010802363L902.3060981147914,283.4636383516788L903.3387800652295,285.51266686006437L903.5169128169675,285.89918079854385L904.3394440830934,287.68339348955715L904.5948151827545,288.37706955026874L904.6585128093668,289.0029509766747L904.7926667467182,289.31439284189617L905.3206342377484,290.1484559762863L905.5800154717753,291.2494310774896L906.1427167499842,292.54914512409755L906.3172510082529,292.8232354676139L907.2071774624877,293.68588977557624L908.9293776997832,295.9928528108086L909.8539770080512,297.3772493833859L910.06611576825,297.6947975088332L911.2636626179168,299.0976303433655L912.0492048536344,299.74202263757377L912.3487030077499,299.98765112982005L912.7438768381741,300.13729583477163L913.0205608049597,300.1412015608795L913.3291545115686,300.14554323732784L913.9238589890857,300.05130145333453L914.8759343580716,300.2431149821009L916.534392666088,299.94688680674574L917.3889280401661,300.0392088282697L918.4840398091932,299.96386107006293L920.0638629962892,300.0481152989627L920.2351606086288,300.1072863474313L920.2368778060609,300.1078794873557L922.0427253780279,300.7313247007256L924.0358543352794,301.83977490683503L924.7587952284346,302.35789843102214L925.242447972505,302.541289696807L925.6602924014228,302.6996901720276L926.7758540984898,303.25251213387423L927.5761770784453,303.5439431511827L928.7141464396229,303.95810833061785L929.4495007669075,304.025940149589L930.4918123453185,304.2607026240161L931.5898619344678,304.6590314859163L933.2685996950436,305.8428610379127L934.0087079664845,306.18399036376246L935.1873400642509,307.12992366106926L935.6120268608659,307.4706527018139L936.4949477255161,309.20641770187376L936.9483558075558,310.2782704289963L938.1407939492781,312.3654893928003L938.2119001217403,312.4899120443132L938.2930704171977,312.6319395341284L938.4011400548686,313.3531819892456L938.5087380827113,313.66949929718095L938.6868625622352,313.8995962191114L939.2767257174747,314.403953338954L939.8311843491765,315.4097203545365L939.975346323486,316.05873163773765L940.1514045288565,316.2195430175469L940.3028987725409,316.35790843824907L940.3318275622121,316.384329221477L940.4916874214816,316.944485303805L940.5825949235013,318.0174497935383L940.6168389701014,318.4216038796266L940.6857792712138,319.2352124364776L940.6993959267547,319.4503926518436L940.7717624364255,320.59397388162165L940.8455216863738,321.7595526845908L940.8472554625382,321.78175546512375L941.2214081515929,326.5725015898467L941.6231762239265,331.71537414694535L941.6907084850577,332.4002034576515L941.7099333502043,332.68889516182736L941.9810719993811,336.76192415115713L942.2736127837237,340.9388646043202L942.3068033062062,341.41272712697867L942.6144750417899,345.80501418109793L942.6232191822686,346.03693756723914L942.9923638275823,350.6053830686876L942.9850277958226,350.823152664152L943.05072246868,351.750279383375L943.3021212029553,355.29789980392394L943.3112018616182,355.4260333221269L943.3339872295808,355.7475458796176L943.4820380396183,357.83652395725414L943.5025556576902,358.07160529949215L943.5872402663822,359.3740269489048L944.3431568970854,369.82025948235867L944.3669153594146,370.1485128018478L944.3671388634838,370.1516007735134L944.5105202691299,372.60388663663207L945.1581625950369,381.25360275185005L945.2283733031743,381.92103367424994L945.3791070019786,384.2724840428101L945.3948872275892,384.51865230156466L945.4053543611863,384.6819370306745L945.4060083905955,384.69070621519336L945.9189620331456,391.5672396649702L946.4542250330152,398.74047051017885L946.4554854270482,398.75735859060825L946.4609857124346,398.87660407068415L946.5153013439747,400.0542255395046L946.5719178829048,400.9523587182001L946.6011558721023,401.2561430238916L946.6989006946903,402.46302012930096L946.7935812302031,403.63197271681145L946.9918868979405,406.02827992652044L946.9841464701146,406.24271838669165L947.5218514769542,413.257846650626L947.5228095054354,413.2748561534915L947.6650002660407,415.79948292181774L948.0812677201657,421.8565898558028L948.4874321195792,427.76567772247853L948.4892155658471,427.79162201310635L948.4995525277361,427.87022727282624L948.4998257104824,427.87230462193105L949.5049147688201,442.3260165037512L949.4990911118043,442.38335172293L949.49772208085,442.39682994400584L949.495907402545,442.41469548328564L949.6669838437365,445.1969158565715L949.811592432181,446.85421604452307L949.9352503981024,448.5363037425194L950.3181022956514,454.1810377440286L950.3323770688675,454.54416294454103L950.5043707232508,456.2891510901691L950.5214773290049,456.54496313941814L950.7149767878152,459.4384521540911L951.0463009544337,464.2451938259765L951.3122349993303,468.10279018467844L951.376269337877,469.1077141490634L951.3772450508532,469.1219383788862L951.513335678369,471.10585195847875L951.64606484,473.0406562997874L951.7006322521111,473.92574380267723L951.8109509888312,475.51805032926325L951.8647354786054,476.0233715208821L951.8661990459066,476.0371217730674L951.8734448175289,476.30155458674784L952.015139589327,478.3997828423713L952.03257723969,478.75191037735607L952.1973931635964,480.862392475427L952.1980802754765,481.0363289098762L952.1982499045525,481.07928640083566L952.373170714176,483.32159567674165L952.3813547363479,483.5976654408243L952.4959975786398,485.49257799071364L952.5063888492084,485.73482173585L952.5174556196732,485.9928199842141L952.5218182782376,486.0424188626763L952.6751397920764,487.78540117735105L952.710374391117,488.2880902123509L952.8671417765811,490.57915902082226L952.8448607190654,490.696087170189L953.5188184827476,500.35139437467893L953.5201506249476,500.37064577975303L953.8381676470156,504.9661396171504L954.5123452906596,514.7062263268408L955.3575080441436,526.9125736735048L955.3652185540334,527.2355087403029L955.4855089697425,529.0832189009375L955.5088584293851,529.3578992717532L955.5092713569613,529.3627568554931L955.5367202435567,529.6792765590449L955.6450599242123,530.9284931704374L955.7250734926504,531.8510179288296L955.7401599472281,532.1618277405285L955.7414672051891,532.1887600563186L955.8646329814817,534.2282448232576L955.8829911109756,534.5390922135083L955.8856684206473,534.5748449602114L956.0411241840395,536.6506952130209L956.0523761486074,537.0236196807571L956.1939472302338,538.8477258533251L956.2169199182647,538.9539897924192L956.249615998078,539.4534399870751L956.3896948219469,541.5931714628852L956.4022879686377,541.8775775519239L956.5546006846675,543.9666816359835L956.5799433685279,544.3142615054791L956.7546208850439,546.7098617800586L956.8378879514196,547.8517374015777L957.1106469436254,551.5918158192948L957.2646369484853,553.7030749047046L957.250795683137,553.7153654037193L957.2656197270798,553.976519767403L957.6021086646062,558.5806679494947L957.6033286979307,558.5971364771531L957.6033876674321,558.5979324723384L958.1555622393848,566.0501741998878L958.2959813860328,568.3515000102954L958.6428894868833,573.269431211435L959.5033526105333,585.4642010392961L959.5885344263743,586.6829661076599L959.6753361723311,587.9248599714646L959.6759133584019,587.9329300291911L959.6759218884447,587.9330492938145L960.0252155398464,592.8163351332789L960.4584353323077,598.8717196300494L960.4910200043963,599.2753787841068L960.7144042537711,602.4526677026356L960.7201559199464,602.5344716601638L960.7275263312198,602.6153779375087L960.737659555464,602.7266111947757L960.8089759920736,603.7157284385992L961.7900079345566,617.3182235008209L952.2063149309326,617.9831183431209L944.9278854885022,618.4785626188208L943.9857497805833,618.5529144785523L943.9855049507241,618.5529337822024L943.9855780688206,618.5556331334578L944.0058551048206,619.3042970621225L944.1127782480202,619.4556101919954L944.5823051970474,619.7213767028079L944.9425010177404,619.5183319066763L945.0929386721546,619.5196713965665L945.1706646408795,619.9193425829551L945.6408279645509,620.0236340929574L945.8046670727153,620.2175755188985L945.8782801906784,620.3909772150661L945.601137069058,620.6069918786441L945.7123816082315,620.9147990467576L945.5977597832255,621.0737361572723L945.7287179625073,621.3019606455937L946.0969813857687,621.3345082369628L946.2063595282051,621.288530435882L946.3988980053946,621.6164770033106L945.753404070726,622.1495080000855L945.7425573930157,622.3382291024005L946.083836443341,622.6239559597904L946.1503416592374,622.8329260525741L946.0115169043388,623.3778210901208L946.0946166242038,623.6313850459726L946.3846687557533,624.0447954877903L946.0528230771051,624.4236679313874L945.7426436234334,624.457049555226L945.0232893993783,625.1893942450126L944.3511947660892,625.873427962992L944.0773182923974,626.937806053915L944.1227017615414,627.1477849670838L944.2267330730897,627.3678960743155L944.4328537048851,627.8039728142071L945.3247460911864,629.6903346595216L945.5013195663173,629.8447342130519L945.9148689214214,629.9809057823252L945.9235087830814,629.9837503424359L946.1333673076408,630.052839304448L946.853130825052,629.9139636067189L947.688030090953,629.9335953945645L948.3318104267933,630.4236269320689L948.4173259224965,630.5996775581596L948.3192665446211,631.2455631066997L948.0302072283507,632.0326026021792L948.6759202650614,632.3286934913347L949.4346813840796,633.0276474900023L950.1347448741344,633.9941457796311L950.7270241620215,634.4063260823359L952.7809042420961,635.7977003336971L953.5045280146089,635.6544249745316L953.6219337847556,635.5106230844784L953.6084482126528,635.317843843301L953.7254178179046,635.2788140817421L954.1954732250822,635.4862387969041L954.3865256693409,635.7364103363288L954.797369446112,637.2537754284741L954.9457433121181,638.8864667426409L954.9584080322453,639.1127388433902L954.8819646215194,639.5690377094434L954.4019974974506,640.2185752005186L954.296740020446,640.2607003270193L954.3808348865405,641.2469474558409L954.5761382712401,643.0006702783332L954.7555209341936,643.5812338314876L954.8845732316792,643.6033909724026L954.9186000720135,643.7598901559227L954.8875761535223,643.8158479892082L954.6168416976086,644.3041290830238L954.08465697574,645.2637242739108L953.7416120126342,645.6636707524358L954.0570853726838,646.9789990635466L954.7251284127315,648.9719386251596L955.1730409395818,649.6349878835799L955.1481905241384,650.055364388627L955.0152386526047,650.5983122566402L954.7269565093229,651.7752751615052L953.4718668819626,652.6226651892664L952.4775885609779,653.0058266311103L952.0228619762009,653.1810005835308L951.7347432417773,652.8714096201903L950.7176387527968,652.9418698271215L950.6233877124936,652.9484067255861L950.0225427812281,652.8660371511338L949.8126730053924,652.6827660935448L949.6799272898603,652.4398695624757L949.4337589320469,652.2901480772746L948.6107223886438,652.5108948591876L948.536629267345,652.7002367137613L948.6303744016327,652.9081895865309L948.7534530291873,653.0259041183089L948.8159521000603,653.2443293209135L948.8807671988877,653.6982375982548L949.1760016916307,655.7637960853217L948.8149785133821,656.4674205492686L948.5749215575863,656.5189431336862L948.5445464704574,656.1915336183536L948.4675211924198,656.1386508545188L948.1550479558514,656.5945633042398L948.3532923687715,657.5041187733133L948.6519342307699,657.6851026116545L949.3948509477185,657.5289271076829L950.4726978978135,658.4124151792048L951.043572765511,658.7840205394931L951.5549193534714,658.9114448686918L951.9419183258605,658.9156145209988L952.177543098954,658.7462341558646L952.1779177510182,658.7459648223028L952.4029888229313,658.8759154996131L952.4961074222451,659.1022729971801L952.5774760315749,659.7206946123679L952.6433031286941,660.2209579478633L952.5736098852262,660.876858458333L951.8329236617335,661.289191413936L951.0971434045299,661.4953920358196L950.4278905002025,662.4379479993011L950.7397226946305,663.3551717043047L950.8455095054014,663.6662903081394L951.9242467371266,664.8365972069518L952.1032278121991,664.8399518268096L952.3021442949018,664.7154442600521L952.4098010969306,664.4775970004029L952.5716661005029,664.3576956370416L953.4013278714676,664.2766779506666L953.8169220185213,664.4147476768436L954.4122292006514,664.4122447396296L954.9243963878249,664.0467806813303L956.0592038980069,664.5732214690986L956.6846311137517,665.0575085954972L956.8551434819004,665.5073263604984L957.0694929654079,665.5856521307438L957.8982531768894,665.3803614449818L959.3122007114664,664.9053343684093L959.8077287635779,664.3805379055368L960.411634582061,664.2981262149497L961.178801379802,664.1933524429412L961.2090122327575,664.2015069963206L962.25935249036,664.4849182624178L962.4094842968509,664.6372387327912L962.5350702416567,665.2570199591387L962.9680572432093,666.5535015186094L963.184462500287,666.9301755740387L963.1909361386706,667.2907205282006L962.8980642449023,668.3869718847352L962.9987260780676,669.9017751923261L963.2260181460358,670.5921207645413L963.6036919762485,670.7225909149786L963.6821835494185,670.7497030995722L963.8865042906971,670.7390565102545L964.151374613517,670.9802102268479L964.1934667121016,671.1363541225896L964.1440933167192,673.0506631734218L964.1439143168108,673.0575978141796L964.1145666046934,674.1940168145481L964.1305340320998,674.4784643706234L964.1569088350642,674.9483150900578L964.3736937107861,676.5174225627088L964.5843688127684,676.9723459953686L965.2642148822331,677.6032922337506L965.4047851973255,677.6204400371332L965.8033752136944,677.4558642387758L966.4658817155769,677.7347038366864L967.4226459100821,679.0955225141886L967.571913016104,679.93175623401L967.7539594264315,680.6246237565026L967.8768910643614,680.8805749873568L968.0374027713706,681.0672109424858L968.424454689944,681.2299248462641L968.1696482501507,682.4253372222045L967.1981847059582,684.1035846556703L966.7841940459773,684.8093986037956L965.7842736135791,685.8215737193166L965.5379053009972,686.4376980124957L965.5867421174593,686.7410533350418L966.5062460929037,686.9278121897698L966.6221836191216,687.1410322192735L966.7080957112003,687.5818287214822L966.7071551930067,687.6344056170236L966.7056053102976,687.7210406467316L966.6802276672183,689.1384301987052L966.4011828722082,690.433413518211L966.116339954659,691.0524583173838L965.8516875130997,691.2502338720027L965.2332251913595,691.4849601453789L965.0146596066429,691.4617657121993L964.6000290797538,691.2426958501085L964.1517947241432,691.4730195989594L963.020956218601,692.7240763185878L962.8616072456234,692.9878989270616L962.8074817402203,693.4233281801514L962.755650428238,693.460509363959L962.627025541633,693.552775137923L961.2453268212664,694.017342523068L960.812520455283,694.0319179491609L960.3428142782828,693.850953572494L960.1779301005898,693.8741405462259L959.2604665702527,695.2735250076903L959.4196785735014,695.5720159911933L959.6237252644742,695.7037466436362L959.851058620814,695.615293141816L960.1302316975318,695.576410786771L960.4658790422675,696.000040671672L960.4731175835345,696.1044660983681L960.3252671400244,696.9275237167203L960.0868687361674,697.2742834287191L960.0841402156107,697.5338572517237L960.2740887766656,697.9691723501738L960.3872846245451,698.147957556887L961.4092005015993,698.9086610302847L961.9139993428818,698.9736901024389L961.9643361652492,699.0319047103285L962.5602711214837,699.7210146911198L962.9582180538794,700.5168801753673L962.8869650182653,701.3075680931298L962.722147676959,701.8755716057033L962.4662980465341,702.4061330844335L962.3354541683633,702.5283629697396L962.262658254094,702.5559386514356L962.0644755443975,702.6310068470465L961.7406413978656,702.7536538427262L961.1764826110532,702.8865527427429L960.8651017442064,703.1455235617161L960.550157312352,703.7976003971511L960.6658338574002,704.2328612924559L960.6959983902022,704.7209519723535L960.2169549453665,705.4814500085445L960.1936241915977,705.5184835539529L959.7048322769949,705.7354565529762L959.8027669068886,706.1951685991299L960.3951653604663,706.963001110787L961.0624550531568,707.1926979916095L961.6245501313695,707.1380657121022L961.7693492641645,707.2136143315231L962.0360027614953,707.6461118276999L962.4913203346972,709.1118194609181L961.9841102629733,709.9530797923451L961.6591639326084,711.0185846734407L961.5256443650148,711.6038663569282L961.3763170093594,711.7427482815551L960.8718135506298,711.9023999785798L960.2852612724503,712.6089435522771L960.288427238942,712.8771783472331L960.7801402811239,713.3098725569506L960.8268383618433,713.5907162216436L960.7568725948487,713.8096384523982L960.5948554068387,713.9339156543342L960.4542934829904,713.920313250767L960.2985404096204,713.7988204546259L960.1967260062535,713.4517087844126L959.8962102078923,713.3131516948879L959.648562824139,713.3770263231609L957.8490256108282,715.3784194459043L957.7984563555226,715.7088455739902L957.8285157775235,716.0298925665606L958.0259464151575,716.3586467777742L958.4171419623453,717.6861016394427L958.4893967756975,717.9662963527409L958.4998554937281,718.0068525903165L958.6350999060398,718.5312662139514L958.400443267087,718.7266683688006L957.9089673034034,718.6869823538802L957.8528410675628,718.772644063021L957.8779846593687,718.9110315913409L958.0673871024385,719.1550774166126L958.3509763347452,719.520447374686L958.7606838718224,719.3321928238254L959.6797516510155,719.7702862673596L960.0180707004454,720.4609501031118L960.0663009903416,720.7816581441634L959.9096255374125,721.0079339853919L959.0824453345158,721.0538730038211L958.3837107445565,721.2698852264638L958.3584422942663,721.4080728746073L958.6344000695703,721.8598459669714L958.7979313267308,723.1489823242783L958.0913568388908,723.8560770635409L957.784317721019,723.9030875544704L957.6773457648997,724.0389935371954L957.4282292467448,724.6404799174179L957.4049662770548,725.7559980220724L957.4154504669697,725.8525372707069L957.9678153779937,726.8187317066727L958.1275079269706,726.8271629941408L958.299937181849,726.6283905322664L958.3319218660743,726.4196765249135L958.4177985448916,726.3709099722658L958.5513567962355,726.5056914757129L958.5962806105493,726.7051087443031L958.316593168513,727.8150279220763L958.185513099111,728.0501077850158L957.5484341583494,728.4878356662055L957.1865661153025,728.5381286835315L957.0861531999542,728.7766756499357L957.1785459004875,729.1951657383952L957.450660186932,729.4801525042385L957.7388973630437,729.6575149944198L957.8149570646027,729.9183550640347L957.6488260767671,730.3073434980165L957.624657129363,730.3639301820026L957.5308066132242,730.464027401071L957.2954407032669,730.4843658730712L957.0174082787464,730.3945270595946L956.6830286829805,729.938681501398L956.4371914399326,729.9752248490929L956.2919287795143,730.293820665732L956.191340269205,730.5144171262165L956.2262649861432,731.4079453572003L955.9167804548481,731.5346085168437L955.7825684113122,731.3503698729875L955.1227972959593,730.4445207201952L954.0648941484419,730.3580405775122L953.8438056272471,730.4708100110452L953.7926569221606,731.132747150099L954.418636671131,731.9308355786804L954.4158347012933,732.1140452962958L953.702682220456,733.6402162185809L953.5630243328203,733.8097289617251L952.9300023209446,734.3095199395104L952.4336794630271,734.2621376467512L952.3628678159721,734.3487175678954L952.3155046163604,734.4066260537525L952.4123231000096,735.1869863511492L952.8548529221216,735.2420115446844L953.0203809737857,735.3902803468902L953.048368198637,735.5131066310037L952.9158511581405,736.7380184619303L952.6638340172317,738.1429052294311L951.8169241655135,739.0902352949907L951.7136413500714,739.7872416646105L951.625142347159,739.9102772294627L950.2299987688102,739.6716522680722L949.7541687915957,739.8682660417455L949.5126952024373,740.699507119652L949.0149648180605,741.7116310618749L948.9949148418779,741.732745797643L948.5590706298749,742.1916924059666L948.3312338206372,742.2110045809217L948.232823983032,742.6504349210363L948.4227484097514,743.7514263324509L948.4308756083424,743.7985351503751L948.9095403626297,744.4444633158982L949.4821764359851,744.3582346247429L949.6718646986183,744.2359500139474L949.8384750482603,744.2867773994406L949.969638765354,744.4414862991873L950.0937121123858,744.8306319862797L949.9769888377601,745.0531451081895L949.2934124084085,745.2372118650661L948.7751704284153,745.6735424565499L948.6021151881137,746.4931594159395L948.2105741538091,747.3110031935769L947.7800642547691,748.0107631117619L947.7872041663552,748.0266487110641L947.8769953227327,748.2264198814961L947.939977816191,748.3665401444929L948.8881896703338,749.9792734200591L949.5783153280238,749.7845562947884L949.7847568158921,749.8478671698617L949.9471324627032,751.7477241813825L949.6499329302503,752.5096133130495L949.3452335108614,752.7172481297173L949.2749133604475,753.2290673924864L949.4077269107217,753.3527162271064L950.7238468742986,754.1008036884232L951.276220352999,754.3317983259478L951.3682201127468,754.3184880563922L951.4430169246932,754.3048221617586L951.5057916797839,754.3005116701954L951.5507745928321,754.3146545097654L951.6158938841004,754.3444754207851L951.6627519364858,754.3840809936328L951.7137171118636,754.4834609192003L951.7127617427459,754.5608157524616L951.6909379271827,754.6501828225487L951.7092068598961,754.8011192959968L951.958295314522,754.9750974397919L952.4602045503068,754.9247120177803L952.6172312627768,754.835760298284L952.9459169903112,754.4189952176422L953.0925319455769,754.3629972456914L953.3105235544479,754.4165599768014L953.642382351115,754.7646013303993L953.8225079946434,755.4176130370384L953.7472673002562,755.8848749450603L954.3519039031025,755.9170124844604L955.1104471702354,756.0360503251655L956.4508213590241,756.6958595808233L956.6598920899589,757.4757261861555L956.6401220108908,757.6499729017662L956.5396281972387,757.9265879085829L956.2117459753772,758.4019291650272L956.1657540407716,758.5221937506552L956.449645071018,758.6351075579012L956.9703603509745,758.6887260862509L957.1491309271728,758.5201450721784L957.1830106829441,758.1121223016997L957.2974847094858,757.8582424763736L957.4281895016122,757.7242315056001L957.6057821954946,757.7629056716396L958.451519139399,758.8549852010492L959.0461799988934,759.63310442976L959.024492667942,759.7126187478551L958.7185049790096,759.784652907818L958.6082180086412,759.932812705022L958.6511027771935,760.6596766671598L958.7437520077397,760.7624594747049L959.1263381929177,760.7279226687724L960.2568657799734,760.0443556407772L960.6490538542386,760.0363665327425L960.8230549874893,760.1335927386069L961.4469583502755,760.9953966435589L961.5205195667877,761.5484306919535L961.4751269218509,762.0773439146888L961.4742894390897,762.0871011390097L961.4605435042349,762.2472446677184L961.553498229667,762.5217180348304L962.1104514902656,762.9785654448295L963.0052243129755,763.3180712498697L964.4372098286946,765.0524089623497L964.5941617698381,765.5177162434875L964.5755499948287,765.7338291863583L964.554938083774,765.9731443447124L964.5013622182739,766.4265224211206L964.2825292430242,766.7853526277897L963.9688629284533,766.9988853572061L963.6209100286449,767.125509547491L963.0995645800906,767.1936166814647L962.7763158594355,767.4414075110606L962.7114361248708,767.7842522461654L962.9816139885768,768.5706176695712L963.2447806361115,768.7990540811691L963.5231682471193,768.7237931823204L963.9047961192593,768.1425861551054L964.2326171443146,767.809876102641L964.5293452638855,767.6229629197256L965.0112937595368,767.6656225030838L965.5085982784624,768.0000378381019L966.2035808120203,769.2708456558914L966.8940336593537,771.082781304933L966.903089112486,771.3170008171587L966.7796135504136,771.6880408762754L966.7992653544048,771.7558781588743L966.8457035539166,771.9161772793555L966.998382505913,772.0262942184239L967.3960732045541,772.1490956250179L967.6713088451693,772.4565142946526L967.7046151035116,772.7467706213245L967.608488451918,772.9766918520563L967.5687270107355,773.2955459256727L967.6626874163044,773.5276998665156L968.1989340032833,773.9083365983016L968.810854357657,774.0290074115842L968.9250745126972,774.2021424700688L968.9252896137026,774.4544617786505L968.7003697632881,774.8299207060945L967.4685407849367,776.6903107628573L967.4434499751391,776.7281927550038L967.5329227223593,777.1859172010892L967.7067813772085,777.3675203543978L967.929336522667,777.4441678365697L968.4041175200032,777.3983189137837L968.7100630539759,777.327020941022L969.2983854157135,777.2708120479683L970.0589170022704,777.3032593248797L970.2615349358346,777.3399001279736L970.3772615273801,778.979807380371L970.4151396634772,780.8291792416188L970.415145948271,780.8294862280837L970.2247574656595,781.8685437357842L970.3586415745463,782.3855945310424L970.3638158500395,782.4055761509178L970.2788551683608,782.7825985441168L970.2776935811335,782.7877529050722L970.2583097518976,782.7988450730007L968.9591203903799,783.5420932551509L968.9574843770774,783.5458394199754L968.7242030895543,784.0799664015362L969.1439076931933,784.8776606752388L969.9838576709033,785.1761907599719L970.5018388325553,785.0037121175278L970.7626128777122,785.2499144740063L971.3520809765637,786.2424696491428L971.2559838910709,786.3105376910551L971.2087875522745,786.6592573232272L970.9740997533677,787.2511506531109L970.919287719671,787.646581465923L970.891541055958,787.8467334455638L971.0214085504915,788.4017024795477L971.2609973003965,788.6282544706612L971.6687852941607,788.663932296487L971.8478728394575,788.6116350710934L971.939745209818,788.4716976896566L971.9662343273599,788.2743679698619L972.3831874797129,788.3449093389204L972.7436390294845,788.3780936109166L973.6177040349473,787.9710684406789L974.4213924092294,788.1788922936273L974.6912548082946,788.242590672414L975,788.1877204620127L973.2746802473807,789.0970159231964L972.562097562671,789.644809570216L971.3583477068238,790.2602809633293L970.9583006153708,790.3574019179937L970.6823218662809,790.3603960250653L969.6092687237303,790.371928217055L968.0937765833387,790.0286354817963L967.520041152997,789.7317545685938L967.4871263382962,789.7053489364046L967.4109841007969,789.6442632070257L967.134623701254,789.4225360200885L966.1271843783455,788.1979099998957L965.886596658933,787.7649064915292L965.6894474039907,787.1057388490148L965.4002122282543,786.4556522528567L964.7754485559169,785.5640883756578L964.2862915009043,785.0790389620076L963.9046393583308,784.7816194195582L963.0643787625952,784.3345214242729L962.652737291284,784.2399627879878L961.6875335309346,784.018135002528L961.6872897621911,784.0180789589763L960.5630195562559,784.1252030457242L959.3238435086168,784.6394058931905L958.7706767895454,785.0436690144616L957.3795700863685,786.4911057290291L956.5586947177112,786.9622998730952L955.9570512793523,787.1387648307106L955.5512506570152,787.1787225107903L955.0212772498858,787.2308690508344L954.6682693602202,787.1887210353811L954.3332239945655,787.1486997885008L953.9961890981688,787.0231788267511L953.8673420107416,786.9453477688976L952.0941761186325,785.8738490231149L951.7762123718244,785.316730409316L951.6116971042151,784.9154123601153L951.2750196762909,784.094003930491L951.2749517081797,784.0938380892967L951.0466524745948,783.3117031743973L950.9540155905836,782.8058776283226L950.9415020959797,782.6173729057448L950.861115204926,781.406389448592L950.85943114805,781.400182223689L950.5230364779704,780.1601158644394L950.1342194269325,779.4485635315546L949.37275289798,778.5362336088654L948.775242225046,778.0268074451246L948.7654282389024,778.0184392632418L948.4988731049988,777.8553420280352L947.3713354345787,777.1652444291328L945.1580856957395,776.4312524722641L944.4466631817367,775.9862968640564L943.8590014818506,775.4352507839948L942.2684674400892,773.4127592358118L941.02663345054,771.9588834306271L940.616384799069,771.2452378608589L940.3545789042923,770.5157045267465L940.2103166567574,769.393324437806L940.2098554070075,768.9465422459837L940.3865827091643,768.156714750688L940.6226070473949,767.5630298759008L941.7878840331787,765.3887872116893L942.2688286253314,764.5979112839711L942.6849988513004,764.221551606834L942.8250166947262,763.8859440413273L942.877022398969,763.2961142033951L942.8824090715198,763.2350124863733L942.8435017138995,762.8433577947045L942.7583390571231,762.672777281264L942.2733726983339,762.1807340793705L941.443874754541,761.7341529851234L937.5598948305552,760.6728607260945L936.6277616712575,760.6866599426749L935.8032357842537,760.8342549855947L935.2030441332304,760.9416249848193L934.9058367601986,761.044892103881L934.6879955843586,761.2935848164329L933.1127029579432,761.8027478603661L931.3369328354771,761.7473704452461L930.9853209624798,761.6754384527153L929.5057031623314,761.3725208986357L929.4220826106096,761.3553908812994L928.7094628030211,761.0232162949972L928.4127222137336,760.7840352477162L928.236389881303,760.3725250924824L928.3503885261048,758.29910399251L928.2241055940378,756.922053222547L928.0086544355283,755.860008783141L927.3792007788732,754.98408117644L927.3786230100376,754.9832770633844L926.489520829733,754.6584161115995L925.6875399484383,754.4755166246903L924.891972327931,754.4556065871025L924.4193676126628,754.4437335020763L922.649712412484,753.946619899308L921.8010710606,753.4877621686597L920.4306123394956,752.5927143059253L918.853515057247,752.1308052520053L917.0876026569117,752.0510797371353L915.5740813197409,751.2893646013865L915.4408300313767,751.2222792189339L914.7667489968458,750.882854609569L914.5062985573973,750.7516821031596L912.8229156460219,751.2613990796525L912.3778375173197,751.4777531513462L911.6592618735401,752.185413331627L910.876979317636,752.7481295234993L910.3553775984814,753.0977101983666L909.4053876670138,753.5157227742629L908.5398158159907,753.6185084963347L907.8197158516207,753.5501597780326L907.5672865793349,753.4290550402375L907.3928392797236,753.1308859860395L907.2582948969404,752.7850601027928L907.2120978635186,752.3507282059136L907.5862703844172,751.0332718005101L907.6790227831191,750.7066108696322L907.6877731221693,750.5640187818608L907.7054873514971,750.2753262301513L907.6439220301147,750.0176139422399L906.5462087457995,747.7577638739713L905.6984330137348,747.1209976033531L905.2084942496958,746.8497005608917L904.8200184842367,746.7945611893217L903.5068061757738,747.0582496352865L902.2403469902956,746.9777208806165L900.6166189267865,746.8741153133712L899.482834626705,746.8015321102301L898.8039813663128,746.6242737081886L898.402405246381,746.2750414455809L895.9960126017536,745.6905997014352L894.3037308357837,745.4512210295513L893.5226137623408,745.4782984128859L892.5959824621643,745.6869577258702L891.8483384668964,745.9608178831093L890.5261082211152,746.1624359324659L889.9044188141183,746.1406355927428L889.8821071377915,746.139852109818L888.5940369596419,746.2684974307098L886.1115989206357,745.9822033092415L885.6958266611468,745.5695310432029L885.6691080177707,745.5169769267283L885.322521224047,744.8351938020492L885.321208915044,744.7944878796799L885.311384948742,744.4897698136647L885.138770968084,744.0798746223496L884.7168124228529,743.5467065498349L884.2773433835671,742.9913136493304L883.4546946224008,742.1103554799931L882.2188650252165,741.4724343369192L881.7671146521036,741.2391628148124L881.3701340083414,741.1208397516249L880.7259444395302,741.0154734229984L879.9250774556317,741.0099136186427L878.7742701007901,740.8030016560996L877.1696113287745,740.7846685209204L876.6246631637216,740.6422045170659L875.9248800631689,740.2068947125315L875.7210702898526,739.9821355673976L875.6229109006659,739.7942071907007L875.5203976198923,739.5979331411382L875.3423804214809,738.3926686187415L875.1776522975442,737.9194074650613L874.7861936721181,737.1261564226108L874.7465459807222,736.9602159572611L874.7141382222626,736.8245731257049L874.7108587780049,736.551227585638L874.6856179779479,734.4492572295354L874.4870825045241,734.0640144658705L872.8034819762456,733.225641596996L872.0471579953758,732.9614315521673L870.6958032203286,732.6553780335701L870.5674713152298,732.6601150331364L870.5673080440292,732.6601210582126L870.2962430272703,732.6701183785888L869.6901961088647,732.9629299043603L869.5425699454051,732.9954729160221L868.4855351350575,733.2283837882877L868.3101088006525,733.2670201986356L867.2012400982894,733.1293163782427L866.9699129660327,733.1005649723666L866.9663391779025,733.1001207242946L866.4169007117249,733.0317977138016L865.8550642345288,732.9618841363975L865.5559425654308,732.924641999668L864.1125443346882,731.4595604058147L863.9402994491256,731.2846726096263L863.3495762680375,730.9865036565502L863.3372523272126,730.9895126319382L863.081707792642,731.0518999118692L862.8172874067509,731.3194985589596L861.973775181443,731.8042954723489L861.1904094198646,732.0601132091595L860.9617833320292,732.1933990880116L860.8903381076242,732.2834936722941L860.7093812991359,732.5116728387598L860.6906534752559,732.525718899614L860.441158179344,732.7128331527135L859.7833667705941,733.0220198283803L859.1666894057439,733.2124438088647L856.8885444345224,733.5182821096082L856.6100908623679,733.4811632385812L855.9403006100422,733.0923315248523L855.726257901161,732.9680515689479L854.8513734340166,732.2371486273371L854.6621929698141,731.8722053427315L852.522480772243,732.148421581194L852.5222324184815,732.1484535998599L851.8529345512071,732.0848185261871L851.1871046729506,731.6243231074203L850.7000053961988,731.5509865458444L850.073611910777,731.7517784536717L849.6332596747432,732.0191917798481L848.9142841367135,732.8660327978725L848.704849641264,733.3788293172377L848.6622123027093,733.6471658213047L847.9108737391525,734.5579843930102L847.0592014257904,735.3576121137971L846.6731998053127,735.5288594754766L845.4427223795002,735.6237305509042L844.9112394539106,735.5003476969384L844.6015192455385,735.2808389895474L844.233695033775,735.1547656749124L843.1191762727606,734.9954218998328L841.6525318989438,735.0841030920724L841.3286330012459,735.1036434284637L840.499927427044,734.9327285690275L839.8958375346226,734.6906690208045L839.5228545265893,734.3753207627789L839.3491450165741,734.0399496911114L838.7773608856778,733.855541563074L837.4371617323379,734.7289204491661L836.1296869469794,735.2123924772404L835.4875135582549,735.4497365893765L833.5628671080423,735.9014455234731L831.7675207853567,736.0735119619857L830.1781448216993,735.7960495261797L827.9809568425526,735.1940703218611L827.0465811501216,734.833573300552L826.5636319613066,734.5590262231775L826.4684900969626,734.5049335708494L825.4663924725755,734.5482653590149L824.4276858271076,734.9008162433894L822.5867640536715,735.8680522615355L821.211133652452,736.5903340353932L819.8504493621258,737.1633847611038L818.562699652381,737.497538793835L816.2998375370963,737.7084635921271L814.48017492965,737.564088142369L812.0325553535487,737.0610249342855L812.0045954212915,737.0597399511554L808.294096370543,736.8881525148879L807.8673784276259,736.9900579028521L806.5058969227275,737.0388253401748L805.2895632502143,736.9808203291258L804.6717511483401,736.7958919112436L803.517356551763,736.4501702990799L801.8773516150964,735.7382122809436L801.43580314062,735.6156995716162L799.8896804661265,735.186445818157L798.758619731291,734.2594120587189L798.4137971645533,734.0598529182328L797.7074005222,734.0924663460594L796.3342935477165,734.3350222974171L794.7753819439969,734.8546728421278L793.8291949497127,735.27710965299L793.0418124223346,735.7860438081627L792.6592846647195,736.0332380237473L792.4856569532585,736.7778507550034L792.513208203045,737.0712084384841L792.6849598686376,737.4645069789788L792.6798667970402,737.90416509442L792.3211184142488,738.6097889913422L792.2713993164896,740.0209634120997L791.7194705506801,741.6054078531497L791.3263924666649,743.151563689361L791.1332451363485,743.5241103080156L790.6419263592527,744.1299949179754L789.5982758560986,746.0316913530394L789.415183421808,746.365200264901L788.9482861456092,747.0605479284354L788.1171653825268,747.9498156863144L787.4443315329654,748.2430621007886L787.2109211970421,748.5493464999486L786.0815646382875,750.030848827378L785.6313021044313,750.46750868768L784.0005660805573,751.5830343950583L783.5873833495928,751.6994891078737L783.5844443910071,751.6997719995347L782.5225636679658,751.8018971112947L780.5738925751425,751.6784554723622L778.746764859621,752.5757528722302L777.7814397091847,752.9325619793469L777.5087775300094,752.9427177047494L777.1020090821642,752.8060838092983L776.2033169426318,753.1620651660284L775.6805050860391,753.1649391153062L773.4451843914286,752.9527725799892L773.1748237019498,752.7053118839509L772.5523758276955,752.4600232207524L772.2132354600267,752.3526507132551L771.984181327846,752.3289877225286L771.864865269052,752.3166582703403L771.3423629907104,752.2626398501561L770.7041086132601,751.946314377808L770.2891978116188,751.6243291327266L770.0762758355058,750.7506297740258L769.8471689575215,750.2210906514974L769.2634655383047,749.6252225891945L767.2766444642318,748.0746884175553L766.6383996789675,747.8542660728575L765.7716706860908,747.2901055902535L764.4460696480046,745.7831863703382L764.0587588936673,745.4314135225259L761.5256866307786,743.9167240594743L761.3251543246513,743.737307261764L761.1997767491787,743.5350003733608L760.141570630521,741.827020608669L758.9698706272457,740.6659052828807L758.8281845968098,740.6391611510314L758.2091971508949,740.8247961880093L756.9532567990102,741.2012496814416L756.423781059395,741.2590572894085L755.9752083217775,741.2444040007358L754.5331653564946,740.8298753083984L753.9840198264321,740.6719236389306L753.621481205783,740.5676174151304L751.7508940249483,739.7518949674974L750.0757487265175,738.8930141650649L749.8015776122036,738.7523830013154L749.237652614347,738.371604026705L748.9392396374619,738.0050481065001L748.4319951563981,737.6027131252864L748.2436239530984,737.4532812666234L746.3408018329138,736.2904015981117L745.9465663774552,735.7189703366741L745.692571521784,735.5616083974421L744.8776490120534,735.325692056021L743.6234040694869,735.4128901593192L742.1685068196618,735.3232035545736L739.9636446873752,734.5430273877507L738.4166152212046,734.1741088749716L737.1916131405271,733.8817006051889L736.3891304814766,733.5773128950684L735.904445684426,733.2646401396015L735.5483820286637,732.9270800954775L735.4084375325239,732.7567582434973L735.0910100203891,732.067113920747L734.8114167287158,731.7189753228683L734.242971819736,731.2143328452294L733.7559487882913,730.9086106023037L733.4737087460716,730.7659719569896L732.2570946381098,730.150921966073L730.3871719387428,729.4004008409003L730.0701902363446,729.2731087369663L728.6599346036369,728.4255568192611L727.0376094449913,727.7920209070207L725.958147704618,727.2708376549219L724.3162436651851,726.2776414548955L723.6256025753876,726.2713346657657L723.5392475699764,726.289517824644L723.0513188073827,726.392234690573L722.6207404315214,726.7939777538134L722.2796508799229,726.9473441550117L721.97517207786,726.9913291683753L721.4218310975001,726.8320601175622L721.2005726334469,726.6052714960085L721.0273504786837,725.8466395603706L720.8629583486052,725.6293242850065L720.365573740375,725.3127271284626L719.5546943382064,724.4925912980566L719.1562035607255,724.3269511758599L718.4665614986242,723.8434148790207L718.4321596541597,723.8192909308386L718.2569809088234,723.5135720515708L716.9052258980125,721.1536108915221L715.388158695349,718.7551518390334L714.6783089831782,717.0650884535735L714.2717934582774,715.2897683296919L708.4947983033096,715.4954536930796L706.0159746629216,715.5821477382033L705.5356320104194,715.5739835776188L696.0357542057212,715.8783253956972L693.7718182990154,715.9488196095886L693.6976038676323,715.9461120435011L693.5353818205526,715.9401907604597L688.6081504850379,716.1010644706089L684.0051079439132,716.2480027113575L681.5271190000309,716.3203257379496L681.2761184442355,716.327599179478L676.692427948085,716.4669550424891L673.875896529978,716.5307139636278L673.8536794286479,716.5313797873065L669.3324719432037,716.6653070598184L666.2421554471135,716.7550522683523L664.4470266688959,716.8065145433154L664.0477162503762,716.7852888231407L662.0637912173038,716.8456222242394L662.0516284686503,716.8460934649308L659.1495649903403,716.913189207814L656.7318130376506,716.9681059511206L651.9780233969686,717.0825193566728L649.79228889268,717.1201822148239L649.3034080390439,717.1285064541444L649.2553577071271,717.151344242688L644.5097967182528,717.2444443855983L642.0894212713146,717.2906046383384L641.8576144002938,717.307357402035L639.8037436634892,717.3509201157668L635.1425927398469,717.4473946831802L634.7589377465592,717.4201561158577L633.2573370380104,717.4787896702113L632.3498064528794,717.4825683997623L631.9848226879894,717.4840526734879L627.7877412838724,717.6282455764026L627.7659839332058,717.628538984223L622.911821391577,717.6921939160527L620.4492963557076,717.7623233713996L620.4297644691069,717.76237852563L619.4043204437902,717.765192444203L616.2585980983163,717.8358321201987L608.9023999680182,717.9515199093446L607.8811121179068,717.9735002424496L606.2520104067584,718.0082325217154L605.9425593501896,718.021239564682L605.5518905363034,718.0353747027807L602.9065086876058,718.0566864958191L593.4958182208866,718.2326332425204L593.1008822777732,718.2189141732765L591.0806170425461,718.23687174889L590.6473935657909,718.2471451322235L585.7096396600776,718.3269710462092L585.545007524178,718.3295684708692L581.3348792897249,718.3906794062157L571.0092212882334,718.5236935059501L568.8243391774218,718.5497537154249L565.195597562544,718.5914262691659L564.9206891499744,718.5748088816198L562.7187733854194,718.6124928667216L561.7735445897632,718.6227059121165L559.7429368336575,718.6382351161187L556.5898140573595,718.6302039420166L556.3049302514651,718.6348247588753L554.1404764457568,718.6695277152818L552.6428644307987,718.6892748944538L552.2674195751166,718.6766749668155L551.5165044242573,718.6632983520601L549.9649215789391,718.7064655576124L546.4774865419342,718.7025070064335L546.4662192139843,718.7024912102884L546.3726210606296,718.7058590421226L545.2359294342322,718.7466524017111L544.0012583368073,718.7327035432393L543.0310322950739,718.7391942371721L541.5460197152065,718.7506964482784L537.9757406759875,718.7769734600638L536.8276014214923,718.7740735504248L533.9999564264576,718.7601165178152L533.9366112103206,718.7595989345077L532.6594489926556,718.7586802235616L532.4383609959785,718.7593937634164L527.2502169462628,718.773997511685L526.7886652731356,718.7750479245353L524.3864356909921,718.7799902837648L523.5699560612801,718.7828491625999L513.0244078958665,718.7679969985159L512.1388685523888,718.7661762494258L512.0806193365914,718.7661170491256L512.0787563769934,718.7661265959414L503.19847055380035,718.8056178399572L503.19838964956074,718.805618144949L503.1957427633787,718.8056281224624L493.33946636777694,718.7811178909642L492.6042289481557,718.7645747918272L484.42764756262454,718.755259261183L483.70010503934986,718.75013197619L476.50243804790205,718.6843701233946L469.12772172528724,718.6087928045417L461.47795029317535,718.6147197853148L460.2751468756527,718.6453032271803L459.14327823407774,718.6509717397194L450.1659392798188,718.6126033005579L449.38113572370503,718.6901826362138L444.4689448313017,718.6457085827898L434.9554804857317,718.5491069151017L427.53875907190485,718.464217448418L422.5978746921867,718.4030078345938L420.10369667687394,718.3706942756002L417.5663366528447,718.4047919225218L415.2296675362726,718.3701869274818L415.20459440388794,718.3699396093394L415.1935549683275,718.3698306873652L408.81500861830716,718.3037870208442L408.0943215776026,718.2785273408767L408.0918364135812,718.2784400999295L403.5906021688101,718.2744759570405L398.28681027773035,718.1215697833541L386.15929213793686,717.9281298437459L375.5189747194596,717.7399272594573L375.4743804111266,717.7399317074805L375.3189223153496,717.7407829302327L375.18243780879845,717.7415272220352L375.04326061311485,717.7312397782753L350.69266571114605,717.3197054847981L342.10666451980273,717.1530204692862L341.5032141670184,717.1408821673361L339.78726245943176,717.1157154751497L325.98000406019935,716.8968611468505L315.0382401820925,716.5328622420151L315.00719931710086,716.5311435247856L314.99716239316064,716.5305877537122L298.1188101312423,715.5741490203272L269.26227702710963,714.6184025796942L269.25483581352455,714.6181397138818L235.50969842132258,713.3117382199115L234.9818327895327,713.2899196473511L229.17679702960936,713.047166016519L225.40438439238727,712.8866495848955L224.8352891791389,712.8622456148612L219.03127994280595,712.6246445637163L210.89598881405817,712.2556304281185L210.70359157339504,712.2467807928122L210.46441106435196,712.2357713857599L208.0199293380279,712.1227507784022L193.37399256510577,711.4264455568654L191.06056225732766,711.3134570358409L187.34645886509202,711.1303460377192L185.3455240375235,711.0308216866663L181.2312267119308,710.8242552436884L155.34675361739392,709.4303344486015L139.12898078984608,708.5046785434306L138.9783803652772,708.4962123172669L115.22373527990231,707.1292270958259L113.21511563250772,707.0096732536745L112.46898004646192,706.9678533492693L105.31387824655434,706.5624881411296L92.85924671331628,705.7944936852006L92.84450328321157,705.7935704582185L92.72904363342002,705.7862211799168L92.67886618912638,705.7831005372603L88.12047000699283,705.4947643657446L84.03517867132683,705.233645318882L83.95560937689004,705.2389649045947L78.83028319216044,704.9227126742564L74.55422492398571,704.5221109814313L66.84970144389229,704.0893974306516L54.611482139065686,703.2010388693578L54.40799528698835,703.2040317497322L48.866574823157066,702.8495980415615L40.86381578673604,702.3294195332625L35.75389210173802,701.8345510911679L32.68256909425719,701.6188549280803L25.000000000000057,701.2535813445357L28.440993023189606,652.3608081528862L28.528644804557928,651.1376877526701L28.577189687106625,649.898754329776L28.817945353213986,646.2614564911082L29.58691093896141,635.289116007875L29.58910369511119,635.2575730397404L30.031942871511262,628.88673774013L30.6271452111082,620.6451040337627L30.93438450014264,616.3898768227641L30.93736713614885,616.3467530759954L31.58128668975513,607.0356474827228L31.85768951310922,603.5415327083372L31.902678525786143,602.8435703874246L31.9047469730408,602.7861889333203L33.862648048957226,575.325190108891L33.90233016916562,574.7678333423681L34.03391899503271,572.8832435997474L35.111038850008754,557.4531317778717L35.1110506098895,557.4529632760093L36.167677048315056,543.5161813433274L36.20185813899889,543.2564019947049L38.70368618090896,509.2355555153777L39.187115885374965,502.6563167846489L39.91852391449015,491.0011042957063L40.698595536087055,479.9548444400927L41.27189898953583,471.8341007316827L43.0720375135528,446.32203631459197L43.07640480121057,446.2601171769214L43.388113711759786,441.9869452878844L43.72212842090141,437.37036772380924L44.568292511885545,425.6715993463176L45.17275779664055,417.3113764835758L45.18799951915548,416.88741622374573L45.285942979217,415.7916689786458L45.54984003377774,411.96671975953836L45.545833821762926,411.9165377653525L45.84999289503554,407.65724175169777L46.071966907040974,404.54843437738L46.07524552312333,404.50281286629365L47.19372130653102,388.05559400735604L47.35734474927091,386.7377272684931Z"></path></svg>