<svg id="SC" width="1000" height="1000"><path class="state" d="M25.000000000000057,231.72870818223177L25.427592467382908,231.15617849693496L26.212896722009248,230.89601684117227L26.470574498180156,230.5995719005546L26.310288438726445,230.34883599447775L26.27421677784821,230.29240742533318L25.897786022312744,229.6091911178599L25.71581334258815,228.41743655168835L25.646765971105594,228.12547195570983L25.448652024983517,227.75081352165031L25.448459304340872,227.72020972221105L25.429686441366925,224.73489040199837L25.511590441005524,224.56253266897818L26.377846695149856,222.73932322303463L28.41520085368404,221.6106522090172L32.2234153808663,217.6456247395662L32.096164640137715,216.26963545625918L32.38723079761422,214.29236425264546L31.78725368878321,210.4961601372361L31.78153996762859,210.4599960579735L33.85155131905708,208.11859329813646L35.85501124157622,207.6090865753794L36.35118466467145,207.2476717171291L36.6668401789189,206.3387824508998L36.54353652528141,205.69539650285304L35.860669777363626,205.58145011775215L35.38925939954305,204.62644010518503L36.11697414675797,203.72962946491353L36.61614578392067,203.77044121293156L36.91339506375061,204.04705545279427L36.691002579242195,204.58625265278312L37.44251226180012,205.12530841269782L37.721267794907305,205.0207315926524L37.72884153553093,204.51423606596674L38.63122673572343,204.00421480982598L38.49727614875707,202.93295638787828L38.75194682642979,202.47484193854336L39.73305583452759,202.8568445476523L40.040205967477846,203.2777855492157L41.4585443159952,204.39946583755543L42.3406083702734,204.06018558961537L42.96546878272238,203.3829732604669L43.24530778135511,200.69174718159425L42.263481333241884,200.1824758297526L43.073038552882736,197.87844630656988L43.528264847900175,196.8576638773247L44.64478669726009,197.06697073423945L44.64325860209385,197.72372838629144L45.45600864192721,198.08970870633445L45.921900375285304,198.06876580259413L46.62868344443484,198.0369574446884L47.02176014472849,197.6750789157648L46.032965071370086,197.16257181277092L46.31568233961133,195.88290141633232L46.19568475533151,195.29737564872366L47.431716229819415,195.56577456904222L47.59529123120751,194.3783854311744L47.29171376935744,193.63028828732396L47.58951754395099,192.71803425370854L48.25605770956588,192.97572628589256L49.15518884930941,193.1505056424837L49.330877830386555,192.34271838242933L49.967425880749886,191.92456359613774L48.86400752537213,191.40870144569806L48.39016461715437,190.2786086002507L48.95060447897703,189.97378808162512L49.82368913002915,190.2171549217987L50.49061680956828,190.20706294094288L51.12008840094893,189.79097687400707L51.344402965432266,189.85398506177953L52.88413455446653,190.2863486385349L54.249042771413656,189.22976333252913L54.93428372731887,189.85604997163406L55.72328879175171,189.92024939828053L56.63200392833505,188.88343659703668L56.0252205219316,187.51964960827678L56.295680464883674,186.7138391941139L57.4232757007054,186.4427375201924L58.00313466971511,185.80054050452623L58.856600332906,185.81143189171115L59.62503335080174,185.46280912022624L60.77804909713791,184.27787091787314L61.18894849248068,183.45169550329402L62.16772464744133,182.8574922172248L62.837509773885074,182.09432094771435L63.30584409010527,181.24496381322578L63.996772256686256,181.0407539433621L64.80693475348522,181.9565432588062L65.57778648506832,181.86286077965775L65.3720089529462,180.79414237966796L65.46470444318936,179.99113408041296L65.23603788855922,178.87117624942402L65.91947165119484,178.2411763248614L68.28820862498276,179.80488771740178L68.80362544169554,179.78713474352784L70.81875981906262,178.4345391922047L70.96202324589609,178.10267115703485L70.89622612310802,177.4305405462614L71.08473119991623,176.90641390619533L71.36821442038325,176.74832593502668L71.92187985923113,177.0231859829777L72.92176031762591,178.05161426581643L73.29568408469208,177.33675819412395L74.30904921531061,177.66771144499066L74.52887402165504,177.4050913688478L73.57895014315966,175.73490067893948L72.83303850423664,175.87759885142435L72.42526537248352,175.26748076557698L71.72050153830503,174.23481970458346L71.71339295244428,173.03728122868313L72.24373983686388,172.7102001822443L73.70344364491314,173.6945762681204L74.21928003447249,173.81521161274787L73.04986000817337,171.87976496791117L73.82701284962656,171.87022378984875L73.83156098836878,171.48861772537066L73.09411143221342,171.12575560169108L72.76819303000565,170.56977503006675L73.14063760721177,169.61499465485605L74.157966426354,168.4107514315927L74.06694849310952,167.88053031843435L74.8765493634985,167.98745706669519L75.06666149000421,167.8091189480773L74.85324405417316,167.06743850909925L75.02767850437289,166.69337290591608L75.26739415404387,166.79003402364805L75.6687608106875,167.0236081484167L76.10345928037782,166.61576494207765L75.8763187982226,166.31781941970246L76.31993537183462,165.77271210571837L76.92800648886754,165.5240716141111L76.73409240234173,164.92749729681088L77.16474275329432,164.65828663064963L77.62657802047329,164.38763865383453L77.0934875451365,163.95472541570007L76.67840903944074,163.77654823925195L76.8590479424139,163.36471907385663L76.81008547799428,162.89873032078066L75.72543930548596,162.04877209166324L86.03280877875306,159.08620836397853L93.3631698239538,156.97279587264887L95.39181684554973,156.38696168981295L97.11544737505136,155.8888846045711L117.21756910258512,150.4109852557179L134.43257126309152,145.59779279177832L138.73190181089672,144.24937634587587L139.62600383907085,144.14188351249902L140.03598183248153,144.39625975314488L140.04845890212545,144.4187474024817L140.50928734731588,144.65150080815744L140.93731519450944,145.19396043449785L140.69901731615005,146.24609883904674L140.6349222275275,146.38106337671644L140.3424437407018,146.9968977971351L140.17345456880457,147.3399558627662L140.1597465356851,147.7600322214326L140.0289930665395,148.08629956195648L139.7347056234974,148.60526886891364L140.60654000053944,149.2686893735771L141.09381004827276,149.17696106609156L142.0400073525753,148.99877621293922L143.1445271746192,148.3932042008986L144.45574897852435,148.4730840825223L145.15571321797268,148.11333691905776L145.74736822235593,147.22199550425182L145.7964346740298,146.68078432159808L146.13000737379843,146.04140234364831L146.72886796638602,145.9077076509608L147.6292288789511,146.1276618949816L148.29423224042682,145.88132030946633L148.79919064970812,145.12626766872938L149.7843598257037,144.28463890832256L150.04524529420797,143.94891839859434L150.0982723361019,143.2946462370109L150.21662035521234,142.9688890007002L150.61149534875187,142.46768751991806L151.30146103135598,142.4423065589637L151.8794117486895,142.71602469600413L152.87539041489634,142.82389694993793L154.48271910044411,142.0200540694836L154.82514355717262,141.67921959690528L155.47175265691794,141.44190411854117L155.80549459330655,141.0604225940288L156.029863991723,141.96023453687445L156.1011188061533,142.2658433571438L156.3151916538381,142.27110181989786L156.8746092975149,141.64047870839335L157.93770112384186,140.3297567670075L158.0384426100872,140.11519905698816L158.18266218973582,139.80803012695105L158.57859299959267,139.38902299556446L158.45510166637968,139.11341279210762L158.4422022844999,138.7906782612045L157.78318503699188,138.57225592640697L157.3007352821951,138.19005974209915L157.04764964439346,137.7817655584613L157.27179564237986,137.2798718237985L157.499711123029,136.86211989980023L158.43599072094315,136.74453567463894L158.6148240993307,136.63070183020756L158.676700073711,136.1503522358263L158.58689295027568,135.3657974004526L159.26293781330583,135.21658493900753L159.7013599703567,134.7353303260245L160.18266758617568,134.88672018499733L160.6409952206315,135.03085985812902L161.01456662628658,135.12781048122235L161.250830139625,135.85798417010972L161.22642598775496,136.42374607870505L160.9870620982826,137.01636543456658L161.20964002736304,137.25913687297793L161.86796234574985,136.71593825025047L162.05136047031408,136.54072146858198L162.24712922136524,136.9805845504951L163.32669047946763,137.17149672634395L164.21313310017018,136.8974000447431L165.0750246642454,136.31229680220895L165.4258372038351,135.99189564998733L165.36025154240662,135.35291953134134L166.04360838945064,135.2021015517327L166.70301385406088,135.21331917643806L167.1147574262335,134.36480310539667L167.56726432947812,133.93139578087778L167.72216885755802,134.47643316798082L167.93448437633333,134.46068550874372L168.43839454516586,134.42329377310568L168.37823118128233,134.66781105519715L168.5434502658917,135.07836438750923L168.4503789225722,135.57749117658972L169.16295544203172,135.51873273189835L169.85233238158787,135.46303029661266L170.36799443702125,135.06366553369753L170.69408885827983,134.47326897374137L171.43396327285325,133.49800265925023L172.05735977360854,133.36592727337876L172.76371945875843,133.0473991989685L172.8734829196834,132.85418468325162L173.1541521105965,132.69523999912315L173.69065840782895,132.52015715548924L175.115242295822,132.56306386248406L175.92388072845802,132.89707489082804L177.03982243761868,132.6278490024414L177.89535336192938,131.7213729781156L178.30840959067206,131.68269391825146L179.11696899003522,131.8937860667789L179.3355008990427,132.04490758203838L179.79766455280094,131.97248825906155L180.60342000994615,131.62955567902912L181.44867985520898,131.26972992239803L181.93562533332857,130.7082162677849L182.20289963592853,130.14057926962494L182.68311738068115,129.80900729725448L183.25732761442242,129.80920920997403L183.681580410759,129.99131417724521L184.15713568201113,129.81329258202982L184.71918472028148,129.412578893148L184.4283084566237,129.13233062166114L184.1993270456171,128.36630966125108L184.28846906682804,128.0115806941136L184.7863407096687,127.47856662070615L185.43759016584556,127.51361133537182L185.92069544305934,127.3246021652642L186.13680323181939,127.02427354597836L186.38357045179816,127.36796193137457L187.0425820994106,127.44346558886286L187.24378072947098,127.63827736960724L187.9778337015498,127.94029248461965L188.07474990505494,128.14043147347212L188.11938762435489,128.28285923750633L187.83707504610737,128.85941129551895L187.99498564897027,129.2000835316121L188.261956026983,129.2116998901035L188.85271198336437,128.93450423153007L189.26061128563708,129.0381094663934L190.05179452023424,128.79191028691469L190.94322013236837,128.31835584555552L191.23116496757734,128.26619996837553L191.38285319135906,127.81045891241916L191.45579888601628,127.53375738596077L191.76675125634068,127.44190703685081L191.84179803160163,127.35244231595266L192.01236673243,127.25925313013641L192.58307958274304,127.35804810528185L192.88385874440667,127.32424195620985L193.58100595000911,127.54893580214167L193.93521373725162,127.20581961371204L194.17869181900096,126.77824310834507L194.42476223284177,126.73741606154135L195.1534679370427,127.29168540995005L195.99811327739025,127.16400516608718L196.95204262897215,125.90868358124118L197.6307456351484,125.26819601839367L198.3018863122998,124.97735608804123L199.8242762933088,124.61872646515786L200.55934463348393,124.84447837698343L201.39680986036728,124.86399405547007L202.9497648115788,124.07360327310914L203.81367669364278,124.2672846677047L204.06546481363853,124.27669364785191L204.30417080696736,124.92926837678556L204.42282859621912,125.15286653153362L204.43433718939986,125.17455281220191L204.55843863911082,125.40839894047912L203.91817752675462,126.01190524366234L203.35307586775878,126.76639805236584L203.43300762358535,127.45342255076986L204.7380872861117,126.9743434857848L205.19587602158072,127.20039898609582L206.06385212947657,127.01400083889672L206.84290965712756,127.09132024846599L207.22719908257812,126.64375938887684L207.61155037831037,126.67252132949085L207.81141262759428,126.54406128788759L207.72884814956114,126.14974656687588L208.016023483489,125.71310724195757L208.38644334703667,125.50639989810253L208.48667333885322,125.23723037265756L208.44210266713145,124.63142104041356L208.65160056900248,124.18987891244274L209.10423172866012,124.09730164069072L209.40351502006962,124.0627851878877L209.58016428858087,123.56415184696289L209.61517487618147,123.31840583736499L209.19908995164405,123.03603192860726L209.94658061962178,120.71542659949444L210.89469175149253,119.4311513439344L211.31995066590878,119.08237663220837L212.55379557870748,118.55706803914074L214.1061296619037,118.12580207793513L215.64142631289695,116.09305882948439L216.19055526253584,115.58850243624175L216.67274263263465,115.60265532732188L217.8840084128724,116.78467830781818L217.91530430323684,117.4722007286594L218.5122343320749,118.76097931591084L218.8312121775333,119.77063667409038L218.73149770656642,120.28008267626052L218.44357929895148,120.82003495431269L218.31361393915375,121.38184416751443L218.3613458172759,121.77154753152985L218.57570310774048,122.41290967849483L219.12328716908291,123.00970899548065L219.80522844496312,123.55514388113545L220.1726276072821,123.74290185070595L220.62155930987478,123.68368820780148L221.54830065214924,123.00098620796729L221.71612240198783,122.65210348881538L221.71236381229323,122.22818544445875L221.77995714968142,121.84142567689901L222.13326780955424,121.56770351528405L223.6836967283873,121.27076725959978L224.35018161831948,121.14305319131824L225.4231803810618,121.1090862682413L226.0644372189862,121.50580006007448L226.25617326421315,122.06128804493801L226.37570726204342,122.12546678696708L226.6657666647754,122.11374497164292L227.4656299670835,121.74214810176375L227.65129023109205,121.7505670158439L228.0671429593816,122.14345535523677L228.09834981515172,122.68141120821656L228.7918583828574,123.10442591396924L229.48129228179022,123.18482431551666L230.56061586613743,122.48360016074025L230.96447997226056,121.82474805463335L231.16212264174345,121.73213715838199L231.42262462665718,121.65944668047194L232.66415218073473,121.31291741597482L234.96324202764708,120.90574896093415L235.4225397375593,120.62481456083185L236.32066469164158,120.07538043696138L237.47761058721164,119.8061038395893L237.7592770456044,119.80320482772049L238.94988992666748,119.79087256080004L239.99239251426394,119.92123521992318L242.31259589797867,120.21101605320797L245.99709143773464,120.61207787453986L247.45412905954612,120.77033880652141L247.53110460816146,120.77686236375882L248.37379290721879,120.84834582394234L249.47436225688693,120.94160857692322L250.29685449863348,121.01123579620304L253.49108234184973,121.29034100870649L254.3069201738094,121.3614800119048L256.23487812212716,121.54608048257955L257.905243772369,121.71728134823252L259.65115082944584,121.7770670654495L259.6532080261016,121.77713735046973L259.68641241754574,121.77827174066528L265.24694738058736,122.03628348715483L265.2483059364696,122.03634618754222L271.5958245162642,122.55343587731818L274.79798270211285,122.81291981356634L282.7688833525391,123.21929593957822L282.7706711341241,123.21938644837059L284.46557384842276,123.30506465951873L288.71038669444624,123.51848824414998L290.6573916891483,123.61584260898434L291.8673262413024,123.67617128823309L298.08000201941894,124.09360388527136L306.5419623448313,124.6566041579037L307.87203796526,124.72459962491922L316.4525516734874,125.15944980736901L319.6667432473961,125.36148630598831L322.3366932293121,125.52860985977645L330.4617052848104,126.0332634469874L335.67682572404556,126.30337325101215L336.21959325421756,126.33134551546317L337.05025033576726,126.3740928914612L337.9506608101164,126.42036029678513L342.7774852639192,126.66715079328111L347.0838133924324,126.88566582888245L353.95048948998465,127.34218871802767L360.5535022202914,127.77708237816307L364.79989138349026,128.0547123829333L366.71846851989017,128.17961978776884L367.74989448582994,128.24664969239035L367.75043844144443,128.2466850176288L373.14844040183834,128.5959339943019L374.87118974683915,128.69349846519987L380.22552151942546,128.99503633242915L381.58104335383507,129.07100240827702L385.6954977869375,129.30057838882936L390.08414150946055,129.5437854144422L390.2517917946532,129.52916914768525L394.7799937354764,129.79960963765313L395.3926926875214,129.8360613290705L396.45037860662273,129.89890789199853L398.1961197778958,130.00231902936258L398.5510462982939,130.02301842303592L399.5080715011553,130.07877619859408L400.06693431923065,130.1112552747099L400.80357605388576,130.15402354111887L400.89361852788664,130.15924793771347L414.80398030553863,130.95763973936005L414.8218181027204,130.9586267871381L422.2983232098365,131.36983219668787L429.536902529454,131.76319168482365L433.6509623555208,131.98472374717102L434.0244496960962,132.00476023952984L434.21592517548794,132.01502749993483L434.417369648401,132.0258257792757L434.46649335253824,132.02845846848555L439.03172572996425,132.2721820205477L439.48295116062866,132.30029128111147L445.2203231991671,132.64971863032775L450.84780073803665,132.9895919478853L450.8629644080635,132.9905039352193L459.0907597582974,133.48231402646445L460.71688880001636,133.57873083328656L464.3964514037343,133.79602720621415L464.6959916434382,133.81376942674314L467.89681722923774,134.07818933650896L467.91077177449176,134.07934010362447L470.9079383858712,134.32609696610945L474.88085160139065,134.6518902504581L477.427959253401,134.86001592052116L477.5739866315445,135.0095957955919L477.46930119253193,135.21282896877318L477.2781626909767,135.32427517752382L476.75273276931716,135.9777590925592L476.6092594616758,136.31277038817677L475.9571686416432,138.76527238553018L475.94710695923607,138.80310732632552L475.9784593952112,139.17872363048144L476.0977651138404,139.32281580812133L478.3167028674243,140.45537948951937L478.7430637978222,141.345419173352L479.4663502962483,143.43627080504388L479.56781814545064,144.31773835796935L479.50163107904507,144.7883283429103L479.0815630914849,145.72311884763462L478.61258384361497,146.09304904192163L478.08637071900347,146.22677832042632L478.0854607366929,146.22700955546492L476.8340852323973,146.54491903952714L476.142741426463,146.97015530025362L475.7529537441821,147.57204585396022L474.8504455247586,149.7246117647419L474.74453043670746,149.97718188710797L474.58160307211335,153.04760819199305L474.6195589892556,154.50295076452795L474.64820476420925,155.60109917437597L474.7060453766836,155.68527335100697L475.0260877409205,156.15100058602985L476.1259452679004,157.3113413195352L477.7767694332072,159.81868777970215L483.3041112663705,155.96752070348055L487.9577122385062,152.72141131344569L487.9618984852276,152.7184896736769L488.9323964945226,152.0410912481346L490.0599552344991,151.25389400973216L494.04229714543385,148.4720487546041L494.0430009378919,148.47155690319687L496.14990829925506,146.815833519592L498.4961569455481,144.97110471770333L499.2496671428062,145.9666539909963L501.40463388965946,148.81278153542024L504.00619337801663,152.24667082181338L504.0282189537873,152.2755732469908L504.03271036209117,152.28146694801802L504.08344186761855,152.34803721391938L505.65452101658104,154.40919785624988L508.2149663241153,157.76659911693736L508.2197156451156,157.77336045421026L508.8888576132403,158.72589552494668L511.0025545880222,161.73368221028193L512.2042207003983,163.44290820789973L514.7352324266434,167.04121025069355L514.7397282963464,167.04759984187393L514.7400794522082,167.0480989090242L516.8738816999607,170.07983947900328L518.602565505864,172.53474137458795L520.5419846752078,175.2875888694469L520.5705779657033,175.32633483122322L521.04166662497,175.96465310741573L521.4586230747327,176.5295590434979L521.9297057760683,177.1677246859843L522.0334496648765,177.30825400917163L523.4234825040677,179.19080519996618L523.4864921217367,179.275056251707L524.1527355123558,180.1748959477368L525.1964224112597,181.58421060601233L525.716734733427,182.28666063526902L527.0338985198465,184.06448812360972L528.25253619911,185.7088008619633L528.2529033124591,185.70929613275234L528.2148289161926,186.0628985679444L527.8693495915769,189.27059829171748L527.8594514255269,189.36247892091242L527.3930172113182,193.69082993626648L525.745184926749,208.96078240108292L525.5099893062282,211.137046486637L525.3819895990979,212.32114401043805L525.2769158666389,213.29376276360753L529.1497651968375,213.3081145043214L530.3059119670105,213.31795344774116L539.0636176459346,213.3866128141359L545.7616250776969,213.43454413868372L547.4370380271904,213.44591280151548L549.9727659112314,213.46258909656098L551.2466510239357,213.47075213164362L554.7555595616083,213.4924946644457L555.1354300883497,213.49660294723918L558.7225693216895,213.56339640030868L558.7641714112631,213.56416435954816L558.7645939541413,213.56402743760333L558.7805523537768,213.55885622103634L559.7123755739742,213.57003710021073L565.6983411588662,213.62552471321524L571.3427848663828,213.67494196753853L571.3460210893447,213.6749694920822L578.1860578735407,213.66377275232549L583.4291304542866,213.65238751396356L584.9871759787544,213.75193176642125L586.2723430711577,213.75872727430823L592.8298543632026,213.79094494200402L593.3951626397027,213.80187874866994L593.985107431221,213.816152966628L596.1149764925002,213.86743044975597L597.8614467160882,213.8911611097586L599.0954005975865,213.93568645304603L599.3205024372344,213.92410237237712L599.5706264218767,213.94652138615467L599.571222041036,213.94657476573542L599.5978546811634,213.94896156027445L602.9466513812907,214.0115235354367L612.6746675698532,214.08180069940533L618.4693414965669,214.11976900069263L621.5385011836523,214.1386754346575L623.7095646126741,214.15155058352173L625.6528532039997,214.16272123453524L635.3546958843536,214.2135190838663L636.1859512142737,214.22500752422428L644.100890459256,214.3307756665975L649.9499305614358,214.40537456660525L652.0155020526444,214.43097990857075L655.436500033398,214.47255693505602L661.7226358124885,214.54640599117923L661.8771244650522,214.54429440467692L661.9124752136438,214.54381092557801L665.9761129938461,214.59004159144047L666.8180205316007,214.57343333814993L672.6353471436206,214.63999005980665L672.638147467087,214.6400213775135L672.7083701590063,214.64080649316114L675.6979060747834,214.68493514535245L678.4705162397138,214.71665123900928L680.958342155716,214.74453061932542L682.2313838804864,214.7586164110733L683.9770261903996,214.77769822389394L687.1414108627866,214.81160103334318L695.2070530792708,214.89400781157875L702.2754865718748,214.95227281988733L702.6826121848005,214.95549283765502L706.3300017393905,214.9836863681154L717.7380101346095,214.69788522078312L725.2624882887391,214.50307037245503L725.2892392377828,214.50236882570778L725.4410793482526,214.49396669052533L727.3547071047066,214.4792604794244L730.8920385150459,214.45122319417447L731.0502023121669,214.45642158387156L737.2620027420887,214.43194399960456L741.046580764261,214.41535746523934L741.5832923630485,214.4129026503581L741.9961588026165,214.41385557030185L744.4946079166266,214.39810851018186L750.7420859070035,220.38433624297733L752.6921288340318,222.25111831674593L753.2191430398334,222.7578663633429L755.2697491722181,224.70124476163252L757.5663652790607,226.87671147469484L760.1442512761752,229.31728077354347L767.1881798175721,235.97883668863895L768.5799211784429,237.23714415905943L768.6351991899076,237.2871143397199L773.0385616973376,241.47968315422284L775.482950558029,243.8052777333435L775.7286846446674,244.03912163096444L778.5598081122439,246.71359457827162L781.5116104288597,249.50027270665692L783.699485196873,251.63446498933368L783.7049142467306,251.64053024880926L785.2528543318975,253.36955703591354L785.8286255005687,253.80276329225407L787.2220082695802,254.93410023190887L787.3092378930173,255.00491351601468L787.6199004057312,255.25917372096433L789.5747862253244,257.1153428599906L795.7417719734628,262.99428992057324L796.7894680897882,263.9922494833301L806.5269356946183,273.25633437998425L806.5377911029457,273.2666508651675L808.0317355023333,274.6861900841431L812.4091647630655,279.0705118615906L813.4816073645317,280.14398706011906L814.7893644962107,281.4416510194442L815.1153219905725,281.8260299516311L816.456198943682,283.1454680477678L818.2953713599254,284.9545921211062L818.4685519691907,285.1249050495493L822.5065339927392,289.25251272182254L824.8616601061515,291.6582825534241L829.9910634768682,296.89358383330296L830.9785580157479,297.85321918485596L832.85672168191,299.6777410395034L832.8583824557775,299.67935404328307L836.832195229638,303.5371604096268L836.9726891582952,303.6734972728576L839.7870727946097,306.40371020781157L840.2812937059416,306.8829741733884L841.6646061810015,308.1719460768078L841.6876019045773,308.19337018889036L841.9530318072831,308.4934522836927L849.9198190312675,316.1394576989065L851.5941728330561,317.74623362326304L851.6505527916322,317.8002668211186L858.5880539826477,324.44386044487055L866.2534094862417,331.7726348297276L872.0758497448179,337.32280240007196L881.6287609687234,346.41357238289686L884.5689778463831,349.20773961487157L886.110028475238,350.6715193391021L888.1790640493494,352.636029489625L896.7668271440439,360.7802619970728L898.1231572680508,362.0651370160958L899.1865649555298,363.0722538608651L902.8227580175657,366.5142337236308L903.3362707630686,367.0000978064578L906.0909349493186,369.605510362251L906.3842934498573,369.88288151508374L906.7595963401837,370.24097476529266L910.3557883145336,373.67076630064275L916.0970928559755,379.1406070437676L916.108485712639,379.1514543689712L919.3238838440028,382.21180471638297L922.1694548273683,384.91839025293325L922.9065244096432,385.61918419984926L928.0072762834989,390.465798014452L934.093958131699,396.24207768260345L939.8053229090635,401.6551920718002L940.2337758042219,402.1291227343177L941.7461679592639,403.371521921785L950.0574884524426,411.38726618719784L952.3082476085767,413.48860855786154L952.5671638044374,413.7302660943854L952.5841395760342,413.74610983063474L956.8563035003999,417.7315219007935L956.867928491363,417.7423615556523L958.5603926504252,419.3201973069453L959.6844205411613,420.36774785107366L959.6881957212552,420.3713657065089L964.388837399584,424.8738036527315L964.559169343185,425.0368668200269L965.6876126865538,426.1170017531714L965.7057807371671,426.1343898590021L967.0478704524412,427.41867386605315L968.3502482099899,428.66453913868895L968.5181366294619,428.8251168414784L971.5088548233798,431.68461943027864L973.9243104030656,433.99273865332606L973.9249670278275,433.9933659343324L975,435.0202367004068L973.5029797229251,435.71210326668694L972.6678384529112,436.09796127525055L966.549939230757,437.19679594842773L963.8460474003409,438.31525618353766L963.5116114623934,438.4535390868569L963.13874518786,438.6076976843935L956.1599372153088,441.49020673174437L956.1534728486088,441.49287427295513L955.2320340651245,441.8730618579123L951.3392831132944,443.4781886576717L949.6857232061138,444.1595091149824L949.4776777955408,444.24520930597265L949.3881745480255,444.2820769346696L948.0081198266552,445.0422934255571L941.7480482686616,448.48764809112157L941.3995987663793,448.679276636437L941.2061881973509,448.78563536772134L940.6292195690999,449.1919886801708L938.3089061147815,450.82564192482346L937.0463407853927,451.7142207333311L936.7176454834519,451.9455121892125L935.9046075013514,452.5175469248197L934.9153620502894,453.2134192378098L932.2163563944797,455.11123114309913L930.0527770698027,456.6317436676834L929.7998073909544,456.8094775636406L927.6612609212727,458.53798921161615L925.6941856467265,460.1271933922881L925.4117802193215,460.3552932337067L923.4186392379404,461.9647598433255L921.9988053231255,463.11085199116496L921.4641635524647,463.6335869892245L920.1068554851595,464.96038587753645L919.5617749067878,465.49310079157095L916.8039667577956,468.1873490752138L915.9574051255476,469.01406619500676L912.3390887222098,472.54579989642696L911.7001664141357,473.26784487064026L909.0203767710902,476.2950968043915L906.9160191702679,478.67097856457525L902.4730912086698,483.6833451223291L901.6876607418453,484.56890210074823L898.5089535442728,488.1511751258613L897.8647537576985,488.876838696817L897.6380665676077,489.18576886292317L893.6800722191767,494.5768778578928L891.549445998118,497.4767254815957L889.3167517104496,500.5138129599432L886.9876068964099,503.6802723929929L886.4674311656687,504.3871937065167L886.3645534819558,504.5269939633902L885.5897412473291,505.57976782939363L884.5822085804382,506.94844167621164L881.7129411237751,512.8035673791053L880.6011766891046,515.0707759083593L880.2582059961416,515.4047377827394L878.1473130992131,517.4596227855594L873.3415736279782,523.1321183865699L872.3366737575825,524.3174469719477L870.1189404589927,526.9323774722163L869.7342584810463,527.3858169750738L869.6453203839204,527.5405024406314L867.923126297736,530.53503101559L866.5375720821053,532.9431177454107L865.0679004295544,536.1422356104665L864.5891048129563,537.184104346836L860.1138611360418,546.9139540151585L859.687808070652,548.1042260812414L859.635256526518,548.2510251130273L857.8775432822425,553.1591574646695L857.8773546650086,553.1596839485613L857.8597111640443,553.323104251032L857.1873177560285,559.5477382008547L857.1634051782576,559.7689885432503L856.00803256929,564.1729540189712L855.262492985449,565.537821533436L854.2351856077897,571.425320013992L852.2449030679759,582.8163229699483L852.1652672598643,583.2716845062272L852.1652718081671,583.2719502609193L852.2321008804165,587.1772032329309L853.5265074477152,592.3709480901856L854.1067391872245,594.698000680766L853.001232208286,597.7695598258418L851.7784739674942,601.1652063801073L851.2175653829773,602.7222794627173L849.704488444731,604.6262918844643L849.4566179258873,604.7927627524318L848.4453807154348,605.4718204559233L848.3534352983163,605.5335554473143L845.8311251593614,607.2266288349172L845.7728442637972,607.2657382297602L845.4508091622786,607.5967181124577L843.0823571738612,610.0302245791681L841.2916592015472,611.8692537656186L840.9755926490373,612.4998633512245L839.7932779063403,614.8582271079031L831.5501183966583,618.3955444790311L830.8601833137227,618.6912699130719L830.6926444942462,618.7630737922647L829.7449548526426,619.3843270184595L826.2584163768238,621.6687998819652L823.0705103181745,623.7560739610371L822.840786025203,624.4880452054884L822.3090532930585,626.1819969006747L821.7167689907496,628.0683395868339L822.1313220850384,629.7352165087912L821.7208471549795,631.8617835051109L821.4261721164223,633.3879980363376L817.6532258614558,643.7050052858816L817.5252032513365,644.0547953488408L817.1347647255482,644.0947536762081L808.6719267483757,644.9575884392245L806.0578021115518,644.3205209300629L804.6011607148048,642.357122100328L804.5627301131002,642.3672419817518L797.0235953296881,644.3497978426783L792.5090566142845,646.0035251695483L791.3628220913458,642.5074259217472L787.5750017275274,638.4918287673989L784.4139228663756,637.954012625808L783.1389657825124,638.6016165436233L777.3777895719796,641.5255211465546L772.7637910814269,645.2173694494157L772.6332120969746,645.6520649997782L771.6575783165028,648.8990466989779L768.7961145318118,651.8799871852559L767.6990132875133,653.6067828159867L765.5724779623445,658.3789701358994L765.5935444452867,660.2800861076279L766.6196852069356,662.6913406684533L768.0352520829663,664.805192286045L768.074094154151,664.8031627818954L772.1551079711155,664.5892044154334L772.9181140744754,663.4833074808313L772.9832628903268,663.3888711314448L773.4496611308441,663.1119057957098L774.333610109898,662.5869034299045L774.47681297242,662.6300926761528L774.8117674901354,662.7311053802589L775.4310385235278,664.458288732531L774.2763030324102,669.4381240671737L763.779102748665,673.7073873097357L763.1649489545844,673.9567995025926L758.7600729261867,677.54920409086L758.312877740967,677.9137255315181L750.3494983598498,683.4864297557472L750.0294753099766,684.4638926638796L749.5186768423332,686.0237574306868L748.8329079209827,687.0595399641156L745.440376866098,689.5474275149509L745.4383271486836,689.5489301129444L745.7460058732884,690.84827922315L745.9341474882635,691.642708541352L746.1333641203656,692.4838144755842L744.7171486846928,693.8750497135072L744.2106234929932,694.3725359035418L740.5899269354818,695.9362436261588L732.6887654064492,699.3435827292515L730.9023807921463,700.1129995851586L727.1087301936777,701.745804278914L726.9179380342841,702.0944606021217L725.6864569441475,704.3444157424087L724.5426807972794,704.958200348449L724.4347371421757,705.0161177973368L723.2036320078481,705.6765685258713L721.3221769315405,706.6855503247261L721.2219121540104,706.7393077756258L719.5619097945953,707.1498248804381L717.4963840056191,706.8947150284832L715.839156514894,706.6897628266281L714.7428040869657,707.9930167944524L714.6064523824551,708.8442643567448L714.4907191881607,709.5667068693051L714.6120657020002,709.8491314611772L715.6085631763447,712.1679696242488L715.4271375929434,713.0030766139671L715.2344566686094,713.8898817151412L711.7639739842215,721.8594335453299L711.8202048848634,722.0772776727713L712.0733588133542,723.0579448412988L712.4358788768545,724.4620565541588L712.1769397062274,724.6644246359018L712.0017859720463,724.8013057657024L710.7183187746202,725.8041684689949L706.2441720493133,729.2979893675072L705.8135351727518,729.5517982448339L695.5609509801227,735.5872812794632L695.5494097153988,735.5878615646265L694.1761482561661,735.6568264121884L694.1509290165586,735.6917226050305L692.6520715674724,737.7653216131208L691.9284978537095,738.7660776971371L691.8418007830687,738.8859741985777L691.4185952728948,739.9743630038251L690.9976084011796,741.0568713188957L690.8919354322429,741.3285671014389L689.9885727887533,741.9883745253678L689.6395174797775,742.243287101093L689.3502689585417,742.4545088200343L687.0853846036348,743.2177278042814L686.9511654044173,743.2115578441808L681.6436919161849,742.9663386314264L681.60586165671,742.9645821027348L681.5153658499552,742.9846800258802L675.3759421211503,744.3464082710238L673.5221407118325,744.7569022195603L673.4985473420115,744.7621245511245L673.4764235254445,744.7700581792399L668.8591322108033,746.4247293089991L664.8339637070495,747.8654268494606L664.473978090646,747.9941930683874L664.4072913117817,748.0554223081294L656.1898249045252,755.5936871466599L654.8812736313643,760.6621325254464L651.3918595402615,760.2879077347992L650.0321663789706,759.0624055089523L647.419040704312,756.7061813719217L639.0649294086099,762.739394134876L638.4125107919799,763.1185677659448L635.4597132949198,764.8339887828404L632.6882661795696,766.443026475765L632.1368659222491,766.9074711914575L629.3344762160823,769.2670855503893L628.9333767325832,769.6046968526396L628.2053262915938,770.2174341522922L628.1073569040705,770.2998793159286L621.5584620745897,775.8071532262695L620.3438183976702,775.6667401112978L619.1820276154193,772.744958967065L618.9697248620115,772.6806796352284L616.577842275692,771.9561812599114L615.0549359941419,771.4946044601065L611.6403337817313,773.8928250311715L610.4035057535464,775.7389093721588L609.2350049850622,776.5946628077427L604.9529003745095,777.7640391790089L604.4463467499243,777.427387971277L604.0377683434381,776.4578131834262L603.8838155642859,772.8569081933298L603.5445505040005,772.2913064908732L602.8545187666151,771.1407699934241L599.5738811735232,769.834389488414L596.9882903126892,771.3579912566831L594.1974405008618,771.8617349857584L592.891103502067,771.4668875010866L591.9187588674928,774.2874075378442L591.2478864696542,776.2327699876798L590.3806141814283,780.2337553005266L590.9091463674314,782.1356508035614L591.2622937738844,783.406161750065L591.3200206156407,783.6138237086952L593.9381456962934,788.8939555833933L598.357592523319,789.2345881046256L600.114397640545,791.2747254752702L601.0755152265822,792.3905090918154L601.7128560788798,794.5449541955913L601.8567991959952,797.2420764950958L601.8701004928533,797.491266394599L600.8684555918068,801.02126310469L598.6244589344578,807.0887891431498L598.2613345801954,807.6060458418992L596.3128503729896,810.3807941751534L596.6657487043169,812.9163234466223L594.3851442908389,814.7078543829726L587.3082332028794,818.080184340994L586.2673069076466,818.5757280951543L583.8153585353281,819.7425128906402L583.750801289073,819.7848156556803L579.3954883369665,822.6373867354969L578.1140904418974,823.8503011809833L575.6378029776666,824.8816561017962L572.8942893277201,826.0235383393731L567.683885608926,825.9854257237192L563.1907564931977,829.2635796530762L558.9579184605161,830.395050312708L557.2720731330623,829.68681216239L557.2128745944552,825.2165277274923L557.1278376668657,818.7917515605785L556.6347859761783,817.9827016722768L556.0998223872855,817.704169846985L555.7514041345091,817.5227453782697L554.5765521379122,817.6434343287748L553.5105662431454,820.5447773984537L552.533146057192,821.12818441331L548.2153377139936,819.0579638925251L543.3005228619817,813.3961617660934L541.7345909960572,813.6326272855106L540.4797462055652,814.3179532866092L539.388414092873,814.9138190827663L535.5342354853693,821.6415474708008L535.0002070649145,822.5731636471888L535.0048472792209,824.5437754235967L536.2818216648733,825.8155609224202L538.3433936807081,827.0854727469244L538.4883637853749,827.0507831478535L539.3945281629269,826.8339048972044L540.7921282502723,826.499259261999L542.9509487266987,827.3043152373313L547.3327384139873,830.9703034045592L549.4397736822644,832.7319342617275L550.8872988887083,834.8989264701123L553.178842023616,838.3278331865073L552.7500421981415,839.8836315511135L551.1107194128335,841.4513739390668L550.9082547207857,841.6449600298612L550.685013763971,841.8584015953808L548.9066153092235,843.5583722990282L548.7224652141796,843.734364478952L548.7034878625168,843.7525007341105L547.1571274487912,846.0416688490797L547.1424011551894,846.0634647838182L546.2404207542523,847.3983050357201L545.9148540309477,847.8800369907792L542.7404663930444,852.5750328421427L542.0073239184691,853.658838403551L540.2436190625886,855.1977091455573L540.0070220692132,855.4041016497152L537.3463801315635,857.7243719839485L536.3161918618129,858.6224207483946L527.8760276758628,862.9436229311427L524.63642684343,865.117650820214L524.4914623699069,865.2148982846763L523.2303936599911,866.0607422965393L521.3653045928088,866.3453871230341L519.9522438728678,865.2219654876028L519.9456166204427,865.2166958574937L519.3199748696624,865.338167896376L519.2975306104172,865.3425249294452L519.2782379698117,865.3478431036137L518.7799670183805,865.4851833605817L516.6324920554418,866.0768308972133L515.4022852522382,867.1067096372967L513.6779064349653,868.5498414023791L509.6740467885853,873.3801852705776L509.36822413460135,873.7489562339279L505.49556767170077,878.4165228528075L504.58426176878083,879.5142907166316L504.03388675735,880.1771681022367L506.1775599329153,881.7648412733772L506.7304842085132,882.1742386377789L508.1433668425745,884.4114975637583L506.59936650646034,884.3262978810133L502.93781936724133,883.8894658837767L501.45276125897243,883.6837429222035L500.4287481188795,883.2984268458159L499.60982783895577,882.6824581969923L498.20291004003997,881.2455167632825L496.2046016145161,878.7368452920648L493.8790541169421,876.0988501074511L492.86226099804753,875.4540515536642L488.8459670649205,873.971923244876L487.9576988603253,873.4091982734108L487.0084508783604,872.2850379942449L486.18447581674644,870.5756806681903L485.64850524451583,869.7450754614922L484.5136562588014,868.6678704288906L484.004857982307,868.4145861041352L483.08605107047464,868.143367914832L482.00746629279206,868.3792385748209L481.16929654917203,869.0488869642003L480.3201912093469,870.2088834941273L480.00539251027317,870.6388827452853L477.71728227212475,871.9625473630429L477.5399794615841,871.9988003734644L476.5607032637713,872.1989813685416L474.0866066128084,871.9875318391097L471.977674770822,871.4457668981042L470.64344419435645,870.7467265160886L467.2120894648109,868.1903530849443L466.4318054739887,867.5634932833009L466.2458345954737,867.4140739816597L465.702835133073,866.6704693416339L465.57715378940395,865.7448812490925L465.1874009708319,865.6341978565463L463.72598671197045,865.640840811523L461.5206600261038,865.4314544856619L461.06720435257546,865.1369279902782L460.2656191168413,864.0603444222988L460.2696200541269,863.5236713904935L460.68481576049203,862.1351058847124L460.5048607360713,861.3599162186899L460.06946039199534,860.7291024120037L460.0218987200481,860.637419165562L459.72204679212297,860.0593736698479L459.89709481273223,858.0829961810919L460.06455012620836,857.5229625995987L460.27259536699836,857.0847992673812L460.50049671750037,856.8423114022321L461.3288634041838,856.3322066570867L461.3298759267964,855.9668857397215L460.9052969742876,855.668917042749L460.19463187154787,855.6158596726864L459.7222668084426,855.3510709758375L459.6566252341966,855.0144587285712L459.31778732451403,853.2766424283905L459.091816480105,853.0077329678836L457.99931952545586,852.63744650685L457.753161783755,852.344171564366L457.75285370916924,852.3438045107929L457.7606537956802,852.2928511495574L457.8020931242811,852.0221468617196L458.0660342279472,851.4916977888467L458.8207496400314,850.7589600496259L459.3852527034772,850.1400171362478L459.6903555678749,849.7111652881299L459.66473530190825,849.1576130583893L459.7910061035128,848.54861237519L460.18705484106584,847.5508818267086L460.1289664032666,846.5998799564348L459.1268539070484,843.6394031901704L458.0755867287756,841.8544959610632L456.48611887759006,840.8182193529283L456.3395368016205,840.6199240984666L456.34434013809334,839.9867560539664L455.7976107924111,839.0680110801677L455.0260887543805,838.6493315162987L453.60176760696004,838.8020592603182L453.1863815568764,838.5652237922054L454.01379553066556,838.1449559734799L454.68560706557747,837.6089180606261L454.71601388918623,837.5344073299302L454.9321770188345,837.0046851402124L454.54626141169825,836.1691852929118L454.5279367204667,836.1295100989655L452.90156108520404,834.7514329083247L452.3980400327932,833.825364968796L452.27880942570823,833.2322356514605L452.48563231754645,832.7186101723648L453.0442193793078,832.2862907955179L454.23405579257656,831.8670499316972L454.5232215140669,831.4836461290993L454.20966036914473,830.9262632114367L453.9918912509165,830.5142762810028L454.1615649531156,830.1705578533899L454.54162576746387,829.953008407668L454.745439949021,829.7090824579369L454.5645561294253,829.4337156405534L454.3321210680025,828.9425196932536L454.35713778380125,828.6478639057361L454.6192645812406,828.3501346829926L455.17327633855894,828.3745277195803L455.6755417055585,828.4559151942415L456.03728616579934,828.3098721822978L456.35304324875904,827.8408466897621L456.2651125226735,827.4080777373097L455.7919219065593,826.9994552587622L455.2887963995212,826.7538928818275L455.41165268385015,826.4041550822772L456.02949575697494,826.3642373503324L456.4415453640457,826.2379004498282L457.6174244292501,825.7801196308536L458.1957954276975,825.3684653335088L459.5632895487824,823.3770914831713L459.80684555524493,822.8859634754087L459.93695382767345,822.6235867088062L459.9356259438581,822.607087490774L459.8977401649411,822.1363335953038L459.39872175194597,818.2868343912546L459.2771247618016,817.8236772931978L459.07271942049726,817.4819377151828L458.76462544602794,817.3345697148768L458.25857715913116,817.8742597708647L457.5092487325632,817.820703932766L457.19637423681127,817.3971424930724L457.63339598439075,816.9334305792802L457.8747404389434,816.358101872338L457.5298808030618,815.2332110385316L457.6971022584961,813.4935931585237L457.48059541070864,813.1720400403267L457.0324862878085,813.709641796951L456.6609853071165,813.600679259316L456.2739041509932,812.7225533450226L456.39943721870475,812.2848836247863L457.22724658598605,811.1199070607333L458.13496017381976,810.5789306355662L457.7858607233692,809.3729839573716L457.1105938390149,809.5373497045665L455.61795828049515,807.5592229289923L455.2905758406905,807.1926735232677L455.00558225080937,807.1463948716604L454.98236563364054,807.142624527123L454.24027482848385,807.5530802272273L454.2942341551492,807.9899957127056L454.73200105413673,808.5486453712916L453.8417255889692,808.6013430731812L453.3510482082906,809.1842760684963L453.0689914797904,809.5179263054492L452.6892157250835,809.4998575460256L451.9629637694559,809.8611103420374L451.586708884249,809.402179603311L451.85328474459584,809.088940458519L452.36462236019975,809.2042899275722L452.6931960146075,808.7321293459555L452.6947551095527,808.087091666512L452.729904218414,807.691960176762L452.7194470976116,807.3757288665267L452.03686641778467,807.5300195671118L451.4128069647662,807.2658948477101L451.5323117498772,806.3919336828496L451.3487415806432,805.909145440347L449.6292197900236,804.6289074315521L449.4804226522074,804.2864767520624L449.5444360179582,804.0193254464829L449.79753699543176,803.5898043077041L449.92524770509226,803.1151378069899L449.8021188585534,802.654098155112L448.963225746555,801.8821776846112L447.5688138823638,800.1776391724338L447.4027078651131,799.9745536051776L448.012209895961,798.9576189653685L448.20583310696406,797.2310650560746L447.4516467267875,796.059403115431L445.65772451502335,793.4229163951214L444.5952245180681,792.3955764687373L443.90989185861304,791.4053285408743L442.517289439275,789.3926147574696L441.8563315270746,786.4219464202909L442.10145451935136,786.0451345455235L442.66044179603057,785.7697672251741L443.06054982856716,785.493264217549L443.6670914244362,785.0687970801066L443.7323098765526,784.5472723285587L443.50563792043187,784.03754887321L443.0954077906599,783.8872146914073L442.58110329100487,783.9303486773001L442.24946497852085,783.6357290338956L442.6863009075958,782.3430245692107L442.9348578826229,782.2923545641745L443.5498418585925,782.9653918418176L444.00223256724234,783.3975251380136L444.1149032276283,782.5193209895258L444.1276797397071,781.8616384946242L444.4428208208435,781.8263718770722L444.68244872902375,782.0995056463587L445.08076538646253,782.2054553583057L445.3343156097964,781.8673469346319L445.1257298121686,781.5034537164385L444.7318905981167,781.139547581146L444.9639217220696,780.6403833413883L445.85257547437095,780.384422364797L446.22148139436405,779.904443617378L446.32556879035286,779.6132202272711L446.0605437353357,779.2957639430772L445.83515595284234,779.2459580039265L445.1777132617864,779.4370001291736L444.6857856105918,779.3614432031413L443.62293344250537,778.6508834298145L441.0943635906293,776.0355478137463L438.0196104957462,772.3231313912638L436.7846133177719,771.1967089161419L435.8331079094484,769.368086083113L435.74580834225276,768.6608054642791L435.81269697371783,768.3462458179024L436.1636965463166,768.0543183226554L436.54881104687075,767.8454610342117L436.71721483749,767.4802416748774L436.59033380636527,766.8738759687334L436.0929145068356,766.6171569338794L434.47258574033117,766.3634563085725L433.8856119932488,766.3806918122441L433.4843790489735,766.5458486894615L432.85960829607245,766.3501596741507L430.916205648361,764.6321310460934L429.79840468478193,763.6436381044851L428.158337185841,762.1928689637897L428.11280533136016,761.5022593617063L428.1063172113579,761.4038445189622L428.4054833644279,760.777809940977L428.38481840623155,760.0451636893945L428.32795802589084,759.7911411176244L428.1313228521054,759.6440449238187L427.5419846895326,759.5146857355453L427.2019851592858,759.1916787839286L427.1433297403651,758.6956791290486L427.4370692750447,758.3225926721071L427.6133750687967,758.0521946388278L427.5192248490452,757.5049630787383L427.10060464004687,757.0526251313978L427.0952384210594,757.0468264183057L426.69714118216086,756.9668436372929L426.49686956655637,757.1488696741462L426.4827295135071,757.476963509736L426.3938268853441,757.8973445252816L426.0336451742165,758.25147483962L425.48962254518574,758.3023469461416L425.3261729803001,758.0157574652279L425.6570285241709,757.1709801644122L425.6361552682263,756.5528445231598L425.4153012320037,755.7535729602413L425.06571044532643,755.5084567789593L424.69172069459614,755.5898702240763L424.6258115475571,755.8490756258838L425.01833937092255,756.4520810624081L425.0827054378675,756.8492194511784L425.03172191720546,757.1700044344977L424.87434338633085,757.391902596952L424.32526333407213,757.7278802380862L423.9436901586199,757.7708409288535L423.70431624065975,757.5995701360418L423.68849220341906,757.1774946440394L424.12125555253164,756.5263910868579L424.2408659628427,755.9721794078483L423.9455677748582,755.5226402124051L423.7015908820951,755.4290816022078L423.16124197873603,755.4696629562802L421.43504687873,755.9121011357361L419.0619662749931,756.2432821680609L417.3935406871041,755.8190933318446L412.08131584876367,753.3859762425628L411.36819729798515,752.55944245762L412.3646471594159,751.5890136622838L411.8526569760001,750.9788900980177L411.1447403041885,750.6850574975715L410.42778540623436,751.858521718651L410.08603045584834,752.0271591740484L409.6031661066544,751.9114157908105L409.576429934894,751.5347373003433L410.11813392689714,751.0692933014595L410.3025641094341,750.7679685313262L410.23608854594397,750.2950492535995L409.93746201988563,750.1796390164436L409.3267136424722,750.1696853576789L409.03518034172527,749.9663972998644L408.9434053856378,749.5644287206627L409.21657289538416,748.7592451868742L409.06047035930055,748.4650652022365L408.6911599156016,748.270842282368L408.3623846685587,748.244511778011L407.73057049777367,748.9429173697027L407.120668509754,748.9850680353084L406.75718370236257,748.8289568014418L405.07892111224925,747.4227564482683L405.06333137610926,747.4096916050883L404.1520170384011,745.7252231404501L403.49609270792376,744.9310043571675L401.95233496420957,743.5526466920622L400.49751328655003,741.7906431811605L399.2645808711647,739.3558762512047L399.1411598373446,739.112096509175L399.19989130366037,737.8231533368091L399.49275922526675,737.4755803204137L399.9561465141673,737.1659818683269L400.2319152917812,737.1859869175112L400.6079299689169,738.2722966373456L400.8627545754898,738.6423834914083L401.0522101751129,738.7159604605449L401.4745163579815,738.5641858957136L402.3887978560138,737.486625600103L402.41327535071184,737.2873140490499L402.1087480210639,736.9869842594882L400.560136279644,736.6998767273265L400.41650119381103,736.179122742579L400.9683784338058,736.0644895811436L401.9404175158864,735.9096909846917L402.25403383973094,735.740664069449L404.1051269087887,734.2591066484573L404.42729449109555,733.7830867900763L404.2710591987019,733.3089288199942L403.35849257807706,732.6174197433576L401.93714346001184,732.5537314019705L401.5536507905816,731.5790323620532L401.5340767700507,731.3262233537421L401.6697761858247,731.0956912189042L401.70276223722504,731.0937028645158L402.10742479952427,731.0693027371399L402.3560674122543,731.8422949698072L402.94887145320604,732.0844634344721L403.53035608292373,731.6710065073714L403.52934955800873,731.0939024930274L402.9269553277294,730.7174874550828L402.163216431096,729.8181015029702L402.84973212238606,727.4714746071654L402.8133531532299,726.8921675149821L402.80914814275593,726.8252027646802L401.4010815887967,723.2333907541752L401.18976683842527,723.1438939384348L401.06034347262187,723.1645521179287L400.9026595033431,723.2618568703922L400.81777367355016,723.4583212691582L400.72369580921236,723.654945373441L400.41819700858457,723.7727312051475L397.6532228012103,721.7531858908221L397.4959451036898,721.5020847390696L398.80929599248213,719.0687041373327L399.0460033654771,718.962959333825L399.7330107227124,719.0032647288679L399.96040439025745,718.8661254885254L400.0526164656814,718.6700128786051L400.07116244137825,718.4727399581918L399.92694656165764,718.1320784276807L399.2002172718567,717.516084218905L398.9784201764964,717.1616076211153L399.00438844257695,716.8698247473217L399.3263162024537,716.6787715009627L400.2456625707596,716.7350150626594L400.927171576497,716.8496581618549L401.14926856469674,716.5482599239522L400.84802900679927,716.3090430794482L400.35007093610136,716.3634304293743L399.97847942357976,716.2773164058324L399.53756215537595,715.8990240369134L399.5315519225294,715.5332302402525L399.75328707790476,715.0065637621638L399.6924938367679,714.7845791721986L399.4468139846693,714.4798881965077L399.3721826955473,714.2771800927237L399.39668782303704,714.0758745959315L399.7052130542704,713.9577059717958L400.18499705863786,714.2058456892914L400.62537649691626,714.1245108370695L400.81659449388724,713.7818848269701L400.43521326400713,713.1692146198235L400.36017548172623,712.8986181777618L400.60890303333235,712.5114335290557L400.8075157853576,712.4734764651657L401.1831938432639,712.4114216129033L401.6453225358508,712.2174906024322L402.02808440658356,711.6850326296433L402.14296204517916,711.092535705794L402.20112488562785,710.7925355943948L402.14161381394257,710.1765815924143L401.16691723437975,710.0285789971326L399.8322226783106,710.3546275196807L399.1981073161002,710.0531906865981L399.4522287160612,709.322782853241L399.86676277332987,708.7289210544335L400.1319954325331,707.9799702329765L399.87933530295095,707.3627814610679L399.4660124684059,707.2789612612235L399.65492742304997,706.7800474665148L399.81610104601936,706.3031898210055L399.5853850235806,705.7439367851116L398.7681014379025,705.3940467172388L398.15629909121674,705.4632535916124L397.3210304924211,705.4925051764652L396.7470899896098,705.2431941998841L396.7219077291457,704.8458538030636L396.84003045914125,704.6203022906143L397.1796481467031,704.4671469748228L397.8776783673561,704.4143184892014L398.663180068856,704.270384510558L399.4745958577712,704.341909383354L399.7303061103657,704.1983306095052L399.94509535070756,703.6720761417926L400.3458252721368,702.8479150596135L399.8144688883855,702.6515302621212L398.8832908967199,702.9134441198946L397.80757046111444,702.6968675603895L396.9828008409727,701.7442091283458L397.1845592456631,701.2901657501245L398.29358351758145,701.9186936717903L398.8023833136342,701.4662721657232L398.17395390577855,701.069186942568L397.58651676012505,700.7163315828691L398.2104565299487,700.0638609247447L399.296584650982,699.3727616200615L399.2637749733047,698.9773875877725L398.63008621205586,699.1797010133794L398.1713185445427,699.1288828222238L397.9552218436923,697.9903920343058L397.56346361417457,697.513381958858L397.8512302228506,697.1750887498129L398.2620852287921,697.2654575238356L398.6972169937855,697.2433422749507L398.8010158841328,696.9687507871137L398.45104129994644,696.3799708932864L398.1951721399606,695.6641178882405L397.9845948260304,695.3129349095788L398.0574631985461,695.0354152408302L398.50606842488025,695.1758011016257L399.3319908208664,694.4038916788102L399.5918906028829,693.9378773042811L399.7020165786306,693.3253357712713L399.5809220274002,693.2071782729224L399.173407952758,693.2101919513481L398.40035710498915,693.8020153362615L397.843971087551,693.6293617654908L397.61553402136536,693.211879121974L397.67476894798364,693.0195517019683L397.88238619103856,692.9427488939775L398.67578142133084,692.939988708743L398.80559128323375,692.8205244437577L398.901394210971,692.5255516951934L398.79547305573914,692.1790332380385L397.94758929692233,691.4836945726665L397.3724163738811,691.1349475421661L397.2898311318,690.8676419545791L397.6658286064794,690.7650579668931L398.566230823908,690.8648343519726L398.94420174720324,690.6362349275299L399.19452326432895,690.1641528868313L399.00107421090604,689.2041240841357L398.02430404667126,687.8394913903885L396.92213283709503,687.3191413783999L396.1436915757396,687.351718211007L395.54430325780896,687.984842339561L394.69686520981406,686.578592619654L394.7497690944542,685.5471156579857L394.56296501339114,685.41910069561L394.3051282477779,685.3344833063791L393.37897825685235,685.7714435609624L393.00922679934797,686.058765927804L392.72967908222176,686.0499654292908L392.4539871279103,685.6085395580369L392.05151303384935,684.5517836121271L392.6671669128259,683.2185623338546L393.0273626941181,681.055012826863L392.81009738021817,680.2874948216322L392.72616883344074,679.9909837495061L392.5178984714673,679.720100665579L391.17083964684167,679.4434927944403L390.603205845799,678.4012749337508L389.84545534006213,678.1124924386314L389.6520162373795,679.061585031464L389.17633404514,679.1555841463821L388.0526187260812,678.8113756382321L387.343905065826,677.9707607838958L387.83663790893615,676.4290952639659L388.9413196337631,675.7211639748942L389.11779790290984,675.7030991075376L390.3878190237268,674.3894324689254L390.5113560010396,673.9511899572253L390.1393115231581,673.4450249317817L389.5214224728503,673.1496892226285L388.9825364979749,673.405244239834L388.78487883132254,674.2894527756002L388.17776767373107,674.1914887531861L387.10972139684975,673.7228771275504L387.1029549616621,673.3344251687488L387.4113109584709,672.8255000142681L387.4581652619236,672.0257658924509L387.0069568818155,671.2325440889023L387.3101563385108,670.1343296992536L387.05085408928534,669.8554188977505L385.88263341896163,669.7980242700877L385.8479356234591,669.0522522842115L386.4232087202737,668.8224425459491L386.6828420540292,668.1044462088757L384.29121029245636,665.7085789703577L383.33154521657247,665.4519832750351L382.8108803265813,664.7834390387015L382.76081215919044,663.9756739340297L383.41358512461113,662.7642195827627L383.44121644215573,662.4581025209897L382.5211625502611,661.6972686208965L381.87806930292703,660.9705911834765L381.6001054013318,660.6079593330477L381.328337677784,659.4494374764206L381.3024896998693,659.1548854966534L381.3303707352359,658.5676212084489L381.0813387821513,657.1732576845573L381.19670126676044,656.7379803683123L381.59736755686043,656.538331213032L381.79738537304075,656.6648653278621L381.9466225713024,657.6423778796104L382.6957259384423,658.1031802518644L383.0969846980229,658.1161817888936L383.411741913441,657.90126468878L383.4871033517256,657.6687931244496L384.4846404213099,654.2390695017434L384.4761142043006,653.8547636759918L384.3369218989489,653.5631995474463L384.3403797652075,653.1400778691159L384.57952461218804,652.7675976311414L384.6176341966584,652.6177569755865L384.58577258119806,652.4831467920002L384.383176113295,652.1246403287654L384.25272526508513,651.9872959966497L384.1700743220955,651.6670756446631L384.2306139587112,651.3536969934122L384.4566770666372,651.1601290895683L384.78147095709255,650.9932423718062L385.02566010047417,650.7338135756792L385.1918452500823,650.2693878531538L385.24708933596725,649.7275092305314L385.2506518472767,649.6925640090099L384.94150924649875,649.3787074155131L384.3399331106283,649.2860023989161L383.50661924960957,648.9892969018379L383.34768960348765,648.6731334462883L383.43269255376657,648.3111933549311L383.73642463163867,647.924975991955L384.0389981095401,647.7992592401649L384.27053687701823,647.8297705669862L385.13078225146864,647.5456705490196L385.2316529407767,647.2119593841115L385.06571429975605,646.9044758237565L384.178831595532,646.6817798113068L383.53661776955954,646.1711307487283L383.09770212575364,645.4877574011491L382.6904120923948,645.2076702430362L382.3597550504411,645.2716024371641L382.1570799952151,645.4851690187343L381.99838706435526,646.3406584244939L381.8308679692777,646.5833910300371L381.3289676406038,646.6292428440145L381.15749862165535,646.131292462764L381.8076667892461,645.3691758186884L381.848685457501,644.8945939520124L381.4403004705375,643.9897375239087L381.2276009644155,643.9313225138659L380.7424763677935,644.1415449456765L380.2650367358803,644.0736968436325L379.7982398841754,643.8864695065038L379.66260858866633,643.4955981518885L379.9649953463715,643.3066434888486L380.6879572408905,643.3938665885706L381.1633966375876,643.1951565721587L381.3906353682897,642.8834617984647L381.26222046991984,642.4029802619249L380.8615847858355,642.2148314808524L379.56557768459095,642.0470951768475L378.95742301828534,641.6515247851519L377.7951198146277,640.4640727739959L377.73051914105565,640.1668797076114L377.8091666002465,639.4398882600797L377.6689846460115,639.2134402766881L377.3492950872582,639.197295899544L376.3744198317065,639.7606624094657L375.70927195589707,639.5848466469655L375.4513172090042,639.236613427043L375.1104893365235,638.0137967854799L374.72396790938143,637.3031041521704L374.0745089029822,637.3111513066306L373.08669325770387,638.5380428052842L372.81052103948366,638.5817604997534L371.03413330364367,637.9207712207779L370.19948590547335,637.1981352542261L370.41787182200676,636.9826123904521L371.3710518266929,636.9111086138971L371.6132245969409,636.4958855981938L371.664105544194,636.2169752656836L371.6186681293992,635.9255797315967L371.3536610272632,635.6606339095496L371.1840786386846,635.5713663715067L371.03778924995856,635.5696517209203L370.9401279279512,635.5685060122021L370.79383858438746,635.5667882906295L370.4988634907546,635.7668975201502L370.0817559250962,635.9948150283169L369.6421846132664,636.0476436917858L368.84269524898275,635.8792933146682L367.751809251785,634.7163523901279L367.22344508448253,633.8007077305372L366.6668321675313,632.7486212441112L365.71895618390454,631.8114510358373L365.28129749599526,631.7188389475099L364.8844965504354,632.0284918478947L364.4975486514794,632.0293017662459L363.5527204040442,631.5520477134012L363.3870165793209,631.1429042362834L363.3677583724443,630.7353385781727L363.5433308780589,630.3301922852257L363.76949317103856,629.7803974128417L363.7997457627881,629.3154527812924L363.39406406463536,628.6123505683569L363.10382755251754,628.4342329488386L362.7122820847443,628.4559535418838L362.04573727138416,629.13918947104L361.60878231630363,629.1136537748253L361.43936983884896,629.0242665028507L361.3927589183321,628.8491600417019L361.4477710215956,628.3553007478044L361.51523784962,627.8852945934041L361.53583396420566,627.1640622694309L361.27617545244584,626.4917774510072L360.89047474018014,626.1671593259221L360.5740821407164,625.9920558294069L360.40648265044075,625.899294856283L359.8713432019486,625.8342656278494L356.94124354887333,626.1169370058267L355.9258377390894,626.3454398895129L354.89374874556154,626.2836010085291L354.0681518438266,625.9343639193893L351.6666371935392,623.8239469278626L346.6179080952902,621.4596072752446L343.91922196612865,620.4795076462939L343.3330832367742,620.4229141588544L342.6632686293967,620.5584207831421L342.3607682376819,620.4816327875686L339.85785894723745,618.609355122663L339.150365889624,617.957088474696L338.4201433593481,617.2837614631244L334.5183367469836,614.3273223204825L332.2697822227343,611.8536706677853L330.68122022062056,609.9215189841944L330.44086384369666,608.444441947332L329.99513423730843,607.1816773776873L328.8790902001009,604.8218761038534L328.8820620572973,604.6287201256193L330.26066171210977,603.0320854533385L330.8477013952004,602.9685882162729L331.29586803952327,602.7339160842482L332.0748054188544,600.6690499410092L332.04584269580477,600.6024935700032L331.8209672079621,600.0857062997336L331.139683397144,599.7131900711697L330.7628881807914,599.2486992499973L329.97944733914915,596.3156029825795L329.723224918341,595.9012647541563L328.7071803145126,594.9924173152392L327.821406075793,594.8097462089647L327.47554807402406,594.9733718989589L327.2889585891161,595.2843114515451L328.01774007364054,596.4785633768903L327.9639092509226,597.3468751502082L327.67557117741467,597.7045626931936L326.5382290195229,598.0973277910769L325.38798649910825,598.0069011236528L322.3701564910508,597.2348340850655L321.95070239877816,596.938414525393L321.8337866376685,596.6709708077399L321.8154184560709,595.2945672944778L321.5249315716346,594.5173937907529L321.10559845753255,594.220974629033L319.5215910811106,593.5197269606532L317.85426831292654,592.9856517937009L317.139813078765,591.8673810740828L317.1061719909774,591.8147205059731L316.0567553206399,590.8063361443718L314.1517758236974,589.7865568009316L313.07607111980303,588.4083620832649L313.04507114107037,588.3686395562395L312.8777418417747,587.8153077923183L313.12361198202757,587.2836412163215L314.37680930104284,587.1839093908061L315.59821300506394,586.5525703887577L315.02038879480415,586.0680460398478L314.2592959209577,585.7580660689212L313.89679684495826,584.9763958787726L313.9856740798947,584.0159856272611L314.5650928580262,583.729070528594L315.06134847084627,583.807299125269L315.2400858404427,584.5146617160505L315.91996696545897,585.0100043354505L316.5577629580845,585.6013945409308L317.287051901964,585.5648753028481L317.8630426146399,584.9934438998284L317.99160356582155,584.5599650110089L317.59011347536955,584.3598596363111L317.2228313862265,584.5473731213476L316.57450185648827,584.5849778483729L316.30324838851345,583.8546333918864L316.72301382567014,582.9419288327024L317.26095108894276,582.2247009929515L317.311610499897,581.5962414093372L316.8691083109337,581.443716453811L316.4995088645305,581.7766444748981L316.3717200352692,582.1615727577583L315.94712587381923,582.2797966686879L315.52303185406424,582.0992890512712L314.80432580331194,580.8929801368618L314.76054076232185,580.1295646417323L314.71278758416315,579.7142600747652L314.3925803127183,579.5154289264967L313.97829644184003,579.624570419149L313.25118577524927,579.684788274317L311.3466375979131,579.0012790958841L310.97418075454436,578.3676802509855L311.3540830577334,576.1787274741243L312.20721617047457,575.8071553361193L313.1970214975556,576.010996915189L313.76000910081996,576.2141395875271L314.2968181786597,575.5457085095794L314.48209741991184,574.808218579204L314.2601200182021,574.0953202390465L313.2037591168831,573.20493030247L312.46207518010215,573.3760308311914L311.8708527049798,574.2337260718298L311.43659101323226,574.877695291791L310.78395228013176,574.9973791149334L310.89065274931284,573.7829351832621L310.9046378297511,572.8757224990761L310.46675241542283,572.4108087788281L310.41101870087937,572.3516316338548L309.6218291042709,572.5311430132292L308.51087077001796,573.8387912876634L307.984032243014,574.8493901738009L307.3024813556618,574.7264261639145L307.1364639537204,574.032201872923L306.8504431619601,573.0864988564756L307.3896041585306,572.2274688996797L307.0813753318139,571.4020525472474L306.6580350750573,571.3947198379428L305.57918634344,572.0030874381L305.17828221987475,571.8754898645961L305.14387921937305,571.5372060200436L305.6971636411283,571.0162234411126L305.8826870500576,570.5011307834418L305.5134161660637,570.1572734625396L304.60038199853,570.3460835316572L303.99102959343594,570.0307717781278L303.8640747372525,569.4226858852614L304.3436933375753,568.8944867067526L304.355958515653,568.1953006773828L303.98000467941694,567.8028310498707L303.6300888289778,567.1001976276075L303.3680120179305,566.8915602567172L303.02462729860406,567.1348601416405L303.2113858799596,568.2436583446234L302.8927399515853,568.9548017435823L302.4137268498396,569.6951956378437L302.46605552726135,570.3138028752269L301.925690045636,570.7361997765431L301.4877944509576,570.8458812372894L300.9266481677148,570.6670501346628L301.2095384577147,570.0944387360527L301.6642994904404,569.5219954948489L301.9565916531505,568.9951423753898L301.6494015541509,568.5574984897024L301.05266646737766,568.3804661175753L300.0551221101695,567.5643692887551L300.1299926113376,567.2530196155788L300.2170897643226,566.8908093499683L300.3283208853624,566.4283316588026L301.25346659695305,565.3546108533553L301.6753725309195,565.3170248023769L302.02696720604985,565.0297995207649L302.2366691658364,564.5982635191378L302.0432708052042,564.1111170328905L301.43907713740475,564.0036849364295L300.99228088310053,564.1406444110156L300.6543999081107,564.9568898911705L299.8479992552618,565.631404280922L298.820301987129,564.5280259544282L297.2014276534254,564.9327852302233L296.2956522345895,564.8921828335257L295.7979315546819,564.5696092195714L295.7901373747484,563.8942850365852L296.1795633466695,563.4344101077552L296.6547422997751,562.8732134900047L296.833366076418,561.9119909522421L294.87563974488023,559.9473499316009L294.48768564180006,559.1448502171431L294.576340863941,558.405166050431L294.5828304366365,558.3510185432882L295.1136429452428,557.950936781875L295.93968924576956,557.9178522028661L296.9302000225347,558.8038094371543L297.73251752105807,559.005221066237L298.73111209625085,558.3060559839332L298.9252827620553,557.5863286950166L297.73886522645086,556.1339138705124L296.8928086595299,551.8340601366237L295.58206211703754,550.856422045542L295.0386752367955,549.3633111956269L296.5518718870622,549.5100620166647L297.9243552262243,549.6967228181313L298.8901441775667,548.541506308255L301.43885364186474,549.478625677236L302.15052535808866,548.3733276601246L301.37056619487987,547.5422838994829L299.87105243278484,547.1720676700032L299.110146990909,546.7034238676033L297.8757052522779,545.555559676972L297.9653270094657,544.3389144536167L299.13578139834794,544.2988654770368L300.0004825481327,543.9052887932792L300.910191791775,543.4088547616562L301.2693488659976,542.7918197249751L301.50756349837525,542.3825311608686L301.4968081147373,541.846943157588L301.4968044018551,541.8467582546527L301.4887398409462,541.4531874736533L300.06736000382705,538.8346216988273L299.2949023316695,536.9035293260042L299.0847387040658,536.3780355240924L299.0096130085785,536.1901807356197L298.399517362701,535.4806344945423L297.4663763810071,534.8615508489218L295.9471512443272,534.4243744084106L295.0106833723912,533.9977348725247L293.2395708114522,533.038616360333L293.227134776699,533.0318804204896L293.225928613601,533.0312271049448L290.91350850869844,531.778372539902L289.617366816478,531.2723317761806L289.5966206010861,531.2670120122394L288.19812341968964,530.9083134164479L287.9817476564633,530.7804802326802L287.14522599987833,530.2862106170251L286.4787054989561,529.4306068407029L286.1768551626378,528.4136599556608L286.26068019715683,527.4859066849323L286.3185467082785,526.8453995436515L286.0232001577116,525.9546025706568L285.38110366600176,524.604130175483L284.2096894000121,522.1396393396905L283.74836030121764,521.7938726128643L283.6161836760262,521.6947996844368L283.05863690820274,521.4673035500218L282.9606653860122,521.3450268859626L282.51247650016137,519.6270846400945L282.27389741083863,519.3691555677052L282.2179865492144,519.3087080223736L282.2176944309524,519.3083921992165L282.04120645935666,519.2199433962734L280.5684444700254,518.4817068828763L279.8601502303155,517.7696884551768L279.87343366195046,517.0962098129348L278.93082203959557,516.0666393339814L277.97856295816655,515.6818841736389L277.61614506757246,515.0238460341043L277.312386078649,514.1631791930007L277.1453141817176,513.6897519021695L275.39331936692474,511.4482288395842L274.99191637411525,511.2472947615294L274.8723864808971,511.1874568053556L273.675425396791,511.0400442014912L273.5496344567493,510.96105107676806L273.1241992586083,510.6938734745523L270.89935163805995,508.577030982964L270.0952675409038,508.0484527314577L269.50437119504016,507.8823364041759L267.22843008570044,507.2421927620828L265.90866336852946,506.702587867325L265.4697537892688,506.3738498429641L264.9876396941089,505.81320610455987L263.547458928446,503.55032558231255L262.9241009457529,503.31000628158966L261.73157011287253,503.30382186494984L261.48761469752895,503.30254151519284L260.71020458772335,503.6708682264902L260.1310511053251,504.17452608702547L259.5912685899739,504.64388848645405L258.942780243582,504.82625777296477L258.05587822703865,504.6603390220174L257.7760502966845,504.51831277848817L256.2026220019198,503.7195444587521L255.77352423613732,503.3738309493962L255.0320488434948,502.7763664840497L254.59769214936895,502.0778213818343L254.16598012210568,500.7781529740581L253.59125403837396,500.20956472548534L253.18786949138095,499.9408670398772L252.4765503981971,499.7007106135388L252.0317543917493,499.58405369628827L249.9982283874685,499.0504777986087L248.91161350154664,498.3458755103847L247.67698702211538,497.1310356446307L245.64213841022269,494.7513952332542L244.81025881165488,490.8085036417704L245.1568325071284,488.2402756781561L245.15924542896755,487.3483892354032L245.15953015850488,487.2431879408048L244.43850315399112,486.6369332405222L243.20954751251207,485.39098887995044L243.0122844266698,485.06717057762125L242.5810430090179,483.4688025324363L241.82895489725257,481.73666476563625L241.53491452949658,481.2599034127649L240.73896427601437,480.5623857355185L240.32688400733662,480.07727609621526L238.4289516138977,477.84238072743454L237.94923741972553,475.989077400868L238.27337824043673,474.43205875008374L237.6978856851689,470.4577313652127L237.45954918328147,469.4840071705989L237.36906490573028,469.25252230468686L236.37478250026976,466.7083132175133L236.14839581119975,465.2028242779973L234.6326421805917,463.4614926412725L234.08154352400072,463.27087042066296L233.79664987831626,463.30829518826545L233.06095268985518,462.8782848602676L232.83533328842645,462.5079935366914L232.72076563312663,461.96211338443464L232.5053851643426,461.7160245353139L232.1928614759782,461.4909089063868L231.65032515808252,461.41496827812995L230.23005095299084,460.39137313619995L230.13505165181874,460.2480281162589L229.5791021648525,459.40907948890936L228.6557896011853,458.42546313034495L227.87760566003737,457.93242862333403L227.33990835776245,457.8295062472944L226.8347818455614,457.94640328385356L226.1856792341872,457.5342304785594L225.97375561830887,457.1642061952418L225.94076219014767,456.8161004230836L226.1310039212309,454.5737650271527L226.07801955246333,453.8279952997476L225.90186742870821,453.41831161228225L225.38241038976264,452.85804410573206L224.1811853347104,452.11167784675854L223.33500018114125,451.2952275480205L223.06807556097834,450.7377761443641L222.76103181573012,450.397281407506L221.17827342018592,448.641704547015L218.56012519316937,446.8659342926272L216.78888679634338,445.1065718766672L215.8158030328254,444.56958379921264L214.93858381723965,444.17878473565526L214.57130903874076,444.01513865620484L212.4196438656054,443.05611551472873L211.89691456671733,442.69746871957835L211.4075959052123,442.25828601713744L210.35307078885336,440.91175118004446L209.3333830938471,440.0831121771525L208.24410996813367,439.39852687203876L207.21861933751387,438.9092190867693L206.2931070297039,437.8639299866826L205.63658211559556,437.3344968612244L204.75109911861944,437.10884749359656L203.56894584671414,437.3108956747795L202.8425056729588,437.5592515717001L201.85720132875196,437.6480245577192L200.60375435505296,437.1129508635792L200.21599313218576,436.8128839473894L198.76791797209023,435.1256904209044L198.40553999334867,434.82698429007917L196.9068207480761,434.20574480774L195.54070286765239,433.18307741786793L194.75394433662217,432.07427307594577L194.71840147814532,432.02417604335164L192.666345226516,430.41981502392673L190.69660313481006,428.1919188568024L188.1983506428984,426.2375300034306L187.59043531143573,425.33170006366413L186.1878989500741,422.27240350170507L185.41761405047822,420.9535241065934L184.3988689382166,419.60246829440996L182.14272046300056,418.00574150078734L181.7029148459418,417.8961113114274L180.23687825757918,417.88169297606197L179.09737573461973,418.3527928289345L178.4255915121907,418.4779204704242L176.18505204881063,417.72500254707967L175.73087402950733,417.34393760096555L174.27331640175083,414.8102805034661L174.2636096613329,414.7934037148066L174.0614204485816,414.09875394774747L174.00936550921682,412.84589403220684L173.61751269905034,411.6661664670053L173.31771498603177,411.1989385774607L172.3760802019592,410.3491971784779L171.837095853677,409.63301327341935L171.4517692020886,408.96784574036L171.27707652107114,408.3148588969162L171.29192603892824,407.67344371179627L171.41929186801212,407.22859028172593L171.778942893332,406.84114192289735L172.16627815850842,406.6072207738249L172.3692050049557,406.32306200607894L172.33969318622133,406.04768734338376L172.21165490571838,405.7905291252189L171.91563960370542,405.62914315460404L170.8026294195651,405.22655648707104L170.25178067787027,404.7632375564172L169.6748063116229,404.03494432775994L169.21950954450512,401.88799238150085L168.7316589384991,400.6943984978754L168.51542376938346,400.1652768972817L168.4927418835776,399.5893424033958L168.90244226582945,397.82805972506736L168.82304774795398,397.154632769134L168.51828795306625,396.71421323659575L167.1796349318895,395.643954431627L165.90647181184318,394.38381234165183L165.22178280455137,392.710097536629L164.10354080255416,391.5982815059839L163.76879556617985,390.8454172031126L163.7272748796991,390.2451417912243L163.56029014003963,389.8567525128224L162.64239711640977,388.6452587531405L161.86237420532058,388.1255226190906L161.34308168792,388.2789730626772L160.86287475428753,388.2359213058066L159.97952760327706,387.57325015013635L159.3318416748442,386.4414154600511L159.02633333523386,385.51957854055354L159.05539889981424,385.3293473733395L159.13563153587904,384.80421117654794L159.35092868175997,384.575532855941L159.6324565779288,384.27649073218686L160.15480004183178,383.0965256091607L160.20273712354344,382.7853758794343L160.09904762311334,382.6068814764484L159.99400694219247,382.46643305673854L160.05216399327952,382.00181931575116L159.9583376024542,381.67535684890674L158.914237953851,380.2991082311205L158.69118146715698,380.09494081440255L157.90806282666898,379.81833118792025L157.54737541159312,379.65352713668835L156.66774417074316,378.96263712752494L156.56863509707858,378.8575639519069L156.3466024849435,378.04768117982485L156.0499815890446,377.8333130626939L155.09691228470132,376.4060400270673L154.90095300431778,374.826841245402L153.5645896214764,372.4821255099888L153.1626721258247,372.01997896228835L151.40733491979682,371.29567949115756L150.62500156776122,370.35205791701003L150.280541691702,370.1753647341253L149.61047652747442,370.19534030759525L148.77718418867408,370.04877310348985L147.92235125814307,369.6174986574561L145.7527487285319,367.8352022314939L145.3480771089922,367.26238772820716L144.6996856359471,364.9269533605794L144.31614151362726,363.5450678964755L143.9307459342055,362.6042655605316L142.90620504142925,361.1038115184198L142.7158733525303,360.50963375847317L142.63813504988337,359.98033718849297L142.81025580298467,356.9726027767588L142.67150925612776,356.445495963649L141.12047338429062,353.17729749529366L140.97343473340266,352.8673803773166L140.91093476593994,351.97931194717955L141.30929449511228,350.8864220819007L141.33837549731334,350.5782232204758L140.59436191105158,349.3020404506193L140.80155670016063,348.72732081546894L141.11611322136338,348.0548592849119L140.65024981127658,344.98709399107133L140.6356468910838,344.53116345152097L140.87652993451405,342.73388784569806L140.66804106644878,342.0770313435095L140.65722761703802,342.04296107901104L140.03295325591506,340.07573090542314L140.05808836692648,339.9091219071669L140.47068969199142,339.37232683651104L139.87323835831847,338.28571182235305L138.89228236799164,337.01118099962264L137.55901284489653,335.6706689734948L137.37536166550393,335.5456198306286L136.91373926973665,335.6384713482084L135.82625153260784,334.67931025645134L135.3047435691704,333.8631416314005L134.063404218328,331.91994676272014L133.82703487371617,330.42980969907165L132.88195040351223,328.6104563119833L132.17167010025673,325.4389160246754L132.13886463658417,325.12136158700486L132.07558308289111,324.50875091908904L132.17761554116203,323.64681619071973L131.69051636950718,321.54555193336626L131.4694277631359,321.25431211976957L130.88577825841202,321.14970080330824L128.63826311760164,319.00040741382054L127.5321463231046,318.05585031126856L126.05421057818182,316.79342009897636L124.15255501861867,315.4989005661789L124.07127788064628,315.4435602874687L123.82944141558642,314.99883404120345L123.82389821231709,314.9245769016627L123.7738658346401,314.2542921167825L123.85322469904247,313.12866673969893L123.64651416496127,311.0246005262067L122.73902701905371,309.2130918890252L122.66503379860882,308.6436719948298L122.83611911181549,307.49583006782575L122.74577381950922,307.02572332247667L122.72364545866145,306.91057418452726L121.901722971602,304.40542345302737L121.75021863067747,303.94354210028825L121.75280129272039,302.20061257598906L121.75323575739884,301.90816403268775L121.63442097418346,301.2623527391545L121.60851622687136,301.1215399183558L121.09811214965072,300.3953601770638L120.53896550628468,299.0716627778222L120.40381859464156,296.79533018685873L120.37272876845691,296.2715216822136L119.56077830652913,294.87560486286554L119.42820836270522,294.4503541294112L119.85932501597165,293.5694310743538L119.20278558762811,292.8242834503002L118.62112434716198,292.30968951541826L117.34996079323793,292.0584101251924L116.97904815073991,291.2630413119971L115.65514607094764,290.1020596366959L115.67018415905557,289.6841140696017L115.67871344858463,289.4470620415327L114.45514350242797,287.2388591785344L113.43602447103899,287.14841781865573L111.72172541030136,285.7582644891655L109.79378955253333,285.9869368650126L107.91450839559036,286.6812969309502L106.9214479254216,286.7745202017418L105.96000351089276,285.82225084285983L103.9900464283553,285.6443208475432L103.37195176203647,285.76247481538496L102.59223022343872,286.5561334831756L102.49585119108315,286.93035516949215L101.0126036565751,287.2571999918111L100.45961649217787,287.081515004944L99.57824257606688,285.90189569798446L99.38370468394237,285.84525633696165L98.9309643147522,286.3589391317025L97.24077725030213,287.0144474964452L96.77310851067591,286.42365431035427L96.32267153074514,286.12471473156984L93.83951851848462,286.92507383656334L93.74911072946969,286.95420174682135L93.20678843016884,287.7518681932428L93.21642401017425,288.50783772412467L93.18450810987872,288.5084075274669L91.67351576265122,288.5352810229521L86.73425528346837,285.56519609529465L86.59228062676999,285.4797738210503L85.95399067045332,285.72228697957405L85.52596396047727,285.59586661129185L83.69923839995386,284.14042306334625L82.94493815878025,283.170064600897L82.40983424710527,283.0851235848877L82.33467700197633,282.9885591519088L82.06539302488596,282.64255947874665L81.96165623241092,282.17678735148866L82.07160130582736,281.2110906765305L81.81805151548951,280.827804186599L81.16148093577391,280.6072145768875L79.6313291902216,281.16668130085L78.86721941421797,280.897984406091L78.0027591710064,280.0693040671284L77.37576087894735,279.1486148306203L77.20538893548513,278.2208869246576L76.93753625909767,277.88376064519423L75.50824840887964,277.4750572800138L75.51580948065589,277.4340637896921L75.5895093468825,277.03447854152216L77.20665024378854,276.1431745435701L77.38413312951792,275.6831063454623L77.12963995230973,275.1040612633153L76.10266744569617,273.9112817393935L75.53678398438404,273.6246455440753L74.60732413816385,273.38258703830604L74.5486622820618,273.4035767548787L73.75150461423374,273.6887704544882L72.71296983739057,273.49273733939765L72.52846522240338,273.1928718640904L72.48198105691307,272.42171554587594L72.43101536658116,271.57606678501065L70.6816968568005,269.1249937625756L69.66730686419078,268.4627042578286L69.02860260394829,268.54087415480933L68.58965564436636,267.8895042625795L69.04998108640308,267.18416517989135L68.90276538449018,266.6772308440577L68.08135640991463,266.19932174534426L67.58816090933499,266.25178056454774L66.84197635834084,266.7476835232834L65.46825002113525,266.00548944054026L65.59157900675979,265.07953423305L65.64567601395953,264.67334478605846L64.66765663147959,263.32317411769225L63.611294658284805,262.57579723457286L62.933938063943174,262.1885983768021L62.2986098551537,262.0126853040633L62.024606929726644,261.8633376442351L61.96211830350205,261.60922923954894L62.074996533768115,261.11036198827554L62.42472067146764,260.6458455036485L62.81333110057227,260.190485112876L62.94531038833043,260.0496854986831L62.950780189049794,259.74984529050425L62.789146933992015,259.54029347938535L62.492780896064176,259.47190163322455L60.29090514559749,258.97742787725747L59.911976811258114,258.62856385728327L59.79948762788649,257.86233696349734L59.83492167283373,257.0991094381516L60.05336904544538,256.9412628122278L60.572900070560024,256.8544308979358L61.15142225091364,256.9244408042289L61.95814391688316,257.09735629484436L62.4446387807825,256.5514785654427L62.19221578697295,256.0710352431453L61.39481202624535,255.6631248655641L60.330330639417014,255.15043242329975L59.43340691148745,255.0885491175144L58.263490255203465,254.8376380222021L56.41546390979369,255.3230715563013L56.25395961928069,255.3654790711116L55.61464605410737,255.8577682864012L54.92205191493929,255.73593976447833L54.80694345171935,255.18235076595698L54.281052469309714,254.58898601950705L51.98891446308977,253.89925754299207L50.05857860372703,254.04998888438325L48.95076986558439,253.8287270383334L48.03797334781797,253.64632862045443L46.62255053028298,252.6717376564643L46.18679109411198,252.3716327136292L45.82974354060292,251.95885937749853L45.96194243036399,251.2328868787832L46.437514307969536,250.9699120286209L46.42082159631127,250.47826122953842L46.42412979912166,250.43070598910688L46.123818258551125,250.11017163052097L45.67515863838463,249.9733900915203L45.002835781269255,248.65863393009266L43.69025980637963,247.17441378116848L42.344614921540995,246.49935873602814L40.46081686017544,246.04039719282912L39.31931002466922,245.2882969077562L38.86731160359574,244.86983788297135L37.69054752715118,243.7801917666728L36.489809070887816,242.94362487178176L35.01270531127636,240.9097171130097L34.930422096870075,239.92610159511705L34.34081229229821,239.1913970004771L33.51110240286624,238.9869876295834L32.42602447140183,239.25830304417917L32.03697462570767,239.153304538663L31.6760723625016,237.83742983984678L31.50884735709775,237.5441428443867L31.12871560906592,237.15418961431138L30.390709324628347,236.65262511921466L29.4409539245745,236.1775926555974L28.087345279437045,236.40613020957997L27.463410804147372,236.25980840925158L27.044731622219388,235.68314310204815L27.916146258685387,234.78892324215516L27.91274950184311,234.7361707651771L27.884587145546163,234.2987791918284L27.616137188178016,233.6834962111473L26.902894104948928,232.98595289569784L25.260708330370733,232.33725343276123Z"></path></svg>