<svg id="TN" width="1000" height="1000"><path class="state" d="M25.000000000000057,602.8594925721569L25.099220963078153,602.1200046558993L25.512398904348856,600.9936533624659L26.305024794694532,599.5991847511345L26.381465744349782,599.4003671079363L26.771048570245114,598.3869454723155L26.981522596714342,598.1007453239297L27.11268477874893,598.0368702177735L27.39896704426343,597.8974396590424L30.360577235057747,598.3093240612989L30.52114125634955,598.4162448828837L30.54585085450634,598.7052317014693L30.64690927352592,598.8627328614751L31.286742271123387,599.1670866948266L34.142438340246485,599.7986777583656L34.778559368085894,600.0284104728336L35.69333614931958,600.6264843728595L35.90014037338403,600.6754338783295L36.46299726617252,600.6113103316445L37.47768685587948,599.8844270788145L37.5553296569139,599.8287948605338L38.04718990259829,599.2349579305218L38.02021502529681,598.3758911083132L38.054055975779704,597.4120236025348L38.16708244850861,596.6803835519518L38.381244174822996,595.92149907663L39.232373090740396,594.071829831018L40.18704718577982,591.9961119018362L40.88431949295625,589.215555185448L41.30022344108704,588.4257442019548L41.38195574271282,588.3503086155962L41.98296981614567,587.7955227586684L42.13503283370164,587.655135226533L42.28707995188137,587.5147539928857L42.90663501482402,587.0644158954229L43.37867980452569,586.8010004715118L44.672854879665806,586.3426426095264L44.88488013692631,586.3423013015646L45.29427102479184,586.5196297673274L48.453782907881646,588.7955239647256L49.413263317508665,589.1601740516137L50.53883458580708,589.0169001692068L50.986378838796384,588.8426973669788L51.36960601624111,588.6096742943623L52.252267891219844,587.8429140234558L52.29060950598131,587.8096010087003L52.81970341564187,587.3498480306223L53.371158782140014,586.7851418993843L53.51982695921316,586.5625184859549L53.54087114755481,586.4893949619917L53.632895656928156,586.1696183480668L53.61933665598201,585.9992277569523L53.51867487194039,584.7338685699563L53.47259776442536,584.626310309738L53.29309653332314,584.4410900821194L53.28732161967474,584.435130944838L53.21699614542251,584.3625608797374L50.90857339947303,583.8512216658903L50.631089723539105,583.7019080996411L50.264094313486794,583.1654658602756L49.936818692621785,582.6658139654427L49.58621114179982,582.1635108022356L49.35411328002397,581.7771563967234L49.10578683558231,581.2311249715858L49.098518197418684,581.1865126421408L49.01849284933303,580.6953010546985L48.807452827034126,580.6555361684993L48.48805421077941,580.2173210053442L48.19109211487762,579.3507619047904L48.19890157903171,578.9852423748085L48.42208157995452,577.9173895383524L49.21709479614725,577.8875806922726L50.47447666941963,578.5600945460907L50.57963595994045,578.5597126790593L51.00927821091568,577.4364580748249L51.612128634817736,576.234643069631L52.09181772619729,576.5331324339274L52.39873691830377,576.8634377833123L52.88826744012158,576.8051614085446L53.16236291522813,576.4960199555802L53.195568660422566,576.4585661643665L53.258462803506575,575.7027110959999L53.203887954391405,575.2373268206183L53.02186451969334,574.6855686883988L52.84468357178065,574.2095075624204L52.415718313935145,573.6325469222286L52.07520744335301,573.0782302969226L51.62622217238254,572.1651909333262L50.913541276598664,571.0539063391673L50.75504234879372,570.8508968803246L50.15943927460353,570.4160792308954L49.61373047240238,570.2202689341706L48.90799750095806,570.1278307909963L48.11287411377032,570.1837079443553L47.150615145754216,570.366139468509L46.22387143282651,570.4255071985998L45.7209363630584,570.1907804422826L44.959445904885115,569.8352797460169L44.268635559003314,568.8893911087689L43.52166186045622,567.1995219248945L43.31907194193553,566.5716555096302L43.337305523480154,566.1758933482162L43.84795192615286,564.6833143052415L44.028069226133994,564.2961023715563L44.34091037027247,563.930288277687L44.61267966222414,563.7186069554481L45.24234792891093,563.4949170022337L45.647808012229916,563.4267493174493L46.747704945083456,564.109319022554L47.55115377956065,563.936778740473L48.55080474757369,563.4522828650641L48.75514268610925,563.4652749792036L49.25958633542041,563.6560414288974L50.174888715786835,563.4984313265625L50.60406361608477,560.8489569393948L51.002662225307176,559.8133326278862L50.38421572984009,558.3562430003745L50.54589356719055,558.3941629642021L50.71761592553452,558.3297771355175L51.571454172258825,557.2306668123732L52.00609513379521,556.4962987987572L52.40461364753514,556.0768562085593L52.74037095234735,556.0445902815623L53.04847150077876,555.7399394726633L53.549754029205076,555.0193857158472L54.66511497863604,552.9997885047292L54.33857731565797,552.9306360313446L54.12870908015691,552.8116521858175L53.31418257030674,551.9989488264649L52.68982138434035,551.6174231599904L52.36849957626032,551.3338125121024L51.51847073952115,550.4280560814904L51.321384987860824,550.1624889719219L50.952144714933866,549.4214666377792L50.74935966887426,549.1955875606387L50.27690530073005,548.9542921067797L48.794529605503556,548.5753053575277L48.27332122109158,548.6450310700267L47.955181626485,548.8236286532067L47.51038951247216,549.1954325293894L47.29538058425737,549.4388694507148L47.087726007394565,549.8221096008137L46.926225430418526,550.3958971384269L46.921650353265875,550.9939002417284L47.11835454455991,552.0264581371847L47.900041423749485,553.569709758231L46.8395910852127,553.7759099982658L44.480825560330175,553.6014748242798L43.82808879836131,553.1569465015431L43.20994618801308,552.5135960852061L43.13628672706773,552.0856628919623L44.312582367335665,548.7749261281135L44.3999057873707,547.6513053597516L44.60863781042718,547.1882724097205L47.92862507279699,545.4183080481256L49.16428577475875,544.7588980581986L50.02377896369802,542.3745495531107L50.35587304811543,541.5946005479462L50.62971702378667,541.1973972393369L51.10236457584722,540.7281859985632L51.881493584549844,540.1714930765319L52.5397263514123,540.2215559986221L52.89082714048669,540.0125099335659L53.83932789786883,540.0549960764675L54.407049510224,540.0803569959178L54.92824084104018,540.3860256310104L55.75440825146967,541.2703995575542L56.19509949779791,541.9162597760433L56.25558065227858,542.1097324209579L56.213435286490494,542.6349748044262L55.66314322680677,544.0454050125227L55.26474799548339,545.4806849226939L55.21224799330099,546.2441002161182L55.507134868059495,547.7205746308971L56.378004719724515,548.8833345390922L55.51305564210912,549.7632381571402L56.972082516179455,552.4084861731383L56.98733141086075,552.4031754872095L57.97686826065342,552.0584576532043L58.07852324646086,552.0230342531216L58.475363685547165,551.5506624804873L58.08978574337351,551.4304097668197L56.87072911352084,550.4686739444605L58.063666728266924,549.2957633734129L58.22850927329222,548.9700704721017L58.3827888190973,548.4628448933073L58.5748886371739,548.2020455896579L58.81877502195954,547.987969662367L59.8543714348732,547.4101120433444L59.924073769300776,546.8813163116804L60.17289997002695,546.3976066099231L60.410756168481726,546.0527150490942L60.51720841290478,545.7581239997392L60.524526832311494,545.1092390638352L60.5829365605307,544.7153491532424L60.90060461284355,543.8543100929897L61.16933554362902,543.4474422479925L61.59098565607246,542.4612225497237L61.59530039688633,542.2687529550519L61.6000941279558,542.05493255265L61.4684079487123,541.7120991272282L59.94924740321733,540.1900051112758L59.10888387133974,538.5561671496753L58.89387214383453,537.9653476182039L58.663769133262576,536.8848194000319L58.56676648692604,535.3917990517202L58.75978944554032,534.4538171023177L59.14079832023799,533.4801474454397L59.32228462286349,533.210900729862L59.68114253321187,532.4433038775996L60.01946121803155,531.0261887984467L60.27449824002355,530.7314210809949L60.8177496021525,530.3434406367799L61.309852896246696,530.129305224701L61.83954674192245,530.0158501678662L62.35732530517981,530.0826291207369L62.563280656594486,530.109179386977L63.25769304856931,529.7311083607931L63.59347239738213,529.6222195390018L64.50568518990775,529.5498666438588L64.62809789580638,529.5401471158139L65.28855486316468,529.6353299167072L65.68040803972366,529.7600867456739L67.06587888176136,530.6890997179876L68.92466084010931,532.4645037659546L69.10211425691074,532.7935395171531L69.17759317406927,533.458683685732L69.15096661625421,533.6344897407037L68.90807441084655,534.0394696927498L68.88530928216312,534.4372887877294L69.02241359200275,534.6635920744882L69.5528146523281,535.2049732375948L69.89479276824619,535.4685655806054L70.21804177068998,535.5847319892387L71.43029798025742,535.7738526376314L71.47017265667682,535.7800692378992L72.58854498048981,536.410515063737L73.00650193867386,536.5129267600256L73.45109671123845,536.3709787950219L73.85359346538257,536.0844868533468L74.20148956747357,535.6792274122798L74.37228001580559,535.3638144152661L74.88507756336207,533.8672853613928L74.84183442664505,533.6568476931662L74.71970628809197,533.5031049118397L74.51809470697549,533.3804231819051L74.32863959338226,533.323292076641L74.26486731264191,533.3294251902179L74.02943187689357,533.3520617732509L73.98789199797972,533.331065275267L73.98508327523672,533.2123324106502L74.04225419479934,533.1137185379408L74.11726808069591,533.0710836708047L74.30530677963816,532.7711126913664L74.54506718482588,532.7643119286299L74.58889371433804,532.606602081491L74.58938695623829,532.5021031330785L74.54392434549845,532.4168943077409L74.49778896124093,532.1842422784687L74.40170511234123,531.9587883428528L74.28976115107184,531.8444822917955L73.98514787240617,531.7161127565221L73.82639684180327,531.6996950017325L73.6616565961499,531.6536333497859L73.31607405973938,531.6376477172174L72.79008883763208,531.5047473753197L72.25195222863186,531.3367350015516L70.93952256076926,530.571549144236L70.60128543822384,530.0392699714632L70.39170078245894,529.58064185431L69.69637631273815,527.8394005427714L69.46801218021028,527.0933172127765L69.36727708364805,526.5327000519867L69.38561754136305,526.2941363489456L69.54014037459933,525.8618269388769L69.85952814555316,525.3716196582212L70.21773135002672,524.9554503716927L70.88588643014236,524.4375338375205L72.36131561896781,523.6805433139413L73.27192580249141,523.366472064767L73.81761242091534,523.1781877857L74.67902491695986,522.5771024712881L74.84667941030347,522.5222512540103L75.34780715426456,522.74301983282L76.02582358856898,522.9331120456701L76.33158831177275,522.9766688957124L76.62934106863383,522.9065431731256L78.68365355119806,521.5230091201613L80.11399514622889,521.0498092929004L80.94367816547975,520.6041915998545L81.27621169215303,520.1057752902739L81.35608877993855,519.8760540344057L81.53794113671614,519.3530125629677L81.5539394720928,519.3069952885437L81.7097441267415,518.5081748667319L81.73593325845326,517.5276110797137L81.52613945478765,516.7529924105738L80.97990858624695,515.8998771487358L80.73070189775257,515.7479076452879L80.34781133163119,515.6804619145602L79.52914639484919,515.8875001249572L78.95039457043123,516.1710058397854L78.7878763622146,516.3397676486053L78.24598132248298,517.3061274976776L78.00164443588545,517.6111699683454L77.7639171542694,517.7961584660438L77.3649050383288,517.9382668060257L76.42702621370074,518.0839141507824L75.63329042520405,518.0012291735088L74.6260120129719,517.7151527635427L73.84176514600995,517.3241856144856L72.97066179151057,516.6230580216343L72.80512750743333,516.4162413757981L72.32105783978909,515.8113600241088L71.81715419561533,514.5000408420938L71.05961835070616,513.4578169891303L70.74850140223936,512.8962840379228L70.7289174277625,512.8470373538402L70.5154126213128,512.3101005507438L70.46553394605553,511.6456451690271L70.5676157562537,509.4516231078031L70.49928509864088,508.41283608509525L70.45850185103905,507.79259868619926L70.51338839665641,507.26996244424527L70.8297298088392,506.5183721111323L71.10313217860624,506.1589043150433L71.53020595335681,505.869144265249L72.17826758889032,505.545422335284L75.49136515930115,503.88898368610694L75.7707316973412,503.58262128457835L76.13289977152095,503.32099861799236L76.48224198169254,503.3754642571957L76.61952120951031,503.3968617875605L78.45109887260884,504.73245863553734L78.91625134975891,505.4534319156866L79.57535117975493,505.9857097850387L80.0592677257078,506.0254013708389L81.09760350244937,505.23513474644915L81.79578138208751,504.940930574638L83.09114797488786,504.2530278860776L84.56099932482908,504.45610594589374L85.44318451790701,504.40037810624085L85.85858386278306,504.28993573375L86.62766347933507,503.89907715203003L86.8095643096836,503.74546918574373L87.23276805763066,503.3333602604565L88.42544469278374,501.9041717048561L88.68555631656346,501.28476367810265L88.725972573315,500.94352922561296L88.52428273843094,500.1361739570299L88.88976250157054,499.574047579248L90.58506196784077,498.0102836987377L92.4133679880236,497.51970402069196L92.42891130138372,497.28972199936965L93.25253666057796,497.4478853804413L94.84406312144984,498.1678100028275L95.83223114023468,498.17856398973663L97.02299510939241,497.8142149599556L97.34132443445304,497.5997984432447L97.42568908276996,497.5429684432611L98.9966103542709,496.7265006708046L99.2552210702184,496.46751698141105L99.49339248566253,495.9985309139416L99.52000929483142,495.9461157486814L99.62929692081235,495.4111687875008L99.61170687147938,495.0357968927054L99.47526321233624,494.59774376249266L99.32692364220094,494.3754617490947L98.81417657483917,493.912771438292L96.66397019951296,492.6011410274148L94.52528613848966,491.7506182011758L92.93402051065408,490.9276905704448L92.40498696449623,490.45540170993337L92.0993229390404,489.95656936047544L92.02776534648922,489.6363593654807L92.03313424810074,489.0571822116098L92.14799858741924,488.44720842326325L92.30011993010038,487.9842724362114L92.68352559945185,487.06607121860975L93.05580672762557,486.4596497395708L94.13761206047633,485.6077488490065L94.30451845900632,485.50347329186343L95.8580644377135,484.53254186589646L98.73379603594304,484.7723442551304L101.59271858967304,486.2032598200633L102.2294717366724,487.18433527913527L102.72206932729904,487.79255315171116L103.51967223887573,488.170269833507L103.90666263567289,488.24899257826837L105.01731464988893,487.6016977648278L105.9231190407765,486.8884599911763L106.23524103160793,487.22513404170235L106.36586472053597,486.77658499761424L106.16875957142514,486.0842170713619L106.39268402303418,485.4802862523528L106.21642154523869,484.9740424197648L105.8962942620031,483.6281087174778L105.71299121003574,483.12014047797345L105.32399985297155,482.50782280668506L103.76500725703931,481.06260824109813L103.20052073605586,480.38622507030175L102.1306201814902,479.3501694355292L100.76530272527793,478.40901867247436L99.67901715576431,477.56334290551075L99.23044994262364,477.1018072098654L98.81005992276602,476.365257145412L98.73488964216438,476.0007538049542L98.73268504719704,475.50166714183763L98.94403505949646,474.105310469916L98.91165443679171,473.9731357684132L97.95939594890865,472.8874416816948L97.68279873127551,472.42221104149274L97.50782951196715,471.90640913472294L100.36900257349396,472.0262137559815L100.53842502770073,471.48920607042487L100.7926544763344,471.09477558912226L102.10822560719367,469.48336780756676L102.59926482540322,468.3294574106238L102.78199208824196,467.6886083619258L103.0821790938607,466.1018094013837L103.22979876429775,465.32130811837925L103.6656031648833,462.55471085458043L103.95532348700345,461.1962056746327L104.10405468110957,460.9149075157674L104.85441412723696,459.98394873395046L105.5252393095007,459.4864339633244L106.52059202966814,459.0943450166724L108.15723982292724,458.5815831457115L109.78660338032819,458.2384379332047L110.14833577652217,458.0863598886554L110.58360081479071,457.8147872898751L111.27713904930414,457.38196988181795L111.52973293227922,457.2660590029973L112.75875280372247,456.70188698383106L113.1024612389748,456.4092153514958L113.68326281512753,455.7099990395375L113.80397578443376,455.37733545893866L113.95529122563613,454.582361528753L114.07472869014686,453.4444500611995L114.05576831632777,452.62819773458324L113.85837489981816,451.8947309903069L113.22382229110991,450.62694788102505L112.60743948723768,449.6957543350592L111.88906855520867,448.91408897361924L111.45399842658873,448.4405662018185L110.87178051957301,447.97919662025276L110.27473070859924,447.6397528890047L109.49292550020289,447.11165510709463L108.674035220387,446.36745211980667L107.63513684788512,445.3020772078611L107.29052152756736,445.041900122305L106.66633835713606,444.57056167989924L105.79384067556492,443.82734804461586L105.06532976043866,443.2065805533905L104.49281274428648,442.6542602112932L103.71474081745788,441.903422329023L102.99531548817356,441.06821547582064L102.92302864812171,440.9698524955172L102.51257338118518,440.41126752507284L102.43537556153404,440.25795278885414L102.41582296467573,440.0447686054958L102.45346374345615,439.80874135030473L102.6789506559262,439.3469396679385L103.02128338740346,438.845372058097L103.11997740464244,438.70075616139087L103.27326185524277,438.4114157028774L103.65270412639268,438.1397568701355L103.80775614915831,438.1830978743134L104.07391619826217,438.25748625568065L104.60536287493954,438.6365342737019L105.48484621626278,438.8535953697755L108.27774161514219,438.6913951303306L109.39142664574564,438.9192353492222L109.96635579309128,439.1428292480448L111.27387150141203,439.86396866118764L112.68492358972378,440.4907492319191L113.18141725907049,440.64679907923585L113.62926950416977,440.70253181299404L115.2755707389997,440.61046913773725L116.36016229534965,440.2967290156427L116.76530857552984,440.1060350665977L117.7835785542211,439.3224197675179L118.09331865282411,439.2261507132579L118.55235049166714,439.23484318684336L119.02825367310282,439.3558505725076L119.51307195230777,439.6726744638769L119.96507154487705,439.7949645956612L120.30746873725303,439.7592308911904L120.57448914871657,439.6485336531263L121.09024541791484,439.16990482712663L121.18595387690027,437.9281217238075L121.14108369702382,436.74436840166175L120.98243321485427,436.22031783916725L120.94386125407954,436.09289498412926L120.76288067032482,435.8003750416873L120.2096095426549,435.35159857724153L120.01614903930766,435.34326103644L119.71637514139655,435.55462394942697L119.15812603683531,435.6581147437938L116.61054232282612,434.0855769900847L116.01448676169093,433.3727821034345L115.44594669328848,432.8708510822549L113.15287868854705,431.0807904249918L112.43764958568892,429.4671109355987L112.35357118335804,429.18135644810513L112.34544785595921,429.15374661608774L112.4455959105411,428.27594767010265L112.92577185136702,427.4202341542122L113.51830891844992,426.86575541259674L114.07670839046693,426.65576930612076L114.6382043497037,426.5865340677678L116.68396375009866,426.7882875770529L118.94772407468236,427.5397297775944L120.61459979699066,427.76044366920723L121.37118308359163,427.71022320943825L122.06310669943463,427.51269473138444L122.60134475315851,427.2142300893927L123.09484811976529,426.82178238294944L123.52426478746526,426.33104769851263L124.24047685506497,424.84527696889984L124.51700221300888,423.7874878135454L124.71814501001495,423.0179026671808L124.74029937545203,422.868439771532L124.74671132102611,422.8251812796183L124.68230244542849,422.37720829434033L124.3438129406806,421.4759527592954L123.2325199547513,419.3137483185071L121.53513318202533,416.5649529050635L121.35827315292056,416.0716396385785L121.27205302593387,415.6085459215024L121.27264485071817,415.1198516159452L121.35242552598675,414.55546481198553L121.56075135930581,414.0469202550605L121.8565401043868,413.68716829947437L123.40296786643654,412.42635982676245L123.64687248215813,412.109950887802L123.8570392456636,411.7734377198517L124.1576505387522,411.0667423425248L124.33646671618516,410.3929348928362L124.3541546463365,410.1628330429703L124.42338251310741,409.26219889209034L124.32440040112391,408.818349519587L124.12448929380855,408.4514302948836L122.91955009620199,407.01782391962655L122.53054411751015,406.2540389394378L122.4597152891605,406.1149514850452L126.91237370471777,406.36987657590623L127.50596197922073,406.4178779011972L128.2724254720353,406.4985736424875L128.11488088553534,406.8320657523841L127.26032382431089,408.9773580229529L127.1585652564292,409.33974519258413L127.15691416133268,409.71025047978407L127.22855665963806,410.13258473033335L127.46777867598803,410.7659109409865L127.9206412121668,411.3182337032413L128.9402160070369,411.8837080669968L129.4548080027261,412.0260533192843L130.27470365495543,412.04573636298545L130.68388398768258,411.93986256426456L131.50279576885157,411.5603599509862L132.0248961623625,411.16591511132617L133.36442219889176,409.8881857698665L134.2247476003024,408.93086648356734L134.96817019455938,407.9586789004469L135.34398751822192,407.37002459981L135.65090935656622,406.69672859971155L137.0963443417503,406.7571352344088L138.48711381596786,406.8401675938136L139.49438597452377,406.761475333279L139.68146418056637,406.7237218419382L142.23377840472602,406.6195169471191L143.3801217215318,406.5432787171174L143.38040549892725,406.54325981764157L148.35581272512593,406.2729293908459L150.29756832764986,406.422760210926L150.64237213777898,406.47710585049356L153.09947232935366,406.64332584576766L157.95331983036147,406.9687795751224L163.1333803150938,407.376556587498L163.1555186082416,407.3781930657725L163.47591549004778,407.4021245017129L167.82300746140953,407.7251597720795L167.8444240239201,407.72674358551103L168.0893720284011,407.74462252622743L171.0498124952087,407.91667856424596L172.96743296468696,408.0279112290792L172.99832759459667,408.02969837255415L174.4302143832793,408.11059279938877L177.04831251686483,408.26097874276786L179.65213676474878,408.4176357609055L179.66481584836743,408.41839587717914L180.055483115885,408.4401959890969L180.78643412908036,408.4812350795693L184.63285199000035,408.71916451646285L184.66583531862187,408.7206662241814L189.45974387901424,408.93704290282767L191.658752102778,409.03504311503946L191.67656960913246,409.0366081104054L192.19363276354494,409.082001465103L192.76426472682,409.1320466469816L193.2729415105075,409.1766131501666L194.22524347927072,409.129840180908L194.34080891188353,409.12415402003467L194.66412048505742,409.1338217887845L194.66917462131,409.1339727841238L196.01088810480508,409.17391017955816L196.44790981491326,409.1868552728886L198.47302760465902,409.24643574100395L198.65474744899626,409.2517494292437L198.6807011876778,409.25250790638404L199.47261001100873,409.2954113162231L199.50387156110946,409.297102879038L200.61199603485005,409.3500313381522L202.4689729494429,409.4382789231739L208.10184070882764,409.6683277498689L208.15524754162635,409.6709374617281L211.59011108612432,409.8378038946606L211.59138033798368,409.8378651994612L217.40796880781625,410.1335362544819L217.443837395401,410.1353424126262L226.51350981392312,410.53862954098133L229.98480004154592,410.69078630274L230.0173185272829,410.69258448906766L233.09502036867272,410.8619917156493L233.10382585113027,410.8621272529101L233.5451811009847,410.8689045967816L233.58279865685972,410.87694174978924L236.0379864246134,411.02235598440154L236.0525684526353,411.0229489373874L237.8388815418041,411.0953241397306L240.0044095102609,411.1969106610402L240.26328905045196,411.17562300798613L242.43225377614695,411.283043269138L243.91900390875736,411.35623275435154L253.1764975428321,411.7164264467033L253.22055834323604,411.7185004374547L253.68936364832965,411.7405480156281L253.706955345908,411.74137464279795L254.24422099106832,411.7667369607883L254.25872059285348,411.7674207807497L255.49943622161527,411.8254734349263L269.91605569686214,412.4816166566896L274.0624425811411,412.66405596480183L275.1827599622484,412.712868493114L279.4176147503602,412.9443163130443L283.1959811005465,413.1483439132657L283.2053502697397,413.1488469410968L283.5136161595209,412.76401815112257L284.0885218838361,412.23837083962206L284.74406867648247,411.40528738455794L284.9373633413465,410.94721688429274L285.0066245327689,410.4129792199669L284.9651587545285,409.98259016073246L285.0368118961539,409.61175948857823L285.1985021336646,409.3297057297218L285.40556577908876,408.634162780318L285.6213182284258,407.3550280633853L285.5234902414535,405.8607488140146L285.36633503636955,404.50870536582875L284.9781748740947,403.0093070450433L284.85381750746967,401.47842699321495L284.5046307435689,398.93437419840404L283.4698775374869,395.19634270058134L283.4922469568198,394.7541019834471L283.50546639579096,394.49274343866296L283.36979182417264,393.83854817764393L283.2150533344167,393.4603939892069L282.6175625168122,392.4277269629601L282.2430119289048,391.219591508318L282.0671013483958,388.74218626780953L284.84386488542526,388.84375649019563L288.395904619906,389.07751356605564L299.09069864144203,390.5241603245903L299.1306780901644,390.52953224392746L303.4193345514143,391.10423140042894L305.84068865035715,391.35534440105573L305.34009765560086,395.44056188195157L311.3940029306129,395.3956659952886L311.39644404536614,395.395646686898L317.0540004702767,395.3482872535992L322.51593755141704,395.3560322124365L328.24395674636264,395.3589309500866L328.24439961141263,395.3589332084442L336.47424139647694,395.39538066843147L336.67673054595065,395.3997042311866L346.110998377075,395.44190019032266L346.13392065131825,395.44198504627514L347.0589909000153,395.4453380943103L347.70659428376774,395.4476024227613L348.70747461561473,395.4509675108721L349.3854469451147,395.4531541801453L350.3399510921891,395.4561057610542L350.35975404574924,395.45584046667204L350.3601973398836,395.4558345272497L351.45262902941863,395.4411003978897L351.58201365742553,395.43934243917914L352.73695966246987,395.4610686082066L352.73836620455836,395.4610845749896L352.7384276571533,395.4610852725797L353.2617422890555,395.4670034479882L354.4594063521844,395.4803798560988L358.98554293500865,395.52881957875434L359.04580062955426,395.52944194470734L359.917336921737,395.5383773359807L360.31310565451827,395.5358893017442L361.1930606654562,395.54681318601996L363.46329793331086,395.57441329593667L367.07354293309,395.6165739400956L367.40893521725803,395.627844688116L367.75247869125144,395.6317301376424L370.7277097123634,395.6645749538857L372.5216259818271,395.6863034522957L372.5763684228689,395.68620931843884L375.48783901857337,395.71429602882944L376.0922976931854,395.719953975748L376.1141510549025,395.7201574154079L378.63755984473494,395.7431251285964L381.1666074150046,395.76510273068163L385.05018095282,395.7968215423175L385.05095747383837,395.79682763866595L390.89555434196984,395.76457679870856L396.2210890171219,395.73034171178733L398.8187554398547,395.68886732496486L399.528991737707,395.6773361143712L406.12596857104205,395.56629858571307L407.5520749509975,395.5413619585656L407.61258526321706,395.5356297069377L413.1999344085899,395.5093757443667L413.22474716828856,395.50911808414577L414.3810248267749,395.49699975875586L415.4793212222782,395.48528724701185L417.0719591091966,395.4408804194529L417.3115747506298,395.4316803709133L417.65140281263336,395.4445454092631L422.43606135941377,395.33055181777615L423.021950428928,395.3163364130777L423.4942767197157,395.30483559915456L428.3663433462158,395.2944396990979L432.11399158402327,395.19694711991457L434.92682164460393,395.12226741118L439.9600034770916,394.98541548665474L440.10594240218893,394.9836486548377L441.7398512624533,394.94217501253746L443.72511087155016,396.7832054260143L443.72536059868975,396.7834369146396L444.5109555268629,397.51153765497895L444.5402396609318,397.4988529985068L445.90074431072344,396.90933939858536L446.0376345810683,395.99056631472706L446.0541757028509,395.99349301323116L446.5047314710756,396.0731939632361L446.7568249339107,396.11777282196795L446.71329719367793,396.56890686680083L447.3488129553466,396.30942579254815L450.60504436970007,394.97859910014364L454.2587658417289,395.09046323287185L454.3041874286084,395.09184016773895L454.31325559257994,395.0911870626518L454.44528760546046,395.0797658905258L454.8439201019191,395.07011114176566L455.79630492664086,395.0978861484159L458.83652065761214,395.185559245727L461.00810317511264,395.2472592237716L461.0441262688247,395.2482762382093L464.93654412015763,395.356920262264L465.0668474855238,395.31351804037115L466.6547620201895,395.3517636007228L469.46366479513364,395.4950902768703L473.4434933162006,395.92016558623413L473.748865106499,395.95267298186604L476.8730367956611,396.1928614701814L481.43706216111036,396.54086049795717L481.76852798361944,396.549116791122L482.05696906855025,396.57925439862277L482.0814983702604,396.58834592747803L483.23855237824847,396.6855664508396L483.3043464824069,396.6910881163768L484.09111747970746,396.7398798892848L487.6036142498951,396.93815878589214L491.5918057836908,397.16084038752615L493.0565367468902,397.24196988243364L495.24027343127074,397.3622717195796L496.57857504853916,397.4356126602688L496.7165121718176,397.422579185532L501.2862827491356,397.82115379217225L501.851012806443,397.87063905519506L501.89089411983707,397.8766060834328L507.9780733669736,398.073536778509L508.03944940542016,398.0754915982638L508.4027542611748,398.08705022393764L509.75310571633537,398.1298231024978L513.9940990856319,398.3739123640589L514.1273779227382,398.3815354360588L519.0586254592354,398.661539552411L523.562506384148,398.83687856043014L523.5839566744245,398.83635867569075L526.8757275714029,398.755687662965L528.2637518187133,398.8190945967912L528.2672094545459,398.8191678805658L532.9553276879982,398.91673819622895L534.398435025676,398.9460511456837L540.2420849780915,399.1854045686371L541.5248148780817,399.20025450395184L541.5862236908793,399.2009586969038L550.0443705114276,399.29207913510015L553.8306417998743,399.3290915248764L553.8884227706644,399.33568162199293L558.5221960935258,399.33578643314087L559.2027571181504,399.3355072064888L560.7084755378683,399.3346212666799L566.3085991269711,398.77208009495496L566.9891378566916,398.7033653336732L568.798743019405,398.57975479039345L577.3469613861611,397.98857872586694L578.365682892005,397.75506106808353L580.9846771254091,397.72241844976895L581.4486543278035,397.52715110534933L581.4620210922719,397.5249827513918L582.0351172171177,397.43198670911056L583.574028745562,397.3949218077695L583.5830861549061,397.39470251557884L583.5836225167975,397.394700741109L590.3878180187529,397.3684176314324L591.4093578103943,397.36382029565834L592.322562812693,397.3595665543684L593.1920460367652,397.37472733081313L595.0491640521487,397.40669621046544L603.0468210359844,397.5379444541965L604.0972753782546,397.59138170073135L610.7767521560121,397.7835677699326L614.9078609787186,398.04731701084756L616.1611597096805,398.1673447115937L619.5106866979991,398.4868515878459L622.9053353149485,398.7064035133468L628.6256738169905,399.07209336559845L628.6236424118947,399.08116676403586L630.4283972343429,399.20869071075003L634.6810027909195,399.21041605959584L636.6654928875785,399.2759026163464L636.6718275924118,399.2761106270566L637.4160287432071,399.27750242591185L652.1424441409364,399.28648643566225L654.0100595013199,399.2851015167192L656.1461146955062,399.3270430121699L660.7744257603623,399.415367885729L662.8583651744079,399.4539967538967L665.2568482879436,399.34943493264257L667.5221754446401,399.24981542535886L672.8738351327577,399.14308249129977L673.6914730391162,399.12636461019724L674.09516995283,399.12508690154937L674.0953305989076,399.12508638781935L674.4158914761505,399.12405288867944L674.5271207963743,399.12369036990253L676.3425586025685,399.1174886143626L692.2492379541785,399.04019009426645L693.3110380889327,398.9878971370815L693.3116836481848,398.98786528767204L696.9823386119596,398.824799222238L696.9972832974546,398.8243838339167L697.0364635300388,398.8232946444282L699.7926777298904,398.74604532979134L700.1925411829641,398.7347353554127L705.3500751467465,398.5865201434575L705.9048750909465,398.5703181684983L707.7659595773193,398.515601875434L707.9152273492838,398.51217256214437L710.235859073382,398.4583907557583L710.3371999075184,398.4560221303082L716.0375972563711,398.3200924864153L719.249418266819,398.24117189642527L722.8554628229513,398.1505608929836L722.8804520886953,398.15056021543666L729.0292094799173,398.14730164460127L732.9597187898212,398.1419919862342L738.7931104076395,398.06620613123727L744.3550495278444,397.988784593975L754.9666279963708,397.6758854821643L754.9757078537225,397.6756098874466L755.1694707924141,397.4238753654856L755.2921513741601,397.0408774602721L755.7463178124242,396.34592873735676L756.11206097584,396.07276315687085L756.3552610656747,395.72451839219775L756.4523282517903,395.5446779380828L756.504476380182,395.44805659243946L756.5141655582405,395.150958108591L756.557423109002,395.14878641668406L757.0810393986014,395.12247465148226L757.0826515979614,395.1268441102931L758.1377517258347,395.1177713450081L759.2887128296537,395.10766741998907L759.7358051655366,395.1036843301313L761.9086464328379,395.22794999023046L762.2260992411045,395.24604043093996L762.2835015485969,395.24401917226373L762.2880510805196,395.2438589504708L765.1854174110682,395.1411359403514L769.332337956957,394.991728293689L778.4723173815307,394.5486666425025L780.2632346236734,394.45526514234655L788.9588251076538,393.99431128450607L791.9873865092616,393.80408847493953L796.141388940229,393.5407341347289L798.6624636910003,393.3795256720043L799.5900563301906,393.319949397089L801.261189675552,393.80868691853743L802.4253587166647,393.7387552929703L802.4693196672622,393.74134063094306L802.5740482393944,393.745187912122L805.105074700145,393.6054402193569L806.6031265329059,393.52223348380835L810.5871306782126,393.299162763792L818.4534151055293,392.8510933098785L826.3650292219806,392.3902311749538L826.4847761944181,392.38942190903333L831.0287434770382,392.1374511766166L833.5507708929811,391.9961432093954L841.502710619382,391.5437883201743L847.7086616600334,391.12162227043575L847.9409674946698,391.107346672055L861.8200314240489,390.2384217650158L862.2259083247413,390.21253640328865L863.0489675669605,390.15948023457025L863.9399906414199,390.1019178993325L866.7199617210396,389.9017591190235L866.7227846695472,389.9015552216288L867.0669008457144,389.87669042734774L869.0225820473281,389.73500994840504L871.4964359305418,389.5548913912467L871.5470168566039,389.5511981769086L871.5575564293493,389.550428567156L873.2330839109985,389.4091591364541L873.8256328722352,389.35908880047174L875.359300850483,389.2292258270501L875.5451041961726,389.2134666990472L875.5454806360278,389.21343476509844L875.6544595165878,389.20418894522686L876.7357275901329,389.1123478068247L876.8758350038589,389.1029908218564L877.4657562990885,389.0533104649393L878.0170138843848,389.0066692332507L878.4034647717506,388.9739422945169L881.4510110639521,388.71499744233574L883.973852860767,388.4994800048221L884.6836373910958,388.43865689703296L884.7094285669357,388.43778023341315L885.609285819931,388.40712538542857L886.9184916473405,388.4669358593225L887.0227376036271,388.45885908698L895.501529498079,387.79596353755915L905.1826033426661,387.0246317396157L905.4902440567969,387.0024334879598L905.5267444576939,386.99979871966434L907.8054330510549,386.8348797360338L908.7797590738305,386.7641034127515L910.8815418059701,386.61089686258896L910.9778205741993,386.6038613963672L911.853670990529,386.53978973981253L912.7597610521841,386.47337350062605L912.8606831674822,386.46590278016095L913.1055348228924,386.45120018700294L913.2911936626133,386.4251495963959L914.4441692054716,386.33493740221576L914.4818212379707,386.34023094871577L914.4997499903989,386.3427514904518L914.6619329430014,386.33637471698535L915.8368502615622,386.2900506333055L916.5425038163335,386.2621201488616L916.739178971389,386.25432106186224L916.7411792573735,386.25424170875067L916.8759287416814,386.2488945742869L917.7046517572569,386.22155452665027L917.7132817317108,386.22126922936644L917.7841252683362,386.22010909743835L917.7843103322693,386.22010606575407L918.0769926342057,386.2153044268253L918.0910984229176,386.21507265968256L918.4443672289058,386.2107947809549L918.4594722211957,386.2096291693357L920.1168931745736,386.08150288007187L920.8900910489153,386.0215768266486L920.9485040755048,386.01704558582367L921.1804897324864,385.99379916089754L921.4497049508477,385.9746489774569L922.2607056854812,385.91688793851085L925.5677600183401,385.6802364551613L926.1649599018564,385.63730987564617L926.8213932127749,385.59005812805003L931.3968285017388,385.25874344013L932.1509310561028,385.20380803094093L935.0877176378592,384.98897780423863L935.6516209679444,384.9475655283768L944.2768228118744,384.3076406311866L945.2847749715386,381.2611471484097L945.5990900416673,381.24479990834806L951.0275223752153,380.95992298567444L955.6259155887667,380.71483495733344L961.687084558167,380.38355629618104L963.4002759246528,380.288830820724L965.308174883654,380.1827744579475L975,379.4490216544546L971.9671935580299,382.9116661391022L971.715812749741,383.28314397126485L971.8483777402523,383.88923671539607L971.9072060687047,384.15818079706435L972.1508362327227,384.747123426178L972.2131164121557,385.23980363611315L971.924039579645,385.5470869341327L971.2318159909512,385.69854702577743L970.8137944457262,385.62492393618555L970.6020580527477,386.04322767839693L970.6721916461242,386.4495898873321L970.9249900118568,386.8408192537651L971.0756509168214,387.3321128297098L971.0185078806498,387.8441480652457L970.6414676806924,388.2897264545296L970.2953823066127,388.95592406722744L970.085411014659,389.6002958745018L970.1171453849695,389.9872253034511L969.2617480047259,390.14103482321457L969.2745041246101,390.6930470344472L969.4147920312801,391.49335919087764L969.5074126978993,391.6052034901414L970.0205653436166,392.22478270016984L970.291493738893,392.894940408555L970.3524427243211,393.02931131714405L970.4195183287713,393.19599775406755L970.4514060477513,393.37961787204466L970.6685618370755,393.77452579357384L970.6693490669222,393.8965525842289L970.756725793326,394.24823328170555L970.6924691775404,394.3647973176831L970.5170561551226,394.81112256395596L970.4873765553543,394.86623268782864L970.5478507253736,395.19313191166384L970.7359847821294,395.28534596459946L970.8357354126942,395.3982390878344L970.8561641193596,395.42135876996633L970.9323773080814,395.7862833969179L971.0524470450716,396.02131837909326L970.9789470428907,396.9515775115126L971.1892685430005,398.1824151725758L971.3573651554343,398.3085716906697L971.4023123767092,398.46429639971444L971.377553540263,399.19196658476176L971.3711445691881,399.20336468481884L971.3705607696133,399.20440294696846L971.1249770234851,399.6411308432054L970.9988913711229,399.75713473929613L970.7961061273022,399.73958934018134L970.0440448152817,400.0707768908325L969.3818546044583,400.8001352516513L969.4034444729618,401.3192507137312L969.4038666669514,401.32042005379384L969.5165609288239,401.6325353074385L969.617402152275,402.14641312610564L969.2385880718837,402.44157003490074L969.2806528923412,402.6090721138657L969.6309211553212,402.9096130912453L969.5278462293527,403.3081845180209L969.6378787624924,403.4970289914683L968.9528196292046,403.9800760256877L969.3878658317365,404.4245631597055L969.3649570377713,404.64713458587323L969.1831604735733,405.3166657240805L969.1313199210412,405.5075599527018L968.842806289528,405.57167120481233L968.8016481962513,405.8095313037561L968.4652644960097,405.91497161506106L968.4462000578203,406.126566377125L968.2738821527624,406.2355050686583L968.216366192386,406.54390723682945L967.8474894426544,406.64628661426457L967.7649780553302,406.86183972847084L967.7747480152389,406.9617432756447L967.655108898007,407.011362542698L967.4395912510149,406.8546811753184L967.0821839934126,406.94459117118095L966.9607675755664,407.24926635046995L967.1942035799495,407.61551292122994L967.1846631282549,408.0545232885364L967.1044360145306,408.1382352256069L967.1140552574716,408.2899327049354L967.1868715337034,408.37187529933215L967.2066983755914,408.47516144771174L967.3166836350265,408.4856786295198L967.4282128907987,408.52986337225224L967.4020391381442,408.92753739586965L967.4914868854842,409.39016533764254L968.0173633642999,409.37884007335026L968.3370180100912,409.442148001047L968.627522260321,409.7790157530663L968.4786718866105,410.11968135581253L968.5143179964249,410.4393582591615L968.6097553865119,410.54325056501284L968.4841279213534,410.9127288560105L968.1861217702549,411.0599209994759L968.1021401461185,411.39991198507846L968.3577080991703,411.6012338422193L968.5336990010791,412.10948295646335L969.1415079009107,412.7588422067402L969.4120784473591,413.3587862119926L969.4492899282156,413.8144474257676L969.454236028779,414.23908380504355L969.6065187673129,414.6314131047418L969.8365486628525,415.0992205330306L970.3119975123258,415.5185673399478L970.7754429529332,415.63212554152545L971.2724754667374,415.62617643513715L971.3724842063502,415.671405194616L971.6872781803728,416.20758358686976L971.6520655433919,416.6644039504159L971.5569852768278,416.84033092051527L971.5380953869187,417.0345285433923L971.5293708381009,417.12421573197315L970.8920361607809,417.057663016529L970.4632868604117,417.0765170679031L970.3428801639124,417.1017848697264L970.0216530986627,416.7777190153658L969.7416420082535,416.76042559921154L969.6162077760197,416.6400107835799L969.469964965868,416.59027457296446L969.2250406564935,416.46473016540665L968.9156842593344,416.52418600841827L968.3568936735455,416.3262746598159L968.0089940239318,416.7914747406269L967.9217957186752,416.84384751078386L967.4934508625867,417.1010904955789L967.1321005321064,417.18754108363976L966.8684784697643,417.14119221112986L966.7620704994958,417.2396432408854L966.4234898523873,417.28727761594064L966.1427853153383,417.0517095143857L965.8524585272569,416.92700925212847L965.5650054190133,416.9317706184544L965.2684630110912,417.1606910271545L964.8043286136233,416.8777003871998L964.787703182428,416.71120108513054L964.4846116642434,416.56137341275576L964.3484316690275,416.59902273395915L964.1324112550184,416.46689354170576L963.646494695626,415.9436539002533L963.3968887918076,416.09686716497674L963.0981061104662,416.1185244494309L962.6002320065081,416.10287997826606L962.5184608322933,416.1003066615792L962.3659816515872,415.74866085605055L962.3433341493076,415.58758310621L962.3132457532415,415.3735774607586L962.2814801271909,415.07092067392483L962.0181959320795,414.83598592675787L961.9107249560057,414.2485679461188L961.6953859627054,414.39677806630976L961.619601810046,414.6015983595259L961.5628051294195,414.75509272719705L961.174748513961,414.86699781359886L960.4119691478254,415.4626185656885L959.9417645592542,415.91342537390386L958.9281589319703,416.2983914122401L957.7849930924112,416.58979771276216L956.9549537859128,417.1992974226208L956.5135665949754,417.63485321156395L955.9756606749145,418.0643919438532L955.3069493122629,418.48438456091037L954.7756118635969,419.0929009659723L954.7261101936717,419.1495855315905L953.6317043109216,420.7265504944906L953.4648434863218,421.1610775283482L953.1427235077475,421.49870657288835L952.3396552037177,422.180763104346L951.5672557132057,422.5134735168736L951.2251550094195,422.504799827329L950.1517999767236,423.32402913343697L949.2276308776925,425.4125716641161L947.8478525303319,428.52813636514156L947.3000447871489,429.76358911424643L945.2914335868006,433.70069928951375L944.2929845619103,435.9114072652513L943.8345894461252,436.9258322246984L943.8049319686216,436.99145259054967L942.5301385247742,439.8107612118872L941.6207047788755,441.8204856788689L941.620555927156,441.820814514556L940.0237483513754,445.346402596086L939.7623250630988,445.9232182714151L939.0757581416894,447.4375806852824L939.1186838694625,447.56977341958367L938.9079989519322,448.2496989304616L938.4692570760662,448.8115626697866L938.3971141300951,448.8041437914284L937.939795376654,448.75709507985613L937.2428885682846,448.22774328558074L936.1187225790832,448.12352316113595L936.110282472437,448.14289134836935L935.941651661048,448.5298368052361L935.9743608319538,448.9608826582252L935.4752570460982,450.02841062362427L934.8552692331532,450.22454236936403L933.5397681435973,451.06916969716815L933.5043622108105,451.18023700070364L933.4868710750209,451.1804361534699L932.8699804853516,451.1874283853898L931.5013843553029,451.3311963297553L931.1588788365685,451.28917583381616L930.7260328226926,451.06422950276385L930.3322784546649,451.21582875901447L930.1962386512364,451.3011667579081L929.6944947625996,451.6158695562738L928.4009680099216,451.73977600741L928.0689681089793,451.54025885579L927.9998556100215,451.49872182016526L927.0701721478265,449.78522422997764L927.1840403071774,449.2157775009168L927.1327772907727,448.5287399117907L926.5907791215662,447.56685101681904L926.5663248164309,447.50832943691L926.1516926682151,446.5159454579481L925.6852528403249,445.83278672902156L925.6180124943771,445.85268185299003L924.829160655235,446.0860261191847L924.3080330324988,446.3368437509536L923.397416626012,446.39523810847345L923.0839733030232,446.44546992968156L922.9099963707415,446.6072856107402L922.8398711586627,446.8426975289638L922.6144656542456,447.04893236708216L922.3848560138897,446.91931701044456L922.2168597925086,446.84799742087023L921.9795321304962,446.89256411611285L921.8528255782383,446.8070892941138L921.72325733095,446.68119374714945L921.6292742021303,446.4443349541382L921.458179857603,446.19974424824954L921.449262941863,446.07851656302086L921.3668391743033,445.9376426987523L921.0759814560695,446.09404450190374L920.9064369719943,446.28093094110017L920.5247592309136,446.1464487787186L920.0737914809076,445.81389500354715L919.773044978049,445.53125008615757L919.4194990208232,445.27223567463176L918.7066183165994,445.06102338033025L918.4227816966634,445.06822965576265L917.9352342812639,445.2771630490068L917.5526665881134,445.4297899563448L917.4453427433327,445.72726579466763L917.3158919841163,446.3814261483641L916.9753986395085,446.8651784957599L916.4911084935572,447.3867344413542L916.3142744475658,447.5771482230124L916.2506852958109,447.7134093513906L916.1569018897712,447.831550701672L916.0202863129948,447.94129174987813L915.625430521599,448.2513982227398L915.4569541394561,448.64284600188387L915.3513833300149,448.85826770146645L915.218752547108,448.9771677624215L915.037081111399,449.14002085247716L914.5525478470414,448.99295791235664L914.385573717072,448.801889525285L914.0498522228288,448.79706274786486L913.6129859573097,448.85776476430516L913.3214527375799,449.36640013205016L913.0915078013234,449.72106108275614L912.7640610132864,449.8224274051736L912.5186570481355,449.7629171310897L912.1638097510845,449.544688986841L911.6719212503742,449.7019897980437L911.4840011792337,449.6748734724308L910.5385397832365,448.84891971430244L910.4268232005797,448.8163066066087L909.5714003436098,449.1702109325272L909.5557496568664,449.1766845189651L909.0110667819133,449.51360958302297L908.5591686301018,449.9251239596804L908.4260418829407,450.20550660086496L907.4456947492249,451.0339004262434L907.1003762787352,451.24256069711953L906.6971096046861,451.29671673152274L906.654312468314,451.3266232338446L906.2793302871642,451.58863704854883L905.94524519469,451.67900350394274L905.4782932850064,451.98655316442677L904.3756946250317,452.02400877149995L904.1984448976791,451.93902201952085L904.0200845882342,451.7918048118629L903.468226105646,452.0339523482904L902.9400798287871,452.61300150758854L902.8895306377725,452.74823484172794L902.8883391071597,452.7514224523925L902.3015678200652,453.19423567353556L901.7889743741307,453.40123842229906L901.3416920116404,453.53818720125946L901.0196897520692,453.94007279160667L900.8676374717842,454.42485382884024L900.0814452302484,454.7325022697698L899.8555509391543,454.8208751625918L898.3635362044818,456.1849604396018L897.8582185832731,456.78917320614465L897.1720990650826,458.2798971547287L897.171944717621,458.28023242406806L892.9859543694622,467.35980088354785L892.9802237007572,467.37221297197334L892.5666019341265,467.577010687216L891.5744150298892,468.51273104321166L890.7110077061546,468.88161937208025L890.593538367646,469.09830284440784L890.5975008067326,469.42586184834795L890.4963842639286,469.5706586921142L890.3748492752118,469.6486706884956L890.2091706353699,469.75501167095376L890.2055126104706,469.7657013491688L888.8954022929543,471.07476792049124L888.374667759666,471.7720287475295L888.1926088999332,471.8121993150238L887.6051607217936,472.0976550408355L887.182358737877,472.0864613612402L886.7339395949432,472.2965079525338L886.5218111751668,472.47318031633586L885.5948066303986,472.7050717466086L885.2365710192661,473.04127045351584L884.7508711630019,473.1787021611398L884.7317663946701,473.18857341686265L884.4125406561385,473.3535020340843L883.6575511917642,473.9086053835583L883.3070886417382,474.4268537123891L882.8563486311243,475.3692562170596L881.7890565927319,475.21682462153L880.9256047077752,474.89045346134503L880.7529577036953,474.78385620201084L880.5947001748908,474.1243702328203L880.2236086250705,473.96455307890346L879.0170613216926,473.93256231920384L878.7113453034033,474.0936228790906L878.1157133404346,474.230910498999L877.2955884053501,474.095794637728L877.1075715564241,474.00846303845196L876.9922973848225,473.9549157676465L876.9414158046056,473.9312792913355L876.827732839233,473.3951930019321L876.8790831155492,472.9817719071482L877.2425571078743,471.6013576251095L877.4900529180405,471.19546507243876L877.1512826109627,470.56023731778004L876.52140248295,470.42320964625634L876.4705332535191,470.3571612513994L876.1922111367938,469.52069859339446L876.240123907399,469.08376046229705L876.2840191145037,468.91819936674665L876.4890021546994,468.70133216774616L876.8414475540804,468.39324485045177L876.9226289772719,468.130337158507L876.7154211282908,467.9813885421224L876.8006904632626,467.44713956796505L876.9335531707743,467.30281231079687L877.3242518922368,467.1369399008106L877.3667727966309,467.05727452196425L877.2164400595238,466.60641495217106L877.4297260938597,466.1856981458304L877.5918248310333,465.9853534026113L878.1342553020972,465.42191379313425L878.5620381715662,465.0807218648695L878.5249762041085,464.852801788151L878.3969391376118,464.576722317674L877.9439581058374,464.48483073689124L877.5079485853087,464.55616008352365L877.3251474607448,464.6071655695014L877.3181809348378,464.3366019007449L877.1694094089462,464.0988792340112L876.8004501239445,463.96435271574495L876.3838411661493,463.46343851950553L875.9450480891121,463.2891788087871L875.4378338183149,463.2414885901758L875.411370514539,462.6741521589221L875.4719287386554,462.26368386669196L875.3023380920239,462.01744161146536L874.1911164007181,461.277725425392L873.7339305115454,460.8200643983289L873.1987558781466,460.8416537628924L872.5274103587243,461.29208653575165L872.1460759628313,461.6994065708593L871.8517981909656,462.0136915013478L871.3585872611166,462.2599805737735L871.0895057517879,462.22186317452173L870.5131524466583,462.48041958705016L869.9098929765933,462.8042163074655L869.4300672020679,463.1741316829785L868.311400840787,463.8294621416667L868.1901031536449,463.9863619916031L868.1290412860071,464.3968008666147L867.798685498729,464.8788805090302L866.5040630348899,465.53161943521764L866.2922989294649,465.8162826839833L865.8430268667423,466.156890301654L865.5775682462516,466.2391949893832L865.0156904194729,466.41336061481127L864.9867717979907,466.6455863734025L865.0315837140331,467.00195345395593L864.978654475513,467.2017158051005L864.0251306920363,467.886272537387L863.7168741986893,467.8653589264885L863.2879799767336,468.0147710594549L861.4007266813214,469.70727986130294L860.934836810673,469.96731594045093L860.4224457994528,470.01354875907396L859.7556417156629,470.2184777825736L858.618830556785,470.6834589245894L858.4898301335218,470.8667229647689L858.3626152416127,471.12008356902373L858.3126221486417,471.73183250435204L857.710409924631,472.3911702243483L857.7150563823413,472.50815755515214L857.7648219223128,473.7612166399195L858.2020152612095,474.17193974962515L858.3665180921189,474.18826768720766L858.5479948914867,474.11892444758615L858.7951492880238,474.22614104185453L858.9785203497136,474.47322435284724L858.7107037863411,475.1769720599396L858.144154529097,475.4743949189947L857.9947267256257,475.62983709844013L857.9167999928259,475.82117478544797L857.9629152640887,476.265564745177L857.7744583285546,477.235801335412L857.7554042775802,477.25233325475955L857.6719344084106,477.3247529218298L856.424726797119,478.40655202997357L855.8846557595643,479.2834972651232L855.8580480160394,479.4248451911793L855.915601859514,479.6371357507823L856.2878953292864,480.31724582360624L856.2838968650117,480.468851123672L856.0692555489569,480.732536401008L855.6265742538659,480.75036987564204L855.4083317248264,480.82370595134756L854.8782220212113,481.2386439529852L854.2693243278325,481.5678581437266L854.1859212295722,481.479205579377L853.7451982643365,480.53154443309813L853.4022674479476,480.1174370297977L853.2729670399478,480.120061335825L852.910772335272,479.8685187992289L852.1317094413134,479.2154129665779L851.9803263326074,479.01394226354756L850.9902906527572,478.25477937405043L850.6834924838571,478.09518155685663L849.8039290359668,478.3744560753918L848.8383994498189,478.00886953246373L848.6788292209758,477.8254747977624L848.291009200517,477.75332437623814L847.2512969157393,478.2924967564288L846.3301834682636,478.8925918931605L845.8658293455325,478.9966199565762L845.691504031907,478.94258268888876L845.6914566752422,478.94274919805343L845.4015098100215,479.9620598367364L845.6662760013313,480.63613850975275L845.7579447682324,480.93458105975685L845.6250682872333,481.12345747541434L845.496442007988,481.35696186682924L845.156230556755,481.55155437919433L844.517134236039,481.4781654288345L844.0817309086,481.13129118332984L843.4762234603115,481.3390487731548L843.4438077369335,481.5034770481611L843.859829753047,481.8949776791235L844.2416817500855,481.87693849613663L844.2429023299775,482.1536606458709L844.3871498754775,482.38385688163584L844.4492060275325,482.696347119081L844.481809184547,482.8605161145813L844.1876414766282,483.0952615431266L844.6711582919152,483.41647192769454L845.0816648983584,484.09299320291905L844.9365858475157,484.41691553760654L845.2211530478255,484.6533767526401L845.4270368054629,485.48076367832715L845.7562692048659,486.0142989658743L845.7781602050638,486.37327281000915L845.5964940504964,486.74480134508696L845.3160784862705,487.2405128925372L845.671575432646,487.72232342550706L846.0513902201188,487.5838387454821L846.4648151460248,487.68450282035803L846.3808403231072,488.0176927399553L846.1401067607803,488.4774122761607L845.9832800631743,488.7595636569828L844.8156366986075,489.38114517346963L843.9020715686461,489.44531085935057L843.8738852797901,490.07742701865175L844.1025771801691,490.51174761547946L844.0047618568885,491.80005652769427L844.3725349772242,492.5746317540347L844.5636418141219,493.06844036428356L844.569183086353,493.0827577901439L843.8402086029776,493.4114602282764L843.3842162513527,493.53232521276794L842.9322051189008,493.86301503902706L842.8109755257158,494.33669887992545L842.3944210814302,495.121279456815L842.3851647812697,495.1249131354867L841.7071211809828,495.3910414126226L841.5302994994779,495.5341728704658L840.8852454020018,496.7239446226579L840.5285160086282,497.611604219722L840.5029302198552,497.87487762818256L840.2301799250317,498.5090907037047L839.9488046779995,498.910449360839L839.8696360871315,499.64359434551847L839.9586539312131,499.9601779326786L839.8988252280484,500.0862580392357L839.7746195130197,500.34798722390394L839.1670010041082,500.42740264465533L838.6617871790065,500.8476950039394L838.2618892810017,501.4391423825256L837.6891081360693,502.09791453939084L836.8344420359913,502.70035301705576L836.4293252120066,502.83576470713484L835.8018119877754,502.78824303916275L835.2601909806618,502.188612214641L834.556185318633,502.038226945673L833.147477295573,501.5790778315622L831.8797647042908,501.16556468922306L831.5224192380809,501.2717732172624L831.1868539061488,501.477431804182L831.0290446224349,501.4948114653107L830.7836634391125,501.4404581045636L830.5250053093469,501.203984950956L830.0552782521956,500.9813174745392L829.4440135190894,501.1944007556258L829.1079453255627,501.41314111781924L828.8380720505523,501.4466243476847L827.9198457778336,501.2736161552856L827.7079014030227,501.0542849272028L827.1960669521288,501.1577885284811L826.5143222298325,501.6965669250851L826.438060958923,501.99518966325934L825.2741273704156,503.0887738097384L825.190933980823,503.1391290903332L825.0376022220614,503.23193311124055L825.0351784829193,503.23340003105557L824.9513548840273,503.28413167731486L824.9396321303514,503.2795102422014L824.9506321268473,503.2868888971112L824.7189426909082,503.25594255719585L824.4768912411682,503.38404096046645L824.4584535529316,503.4869374303274L823.854019780437,503.87017685870376L823.7768053090525,503.89607569906224L823.7704904737193,503.89819373566814L823.5112490674858,503.9851384959625L822.8259178550261,504.5643807595484L821.9852540307056,504.3599375677404L819.8925386365984,504.88206474772323L819.7769850453446,505.0011834627324L819.1181048708479,505.04051706463156L818.5502024603238,504.9895044935075L818.3060800495188,505.21090606677745L817.9616361567842,505.69175379110305L817.9143864038713,505.8661980113927L818.0177028466118,506.4147060176924L817.4889774992571,507.600332915344L817.3038252853299,507.62826897275727L816.7006802744465,507.9426148978316L816.3721968010093,508.6443408441323L816.2593495200858,509.1111039799432L815.9074867326559,509.89172296949766L815.6130496612418,509.9207018117892L814.5576743362003,510.564286607996L814.3545417149983,510.59775537502844L813.9467120359247,510.45448957216166L812.7809922505564,510.8071220612742L812.4994423958422,510.64371202480214L812.162282956797,510.5470774790966L811.8748729789406,510.6258820795062L810.840143371583,510.6885010707812L809.8867983377842,510.6511173690114L809.7492193113529,511.0827495915452L809.6069361662867,511.24066968692784L808.7747374922828,511.64184798881155L808.3508355646156,512.1657814364896L808.3449776977914,512.336718811437L808.4752040154851,512.684408633456L808.5242098097594,513.0735067226744L808.4453229453188,513.4014244424062L808.3582633871231,513.8320944681174L808.4849171085975,514.1604532339395L808.4719807287854,514.899165821593L808.226857304685,515.474673455774L807.9023795072508,515.8672949041966L807.4591442579699,516.1129887138296L807.0472025651651,516.4251568114951L806.8450088014544,516.9697807753596L806.408439803304,517.2670909984874L805.7935869035014,517.526230038939L804.938735237846,518.020089146143L804.785495196662,518.2826416867209L804.7826458358377,519.0311700490996L804.5345322732758,519.7529201739262L804.1821506464547,520.3385739097587L803.6301798707673,520.5975274626904L802.7378056445139,520.8647039245628L802.4855697325213,520.8297518757232L801.8880936263135,520.2902193520463L801.5085790772026,519.7941476172757L799.9629591495018,519.515891052801L799.6810475525378,519.8566785212673L798.6451304633105,520.2651759176707L798.4229515962099,520.22534059383L798.1763216808226,520.3737953084734L797.9494294166018,520.7092847254477L797.7759649893549,521.1052726915943L797.8111691942536,521.4151824020671L797.7358718913266,521.7343545317367L797.5345200649601,522.1177033035216L796.6339755893443,523.3273323296642L796.5032327133075,523.4057340641625L796.2600887894612,523.418294426525L796.0533398792413,523.2788638899541L795.8865912725753,523.3386254986129L795.5644546067005,523.6678173568943L795.4476428133538,523.9651271698108L795.196390718289,523.9499341326248L794.2710806670248,524.1508984623512L794.2930589530343,524.3172142855244L793.8983471234562,525.3243932271115L793.4772601758254,525.6692931355661L792.7220663329283,525.9000142904291L792.4554003351384,526.0672680915893L791.8401984195225,526.5431776068968L790.9256332683706,527.0601328019363L790.8733154774579,527.3172178783103L790.8087355443779,527.3763091043478L789.6355183338106,527.6063026818683L788.6419420496227,527.4131112762725L788.1338602963267,527.430560044895L788.0085746860899,527.86376494916L787.4649239580388,528.6729145136034L787.1359345465085,529.35235212304L786.4066511112301,530.1300586925391L785.4648150896472,530.4903483684801L785.3289236844961,530.6575933375096L785.344941555886,531.0066560983771L785.3222650046605,531.0271294801615L785.061277216935,531.2627469680757L784.6615575781427,531.4814862399957L784.6394416211195,531.5576751648587L784.7515977782739,532.0363650952468L784.5383001765231,532.3965741654873L784.0546138824886,533.5674734593716L783.3884807854095,533.7830721874356L782.67708939269,534.34757182424L780.5557151251717,534.4693194514824L780.2165448920111,534.1148924322729L778.7109786607577,534.3171905989581L777.9693318479322,534.213507240064L776.7268700468823,534.4596210274894L775.9406056393462,534.437332910141L775.1792616061589,534.3121252835564L774.4834069191793,534.4109966484496L774.0606663775698,534.6356438186973L773.4454227190049,534.8474001520814L773.0474856565095,534.8319439683872L772.8692681736313,534.694329898273L772.7738918430534,534.2983441890256L772.023444431117,533.525992363324L771.1514679479926,532.8455936563979L770.8184235779506,532.7105836489249L770.3672020637962,532.7174106247121L769.6941739513342,533.4877490082571L768.1428516209146,534.3972487181668L767.8453952517126,534.2478393368087L767.4680274711968,534.391646322157L767.326031460676,534.5443894880109L766.966704401065,534.7004919759245L766.4183591195822,534.7607799438663L765.5548359215948,534.4642807881937L765.0221166577678,534.3670405620875L764.6983962261854,534.5189986435014L764.468120410327,534.4033563666131L764.1006436457283,534.3867005598225L763.3505174811837,534.4787433198857L762.9916567353048,534.3169250237294L762.1305614447645,534.553595200219L760.6246587112207,534.6919602324417L760.3163024924988,534.8058419630831L760.1577251586399,534.8115127116827L759.9595503057715,534.70630335724L759.589115302839,534.7159013744738L758.1221543467508,535.4896160477599L757.8365039934663,535.7032250218816L756.7811127401856,535.5788434090989L756.4661515939077,535.2798468150876L754.9228915918848,535.937080179192L754.1322780616374,535.639178954214L753.8347496761635,535.8040533289989L753.2963373142841,535.9584628162557L752.5056311303509,535.9157455076182L752.3847561526065,536.5540253108692L751.6515575417925,537.5500306549144L750.9343429707503,538.016075315842L749.2424449106284,538.8559276841781L748.5805586538211,539.5893559918834L748.473567032285,539.8804886374401L746.7927235846339,541.3815636765127L746.5846418626677,541.2787759618298L746.0904001344346,541.2854699406827L745.1917989506163,541.7616020986757L744.2886131834443,542.1147043930348L743.6815226689769,541.8967161014374L743.084160354756,541.8153636307248L742.2994849341349,541.9779398457488L741.6110877642335,541.9762201039453L740.802759148958,542.3381163268675L740.5369768250918,542.5623603890405L740.375475703976,543.1717918330588L739.569202792082,544.5218411773589L739.4683494973738,544.6399717189018L739.1789906848628,544.7049402743012L738.5788293030018,545.4541450480659L738.5839081444253,545.6274016481777L738.7233282559614,545.7692513520449L738.7145293025179,545.9187585996132L738.5952468121409,546.2054531447027L738.1550973883828,546.4920393346714L737.9140007903552,547.136976926706L737.8060277266632,547.7788972258686L737.5502560284901,548.2915521931442L737.0082292936513,548.643727887487L736.7040145462889,548.6901771768379L736.5650375320208,548.6796644218098L736.1112670763683,548.6453177554705L735.5781984539,548.7435919686025L734.7843047529007,549.0251285039338L734.2384623562834,549.627779914374L734.1608637220663,549.9264156542481L733.4751659179268,550.4891273783074L733.099156570972,550.575707716492L733.0917002565427,550.5774243690352L732.7950350978538,550.2060830181435L732.5245738896813,550.1147998696784L732.1673485410809,550.1391858550936L732.1693455867282,550.194220266266L732.1747424794307,550.316479105993L732.1556733659897,550.7721313169503L731.7554761743754,551.3466750486552L731.6001773395615,551.4155726074329L731.2443683245056,551.3622636400792L731.0696654253708,551.410189104474L730.8926482800232,551.7664922485529L730.9262169771291,552.2633842091401L730.3537216008826,552.4373337662918L729.8373099010507,553.2035835299911L728.8282123100557,553.8291155305689L728.4040982066647,554.4327183629593L728.2509848264826,554.844099301491L728.1568118985999,555.4805218604896L728.0885928215952,555.6112006375406L727.8440050880474,555.9825723607306L727.5149463775156,556.2229389842978L726.8370758869182,556.9998981097654L726.523778257561,557.475803847282L726.2070114380172,557.597833409237L725.803140385141,557.4918376101523L725.6059781222615,557.5544353078554L725.606111674553,557.8267477707446L725.7656138236551,558.128710235323L725.8142301658911,558.5671986319796L726.1381023324958,559.1529732272119L726.2196022054525,559.2449266667442L726.5443298638786,559.3132011969809L726.6701634001442,559.4033153276868L727.3657226543974,560.3822186203478L727.3696730334524,560.4773850660035L727.1234062002852,560.9642636833096L727.0670471076237,561.2117464022745L727.2318194241238,561.4364436473328L727.2679387189338,561.5345314978596L727.4195410060465,561.946206178265L727.5242951992076,562.7955474403592L727.5402464692697,562.9248679595914L727.5330353354273,562.9335381103522L726.7430266177091,563.8832201430357L726.3212448717725,564.6224991733809L726.2224979980061,564.9080206440425L725.8784715533295,565.3698684564048L725.7360754951994,565.4194704415709L725.2547071108288,565.4858871693187L724.8881499011115,565.6317415826529L724.8548230722608,565.7265663430898L724.6896952359875,565.8642683692899L724.5788480927147,565.8843489447848L724.4073621497665,565.9133176598052L724.2836748892404,566.2560121426106L724.264669501637,566.308666420822L724.775624854112,566.9746324802259L724.6056123936478,567.1566865809559L724.5374966808039,567.4766654291701L724.5578721830864,567.6780243455986L724.9801618189557,567.7736380787015L725.1109323677085,567.8237178061803L725.3393476208473,568.2559251539856L725.2400097336019,568.6298179240941L725.0508720743883,568.8964910534306L725.0356020117347,569.1768685688367L725.0391587842092,569.3418768713103L724.7448172620025,570.380770781653L724.7499739713171,571.0483278152128L724.8327150663981,571.1675863712129L725.5411164692168,571.3565210963905L725.7915396389467,571.4961233149918L726.4021696579566,572.5476492352759L726.2004103191867,573.3192666862537L725.7285548498589,573.7476377621667L725.5986747393656,573.8357700266351L724.8516854595227,574.3425616169928L724.1648166104126,575.7748021535672L723.1113594739047,576.9631371013734L722.7768397537795,577.222165826807L721.8960742868027,577.4624536676773L721.1452024593862,577.8882465000717L720.6927030523708,577.9883306983345L719.9920873661817,578.2941631704439L719.8159712121774,578.6099368141297L719.8147093767634,578.8554157790072L718.8196359575884,579.8636027171259L718.1837640361936,580.2670271697675L717.8816371122718,580.121865113256L717.711645585732,580.1623263745445L717.6118581398794,580.0754887868468L717.4866238663191,579.8893046401932L717.3709142531459,579.8890043442415L717.2007101854989,579.7197434013402L717.0126517716706,579.8881243149764L716.9516501074779,579.9866815161216L716.8191486836328,579.877680031645L716.7131158343185,580.0032498391718L716.4790540100012,580.0932649150246L716.3562135911486,580.084501755181L716.2820322440193,579.9941745046351L716.2527174499406,579.9035685543591L716.0993931816702,579.7745162621105L715.8386513734175,579.6686669311248L715.7068570331796,579.7147876101194L715.5988755540793,579.9013642099067L715.3299020135221,580.035258665998L715.1846601123848,580.0287210018082L715.1092451895216,580.0929213209058L714.9913969100264,580.4930104422986L715.1335822949837,580.991944445874L715.0632623101726,581.1856313674017L714.8980695777846,581.2330554441968L714.683030510751,581.1460716235213L714.3824194053757,581.1174033110262L713.9330665021392,580.7666086852644L713.5586501423631,580.5903945690072L713.1758719180086,580.5100758508265L711.8223488850119,580.617323995956L711.4252310605137,580.7145869775102L711.269016637702,580.9933771131309L711.1710519646733,581.0517261081905L710.3471704897102,580.7700318308237L710.1470240886317,580.7779097777529L709.4309767502778,581.2691780502117L709.2730867778655,581.5070797305096L708.1756613808561,581.6447123626303L707.7369011518804,581.2387984947052L706.9664739570362,581.1864253881686L706.8500779429206,581.0545070590078L706.6560713365539,580.6392005632688L706.4854167115584,579.5558687465603L706.2013889167279,579.2248714273077L706.1719051875432,579.0351183340849L705.4384125254091,578.1905771836766L704.9284461056841,577.9508735821306L704.1003139889802,577.8322009783163L703.6507705560052,578.0127289244546L703.2220348523014,578.451468394407L702.3371253400102,579.7934718409957L702.0359998742945,580.0774188310446L700.9651341553272,580.6219645912987L700.4369579509766,581.0915448878909L700.1695351782595,581.687788332883L698.5256754080981,582.7166699041808L697.7703926425063,583.6853678765278L697.6990098836685,583.8652722871913L697.1797330922686,584.1719078583562L696.9963410480459,584.1501110944819L696.9230185118525,584.0307337607134L696.7854493002956,586.6128099330767L696.581157233001,589.9262919759637L696.3609377163914,591.8575204810895L696.3472091383095,591.9778748863852L695.8158048969392,598.2432952508814L695.8137355811463,598.273970915996L695.5522296626101,602.1478175034026L695.5387566696694,602.2045622944314L695.5384222572527,602.2114064955401L695.4459612799823,604.1030208712921L695.3846978891695,604.969845096258L694.8942320326134,611.8999082821214L694.8925621496062,611.9234738963721L694.568320667509,616.4954899556972L692.1571578844455,616.5957992859884L690.3820944005672,616.669054901031L688.9753607000563,616.7267540257064L687.745513618643,616.776940163625L686.7245524272594,616.8184196825857L686.5104615320514,616.8270967319588L686.4023819132977,616.8360447681904L679.6391620111622,617.0670726870441L673.6355373906897,617.2660654825813L673.5423585236119,617.2722551646933L667.0146600339995,617.4594387158669L661.0585787947405,617.6243280528314L660.6741421401196,617.6840877440654L654.2592209555627,617.8741760115529L649.2080755949999,618.0192542830923L648.8064364873208,618.0215247222683L647.9717394480241,618.0520340995957L643.792503016313,618.2031264395235L643.7675605879865,618.2040198547986L643.7650452646767,618.2041099459304L640.182724212874,618.331397451357L640.0645617717466,618.3377755884908L639.9197761075449,618.3365200843226L639.890093679503,618.3362622833L639.1582732557042,618.3373711344643L638.7998010993869,618.3252564110977L638.4054321898439,618.3641086359706L637.5329617777082,618.3471123025839L634.5991271443772,618.4608031843541L634.2317917206234,618.4643783134317L631.4109223567867,618.5328184157067L630.851638380076,618.5462377589034L626.4597418721249,618.6498902390028L626.4507899838102,618.6500983845997L625.5058322146795,618.671998614798L624.9922423721438,618.6912276022474L624.9338572629565,618.6934109081614L623.6805780892805,618.7292233857557L621.2924071918046,618.8099498029375L620.969516932335,618.8207948088109L620.9053274005798,618.823304669894L613.6780361204169,619.1017096367706L613.6633027783951,619.0987717403599L611.4645798297246,619.1653801121555L609.3646224806462,619.2282797143412L607.9684443716756,619.2697115955337L604.5440846306892,619.3700195861936L604.5242516710913,619.370595119461L603.1873394140173,619.4092470119156L602.9884903237073,619.4149717556577L602.6210961010897,619.4255322945706L601.4475832590031,619.4591206965893L599.1121352556715,619.5253155276358L598.5265995273215,619.5417758943497L598.5187688253193,619.5419956593134L597.9201178918282,619.5653347696124L596.8248970600373,619.6018546703759L596.1910020311539,619.6229047085794L594.4929751783867,619.6789773693283L594.4914089742897,619.6790288775019L594.3459383667092,619.6819562594369L594.0440808730043,619.7016836428965L593.8988834139595,619.7182588871104L593.2195304080456,619.7318371684465L592.9477215529201,619.7372493203555L592.9414081229115,619.7373748915952L592.3657206323894,619.7487984690249L591.62434264844,619.7774362976879L591.6125966003173,619.7778893191544L590.2113678831387,619.8317745586965L590.1956123938253,619.8323786730714L589.0656474739671,619.8679224096833L588.1744940029811,619.8951116488163L588.1695401130113,619.8952624403335L587.857227362495,619.9047610642658L587.6669887570258,619.9083883492646L587.2634084252072,619.9254912146409L586.6210671837069,619.9526588405814L585.7716917559824,619.9884821838971L585.755375130984,619.9892901676692L585.0445845538657,620.0244467139537L584.9901344977332,620.0271365625674L584.5459735238846,620.0353943134467L584.5454151506065,620.0354290429465L584.232884793465,620.0548598934223L582.0886824917623,620.1412295959758L582.0882332820828,620.1412476138239L581.4352613504832,620.1674044823321L580.5077788790005,620.2044412402952L580.40521957234,620.208528300811L580.1917626252888,620.2170293490904L580.1906337087285,620.2170742896076L580.0817188571369,620.2214090774738L578.006185167249,620.3036545400479L577.9123590847531,620.3074100393558L577.8585070692228,620.3095648975386L575.6515413912304,620.3974788333404L574.5374640822617,620.4167307048664L573.1162382917911,620.4410044329425L572.9437432779774,620.4439287417468L571.503407566651,620.4681624814095L570.3545057498785,620.4872568478728L567.4760877127661,620.5341756317125L566.5028517062558,620.5497422171655L565.6753228683577,620.5502291899126L561.1868231583926,620.5509783455453L556.889183423521,620.5487012900657L551.0041244536424,620.5408309728946L550.3024882084878,620.5365488022926L550.2955050575572,620.53650579082L540.9736576504876,620.4721926361882L540.2952879159544,620.4669744040968L540.2933452526629,620.4669593557055L540.1357698879372,620.4657367407816L537.8890439008105,620.4478761366325L537.4505179578084,620.4442966290313L537.4212753928891,620.4440568490323L535.3576806676292,620.426793470726L534.9090256900308,620.4229507675107L533.9008500683478,620.4141993097803L529.5324516281423,620.3744165748633L528.2263404648986,620.3619340383316L526.4612040620167,620.3446345872202L525.9784779144859,620.3459837948116L522.3749297624641,620.3516093211939L522.0374568830525,620.3520306789884L499.912064086946,620.3402413101562L499.30317160898176,620.3388190619901L499.294582825817,620.3387985797555L489.69235983222524,620.3085806804065L478.3868647892121,620.2542563760159L471.97090707877237,620.2144093071689L471.13297479368975,620.2082504523802L464.5309352555721,620.1558291992174L462.3541705472731,620.1370296644512L458.8394536103275,620.200320222863L458.244117182626,620.2108464713747L454.45331661602694,620.2577931894551L453.8376603866959,620.2566690374281L448.8418329273044,620.2453236632243L448.30799443243336,620.2438772219649L447.6614540069844,620.2420648893375L444.60823578940244,620.1916672722965L444.5974555488419,620.1914867087983L442.8792463716401,620.179530253863L442.8690664754672,620.1793601392083L440.89342725047777,620.1460342675853L439.653780627507,620.1347948919912L439.6536673786267,620.1347927118527L435.0463097309455,620.0444123534726L435.02607090110126,620.0442381181045L432.987389411603,620.026354253913L431.72932654880236,619.9909150262578L431.3368547882801,619.9885356522452L431.07212756846286,619.9775830288823L430.9725268180006,619.977005794082L430.9661804345866,619.9769795544041L426.03761544539327,619.9546729860723L419.95248740257375,619.9218164562271L419.1085596228721,619.9167959016132L419.1063226781423,619.9167824438371L415.08418125492886,619.9059453901078L414.9644931089242,619.9055835927552L413.21322897446555,619.8907301487714L413.20606680833146,619.8906684035483L412.0763516191049,619.8677124803448L411.7039980634951,619.8556813045673L411.1162984469747,619.8485884113289L410.8557178098516,619.8454259530994L410.37945197542,619.8396180590014L410.32163787585273,619.8389105870933L408.413376320262,619.767045420017L408.40970390033635,619.7669065585832L401.89601975278765,619.5172372425475L398.5781250112116,619.3874696218176L398.2296663311736,619.3637017796838L397.9637793879692,619.352028892369L397.762327122594,619.36305286424L396.1664782415429,619.2988855625463L394.8992436832416,619.2476430288434L393.6497617114767,619.2275161498777L391.5332864953248,619.1523318556632L384.834671780458,618.9096824656899L384.3184706746488,618.8906877346107L381.42215032986877,618.7833259140555L381.1807344873471,618.7743168257102L380.8447746990116,618.7617641568419L379.28205070987747,618.7031393393772L376.6948478876234,618.605228367986L371.3256534498993,618.3986392860382L370.8909743891438,618.3808736054472L370.663136570101,618.3715496900834L370.3177252271106,618.3560017598927L369.83893857715236,618.3344188420132L369.1130938038873,618.3016293898103L364.69930901125497,618.1073758354452L361.43704280476555,617.9815720545877L361.4336118777511,617.9814517563432L355.83791993062704,617.7827609962012L355.8297638859041,617.7824564833136L355.82969796605107,617.7824540220906L354.71779663341755,617.7408412429664L354.71627917065655,617.740784317805L352.27943982876917,617.6563828442282L351.7790271977771,617.6319280003823L351.13424940099696,617.6003593504902L348.21693211973593,617.505491950816L347.7535120759032,617.4953334518335L346.9629499390461,617.4644085339771L346.0200868248188,617.440802319162L346.0166279366472,617.4407154600317L345.3217355423462,617.4232268891263L339.770639977499,617.2807680340965L339.7668575722714,617.2806692973282L339.4434350828719,617.2722182013354L336.4581189603075,617.1934270149368L330.3122446141234,617.0267635747525L327.10355651534735,616.9373671561921L325.63815605298123,616.8959961147073L324.99584027016135,616.8777548112696L320.6221372058068,616.8058461060089L319.8077100558029,616.7848909615642L317.8729708300558,616.7099460376114L316.96459835876874,616.6745536225538L316.55021145059044,616.6460565898566L316.35121160796496,616.6471594653827L315.55327607404183,616.6083750935338L315.5497642704149,616.6082041751567L310.02700638245915,616.3875811701523L310.0150781901016,616.3871625040196L309.0529151945795,616.3533171926483L308.38423857961607,616.3141920241524L303.0681689576843,616.1187557226302L303.06513794704426,616.1186430113353L299.63014531772035,615.9899706160184L299.4593122133206,615.9963455862501L299.446100521513,616.0007750457995L297.3104776357995,615.9393356834184L296.738140367106,615.9319066515069L296.712592235768,615.9372256195395L291.2328989628636,615.7604272255423L286.03164954594695,615.5881992924599L284.7547792621448,615.5452613823857L283.0647577766239,615.4880318748333L260.3844536501219,614.4976046824468L260.48142600674413,614.8570239182986L260.57761367060243,615.9051517100046L260.6525600631662,616.2000588729106L260.6215808894471,616.1990985748816L254.88805783337673,616.018744928878L254.88267780871803,616.018573242729L254.6402530991099,616.0108322678701L254.1605558383844,616.0069036765202L242.37308824102598,615.579343407578L240.47489521191608,615.5084271320246L231.27373991948917,615.1143792208206L230.49333023373956,615.0803380600286L230.48473549913552,615.0826114654168L230.0059873570648,615.0660206218417L229.48319077169796,615.0478616984675L226.5984446985462,614.9468814030291L226.57607823246863,614.9460933010123L225.52726751455936,614.9090482798955L225.52715060873487,614.9090441409253L223.9301269506787,614.8522999640732L223.6451177935462,614.8421306281788L223.57366936803214,614.8395792724288L219.9291544374951,614.7083610728296L217.61368800212125,614.6238978412791L215.2796629791754,614.537895348139L206.49500826970626,614.2064431013767L202.55412875630861,614.0537650560318L195.07258602588058,613.7571221229979L190.9993835367918,613.5925081812424L187.87070813619482,613.4642751249143L187.06738717011177,613.4071217831628L183.85841921633676,613.1777870377665L183.09853164306543,613.1684005273253L179.57585190942757,613.1236896345574L178.9182983133049,613.0926837572345L171.92736655597383,612.7587837713882L169.30777099786178,612.6316639481599L168.25595541080713,612.5803157467001L155.68558219418077,612.055924608493L155.66989545196975,612.0582924930136L153.69059394587453,612.0120453335678L153.50514994183936,611.9997429717506L149.06189455886016,611.7033361159339L146.9245722050822,611.5613670068834L145.1636259812155,611.4811103003478L131.81074650897682,610.8564878481725L128.6319594610506,610.7036096248148L125.88408926507879,610.5701598504601L122.61765450402214,610.4099629410839L121.9406076873048,610.3693034606333L119.66625286655096,610.2321839699764L117.0893949474123,610.0758303329012L116.81750484886817,610.0592713674694L116.0562501388028,609.9640219473253L114.1165209237987,609.8015926125719L114.11431598785947,609.801407632398L112.14972371362313,609.6810733491042L108.09557416582385,609.4308051864822L107.32727091331634,609.3830813837742L106.2022207797072,609.3130281105131L106.13835988268806,609.3090456429845L104.83816186245593,609.2278218041106L102.19177977931417,609.061668565603L99.25111667218636,608.8757287292384L92.29138938680217,608.4732855285681L90.31286244604468,608.3574689989599L88.3631800613731,608.2427306459452L88.34529017172781,608.2420221073961L86.37025660175192,608.1634869872571L86.3419256289086,608.1623559245637L82.39341725913812,608.0034706816189L82.37449507314761,608.0023561104598L80.39002717504474,607.885148432799L78.42922121414381,607.7687218085489L78.42085596738826,607.7682237931853L77.63757889942252,607.7215428746212L76.45345949485869,607.6507873146459L76.44191386929748,607.6500963201631L73.1132151299808,607.4343843521756L72.54896810584631,607.3976438451223L72.54793746623142,607.3975671889082L72.50625701116428,607.3944669656423L71.42932944976184,607.3142680223909L71.34088427078296,607.3083511359026L70.52996500300054,607.2540433199052L68.58607815946425,607.1234325646914L66.59139010359888,606.9887814977769L66.59111050250675,606.988762578839L64.45484926913474,606.8438502554554L62.63621720096381,606.7199101113579L60.660524332613136,606.5846678964627L60.6597780338073,606.5846166922908L59.280845223200345,606.489855123682L59.25032785564565,606.4877545078239L58.6256306328807,606.4447217657148L58.62363536540107,606.4445842203852L56.74212650399005,606.3145980306077L56.735943176768615,606.3141699165869L56.0377919451596,606.2657928772531L52.75127890948795,606.03701481567L48.78459750346457,605.7585922874681L45.369547498165105,605.5168759731529L45.29612912886023,605.5116589880837L44.19761021110406,605.4334972808389L25.77113695075218,604.0936807390858L25.029249261628763,604.0386008093873L25.010998234744477,603.3029940633359Z"></path></svg>