<svg id="UT" width="1000" height="1000"><path class="state" d="M118.30741991799135,853.0443497423073L118.48264432341745,850.7448494926043L118.7726041238335,844.6904008329132L119.57807150618737,827.8634338317302L119.77946324237786,823.654202645077L119.77293126162334,823.6055079230466L119.7963023216206,823.4703293588937L119.95934141503852,821.6875442477392L120.21758634485212,819.9106095162156L120.80666033006179,811.4344491566361L120.73956871478026,808.7854107358098L120.9427086688516,803.2545779408742L121.22450952370707,797.7292886649902L121.6710709633997,786.1278611026037L122.09827546742036,775.0281989233335L123.41389858788727,746.6215441685594L124.22076269091008,727.2699704612556L124.45112912862686,724.4622656736675L125.50527493645359,697.796391361533L125.51073969612003,697.7704762913811L126.24065489701837,679.6215324242596L126.69997655890944,671.2840056849814L126.72870062183034,670.5265027008681L126.89311908513974,665.7385400603207L127.79549478044095,645.8810928632728L128.24284552314788,636.0313401745716L128.4997987631915,632.0955934285872L129.48450165753945,608.368082446108L129.63417116021355,608.1373824819461L129.72364623267123,607.6668956313097L130.61006779477287,583.6184873772343L134.9466469017001,490.1647179521394L135.20048001853525,482.08989374968553L136.73491285199327,447.79639827631394L137.0261623623797,441.28243951933314L137.1458052750395,437.5191724724484L137.23410557346665,434.7420530013337L137.53399783167498,429.6928763836527L138.23375004655105,413.71173900572865L138.90491869241913,399.70984402082456L139.05164489658262,396.6476180328015L139.2797713896133,390.4069866359446L139.89111776198104,377.69345643836317L139.8912738999473,376.502878034387L140.0020840917266,374.1210537963352L141.0047601517166,352.5579451525041L142.33848984579862,321.4128664545301L142.60144669536498,316.4556701550116L142.73182260383055,315.4382874063144L143.20395497271136,303.4331379653132L143.20620588007836,303.18471303804654L143.33472769898566,301.17051020919047L145.00602946020342,267.057846915258L145.34157525543299,260.20187436592323L145.34392675448225,260.1538193193736L145.3815765166333,259.08276424438213L145.43556990105566,257.54678846960303L145.4860856319512,256.1097648996121L145.53578105269247,254.69609723818377L145.5562773147617,254.11305341357343L145.56453469881353,254.01269627086134L145.75259904159032,251.6908943478012L145.82749952477724,250.06981793646344L147.2181483036373,219.95179584831175L147.71536791372978,209.17397419045483L149.4624412745992,170.53317173270466L149.33299255108807,169.93747016897436L149.56626968634316,168.265934518236L151.87652792223128,117.85375584894228L151.84276725451235,116.32413956524334L152.818211393892,95.04246538790875L152.82284157131863,94.94140197767666L152.96289220751686,93.1774651735895L153.98573906723112,69.33574369334912L154.57389263163822,51.43274721003371L154.57991337412471,51.43707537551023L155.04938095349627,45.119408237437256L155.61837227443567,25L162.16966513406055,25.464421584659476L175.9411933527154,26.883191872249256L185.6989312250647,27.187483303073634L189.2817805908145,27.209197365085572L193.5878429268525,27.30670145722479L193.6133845659582,27.307272590618084L209.43410115585817,27.614561241552337L229.81793456714743,27.962346979506776L230.40954443581694,27.888195247790975L239.33004018821757,28.08345531108779L243.35744099459296,28.142523887052448L244.14468327802322,28.1504519295068L249.47885945929238,28.385757183199587L251.89072146994582,28.294141136608857L264.1426228537821,28.49122052297122L264.3749055202208,28.388201677084908L298.467073949264,28.903000529747317L298.4672312824049,28.903003886084548L301.42268014642013,28.965481429076988L301.43223713740804,28.965681613184415L310.99139620329726,29.086208051544702L314.727961963546,29.1440106534115L314.967877997821,29.14939877036727L321.4883261183967,29.209595298269335L321.49379978015395,29.21710022680827L327.60890041858687,29.2725103919052L338.4774903597394,29.366398280064914L341.54278774649384,29.42295200277465L346.89929812836317,29.51883526636186L373.97088440001573,29.825627050241962L374.0051488786077,29.800425037533444L375.2857478757721,29.817299946236744L382.8450759643169,29.912553970406293L385.78306207439164,29.95405473903105L399.48713971979134,30.132759236763718L402.4208339913234,30.128894002562845L403.0333015598513,30.127945442700025L403.42069252940775,30.132446487481445L404.7165196661406,30.14736029372625L409.3659718330159,30.199068702750708L412.0522772445047,31.073401908092137L413.34252390542486,31.05905111203191L420.8159459433246,30.957048079423657L432.169743901499,30.91994053718912L434.1825951226333,30.911607749227926L439.3899992012846,30.92943207735175L442.7224016248486,30.93898308703632L444.9718947952615,30.9446117147279L447.40993299687034,30.94996701110415L447.4394323124923,30.954345832075944L447.4399166856343,30.9543474274667L450.09484764029963,30.96263240910025L452.8118775601027,30.970159562086906L458.2555262420986,30.94160448852392L461.50740096444514,30.922702847263622L461.5512771847143,30.92243838657771L463.50721970463917,30.910394046320334L470.0717267001811,30.86632403306413L471.59249733994824,30.86678789569777L503.50407971742396,30.806962622327262L508.43032555184004,30.750185020457593L514.7235963118271,30.521804594459525L515.3602268407733,30.527672854093396L516.050123609671,30.532876473841725L531.963084891677,30.396415262973278L566.7306601696191,29.9833632753801L567.2520454418525,71.00673149886649L567.2520487890837,71.00699459701735L567.7234341417972,108.02304347467043L567.7571672210963,110.66931111762756L567.833116655261,118.82622835464412L568.0816667954754,145.52458346528414L568.0702901178778,148.68953683883518L568.2309744589529,162.612031593057L568.3040220189037,168.9390724692318L568.311199407318,169.60992826314583L568.4050868286373,178.38457301950132L568.4944297598546,186.73307677420513L568.8095237495825,216.16546134249677L570.6223947134553,216.1539342810051L593.354063955952,215.97369189650112L594.3917055194416,215.96388594920518L610.4328884676868,215.79476039594658L613.3763844044674,215.80011426291134L615.4542583820526,215.8032259905529L630.6682833886064,215.52697912110523L639.2670032004818,215.35774072486356L640.0886496983168,215.34107369599576L645.5923339999351,215.52534103097116L663.1664025300859,215.09818623850606L676.2569498021667,214.6236178775091L680.7348381197193,214.45623883698818L682.5459676005653,214.53313597149048L698.303904548685,213.90165042868608L698.873142362495,213.78310647466952L709.1543668236975,213.40519290111007L715.0535205564045,213.18223446794173L715.8694727636486,213.24405544153637L715.9918752619087,213.24447667090334L719.405054358386,213.0326223078855L736.3042440379821,212.55435515988182L736.4440722869994,212.54102459860775L751.3199051919785,211.96525782964721L753.8358021862105,211.86507464275076L755.9590286748335,211.77989594823538L756.1738124458215,211.7583534531825L756.3946685093424,211.74956293232145L761.4061996779153,211.54841214681687L761.4361515058024,211.54720026857717L774.1233134847745,211.1114794442404L777.0798484298152,211.00697738919047L780.0864111829545,210.8995578359777L781.3189030775449,210.85518801728722L786.1212397787735,210.48564468913668L821.2192013598476,208.68484058894512L823.8440998691158,208.37426826647027L832.0424055743925,208.2338075968189L849.4027209796279,207.4713920017428L851.165732887051,239.96867812258773L852.0589981315966,260.76461759091995L852.618547886884,270.4542578344309L852.7155355775415,272.1331938569242L853.0480679060647,278.5472951568921L853.4565088309595,293.2758313684312L853.4569183188523,293.29060820010636L853.4778510241098,293.375184611676L853.7252659973992,300.8426111855303L853.8228963988065,301.75035825296766L854.1815598534217,311.2366060576762L856.142377295068,352.7308732084302L856.5128759801165,360.5656998743132L856.5182446638032,360.5911786029252L856.587424158261,362.0263696031876L857.6134451585199,383.30432525610314L857.6107350690021,383.4293101114556L859.2861415804969,417.9669301444219L861.1405164978003,458.31843177991743L862.5515220896514,488.9963539654975L862.8955820372296,495.73175280543717L863.8143590210341,513.7087523868388L865.8700897348537,559.1842950843816L865.9459862638203,560.9937144082494L866.6942956534483,578.832677616371L866.7170570068813,579.3752520372607L866.8718888400499,583.0660067977057L867.2614723554972,593.8927283658653L867.2738821534582,593.9702114941432L867.5266271893219,601.0227721900263L867.5129468233241,601.1887495413337L867.7425977304738,606.7711521572237L867.9886452846899,621.8818630449052L868.3530009827364,636.2443324685638L869.3381831674874,659.1598273540741L870.2817404812711,678.0553750605192L872.3063600442148,720.8274635095137L873.3957865831057,726.6195550563892L876.0625157197527,741.838797261305L876.1584234811003,744.0670884938213L877.4231976881391,773.4472876628093L877.4438902338704,773.8742807912033L877.6082129829748,778.2384019295805L878.5367834065785,791.0469671590279L878.6872480902998,796.040623160703L878.7356318073396,797.6467446124836L879.0374059026581,803.5314031911652L879.0901465243485,804.7238074369112L879.4641534489576,811.5641427806304L879.8304562140158,821.1724476409163L879.9908367992225,823.0437778674896L880.2218193107884,828.2265366356412L880.2442581618436,828.6036928468043L880.5801908206554,837.2664608975203L880.9986287704808,845.3760051226711L881.0490081988665,846.5533465956407L881.2233150296345,849.1403754859762L881.8947392491646,863.243504018323L881.8877994505444,863.2578938016231L881.9857905651667,869.1572962266675L882.0776241522756,872.0961408293349L882.736928483353,893.2093133161734L882.8743230507589,896.1469471394112L883.1703559240992,902.4756740012187L883.862699112379,917.2728851960463L883.9384284307483,917.393176009295L884.0299329861925,919.2130928370789L884.3114236014435,924.8108377327794L884.3199138249615,926.5512364126148L884.5457445060908,931.2831919851391L885.2820007894652,943.8511796112965L885.2757595645877,943.8719734694394L885.303614931324,944.3527832263176L885.4241113531873,946.8977112916923L885.5457109422948,948.7949155323286L885.6457360370453,951.0658220822274L885.6470037158551,951.4368893574663L886.1501467771129,961.9817716995465L886.3254314911902,965.6546409887844L865.3539535889405,966.6060513323323L857.2331932769089,966.9753258229862L855.2167316064084,967.0500771422484L852.6766004387252,967.179112746181L851.9328572527775,967.2161089897025L851.6420540628187,967.2243233137842L843.9744116845811,967.5713961278582L840.7379321490191,967.7157850672236L838.4426561598965,967.8174253946395L834.9926541522505,967.9690153484805L834.5009127460987,967.9872420851093L834.2959011330403,967.9959780866023L820.5650705695473,968.5696480096127L820.5649092980469,968.5696546151993L816.8970224740519,968.7190856264364L796.794330013521,969.6542362911406L785.4451979953412,970.0626527661976L785.4441758859307,970.0626888558495L783.8208631461118,970.1198489745211L758.2130734399309,970.9799272223439L749.2822806619153,971.3182549738483L749.1905668398147,971.3216799841757L738.9232796234395,971.6987567815542L738.8893925950952,971.5965006743729L735.6626431418804,971.6757079387246L716.401836015756,972.2706946203316L716.3886965603949,972.2710854003667L711.9043526167418,972.4032507390905L711.9041308104738,972.4032572169576L696.4370630874787,972.8407005274853L696.424742942844,972.8410375913721L666.8469747948304,973.5980419766959L666.4438724043861,973.6076380194511L663.7419562869887,972.7637237579135L663.2217898866834,972.6011400276234L661.7088129086432,972.4996319019856L646.4561773752197,972.9711616909792L642.4279747280883,973.0557756579226L642.413718384246,972.9970658629663L630.624228351495,973.2773698810227L623.1170215065373,973.4472190648328L575.3519817927587,974.2727289883085L575.3509614137506,974.2727437173492L574.357815046701,974.2870207866515L563.9809316960108,974.707244075159L562.9927702179021,974.7138996620938L562.9912123334308,974.7139100630666L562.4912892324483,974.717232775213L562.4908847206641,974.7172354517327L548.3443168476341,974.7989101554742L548.3337376595834,974.7989623077096L545.5173191678606,974.8123718815292L545.5079328602069,974.8124149909494L545.2745769436503,974.813483371836L541.6568337524104,974.9587045678061L538.889483186657,974.9501048851117L538.5701865293622,974.9490539165264L536.7716565747319,974.9429070236654L536.3209548408778,974.9413062285062L535.8394685226247,974.9395693428938L535.8195811454442,974.9394970080625L529.6962369962539,974.9149830767831L529.3862891475906,974.9136234038303L528.4887185689412,974.9096213627813L528.4247170531779,974.909332328235L524.2311800221852,974.889329956967L522.007951851342,974.877875322351L521.953609415762,974.8812337824897L521.9108272346077,974.8814674764712L521.0568892772212,974.8860864005862L520.885766835904,974.8870015421043L506.3634561402059,974.9519475487552L500.07632531764335,974.9722671368563L497.2842825499261,974.9797800482596L488.5810606145295,974.9972364007285L486.5586861628819,975L450.9861184758703,974.9689075534736L374.9693627785881,974.3969000331226L373.23154045020385,974.3553887168032L372.2542660077181,974.3460167995017L372.2405950139604,974.3458848892037L355.4217362810847,974.1667263922167L352.17386056020246,974.1282443780678L348.40239391910427,974.0819806255912L348.39661582923134,974.0819084460541L347.6604188470575,974.072679356177L347.0602925656689,974.0651082666532L347.03527998969446,974.0647917802335L346.76120492937946,974.0613189969287L346.0316899051263,974.0370311478971L345.54440390890557,974.0310155287076L343.8884280996425,974.0103606910657L343.85729137860653,974.0098043777082L336.04298628454114,973.8665324550493L318.31974290775184,973.5744828541699L302.11907714616586,973.2747552050993L291.3327999233916,973.0578420995703L286.8818168970023,972.9642881654515L285.4225513857914,972.9331019685767L282.98995170946273,972.8805499120166L282.25088179408647,972.8644438110197L280.9727397081216,972.836436280681L274.2018250426104,972.6741799251204L273.3143383523361,972.6525070507118L263.46534962136354,972.4056824891604L233.41891520757832,971.5811837742488L228.4993388619564,971.4359236878049L226.25247288048638,971.368619800237L224.44847181472494,971.3141456798073L212.57608676928857,970.945954543144L205.1417242840722,970.7068313656231L199.35442498535298,970.5161184766613L189.6605488980972,970.1877119165758L187.49305685988935,970.1127475526787L179.8522815970719,969.8440117130629L179.73461491848803,969.839818726059L126.73512504741672,967.7831077103704L126.73552517535734,967.773643206956L113.67456850880973,967.1394858200619L114.24256842712191,950.1358016144525L114.2528342672602,949.6447898389974L114.20801526329234,947.1325397349929L114.61219371358555,941.2878637595879L114.67257466708298,938.8135662627944L114.96376813610738,933.9463988117993L115.5240351666024,922.0967154824111L115.85854432485735,912.4617686342331L115.86413588353031,912.3340762785758L115.96275373379945,910.6918802368391L115.96700341246498,910.5948195755077L116.59569350553363,895.7879996239219L116.59800959497034,895.7350799282478L117.02138919604221,886.6266616242862L117.02947408980799,884.0530967583725L117.34691694190991,876.2023478905255L117.3470011816425,876.2002643977584L117.50043842632454,872.4051876618735L117.59115583195921,870.3874090057616L117.71013054332138,867.552426046977L117.71955188941155,867.4382842133866L117.82292124603083,864.9075763550194L117.83272065435835,864.6676590209677Z"></path></svg>