<svg id="VT" width="1000" height="1000"><path class="state" d="M211.9476466049328,425.6046004451278L213.7637346888802,418.011935813377L214.34198485857226,414.60613642734324L214.67461263171117,411.4316415373473L217.32765829708674,405.91848515067335L218.6229979765445,403.22542214662195L219.62307623111994,399.7281497495999L220.04449062033584,398.2540793026068L220.18263293124414,397.7708199663185L220.09029173125714,395.7655765614251L219.5383413264813,392.2373230637956L218.9688463687774,389.9775443405015L218.98202443755866,389.4398748059912L220.20779629162868,387.3936026465386L221.28346539345267,386.7696390453853L222.74785713121182,384.75839418500675L223.01939481320468,384.1178661010966L223.62030483349864,381.41768620084713L223.88647268356422,380.2214274724299L224.19385900014086,377.3690782661764L225.16163864525893,375.7836841590338L225.2054000340812,375.46200201442645L224.8419129402294,374.6614542927057L224.64416829062955,373.5178085396268L224.80275155940564,372.59156875294656L225.118447557658,371.79581735424176L226.76024989097533,370.2911037652591L226.98459103759538,369.56673522975933L226.7990749914268,367.5383033068312L226.6890554809633,366.3351204657017L226.76486590663313,365.5877629218288L227.3883277847322,365.0054284046193L228.32917183336258,364.9030229553815L228.72828527245898,364.67695158313234L229.2636274419737,363.0257229861925L230.6242727759847,362.10540385953925L231.33739238892824,361.94369034455366L232.20269049587446,361.00760071914306L232.7262702847496,360.03233077472595L235.3096071707127,358.41661981953496L235.4781763945772,357.6643791862457L236.56399185168732,355.2783091089509L237.3598015965551,353.9023395057808L237.38453371847436,352.5350056598064L237.53764347162453,352.2363163647961L238.71463260569868,351.2847153370281L239.00888750126595,349.4685007936692L240.3077365681147,348.49579750419366L241.2693572683755,347.77551087436484L241.01653953394805,346.32154638571615L242.93025656000862,345.72382489524557L243.74572468626081,345.15095262314674L244.80878022803967,343.81043451755284L245.1579838685697,343.7116849507517L246.52418053648924,344.09557685328247L246.84607873819974,343.9828451494069L247.99515349697532,341.66721175660365L248.9706167815913,338.3100370575149L248.97669001439755,338.2891315403321L249.95240128449743,335.64992543522885L250.12639841090353,335.1791989044084L250.70995299442805,331.51966071356753L250.3627979507752,329.13073554086327L249.06187230098723,325.9583105456644L247.53024124016525,320.2352679555103L246.99475123278805,316.72566496834725L246.94839399120488,312.92400583724634L247.18540447019413,310.4217539673048L247.1889650533388,310.3841584321281L247.1839277598576,306.9131520337347L246.87478682433007,304.976212906851L246.36078121008745,302.9795301704336L246.25398242478823,302.56460778975634L244.1673817219997,297.3859611849609L244.1174159626446,294.2696120932449L244.55935001974345,291.04306502256964L245.52200451507022,289.5315667247898L248.3268764620854,286.8142183348831L249.49853174508613,285.4657936081186L250.10354322588196,284.429198011994L250.89881716437517,281.88691980914547L251.50487191583937,278.64494872150186L255.88281801921764,268.1005743785412L256.56694073352423,264.314516655299L256.58437248490293,264.0630505742189L256.6525537201396,263.07943039697057L256.2072970197593,260.88241428253383L254.8113104602482,257.23294479915205L255.26429216772593,253.4331773863293L255.23720375271782,250.40947598841913L255.1298898965023,249.4699689240917L254.98551670924246,248.20585543602016L253.69939017448417,244.45161233790571L253.58353762877732,241.78825729242084L253.0994570477179,238.4397962959057L251.3254179279511,235.5750109086247L249.47354740167128,233.61338221950044L249.02119574795225,232.92049640413168L248.86531117887293,231.75738346330863L248.97188281683475,230.35894685302466L248.9511167592837,230.16614233605415L248.73095522860493,228.1217644141548L248.1805142023028,227.3619261060799L246.8455702422301,226.78692937472871L246.57193323013078,226.48535764358192L246.2500133194763,225.72830744225843L246.1771272652158,224.39693610410063L245.97981971118085,223.71384331782926L243.84897949907193,220.65302351899928L243.76567594908454,220.16877934645376L243.97410133574138,219.19867720911446L243.97423987410855,219.19803235918457L243.94499469855532,218.70338086266128L242.7399851353981,217.100514490998L240.67958792796276,215.64130981410335L239.17631347861237,214.99456000856546L238.71232465140602,214.57739801801782L238.2505294099777,213.63864168172879L237.77030703234414,212.6623107574374L237.36602265174514,212.25724785444388L237.3309630522968,212.2221194281428L235.69216408303564,210.57986934676134L233.6517823833972,207.30096288943037L233.31374173482763,204.5901857186202L232.7076580851702,203.31188315891168L231.54396849474543,201.57479481297477L231.61180749427268,201.0548842049154L232.72515368154274,199.72763030396646L233.05320863075193,199.0714378606531L233.20153295563563,198.3487436848755L233.06322625514733,197.3686530958944L231.95970699024443,195.03541834359405L231.3525051995874,192.1729498256929L229.36557276245736,190.08067801980852L229.25171595606733,189.60941050006002L229.33625703082495,189.08987173913846L230.12491994762786,187.43535828929976L230.3911644716164,186.10258868552478L230.58877231545048,184.4122593321504L230.44358077362776,183.63573956844326L230.24234300368713,182.55935671833933L230.35975662113378,182.22112842538246L232.43814450754823,180.60912206121182L232.79119746916413,180.1556978223393L231.47141802175693,178.37588682205447L231.08894794161614,177.9931856228678L231.24277997035986,177.61644305297713L232.14632421235675,177.10839503311036L233.02554224405148,175.4574461906681L233.01862851922257,175.07610585810733L232.7471662684273,174.52445612145993L232.72489903204712,173.8701366171399L233.27727397955692,173.3146660595777L233.66248699479144,172.42709358483256L234.1984692490906,171.6023208094453L234.513364068565,171.45325404469708L235.23474506999895,171.54286338344303L235.50897629672025,171.15210766027363L235.40729213015578,170.08560545594807L234.64621373165062,168.97963479820623L235.16742294677306,167.3335905026197L234.94937868132274,166.35800377508238L234.8998593439176,166.13642621170828L234.91228956998424,165.99670011004403L234.94683072749723,165.6084191875872L235.17011576066335,165.37559499962737L235.3696116544595,165.30745964745273L236.30841885643378,164.9867808483516L236.2634979218105,163.8447766061669L235.61369676757562,162.82342150530548L235.48617715168808,162.37201533790542L236.91515343488882,161.28469983223607L238.11687599153805,158.43497148036988L238.11700552773885,158.0875437521039L237.1482007332856,157.65400499791104L236.77034735252664,157.17064773111161L236.83355374093574,156.65039814319493L236.9067310580722,156.04804534879003L237.1860777992877,145.64321893186263L237.12877077056348,139.01651281659474L237.66329814209166,137.59988747824633L239.47778766688668,135.2574188182311L240.46504529025012,133.51418954353954L240.5990707279773,133.10165725862072L241.17923668414218,131.31568297640774L242.1842097574092,128.22116220996332L242.68145565447296,126.28140414058214L243.51940002069202,124.94024315433666L246.0368115071775,122.59015886917354L246.6182284635222,121.32288311709925L246.81610617586423,119.86169381695618L246.64265086508507,115.57553067996065L246.51326229095824,114.34799794171744L246.23077909396213,113.35407859721488L244.5997302861363,111.47000709199745L241.99756111754803,108.46302436205264L241.06655452817344,106.81352807351533L240.64389615527222,106.35113137304188L239.741462894723,105.59704266573118L237.54801803404283,104.280156632694L236.8647767277806,103.61118765452062L236.40798518647097,103.16389465797312L235.927431825598,102.49883783763272L234.78960073031973,100.20126904818494L233.81475582123798,99.7572738740597L233.60458202936329,99.48706211653456L233.08840520445784,96.60473092175107L233.09805569416295,95.05298444204755L233.60083803313623,91.68379914295718L234.81635831480762,90.17938824919366L235.9128356334701,89.50946822054891L236.76804053425968,87.77143119209688L237.581058023388,84.3542506986933L238.6398124840125,78.9523070876707L238.89726659255382,77.63827841964189L239.48019236559358,75.27925302789976L240.15419434787816,73.61179437041523L240.7114386837849,72.32079546238828L241.46983653468348,71.1606897390347L243.17977815300586,69.55814494767236L244.65843253386433,68.55493171843455L245.1504390889708,68.22106823874242L245.61817143446982,67.30347830809808L245.7833736084905,66.97936287861427L245.96062331847313,64.34590046208461L245.73444422854917,56.45125752530686L246.31462268600734,49.42310821545908L246.2385393029738,47.697778917965934L246.1020704981781,47.23067441946995L244.385199331556,45.331958213211294L242.8278525412674,42.95505967926181L242.07802726752553,41.134092258406326L241.8495135063095,40.182452170428746L241.74080494202173,39.72970125611681L241.60717330548383,38.38038702825662L241.97066207934932,37.23285915457393L241.99246539896305,37.194650684689464L242.9309433016111,35.549873239358305L243.52366782836032,33.67433922921117L245.0620503102775,28.804695582727163L272.2207703630782,28.574383385572332L274.6148386447893,28.3663875714073L288.840485103706,28.156532905262054L295.14582490307055,28.059348424826226L319.51667550386844,27.659641752174934L319.80462018063366,27.966135602100678L325.55651067857286,27.99561686576402L327.1265899084024,27.56374028868572L329.22378777788776,27.639576061123194L330.3847057660621,28.02610823974294L330.3939247463529,28.029177324320813L339.90250108304446,27.978500044896975L340.12600634631065,28.01762512212298L346.3264611779606,28.222245856153222L353.6494887788883,28.460719321599925L362.7966859947401,28.440260555513248L362.81919757634785,28.28108696795647L364.48924033148813,28.086302209773976L389.0855884657295,27.570903379267804L392.8525953097484,27.644340687488636L408.8622112668261,27.946248040412115L430.4792931336104,28.099393870402935L438.54200935754784,28.148810361094775L463.11564324632644,29.043103923291255L464.0213453342227,29.18756232339757L464.11155506142137,29.226375053688855L465.2904154512098,29.73351669313581L472.9527687623705,31.04598396518776L473.4021405599936,31.05710785694589L479.7304721713804,31.212379469309553L494.63050732749133,30.754488147619213L503.9439797583815,30.855902524691885L508.3973260238806,31.09511721152785L512.8458167766626,31.332790309231882L517.7190546911804,31.591687557469186L517.8503212051171,31.59443353346768L532.9836235597948,31.903568075719534L538.5853867747221,32.24019106738626L544.138291236846,32.57187225777335L549.4080500635331,32.25997662229116L555.4883647094949,32.34330744307982L562.4774613524612,32.11113907406974L587.434549497245,31.256393631010553L592.8120770488568,31.28248356441759L602.0816373379437,31.323086264081155L604.0690881467236,31.331071634243187L608.3438869541992,31.19397664364726L608.5136027263381,31.188509457550367L618.7986043641445,30.853724573777242L625.2902269472476,30.608933222986366L627.1565982005618,30.58258376765275L637.7429462796792,30.00982320806571L649.1762444547118,29.661364979446944L658.4985073418532,29.766242397948304L663.5192539461075,29.519538373203773L701.1879594637089,27.616659994538793L721.2568635785682,27.274258178701018L723.0562845742771,27.242290577775407L746.7958183130842,26.26470691328643L761.0586804506586,26.04038909108698L762.1851800709405,25.995841842139498L773.1391397652403,25.558399983883362L778.2636423807295,25.351096724199692L788.6933153490199,25.004698072292L788.8333324286083,25L788.3590542554552,25.6978571806751L786.3393857368062,26.305231829572506L785.5142945190739,26.951017145228548L785.0255050019548,27.617581315520567L784.5734893242816,29.490383309569268L782.2887476130626,30.34724740536126L782.0621605710561,30.257317964452568L779.4119240336092,29.205163373957305L778.3319345643564,28.055611267444988L777.1775904049273,27.503549228684392L776.3765577562808,27.51308511941096L774.6741263005199,29.061453168706635L774.43326862186,29.280478214634L772.8809519381573,29.996097080870186L771.4388532084569,30.19477402275453L770.1332653252823,31.043168841894158L769.989008391449,31.136898170992197L768.239468816741,33.42547097321233L768.0971059039409,33.997023151430255L769.0069249112962,34.30881907148506L769.2938226605941,34.670196547339515L768.6172829582151,35.35258860894635L767.8012901495408,35.5373141710424L767.6266955292117,35.88672047123163L767.6846053169161,36.229602129461L767.2831304454664,36.766372632383195L766.9225572377096,37.248422166849025L767.0076482865184,37.69971447968754L767.8941409738518,37.4721667388352L769.3330716655139,40.062770656715145L769.7553799295247,40.822923295725104L771.0626300008546,41.760036792445874L772.3061754738164,44.7461662681506L772.7104810992366,45.000176734218826L772.1846026334922,45.44856729802689L772.2444354847798,45.712387401424735L773.1642593541586,45.88656377915032L773.5548200169736,45.82126095144912L773.8930141767039,45.50385610485114L774.311836807886,45.418671991206L774.7629565281031,47.796958148848546L774.2896372304886,52.377286621886356L774.7068967361158,54.03539987657052L774.6901485114088,54.14781002798145L774.5430926395928,55.134748666377675L774.319708632261,55.60754979097641L774.9389535135078,60.670991033514895L776.7084138882052,62.2264965633172L778.1175195607898,63.98601409850721L779.229803506485,65.81751978252072L779.3111584665421,66.40849109105892L779.3224113501076,66.87268761955931L779.5043518679576,67.18929262076944L779.8023311870595,67.28815954516881L780.8391148007829,66.90604801246292L781.1065549607588,66.8825786760645L781.4103459223381,66.96816962802467L781.4412910564254,67.13460790941446L781.5028025922187,67.46543939248613L781.0312646795155,67.59544910379788L780.7225311633515,68.01766646470372L780.6645058342588,68.09701781597249L780.6974131021182,68.72678465051001L781.0341784201684,69.31015971004348L781.0269140151695,69.97443656514656L780.8971553603942,70.25521933127226L780.7757525046309,70.21400487516524L780.5400422040543,70.27039295239626L780.1758787431345,69.9753773740004L779.6824162269154,69.80902413940879L779.2327054474397,69.9585965411647L778.8459787390905,70.66924711013161L778.1411795770093,71.51479732180326L777.099881319439,72.76384661400442L775.6092152986129,74.0484483457326L775.4758926523332,74.33174418242845L775.5585498590058,74.6641093610051L776.262840277255,75.29592878648214L776.1061390715093,75.84255148131626L773.2559563610484,79.77215430017253L773.0625900568477,79.88780543807059L772.0380941163598,80.50048603282482L771.5543407774719,81.03520673445473L771.4032219221174,81.40376528982404L771.355544931198,82.78625040213075L769.8105633069574,84.40221392224822L768.2139417062451,84.87584838468808L766.5547112127961,85.93212854930107L765.5297728149858,87.4060612249362L765.3513376560934,87.81290583007507L765.3317005049082,88.65690199346153L765.9133189853474,89.68483264370809L765.9353226048897,90.2938145886144L764.4209049137029,91.72263784351532L763.869302795893,92.38045650430433L763.5338323488254,93.10064597936753L763.5663329485634,93.89812829551317L764.0741425181295,94.3506763080519L764.7979262964391,95.84670794279623L765.0108119427748,97.0076010275219L764.9610984948006,97.59643168774454L764.5412835415691,98.306580487708L763.4038342249892,99.00451488432532L762.2126944162119,102.85507143118684L762.1536335482933,103.04594977864753L761.739530835318,103.35435812209943L761.4315209846286,103.36069168562705L761.3127066819659,103.04437902286912L760.5167958989202,103.40777160761456L758.7013807157643,105.80502939746532L758.3732472116383,106.6408519810791L758.499082204534,107.66109511050144L759.1875737524899,108.95257726212117L760.2621554677055,109.57477135907874L760.3113434876378,110.29957922706274L759.9467347281945,111.03245579878853L759.2145165374807,114.0546438209413L759.6547951093733,115.32468217689149L759.2309169311045,116.54304616785709L757.6226665041827,118.96081182634828L757.3169253354813,119.20913556041279L756.0375718437638,119.1311940616506L753.5655922992112,120.3944065751001L752.4368888779413,121.97195387018633L752.5280866870498,122.61487628807015L752.760820163759,123.07973516501823L752.7322569796014,123.42915554311526L751.1765105768363,124.83710842224195L750.8831725882806,125.43490070038814L750.2960091821456,126.63134441463086L749.2587012298519,127.50558794882716L748.240136108547,128.06459003117544L747.5418512592423,129.6064557848386L747.5660762531388,130.40967849611866L746.5095146358409,131.57192805266624L744.7721730126109,131.91286952257644L742.6509538619205,132.72653403999698L742.474214233741,133.05423633991091L742.4666110728274,133.92874257893664L742.5052909621427,134.02722436938853L742.7296865893388,134.59853045556468L743.9653728541854,135.17600219627508L744.4951681572531,136.4982606492748L744.5853074550471,139.3206010591711L744.432732683362,140.1586340225021L744.4785016155475,142.10917029992794L744.6896093531708,142.6306077226876L745.1823580962551,143.1289117868714L745.3787762333632,143.1341187708215L746.394817156985,142.49430790002458L746.8091708713,142.63606383411468L746.8817529428252,142.99102928892808L746.5985911179982,144.69519323108176L746.6560054886528,145.22908539414237L748.2199570189508,146.7082317263795L750.694024208793,151.08732152203572L752.223141575648,152.2199500491427L752.3939298318392,152.80791847864919L751.9617373440349,154.07444258421634L751.9692024730628,154.44966414010474L752.1552281000775,154.84926245997997L752.6021761126792,155.21573546492988L753.9300118523164,155.62989056335937L753.8723341093497,156.0154645641952L753.1521477167594,156.47137389311575L752.8238291266565,157.34165746272964L753.3394963434279,159.6967476435894L754.0121389236058,161.01575296217686L753.8994939197642,161.9101680236791L753.410852060086,162.72749821335142L753.4437534382487,162.97083667892258L755.3064927188257,164.38765234535086L756.08799629583,164.62537906335402L757.3606668070474,164.63665538732846L757.6710864064628,165.1656297320448L757.5228741909796,165.6944453449727L756.9700960918369,166.5444749222922L756.637037990891,166.93489143299882L756.6505712831721,167.6054695326067L756.9823782531171,168.54077177513486L756.8012652673808,169.29541584716404L756.4991537886151,170.11265045093205L756.4321873209235,170.29378906680193L756.445710572744,170.96441674347957L756.9648498253503,171.6367647914145L757.5248495656764,172.1164110107017L759.5635348043369,172.45712528378726L759.6613970166544,172.91406237819297L759.4971870878705,173.49056178646995L759.5750193577,173.9684611598841L759.8596220171432,174.53788676597608L760.7329032740014,174.61826474459147L761.2953008389951,174.56156519700846L761.7416407815118,174.11935857080397L762.0261119965655,173.28233389408103L762.4620791901127,173.148889563782L762.9771351345245,173.56395676457004L763.7701987266547,174.61712208143248L764.7551842518569,177.00089262329024L764.9172948288495,177.9466519177119L764.9363993040638,178.05810245726704L764.7071404396961,178.74866228862243L763.6085106491072,179.02488555605095L763.6274695269265,179.9445517501353L763.782927940706,180.22324325922398L765.6725849260381,182.04694252267083L766.7566362184568,182.8319377487297L767.5184353355519,182.47867131314777L768.1908131319562,182.68983302521164L768.292553883639,183.4294855322726L766.9000756475829,183.84977623148305L765.7324429500752,182.9728078110491L765.2474852053242,183.5347782890002L765.5160760117643,184.03346380105668L766.6881345632531,184.29063374360317L767.5997358951427,184.67932305242473L768.2377270137727,184.85011511937606L768.617855921324,185.65507886125098L768.358567183717,186.18080893446344L767.2575763228806,185.76280718417593L766.2608122964089,184.8818644604842L765.9527237459929,185.2721136344034L765.7560755501474,186.26912486532828L765.5760335479974,188.23782284684174L766.4000811794195,190.80970278469468L766.6611399407486,192.66955430018896L766.3630344090154,193.39261666948434L765.9000572458704,193.87247224563896L764.9795802279641,193.96923061317887L764.1547157885905,194.13301950738224L764.2738349515571,194.92719373613875L764.7035073206442,195.2393602184924L765.6356901474816,195.32242155923402L767.1724703688942,194.68293824614292L767.5354398014543,194.8114365714509L767.4579718616701,195.34949275533017L766.622916723559,195.88441402445596L766.5741025498794,197.18320401492886L766.2676730207043,197.76385878697815L766.687438235201,197.8895630821213L767.7724665848251,197.13810627872147L768.2811231270074,196.4607113183958L768.8073094171125,196.23142508811236L769.1144538120382,196.4732852198267L769.1809798903587,197.077826901601L769.0248684737388,197.77254730429877L768.6296651398447,198.27618594887426L768.5449222948342,198.61957986313433L768.9538061018295,198.8946838502496L769.4429954503502,198.61475282064094L770.7221376714376,197.45079286908333L771.2303622258567,197.46639615931707L771.4030298143515,197.83890380062522L771.3276692833736,198.47152584252194L770.7459893287064,199.27926442039526L770.7511333029636,199.82963032546994L771.3232515467422,200.1641450778734L771.9644201873839,199.92696669104137L772.2234181360866,199.9151000715726L772.2642315160533,199.91322971584432L772.245458152438,200.2577292275887L771.6311069171488,201.23889444030843L771.5438099455234,202.02804604083394L771.035949348128,202.78742828893942L769.6714134105779,203.92167357524235L769.1196718803646,204.35507607347256L768.4366215195397,204.4766751106833L767.7490702220696,204.11605948075749L767.0738712852052,203.06691027122514L766.5500163904251,203.0120217121335L766.5216646880451,203.62068649435096L766.7258327431682,204.07404745169876L766.8716911234728,204.68033825241278L768.1774762138051,206.2319818297982L768.2534502024575,206.72832151506339L767.9920347691133,207.21279577290562L767.4110636362359,207.6570549835082L767.1312469381744,207.70975504076253L765.9881880231414,207.2261083273614L765.6850551352677,207.32708780053784L765.5590998587041,207.36904392188174L765.2767215253045,208.06238036570312L765.4269837516226,209.3779499035371L765.0642181023298,209.98292318433545L764.0313892294312,210.37473544854032L762.2194475118124,210.59331449066084L760.4690240587678,209.80751542359243L756.171057130885,209.51664692474483L755.6132788847892,209.76469906092348L755.0875506183661,210.31185100247376L754.4631480949922,211.52300256892224L754.0075656594181,213.064287651853L753.9285726275538,213.7896180956088L754.3292060608745,214.5991420653066L756.932039978338,216.8391878432323L760.7649510363137,219.63667763219394L761.407407520913,220.80766520591726L761.4401744155416,221.4930402539793L761.0413035032037,222.59196775009136L760.3576505525805,223.97846678415846L758.7594298836393,226.44601887949415L757.8281666827108,227.17977685627343L757.4275545836472,227.28206219721983L755.7368643639597,227.08160597729193L755.336192434447,227.6350903181814L755.4366308759104,228.4319314321378L755.9964199569264,229.2290312457866L757.5491829000239,230.4759161195447L757.8406315067923,230.97767861437188L758.1585800756679,232.32514127778902L758.6803371348449,233.08513933262364L760.3104882369302,234.44344293562384L760.5237519883207,234.7867509083605L760.3663923973863,235.34496364591956L760.0452565805415,235.6711742762879L759.6903096241168,235.7347520022679L758.5355527118523,235.16611841595676L757.7235890996178,235.32405642264297L757.9719512822242,236.47762590029203L757.664626331775,237.11373990380338L756.8872629737716,237.1298168303695L756.8799666462287,236.7818872258896L756.6886063311069,236.5034932177428L756.1937919619857,236.13574436684164L755.49577009326,236.2427312067691L755.3005291826238,237.1024261113571L755.2438138081413,238.1030852066635L755.201418405476,238.85099951443422L754.7886727912062,240.40624477864085L754.5373158917098,241.35323162502283L754.0944396905332,242.15211214311609L752.056960834009,242.79283590608767L751.1513108779639,243.07753611349654L749.2734809703694,242.45779019035547L748.7791065849765,242.5617201414689L748.1447112252738,243.68681027821157L746.9704904527404,246.9771125174158L745.2364077559657,247.6379710288571L743.6300280963004,246.56695574768005L744.2682138250171,245.4480856589891L746.1328254150087,244.70087882153044L746.6375819451414,244.2211280903706L746.4334249570184,243.6420127939649L745.8446112831914,243.23949791390655L744.8599987601731,243.210853468376L744.3387287156988,243.39910841518392L742.4740210766646,245.9262448949706L741.368302771424,246.4359017427133L740.5644360550527,247.07182686219954L740.0509859562524,247.91124560466244L739.9172432725413,248.3672974520972L740.025455830129,249.2076499396764L740.4196027709129,249.655716073676L742.1173434147297,250.8307410760922L742.2612126647141,251.54779743815766L741.5620316171619,252.57035280446442L740.9203769876319,253.07197809209555L738.7863817315199,252.87716183671972L738.4893315169327,253.13714277567425L737.3754373584038,255.83186001223248L736.9440998866914,259.57374610575516L736.3804095965585,260.9480886244083L736.1547578399834,261.4981904629258L735.4760590879582,262.31035180817696L734.0935592413625,263.08870977839763L731.6198346193225,263.4726271071357L731.0729000357006,263.7643109009475L731.0724897312779,264.044663947897L731.6392996150948,265.2086980315921L732.0818435643935,266.3416982603711L731.8097821422715,267.1141309633995L731.4907892785382,267.24189212845886L730.8144945742833,266.7759864696273L730.1207723635066,266.94273612175607L729.7811594620327,268.33311677886644L728.3665328263121,269.2800387041209L725.2866834752285,271.67133869067686L722.7864394309445,273.4011974514981L720.7255987782978,274.0502713237921L717.451729215845,273.7396575590635L715.8898271943118,273.9193897684195L714.6019983477518,274.3342516234405L714.0476424412873,274.8137009110509L713.8450344504496,275.11628309823476L713.4498200071191,275.706475100792L712.7792560988116,277.53482264320644L712.5501868105234,277.8307337409904L711.9914281800031,277.9630839113828L710.6572322807931,277.7405950822858L709.2180077333674,276.2737589527217L708.6972927843588,275.9433365401336L706.9652276117283,275.71496417120113L706.1540906726223,275.8952064146806L706.0828259509476,275.9110399459014L705.2346667812322,276.39555102166526L703.8059735029699,277.38633195081013L703.055409544464,278.21047380338183L702.1191769260513,278.77248529769076L698.564431814063,278.64127132145023L697.6192746945923,279.06397855247485L695.179185588836,281.52950657888874L694.8551882056552,282.1483385195713L694.8649006920107,282.76837870503664L695.9506785832834,284.5764550573326L695.839152146069,285.2680944688706L694.9199803605807,285.67050314025175L693.3372035776299,285.47892741477415L692.0782818066646,285.93603798706965L691.7137977560345,286.299747583369L691.3486036292371,288.9694913166745L691.5079431442855,289.3252879174649L692.3535731334732,290.16110372060155L692.4160464784036,290.588469329236L692.2471819400391,291.0211816099627L691.4753367442488,291.69746346568644L691.2873531782213,292.22645328432156L691.6560048623612,293.81592029848645L692.4316025781409,295.94928725785957L692.5175984090451,296.4096991301106L692.3245483686043,297.15799367001205L691.9044573768788,297.5791185096683L690.5935711940164,298.25991175477566L688.4179809744188,298.67861475908626L686.3640365163678,299.48113598913375L685.0874281071272,300.4701890755688L683.1448124497905,301.97483548551537L682.7750324471318,302.1896536944966L680.7181476216697,303.3843237012998L677.9793388967707,303.7405507497827L675.6509892516636,305.0720101970015L674.8982046145995,305.22082238873264L673.8946024972115,304.9299830463911L672.1002779771013,303.7867324183919L666.0365835721447,300.8711843159784L664.6838496162032,300.5670650443882L661.5938953370834,301.3312003072963L659.3651340853013,303.2207205675536L658.2055553682502,305.06891632191315L656.3640122626159,305.83871100460686L655.2869824374327,305.8229144613417L653.4749928900377,305.06465062022426L649.658907106689,305.1980788647877L648.1869940525979,305.62457552340265L642.8823692536921,305.3045407202204L641.858649527421,305.83552192814795L641.3348860697099,307.91257764329055L640.8055576765587,308.5167435160736L636.7025839100489,310.5860177611166L634.4588408250893,311.8169317908184L633.1176153564801,312.21203017048356L631.7687862792245,312.49585146461914L629.7994558038627,311.83102342704586L628.8315633832306,311.7008467333743L627.6403756089821,312.5527226742815L627.4575886863001,313.79768755084694L627.8972624200821,314.4505659078245L627.9486998188939,318.1897437635674L627.8969431331034,319.3958098469583L627.6336053782798,320.17126124984617L627.2642461469723,320.77234316339195L626.6018768883598,321.8501412318952L626.0262955927795,322.4219670772738L623.8951570358796,324.29332202618053L621.8789255467565,324.91054490000323L621.8216180165159,324.9280839347101L620.6355767473524,326.2355734174291L620.2117110438038,326.7027767207335L618.3198070184662,330.4360893205193L617.6581690835982,333.0236946200336L618.0570575262652,334.1096266330935L618.6253364628172,334.2409299288986L619.7076613121226,333.4144990078043L620.3291090328919,333.3938397787999L620.417263228125,334.2664052082374L620.2807022474404,335.082176919371L620.0302918882701,335.4671940573108L619.8692689677462,335.48262607710785L619.641641763151,336.1341234171418L620.0870144150698,339.16311179105156L620.1250139468498,339.243951593876L621.8401554814337,342.89193236889605L622.9991618266033,344.0661546490588L623.5006066215815,345.2289754190205L623.6822469656302,346.34809429661254L622.8882189868739,348.38287446742316L622.059437840745,351.5023332561902L621.981247852166,352.87948585071257L622.3654023077291,354.467907136478L622.3072065101176,354.7643689225763L622.2059440243274,355.2801980958186L620.6587995940674,358.8702614012379L620.8282361518962,359.75435621302825L620.574482429864,361.38785356222655L620.2629561842261,362.0794594358839L619.2390585146758,362.9115446296634L618.9456255482038,363.5369383646106L618.5089886928754,366.50223361502566L619.9595360337856,368.47523986296653L621.1219555332428,370.73411649588274L622.5006005477325,375.48032085760855L622.9519266328102,376.17001535232845L623.7134328750361,376.6481499883089L624.1361652808146,377.97942877251415L624.4414632577789,378.14012682861437L624.8710670026924,377.9923537802853L625.6858689134777,378.0026604622704L625.6818434425677,378.3675007752259L625.2160147692771,379.4714614749969L625.3696827227827,379.98014990619646L625.5172175975537,380.0397933361847L625.7040448312531,380.1153188453323L626.3573206057492,379.9252668616316L626.8403599621081,380.31576750925296L626.6411090086784,380.5167801820711L626.6066644319098,380.5515286231959L626.102373526099,381.0602451929985L626.0478782392679,381.15618399532974L625.6280198411615,381.89530455701833L625.5856773217231,382.3010683880532L625.7803209737237,385.7384125191289L625.915563211908,388.12614907451405L627.153453582371,389.5079901547535L628.2309842754069,390.0145314823593L628.3954531275726,390.41833931172386L627.3021299500135,393.2518365311089L626.907579465768,393.28950338360346L626.3428782777827,392.86682054441667L625.9815002342934,392.8772434809801L624.6619621197924,393.6117195602965L622.9294097089297,395.2912413666023L622.862805589031,395.61730487863645L622.2747316950843,398.4957318297155L622.2380023463267,399.32598280728075L622.7819107201248,401.9721685856183L623.00416612082,403.0532650494381L623.4280950933442,403.97326435241825L624.2269064964593,404.76630250295005L625.2448153063792,404.9621754844327L625.5044890458396,404.6998448606603L625.6563398386542,404.2954929816076L625.649618192932,403.2113054999305L626.2717738889601,402.23127093992423L626.8860973989977,401.8276998664434L627.9453011197907,402.143873498198L629.0524006975551,402.74430187219195L629.5044676643034,403.33389876408387L629.5986074886033,403.6944734866014L629.6164884054012,404.1249142144412L629.2988090854728,406.63342542470303L629.1787177031518,407.0341531706947L628.6084320873009,407.73753804627296L627.8793921407369,408.1880046141195L626.6772958037561,408.3413130870289L625.7385313529313,408.3394973840777L625.5176874816673,408.579100896852L625.5762076579878,408.96823619838375L626.4215974819053,409.55423767100274L627.5797096419834,410.1910294695959L629.164526825454,410.8053357380762L629.693605408375,411.81369772032144L629.445431643961,412.3485647450577L629.2968779989852,412.47486828474484L628.9493506488407,412.77033163884937L628.5822146081069,412.93409688408013L627.9343232911089,413.09126025615603L627.2370030541482,413.0073840236781L626.769233281304,412.53630168427344L626.4141173192816,412.08123659258615L625.8405881394838,411.94877220460364L624.8990808715564,412.46976053485486L623.4881636728152,412.88874139557294L623.0893662265861,413.1163429696216L623.1647074615609,413.63046703388915L623.656054608709,414.0687680846362L624.3018598105582,414.85218775323307L624.5704395299367,415.6750792015026L624.3730308892098,416.2320364710842L622.8531177479504,418.0693260093597L622.0290316731282,420.20508036594015L621.7865208885677,420.5944635777043L621.2883534097998,420.8996046608188L619.3417750379721,420.7469245918965L618.6911559717378,420.8822837924899L618.6868940056031,420.895156986541L618.2495528927565,422.2160378782627L618.4743685282667,422.54231996476284L620.1751351629954,423.51578120349114L620.3501487210157,424.21066507896006L619.0849037759909,424.4860097167436L616.5893302677906,425.9212702075036L615.8557070701258,426.46682734392266L615.3833706181242,427.1763777572044L615.2100586876979,427.7801870490098L615.2774743160277,428.56354197015946L616.4612994648985,430.5818371617551L616.6127984384536,431.3341451003581L616.4267264663024,431.8051301945001L615.4437709749661,432.414338679502L615.2482835361483,432.5354844913448L615.1439462661369,432.6001418848782L614.7453015479355,433.11477068861717L614.6018466160303,433.76790482646203L614.6735844660959,435.13637983799583L614.4548233964362,435.7519404696001L613.7340666568408,436.1093696961776L612.0549903691228,434.8917489134967L611.5932431863458,434.8306177800196L610.9970762143855,435.3658939265565L610.6929002333658,435.92612650225675L610.533355197468,436.8153684325429L610.6881170595755,438.0603394248807L612.0988311623681,439.66910643637704L612.3124718844624,440.2709335104046L612.2437069435259,440.8382149918982L611.8991858404431,441.16342910274864L611.2956946994308,441.0662016683013L611.2531874147617,440.62284659107036L610.6857217995645,439.3355389285129L609.5928150304485,438.56333288440226L608.5322892074241,438.8204387610301L607.7049079003459,439.74609073805385L607.8234172471068,441.09527136690036L608.2515713817252,443.22474984175017L608.2014723373318,443.80135723861866L606.6497831040276,444.7689763924943L604.3077004093849,447.29567211441514L604.4014009049818,448.33868879982043L605.5757046720514,449.9524951312208L605.9032163686051,451.22088012500507L605.7692229581173,454.106252513238L605.7248152802669,455.0622861315417L605.562201437617,456.2478571977974L605.093286029884,457.6218248406448L605.0910455991708,458.0955897724672L605.2293147136626,458.4327263219008L606.2217810576187,458.6514422089191L607.3718705499534,457.5836251719799L607.9857623100305,457.39652648846004L610.6148987876677,458.1201748252993L612.1268575813542,458.80216262903457L612.3944476115612,459.059302399778L612.3537113674253,459.22716993256785L609.9192345870405,459.90480071588604L609.3360711511264,460.4711689710583L609.2387657984268,461.14482830041595L609.8243902577829,461.953877879583L609.9089065990956,462.4569481430655L609.8629602410284,462.53825879942127L609.8415202408273,462.57620059795727L608.2342320038937,465.42006238072867L607.8065418792038,465.90665758296467L606.3266201998897,466.6316486098354L605.0182379610783,466.6555598069409L604.2563733075116,466.99460367102427L604.0069150594398,467.6041472791546L603.9305431745131,468.48771288461734L604.6249789035505,471.7666554907831L604.6304554348259,472.32691579556393L604.3046499479184,476.72662149520863L603.9640175785496,477.697863813258L603.432733814715,478.5287996771743L600.329675861467,481.3108699340851L599.2649887934326,482.2650981246394L596.3273030517715,484.25299679796814L594.4693799780649,485.7535210996083L593.1762796410296,487.66213147988736L592.3407289419032,489.47287259522557L592.1701449077433,491.3149750440375L591.6965375714124,491.7704000219529L589.791335443213,492.2475574975615L589.1676243348095,492.1830430645983L588.7825793084867,492.1432029513381L588.4752702372882,492.57092848493403L588.1425835617773,493.2545583971837L587.9222154119553,494.9304948527526L588.4342929822762,496.38250064533054L589.078195462486,497.50355178556987L589.3233102387102,498.11743339631096L589.4370295301753,498.40222521870214L589.7818793890646,499.2657913784488L587.6156702731856,500.4295773835062L586.2407353284962,500.5270218829773L585.1790105850322,500.886741517738L584.6397882400619,501.6951878107027L583.7336546350211,504.7104317222635L583.9032271937574,505.74924855723503L585.2823715002339,509.25567580461586L585.521293955324,513.8380269151673L585.1952511287512,515.2205308313587L584.3431588997732,516.7878756005598L583.7559033355753,518.4666877928698L583.6682742730943,519.1856671639354L584.3289010660345,521.3720516171177L585.0104329008057,522.7456762260077L585.0486385003035,522.9995167119425L585.2809449441593,524.542837987467L584.84166444331,525.9871349064489L583.0912141529107,527.6138013070965L582.3875953113945,530.1498334162823L581.691650708251,531.4830447097005L581.2535440038458,532.1022088486441L579.1652378052021,533.7390816002023L578.8033883090727,534.4142761536691L578.7451867551347,535.3237110401602L579.0122060521276,539.8833135153261L578.8844617581309,540.0123263185037L578.8837776473961,540.0130172151084L578.1894919064634,540.7141491040928L577.2142104172708,541.3760455023908L575.5209147763605,541.8828637245994L575.042725222403,542.2091090930379L574.4467889642311,543.0850967995606L573.8757738434902,544.6616602813785L573.4112070443529,545.4893422162274L570.7308659593948,549.4695527578319L567.0511331766072,551.6502045272989L562.0012008812496,554.9624981056713L561.3403250843464,555.3957701040451L559.2645893927181,555.4195912500909L557.8218086148793,558.3650695855247L556.6965413800374,559.3763185239372L555.9046809619086,560.336199070177L555.2272100205919,561.157311566616L554.5941056514134,562.4495913803921L553.0347064084785,564.913181426644L552.2390778059668,565.8842310640362L550.802071243853,566.9073439248112L550.3407915240382,567.697032275955L549.8687872041324,568.5049997789613L549.1516682999253,571.3892043476905L549.1091919637722,572.6883331657456L549.1074387963196,572.741948984075L548.9853109538824,576.4760364117861L548.9793713200031,576.65759900962L549.4850161876041,577.4499648571878L549.8710450191944,578.7169080410683L549.7876870245406,580.3850108190313L549.5264956421389,582.27201103221L549.1003896899583,583.5068892379869L548.1079581451093,585.3800328231625L547.5990022154821,586.340485532521L546.988922830605,586.8751913294327L546.6553925462932,587.8251142113704L546.3622099301261,590.622629292207L546.4671743870261,590.9610839559032L546.7288331869056,591.8047413629533L546.673114546167,593.3591093432913L546.3283746588106,594.0438699405936L544.1530845192028,594.9963958750957L542.6949775301673,595.8877009996382L542.1787150722,596.3931249524398L542.0557541983138,596.6894566136267L542.0208654258895,596.7735355719644L542.0823207054908,597.5216126883058L542.7196671289203,598.2096496594178L542.7591736930842,598.4747892725006L542.2492581259992,599.9472473916076L541.2355162221091,600.7502644451409L540.6379119757977,603.1675986613334L540.546859779983,605.1302422747619L541.1718189446243,606.8707535470102L542.1311771570978,607.6610439930513L542.5226637811187,608.3031043665828L542.5457729620541,608.5229575752728L542.7039226179961,610.027414655949L542.4538606936292,610.8063136363139L542.1232441229496,611.058942718753L541.2958064201222,611.4113388956332L537.1691066137372,615.2380788810374L536.0547316814167,616.2710116421965L531.860813034961,617.9854854596938L531.8080125410759,618.0194094192341L529.1028978806763,619.757036010709L527.2173068616385,621.9869298168979L526.2819732996816,626.1169892636387L526.2381586100983,626.8093316683317L526.7347948354786,629.937069660885L527.0078798874459,635.7600323033614L526.1399059192514,638.1262021012851L524.4137063373787,641.0091373886271L523.9334748185285,641.4287791904067L522.8744755014516,641.3765361950627L522.3609775567361,642.8402327094998L522.4053050904579,644.2181137033767L522.329141552562,644.4969129036522L522.2454103594589,644.8034040169501L521.5960781001943,647.1798847640558L521.6578236069795,648.2614061824256L522.2871659935885,649.4069210046548L524.3282092765864,651.1247218419048L525.776472429804,652.6283419911798L526.9599281886598,655.4723222727459L527.124097402997,656.202206729344L527.1111564973219,657.4931879140343L527.0963570039156,657.6328578926223L526.7397905905125,660.9973143976156L526.6076908427976,661.6197915402875L526.3788378696566,662.6980884798015L525.9187481922967,663.4501063285717L525.8494700181703,663.5243729019917L524.1274427667914,665.3701172973412L523.8103481816345,665.7099349250844L523.5198168416364,666.2995025029779L523.4861232518768,667.2490747342026L524.1371979450527,672.9994364442305L523.9516604100545,673.7979122562647L523.118402154192,675.7291728260357L522.6286137718533,678.2760346287187L522.5670827377188,681.4199252591825L522.4094595247386,682.2856987665422L522.4083474834983,682.2918065666761L521.3761557476232,687.9593259548067L521.337014286883,689.72629896698L520.9261755341074,692.7658971874556L520.9008045479089,692.953572683655L520.26533551553,697.6530736389543L519.8338225251123,698.4627156925073L518.0592327767337,700.2384549498743L517.4588892786288,700.8390699357461L516.7942370439006,702.5425919313532L516.6210949031257,704.073007367328L516.9075533731009,708.4924106937531L517.033743640847,709.1665009460389L517.4341855607328,709.8014675999414L520.2930946431135,711.7178041863302L521.3542863948411,711.8842270866678L523.8539287039207,711.7966938936852L524.4807349056656,712.1838227190037L524.4103700248372,712.4182036338709L524.2379644463234,712.9924502822487L522.8925057887533,714.8993572961209L521.723604396686,716.083142697968L521.2157886797221,716.8365784195538L519.5346441624908,720.1419651900227L519.4458875624312,720.3164381743169L518.80290559879,721.5802698876001L518.4103341014375,722.713221677679L518.4600849617912,723.2452534180225L518.9195914272389,724.3745459480597L520.799258719161,727.3986392454675L522.2926932178106,728.7702316205643L522.8467593837893,729.7851197490997L522.953993104963,730.4595871778738L521.096464101026,734.461431763738L519.268554453512,742.9993871981776L516.9871023114339,747.8023703793056L515.1443742408533,751.1113640827363L513.2989466183618,752.0433382293561L513.2917178960433,752.0469882746521L511.02099429824165,753.1933317124706L510.6722281653458,753.6230359321305L509.97877980863655,755.5190155494927L509.9202665711287,759.1252893815426L510.6230247978312,761.5865160218925L511.3683416572252,762.9821457350752L511.53244993053755,763.6186546589863L511.49935276549263,763.7968870884476L511.3007602806894,764.8662622881735L510.9968986565874,765.5495730144855L510.3426136668654,767.0207188736358L509.4910265959275,769.612273139647L509.47863250819876,771.1921200729199L510.0871340139217,773.7876673217713L510.3638624633117,776.393936913327L509.98757093906625,777.1095812532046L506.5692481683836,780.6837612137085L506.83139572015625,782.0630132433744L508.56971828014434,784.9494281502868L508.67852832785013,785.9867035687877L508.2263989025758,786.7215191936575L506.1640176910054,788.9021702873019L505.9124991199438,789.1680614085456L506.1247276978771,789.9763946482398L506.06898543326207,793.6250280014431L506.24571483806267,796.2312784571321L506.17286516068697,796.926761968194L505.8718313841761,797.5565293581978L504.74057459094354,798.5811573676567L504.5590236180036,799.0130042479418L504.6381806511471,799.818729606923L504.6482639295735,799.8400241773272L506.1414509332608,802.9928675923659L507.26398385990325,803.711919490554L508.506696418381,803.6305290152932L509.21024916085537,803.9421012462152L509.5153980944184,804.2832547408284L509.52926794998854,804.5092154596716L509.6071841718017,805.7784967886155L509.56104934970205,806.0832415372975L508.9638707870321,806.2190873123794L508.90869866271834,806.6192784137863L509.51103036708867,807.6933054870647L510.333793709397,808.6323282247398L510.43154925520025,808.7438882760052L511.0484475041377,809.4478589082057L511.95663292195985,810.9963659124933L512.0614522452299,813.3201371500916L511.92173525987164,813.9207887347668L511.40469576023816,815.0564780511363L509.6646209116676,816.6358173690599L509.1092460826985,817.6862353051805L508.9242802343924,818.8492914572557L510.1024834850372,821.3402268815323L511.34173085423777,824.764987650097L511.31952009055397,825.6455459194731L511.30928261370633,826.051386176613L511.04648915852096,826.8052938061758L509.9345283668346,828.7637444777748L508.32100189441707,831.1428265929877L506.6607702247528,833.0384188556407L505.43878778782965,834.4332924712929L503.37156400169226,836.3391733907079L502.6762428139203,836.9800840455077L501.86436373212683,838.098418977525L501.6019698831712,838.9670313794566L501.7691550516734,840.4052578840394L502.0570067242048,841.1096497755835L503.1738285090903,842.4776017303512L503.7877990511056,843.9525601242851L503.5964020369121,845.9173183762514L502.9727938690842,849.0181244080081L503.158332942681,850.2564173858909L504.0029240912881,852.3309668364125L504.0116751971002,852.3524594861419L504.20465398753845,852.8264009781562L504.80667334132033,853.7011297459721L506.04457833753133,854.3443317206303L508.59959912854004,856.4881140738211L508.8494420531636,857.1548481111935L508.87341879107515,858.2892884780601L508.5060003224578,859.0537382298793L507.37163344397766,860.4128534388897L506.43212291433935,860.6636269317096L504.8631782780521,860.3658055754937L503.94540586533327,860.8808143838755L503.03856476442684,862.1929061682891L502.5026539915851,863.5970246708061L502.3195356023028,865.2764271623146L502.72447624246956,866.7146051383152L503.4690784346294,867.5703439269635L503.4617634917149,868.0472386186839L502.1386636683886,869.9030670861569L499.7546867971853,872.5926560571984L498.8713097884019,872.7205975651111L498.0983243115161,871.951016438982L497.3464643187984,871.7917612798012L495.77249980942565,872.7134410232413L494.0303457311787,874.4471175656646L490.48202326014365,875.223214701286L489.3619385623172,875.9126063828421L486.1504551161902,876.3395850845345L485.4027433783526,876.9536068708958L481.95610976274224,879.7830488576162L481.369253108231,880.9580369671608L481.2380935351906,881.8927734770909L481.43892289496955,882.436067940434L482.11562586003066,883.3028634468693L482.70565092068415,883.4641216891323L483.07708804135564,883.7970444013522L483.4213227027827,884.7026535078575L483.67145003455437,886.0572014039651L483.7610035693566,887.8033092701173L483.71115189169745,888.4731058984764L483.5393330685732,890.7812698437776L484.4232073142313,894.9880026740889L484.36900288497935,896.2096620967911L484.11322314880664,896.7163272012144L482.91646541867823,897.4058096914807L482.60367392214914,897.8838051656932L482.18945117636764,899.7268709432459L482.2356309214539,903.5738430757451L481.8375146080571,904.357337341764L481.83169335258935,904.364786423093L480.46221529985587,906.1170048321017L479.4181087244985,907.1596902344149L477.65094006392303,908.0987517659103L475.9590985986911,908.7326335234729L475.71215759488973,909.0100297550466L474.9307602609922,912.9957347372286L475.02150973601135,914.8206448679402L474.69357938836765,916.5370769241943L474.70501271916737,916.6417700518493L474.7254102439756,916.8285441181986L475.0258723026983,917.0455235254315L475.3064214310418,919.4228099037697L475.061660469475,920.2059049023078L474.68075978476764,921.4244386046109L474.38933345818396,922.356628965895L474.6009801697782,922.8307422880208L474.6829278688399,923.0143079128018L475.56506384803015,924.9900828191014L477.06284851421907,926.9452737434599L477.4186607647581,928.7969007355974L477.4702528601661,930.215189824808L477.84733403993846,932.9164305827312L477.96080816298706,933.7291653665352L478.0559918883674,934.4842845567076L478.24047668476555,935.9476922453023L478.53551072395805,936.5600087336348L478.90524828216434,937.5198199183162L479.2672219196019,940.7592478908049L479.84157553506907,942.4779947208511L484.0431228885379,946.280799328013L486.3724128864777,948.3879389207084L487.14661314606553,949.2597492537686L488.4072180746001,951.1145067199766L489.29839877992947,952.8654264663046L489.55070407446783,954.1329558688764L489.4541270801704,955.0842705898826L488.90903247784274,955.666546099185L487.47444296827774,956.416927704838L486.89618073280315,957.5749152001553L487.0985845702569,958.711903098959L488.0148545245398,959.5985273220642L488.7006341634174,959.6257942094534L489.5856236128231,959.3464028348917L491.8204412311623,957.9837569898098L492.2608484337556,957.3983389403081L492.3990688304136,956.174256158742L492.65467410952175,955.7817354398907L493.4538630321564,955.6253343011986L494.7502557883721,955.9643119716363L495.78414225186674,957.2505527424704L496.2070714407944,958.2524754323912L496.6762511915844,958.8528981503017L498.3752576872973,959.859158759608L498.91181898510763,960.640753157231L499.43190873331633,962.1202174877155L499.81544345444695,965.0343882852313L500.33001590106085,967.0450459756277L501.9477011823691,969.0073558194539L504.057028495293,972.3448228021889L504.8357179206509,974.0627322246681L504.82987352681073,975L486.93835015850243,974.3846623379128L471.845899392845,973.8502548035602L470.5853891982901,973.8049863404871L461.7847936819756,973.4862037696911L456.3370059477984,973.2864774127493L438.4535991143964,972.6179785529445L434.8889987994721,972.482374011019L406.29799455156325,971.3663754145332L402.6676055460121,971.2210635128962L397.1284560642897,970.9977845577371L382.21922882009653,970.518471622182L380.1794357742267,970.4518298751997L374.5005036575585,970.2649440827777L360.8664953815351,969.8081559083884L359.92336608249013,969.7761341376346L332.78347599361365,968.8311785092127L331.4761726264423,968.784514941526L323.6120761350889,968.5169352931274L310.91158558914776,968.0767477091795L294.76046123078754,967.5026053500833L288.287744026174,967.267999595771L273.05525826317216,966.7057034640468L257.16402213443644,966.1038454030069L253.64434205862756,966.03062384756L249.4607140018206,942.6118161058108L249.9740151508048,941.7080635207705L250.90320117590997,940.0718296923976L251.25190699315576,939.0424354336997L251.7246616644875,937.646666880827L250.73991191290472,935.0124848739175L251.32138568578117,929.189052709316L251.6555287535529,928.8332131716425L253.37527239209817,929.4983022593944L253.45200892040424,927.7751619185465L253.4525630610918,927.7627176884433L254.5609876085755,902.8467364796837L255.0922400284503,887.3262503776771L255.17676257723951,884.8553360097452L255.20922170744248,883.9704206264757L255.24506789064705,883.482491233862L255.6282131199258,875.3799758016187L256.70122897755107,852.6604961722035L256.9598555067596,847.1782788859176L257.06221526161244,845.0078490667328L258.3929147119485,823.6628083929963L258.62807093427125,819.886734686566L258.8301152278432,815.7432050248974L259.17986502934195,808.5672264364076L260.11674724242016,789.3241100931928L260.5179400008773,781.0745677698312L261.0724000948337,769.6643148252601L261.33573644781376,764.2413822273827L261.3539383467545,763.9673578979325L262.1462429702156,752.0330874514132L262.45200038206957,743.7959190956711L263.0012552398309,728.9859614342122L263.5864070978588,713.1897704092692L263.591380335029,713.0554365451148L263.61782924794556,712.3409926050253L263.7342853363917,708.6924704023734L263.81318734956375,705.8698213856611L263.84425012910106,705.5741872238718L264.3092897513744,694.392874668704L264.45182280896734,690.9638632969043L264.4957338775873,689.9072787087587L264.6733351344151,685.6329515133566L265.0007799286632,677.7485538928411L265.4113379805879,667.8559560050056L265.55995704848795,664.272996027096L265.8518075640131,655.3779076724005L266.1612765619748,645.9395151512872L266.1654494024644,645.812204529012L266.28601669541047,644.1712751118152L266.0134730538566,644.0167798986079L266.0111517705049,642.384122501624L266.286898312779,641.3049729255346L267.3353871617243,640.5086185555388L267.7868416551878,639.8111912222564L267.950729626516,638.5980448033995L267.902650093594,637.5067409535905L267.7661438713138,637.5251867371682L266.7233312623504,635.2679471996986L266.43069988881336,634.6344187419062L266.0659588578764,634.2324226810501L265.3709026876005,633.9695680775402L265.3197604427811,631.0655863543147L265.9274053929921,630.179180700185L265.86675942482657,629.6473336192491L264.6893218035149,628.391954034146L262.9138684775644,625.0119593174917L261.2883847572051,623.3610098475333L259.7154650164756,622.0615654716571L256.6166044106242,621.0851176205376L256.2537147230451,620.5971497357116L256.1607429443724,619.6949148286811L255.08220407309315,618.9799997859568L253.59236657765558,619.1421875220434L252.4868920391114,619.2624409566395L252.16304376424787,619.0710889747431L251.95197571858668,618.5437617770386L252.2346954723187,617.6098856585807L252.94376145474405,616.7822728150966L252.87124713858444,616.5345735543964L251.51202636609736,615.5979426237593L252.64386804693387,613.4395895348096L252.78271195964274,612.9006948234355L252.88276539422748,612.0138232327862L252.98362506601353,611.1197301368911L252.99603173637806,609.2988718551286L252.5558055767952,608.1932394487646L251.2945323041354,606.1770060594284L250.61825893191025,605.8462733321389L250.16357205332713,600.4080873071259L250.14765026395554,600.2175961214955L250.01143642699768,599.6585945355781L249.54600423876252,599.0935829794005L248.91780169855213,598.6875120516803L248.48058254297848,598.900382344767L247.58602852628422,600.2904677479837L246.92723042738373,600.0800969220859L245.51334981091904,598.921161716535L243.61579498557523,598.7841991336846L242.4637451773004,599.4815612379423L242.33230801594414,599.477957647451L238.11876214960435,599.3618619530322L236.4670774776315,600.8176141627649L233.1873923728381,599.7152612767708L233.0296938956804,599.9068822330622L231.08679432919322,600.3617184355758L230.6060279061432,600.2799145611716L230.0921057054921,599.8219217391902L229.19343655237589,599.9016852008858L229.00468207500796,600.6199707370024L229.7732538004101,601.8909373714755L229.75095347395379,602.14695152215L228.33847791683797,603.9597475404642L227.8829288686551,604.8167983095339L228.94591137469078,607.5610136207499L228.9112661947239,608.0442033468912L228.61019210571456,608.6856323672469L227.40742209635923,609.860516887328L227.29715980644613,610.1763764719334L227.4518385841278,610.6281071226867L226.529641722796,610.8924459905968L226.39556601043554,610.7873554819448L226.2088975603635,610.6392456248163L225.55977072295997,611.1029934561918L225.56969987857937,611.3470455210562L225.85454725655748,612.437329858195L226.06836297488752,612.9363553099064L225.85064763127173,613.508402325873L225.34625586713872,613.5688113740744L224.68684235939074,613.6275225844611L224.44937971966857,614.3664800188217L224.67960950775344,614.8060283146274L225.2543187499614,615.2606014859305L225.67049166949965,615.3732474645109L225.81655492380375,615.7958897493405L225.50833893542253,616.3455926983435L224.9517896121682,616.9454626465172L225.1690722979285,617.6578485377801L225.74094150310373,618.6447017634176L225.4809802288595,619.6465047451751L225.22780924274673,620.1650448574017L224.641372625484,620.4529533718102L224.08359874041744,620.4877182493047L223.55426890970347,620.4863380808081L223.04149181977849,620.9245624653731L222.8849968238778,621.2904629511322L223.05083906134098,622.069464561951L222.89849308674002,622.3780649011059L222.86039173484843,622.455243363559L221.89415846063864,622.5648551851482L221.70569768478018,623.1979559408446L220.99677921566638,623.1973484867115L220.34921378579045,622.846517710325L218.75910153250632,621.874302743943L215.390538590616,619.1090126744615L214.3866859746732,617.5352174296634L212.50694938080204,616.8923564860632L212.49595832052185,616.8842727635572L211.92018096283118,616.4607791517277L211.24394359475616,615.1890239388376L211.16666757139174,614.6697438709883L211.45163923019823,613.7416466768975L213.10699385088878,610.345806787816L214.14147467109356,608.5983877213962L214.00045198090115,607.1495616861478L213.5281080679926,605.2854377140225L213.56830371392775,604.7190141011586L215.38223050554663,601.3312975893232L215.4364047766637,600.8754374693892L215.25059115506954,600.1934828519493L212.4376587366328,595.5489873982903L212.2482703682865,594.6692233945505L212.92023872135607,592.1680299988375L213.3040495707152,591.4719174223517L213.81561456034382,590.9045055020179L215.2612539430651,590.0111458243612L216.26281284139088,588.130440477629L216.5864046955591,585.7472858944918L218.59602929520165,581.1201915263138L218.69925876651354,579.8444216494705L218.81736652210043,579.4689496098783L219.84410427637684,576.2042598136312L220.05876610332888,574.8165975925452L219.5497558673866,573.2871448136762L219.71139122092123,572.5242713208553L220.52529757812027,571.3364978052042L221.6563156527478,570.7225321776472L222.5122237594155,569.8200076312726L223.0630962356234,568.8457396564111L223.10928040613715,568.7105517143169L223.6663347707573,567.0798168380093L225.4796825713083,563.8493016220864L226.3687326870231,562.7333479955576L227.94882245952041,561.2404365416129L230.12966950619162,558.1133560883628L230.35696847290052,556.6827993288838L230.15226145175396,553.8702803331064L230.3197250405143,551.0976571900932L230.49886490906724,550.2694294493484L232.5740021120804,546.6068750418588L235.13196645023035,542.089903210407L236.32884190600018,539.4977243780073L236.37078190169728,538.8869735918711L235.15100633343914,536.8908338329741L234.92507631789022,536.1644294019646L234.3666727274243,533.0658547138181L232.90997395989993,531.2754130929376L231.22772965214008,529.9552136323796L228.81402405728844,527.6790273852853L228.56370992132287,526.9308210378068L228.28361209535132,524.6788878361659L227.99545538621314,523.6830498733848L227.98074498983016,523.6475285627474L227.55411525374512,522.6172782929112L226.83394155156316,521.6309819293343L224.75315642910772,519.9216460744544L224.1183352716845,518.5021891327178L224.0489875877843,517.9146579775543L224.85284701155652,514.9584288925006L225.40879405155152,513.707634485204L227.38372906130647,511.7015578101741L228.9671794281337,510.8775641110049L229.85363186585587,509.542981193551L229.89518348640507,509.43815819347685L230.29865740269437,508.4202443933127L230.23958774334093,508.0349780321973L229.86543796310488,507.43943174153833L227.73081894792855,505.3665201582738L227.4825719951111,504.55736454712064L227.42803435956867,504.3795903782989L227.61411132909234,502.63284691347855L228.29054937925318,500.4019722675894L229.88914188994625,496.4861800714848L229.92635546045,495.90741407117827L229.27818249652148,493.94219030527654L227.19698817537483,489.5045224522823L223.57312378052785,484.4527865539327L223.17737959171245,483.3619572683716L222.14869828165718,478.6408239567902L221.1117636552188,475.81266523487454L220.19220301331632,473.30386351176475L220.19198582338458,473.30269481029273L219.95752018050499,472.0409430580781L220.96085590442433,465.48837835900133L220.68075143332436,457.83415817731424L219.41217318452087,454.39402316954295L219.03154716538504,452.57649853675457L219.05690878004387,451.44426352782085L219.48053388467963,450.01092870432865L221.18555424126802,439.58552067809245L221.2061959114514,437.6254451174081L220.81791333581987,435.9481726859515L220.71841607501645,435.5183213150297L219.84869020182887,433.1791171806629L218.79792442776883,432.09759875060934L217.09095623120967,431.0497441265551L216.21630790302368,430.7254241159898L214.95832247458628,428.8913020162283L214.80010359473934,428.6605892968495L213.97927188333978,428.2200104853122L212.1884806516457,426.61113277517194Z"></path></svg>