<svg width="500" height="500"><path class="state" d="M143.57768822744043,160.1086847307726L143.3782701041295,160.3499588807972L142.8835273872161,160.60170246691132L141.6541873996137,160.63583124747424L141.27098949028584,160.5719236057833L140.34247201075013,159.39646692311823L139.81100963454506,159.10173343321108L138.90286545735705,159.0369745209168L137.77325575118977,159.35820386323917L137.26632847373122,159.79549054499563L137.59825847298083,160.3436591187791L137.37056573489792,161.53379255473493L135.65429057184465,161.84849081852946L135.58652210991374,162.35470133553542L134.5870819287333,163.97347737724147L134.5739141818891,165.44935904718946L136.75190981113408,165.83095403538906L136.92996400750263,165.68032187263412L138.17335830453595,166.99126975926896L139.1715912158886,169.01208305759616L139.29813064627098,169.33553881633608L139.44352039939565,170.39978196380943L139.84507369540546,171.73205945043168L140.23226928552427,172.3660840445444L140.70494701858485,174.96309095306245L140.58492828967604,175.43707438421995L139.86003178718244,176.21358826969526L139.83537697979406,176.4762979183656L140.77179991156763,178.71157516211773L141.24365764451323,180.93671848757594L141.60113212957006,181.15677055519558L142.96744391697558,180.59323171537648L143.1115320279382,180.43045675117162L143.34029221036053,178.99847181851237L143.0152334455243,178.47213359906527L142.5645582299209,177.08239068780966L143.28719168242966,177.0217955785954L144.58870848697805,177.3649649061987L146.24863966085218,179.71439419211083L146.9825838559573,181.0014512021179L147.96852281477243,181.86657731996146L149.757816764449,182.68266202187294L150.53530649989298,182.93626574606608L151.1965335761415,182.92249545811563L151.26558696267202,185.91610595566056L151.4914518651754,186.41269923276565L152.37064232904567,187.67639403782007L152.53154590434298,188.7556633263062L152.53690192906612,189.6944226765929L152.45113301839416,190.18568007665536L151.92050732051254,191.57255577089416L151.36519103635243,191.99745099890805L150.803847953988,192.7516788773984L150.82320493114003,193.9485400749678L150.71874829446824,194.3281252848846L150.52217753125007,194.49152823045415L149.93680390549957,194.32128937158518L149.5462144467852,193.71061344128734L148.24018515414545,193.68674224973603L147.5487831118075,193.429043558735L146.73865807230692,192.02073931814786L146.7443852009151,191.4906530893892L147.07477140763905,190.5780927957082L147.0941209927248,190.11198601508687L146.77995269066327,189.09469799596044L145.32180714390717,186.7910113230103L144.44789823056925,186.55480448110467L143.6186286153471,186.84622479926404L142.7928757111476,187.3417389062114L142.59496086756621,187.88828498459046L142.3839549438975,188.0505962598197L140.84219775825807,188.50375008282123L140.55416134448134,187.92081122830214L140.62789139452968,187.594677849703L141.13169314997143,186.8469877011932L141.24537006223767,186.22801641754137L141.17658050653552,185.9225910528495L140.19736710488928,184.98625481391272L138.91949610952088,184.58981381527906L137.4769930581779,182.70031994323716L138.13139374496137,182.0302571266124L138.34918763282803,181.2958866517667L138.30487187951633,180.48413530483523L137.23219369295293,178.9775334561824L137.30454431696808,178.38572300736377L137.68650076052404,177.64213578385983L138.3002433852791,175.66201425606238L138.16374472743013,173.4696990841078L137.78273116346668,171.97981101810308L137.34211028065988,171.32323678917572L136.4295270889576,170.91066002040733L135.07627240569295,170.92265079758593L134.15783627189032,171.34577696188484L133.78703915445644,171.57202570753935L133.65785233287636,171.51989673284862L133.31321799782123,169.77126488538232L132.9575068205431,169.14783094075807L131.91512811782187,168.03301720405273L130.550939756826,167.40734955198036L130.0225864968173,166.52516296426262L128.9571275013257,165.9738010805654L128.57913602379273,165.15418672987795L128.5976334499859,164.8753225245161L129.74770431744773,162.0421045095036L131.03197336034972,160.38084123443514L131.68185734873114,158.206558761891L132.63638736512667,157.27086523380387L134.7446679559443,153.86911097489525L135.3365264767642,152.10979869007468L135.45101051777448,149.75116549250657L136.63126363502326,149.4478578213122L137.2022556396496,149.58163036670715L137.32848258293,149.86808442838947L137.239368987122,150.06011993521514L137.04176134512247,150.1253779616158L137.00072438871152,150.33161940459266L137.12033714263993,150.3855330288206L137.59814366363122,150.22172499955815L138.25840236382243,149.3681411203133L138.71206247277246,148.99529154493192L139.15997585460298,149.160334565924L139.45259038863088,149.55128598731244L139.5034614810083,150.2994972934546L140.10160722166853,150.50379528570238L139.7605426491685,153.33854231258212L139.94505746677925,154.20537058493665L141.0812736015238,154.70164860467688L141.89416366190568,155.27259235146195L143.8979706621251,157.2758701235661L144.41599608241893,158.21570344775284L144.4910204600849,159.0754365568224L144.41705797265232,159.31150922623817ZM143.57244348852151,229.24267599133316L144.88831940513973,229.9710950894797L144.37098558408508,230.81793337255175L144.37249921477536,231.43435666506346L145.90895090019532,233.31672784158113L145.5192064410794,233.99828792820315L145.34781965672408,237.70978502474932L145.4528770241496,238.56989254750252L146.0588033687498,239.0657878282636L147.99837662190208,239.39284275472323L149.25801362240708,240.38257656459004L148.95368800337502,240.67418713223597L147.53356435927714,240.9797521532168L145.30275599452995,242.30110109329263L144.6266641290556,243.22465345514217L144.24851093203057,244.2516913537227L144.0344239984054,244.3123689498264L143.3029604041708,244.10058518115875L141.96777033085905,244.89400208467578L141.83661935634603,245.32870801602982L141.12466154484238,245.26280917200526L140.29065114832383,244.99409153807719L139.77240465287446,243.88098176922512L139.94640769228863,242.69310869660208L140.4783541512299,241.84068327371534L140.04351959335133,239.1512186842933L140.82412813756062,237.7999688279939L141.02965398339452,234.67638459951166L142.05528278880652,232.32232696117754L142.99143725082098,231.7141148671744ZM134.87294794396945,120.03633843021926L136.32718432676606,122.80231014498128L136.62292568868241,123.65964548171057L137.67056934022753,124.20558352156257L139.14883896385152,126.09212296304098L139.56027839730893,128.37986463926802L139.1320857388694,128.3142406804227L138.0857972743505,127.71613348390612L135.96458398963293,125.06910528203942L135.0159624734886,122.31848632758911L134.42995911299826,121.80740436773529L133.46319543742527,121.7826328632577L133.30485957348924,121.19679899990777L133.31966363830165,120.46899991699463L133.76480026992178,118.98277342136105L134.48084416345478,119.46089882835024ZM116.27830845917504,95.8266160284632L116.97604613155795,98.0507667991968L116.57898642323642,98.32728543587044L115.85027428079539,97.99551078981114L114.7022483655173,98.10822733041815L113.3714404498414,97.97630857183628L113.37847340725187,97.06043731568334L113.09706207781545,95.68576217421804ZM128.2799168871543,131.72966050803169L127.98590574988194,132.2256765698718L128.16495860843224,133.16262044671274L128.97791341448027,133.97307861567356L129.82092305405476,135.26939531576795L129.85428799879696,135.65291110237402L129.71232743232974,136.17407521675818L129.0873110966865,136.76151083232452L128.68570597692454,138.05279335882273L128.7245429899979,138.70747313811935L129.28211168826942,139.19321737479652L129.1506864598577,139.9738127451432L127.84853325894693,141.19437836920758L126.89075352831728,141.73809754793098L126.78265413094746,142.08310444697247L126.57722361857745,144.29067148324592L126.94204531893149,144.8369620116332L127.2233861571004,145.6283762314868L127.48507961168443,146.61036897915142L127.40865908518634,146.9921292127604L126.873958507666,147.53696014585876L126.08381015656687,147.34177276871344L123.22550058315767,147.7377475594109L122.66347570072597,147.65909059288936L122.09937061086501,147.29110314229604L122.42499678960664,146.12913644846364L121.59694186254612,145.999498441138L120.99697203258577,145.41807739244092L120.75519568193394,145.7122793352114L120.15618961635218,145.66791727418016L120.88752721990076,144.52479918268443L120.69560848182115,144.0585987383598L120.30725393953006,143.82391921044217L119.6447789680357,144.20477670418177L118.21009590975802,144.58500214059575L113.72844862363607,143.586239169335L112.66586956588529,142.51430200164725L112.14324647488789,141.78253520964134L109.17082504777099,140.47638724450752L107.93910433237426,139.28862725137233L107.41740734314058,138.49527777593147L106.77637438473104,137.08298275767345L106.75577061766802,136.54411555674193L106.90098397902022,136.23010459389178L106.961154817627,135.49325909155357L106.36220546181019,134.6779755193386L106.16277479459808,134.16833165151448L106.21579615973857,133.6091622413991L106.46023285213033,133.2880791300642L106.42683303671231,132.68214765782935L105.76940782193122,131.95095816694857L105.01834403519845,131.97876805506297L104.74924825412694,131.61119488762887L104.75640663841375,131.08410947869825L105.23202121580826,130.14690864068575L106.30927753118291,128.87093176842203L107.8774983519609,128.81240838643083L108.56933381419063,128.92718451557874L108.79430823215753,129.16980043277323L110.45321976833694,129.0518748349068L110.9296426489588,129.92601390983887L110.9296817453172,130.1684605711137L110.68017001544808,130.6915530363163L110.68317526858127,131.24127960202475L112.22858821843258,131.8491857080524L113.03656834430353,132.7479107789949L113.65997942998445,133.91851553477022L114.49526936543589,134.47300821668424L115.57176491630503,134.75424502759932L117.19702461776998,134.7375269793761L117.3004664344679,134.02703111419265L117.11363993927625,133.6038167205179L116.81453265806104,133.2804546568932L116.25514517830214,133.0212917169154L115.56130566387296,133.03586168991635L114.59210137427911,131.96971779857626L115.14052116005485,131.75616059719403L115.24762853690436,131.319856981449L114.26558138444531,130.16940427040714L113.9521386807653,130.1944642230224L113.86953985344681,129.3494407734285L115.3919149887796,128.2746004066961L115.88908324166454,127.54153453737399L115.95460709897017,127.10842622297861L116.27257206011606,126.45554120971478L117.54954646061452,125.44039610302599L117.80719945098045,124.97201582631992L119.97388520417039,123.2448890239383L120.46711701634672,122.42832688532022L120.42180277083477,122.0888409211305L121.85229153395679,121.55669348777361L123.23404602554007,121.4860051459321L124.30753341606265,121.79233324485861L126.74239738270424,123.13468921422167L128.46109583717302,124.57990884284337L128.58173942682976,124.85577472592168L131.84576145908318,126.55625175489469L131.8971269564973,126.67351487943881L131.09995207837466,127.62659437318896L129.36447233633425,128.79612827223394L128.87480164740424,128.94395993120682L127.79927900403621,130.17498242094496L127.82886003258974,130.50557569834672L128.36204773566374,131.46870010467254L128.36693580804055,131.67499214668283ZM105.45698000989114,123.29838484668605L106.14921489788648,123.31149409999828L106.94152800871325,123.79865130989202L108.28939114258014,124.9161467073322L109.23069367307247,125.95486284701938L109.70844039173991,126.83849282897258L110.57172851757448,128.08339974015075L109.78207954738,128.08800052916706L108.91075766784243,127.66666753240678L104.34133161992727,124.59318529000721L103.17094608940832,123.28450076975479L103.2301666638694,122.80299350408741L104.61098404138028,122.8078746089858ZM115.63555460025745,120.86695930520047L115.98630825628723,120.58842761456188L116.56671700467658,120.5300320526868L116.68445947149013,120.83850355147938L116.72129131981725,123.00643897430076L116.13660915355737,123.80553587523255L115.7276219433144,124.10045334158488L114.47349010474395,124.54771302946061L114.52657372612947,124.28786760777106L114.9031196844602,123.71274292356217L114.88342571834681,123.29386047283658L114.28553061008938,122.76172813816548L112.94432010678744,122.32474177702525L114.7784137917144,120.8843828608971ZM137.03178418312018,133.27516563758505L137.42880069760486,133.3020439691514L138.14529421978193,134.75852441959694L139.1848966785793,135.77853481891373L140.20627842746296,136.48420604400707L140.71986821048563,136.69072591415568L141.00756022157552,137.00333060302276L141.2842176692092,138.70389692513493L140.67619499969027,138.38653257766606L140.30252907459663,138.02483751801995L139.73452894646456,137.94480126195344L138.54275470824143,138.57358856091957L137.60235718198524,138.8202145327653L137.3282976800293,138.82314054290754L136.8218425871745,138.54484267625287L136.66837226497503,138.3120238058454L136.55816253651975,137.7212710539679L136.64129312282236,136.7501518554592L136.82494999708024,136.3116980945552L136.83938862573697,133.71144688944656ZM133.3076177584058,131.32174220387503L134.4196255043264,132.44559218634464L134.56809957166803,132.98143979840563L135.71958952224713,134.95742800004126L134.528441026299,137.11017134061674L132.88556315428832,137.40861355613924L132.58902178581116,137.31922367843316L132.5293253449108,136.49410060616793L132.2120754739378,135.09234477183662L131.8909711430471,134.77757975069207L131.72031241911168,134.33797699247788L131.73191193038892,133.44930450643L132.67892572700694,131.7825261660103ZM134.24327690146328,130.2712559082659L134.3209643532486,130.1008719874551L135.73944389771268,129.55404122823262L136.6662055384109,131.36517406165598L136.12671027479036,131.50204453024236L135.51279844607578,131.3024480431364L134.9798436630416,130.99609631597713ZM153.62324596581323,184.39058520454108L153.99771794609688,184.1890019430512L154.3864475621132,184.32343446204806L155.42581729836974,185.63713888653817L155.23360458381404,185.73755136307489L154.09518029835874,185.17331552660835ZM146.33385512511256,246.36193664082955L149.658320854013,245.11313956141026L151.32363353369738,244.68444269246467L152.07828440164843,244.07673656189996L152.1604927289497,240.2368172653835L152.02633993777624,239.41897638630468L151.64055231825898,238.7083368847192L150.89170177482868,238.0114328010084L150.54695979507215,235.67662979012636L149.847530911479,235.14219556027447L148.88595480265883,234.8480687483712L149.82488090786333,234.10546601553222L150.17815385704404,232.6467119718337L150.30067327802388,232.14055831292555L150.08834875625,231.50800468976297L148.8442519827363,230.2306314838464L148.29080591750693,229.04988440527535L148.47888445362915,228.20003551125498L148.2974247223824,225.93569252512057L147.66803990238395,224.23507517119936L147.01248378881385,223.5772604106872L148.1983713496477,222.91669657144607L149.12020042891038,221.89822748805642L149.78974006563527,222.86273630059122L150.09861478115505,223.06077655448894L150.82096088480404,222.93242592428146L151.76075930359622,222.3954754376996L151.99164001188598,221.69981693827648L151.69790414870437,220.79687283271818L150.37290910706548,219.40315581825786L149.30397332447617,218.69477269160873L148.83966293181552,218.74010405639444L148.21914576699288,218.45861398338798L147.61426743927115,217.91494118141324L146.76672209233755,216.1758488157732L148.1557516058338,214.33817107393685L148.42608149242602,213.51941878475824L149.10057205652242,212.4587459541121L149.89203243144067,211.81805058966432L150.1555555133557,211.16840440790622L150.21582365142146,210.88507998419087L150.3942672097544,210.04575468518212L149.89057856348984,208.25485735574793L150.06468302229973,207.42407874359384L149.26052811801242,206.17458395667975L149.16091297424475,205.66266046284113L149.1296834043456,205.50195065912146L149.33240552130195,203.40843347625272L149.51995689597774,203.02366147880406L151.9419080444539,200.18370753648458L152.3473107961695,200.0381169621233L152.75466096195473,199.6700908891267L153.0105983637216,199.18202371070333L153.44664538124766,197.675114137571L153.4295418062324,197.1496385693119L153.24265688825426,196.70460458602463L153.59622131137615,195.14540942982913L154.03892091969752,193.92493696357775L154.6666744913697,192.8901725320487L154.7413206351641,192.76707208509555L154.8133319195664,192.41394468974076L154.75373689778476,191.73612332835935L155.0363360136829,190.64366883205918L156.7837536329329,190.04676846296115L158.51947931023668,189.840540495543L159.68091556710885,188.86571356226742L159.9172347931039,188.38485162455007L159.59180033106216,187.37004798101862L159.77886626212546,185.64890648011144L159.88100126683688,185.18021729332955L160.11826603038008,184.81878505671767L159.7553014731298,183.62951740818025L156.88968529963176,181.762553775587L155.4954608637707,179.6161529916622L154.5928975058926,178.5106525375066L154.35483454025876,177.8478606363115L153.35585469266115,177.3901944875875L152.2202825851209,175.0147439885286L152.15321720137484,174.84438256590133L152.28332151313248,173.34588614900463L152.25472322551772,172.5865461197332L151.9724320200496,171.37796338056378L152.40365322691906,170.53925432636146L152.5304771354003,169.37900367245592L151.93091649207872,168.8734664705878L151.4089409653721,167.60519096019846L151.23104727343895,166.64924709999298L150.68791638922917,165.67687306590665L150.65344222364672,165.61512651105244L148.92811386964564,165.2271766757126L148.64393045633324,164.91949010435292L148.45688112822262,164.88472953170782L147.50954478867797,165.19952993716888L147.25487352886464,165.52147378674508L147.25349794270176,165.70135919668382L147.45520324736867,166.7815850716314L147.74986215674932,166.811685291409L147.90459615182806,167.06106691956825L147.8776206131887,167.27522787569956L147.07478152686087,168.37240004253925L146.65214744893603,168.66701679025903L146.4856301262615,168.51608265567245L146.1613063329911,168.5711350184419L145.65197790488736,169.07682751669904L145.58196544648683,170.1728577757654L145.741081467422,170.969619403055L147.59605411303514,174.23057716448795L149.3562409006375,175.86139692079269L151.17669237169343,178.22123049478066L152.22735047549838,180.55549217892744L152.32686099848019,181.03814027726725L152.04122395951958,181.1687688122974L151.22053505490777,180.870567312763L150.61832706780746,180.171725854734L150.44872619372504,179.78470053609612L150.32241959589925,178.98128709619525L149.91334723491002,178.3639219407326L148.60881706374084,176.7452311158968L147.10926718315102,175.70347651032364L146.10857871520534,174.2175045984503L145.48401039755072,174.30945102067764L144.93855891990498,175.00731558382682L144.74511435592868,175.02941945586875L143.48670448646567,173.79879489749138L142.9594668235937,171.31263375597564L142.17102851753438,169.32663266466233L142.1615782220776,167.02525191477088L142.47276121281925,165.8559142952925L142.4869094001356,164.33039720190362L142.76879601952058,163.4895207458294L144.3977289561706,162.91263402469826L144.64014211470075,162.9605111677701L144.74233425892817,163.25014126569113L144.98997269953097,163.37905641075764L145.72707050958445,163.437309443065L146.11811485352342,163.14010606830763L146.61996829469564,161.88465268069046L146.79052329377902,161.80808138828968L150.1141659517513,163.5915654266303L150.16010060772248,163.56107881300744L150.79119221113945,163.1415697688571L151.02435415010768,162.04721403037524L152.28290700162475,160.4789295555024L152.00766549759254,159.73685816743594L151.93050622825075,159.60191034359073L151.59245936746737,159.0106169356609L150.22856243592457,156.98534686132297L149.3496885588121,156.2498496468366L148.2690727142101,155.89149487887622L146.411520060287,153.87404929573646L146.01255077353426,153.69710735125716L145.1159335431309,153.6537105073295L144.5526263941657,153.38128937715652L143.08918482769786,151.66399308617775L142.78506540282768,150.4315826848972L142.32235363630514,150.1742896170945L141.9304805587247,149.61407575412733L141.77643082579485,147.77359031865188L142.24223734680123,146.66719607064076L141.90340507538673,146.21353147907143L141.2575537045637,146.1389118702482L140.84682688984472,146.26913619704357L140.4242702837753,147.4993855690571L138.44444310741352,148.69083994796136L136.34658805280205,149.16702552134115L135.4664276220096,148.42841445146325L134.979708568605,147.6755032216762L134.75476812404267,146.3610615013701L134.88064635997677,145.9597566970596L135.04698725102094,146.03154653434598L135.04802287512496,146.15092191563073L135.45070692702353,146.1214184855901L136.22052922697958,145.1281385474596L136.11947682088893,143.45529231457317L135.7362507582302,142.98016552059386L134.296822670986,143.03284522264022L133.8648849689093,144.08227286602562L133.85713623769152,144.45607881408387L133.55226272589184,144.702129455456L132.99533893060217,144.32860761836585L132.89016392585705,144.0976166315292L132.906840031694,142.802000633038L133.64142902414832,141.16683476926926L134.68645374193062,140.19348640261194L134.99742186763115,140.3239018291215L135.11385077398845,140.62191749986633L135.43594075142812,140.68003076016714L138.78793775767812,139.27526378735146L139.27147559867288,139.23084839180535L139.67718733545456,139.35401620631075L139.73245075355445,140.13269837143523L141.49707087143605,140.55397348494444L142.1216359662351,141.41032345209976L143.15024807882057,144.288183470665L143.412079890857,144.35972821457244L143.76462274363104,144.201260251019L144.45261457266486,144.44496970200157L144.65705470937212,144.78294650281708L145.2765735101313,144.88999904510888L147.00266593386317,144.08578049124316L147.13636335966112,143.96141487116006L147.14364261674262,143.71498202238763L146.91999255850698,143.28392413429742L146.62870527897513,143.09705653478625L146.3926217406469,142.14180318712357L146.3633937994844,140.61989433506204L146.47075649424517,139.5385494986056L146.40899608097544,138.98645896965422L145.73428930431194,136.47537916341122L145.41500390106728,135.7053231089721L144.20032408994626,135.4308664575239L143.81878478293598,135.30096302215003L143.67810461918754,134.80012447975375L143.68008216524362,134.64866065563695L144.9965070362184,134.51385799182106L145.95102153310924,134.74003381735452L146.3498711834573,135.75113066796547L146.68435221647604,136.20713926650038L146.915454526168,136.24693706757967L148.9307102524912,135.36740306417525L149.6405533670049,134.37785525240724L150.15427785110788,132.8135769214979L148.86339034539282,130.72344490911797L147.96680161472565,130.4161979055107L146.70596318895838,128.83006606043742L146.6041803023977,128.62858836241216L146.32016393618107,128.06650342533763L145.96750920226535,127.6493975011666L145.64023784761156,126.44152423821997L145.06404477543816,122.58566772928435L145.30413596419902,121.89769456098786L145.88779168367816,121.60848802660882L146.53516891481058,120.50302021258571L146.86681252463686,119.29751514733954L145.69796281937357,118.66976008748982L144.7296253873875,117.68754923557029L144.31483767031898,116.9916740632486L142.4850009586302,116.64942529284248L140.75360682734959,117.25886711196954L140.67740989768424,117.43257993986141L140.131925537001,118.32370438843468L138.85829590926335,119.5502618187024L138.28305021263134,120.31698121321496L138.21692457469544,120.59874404728498L138.86090344578656,121.645638969616L139.63759681479553,122.20706451000646L139.98516915745859,123.44577858819362L139.95452644119882,123.6662183035428L139.4100463817452,124.06066612294872L139.10850530658774,124.06494956916275L138.53234336703935,123.7786432194173L137.64844055455592,122.73744692596777L136.16159534142173,120.46067164201509L136.59716733165573,119.12246117734227L136.95691664689167,118.65040882368875L137.8241798916854,116.91778294789823L137.95038529157864,116.25750716254177L137.9030190581047,115.94902632379481L137.33680460869488,115.92924522969162L137.15790197496813,115.78465075889693L136.02578230628183,114.30525314837243L135.2525900739451,114.12044395270806L135.04123308435982,114.25843038288747L134.94821770750573,114.45639958405829L134.87897366316508,114.94907710116688L134.86899603547803,115.46432481058294L134.6380062125181,115.69652932046516L134.24813830259228,115.69019041325389L134.18746994836005,115.22381313025734L134.40421370422447,112.9061043431781L134.30605323356025,111.61562697367145L134.0562616585186,110.30092813576178L133.752431997046,109.78822325602263L130.22891751557088,106.79434927666395L129.82444633305198,106.08330702769842L129.8656530900351,105.92595830653559L130.37661448328407,105.95666068404066L132.3180362068498,104.57772708776133L132.55290243428232,104.20500210900676L132.69830015059244,103.71362845871789L132.66363309075743,102.87431642039013L132.17206535220555,102.15409818116257L131.5795296241163,101.83788413909906L131.33118005435384,101.77653826521524L130.30077234714625,102.68563219939358L128.55561920583733,101.95952950628896L128.36826840222443,101.74781326866852L128.33405585121574,101.43407558473595L128.68004807496433,100.47478261695855L129.92885611442557,98.8508534990385L131.2957586695259,97.50009747813306L131.7580210780336,97.46442804651628L132.35429070710387,97.03144377423004L132.38054408469628,96.80079508768063L132.27701342567252,96.54566407086227L152.48038575545996,97.37086324098414L152.58670855505335,97.37072467041443L161.52775959167934,97.66407813123189L170.3399737011323,97.98037491493614L190.36592794155314,98.95299447938231L210.90936096591065,99.1696944867393L213.81233910572334,99.13235881503661L218.91369092820096,99.28002048330612L219.24231191934086,99.27800380191451L219.37583497430535,99.21326665614245L220.47611590581363,99.20898371433253L226.46230875812566,99.26798867010035L230.28861788269347,99.38349541973082L234.96670524889257,99.45543382523795L242.33420245008483,99.52666553700269L250.11777123491254,99.58265186757947L269.77628447736475,99.56991441435468L291.43515651877897,99.57306330068886L298.6533401545096,99.41160890619796L308.71199415893614,99.3003284777518L308.75808965187605,99.30063858077779L322.81976787843865,99.06711593669209L324.49553423198284,99.03571019496269L341.32003965104195,98.65855108802833L341.6187054467789,98.65416999443116L358.659681844792,98.17596278702939L395.5956197865237,96.81317460374049L406.8311266736183,96.30998087491162L406.88749062283813,96.35370968574202L413.6186981162181,96.03379578148238L414.09453987373615,95.95475970603081L429.5912254382238,95.13335372893835L439.8438032205679,94.60621670484849L449.1433746931192,94.09820205496013L449.1407875740158,94.1080554592495L457.3382332949443,93.68489375141144L462.7363734959148,93.31373065412612L463.4575867581545,104.23021620910563L463.6030555562277,106.72517764903597L464.09901751732536,115.22940693875042L464.6104529740187,123.41977584679438L464.73257799747694,125.92209613597822L464.7686670012779,126.60573809163361L465.4056551530422,137.26230651331605L465.8134620319279,143.41972119650814L465.81516330308307,143.44593106180628L465.8551993267107,144.03462666264068L465.85550972047236,144.07112044450537L466.15722913923736,148.61780049863316L466.1591956883248,148.64808554844225L466.89275620015076,163.05823289274213L466.9692161211765,165.14480172074138L466.97040865139235,165.1777632419247L466.98895510832386,165.43332520758867L466.99051126477764,165.4572935592413L466.99355313806996,165.50505737553584L467.00395572840654,165.6972065507615L467.0211687301505,165.775315977611L467.03186442061013,166.06684328776996L467.22184413032176,170.41273986032792L467.4308838025581,173.90128128122637L467.64422546872163,177.4384424819682L468.00151979691645,183.47944418094647L468.0594446054105,184.45832740857904L468.78654978648945,195.74879061834096L468.91041187078565,197.22064080932108L469.1591329496761,201.10522503841204L469.20390037146274,202.18140213750976L469.21115702935276,202.32615485823976L469.22627613579607,202.65262583225675L469.2263601775621,202.68525048825643L469.3530483570245,204.08190271761237L469.3542865715716,204.17098885882518L469.4350383372242,204.95043735638518L469.5051551555673,206.0686432656982L469.6021041120978,207.5170409423256L469.74229975603896,209.57805672086272L469.766809984377,209.86142309630623L469.7773056964264,210.02267395822255L469.7775659243686,210.02667194711213L470.414406857428,219.26997580667722L470.48530684481455,220.65808289707624L470.4810387388369,220.68694272413333L470.65954653579644,222.93541532758277L470.7025578621642,223.41031956013285L470.73463297820786,223.87380843415497L471.0271292173951,227.83402324952996L471.1097991716545,229.12603946431682L471.2762012896696,231.65650965144872L471.40660049101945,233.65773072804342L471.4881225682325,234.8444221231604L471.61092958780694,236.99996613192076L471.66847356097816,237.78356658038717L471.79205074436163,239.46665244357845L472.29303597655917,247.3060198693853L472.4969039226214,250.31658532960387L472.62711417336675,252.3001794106562L472.7530174471077,254.21195382791257L472.9132972483745,256.6328556170762L473.07444442624535,259.0852467742536L474.8475465009925,286.04071127753L474.89777543424077,286.96864463532114L475.60056091776204,297.293743579387L476.5162030097961,311.50540825736783L476.92159830653645,317.7930488063596L476.9351148809322,317.9914721085974L476.9769529509222,318.6082481322968L477.1923378609561,321.95851244329407L477.41044982537994,322.19955411063245L477.55133710229416,322.5764696290703L477.54779532802115,323.32652797049695L477.50450639230803,323.5297933133756L477.4016063195212,323.69472516053855L477.25140725032816,324.6837394735473L477.2561012116011,324.9574681298534L477.02233813205055,326.10902087872034L476.87982674429395,326.3673245196454L476.74401462833487,326.48268387601945L476.4127760770742,326.8876951788177L476.2152209300297,327.2301376174736L476.1216743077916,327.4584114249033L476.1923805079289,328.5071981704314L476.20617049556586,328.6058370541674L476.34638493635566,328.91346655336173L476.65991112386195,329.2077021144395L476.9336704945504,329.3431850341439L477.3306710766491,329.438502185096L478.0218230865968,329.49881196610556L478.26237699377356,329.5737717167911L478.4534715218644,329.70247511642475L478.7121324163238,329.93611788396214L478.7625196306549,330.0427414953998L478.8242843303361,330.5598760732067L478.79489888508033,330.79338344999957L478.8621492148212,331.35383952313606L478.91835180944946,331.59454827734737L479.0355418930934,331.8287050940263L479.32080503999555,332.1312749992474L479.9109879070037,332.6284384859307L480.5594653505464,332.7797679283896L481.0460666368218,333.086823334753L481.2555548918198,333.3198606846747L481.4072658728386,333.6673790097272L481.40767669846184,333.93552439639427L481.0917453548893,334.8031888290447L481.070327263585,334.9768179589713L481.1009841370666,335.16686785299913L481.3546897829458,335.46427107928105L482.10125364532394,336.0341089147749L482.3332406299226,336.26620499539376L482.4882208653545,336.4400768140723L482.73554036745094,336.8131734106666L482.9046131373946,337.13103478990644L483.3181749578153,338.09447277494223L483.60774339776486,339.10955621837434L483.5897024816072,339.55429813562137L483.415441644612,340.1235379047496L483.06053886794797,341.08439364493813L483.0449824769287,341.2620124303675L483.11504896604447,341.6267498035194L483.31686018548965,341.9512574107478L484.0119164628024,342.4623055833386L484.73013801148846,343.1810527141163L485.92437297973845,344.37722711509883L486.0736882957845,344.6486979368524L486.1303315596381,344.91751754351725L486.0684248714374,345.2883504891829L485.3798627431946,346.99107601906604L484.677586681719,348.5379395361105L484.5711377303642,348.7643037309411L484.55520202477817,349.1828366139648L484.5841730672799,349.8773188580219L484.38856629840194,350.69855503040725L484.1400356229443,351.0031613685038L483.24120179299234,351.1858806091624L483.06624219821833,351.29150888231214L482.95525869800207,351.3839713892095L482.7896497346766,351.6531377774689L482.75194564136393,351.7945748259251L482.7649393528952,351.9710203260582L482.8242470606351,352.3722270386781L483.0429773977413,352.80208743144345L483.62101384388984,353.0566028596772L484.0527614847631,353.10584799665264L484.22359330904123,353.05441101499275L484.4194350123532,353.1224676382794L485.01612953542184,353.7630001908637L485.42803274059975,354.3631795125969L486.24387088922003,356.24206393781725L486.9197201490833,358.1315321515497L487.3038838872443,359.7746891530568L487.4181965252111,360.06602550426686L487.5,360.1657790845569L485.94694521318524,360.1932851360396L483.1092521346661,360.320782530027L479.00866928509424,360.6036606906697L477.82969325863417,360.6208687524851L468.8858774385128,361.1184631124222L468.765611911026,361.12606544416616L468.62764242539424,361.131415180134L461.04174421252884,361.5681876245801L460.0344283343584,361.8381137635635L457.71355659234325,361.772193492401L454.6270293584927,361.9497939142467L452.42253474183076,362.1441564491058L452.4094328624384,362.14835140721704L452.1118228130775,362.1640648904567L452.1101290754184,362.1641619741458L450.5581641516675,362.212252417325L444.3864606486958,362.5055795231877L437.1857353470386,362.804593535645L420.87058965983806,363.5464129190131L419.6687359819695,363.5978469953449L411.5554229722454,364.0177072429867L411.2527250285824,364.03145573762765L410.3088170589444,364.0354609060208L405.10469300921505,364.28816937751367L404.6248573673364,364.3089854205444L403.62355713902963,364.34791681974775L403.3826691656968,364.3599408366621L401.67624113655813,364.4002713337527L399.7024860796198,364.5124920708106L396.3860963683919,364.63224655829606L395.72257040897216,364.66320869779L389.9204571448821,364.8849491114861L388.270750407477,364.9486910777589L385.7522710657214,365.0228170038444L383.72572160436016,365.10314408273865L383.3291189920972,365.12250903029263L383.0652737904775,365.12300008381857L379.43353972172207,365.2384385459746L379.33253601007425,365.2398013911002L378.11517150189576,365.2856970690092L376.9122974650606,365.32892235988703L360.3699165848444,365.88617400043745L357.4890789495581,366.03403298872087L356.1947409082283,367.9337161518497L355.05719008604143,368.8828602698727L352.9195528132059,369.9013562582976L350.95944507222646,371.3824832796901L348.91211569336343,372.3308767774312L346.19354832818954,372.8754306639961L344.5539427630986,372.8914949882701L342.6412646453588,372.4977244204601L340.64925834082834,371.8922593940802L336.54895371496474,372.59504140957836L333.93411226353703,373.6996439794347L329.6896847973723,374.08888803624336L328.5345603237627,374.1938198393739L326.1867369889505,375.239049339904L323.8642523973361,375.07345188033526L320.88018447429465,373.5995930864934L319.0649472545575,374.1620882021224L317.6464192573266,375.4478762696373L314.78452320666787,379.91102934356013L308.2960041339589,381.026042705652L306.41743860256406,380.8733896959528L302.2966256593364,381.9711407810079L301.7922402384245,382.0895746341831L299.82128676558506,382.707702270421L296.1439712704773,383.0863258615341L294.02142963563216,384.1829646685709L293.9179005203031,384.2363628351818L289.57651271242395,386.69684276735666L285.0812712157599,387.81546536769883L283.2463098562136,388.8419237495948L280.7120983403463,392.1204297192096L276.1915537097478,392.56535689696966L275.78017038405926,392.66652504375054L273.22314722780044,393.4995310001823L268.47856019255096,394.5787285256372L263.5093360907032,395.015746028928L262.0201427853637,394.50661968780764L261.00079893786597,393.61626827173285L258.62978025843233,391.02687431458935L256.62468951945203,390.27863634564164L253.85199330528297,390.3338525887692L252.6723017702061,391.1106225784403L251.70038733316014,391.7499927003631L250.39640088775425,393.0418081343598L248.1874251609426,393.88423015013836L244.07597112898236,395.6937177209261L239.8305308725358,396.9982581826705L238.91181811871226,397.9263603728707L237.27793180995124,399.5741550619557L236.13936638560543,399.8276739061347L235.98805760549746,399.70830274701325L234.21713429935812,398.3212295883274L233.63999797896253,398.2885383960355L232.05331419802644,398.94486108862765L231.7033525395599,399.032219728065L230.18675089001405,398.5740831841507L228.52625560857874,398.75754779339434L226.5741538207095,398.59449737710634L225.26422368764085,399.001664208748L223.00603597532978,401.22189965504333L223.1915272235393,401.67990681709847L222.86217201111367,401.8618942945935L222.23524446633303,402.4264740343797L221.75949848151078,402.2204343762358L221.37020474300903,402.58552109732136L219.9500865787926,402.7288024121701L218.93467353009697,402.68359431540665L218.14009717721146,401.7415574458046L218.24067567041567,400.5783189856659L217.94109447147198,398.72925516491887L216.99147332953623,396.77187640328134L214.75610789166805,396.0892525296779L212.47714045217572,395.27038721911623L210.9195916485645,394.0737829036144L209.30690566641402,393.5909053220122L207.09888665254613,393.7195391211801L205.23414023146967,394.6140596872502L203.8510324393784,394.48850660690346L202.75060002476954,394.1701523135997L201.3761236422292,393.7719936145054L199.11135276709848,391.95966797793346L197.64687024982067,391.58234432659145L196.97198595404836,391.3993021387371L190.71861178181913,393.2497738032811L188.36325664426016,393.15711399427846L185.87055788858896,394.03046085093445L184.11075947222585,394.0575154145872L179.3126121948224,392.78118009762295L178.7533060396444,392.95823995684844L175.74115334616403,393.910051284042L173.48638071114806,395.89630068774335L173.52761842912685,396.6880535828573L173.03848465304245,397.3654671244792L172.13886678839071,397.82296611579034L171.3070321246733,398.2456700241936L170.25027580168543,398.14438475235306L169.99946173117874,398.26357747923646L169.47539656377728,399.22708029241574L168.4229877715393,399.9180670321073L168.21185525177572,400.09600180279506L166.882288203521,400.6818448757706L165.68141386267502,400.7166079544537L164.28150146348793,401.18604233758214L160.5682016025356,403.43300047408127L159.8834099308346,403.60271282970257L159.00741642562804,403.4648569114338L159.0072878969592,403.4688516811734L158.79919645100068,403.42634154922735L158.79544665227294,403.4282201108481L158.08826306709,403.26329396184946L155.33907491655572,403.7920515313198L154.15350685188014,404.984497387131L151.09566975533278,406.37084100473936L150.21789357916472,406.6517145703764L149.95712971458485,406.6862693458739L148.16258118489708,406.6504382154478L145.85014698769322,406.14032299174687L144.56601387520175,404.16624616146805L142.8401934583834,403.5118324640814L142.10473939700518,403.6117437553752L140.87992172396972,404.19381744100355L139.08844029256196,404.4938659816105L138.13430182260976,404.1183391044027L136.85329263943518,403.0694903704187L136.56264555061918,402.9258144835585L135.7528776977254,402.57416395884263L133.78073265874926,401.9188806761189L132.25211122525997,401.208989398991L130.16716638900866,400.4724046198294L128.83529139743104,400.0813957443305L126.22192044575297,399.78139568321023L124.28030030566077,398.94462486322664L123.29129503874589,398.2933025798882L121.92671084278311,397.08028096150684L120.3808096381648,396.40389337223735L118.80381520891314,395.1530372514637L118.21998837342059,393.01051468160335L118.42431002940788,391.27584181337045L119.19470770124329,388.6804473144731L119.3492665503353,388.1593913939572L119.36386671624052,385.9134358787512L118.93958196624357,383.95066691743796L117.41280828260454,381.21327173183914L117.45146934358579,379.85215812671237L118.17699893947233,378.14410962236116L118.21404998936131,377.5726410248346L118.31447525168389,376.0208911762153L117.55911393003475,374.47890577123235L116.83040549264882,371.87248878977084L117.24548233128994,370.10686060026075L116.87173312400307,367.50168829408415L115.46826369980352,365.64100087689485L114.44540817127827,362.54681421183733L113.13985074684672,360.96420001044544L112.86159785354971,358.32630333267423L111.73043335945249,356.15081188544696L108.15487605194042,354.0730404040329L105.68265902856336,351.3290970703507L105.36714553309344,351.1128402338864L104.58603570241968,350.7970290972666L103.87960612521923,350.28946527313127L103.42125637981968,350.08449548835944L102.84336875517039,349.4002468576794L99.5821089245159,347.05879366326496L98.93748988053781,346.33949685528603L95.80153237037965,345.84279195415627L92.8117946314905,347.17160704992637L91.64817543919204,347.68773688311074L90.34978916432135,348.49536904690524L88.48552396776148,349.44479880023385L87.18047461717163,349.392808468789L85.23205453008742,349.1500211606375L83.27728648322969,349.0240298435632L82.79037534710153,348.99244760123383L79.26109035722698,345.5857975529649L79.70639726485726,341.31450319258136L78.56812384015683,339.3978029789231L77.32715973927787,337.9978380358915L76.96450020819515,337.6786211765077L76.67244786915069,337.5442015774588L75.33749694872009,337.29716294962714L74.38159003059084,337.6795106746182L73.73175891733584,337.88969734128375L72.98832254719645,338.0982926191544L72.38458596441373,338.1981632513189L72.42069785557348,337.61411755055815L71.65307003408111,337.6133704297762L71.35830130868868,337.860233032042L70.2760655932544,337.9463871517582L68.28695697182897,337.87283661848477L64.84113075841992,337.04344105587063L64.27368658628995,336.4959057374466L64.24458249546873,336.0023611738234L64.41720922533892,335.2425403267605L64.39790905234298,334.85711119192626L64.31463484849294,334.3726782151808L63.885455200909036,334.05602524500983L63.11084759788986,333.4618455982306L61.62592239217901,333.74099121328163L61.60606447338793,334.29122010006466L61.33455108873224,334.76187881683217L61.28745763219206,334.8435053044651L60.49429066932305,334.65357924576233L59.28282824775948,335.95075011519214L58.830670846215895,336.0642978245569L58.316040135206094,335.93211005003286L57.87552177705726,335.39531821365915L57.097547434840834,334.9592333520903L56.43396984208391,334.9991240994568L51.85914833677461,338.6614113578497L49.7896401950197,338.0090107923969L49.18422737249935,337.4510389245883L47.17573016338568,334.98563046222444L46.325553073218316,333.6269789832154L46.24821540894402,333.3986829202863L46.316160253275996,332.907422393821L46.080507279243506,332.5561065549487L45.45221675772751,331.9734952173983L44.48007376022599,331.52598978541903L43.2969736071131,331.2213674896531L42.668814962964404,331.8493491166291L42.245242784124486,332.8568720697L41.96493072219869,334.0279193242784L41.59222400086438,334.702888613129L40.5561620141813,334.3749125409418L39.2582847216606,335.3265299077447L39.17601762531993,335.1471962285249L39.23932081803869,334.6493476287035L39.7156179659259,332.7131462891542L40.075067949428785,331.9240738370545L40.62850099027449,330.02886810397024L41.38873714781349,324.6968282355673L41.58788232194914,322.65055851380976L42.13426854394348,315.1044622834329L42.2196221232191,309.44356953658337L42.10162772488184,305.35768191453883L42.21169290009155,302.72893489404225L42.29509360439101,302.353743289128L42.70859396539396,301.68830697967906L43.11163070256762,301.4401801683389L43.60718313139094,301.4579392793038L44.28864813474249,302.85670573745404L43.202328345246144,303.5052036508873L43.284049863069185,303.99520383548946L44.4799740832064,306.4550125489095L44.75056385693989,307.238017949947L44.66313686896669,308.89498314209305L44.28615395460827,311.8020004116868L43.71620475994473,314.9393551593036L43.86343673309668,317.9629386085381L45.37727208033195,318.33574745860426L46.05512313686691,318.1086143942315L46.055908987322226,317.8632996975899L45.870135745180704,317.56824488892505L46.083345012879334,315.80076207821827L46.39991606362895,315.06520907401637L46.69966318510461,314.9471186785375L46.9791203081181,315.0710234362838L46.924140576827966,315.7375220582243L47.354190635832936,317.0819428688784L47.515191245709644,317.2617982691406L49.04544671051775,317.03069165999403L50.61799015467753,314.38099642115776L52.22009928233413,313.1401736924688L52.22125440910813,312.6158451116778L52.45643533460054,311.8605403868006L51.98478062527573,310.4875623700424L51.210266036597915,309.46953120912326L51.03191407781512,309.03308593166366L50.96119609553702,308.1527305161625L50.62904391546297,307.0654218004018L50.03987695096208,306.35460072577325L49.0713302536725,305.63693365325116L48.90856505310754,304.723857322657L48.95543225243145,302.6742007222108L50.21563885838535,302.35337289065194L51.42331352551133,301.5870242003869L51.50442360241692,301.2938978464921L51.47355560449736,299.568691719709L51.980936206774516,299.0673375695097L53.24060789429163,298.6982652609513L55.216766242877185,297.4761347977036L56.07223942122823,297.1830202073997L56.471474145481835,295.9275170040317L56.334987460706486,295.6393397485053L55.55599780380956,294.8819580100137L55.02901972850643,294.7955136867678L54.68036778522057,294.5629778561555L53.789840539079165,292.74531006180376L53.4468409479056,292.7226261401633L52.68483639487897,292.98637743399945L52.30560862745676,293.44662388463587L52.31446581202479,293.80721768090865L52.458491421702405,294.4175475472247L52.188102167830095,294.7513967852491L51.42999473717131,294.8325662406291L50.22585737632704,294.74404862784894L49.06929544512769,293.6999931520984L48.65803054611567,293.91667862148097L48.318963447137605,294.67991874216057L48.53071405181632,295.656289070299L48.985988342098636,296.47805292733676L48.55839176766645,296.61412311960845L47.731788931690005,296.184302230513L47.32129679298595,296.11851091665613L46.72085947590628,296.5812523058018L45.59643910716491,295.9071367845786L44.43156225582331,294.83093331069165L44.4709914220133,294.5866945821665L44.22548579325729,294.30847462781304L43.248052691530006,293.52289883027277L42.159325865685446,293.3269533888201L41.51337580076677,292.68602439334194L41.27560485800984,292.2573706588415L41.43231814074642,291.31331341265934L41.505372207695416,288.83805651339986L41.46198521619664,287.95479574928277L41.38897029765647,286.46536652717117L41.13055440003296,284.1327784604829L40.49094260124511,280.18357164020995L39.720808033464095,277.81694231112243L41.01716229488585,277.2927184579966L41.450041193734194,277.31043508104807L42.43322025553542,278.3993148465098L42.579476514454,278.91895147991926L42.4760858708523,281.40947695922586L43.42691441024843,282.0349641176852L43.853213421384396,281.88363548977765L44.18738412567612,281.76078522013296L44.58507036806233,281.31151715828105L45.06835449870957,279.4728067983965L45.26450500252906,279.2418920646611L45.909784570792624,278.8816059019002L47.32145011772846,278.5145166112077L47.61526680093766,277.9328303456665L49.178615601638,276.99717712700493L49.533847489495116,276.9203246100477L50.86018047497703,277.169112968651L53.510016628507884,276.2940662164757L55.528259977617324,275.79975667243525L56.964967240886835,275.1202123140176L56.06385118407351,273.93888476435546L55.300260206099495,273.1838438540213L54.77845426423565,272.87805739821755L53.352077979403845,272.7895029628607L52.26580258330901,272.90817002932573L51.74239249677984,272.686546344508L51.11930001548086,271.7521145532564L49.13223446429771,271.75703852530665L47.90562586300862,271.22834062594353L47.48435160122514,270.6596848596851L48.11392205480931,270.1015239781191L48.44434255994051,269.58225953049066L47.773412036314056,268.83615214424464L47.794656601564725,268.5564953581337L47.31877259983585,267.1470197395646L44.980048713513014,266.0033105199644L42.5224870305382,265.6981128426637L41.56186062965094,265.7197963286289L40.33630929300807,266.2178936056679L39.841218420142525,266.7079849292394L39.652868647020426,267.4292854803091L40.15054735154385,270.4046198326372L40.14447562125011,271.968048310919L40.80704560557996,274.4482468729218L39.75392072770549,274.69799375267104L38.62580725832089,275.5911677554956L37.294166576351984,275.77352685193813L37.73372218947304,274.4329902126193L38.0445814491257,272.9438497888707L38.39845095675753,269.7294274686678L38.58729842174236,263.29102583647347L38.559078089205514,260.89933467953523L38.33054570383672,258.02937861384544L38.45184280869114,257.2097342859579L38.28203632758408,257.020400234222L38.112945816725556,256.03879670904246L37.91184765014276,253.5877146468281L37.39828568335818,249.59300994466045L36.187813102674426,243.3113016231495L35.88242338646225,242.58933958327935L35.243836050602084,241.88221249153358L35.02071317686472,241.72461047060446L34.19683630718433,241.57819898519062L33.41119975259622,239.71750618345658L33.08574552805479,238.4269446283892L32.74324428697753,237.59147805674317L32.31233227152751,237.20995909150153L31.61785714428231,236.8642035010801L31.412777741787437,235.770977009912L31.397578408005785,233.87614749940408L30.969968074133504,231.40714123274336L30.94422522707518,224.8724993284979L30.728237513268425,220.87099080931404L30.669842090814285,219.78625078138813L30.498160039540068,219.60206619873196L30.29727728737211,216.4753966065126L30.079761026009805,214.92829087737744L29.917843360159253,214.5306595786551L29.6701130878196,211.9745795147456L29.067641355267426,208.96207774028505L28.275349208704313,206.6113876194886L28.01907297424046,203.54919198068126L27.81018934565617,202.36095524294086L27.5433994658392,201.6435223400137L26.27761610268888,199.84486703290412L25.229536587413605,199.6245973282758L24.95722313505172,199.35720603702012L24.813207941692554,196.86815107616155L24.49454171949276,195.10178906234597L24.041772672284395,194.56615716578756L23.53333904564326,194.41064496163284L23.160798318571125,194.50601750275135L21.644782580769146,193.10030847536962L20.686129455333685,191.33074480800332L20.688913595770998,190.69754097967945L20.512714919374616,190.40469694760242L19.060050271825276,189.2513942614763L17.80551540967869,188.96372885869044L17.737021965312778,188.90385793375756L16.91256477349259,188.18296057480256L16.66861459378427,187.76219363832092L16.726812063021356,187.36569509578408L16.063266028544092,183.89408169575017L15.731721192120403,183.16930947274457L15.175550460924455,182.38782999528604L14.669247875298083,181.1926459527908L14.891218296594587,179.61165071401786L14.6427030835695,176.6239547388074L14.601514573455432,174.81446852943714L14.504367678256727,173.62725477737573L14.36950956750357,173.11010023973506L14.082108401007957,172.75145474311321L13.988115025358411,171.80264258367896L14.19941996850423,170.23390597585785L14.622134107216198,169.7901758780738L14.754756595705913,169.25007068248914L14.398768517871872,167.77848889918067L13.101477325141417,164.26685195332135L12.565207449641349,163.58161729963285L12.5,163.31037480089196L12.631514377234879,162.7338888343266L14.359774161691348,161.5914011771442L14.934165121206178,160.37753678829557L15.340456631937684,159.16436797813338L15.421133292239546,158.5374086366573L14.69533320919416,156.7880736109448L14.65104330289546,156.68498720563434L15.061003995981281,156.19224467728571L16.008674618620404,155.43194439451622L16.30365800129624,154.55646196005247L16.78208639498132,151.94873519467848L17.20472247205319,151.8751111740562L17.42273420267722,151.62871300245592L17.726500059523374,150.66504818555717L18.055053592956597,148.86174617607918L17.474756689471434,147.90249678024713L15.973157937711932,147.03580408065085L15.088100224241941,145.49454544359816L14.348788429919693,145.00943825642904L14.160278878030937,144.54163532051373L14.139218553005406,144.10002700493806L14.524573425300417,143.70043687672586L15.071998406594815,143.4107360146613L16.379988616949362,143.58468740299105L18.807963442539773,143.62927297086796L19.582926970402497,144.14932511809133L20.00497052698384,144.98154314769704L21.148507279002274,144.92461016616448L21.900674108158398,144.73067394744524L22.020574982390002,144.66494382908974L22.349746061732986,145.42528529119915L23.345756270208284,146.15774651231456L23.827514807380766,146.04510657098905L24.818265417185813,147.39352196277088L25.228993746343008,147.75380955138525L26.006794044958554,147.89125650241175L26.839420333811262,148.46891086924916L32.22245850461235,152.6369970282924L33.22381569258059,153.7875490785813L34.0616882080254,154.2116750640639L35.22758290650907,154.04234579378158L36.27586120497233,154.99761478622347L38.75767679560184,156.01918710472756L38.932959016095964,156.4986363060517L38.846823743272694,156.5977532316765L38.79733561948581,156.69359220199016L38.90302403074082,156.82507275064643L40.26409825384823,157.35655481655647L40.631089186976794,157.34475258696403L41.28757940674075,157.02544313687804L41.46764081918778,156.85800219156326L41.57305947056017,156.53096105878035L42.281685341663376,156.786293306556L43.44158264416819,157.68413261732138L44.879049330100514,158.4060047284014L47.78655364497962,160.2893424929187L49.52929391701301,161.01958599397415L50.04863095428564,161.3818462582434L49.62521971689489,162.8447107866249L50.5751879476627,163.2322971320106L51.63106216695559,163.88721261544774L52.81846817016239,165.04831197309818L56.85164128025056,166.47451296609057L58.3709220528053,166.51415814344307L59.548947775431145,167.00217014414156L60.680933539503144,167.2089130658078L62.78422169668474,167.23360484522368L63.54102292836515,167.800165539693L64.00167826199205,167.87641866018245L65.63075109041239,167.65574085865114L68.77139679691359,168.07488738324668L70.08482210483493,167.66081527028297L71.72677249340447,167.60842794487291L71.7424216040923,167.78188778445013L71.90666768231455,167.94014915327014L72.3173248488308,168.00806174261905L73.05851782696797,167.6375771302317L73.05958086745758,167.4225312228104L73.28251905732381,167.35092652629476L75.04851300764648,167.82053774458865L76.25922372496225,168.40605221697496L77.07627644322213,169.04463260530719L76.8093453041009,169.4008525851749L77.49853064765057,170.0507278602159L79.71902231873466,170.568289194558L80.73156192765262,170.1125596828981L81.5880677836966,169.28018478406022L82.15024632988633,169.25242130180317L83.08095750111795,169.80449422465816L83.76994406289893,170.7542854638561L84.64201880791279,171.13641055283168L86.65399789676914,171.05047616733896L87.74294686156335,170.58258377215566L88.6584560335339,170.45986903957026L88.71390033304385,170.52837489838993L88.4604381632214,172.02564715060686L89.45227643951407,172.63190303895624L91.18442869844583,173.06853146557677L93.20999825516034,173.0368783039762L94.86474913832586,173.38473857424225L95.93990087390353,173.37619189640947L97.53064584398308,172.81271873082883L97.99106517132915,173.16846234244605L98.65115996184753,173.31168967266444L99.8500015264691,173.40645732199437L100.42249952097416,173.21718843860663L101.76145080526726,172.48955690489038L103.35530128847506,171.09698503582658L105.05832509965498,169.22521229076406L106.2621878515069,168.39479971264288L106.93756756549706,168.31085307967695L106.9866967045624,168.541648526594L106.54572975248345,169.2492616512394L106.26677210197232,170.10922678162575L106.94671487926689,170.48979585901677L107.34028970689252,170.44440526975842L107.81823411165274,170.75835269402896L109.56713771613468,172.89462082435222L110.6579540373287,173.54097182920788L111.51324394130131,175.15017240566914L112.11244456082628,177.1059531998648L113.43774280643007,176.7938179584036L114.20111297314523,176.37461446026197L115.68707234024251,175.96435905256325L117.66852393658752,175.82662857617998L118.66644851996227,176.0786032580051L119.30706811079233,176.52683206438664L119.11748764746866,176.81426852507212L118.71949960435745,178.04798472099728L118.60969114045542,178.704652222636L118.65249163500525,178.8414274605992L118.66772247803027,178.89011480392432L119.13006685127613,179.47634819541116L121.51142731151819,180.5829703761747L123.22022491802485,180.05840499358862L122.76757052687896,178.97476670891405L121.59341389071406,178.0062440502973L121.4716583706219,175.8062341377455L121.85192631253298,174.9269810101369L124.49657879560641,172.95822810055267L127.43322239849635,172.32867455783023L128.83109520340727,172.36647750332776L129.4121196974481,174.71900346206152L127.93689630102318,175.5567914126733L127.62105408121559,175.60762332193758L126.73155385298656,176.363520630854L126.3836897303926,176.76804699944793L126.19064500723849,177.19374830351316L127.88380137304154,180.3001522734849L127.86597710382941,180.79110363264957L128.08005297698395,181.1209613366043L129.54348776733968,180.73756348177017L129.69723628154938,180.3185178077092L129.79862661972487,178.98716973429728L129.6922319179763,178.8222313336929L129.32401431459073,178.82072076417933L129.272401093922,178.70282856807327L130.2394965507518,177.04529067001238L131.1338969049901,176.52123954237365L132.34423777407486,176.08146715379178L133.00324030714157,176.23729772994488L132.72423692225985,176.66378052534625L132.6536269649924,177.5172949538296L133.07704203493225,181.47531099926456L133.35624356999958,182.05365590160736L133.82709028260422,182.45729321615624L133.7169745244583,183.76853462922017L132.67302100138244,184.51646941287208L132.4854343976382,184.49829996698557L132.08767717653117,183.8986117737929L131.81572591194828,183.7867911201611L130.50742207076428,184.44267428549932L130.74394050286162,186.26208766984962L131.6850312150486,187.6144242600153L132.7557814813169,187.72682728087392L133.00246570811333,188.11916373623103L133.12169118420528,188.94096667281235L132.56291882838138,190.22388370988287L132.5603317915995,190.6200153352555L132.69861710751636,190.90847099504904L133.83967156312218,191.46472233585814L134.11843071366857,191.43583788144326L134.47687559123744,192.3553506193944L134.2838395305008,192.8004472914257L134.17850807556806,193.75951779651126L134.65188571960945,194.69432996097055L135.17412685575403,195.14533717394164L136.28002669738189,195.1645445812964L136.77759420747054,195.44284605717826L135.45017103284636,196.50284713090383L135.30613378467226,197.06758629122754L135.15014523775423,197.258219728685L134.32375696192673,197.43085413252345L133.36390405908068,197.06706497494864L131.73651587092024,196.9533655821353L131.8727854934249,197.6607206578003L132.3948649033979,198.54722971366857L132.2235431760519,199.5752417213522L131.9064247280818,200.21468318961092L129.98626012639554,201.77079962058116L129.23676853236518,202.03182244125395L128.2400042013183,202.80723901032437L127.98897439069768,205.1632738974678L127.48706860066514,206.58621636141672L127.4048605238957,207.62556865016745L125.85311530486746,211.30992990768232L123.94673079942703,213.36945363034377L122.7991610274947,211.92282971949084L125.66815561711337,203.40196652645972L124.54356264159676,199.12892615999823L124.0762110414405,199.47514560504L124.27020103133484,202.0132077969115L122.3237183638754,204.59859553053525L120.0092717739592,209.55566325558982L118.85928079654093,213.58513552825707L114.05676789964426,218.70376480615369L113.57073967497365,219.46039802496185L105.31069619821952,232.2651563970682L101.85875867288638,241.24436601218187L102.77645488835918,242.02918675108805L104.58967104041275,240.76907589318463L104.1805735399926,238.16703265753478L109.85185772242744,229.02532383283375L111.00679763274997,227.0012797815398L114.24180446497772,221.3190642460884L117.40122050210175,218.34097926736308L121.14760439413453,215.93939650217277L124.28648952217165,215.74701153663622L127.37334281894215,214.25647861155937L128.46344033485408,208.5455072307322L128.8962495828246,208.43981538343115L129.55671198430605,207.4704096595884L129.78100170238605,206.39788939028665L130.10199452337585,205.77040190898586L131.58886533518657,204.9258512202151L132.05183236392813,203.14656781079003L132.18409718891576,202.94666832021676L134.29811169591272,200.87735063181634L135.82516344486962,199.95472594362673L136.39174342085056,198.67800970442073L136.79958849190754,198.16771324580998L138.85521055749842,198.1750925757953L138.9483732271077,196.7107919992038L138.2598693004802,194.1972855017127L138.18618869033122,193.22479964320902L137.73677861219767,192.5584743826759L136.53653922559985,192.0711018820684L136.34487422002394,191.49283253471353L136.56789271862934,190.84092550701536L136.87565732104443,190.69481639399805L137.35598514206524,190.74058586449746L137.46431988629575,191.52325715688076L137.98572668099212,192.36323340195108L138.5928169861716,192.58674730154087L140.53875512551846,192.7723108593804L141.77085429394634,193.99413506553114L142.49385010738172,196.25298700940914L142.5070653403564,197.75958083734028L142.79257776103879,200.63029574538655L143.00663798639,201.11479703092715L144.14453451863017,202.1276084679652L144.12861440560158,202.68388133315085L143.94526437850365,203.13322669814593L143.3159172620106,203.73991557476216L143.27357420548407,204.65959310841345L144.63996057592513,206.55788790543198L144.6737031299245,207.347866533274L144.55852564859651,207.99272609157447L144.21665411552573,208.31806625188966L143.54173012021027,208.50707832579968L142.39465134172684,208.5128759667803L141.945842271046,208.41775658381513L141.70678203934978,208.2027209690708L140.63402622292898,208.07851434623177L139.6042309936473,208.1655101272561L140.15685853162142,211.28445172984908L140.86689973596188,211.85848562043824L141.17256547268158,211.84549204191967L141.2959419988602,211.58846897175292L142.06255640840044,211.557841019782L142.42399018086763,212.42548166335217L142.38717465934457,213.60463384088865L142.07989835943897,214.93354986990948L141.4383421988806,216.6487292673026L142.3649642835859,217.77670309036026L142.88584419365964,218.1492883268714L142.89052151258784,218.6426274470209L142.76738321392747,219.169825874261L142.39687044983407,219.67343782069946L142.4562069722897,221.42140501468305L142.68281049225038,222.25783393139696L143.28348419186437,222.48105154602388L143.55627342779968,222.76514210658843L142.04996310187045,223.4629072769319L141.16308565113627,223.52617780491394L140.4493158603986,224.00116255202488L140.15572265004346,224.1964570044359L139.61293239158374,225.0489666334269L139.59340220524436,226.69778006826454L139.26755151100664,227.5400692162157L139.28671949973176,227.9609413381381L140.10645316332023,228.11537872545205L140.70613613398586,227.97694751950795L142.03031375475146,228.80707436762899L142.3537204339195,229.26728402074772L140.06348575587901,232.8580721630391L139.83883966754087,236.44087081984617L138.87984440685898,238.69728626974327L138.55514987242114,239.46075656539128L139.34059070753239,241.1506563412782L138.40659282416848,242.5754133036206L138.10346324545645,243.63789579216711L137.0930519602838,245.41227977817064L136.80910693284653,245.47226293908366L136.91618021795682,246.19203886141847L137.057410646331,246.4481252996046L138.24532866486578,248.74267222302026L138.38525935647735,249.20908766059324L136.41566715593208,251.86216132297108L135.7058660566478,253.41436314044702L135.63517143182287,254.26330347335883L134.80409989506083,255.1344453752082L134.26471314895642,255.0591481294636L130.9961787845976,250.23839051240597L129.5870592101864,249.32181511902235L129.30210514469522,248.95690896604856L131.10993011928593,243.68514224283837L133.41259140456108,241.38493926493976L133.5767137676656,240.8723538634977L133.1794256042177,240.7282194667212L131.18306818674333,241.62294589888128L127.7638565348459,244.73169618977226L126.45372628921118,247.65406511345697L126.10803724371885,249.49524140251043L127.9147364490685,251.93262920480677L129.17857152138296,252.97443744032745L130.89343205919175,254.38627011599917L131.9768486069773,255.28373336219278L132.24573335521436,255.77423408579693L132.37469788347593,256.15237192007436L131.98462414508174,256.82837568035035L130.30971955309664,258.78192078725175L129.10057591824105,261.6607349143799L127.81553116577888,262.8846224321915L126.0264346875467,260.67560176362554L125.55964668660681,260.266732555071L124.34398219849479,259.2014544065648L120.93536336221186,252.2174870925914L122.04846927769117,249.3107077799532L123.16643747078743,248.21129569718155L123.51902051370072,243.5451057035344L123.14676241886102,242.32883601849795L123.09777339458296,242.16893186274112L122.08001498992124,241.56586754833432L121.8374511782886,242.41955687550112L122.06759405224844,244.70422979457146L121.87693020748995,245.42907384739857L120.36720969174743,247.27100938731357L119.16969357489529,249.73778823936684L119.47884858051609,253.01252307817646L120.45960244307096,255.334189868435L119.05368820712968,258.88751929181274L118.97070673397519,259.0969680704709L119.44543433909521,259.22753408904885L121.80386432366095,257.98011125504814L123.96103648012851,263.1255007052559L127.1464463396351,265.0511128344245L128.34635487130905,265.07481832128315L129.78571506313344,265.10259268789946L131.5679414477624,262.5909561562282L132.73150562939807,261.93620850587394L133.87870378330712,259.42631860590404L135.37155240051882,258.6847852010993L135.58606096549406,257.85948415228074L136.1151612653109,255.82247818176376L137.36277768984377,252.85822783570245L139.61478241533743,248.7044738545702L138.4821543493993,246.4351406823621L138.5074106488379,246.31712525534851L138.9441736053725,246.26422030637553L139.35508342277842,246.45041946588537L142.95413750044597,250.10562136773603L144.58184713057602,251.1157951226353L144.97869898483788,251.01245921609313L145.47661405758862,250.8826438579649L146.2158504375414,249.83177610961582L146.7762129342688,249.24528194817606L146.5192877913728,248.75587308184816L145.89532441893755,248.41056358620597L145.3996834768925,248.52608136066786L144.66957655464796,248.10498634688682L144.78810510788406,247.5807721821556L146.01005379735034,246.4833068891745Z"></path></svg>
