<svg id="WY" width="1000" height="1000"><path class="state" d="M68.25506591509668,162.85233480421982L69.15942578743062,151.26091303189668L69.11452264046653,150.8537296926865L69.97021014986211,139.5269752453653L71.30842785223649,139.60907492179422L103.08552653256362,141.29896341103904L105.92816905484153,141.99251839928104L107.22963403572788,142.4147186429708L112.74808166730753,143.71569713412651L131.48169400899707,144.79305452873837L132.1296156788028,144.79024796867475L139.3733238182071,145.2031481231022L149.82538080655627,145.50851282186022L154.8186938691374,144.5897935447437L157.3262965842552,144.98688757244707L159.49597780454678,145.08017040060577L164.0943751879979,145.7143279438033L174.78928320371045,146.35969532582726L185.81564975032836,145.54716516876073L196.0837869164772,146.06486703223015L196.1817565745377,146.08028084801447L199.04047510549185,146.26685037790435L199.126485359875,146.27244459288414L199.1272740690643,146.27249588637L199.9177954126746,146.32386003655506L203.97014095010002,146.50014885152217L214.55100491928766,146.94881033899333L217.09085777860207,147.10786213048465L223.99302027488363,147.53517998821513L229.87128399855663,147.87717135431814L240.55670574797904,148.1396245638282L251.5185562005968,148.54049227407165L274.58358166556593,148.967828725878L275.8970882876064,149.06020247152622L288.95805828061737,149.36922502202856L289.6777855402779,149.38118158102975L298.11414794063717,149.60005323457614L309.3118648840648,149.874067807912L311.78867670803936,151.0376675309031L311.90643047938585,151.04088274370872L314.3352159679873,151.10673551290057L314.88374365889155,151.12059029140966L328.09987566464184,151.44075697798047L340.9192639458912,151.72627466144263L360.78657136505035,152.12005665394696L360.88409544539536,152.12184361049106L368.46414709560474,152.25637022541463L373.7221862513668,152.34462477874683L375.26476129900266,152.35728803008448L383.27147494710414,152.6560677353599L411.44670441633,152.991664206861L414.12835503639826,153.16437289945208L415.5058737901076,153.0520285302497L417.920413700369,153.023938051664L426.4040811282289,153.03224066156514L444.66506972977226,153.18028924320896L445.07196486893207,153.12425164879352L455.58303855663576,153.24967446143182L459.2954882165426,153.29001396724914L463.7853349540142,153.33603958058887L475.36190277951295,153.44076708238157L477.0041168816151,153.44524369139816L492.7732270938029,153.46764788162744L492.8997110712812,153.45579838890535L497.7536790232033,153.42639768529193L507.1152343892543,153.35971760563604L524.3800333284977,153.33116653302807L530.9476378005829,153.35924023408631L551.057882379564,153.40498453837893L552.1083149732773,153.522039158064L554.5586199873143,153.61595305178037L557.1091957318914,153.96529991223184L558.329539464022,153.88437402532594L561.3014756115908,153.95836784297114L566.9060529873677,153.9282950526129L568.8135376716313,153.91698586170537L569.0667795084232,153.91544341218184L579.6244800362313,153.842582579912L580.6947877955256,153.83426324402217L581.19861470479,153.83890292850708L620.2303054521667,153.43365537335717L620.7433556480346,153.42680764141096L657.967119501303,152.82465749083866L687.2793815267386,152.08256256572582L699.1407534191986,151.7456290381735L700.8169179439902,150.59411041657205L700.919424071969,150.42512277713212L701.4315480716912,150.41570275001573L708.9379156796346,150.27311602035945L716.6193141131213,150.02843819889597L767.4334054825994,148.18665432079752L788.8241317328077,147.29531587065463L803.57925444175,146.6403964121439L808.2641443214625,146.42560700588666L809.875817129836,146.36036835592506L810.6090651033322,146.3194309089646L810.7362146777023,146.29472881907287L841.7896017369451,144.99122465535277L842.4291309501181,144.97870514105318L846.5301396830116,144.68796395325995L854.0406133156698,144.4493050234347L854.1963105771574,144.39738852954997L877.9127328596041,143.1657360042928L877.9501125235989,143.16361395747725L904.9076673691632,141.61894581507767L928.492249124713,140.27953237226018L930.0783117210538,161.48655004471368L930.0956746928584,162.87010126927447L931.2664554632952,180.00609185728757L931.2695229062025,180.05364765987923L931.4800609470151,183.29404558427268L931.7685483441388,187.7335884321201L931.7797819553962,187.7848201377106L932.0484671764925,191.77028003479813L932.1023878902583,192.91516225788655L932.1466354454276,193.35492761585715L932.705650418666,202.0697015330934L933.4881342038332,214.26429732503726L933.7969936487943,219.0764395504899L934.0803473423166,223.5309314310519L934.0846080697654,223.59545636751062L935.8409323265644,250.18028160829795L936.4003271687774,258.6421247472811L937.1615088170142,270.1520783000126L938.0598768023956,282.2831416963341L938.4944719393519,289.1408185023164L940.742957917427,324.5996651615041L940.7445921743076,324.87255326407364L941.6345775642153,339.40191409177845L941.6345893776429,339.4020896103966L942.7166994945462,355.4744144814707L942.8489105860253,357.437397253675L942.8872248513853,358.0180450905813L944.7739879367793,386.6258228369186L944.7800208454597,386.68531028634914L944.8329483282066,387.41171033095395L945.0451518362032,391.05545149016496L945.7064825012744,400.75191428308966L945.7095460095418,400.79682222181765L945.9985458451266,405.22991735092154L946.5584019241876,413.8159134413185L947.009200529161,420.45034372721483L947.011432794337,420.48319151332544L947.7818267247903,431.91011831434855L948.0519384013053,435.6960116763688L948.178470374376,436.98078051872255L948.2624203251097,438.25480938864166L951.6889748462561,489.1699074159758L954.5441873034135,532.591092187225L954.6043177277954,533.4040069606349L955.7876427493215,551.0641144791462L955.9529848761995,553.9097633780301L956.0085973418124,554.4506442709438L956.2056854417741,557.840338979611L956.2075007069038,557.8715590470789L956.2164875021192,558.0090376296096L957.456303625898,577.6350992532034L960.2736351691651,620.0192670757478L960.3054580557523,620.4976362277096L960.399258613746,621.9637776409688L960.3556298807143,621.9666355975281L961.3307615369238,636.1151726916909L961.3994310665773,636.7310725803245L961.6837729223731,641.9853242975588L961.7590350196065,642.6024127325885L961.8798322989335,644.1663285761213L962.1790237187637,649.305373806431L962.1796559928442,649.3162337774745L962.2514185195711,650.5488233928054L962.2757390343425,650.9236674114725L962.4128641421564,653.0370475982448L962.4137872365079,653.0512739003764L963.046395093299,662.5207277928114L963.1298813946873,663.4878198254708L963.2882849347695,665.8564911089545L963.3035974153795,666.0854535402115L963.3398316239861,666.6272437550992L963.3749019346927,667.2872797429278L963.370061075741,667.3531889197806L963.3786105196989,667.4855975585233L963.4249792468895,668.2037190845332L963.4251410442773,668.206224844415L963.5843108393633,670.6711976302265L963.6349208076504,671.1953917905433L964.2790005433945,681.5301747482795L964.3901800154133,683.102270290366L964.6193860767581,686.7865290058908L964.9599407485221,691.8774402284656L965.5276948425942,700.3625609938115L966.4333916003573,713.8926472379815L966.8416202992012,720.2178789736938L967.4496901722224,729.63725110891L967.5278679922897,730.89152571484L967.7027591703034,733.6125468810365L967.8434956515752,735.2633378975333L968.0785828346613,739.0908532748699L968.4500411613078,744.0870540150219L968.5870417146255,746.1511070537438L968.5808120507284,746.1646190035219L968.7015377483465,748.2201017464552L968.7263644175559,748.5851917803955L968.951677318399,751.5805362142756L969.028921197364,752.7584352021092L970.199929713332,770.265101535264L970.3443208867291,772.0893102467842L970.4964683061021,774.6595252732461L970.4974849088856,774.6761750651949L971.1825798313776,785.8953626541006L971.3426124494283,787.5801378797846L971.3243261488228,787.6142613155255L971.3681104180396,788.4674604761049L971.8321730889804,795.2740194835488L971.8180405837469,795.3078831753401L971.8383371700918,795.8046765872298L972.6550658673627,809.3076478459977L972.702192504564,810.0866962367347L972.9742396610877,814.5836907074911L973.1184295934529,816.9670374626685L973.6751232178976,824.6432010924959L973.7952305461065,826.3426388117739L973.9772604463875,828.9826518593441L973.9631973947749,829.0825577431488L974.8233232419761,841.9534220580115L974.8297087374663,842.1759950221398L975,844.9439325775415L973.139617916114,845.0487956580045L970.5481272758689,845.2080513876288L968.0368171138578,845.3754117012866L965.4599603155536,845.5275472719363L953.5417825298432,846.2947253887531L953.1734227844786,846.3220758363955L953.1044692851278,846.3103595565217L931.869496512944,847.6362018554883L918.7905052887818,848.4215432117094L914.8001483967411,848.5926612610076L914.787563697979,848.5892376943498L900.9016478653672,849.4657153319126L900.826669511922,849.4703750100639L890.5275982273843,850.1029868640189L877.3691039886093,850.996854773553L869.7089437702627,851.5060935230402L866.2221306088063,851.9046021192811L854.2618609628599,852.49636282801L811.9754969232779,854.4291023267499L811.7382491639912,854.4427978945114L808.9769323661299,854.5649583082088L808.9391771392785,854.5666212521644L790.527192431747,855.401592540592L748.1353334251286,857.1449387019759L747.3722840193194,857.1755011571586L741.9179096548235,857.3582190034786L702.424646692517,858.5580236968947L684.8385816968014,858.9210418068509L681.1656743337837,858.9914448157353L667.0795764918157,859.0815696094185L658.21067234833,858.9176313085335L657.4635412260446,858.9282342398453L652.1471734818862,858.9386904806481L651.2677508479137,858.9494624178559L650.9756494813695,858.9226173300667L649.0322560735069,858.9488499123568L594.1263965942466,859.7665182396681L574.7079611225048,859.8535524489937L559.0103389102195,860.0547784571505L542.0018673365581,860.2342440398867L533.6077533212298,860.2547442708242L531.5879206852992,860.2582192023892L524.8380016122029,860.265728891539L489.73757390821106,860.4730247546347L480.7977117379101,860.458550874062L449.93063891427073,860.3234118311013L432.5130430534166,860.1768816876242L414.1993116184261,860.2726326212544L404.7607411672216,860.2158644601525L398.02224849212854,860.1239900251346L372.3933776896424,859.7170477610305L370.7739888342295,859.6882752609811L367.23694151655684,859.7149369578905L353.04207017492126,859.3413139884733L318.6504489981684,858.5706004586675L296.10205084386087,857.8670929786415L279.30671169859653,857.3370230067139L271.3914907110295,856.8743653424674L268.8378812109553,856.9822455064357L234.8663175178158,856.1531276237779L230.20930929040753,856.1578471762753L229.01781855432438,856.1103770532568L226.11135059981274,855.993753311296L223.25334987565924,855.8779299772486L210.99020340380628,855.3680720363952L210.96123963620482,855.3670439135617L206.11518038893325,855.1933837923468L205.9016234641923,855.1856558894365L205.69298500932507,855.190666471456L203.63988762993182,855.1170021567082L201.20715877401966,855.0289591325311L186.82461534424698,854.4916467058624L186.6888446636783,854.4942233777485L170.36364580604106,853.7127981085308L167.058005857429,853.6658731393895L166.94005046627626,853.6564596710961L166.1580873968228,853.5368223322159L160.45541903310715,853.3174978999796L150.51762847180777,852.9244956781918L149.96021979705694,852.9968121703159L134.7253329329024,852.4436017179935L132.9853885640614,852.2358580667571L128.65716031274678,852.0667172970004L116.00550222556791,851.557388125697L99.03685267370037,850.6697359486823L93.74647511164909,850.0848920128885L92.95341193978663,850.0401399004955L84.65431629595565,849.5665737486657L69.9726355416131,848.7053105819339L67.97054467390831,848.5482265769433L65.13449417294657,848.3247509762334L49.664577011825486,847.2971215594737L48.66399744076307,847.229506248678L26.747579179700097,845.7134428785579L25.000000000000057,845.5896690305394L26.885153768353803,817.210266001744L27.419470464921744,809.1613165275425L27.980866962269488,800.7019336699454L28.023779742462523,800.0551984703811L28.423282930421124,793.9553710233225L29.302042273309382,780.5336390032758L29.54787060161948,777.48622695072L31.288655611341028,751.7560420261613L31.82009551240924,743.895706537012L31.9837092701884,741.3450611721803L34.27079097536961,705.6706866728721L34.27080722102062,705.67043313817L36.802116976638786,666.1429447390841L38.38866939457597,641.0778833440148L38.46428106372338,639.9274348527483L38.86284147062281,633.9401320743898L38.99845247687222,631.7902487677536L40.001133493401255,616.5184725234695L40.79705332178338,604.3412942566463L40.797567702555625,604.3335875663569L41.405644056789015,595.221542186738L42.635770872061755,576.77848481172L42.74109610823331,575.3319277636555L43.63756856553067,563.0150131190691L44.548157402070956,551.3778012193075L44.66554884232221,549.8768935110068L45.571270534326004,538.291719846131L47.05706144789502,514.4880238961226L47.250621078783354,511.386004191029L48.1734928515703,497.52569962452515L48.302209373735764,495.5919720907126L48.34350513666294,494.96061609540595L48.36025350459454,494.70455246049187L48.428596733427696,493.7206201515751L48.510443026931966,492.39324433227705L48.72330371558678,488.9409077743342L48.903083954471015,486.02489145459907L48.915150199398454,485.78671478063353L48.93805142736494,485.33466926732643L48.98278638012431,484.98939431265694L48.98580404418266,484.94303647483787L49.00391242271547,484.6668390636304L49.028855477240256,484.1623986533465L49.18068164701697,482.0226747314749L49.20981825457591,481.4538019663776L49.22823830175423,481.1608622194773L49.322963842689944,479.65976993327035L49.38193499857283,478.69210242128446L49.44492193733328,477.6587443769681L49.46688483965363,477.29743956079676L49.51682484291723,476.5678104462617L50.67087479096466,458.6524013063883L50.69837613750235,458.2253497255047L50.705236548571634,458.1188177146917L50.70257391983739,458.0983164931468L50.78940874392089,456.83058750031716L50.85261206226261,455.9855911230656L50.917294135868985,454.8701434880503L50.97197810393976,453.99755720360776L52.24149119167049,433.7346255153454L54.28231433408308,401.16089136916463L54.746271073195885,393.7518798519901L55.18259108168769,386.78293522172373L56.0171039249808,373.45059427474007L56.22721084681808,369.8967078768885L56.24429606962411,369.60771021932356L56.258123816259285,368.9278252192328L56.2769586647625,368.76892877100914L56.292629314985504,368.41170707581034L56.642084808134314,362.41586046665134L56.685946462752725,361.71531628807634L56.69128835044563,361.62999653370616L56.691474863794895,361.62919958492154L56.707994198593894,361.5586139773734L57.31818684270576,351.68565232374135L57.58830688512029,347.3143903857091L57.66982677459703,345.99509709629746L58.74459313916782,329.80697525953667L59.448467415300115,318.1604807487856L59.526099030058106,316.6757225105956L59.67655553430444,313.7982490488004L59.68756570765822,310.2635599168925L60.18500409846121,303.2217967091138L60.189926174743334,303.14583105679776L60.22809872106944,302.78617585846064L60.83809211428024,293.72152197307173L60.868611209021935,291.95462503565557L60.95042799193459,290.65512494520965L60.95043437261023,290.6550235995761L63.37826101441664,252.07338913055833L63.686362027087284,248.36816879988407L64.36349899536083,237.76695930632707L64.39152380317927,237.37602584135004L64.8240746880993,231.11027884116197L65.74812972485353,204.82842737652902L66.19737565387584,197.64560381448945L66.83904879635583,187.38391279619344L67.00350243860169,183.1086255655204Z"></path></svg>